<?xml version="1.0" standalone="no"?>
<!DOCTYPE svg PUBLIC "-//W3C//DTD SVG 20010904//EN"
 "http://www.w3.org/TR/2001/REC-SVG-20010904/DTD/svg10.dtd">
<svg version="1.0" xmlns="http://www.w3.org/2000/svg"
 width="1000.000000pt" height="1000.000000pt" viewBox="0 0 1000.000000 1000.000000"
 preserveAspectRatio="xMidYMid meet">
<metadata>
Created by potrace 1.14, written by Peter Selinger 2001-2017
</metadata>
<g transform="translate(0.000000,1000.000000) scale(0.100000,-0.100000)"
fill="#000000" stroke="none">
<path d="M3919 9166 c-2 -2 -42 -7 -89 -10 -149 -12 -259 -24 -270 -31 -3 -2
-33 -7 -65 -11 -89 -11 -100 -12 -100 -14 0 -1 -11 -3 -25 -6 -14 -2 -43 -8
-65 -14 -22 -5 -51 -12 -65 -14 -14 -3 -63 -15 -110 -26 -47 -12 -92 -23 -100
-25 -8 -2 -31 -9 -50 -16 -51 -18 -64 -22 -75 -24 -48 -11 -309 -109 -393
-146 -92 -42 -328 -159 -377 -188 -27 -16 -61 -34 -73 -40 -23 -11 -318 -205
-357 -235 -139 -107 -191 -150 -255 -204 -41 -36 -76 -69 -78 -74 -2 -4 -11
-8 -19 -8 -9 0 -14 -3 -11 -6 4 -3 -12 -22 -35 -42 -81 -73 -287 -287 -287
-299 0 -3 -8 -13 -18 -22 -65 -57 -314 -403 -413 -571 -24 -41 -48 -83 -54
-92 -39 -65 -162 -317 -158 -322 4 -3 0 -6 -7 -6 -7 0 -10 -3 -7 -7 4 -3 3
-11 -2 -17 -5 -6 -27 -56 -49 -111 -23 -55 -46 -113 -53 -130 -7 -16 -13 -32
-14 -35 0 -3 -11 -36 -24 -75 -13 -38 -24 -74 -26 -80 -1 -5 -5 -17 -8 -25 -9
-25 -31 -94 -33 -108 -1 -7 -14 -56 -28 -110 -14 -53 -27 -108 -30 -122 -3
-14 -8 -36 -11 -50 -7 -35 -13 -69 -20 -115 -3 -22 -8 -51 -11 -65 -2 -14 -6
-36 -9 -49 -2 -13 -7 -49 -10 -80 -4 -31 -8 -66 -10 -78 -2 -13 -7 -67 -12
-120 -10 -119 -11 -3558 -1 -3625 11 -73 48 -198 74 -250 13 -27 24 -50 24
-53 -2 -10 73 -129 109 -175 45 -57 167 -177 203 -198 16 -9 28 -20 28 -24 0
-4 5 -8 11 -8 6 0 30 -13 54 -30 24 -16 47 -30 52 -30 5 0 24 -8 43 -19 37
-19 149 -58 190 -65 14 -3 25 -5 25 -6 0 -2 23 -6 80 -15 54 -8 5042 -9 5165
-1 94 5 229 17 249 21 9 1 41 6 71 10 69 8 89 11 200 30 64 11 264 56 335 77
39 10 75 21 80 22 6 2 17 5 25 8 8 3 65 22 126 41 110 35 263 94 359 138 28
12 52 23 55 24 17 4 226 111 228 117 2 5 12 8 23 8 10 0 19 5 19 10 0 6 4 10
9 10 10 0 183 100 191 110 3 4 12 10 20 14 30 14 98 58 150 96 125 93 233 175
244 184 6 6 36 31 66 56 187 154 434 409 590 610 19 25 38 50 43 55 4 6 26 35
48 65 21 30 42 60 47 65 28 38 148 225 188 295 27 47 51 87 54 90 3 3 6 10 7
15 1 6 20 43 42 84 23 41 41 80 41 87 0 8 5 14 10 14 6 0 10 4 10 9 0 5 14 40
31 78 46 103 45 100 94 225 25 65 48 126 50 137 2 11 9 29 15 40 6 12 9 21 6
21 -2 0 7 33 21 73 13 39 26 79 28 87 1 8 8 35 15 60 7 25 14 52 15 60 2 8 13
58 25 110 29 128 32 141 35 170 2 14 4 25 5 25 1 0 3 14 5 30 2 17 7 50 11 75
8 48 9 54 18 140 4 30 9 78 13 105 3 28 7 844 9 1815 3 1427 1 1778 -10 1832
-7 37 -11 70 -8 73 3 3 0 5 -7 5 -7 0 -10 4 -7 9 14 22 -69 217 -136 322 -48
74 -187 229 -206 229 -4 0 -21 14 -39 30 -18 17 -37 30 -42 30 -6 0 -11 5 -11
11 0 5 -4 8 -9 5 -5 -4 -11 -2 -13 3 -8 23 -238 121 -318 135 -14 3 -25 5 -25
6 0 1 -11 4 -25 8 -27 6 -5214 14 -5221 8z m622 -1771 c0 -5 1 -1085 1 -2398
1 -2483 2 -2423 -36 -2400 -5 4 -43 7 -85 9 -183 6 -375 38 -559 95 -123 38
-114 35 -137 44 -11 4 -49 19 -85 32 -84 33 -256 119 -345 173 -66 40 -226
152 -251 175 -6 5 -35 30 -65 55 -99 83 -255 245 -319 330 -14 19 -34 45 -46
59 -20 25 -106 156 -153 234 -35 57 -125 244 -150 312 -13 33 -29 76 -36 95
-27 69 -76 247 -89 325 -3 17 -10 51 -14 77 -5 26 -7 50 -4 53 3 3 1 5 -4 5
-5 0 -11 33 -13 73 -8 123 -6 459 2 517 5 30 10 71 12 90 4 35 11 77 19 115
34 156 76 305 100 360 7 17 26 64 42 105 15 41 31 80 35 85 4 6 30 55 59 110
29 55 59 112 66 126 8 15 21 32 29 39 8 7 15 18 15 25 0 6 9 20 20 30 11 10
18 20 16 22 -2 3 3 13 12 22 9 10 36 44 59 77 77 106 231 267 370 386 45 38
172 131 211 153 17 11 32 23 32 27 0 4 4 8 9 8 4 0 46 22 92 48 81 47 252 132
265 132 3 0 20 7 37 15 49 22 255 89 312 100 6 2 37 8 70 16 88 19 87 18 120
23 17 3 46 7 65 10 19 3 64 8 99 11 35 2 65 5 66 7 9 9 155 2 156 -7z m2879 4
c3 -4 5 -544 5 -1201 l0 -1193 -65 1 c-121 2 -291 19 -370 38 -14 3 -36 8 -50
10 -14 3 -36 7 -50 11 -14 3 -34 7 -45 9 -11 2 -32 9 -47 15 -16 6 -28 9 -28
6 0 -4 -171 53 -250 85 -81 32 -223 102 -238 117 -8 7 -17 11 -22 8 -4 -3 -13
2 -20 10 -7 8 -16 15 -21 15 -12 0 -256 162 -269 179 -3 3 -21 18 -40 33 -71
53 -222 199 -289 278 -25 29 -50 58 -55 64 -6 6 -31 38 -55 71 -25 33 -48 62
-53 63 -4 2 -8 8 -8 12 0 8 -57 99 -69 110 -23 20 -201 387 -201 413 0 7 -5
18 -12 25 -7 7 -8 12 -4 12 5 0 4 6 -1 13 -6 6 -14 26 -18 42 -5 17 -9 35 -11
40 -61 209 -83 316 -100 485 -7 66 -12 223 -8 230 4 9 2388 7 2394 -1z m-2215
-2403 c50 -3 101 -8 115 -11 14 -3 39 -8 55 -10 148 -18 411 -87 530 -139 131
-58 206 -93 259 -123 33 -19 69 -37 79 -40 9 -3 17 -9 17 -14 0 -5 4 -9 9 -9
16 0 153 -94 257 -177 118 -94 271 -246 355 -352 33 -42 68 -85 76 -95 30 -37
143 -215 143 -226 0 -5 5 -10 10 -10 6 0 10 -9 10 -19 0 -11 4 -21 8 -23 7 -2
94 -172 97 -188 1 -3 9 -23 19 -45 21 -49 93 -261 100 -295 2 -14 14 -62 25
-107 12 -45 21 -86 20 -90 -1 -4 -1 -10 1 -13 1 -3 3 -17 5 -31 2 -15 6 -44 9
-65 7 -40 17 -169 20 -262 2 -51 2 -53 -21 -49 -13 2 -26 1 -28 -3 -3 -4 -22
-4 -43 0 -21 3 -47 3 -58 0 -10 -4 -28 -4 -40 0 -11 5 -27 5 -34 0 -7 -5 -23
-5 -34 0 -12 4 -30 4 -41 0 -11 -4 -23 -6 -27 -3 -13 7 -79 10 -83 3 -3 -4
-22 -4 -44 0 -21 4 -46 3 -55 -2 -10 -6 -16 -5 -16 1 0 7 -8 7 -24 1 -13 -5
-26 -6 -29 -4 -8 9 -70 10 -98 3 -15 -4 -32 -3 -40 1 -7 5 -21 4 -31 -1 -12
-6 -18 -6 -18 0 0 7 -8 7 -24 1 -13 -5 -26 -6 -29 -4 -9 9 -70 10 -99 3 -16
-4 -28 -4 -28 0 0 5 -15 5 -32 2 -18 -4 -51 -4 -74 -1 -22 4 -49 3 -60 0 -10
-4 -28 -4 -40 0 -11 5 -27 5 -34 0 -7 -5 -23 -5 -34 0 -12 4 -30 4 -41 0 -11
-4 -23 -6 -27 -3 -13 7 -79 10 -83 3 -3 -4 -22 -4 -44 0 -21 4 -46 3 -55 -2
-10 -6 -16 -5 -16 1 0 7 -8 7 -24 1 -13 -5 -26 -6 -29 -4 -8 9 -70 10 -98 3
-15 -4 -32 -3 -40 1 -7 5 -21 4 -31 -1 -12 -6 -18 -6 -18 0 0 7 -8 7 -24 1
-13 -5 -26 -6 -29 -4 -9 9 -70 10 -99 3 -16 -4 -28 -4 -28 0 0 5 -15 5 -32 2
-18 -4 -51 -4 -74 -1 -22 4 -49 3 -60 0 -10 -4 -28 -4 -40 0 -11 5 -27 5 -34
0 -7 -5 -23 -5 -34 0 -12 4 -30 4 -41 0 -11 -4 -24 -5 -28 -3 -12 7 -123 7
-135 -1 -6 -3 -13 2 -15 11 -9 33 -5 2378 4 2389 5 6 26 10 47 8 20 -2 78 -5
127 -8z"/>
</g>
</svg>
