<svg width="1096" height="255" viewBox="0 0 1096 255" fill="none" xmlns="http://www.w3.org/2000/svg">
<path d="M1096 59.97C1064.48 59.676 1033 54.827 1001.83 50.571C969.819 46.199 937.778 41.256 905.535 38.895C884.409 37.348 863.745 38.236 842.961 42.423C826.352 45.769 810.092 50.598 793.557 54.267C777.891 57.743 761.937 60.058 745.86 60.001C726.881 59.934 708.096 55.507 689.889 50.526C652.599 40.326 615.245 24.514 576.283 22.227C546.007 20.45 519.132 32.317 491.698 43.325C478.354 48.679 464.706 53.446 450.442 55.621C435.025 57.973 419.331 57.068 404.05 54.173C374.337 48.544 346.635 35.378 316.796 30.265C300.337 27.445 283.665 27.293 267.205 30.177C250.881 33.037 235.189 38.482 219.586 43.929C203.414 49.575 187.157 55.231 170.206 58.05C151.036 61.238 132.876 60.16 114.773 52.787C76.213 37.082 43.634 2.123 0.000976562 1.04V0C43.71 0.873 76.121 36.142 114.673 51.867C132.761 59.245 151.006 60.256 170.156 57.075C187.113 54.258 203.373 48.59 219.547 42.934C235.152 37.477 250.847 32.02 267.177 29.162C283.625 26.283 300.307 26.438 316.753 29.255C346.601 34.367 374.303 47.559 404.025 53.19C419.306 56.085 435.025 56.989 450.444 54.65C464.705 52.487 478.342 47.711 491.672 42.336C519.114 31.27 545.899 19.452 576.207 21.211C615.19 23.474 652.583 39.328 689.888 49.537C708.085 54.516 726.862 58.952 745.831 59.002C761.916 59.044 777.878 56.737 793.553 53.26C810.06 49.599 826.292 44.78 842.873 41.442C863.635 37.262 884.306 36.342 905.411 37.877C937.697 40.224 969.778 45.206 1001.83 49.602C1032.99 53.875 1064.48 58.773 1096 59.002V59.972V59.97Z" fill="url(#paint0_linear_306_1493)"/>
<path d="M1096 67.7136C1034.69 66.7076 974.13 53.7676 913.022 49.6656C891.629 48.2296 870.907 49.0676 849.873 53.3806C832.51 56.9406 815.508 62.0166 798.222 65.9086C782.295 69.4946 766.056 72.0046 749.692 71.8956C731.004 71.7716 712.525 67.5866 694.573 62.7276C658.257 52.8976 622.065 37.8346 584.156 35.5766C553.692 33.7626 525.382 45.2296 497.223 55.1566C483.337 60.0516 469.213 64.4666 454.6 66.5616C439.14 68.7776 423.565 67.9826 408.236 65.1596C378.759 59.7306 351.16 47.0616 321.566 42.1266C305.094 39.3796 288.491 39.2516 272.017 42.0346C255.859 44.7646 240.277 49.9246 224.775 55.1076C208.704 60.4806 192.56 65.8406 175.781 68.5336C156.477 71.6326 138.43 70.1706 119.938 63.7536C79.834 49.8386 43.696 20.0476 0.000976562 18.2036V16.3516C43.624 18.2336 79.349 48.5806 119.226 62.7556C137.673 69.3126 155.673 70.7656 174.971 67.6486C191.772 64.9346 207.931 59.5386 224.016 54.1316C239.532 48.9156 255.128 43.7206 271.307 40.9696C287.788 38.1676 304.395 38.2976 320.873 41.0576C350.498 46.0196 378.112 58.7456 407.619 64.2036C422.941 67.0376 438.515 67.8496 453.968 65.6036C468.53 63.4876 482.589 59.0266 496.404 54.0766C524.448 44.0286 552.607 32.4646 583.017 34.2856C621.07 36.5646 657.411 51.7096 693.862 61.5906C711.861 66.4696 730.392 70.6856 749.131 70.8126C765.446 70.9236 781.636 68.4386 797.517 64.8686C814.709 61.0046 831.619 55.9596 848.888 52.4256C869.901 48.1266 890.608 47.3036 911.977 48.7666C973.435 52.9726 1034.33 66.2026 1096 67.2376V67.7136Z" fill="url(#paint1_linear_306_1493)"/>
<path d="M1096 71.4132C1039.44 71.1332 983.334 61.6542 926.885 59.0822C905.584 58.1112 884.986 59.1762 864.079 63.5362C845.07 67.5012 826.459 73.1132 807.537 77.4432C790.898 81.2502 773.92 84.0532 756.805 83.9512C738.811 83.8442 721.027 79.9922 703.717 75.3682C669.231 66.1562 634.914 52.1042 598.892 50.4372C567.796 48.9982 538.032 58.8592 508.517 67.2212C478.5 75.7262 448.625 80.8892 417.502 75.6542C388.328 70.7472 360.897 58.7362 331.667 54.0792C315.308 51.4732 298.711 51.2832 282.323 53.7482C266.391 56.1442 250.964 60.8402 235.612 65.6032C219.708 70.5372 203.744 75.4592 187.228 77.8952C167.839 80.7552 148.829 79.5092 129.796 74.9672C86.5 64.6362 45.259 41.5282 0.000976562 40.8692V38.6172C45.076 39.4242 85.828 63.2042 128.803 73.9052C147.786 78.6322 166.697 79.9062 186.073 77.0172C202.618 74.5502 218.602 69.5812 234.526 64.6012C249.897 59.7942 265.344 55.0522 281.303 52.6262C297.705 50.1322 314.305 50.3242 330.678 52.9512C359.949 57.6482 387.402 69.7302 416.615 74.6792C447.691 79.9432 477.418 74.7442 507.338 66.0692C536.679 57.5622 566.281 47.5322 597.267 48.9902C633.488 50.6952 668.006 64.8512 702.68 74.1332C720.063 78.7862 737.927 82.6822 756 82.8002C773.042 82.9112 789.946 80.1382 806.517 76.3582C825.314 72.0702 843.798 66.4942 862.68 62.5672C883.566 58.2232 904.141 57.1872 925.416 58.2072C982.359 60.9362 1038.94 70.7662 1096 71.1312V71.4142L1096 71.4132Z" fill="url(#paint2_linear_306_1493)"/>
<path d="M1096 74.9172C1044.4 75.3392 992.97 69.5382 941.403 68.4552C919.834 68.0022 899.017 69.2822 877.877 73.8042C857.599 78.1412 837.731 84.1542 817.543 88.8652C800.225 92.9062 782.55 96.0292 764.714 96.0182C747.497 96.0072 730.488 92.5842 713.893 88.2512C681.264 79.7312 648.962 66.7502 614.906 65.4222C582.671 64.1652 551.306 72.3642 520.108 79.2882C489.146 86.1602 457.862 90.9312 426.217 85.9782C397.439 81.4742 370.227 70.1942 341.398 65.9282C308.655 61.0832 277.709 67.2522 246.299 76.2022C230.591 80.6782 214.834 85.1192 198.603 87.2552C179.005 89.8342 159.138 88.9042 139.622 86.1012C93.129 79.4232 47.353 63.1382 0.000976562 63.7962V61.6352C47.148 61.0632 92.542 77.9902 138.748 84.9892C158.223 87.9392 178.028 88.8932 197.602 86.2902C213.859 84.1282 229.634 79.6442 245.36 75.1262C276.794 66.0952 307.751 59.8552 340.542 64.7402C369.407 69.0402 396.638 80.3882 425.452 84.9282C457.047 89.9052 488.213 85.1002 519.092 78.0842C550.145 71.0292 581.363 62.6882 613.496 63.9592C647.726 65.3122 680.211 78.3942 713.004 86.9762C729.66 91.3352 746.736 94.7962 764.02 94.8132C781.794 94.8302 799.41 91.7362 816.669 87.7152C836.743 83.0392 856.496 77.0632 876.659 72.7592C897.774 68.2522 918.573 66.9832 940.116 67.4832C992.116 68.6882 1043.96 74.8482 1096 74.4662V74.9192V74.9172Z" fill="url(#paint3_linear_306_1493)"/>
<path d="M1096 82.0792C1047.27 82.2422 998.585 79.5412 949.862 79.0372C928.038 78.8112 907.149 80.0232 885.758 84.6622C864.644 89.2412 843.95 95.5232 822.927 100.482C805.296 104.642 787.278 107.983 769.101 107.935C752.255 107.891 735.619 104.729 719.355 100.555C687.809 92.4592 656.781 80.2812 623.897 78.9962C558.819 76.4522 496.38 106.692 431.023 96.8712C402.502 92.5852 375.415 81.8472 346.848 77.7872C314.406 73.1762 283.517 78.9452 252.24 87.3102C236.651 91.4792 221.021 95.5992 204.974 97.5892C185.215 100.039 165.194 98.9752 145.435 97.0842C97.007 92.4492 48.801 81.5692 0.000976562 81.7542V80.2542C48.726 79.8722 96.812 91.2182 145.138 95.9412C164.892 97.8712 184.942 98.8792 204.697 96.4262C220.755 94.4332 236.393 90.2922 251.988 86.1022C283.267 77.6992 314.156 71.9202 346.611 76.5392C375.195 80.6072 402.288 91.3872 430.824 95.6812C496.151 105.511 558.462 75.1762 623.502 77.6792C656.448 78.9472 687.55 91.1892 719.151 99.3072C735.42 103.487 752.064 106.663 768.917 106.694C787.088 106.727 805.098 103.401 822.724 99.2452C843.692 94.3012 864.333 88.0382 885.393 83.4742C906.757 78.8442 927.649 77.6072 949.447 77.8292C998.31 78.3272 1047.13 81.2982 1096 81.0392V82.0792Z" fill="url(#paint4_linear_306_1493)"/>
<path d="M1096 93.676C1045.39 93.794 994.82 90.824 944.214 90.198C922.444 89.929 901.612 91.16 880.269 95.757C859.087 100.319 838.318 106.567 817.227 111.507C799.612 115.632 781.59 118.992 763.433 118.914C746.535 118.842 729.827 115.669 713.497 111.54C681.772 103.518 650.538 91.491 617.517 90.136C553.103 87.493 491.731 117.762 426.97 108.179C398.493 103.965 371.363 93.549 342.842 89.552C310.225 84.98 279.145 90.803 247.627 98.934C231.815 103.013 215.964 107.06 199.728 109.057C180.02 111.481 160.141 110.356 140.436 108.463C93.621 103.966 47.16 93.987 0.000976562 93.677V92.383C47.536 92.695 94.395 102.698 141.589 107.21C161.334 109.098 181.256 110.244 201.003 107.807C217.197 105.808 233.003 101.754 248.768 97.663C280.235 89.499 311.262 83.681 343.838 88.265C372.363 92.279 399.485 102.739 427.966 106.969C492.882 116.612 554.518 86.349 619.102 89.001C652.078 90.355 683.253 102.392 714.928 110.423C731.24 114.559 747.931 117.731 764.814 117.803C782.972 117.88 800.993 114.517 818.608 110.385C839.7 105.437 860.468 99.179 881.65 94.609C902.981 90.007 923.799 88.778 945.557 89.038C995.715 89.637 1045.83 92.497 1096 92.384V93.678V93.676Z" fill="url(#paint5_linear_306_1493)"/>
<path d="M1096 105.412C1039.74 105.386 983.567 101.313 927.33 100.273C905.236 99.8647 884.087 101.034 862.41 105.611C841.233 110.082 820.456 116.216 799.368 121.059C781.738 125.108 763.723 128.387 745.572 128.307C728.447 128.232 711.508 125.075 694.927 121.012C662.577 113.085 630.641 101.163 597.052 99.8177C566.052 98.5767 535.734 106.19 505.661 112.606C475.364 119.069 445.007 123.207 414.088 118.873C385.649 114.887 358.439 104.949 329.96 101.17C296.808 96.7697 265.016 102.598 232.865 110.38C216.499 114.341 200.095 118.292 183.343 120.253C164.286 122.485 145.104 121.645 126.059 119.694C83.973 115.381 42.461 105.66 0 105.412V104.059C43.082 104.317 85.249 114.071 127.96 118.408C147.1 120.351 166.381 121.23 185.532 118.972C202.216 117.005 218.547 113.042 234.842 109.066C266.909 101.241 298.604 95.4107 331.685 99.8337C360.169 103.643 387.369 113.641 415.813 117.658C446.847 122.041 477.367 117.857 507.795 111.457C538.066 105.09 568.611 97.4867 599.791 98.7397C633.304 100.087 665.149 112.022 697.416 119.961C713.962 124.032 730.87 127.193 747.963 127.267C766.114 127.346 784.13 124.056 801.759 119.997C822.848 115.141 843.624 108.993 864.801 104.51C886.426 99.9317 907.526 98.7497 929.569 99.1387C985.059 100.12 1040.49 104.061 1096 104.058V105.411L1096 105.412Z" fill="url(#paint6_linear_306_1493)"/>
<path d="M1096 117.148C1033.21 116.842 970.538 111.653 907.782 110.086C885.236 109.523 863.672 110.572 841.53 115.14C820.359 119.508 799.574 125.514 778.488 130.248C760.837 134.211 742.836 137.384 724.688 137.305C707.29 137.23 690.068 134.102 673.188 130.105C640.12 122.275 607.385 110.476 573.137 109.153C543.682 108.015 515.375 115.696 487.026 122.56C457.897 129.613 428.941 133.324 399.027 129.407C370.627 125.688 343.334 116.275 314.899 112.754C281.114 108.57 248.486 114.361 215.605 121.778C198.608 125.612 181.576 129.454 164.234 131.367C146.01 133.378 127.669 132.885 109.469 130.848C72.822 126.747 37.075 117.316 0.000976562 117.148V115.736C37.683 115.912 74.092 125.376 111.354 129.502C129.648 131.527 148.079 132.06 166.396 130.025C183.671 128.106 200.631 124.252 217.556 120.404C250.353 112.946 282.889 107.15 316.601 111.358C345.041 114.908 372.325 124.382 400.729 128.131C430.756 132.094 459.868 128.33 489.13 121.349C517.673 114.539 546.213 106.863 575.84 108.012C610.013 109.337 642.658 121.149 675.644 128.991C692.49 132.996 709.681 136.127 727.048 136.202C745.196 136.281 763.199 133.097 780.848 129.124C801.935 124.377 822.719 118.357 843.89 113.977C865.983 109.407 887.502 108.345 910 108.892C972.017 110.399 1033.95 115.459 1096 115.736V117.148Z" fill="url(#paint7_linear_306_1493)"/>
<path d="M1096 128.882C1028.56 128.516 961.25 122.359 893.85 120.45C871.118 119.806 849.358 120.824 827.019 125.354C805.853 129.646 785.06 135.55 763.977 140.203C746.316 144.1 728.317 147.215 710.177 147.137C692.606 147.061 675.2 143.935 658.129 139.997C624.539 132.248 591.22 120.546 556.495 119.221C528.072 118.137 501.287 125.79 474.142 133.064C445.833 140.649 417.792 143.925 388.56 140.279C360.192 136.741 332.833 127.759 304.432 124.41C270.2 120.373 237.01 126.132 203.612 133.278C168.351 140.823 133.673 146.505 97.548 142.165C82.326 140.336 67.364 137.018 52.308 134.208C34.989 130.975 17.637 128.96 0.000976562 128.884V127.414C33.6 127.556 65.435 136.777 98.55 140.731C134.678 145.045 169.303 139.41 204.56 131.828C237.915 124.655 271.064 118.896 305.26 122.944C333.664 126.306 361.017 135.332 389.388 138.884C418.67 142.55 446.778 139.223 475.151 131.693C502.393 124.464 529.313 116.799 557.815 117.885C592.5 119.207 625.767 130.919 659.313 138.676C676.371 142.62 693.765 145.744 711.324 145.82C729.466 145.898 747.464 142.781 765.125 138.878C786.209 134.218 807.001 128.304 828.167 124.005C850.51 119.468 872.268 118.457 895.005 119.097C962.02 120.984 1028.95 127.031 1096 127.416V128.886L1096 128.882Z" fill="url(#paint8_linear_306_1493)"/>
<path d="M1096 140.618C1028.7 140.516 961.529 133.706 894.268 131.818C871.55 131.181 849.776 132.168 827.466 136.779C806.316 141.151 785.562 147.199 764.499 151.946C746.818 155.931 728.883 158.964 710.711 158.931C693.11 158.9 675.731 155.769 658.654 151.719C625.047 143.747 591.689 131.561 556.859 130.389C528.22 129.425 501.389 137.07 474.046 144.452C445.656 152.117 417.504 155.473 388.172 151.767C359.993 148.207 332.885 139.007 304.671 135.642C270.388 131.552 237.329 137.316 203.967 144.841C186.584 148.762 169.158 152.701 151.416 154.614C133.69 156.525 115.714 156.203 98.023 154.064C82.7 152.211 67.643 148.839 52.491 145.986C35.113 142.714 17.704 140.667 0.00201416 140.618V139.088C17.601 139.142 34.908 141.15 52.182 144.426C67.134 147.262 81.989 150.615 97.113 152.447C114.791 154.588 132.742 154.879 150.455 152.992C168.241 151.098 185.722 147.222 203.163 143.367C236.581 135.979 269.717 130.249 304.023 134.308C332.297 137.654 359.492 146.756 387.732 150.294C416.994 153.96 445.065 150.687 473.38 143.002C500.592 135.617 527.274 128.015 555.789 128.989C590.613 130.178 623.998 142.22 657.628 150.112C674.711 154.121 692.098 157.235 709.696 157.272C727.863 157.311 745.81 154.278 763.492 150.325C784.562 145.615 805.328 139.617 826.483 135.278C848.791 130.702 870.565 129.708 893.275 130.342C960.866 132.229 1028.37 138.97 1096 139.086V140.616L1096 140.618Z" fill="url(#paint9_linear_306_1493)"/>
<path d="M1096 152.352C1033.02 152.22 970.236 144.839 907.31 142.828C884.755 142.107 863.286 143.274 841.218 148.266C820.13 153.037 799.508 159.612 778.522 164.787C760.946 169.121 743.03 172.488 724.866 172.434C707.272 172.382 689.94 168.828 673.007 164.301C639.667 155.387 606.633 141.768 571.768 140.378C541.537 139.173 512.559 147.621 483.589 155.032C454.182 162.555 424.844 166.864 394.539 162.544C367.091 158.632 340.995 148.474 313.504 144.775C279.65 140.221 247.693 146.779 215.189 155.792C198.49 160.423 181.737 165.069 164.519 167.335C146.343 169.728 127.893 169.054 109.727 166.902C72.972 162.549 37.24 152.491 0.000976562 152.352V150.764C36.607 150.886 71.659 160.837 107.778 165.13C125.852 167.278 144.215 167.893 162.303 165.59C179.606 163.388 196.469 158.853 213.28 154.336C245.936 145.561 278.081 139.149 312.01 143.622C339.618 147.261 365.88 157.273 393.446 161.124C423.588 165.335 452.718 161.181 481.955 153.641C510.657 146.239 539.266 137.937 569.233 139.083C604.093 140.416 637.181 153.816 670.564 162.578C687.524 167.029 704.861 170.502 722.459 170.547C740.628 170.593 758.54 167.297 776.138 163.018C797.136 157.913 817.779 151.419 838.878 146.714C860.999 141.78 882.533 140.657 905.127 141.362C968.778 143.348 1032.29 150.647 1096 150.765V152.353L1096 152.352Z" fill="url(#paint10_linear_306_1493)"/>
<path d="M1096 164.087C1038.77 163.827 981.85 155.815 924.7 153.597C902.49 152.735 881.56 154.297 859.952 159.739C838.943 165.03 818.485 172.244 797.597 177.966C780.223 182.725 762.244 186.704 744.136 186.572C726.575 186.444 709.263 182.219 692.563 177.102C659.569 166.992 626.969 151.675 592.053 149.777C559.739 148.021 527.752 157.684 496.685 165.182C465.973 172.594 434.851 178.156 403.302 172.91C376.784 168.501 352.004 157.207 325.431 153.032C309.375 150.51 293.074 150.373 277.039 153.125C261.069 155.866 245.722 161.14 230.466 166.464C214.661 171.98 198.783 177.505 182.225 180.293C163.349 183.472 144.149 182.289 125.227 180.101C83.396 175.263 42.305 164.403 0.000976562 164.089V162.442C41.596 162.73 81.942 173.48 123.062 178.25C141.881 180.433 160.971 181.539 179.753 178.476C196.402 175.76 212.402 170.358 228.334 164.966C243.712 159.761 259.177 154.605 275.234 151.935C291.316 149.261 307.667 149.394 323.766 151.871C350.466 155.979 375.433 167.114 402.08 171.454C433.461 176.565 464.322 171.182 494.858 163.756C525.635 156.272 557.197 146.78 589.222 148.456C624.129 150.283 656.791 165.362 689.834 175.306C706.567 180.341 723.882 184.472 741.447 184.59C759.563 184.712 777.532 180.819 794.935 176.118C815.836 170.473 836.318 163.348 857.338 158.129C879.011 152.748 900.014 151.244 922.273 152.086C980.229 154.276 1037.97 162.198 1096 162.441V164.088L1096 164.087Z" fill="url(#paint11_linear_306_1493)"/>
<path d="M1096 175.822C1043.52 175.517 991.485 166.874 939.107 164.531C917.119 163.547 896.548 165.398 875.268 171.221C854.323 176.952 834.012 184.724 813.206 190.912C795.984 196.035 777.982 200.445 759.897 200.273C742.34 200.106 725.059 195.367 708.55 189.751C675.869 178.635 643.645 161.792 608.65 159.579C574.614 157.427 540.148 168.046 507.343 175.625C475.645 182.948 442.903 189.612 410.421 183.556C384.666 178.754 361.058 166.436 335.234 161.888C319.421 159.104 303.315 158.924 287.552 162.122C272.086 165.26 257.463 171.261 242.96 177.325C227.934 183.607 212.814 189.894 196.772 193.087C177.43 196.936 157.567 195.264 138.122 193.051C92.066 187.81 46.528 176.247 0 175.822V174.116C46.049 174.537 91.078 186.011 136.655 191.206C156.057 193.418 175.847 195.031 195.152 191.252C211.251 188.1 226.461 181.904 241.58 175.716C256.173 169.743 270.882 163.829 286.403 160.731C302.195 157.579 318.303 157.75 334.141 160.507C360.05 165.016 383.801 177.204 409.643 181.965C442.027 187.931 474.58 181.397 506.174 174.062C538.777 166.492 572.976 155.967 606.813 158.092C641.795 160.289 674.064 176.938 706.783 187.937C723.311 193.493 740.6 198.184 758.153 198.351C776.236 198.523 794.243 194.146 811.477 189.068C832.292 182.934 852.622 175.231 873.574 169.552C894.879 163.777 915.476 161.946 937.476 162.917C990.391 165.253 1042.98 173.808 1096 174.117V175.823L1096 175.822Z" fill="url(#paint12_linear_306_1493)"/>
<path d="M1096 187.792C1044.78 187.998 994.162 178.074 943.067 175.858C921.078 174.905 900.453 176.824 879.206 182.74C858.093 188.618 837.636 196.573 816.667 202.918C799.458 208.125 781.515 212.579 763.417 212.415C745.826 212.256 728.588 207.482 712.101 201.699C679.575 190.291 647.556 172.931 612.56 170.782C577.92 168.655 542.86 179.46 509.457 187.117C477.514 194.44 444.216 201.483 411.486 195.206C386.112 190.339 363.176 177.404 337.725 172.808C321.975 169.964 305.686 169.77 289.992 173.047C274.591 176.262 260.127 182.531 245.798 188.855C230.953 195.407 216 201.98 200.023 205.244C180.698 209.193 160.615 207.501 141.178 205.256C94.1409 199.824 47.5629 187.275 0.00292969 187.292V185.74C47.7629 185.888 94.6349 198.081 141.901 203.459C161.33 205.67 181.389 207.44 200.707 203.49C216.629 200.234 231.507 193.644 246.275 187.062C260.53 180.708 274.921 174.423 290.269 171.217C305.968 167.937 322.267 168.155 338.02 170.996C363.554 175.6 386.612 188.471 412.07 193.344C444.789 199.607 478.063 192.568 510.004 185.283C543.413 177.664 578.465 166.917 613.098 168.989C648.141 171.086 680.203 188.585 712.745 200.041C729.233 205.845 746.466 210.628 764.067 210.764C782.178 210.903 800.083 206.512 817.299 201.263C838.147 194.906 858.47 186.913 879.466 181.029C900.75 175.064 921.369 173.226 943.398 174.194C994.376 176.435 1044.91 185.843 1096 185.843V187.792H1096Z" fill="url(#paint13_linear_306_1493)"/>
<path d="M1096 203.555C1042.62 203.952 990.317 189.705 937.179 186.519C914.757 185.175 893.464 187.537 871.701 193.047C849.094 198.77 827.024 206.382 804.536 212.531C786.636 217.426 767.99 221.915 749.314 221.731C731.961 221.56 714.907 217.144 698.537 211.702C666.441 201.031 634.965 184.978 600.677 182.924C565.908 180.841 530.956 192.118 497.571 200.247C465.906 207.958 432.512 215.538 399.955 208.894C375.774 203.959 354.436 190.457 330.166 185.805C296.818 179.412 266.116 189.086 235.366 201.202C219.468 207.466 203.475 213.806 186.629 217.036C167.554 220.693 147.986 219.45 128.899 216.511C85.794 209.874 44.027 194.252 0.000976562 194.394V193.581C44.762 193.377 87.551 208.452 131.48 214.825C150.66 217.607 170.365 218.921 189.507 215.193C206.172 211.947 221.955 205.562 237.641 199.246C252.781 193.149 268.042 187.054 284.11 183.865C299.829 180.745 316.098 180.724 331.846 183.702C356.356 188.337 378.014 201.736 402.438 206.651C435.046 213.213 468.428 205.764 500.164 198.125C533.55 190.088 568.533 178.893 603.275 181.02C637.709 183.128 669.292 199.419 701.484 210.242C717.881 215.755 734.985 220.256 752.39 220.435C770.916 220.626 789.411 216.11 807.139 211.164C829.326 204.974 851.081 197.301 873.39 191.543C895.005 185.964 916.137 183.66 938.429 184.899C991.135 187.829 1043.08 201.331 1096 200.853L1096 203.555Z" fill="url(#paint14_linear_306_1493)"/>
<path d="M1096 221.98C1039.15 221.343 984.165 202.079 927.771 196.79C878.789 192.196 831.85 209.69 784.854 220.811C765.589 225.37 745.791 229.55 725.902 229.457C708.944 229.378 692.294 225.63 676.142 220.721C644.782 211.192 614.095 196.82 580.888 195.26C545.91 193.617 511.221 205.443 477.835 214.254C446.777 222.45 413.249 231.115 381.146 223.812C358.731 218.713 339.804 204.497 317.281 199.693C283.391 192.465 249.889 203.177 218.033 213.952C200.583 219.854 183.044 225.863 164.832 228.949C146.323 232.086 127.788 231.381 109.522 227.105C72.4609 218.429 38.8719 198.954 0.00292969 198.434V197.846C39.6789 198.251 74.7179 217.092 112.77 225.419C131.188 229.45 149.884 230.257 168.494 227.036C186.476 223.924 203.759 217.861 220.95 211.899C252.629 200.913 285.652 190.368 319.454 197.448C342.265 202.226 361.6 216.324 384.307 221.396C416.492 228.584 449.989 220.11 481.156 211.991C514.542 203.294 549.276 191.556 584.219 193.279C617.608 194.925 648.424 209.576 679.909 219.295C696.099 224.293 712.818 228.155 729.842 228.25C749.524 228.359 769.127 224.123 788.161 219.51C834.671 208.239 880.788 190.867 929.351 195.151C985.199 200.077 1039.74 218.532 1096 218.974V221.982L1096 221.98Z" fill="url(#paint15_linear_306_1493)"/>
<path d="M1096 239.989C1066.2 239.22 1036.72 231.915 1007.81 225.234C978.503 218.461 949.144 210.859 919.241 207.164C894.301 204.082 870.053 207.19 845.516 211.972C819.221 217.096 793.246 223.71 767.021 229.164C746.509 233.43 725.573 237.405 704.547 237.43C687.963 237.45 671.728 234.433 655.776 230.074C625.164 221.709 595.296 208.947 563.199 207.601C527.735 206.114 492.999 218.581 459.355 228.117C428.764 236.787 394.653 246.671 362.895 238.389C342.2 232.992 325.7 218.146 304.763 213.334C270.352 205.425 234.104 217.14 201.302 226.781C166.304 237.067 127.196 250.031 91.067 237.74C76.323 232.724 63.202 224.317 49.503 217.102C33.862 208.864 17.803 203.457 0.00195312 202.956V202.025C18.091 202.513 34.564 207.886 50.666 215.855C64.908 222.903 78.642 231.125 93.8549 235.996C130.4 247.698 168.808 235.138 204.059 224.566C236.716 214.771 272.607 203.246 306.907 211.222C328.059 216.141 344.942 230.952 365.967 236.177C397.655 244.052 431.404 234.442 461.922 225.883C495.31 216.518 529.783 204.251 564.935 205.544C597.263 206.733 627.327 219.723 658.08 228.321C674.057 232.788 690.383 235.991 707.026 236.02C727.887 236.056 748.629 232.114 768.966 227.819C795.454 222.225 821.667 215.376 848.234 210.15C872.185 205.439 895.815 202.5 920.171 205.392C949.871 208.919 979.051 216.291 1008.18 222.861C1036.99 229.36 1066.34 236.437 1096 237.169V239.989H1096Z" fill="url(#paint16_linear_306_1493)"/>
<path d="M1096 254.5C1065.59 254.116 1035.39 245.663 1006.1 238.263C976.02 230.663 945.847 222.016 915.013 218.011C889.967 214.757 865.243 218.26 840.562 222.756C813.091 227.761 785.886 234.106 758.473 239.409C737.581 243.451 716.188 247.496 694.831 247.5C678.417 247.503 662.212 244.599 646.36 240.526C616.095 232.749 586.586 221.081 555.041 219.654C519.447 218.045 484.797 230.919 451.166 240.834C420.817 249.782 386.417 260.108 354.805 251.495C334.929 246.079 319.872 230.719 299.722 225.909C265.09 217.643 227.341 229.927 194.095 238.935C174.447 244.259 154.724 249.734 134.54 252.634C117.065 255.145 98.833 255.991 82.146 249.301C68.882 243.982 58.145 234.64 46.482 226.667C32.282 216.96 17.293 211.755 0 211.5V209.607C17.241 209.951 32.222 215.267 46.479 224.775C58.321 232.672 69.292 241.912 82.654 247.236C99.357 253.891 117.452 253.161 134.947 250.652C155.083 247.765 174.747 242.27 194.335 236.922C227.553 227.851 265.201 215.628 299.821 223.894C320.024 228.718 335.214 244.011 355.146 249.438C386.737 258.039 421.099 247.705 451.439 238.793C485.074 228.913 519.719 216.098 555.3 217.627C586.888 218.985 616.419 230.782 646.701 238.604C662.559 242.7 678.732 245.566 695.155 245.557C716.544 245.544 737.932 241.546 758.852 237.474C786.157 232.16 813.249 225.782 840.615 220.772C865.377 216.239 890.106 212.815 915.23 216.109C945.99 220.141 976.102 228.674 1006.13 236.201C1035.45 243.548 1065.6 251.863 1096 252.408V254.501L1096 254.5Z" fill="url(#paint17_linear_306_1493)"/>
<defs>
<linearGradient id="paint0_linear_306_1493" x1="0.000976562" y1="30.001" x2="1096" y2="30.001" gradientUnits="userSpaceOnUse">
<stop stop-color="#1D1E20"/>
<stop offset="0.276" stop-color="#2E3033"/>
<stop offset="0.396" stop-color="#2E3033"/>
<stop offset="0.529" stop-color="#0C43C4"/>
<stop offset="0.598" stop-color="#99E1D9"/>
<stop offset="0.641" stop-color="#0C43C4"/>
<stop offset="0.732" stop-color="#2E3033"/>
<stop offset="0.812" stop-color="#2E3033"/>
<stop offset="1" stop-color="#1D1E20"/>
</linearGradient>
<linearGradient id="paint1_linear_306_1493" x1="0.000976562" y1="44.1256" x2="1096" y2="44.1256" gradientUnits="userSpaceOnUse">
<stop stop-color="#1D1E20"/>
<stop offset="0.276" stop-color="#2E3033"/>
<stop offset="0.396" stop-color="#2E3033"/>
<stop offset="0.409" stop-color="#2B3240"/>
<stop offset="0.492" stop-color="#143E9E"/>
<stop offset="0.52" stop-color="#164BBC"/>
<stop offset="0.529" stop-color="#124AC5"/>
<stop offset="0.56" stop-color="#4785CC"/>
<stop offset="0.598" stop-color="#92D7D3"/>
<stop offset="0.634" stop-color="#245ABE"/>
<stop offset="0.641" stop-color="#0E42BB"/>
<stop offset="0.732" stop-color="#2E3033"/>
<stop offset="0.812" stop-color="#2E3033"/>
<stop offset="1" stop-color="#1D1E20"/>
</linearGradient>
<linearGradient id="paint2_linear_306_1493" x1="0.000976562" y1="61.2852" x2="1096" y2="61.2852" gradientUnits="userSpaceOnUse">
<stop stop-color="#1D1E20"/>
<stop offset="0.276" stop-color="#2E3033"/>
<stop offset="0.396" stop-color="#2E3033"/>
<stop offset="0.409" stop-color="#2B323F"/>
<stop offset="0.492" stop-color="#143FA1"/>
<stop offset="0.52" stop-color="#1E55BE"/>
<stop offset="0.529" stop-color="#1951C6"/>
<stop offset="0.56" stop-color="#4481CC"/>
<stop offset="0.598" stop-color="#8ACDCE"/>
<stop offset="0.634" stop-color="#2458B6"/>
<stop offset="0.641" stop-color="#1041B3"/>
<stop offset="0.732" stop-color="#2E3033"/>
<stop offset="0.812" stop-color="#2E3033"/>
<stop offset="1" stop-color="#1D1E20"/>
</linearGradient>
<linearGradient id="paint3_linear_306_1493" x1="0.000976562" y1="78.8192" x2="1096" y2="78.8192" gradientUnits="userSpaceOnUse">
<stop stop-color="#1D1E20"/>
<stop offset="0.276" stop-color="#2E3033"/>
<stop offset="0.396" stop-color="#2E3033"/>
<stop offset="0.409" stop-color="#2C323F"/>
<stop offset="0.492" stop-color="#133FA3"/>
<stop offset="0.52" stop-color="#275EBF"/>
<stop offset="0.529" stop-color="#1F58C7"/>
<stop offset="0.56" stop-color="#407DCB"/>
<stop offset="0.598" stop-color="#83C3C8"/>
<stop offset="0.634" stop-color="#2555AD"/>
<stop offset="0.641" stop-color="#1240AA"/>
<stop offset="0.732" stop-color="#2E3033"/>
<stop offset="0.812" stop-color="#2E3033"/>
<stop offset="1" stop-color="#1D1E20"/>
</linearGradient>
<linearGradient id="paint4_linear_306_1493" x1="0.000976563" y1="91.4192" x2="1096" y2="91.4192" gradientUnits="userSpaceOnUse">
<stop stop-color="#1D1E20"/>
<stop offset="0.276" stop-color="#2E3033"/>
<stop offset="0.396" stop-color="#2E3033"/>
<stop offset="0.409" stop-color="#2C323E"/>
<stop offset="0.492" stop-color="#133FA5"/>
<stop offset="0.52" stop-color="#2F67C1"/>
<stop offset="0.529" stop-color="#255FC8"/>
<stop offset="0.56" stop-color="#3C79CB"/>
<stop offset="0.598" stop-color="#7CB9C3"/>
<stop offset="0.634" stop-color="#2652A4"/>
<stop offset="0.641" stop-color="#143FA2"/>
<stop offset="0.732" stop-color="#2E3033"/>
<stop offset="0.812" stop-color="#2E3033"/>
<stop offset="1" stop-color="#1D1E20"/>
</linearGradient>
<linearGradient id="paint5_linear_306_1493" x1="0.000976563" y1="102.781" x2="1096" y2="102.781" gradientUnits="userSpaceOnUse">
<stop stop-color="#1D1E20"/>
<stop offset="0.276" stop-color="#2E3033"/>
<stop offset="0.396" stop-color="#2E3033"/>
<stop offset="0.409" stop-color="#2C313D"/>
<stop offset="0.492" stop-color="#123FA8"/>
<stop offset="0.52" stop-color="#3771C3"/>
<stop offset="0.529" stop-color="#2C67C9"/>
<stop offset="0.56" stop-color="#3874CA"/>
<stop offset="0.598" stop-color="#75B0BD"/>
<stop offset="0.634" stop-color="#26509B"/>
<stop offset="0.641" stop-color="#163D99"/>
<stop offset="0.732" stop-color="#2E3033"/>
<stop offset="0.812" stop-color="#2E3033"/>
<stop offset="1" stop-color="#1D1E20"/>
</linearGradient>
<linearGradient id="paint6_linear_306_1493" x1="0.001" y1="113.308" x2="1096" y2="113.308" gradientUnits="userSpaceOnUse">
<stop stop-color="#1D1E20"/>
<stop offset="0.276" stop-color="#2E3033"/>
<stop offset="0.396" stop-color="#2E3033"/>
<stop offset="0.409" stop-color="#2C313C"/>
<stop offset="0.492" stop-color="#1240AA"/>
<stop offset="0.52" stop-color="#3F7AC5"/>
<stop offset="0.529" stop-color="#326ECA"/>
<stop offset="0.56" stop-color="#3570CA"/>
<stop offset="0.598" stop-color="#6DA6B7"/>
<stop offset="0.634" stop-color="#274D93"/>
<stop offset="0.641" stop-color="#183C91"/>
<stop offset="0.732" stop-color="#2E3033"/>
<stop offset="0.812" stop-color="#2E3033"/>
<stop offset="1" stop-color="#1D1E20"/>
</linearGradient>
<linearGradient id="paint7_linear_306_1493" x1="0.000976563" y1="122.602" x2="1096" y2="122.602" gradientUnits="userSpaceOnUse">
<stop stop-color="#1D1E20"/>
<stop offset="0.276" stop-color="#2E3033"/>
<stop offset="0.396" stop-color="#2E3033"/>
<stop offset="0.409" stop-color="#2C313B"/>
<stop offset="0.492" stop-color="#1140AC"/>
<stop offset="0.52" stop-color="#4783C7"/>
<stop offset="0.529" stop-color="#3875CB"/>
<stop offset="0.56" stop-color="#316CC9"/>
<stop offset="0.598" stop-color="#669CB2"/>
<stop offset="0.634" stop-color="#284A8A"/>
<stop offset="0.641" stop-color="#1A3B88"/>
<stop offset="0.732" stop-color="#2E3033"/>
<stop offset="0.812" stop-color="#2E3033"/>
<stop offset="1" stop-color="#1D1E20"/>
</linearGradient>
<linearGradient id="paint8_linear_306_1493" x1="0.000976563" y1="132.459" x2="1096" y2="132.459" gradientUnits="userSpaceOnUse">
<stop stop-color="#1D1E20"/>
<stop offset="0.276" stop-color="#2E3033"/>
<stop offset="0.396" stop-color="#2E3033"/>
<stop offset="0.409" stop-color="#2C313A"/>
<stop offset="0.492" stop-color="#1140AF"/>
<stop offset="0.52" stop-color="#4F8DC9"/>
<stop offset="0.529" stop-color="#3F7CCC"/>
<stop offset="0.56" stop-color="#2D68C9"/>
<stop offset="0.598" stop-color="#5F92AC"/>
<stop offset="0.634" stop-color="#284881"/>
<stop offset="0.641" stop-color="#1C3A80"/>
<stop offset="0.732" stop-color="#2E3033"/>
<stop offset="0.812" stop-color="#2E3033"/>
<stop offset="1" stop-color="#1D1E20"/>
</linearGradient>
<linearGradient id="paint9_linear_306_1493" x1="0.00101416" y1="143.919" x2="1096" y2="143.919" gradientUnits="userSpaceOnUse">
<stop stop-color="#1D1E20"/>
<stop offset="0.276" stop-color="#2E3033"/>
<stop offset="0.396" stop-color="#2E3033"/>
<stop offset="0.409" stop-color="#2D313A"/>
<stop offset="0.492" stop-color="#1041B1"/>
<stop offset="0.52" stop-color="#5896CA"/>
<stop offset="0.529" stop-color="#4583CC"/>
<stop offset="0.56" stop-color="#2A64C8"/>
<stop offset="0.598" stop-color="#5788A7"/>
<stop offset="0.634" stop-color="#294579"/>
<stop offset="0.641" stop-color="#1E3977"/>
<stop offset="0.732" stop-color="#2E3033"/>
<stop offset="0.812" stop-color="#2E3033"/>
<stop offset="1" stop-color="#1D1E20"/>
</linearGradient>
<linearGradient id="paint10_linear_306_1493" x1="0.000976563" y1="155.705" x2="1096" y2="155.705" gradientUnits="userSpaceOnUse">
<stop stop-color="#1D1E20"/>
<stop offset="0.276" stop-color="#2E3033"/>
<stop offset="0.396" stop-color="#2E3033"/>
<stop offset="0.409" stop-color="#2D3139"/>
<stop offset="0.492" stop-color="#1041B4"/>
<stop offset="0.52" stop-color="#60A0CC"/>
<stop offset="0.529" stop-color="#4C8ACD"/>
<stop offset="0.56" stop-color="#2660C8"/>
<stop offset="0.598" stop-color="#507EA1"/>
<stop offset="0.634" stop-color="#294370"/>
<stop offset="0.641" stop-color="#20386F"/>
<stop offset="0.732" stop-color="#2E3033"/>
<stop offset="0.812" stop-color="#2E3033"/>
<stop offset="1" stop-color="#1D1E20"/>
</linearGradient>
<linearGradient id="paint11_linear_306_1493" x1="0.000976562" y1="167.417" x2="1096" y2="167.417" gradientUnits="userSpaceOnUse">
<stop stop-color="#1D1E20"/>
<stop offset="0.276" stop-color="#2E3033"/>
<stop offset="0.396" stop-color="#2E3033"/>
<stop offset="0.409" stop-color="#2D3138"/>
<stop offset="0.492" stop-color="#0F41B6"/>
<stop offset="0.52" stop-color="#68A9CE"/>
<stop offset="0.529" stop-color="#5291CE"/>
<stop offset="0.56" stop-color="#225CC7"/>
<stop offset="0.598" stop-color="#49749C"/>
<stop offset="0.634" stop-color="#2A4067"/>
<stop offset="0.641" stop-color="#223766"/>
<stop offset="0.732" stop-color="#2E3033"/>
<stop offset="0.812" stop-color="#2E3033"/>
<stop offset="1" stop-color="#1D1E20"/>
</linearGradient>
<linearGradient id="paint12_linear_306_1493" x1="0.001" y1="179.046" x2="1096" y2="179.046" gradientUnits="userSpaceOnUse">
<stop stop-color="#1D1E20"/>
<stop offset="0.276" stop-color="#2E3033"/>
<stop offset="0.396" stop-color="#2E3033"/>
<stop offset="0.409" stop-color="#2D3137"/>
<stop offset="0.492" stop-color="#0F42B8"/>
<stop offset="0.52" stop-color="#70B2D0"/>
<stop offset="0.529" stop-color="#5898CF"/>
<stop offset="0.56" stop-color="#1F58C7"/>
<stop offset="0.598" stop-color="#416A96"/>
<stop offset="0.634" stop-color="#2B3D5F"/>
<stop offset="0.641" stop-color="#24365E"/>
<stop offset="0.732" stop-color="#2E3033"/>
<stop offset="0.812" stop-color="#2E3033"/>
<stop offset="1" stop-color="#1D1E20"/>
</linearGradient>
<linearGradient id="paint13_linear_306_1493" x1="0.000929687" y1="190.574" x2="1096" y2="190.574" gradientUnits="userSpaceOnUse">
<stop stop-color="#1D1E20"/>
<stop offset="0.276" stop-color="#2E3033"/>
<stop offset="0.396" stop-color="#2E3033"/>
<stop offset="0.409" stop-color="#2D3036"/>
<stop offset="0.492" stop-color="#0E42BB"/>
<stop offset="0.52" stop-color="#78BCD2"/>
<stop offset="0.529" stop-color="#5FA0D0"/>
<stop offset="0.56" stop-color="#1B53C6"/>
<stop offset="0.598" stop-color="#3A6190"/>
<stop offset="0.634" stop-color="#2B3B56"/>
<stop offset="0.641" stop-color="#263455"/>
<stop offset="0.732" stop-color="#2E3033"/>
<stop offset="0.812" stop-color="#2E3033"/>
<stop offset="1" stop-color="#1D1E20"/>
</linearGradient>
<linearGradient id="paint14_linear_306_1493" x1="0.000976562" y1="201.246" x2="1096" y2="201.246" gradientUnits="userSpaceOnUse">
<stop stop-color="#1D1E20"/>
<stop offset="0.276" stop-color="#2E3033"/>
<stop offset="0.396" stop-color="#2E3033"/>
<stop offset="0.409" stop-color="#2D3035"/>
<stop offset="0.492" stop-color="#0E42BD"/>
<stop offset="0.52" stop-color="#80C5D4"/>
<stop offset="0.529" stop-color="#65A7D1"/>
<stop offset="0.56" stop-color="#174FC6"/>
<stop offset="0.598" stop-color="#33578B"/>
<stop offset="0.634" stop-color="#2C384D"/>
<stop offset="0.641" stop-color="#28334D"/>
<stop offset="0.732" stop-color="#2E3033"/>
<stop offset="0.812" stop-color="#2E3033"/>
<stop offset="1" stop-color="#1D1E20"/>
</linearGradient>
<linearGradient id="paint15_linear_306_1493" x1="0.000929687" y1="211.998" x2="1096" y2="211.998" gradientUnits="userSpaceOnUse">
<stop stop-color="#1D1E20"/>
<stop offset="0.276" stop-color="#2E3033"/>
<stop offset="0.396" stop-color="#2E3033"/>
<stop offset="0.409" stop-color="#2E3035"/>
<stop offset="0.492" stop-color="#0D42BF"/>
<stop offset="0.52" stop-color="#89CED5"/>
<stop offset="0.529" stop-color="#6BAED2"/>
<stop offset="0.56" stop-color="#134BC5"/>
<stop offset="0.598" stop-color="#2C4D85"/>
<stop offset="0.634" stop-color="#2D3544"/>
<stop offset="0.641" stop-color="#2A3244"/>
<stop offset="0.732" stop-color="#2E3033"/>
<stop offset="0.812" stop-color="#2E3033"/>
<stop offset="1" stop-color="#1D1E20"/>
</linearGradient>
<linearGradient id="paint16_linear_306_1493" x1="0.000953125" y1="222.385" x2="1096" y2="222.385" gradientUnits="userSpaceOnUse">
<stop stop-color="#1D1E20"/>
<stop offset="0.276" stop-color="#2E3033"/>
<stop offset="0.396" stop-color="#2E3033"/>
<stop offset="0.409" stop-color="#2E3034"/>
<stop offset="0.492" stop-color="#0D43C2"/>
<stop offset="0.52" stop-color="#91D8D7"/>
<stop offset="0.529" stop-color="#72B5D3"/>
<stop offset="0.56" stop-color="#1047C5"/>
<stop offset="0.598" stop-color="#244380"/>
<stop offset="0.634" stop-color="#2D333C"/>
<stop offset="0.641" stop-color="#2C313C"/>
<stop offset="0.732" stop-color="#2E3033"/>
<stop offset="0.812" stop-color="#2E3033"/>
<stop offset="1" stop-color="#1D1E20"/>
</linearGradient>
<linearGradient id="paint17_linear_306_1493" x1="0.001" y1="232.169" x2="1096" y2="232.169" gradientUnits="userSpaceOnUse">
<stop stop-color="#1D1E20"/>
<stop offset="0.276" stop-color="#2E3033"/>
<stop offset="0.409" stop-color="#2E3033"/>
<stop offset="0.492" stop-color="#0C43C4"/>
<stop offset="0.52" stop-color="#99E1D9"/>
<stop offset="0.56" stop-color="#0C43C4"/>
<stop offset="0.634" stop-color="#2E3033"/>
<stop offset="0.812" stop-color="#2E3033"/>
<stop offset="1" stop-color="#1D1E20"/>
</linearGradient>
</defs>
</svg>
