<svg width="1097" height="283" viewBox="0 0 1097 283" fill="none" xmlns="http://www.w3.org/2000/svg">
<path d="M1096 29.2689C1059.66 30.0159 1023.19 39.1939 987.774 46.5319C950.283 54.2999 912.71 63.1619 874.644 67.6689C856.498 69.8169 836.656 71.1909 820.237 61.6469C810.9 56.2199 803.924 47.7699 795.016 41.7659C772.533 26.6119 740.916 29.9359 720.049 46.0969C710.106 53.7969 701.859 63.3999 692.169 71.3929C681.921 79.8459 670.135 85.6899 656.778 86.9319C641.604 88.3429 628.525 83.1609 618.2 72.0139C608.004 61.0079 601.282 47.2899 593.443 34.6319C586.077 22.7379 577.339 10.2709 564.068 4.52291C546.335 -3.15809 523.912 3.54691 506.129 7.71891C440.964 23.0099 378.315 47.7639 312.93 62.1729C295.218 66.0759 275.617 70.1069 257.711 64.9409C248.949 62.4129 242.823 57.0239 236.993 50.2779C230.846 43.1659 224.484 37.7129 215.168 35.2569C196.579 30.3569 175.875 34.4569 157.583 38.6129C130.277 44.8169 103.663 53.7649 76.831 61.6889C51.936 69.0409 26.153 76.7589 0 77.2089V76.2349C26.138 75.8529 51.934 68.0809 76.805 60.7269C103.695 52.7749 130.366 43.7919 157.733 37.5709C176.065 33.4039 196.769 29.3689 215.395 34.2679C224.68 36.7099 230.956 42.1119 236.994 49.2719C242.716 56.0569 248.757 61.4039 257.484 63.9169C275.403 69.0779 294.962 65.0699 312.687 61.1609C378.224 46.7069 441.068 22.0389 506.387 6.71191C524.124 2.54991 546.482 -4.15308 564.18 3.47891C577.466 9.20891 586.185 21.7029 593.521 33.6169C601.329 46.2979 608.011 60.0459 618.196 71.0689C628.548 82.2719 641.642 87.3499 656.853 85.9579C670.226 84.7339 682.023 78.9169 692.257 70.4209C701.894 62.4209 710.065 52.7959 719.959 45.0899C740.773 28.8799 772.57 25.6159 795.011 40.7729C803.896 46.7739 810.839 55.2269 820.155 60.6499C836.536 70.1859 856.416 68.8469 874.529 66.7149C912.636 62.2309 950.247 53.3069 987.768 45.5039C1007.91 41.3159 1028.06 37.1549 1048.33 33.6859C1064.09 30.9909 1079.99 28.5169 1096 28.2359C1096 28.6359 1095.99 28.8419 1095.99 29.2679L1096 29.2689Z" fill="url(#paint0_linear_1_2524)"/>
<path d="M1096.02 45.452C1060.67 46.517 1025.37 54.266 990.717 60.749C954.487 67.528 918.21 75.168 881.542 79.216C862.971 81.266 843.487 82.513 826.566 73.175C816.629 67.691 808.834 59.25 799.292 53.197C775.304 37.981 744.588 42.06 721.681 57.089C698.946 72.006 680.12 93.81 651.431 96.537C618.264 99.69 602.048 69.988 585.379 46.694C577.188 35.247 567.721 23.516 554.357 17.991C536.606 10.652 515.111 16.74 497.385 21.178C437.445 36.185 380.561 61.714 320.367 75.778C302.477 79.958 283.417 83.319 265.295 78.534C254.586 75.706 245.603 69.754 236.789 63.272C227.589 56.506 218.275 50.381 207.029 47.629C188.366 43.063 168.225 46.665 149.805 50.656C124.211 56.202 99.244 64.298 74.077 71.455C49.956 78.316 25.246 85.06 0.0310059 85.722V85.099C25.406 84.421 50.28 77.56 74.541 70.623C99.929 63.364 125.117 55.159 150.937 49.521C169.312 45.509 189.53 41.786 208.158 46.404C219.104 49.117 228.021 55.179 236.821 61.962C245.245 68.454 253.846 74.353 264.257 77.141C282.343 81.985 301.508 78.503 319.369 74.372C380.275 60.285 437.935 34.816 498.592 19.791C516.364 15.389 538.048 9.20296 555.824 16.633C569.16 22.208 578.525 34.035 586.607 45.541C603.036 68.929 619.032 98.927 652.229 95.741C680.754 93.003 699.081 71.116 721.488 56.094C744.117 40.924 774.832 36.92 798.612 52.125C808.07 58.173 815.76 66.613 825.617 72.09C842.489 81.465 862.001 80.173 880.531 78.093C917.391 73.955 953.848 66.165 990.257 59.254C1025.05 52.651 1060.5 44.74 1096.02 43.647C1096.02 44.36 1096.02 44.721 1096.02 45.45L1096.02 45.452Z" fill="url(#paint1_linear_1_2524)"/>
<path d="M1096.06 66.1499C1062.75 66.5559 1029.43 72.4319 996.576 77.4049C962.574 82.5509 928.526 88.3989 894.225 91.1829C875.54 92.6989 856.535 93.3069 839.341 84.7309C828.092 79.1199 818.847 70.4219 807.978 64.1989C781.246 48.8939 749.674 53.9419 723.395 67.4699C696.45 81.3419 671.688 102.006 640.27 104.18C624.874 105.246 611.168 100.448 599.28 90.7219C587.968 81.4659 579.045 69.7129 569.358 58.8679C559.997 48.3889 549.525 38.0299 536.081 33.0639C519.014 26.7589 500.212 31.2869 483.369 36.1209C432.212 50.8039 385.029 76.9559 333.689 91.0629C315.437 96.0779 297.427 98.0609 278.798 93.9729C264 90.7249 250.282 84.2829 236.713 77.7319C222.653 70.9429 208.474 64.1959 193.113 60.9099C174.061 56.8349 154.537 58.8179 135.579 62.4549C90.4391 71.1159 46.5091 90.4339 0.0600586 90.9989C0.0600586 90.8019 0.0600586 90.7029 0.0600586 90.5039C47.0811 89.8369 91.565 70.1079 137.238 61.2089C156.145 57.5249 175.704 55.3729 194.72 59.5029C209.594 62.7339 223.23 69.4289 236.749 76.2029C249.794 82.7399 262.991 89.1319 277.317 92.3259C295.928 96.4759 314.057 94.3159 332.304 89.3919C384.648 75.2699 432.945 49.1749 485.109 34.4789C502.059 29.7039 521.122 25.0289 538.259 31.4869C551.646 36.5319 561.983 47.0179 571.193 57.5849C590.452 79.6809 608.675 105.747 641.456 103.421C672.552 101.215 696.686 80.4239 723.155 66.4259C749.069 52.7209 780.506 47.7369 806.95 63.0299C817.698 69.2459 826.798 77.9419 837.93 83.5439C855.077 92.1729 874.092 91.4989 892.738 89.9199C927.312 86.9929 961.617 80.9429 995.876 75.6109C1028.95 70.4639 1062.5 64.3769 1096.05 63.8869C1096.05 64.7909 1096.05 65.2439 1096.06 66.1509L1096.06 66.1499Z" fill="url(#paint2_linear_1_2524)"/>
<path d="M1096.1 87.067C1064.95 86.812 1033.75 90.761 1002.83 94.133C971.147 97.59 939.422 101.579 907.568 103.13C888.548 104.056 869.589 104.188 851.97 96.043C839.657 90.35 829.117 81.642 817.145 75.347C751.405 40.779 693.656 108.079 629.677 111.654C613.886 112.536 599.646 108.622 586.51 99.818C574.24 91.595 563.917 80.892 552.976 71.062C542.263 61.437 530.595 52.191 516.627 47.885C500.281 42.846 483.523 46.04 467.72 51.477C425.555 65.984 388.638 92.757 346.242 106.673C328.172 112.604 310.806 113.015 292.198 109.395C273.051 105.67 254.682 98.836 236.436 92.097C217.536 85.117 198.524 77.955 178.67 74.17C159.424 70.5 139.996 71.193 120.727 74.312C80.3721 80.843 41.3961 96.297 0.0860596 96.123C0.0860596 95.843 0.0860596 95.707 0.0860596 95.442C41.9241 95.566 81.4071 79.687 122.253 72.939C141.502 69.759 160.93 68.96 180.167 72.666C199.549 76.4 218.063 83.52 236.464 90.479C254.227 97.197 272.118 103.992 290.808 107.667C309.435 111.33 326.829 110.757 344.936 104.927C388.247 90.98 426.257 64.291 469.344 49.757C485.255 44.39 502.187 41.059 518.609 46.215C532.523 50.583 544.069 59.944 554.642 69.663C565.451 79.6 575.627 90.415 587.798 98.742C600.817 107.65 615.004 111.632 630.758 110.735C664.942 108.787 694.61 89.194 725.379 76.314C754.457 64.142 787.224 58.679 816.218 74.055C828.075 80.343 838.479 89.051 850.681 94.734C868.254 102.919 887.219 102.75 906.203 101.763C938.31 100.094 970.277 95.906 1002.2 92.271C1033.31 88.729 1064.73 84.573 1096.09 84.782C1096.09 85.706 1096.09 86.163 1096.09 87.067H1096.1Z" fill="url(#paint3_linear_1_2524)"/>
<path d="M1096.12 103.9C1035.74 103.794 975.654 112.613 915.35 114.733C896.006 115.413 877.206 115.515 859.19 107.543C846.174 101.784 834.784 93.0909 822.084 86.7389C754.746 53.0589 690.16 117.237 623.615 120.969C607.806 121.855 593.266 117.894 579.686 109.853C566.815 102.232 555.549 92.2809 543.776 83.1359C532.209 74.1519 519.837 65.5919 505.589 61.5279C489.529 56.9479 473.308 59.2939 457.929 65.1969C421.191 79.2989 391.329 107.073 354.309 120.555C336.53 127.03 319.047 126.659 300.632 123.246C278.733 119.187 257.48 112.121 236.327 105.29C214.413 98.2119 192.404 90.8079 169.701 86.6689C150.494 83.1669 131.226 83.6079 111.95 86.3419C74.4269 91.6629 38.3519 104.096 0.116943 104.168C0.116943 103.64 0.116943 103.386 0.116943 102.894C38.5489 102.929 74.8019 90.2059 112.501 84.8169C131.795 82.0589 151.107 81.6629 170.333 85.1709C192.836 89.2779 214.632 96.6659 236.332 103.743C257.278 110.575 278.327 117.624 300.032 121.652C318.466 125.073 335.91 125.425 353.709 118.969C391.09 105.412 421.521 77.7939 458.627 63.6229C473.988 57.7569 490.169 55.3509 506.211 59.9239C520.449 63.9829 532.775 72.5929 544.279 81.6329C555.986 90.8329 567.175 100.849 580.004 108.508C593.598 116.625 608.122 120.501 623.967 119.631C690.427 115.981 754.527 51.4909 821.852 85.2879C834.495 91.6349 845.818 100.332 858.78 106.084C876.747 114.058 895.582 113.982 914.884 113.308C975.345 111.198 1035.58 101.855 1096.12 102.16C1096.12 102.881 1096.12 103.229 1096.12 103.898V103.9Z" fill="url(#paint4_linear_1_2524)"/>
<path d="M1096.14 115.766C1036.74 116.399 977.564 123.052 918.219 125.162C898.309 125.87 879.814 125.495 861.016 118.207C846.265 112.488 832.688 104.24 818.171 98.003C804.477 92.119 789.923 88.355 774.94 88.484C757.002 88.638 739.432 93.667 722.678 99.696C689.585 111.603 656.955 129.776 621.205 131.911C605.766 132.833 591.081 128.943 577.865 120.987C566 113.844 555.802 104.385 545.078 95.713C534.271 86.973 522.655 78.956 509.146 75.079C492.808 70.391 476.746 72.882 461.007 78.573C422.859 92.365 390.502 118.675 352.122 131.914C334.182 138.102 316.87 138.135 298.34 134.657C277.299 130.708 256.942 123.711 236.693 116.906C215.714 109.856 194.635 102.52 172.82 98.487C153.562 94.927 134.296 95.585 114.967 98.231C76.519 103.494 39.224 115.443 0.14502 115.763C0.14502 115.129 0.14502 114.812 0.14502 114.179C38.945 113.862 75.9 101.89 114.057 96.622C133.383 93.954 152.635 93.337 171.892 96.881C193.975 100.945 215.334 108.303 236.595 115.363C257.115 122.177 277.742 129.195 299.041 133.174C317.56 136.634 334.883 136.69 352.791 130.4C390.725 117.074 422.389 90.455 460.082 76.567C475.781 70.783 491.809 68.355 508.127 73.048C521.829 76.989 533.65 85.117 544.671 93.915C555.656 102.684 566.121 112.241 578.231 119.484C591.559 127.455 606.305 131.448 621.861 130.519C657.812 128.372 690.711 110.144 724.018 98.221C740.848 92.197 758.494 87.137 776.502 86.982C791.329 86.854 805.705 90.565 819.187 96.561C833.29 102.833 846.393 111.165 860.744 116.906C879.349 124.35 897.783 124.619 917.551 123.898C977.121 121.725 1036.51 114.807 1096.14 114.181V115.766Z" fill="url(#paint5_linear_1_2524)"/>
<path d="M1096.17 127.47C1039.13 127.765 982.198 132.234 925.181 133.541C914.079 133.796 902.897 134.263 891.84 132.998C882.129 131.887 872.575 129.698 863.197 126.974C844.508 121.546 826.528 114.002 807.986 108.128C791.925 103.04 775.231 99.161 758.292 99.31C741.178 99.46 724.533 104.173 708.64 110.195C677.752 121.899 647.779 139.6 614.104 141.578C600.11 142.4 586.407 139.776 574.556 132.065C565.027 125.865 557.414 117.362 549.194 109.623C540.58 101.513 531.057 94.568 519.508 91.358C503.171 86.817 486.177 89.882 470.239 94.56C427.386 107.14 388.67 130.957 345.655 143.053C327.533 148.149 309.952 148.992 291.475 145.318C272.999 141.644 255.318 134.856 237.767 128.174C219.583 121.251 201.287 114.128 182.13 110.373C162.989 106.621 143.571 107.771 124.332 110.185C82.86 115.389 42.199 127.144 0.176025 127.469C0.176025 126.788 0.176025 126.448 0.176025 125.767C41.704 125.44 81.814 113.655 122.78 108.441C142.043 105.989 161.431 104.926 180.6 108.644C200.193 112.444 218.948 119.603 237.592 126.547C255.587 133.25 273.709 140.072 292.605 143.79C311.103 147.429 328.61 146.707 346.716 141.434C388.953 129.133 426.661 104.938 468.727 92.146C484.645 87.305 501.452 84.325 517.797 88.897C529.668 92.218 539.537 99.342 548.518 107.557C557.145 115.448 565.182 124.109 575.087 130.459C587.182 138.214 601.059 141.059 615.311 140.218C649.326 138.211 679.746 120.442 710.996 108.696C727.035 102.668 743.846 97.906 761.1 97.756C777.694 97.612 794.011 101.503 809.672 106.698C827.557 112.63 844.832 120.285 862.873 125.765C871.996 128.536 881.308 130.747 890.786 131.869C901.806 133.174 912.959 132.674 924.026 132.395C981.43 130.946 1038.74 126.141 1096.17 125.77C1096.17 126.451 1096.17 126.79 1096.17 127.47Z" fill="url(#paint6_linear_1_2524)"/>
<path d="M1096.21 139.174C1041.88 138.945 987.564 141.063 933.236 141.397C910.136 141.539 888.115 140.196 865.471 135.274C842.247 130.226 819.462 123.389 796.33 117.957C777.516 113.539 758.232 109.806 738.828 109.987C722.706 110.137 707.167 114.462 692.315 120.481C663.968 131.969 637.069 149.12 605.753 150.906C593.667 151.595 580.936 150.537 570.902 143.117C563.906 137.944 559.293 130.538 553.906 123.866C547.916 116.447 540.775 110.798 531.413 108.33C515.096 104.028 496.843 107.518 480.783 111.198C432.379 122.288 386.867 143.516 338.352 154.18C320.204 158.169 301.971 159.761 283.676 155.819C268.085 152.46 253.476 145.915 239.016 139.366C224.037 132.582 208.939 125.707 192.771 122.272C173.87 118.256 154.177 120.009 135.144 122.179C90.139 127.31 45.691 138.863 0.209961 139.176C0.209961 138.448 0.209961 138.085 0.209961 137.357C45.179 137.042 89.072 125.459 133.555 120.317C152.619 118.114 172.266 116.446 191.202 120.425C207.808 123.914 223.38 130.824 238.837 137.625C253.757 144.189 268.823 150.774 284.837 154.18C303.162 158.077 321.289 156.589 339.442 152.45C387.134 141.577 431.653 119.957 479.228 108.651C495.266 104.84 513.349 101.397 529.659 105.736C539.338 108.311 546.819 114.163 553.212 121.676C559.023 128.506 564.088 136.082 571.452 141.401C581.773 148.856 594.597 150.146 606.98 149.437C638.638 147.622 666 130.385 694.719 118.869C709.723 112.852 725.422 108.469 741.688 108.32C760.732 108.146 779.638 111.903 798.056 116.415C820.504 121.914 842.579 128.854 865.126 133.959C875.999 136.421 886.991 138.471 898.1 139.503C909.374 140.55 920.744 140.244 932.053 140.146C986.776 139.674 1041.48 137.195 1096.21 137.357C1096.21 138.085 1096.21 138.448 1096.21 139.176L1096.21 139.174Z" fill="url(#paint7_linear_1_2524)"/>
<path d="M1096.24 150.88C1043.82 150.583 991.401 150.586 938.982 150.36C927.557 150.311 916.096 150.539 904.699 149.642C892.245 148.662 879.875 146.753 867.584 144.557C840.872 139.786 814.459 133.508 787.812 128.408C767.269 124.476 746.288 120.788 725.301 120.979C709.819 121.12 694.959 125.147 680.801 131.218C654.237 142.609 629.754 159.264 600.038 160.95C589.429 161.552 576.519 161.553 567.957 154.215C562.733 149.738 560.551 143.251 557.34 137.398C553.481 130.364 547.919 125.827 540.058 123.836C523.626 119.673 504.838 123.34 488.592 126.473C436.008 136.614 385.503 155.564 332.841 165.342C314.707 168.709 296.021 170.823 277.837 166.657C264.312 163.558 252.009 157.244 239.873 150.716C227.304 143.956 214.622 137.317 200.595 134.144C181.837 129.901 161.842 132.066 142.927 134.09C95.384 139.175 48.213 150.551 0.243042 150.881C0.243042 150.106 0.243042 149.719 0.243042 148.945C47.932 148.621 94.788 137.219 142.044 132.13C160.959 130.093 180.915 127.967 199.675 132.185C213.95 135.395 226.926 142.068 239.786 148.82C252.203 155.339 264.785 161.687 278.55 164.821C296.739 168.962 315.395 166.914 333.526 163.49C385.691 153.637 435.585 134.349 487.668 124.124C503.878 120.942 522.655 117.294 539.06 121.464C547.075 123.501 552.83 128.188 556.942 135.255C560.409 141.213 562.931 147.825 568.354 152.375C577.089 159.703 589.87 159.805 600.644 159.195C630.53 157.502 655.318 140.775 682.08 129.382C696.308 123.325 711.224 119.264 726.767 119.12C747.614 118.927 768.433 122.602 788.82 126.599C815.029 131.738 840.99 138.093 867.267 142.894C891.037 147.237 914.24 148.648 938.344 148.733C990.977 148.919 1043.61 148.603 1096.24 148.945C1096.24 149.72 1096.24 150.107 1096.24 150.882L1096.24 150.88Z" fill="url(#paint8_linear_1_2524)"/>
<path d="M1096.26 162.588C1044.4 162.714 992.536 161.514 940.669 161.33C929.196 161.289 917.724 161.542 906.277 160.612C893.843 159.602 881.486 157.746 869.197 155.633C842.443 151.033 815.949 145.067 789.252 140.167C768.73 136.4 747.762 132.739 726.829 132.807C711.329 132.857 696.421 136.948 682.28 143.08C655.728 154.594 631.316 171.484 601.527 173.111C590.613 173.707 578.337 173.232 569.271 166.34C563.49 161.944 560.154 155.522 556.021 149.728C540.279 127.66 508.481 134.644 485.781 138.977C434.325 148.801 384.804 166.921 333.279 176.419C315.047 179.78 296.414 182.003 278.127 177.853C264.426 174.744 251.872 168.496 239.478 162.071C226.642 155.417 213.698 148.846 199.493 145.654C180.721 141.437 160.796 143.483 141.868 145.545C94.676 150.685 47.917 162.368 0.271996 162.587C0.271996 161.766 0.271996 161.355 0.270996 160.533C48.271 160.284 95.447 148.732 143.009 143.625C161.941 141.592 181.926 139.482 200.697 143.741C214.638 146.904 227.25 153.477 239.754 160.182C251.828 166.657 264.067 172.905 277.513 175.987C295.796 180.177 314.471 177.895 332.701 174.55C385.082 164.939 435.501 146.794 487.813 136.858C509.267 132.783 542.915 124.863 556.924 147.501C560.476 153.241 563.096 159.597 568.471 163.966C577.177 171.043 589.72 171.288 600.369 170.7C630.017 169.065 654.219 152.326 680.641 140.862C694.745 134.743 709.615 130.701 725.071 130.636C746.096 130.547 767.165 134.263 787.775 138.046C814.786 143.004 841.595 149.028 868.662 153.685C881.025 155.812 893.455 157.687 905.964 158.704C917.394 159.633 928.853 159.381 940.309 159.418C992.295 159.587 1044.28 160.629 1096.26 160.532C1096.26 161.354 1096.26 161.764 1096.26 162.586L1096.26 162.588Z" fill="url(#paint9_linear_1_2524)"/>
<path d="M1096.29 174.294C1045.62 174.356 994.989 172.069 944.326 171.586C921.232 171.366 898.929 170.291 876.105 166.393C852.059 162.287 828.273 156.821 804.283 152.417C785.047 148.885 765.428 145.683 745.814 145.778C729.735 145.856 714.276 150.375 699.614 156.699C671.696 168.742 645.47 186.755 614.237 188.59C600.745 189.383 587.498 187.217 575.311 181.275C565.321 176.404 556.53 169.582 547.353 163.396C537.762 156.93 527.623 151.402 516.233 148.895C499.797 145.277 482.449 147.841 466.19 151.16C422.496 160.079 381.075 177.744 337.306 186.343C319.341 189.872 301.407 191.17 283.352 187.578C267.15 184.355 251.759 178.175 236.497 172.014C220.685 165.631 204.776 159.138 187.982 155.814C169.067 152.071 149.619 153.514 130.622 155.92C87.106 161.43 44.407 174.026 0.302002 174.293C0.302002 173.425 0.302002 172.991 0.303002 172.122C45.207 171.882 88.827 159.472 133.174 154.049C152.157 151.728 171.689 150.158 190.572 154.003C206.777 157.302 222.036 163.823 237.192 170.252C251.824 176.459 266.59 182.657 282.224 185.863C300.357 189.582 318.448 188.059 336.499 184.57C381.982 175.777 425.197 158 470.606 148.887C486.861 145.625 504.479 142.769 520.911 146.503C531.503 148.91 540.713 154.287 549.303 160.769C557.389 166.87 565.036 173.625 574.052 178.371C585.596 184.448 598.367 186.292 611.299 185.55C642.203 183.776 668.032 165.995 695.636 154.075C710.172 147.798 725.498 143.374 741.437 143.313C761.373 143.237 781.317 146.54 800.868 150.129C825.448 154.642 849.825 160.217 874.462 164.43C886.075 166.416 897.754 168.12 909.505 169.032C920.819 169.911 932.163 169.652 943.501 169.742C994.437 170.148 1045.35 172.216 1096.29 172.12C1096.29 172.988 1096.29 173.422 1096.29 174.291L1096.29 174.294Z" fill="url(#paint10_linear_1_2524)"/>
<path d="M1096.32 185.999C1047.24 185.827 998.253 182.302 949.19 181.359C927.826 180.948 907.068 180.458 885.93 176.89C865.295 173.406 844.92 168.571 824.341 164.79C806.993 161.603 789.32 158.987 771.637 159.21C754.724 159.423 738.469 164.46 723.044 171.076C693.272 183.846 664.78 203.156 631.597 205.405C597.7 207.702 566.133 190.891 535.99 177.808C520.806 171.217 505.257 165.011 488.928 161.924C472.661 158.848 456.496 159.743 440.414 163.431C406.612 171.182 375.728 188.261 341.842 195.715C304.398 203.952 267.987 192.503 232.421 181.318C212.842 175.16 193.179 168.8 172.891 165.399C153.829 162.204 134.748 162.9 115.703 165.865C77.018 171.888 39.816 185.551 0.317017 185.999C0.317017 185.084 0.318017 184.626 0.319017 183.711C40.703 183.295 79 169.842 118.621 163.92C137.666 161.073 156.798 160.233 175.841 163.526C195.44 166.915 214.373 173.301 233.22 179.5C251.405 185.482 269.696 191.554 288.601 194.838C306.165 197.888 323.529 197.627 340.961 193.881C376.763 186.188 409.732 169.025 445.451 161.031C461.596 157.418 477.937 156.212 494.261 159.379C509.601 162.355 524.101 168.444 538.21 174.994C566.666 188.206 595.772 204.264 628.212 202.119C661.012 199.951 689.064 180.891 718.473 168.264C733.75 161.705 749.848 156.771 766.599 156.584C784.659 156.383 802.713 159.118 820.429 162.372C841.674 166.275 862.715 171.233 884.016 174.838C905.483 178.471 926.541 179.072 948.243 179.447C997.618 180.301 1046.93 183.583 1096.32 183.71C1096.32 184.625 1096.32 185.083 1096.32 185.998L1096.32 185.999Z" fill="url(#paint11_linear_1_2524)"/>
<path d="M1096.36 197.705C1048.58 197.426 1000.97 192.747 953.224 191.465C933.188 190.927 913.581 190.873 893.741 187.565C876.034 184.613 858.589 180.318 840.937 177.076C825.071 174.162 808.933 172.065 792.77 172.325C775.209 172.607 758.31 178.085 742.298 184.93C710.998 198.31 680.569 218.757 645.77 221.302C626.64 222.701 607.139 217.826 588.907 212.56C567.834 206.473 547.249 198.832 526.513 191.712C492.707 180.105 454.844 166.233 418.863 175.643C393.281 182.333 371.697 199.062 346.01 205.467C329.414 209.605 312.29 208.612 295.512 206.105C273.056 202.75 251.048 196.817 229.117 191.058C187.936 180.245 146.078 168.19 103.296 176.103C68.507 182.537 36.234 197.192 0.342041 197.703C0.342041 196.741 0.342041 196.26 0.342041 195.297C36.797 194.778 69.935 180.311 105.346 173.938C147.843 166.289 188.828 177.93 229.651 188.969C251.07 194.761 272.57 200.716 294.539 204.055C311.417 206.62 328.529 207.458 345.232 203.384C372.283 196.785 395.493 180.027 422.444 173.143C458.108 164.034 494.677 177.08 528.092 188.959C547.91 196.005 567.571 203.583 587.747 209.57C605.621 214.874 624.718 219.585 643.507 218.218C678.041 215.705 708.138 195.467 739.19 182.184C755.114 175.372 771.916 169.973 789.379 169.692C805.772 169.428 822.139 171.614 838.229 174.568C856.385 177.902 874.335 182.292 892.547 185.334C912.574 188.68 932.341 188.798 952.569 189.319C1000.53 190.555 1048.37 195.017 1096.36 195.297V197.703V197.705Z" fill="url(#paint12_linear_1_2524)"/>
<path d="M1096.39 209.19C1048.61 208.536 1000.96 204.443 953.213 202.995C933.405 202.394 913.89 202.436 894.284 199.105C877.928 196.327 861.862 192.126 845.567 189.042C829.941 186.084 814.073 184.253 798.15 184.437C780.484 184.64 763.461 190.307 747.359 197.161C715.576 210.69 684.311 231.702 649.001 234.204C629.516 235.585 609.732 230.601 591.121 225.402C568.493 219.08 546.317 211.249 524.002 203.927C489.451 192.59 449.843 177.61 413.191 187.505C389.806 193.819 370.908 210.425 347.412 216.471C330.897 220.72 313.779 219.541 297.072 217.096C273.847 213.697 251.024 207.862 228.266 202.222C186.705 191.921 143.053 178.894 100.019 187.307C84.176 190.404 69.031 195.99 53.648 200.745C36.218 206.133 18.678 209.639 0.375977 209.715C0.376977 208.518 0.377977 207.952 0.379977 206.902C18.637 206.734 36.152 203.318 53.558 197.981C68.784 193.313 83.775 187.84 99.448 184.795C142.724 176.386 186.443 189.42 228.26 199.707C251.238 205.36 274.28 211.225 297.719 214.655C314.436 217.101 331.639 218.271 348.163 213.999C371.109 208.067 389.135 191.269 411.965 185.067C427.35 180.887 443.248 181.339 458.849 184.03C480.836 187.822 502.282 194.666 523.487 201.46C546.23 208.747 568.843 216.52 591.877 222.857C610.424 227.96 630.163 233.042 649.566 231.673C684.856 229.183 716.052 208.161 747.799 194.617C763.889 187.753 780.928 182.07 798.59 181.892C814.501 181.732 830.38 183.615 846.005 186.499C862.475 189.539 878.732 193.639 895.258 196.387C914.947 199.661 934.475 199.634 954.356 200.2C1001.74 201.549 1048.96 206.631 1096.38 206.879C1096.38 207.858 1096.38 208.318 1096.38 209.191L1096.39 209.19Z" fill="url(#paint13_linear_1_2524)"/>
<path d="M1096.42 217.068C1043.27 216.095 990.107 218.007 936.953 217.744C917.507 217.648 898.262 217.624 879.161 213.527C864.388 210.358 850.089 205.4 835.415 201.846C820.577 198.253 805.403 196.347 790.125 196.546C772.312 196.777 755.141 202.425 738.845 209.209C706.561 222.65 674.66 243.577 638.958 246.11C601.071 248.797 564.124 228.926 530.176 214.86C512.527 207.547 494.504 200.433 475.677 196.803C459.637 193.71 443.618 194.162 427.725 197.827C397.996 204.683 371.202 220.526 341.399 227.138C303.762 235.488 264.788 223.478 228.551 213.82C189.23 203.34 148.455 191.461 107.649 200.264C71.3331 208.098 38.3341 226.587 0.405053 226.661C0.405053 224.916 0.405053 224.06 0.404053 222.395C37.5301 222.395 69.778 204.657 105.369 197.192C146.795 188.503 188.532 200.8 228.471 211.216C264.932 220.725 305.227 233.606 343.052 224.822C370.986 218.335 395.591 202.344 423.445 195.61C459.568 186.877 494.883 199.516 528.366 212.458C547.831 219.982 567.11 228.089 587.002 234.448C604.668 240.096 623.391 244.736 642.08 243.406C677.66 240.874 709.381 219.923 741.515 206.46C757.755 199.656 774.862 194.02 792.629 193.78C808.13 193.571 823.535 195.432 838.641 198.845C853.773 202.264 868.573 207.016 883.792 210.069C903.025 213.927 922.35 213.938 941.882 214.214C993.391 214.944 1044.92 214.514 1096.42 215.616C1096.42 216.227 1096.42 216.515 1096.42 217.068H1096.42Z" fill="url(#paint14_linear_1_2524)"/>
<path d="M1096.44 222.42C1034.48 222.88 972.829 231.502 910.955 234.071C891.902 234.862 873.038 235.095 854.606 229.553C842.072 225.784 830.391 219.786 818.033 215.537C804.753 210.971 790.81 208.803 776.768 208.921C758.703 209.073 741.164 214.788 724.567 221.48C691.488 234.817 658.671 255.625 622.308 258.154C590.501 260.366 565.144 241.485 539.658 225.317C527.231 217.434 514.209 209.989 499.828 206.356C483.506 202.232 466.442 204.228 450.105 207.265C410.487 214.632 372.806 229.959 333.136 237.091C315.424 240.276 297.788 240.935 279.972 238.199C262.624 235.535 245.777 230.435 229.021 225.342C211.658 220.065 194.229 214.692 176.254 211.917C157.203 208.976 138.404 209.805 119.678 214.375C79.558 224.165 42.56 246.282 0.445017 247.059C0.444017 245.1 0.443017 244.115 0.442017 242.154C41.53 241.571 77.538 220.322 116.724 211.016C135.497 206.558 154.343 205.985 173.402 208.899C192.277 211.784 210.627 217.271 228.912 222.632C246.556 227.806 264.285 233.012 282.497 235.786C300.159 238.476 317.606 238.076 335.153 234.766C372.382 227.744 407.439 212.326 444.612 205.066C460.884 201.888 477.599 200.299 493.898 204.13C509.343 207.76 523.605 215.129 537.336 222.871C564.945 238.437 593.253 257.635 626.427 255.313C662.626 252.779 695.219 231.942 728.103 218.581C744.62 211.87 762.076 206.158 780.075 205.999C794.426 205.872 808.658 207.968 822.341 212.288C835.261 216.367 847.593 222.111 860.667 225.733C879.271 230.887 898.218 230.77 917.367 230.18C977.09 228.339 1036.67 221.281 1096.44 221.233C1096.44 221.709 1096.44 221.943 1096.44 222.42Z" fill="url(#paint15_linear_1_2524)"/>
<path d="M1096.47 228.167C1061.98 229.07 1027.56 233.906 993.36 238.135C957.922 242.516 922.475 247.39 886.86 250.118C868.014 251.561 848.87 252.61 831.067 245.143C820.839 240.853 811.99 234.045 802.043 229.219C773.044 215.147 740.599 222.285 711.931 233.429C678.06 246.595 644.525 267.235 607.587 270.111C594.362 271.141 581.727 268.732 571.084 260.49C562.23 253.633 555.776 244.337 548.609 235.863C541.308 227.231 532.935 219.364 521.958 215.817C505.709 210.566 486.546 214.386 470.145 217.022C421.116 224.901 373.484 239.862 324.374 247.29C306.269 250.029 287.936 251.485 269.77 248.51C255.777 246.219 242.401 241.557 229.111 236.754C215.336 231.776 201.5 226.898 186.98 224.591C167.982 221.572 149.273 223.421 130.759 228.373C87.207 240.022 46.409 265.477 0.485009 266.916C0.485009 265.123 0.485009 264.197 0.484009 262.306C45.667 260.966 85.678 236.199 128.584 224.97C147.149 220.112 165.881 218.51 184.885 221.543C200.161 223.981 214.793 229.002 229.365 234.04C243.443 238.907 257.614 243.659 272.37 245.999C290.586 248.888 308.885 247.5 327.016 244.629C374.108 237.173 419.634 222.091 466.686 214.421C483.005 211.76 501.529 208.44 517.694 213.598C529.101 217.238 538.325 224.903 546.667 233.23C554.929 241.478 562.61 250.472 572.212 257.236C583.482 265.174 596.351 268.174 610.03 267.234C675.993 262.704 737.175 195.461 805.219 225.832C815.891 230.595 825.531 237.374 836.472 241.58C854.276 248.424 873.054 247.623 891.759 246.32C926.44 243.905 960.978 239.506 995.508 235.55C1029.02 231.711 1062.71 227.363 1096.47 226.561V228.168L1096.47 228.167Z" fill="url(#paint16_linear_1_2524)"/>
<path d="M1096.5 237.236C1060.45 237.566 1024.27 244.014 988.683 249.191C950.965 254.678 913.209 260.93 875.206 264.115C857.058 265.636 837.247 267.173 820.41 258.801C811.232 254.237 804.023 246.801 795.246 241.62C768.104 225.598 733.438 234.933 706.142 245.372C671.897 258.468 637.882 279.025 600.651 281.949C588.438 282.908 574.942 281.768 566.157 272.223C559.646 265.15 556.98 255.619 553.163 247.02C549.098 237.861 543.29 229.971 533.502 226.539C526.305 224.015 518.546 224.044 511.026 224.423C500.948 224.932 490.909 226.246 480.939 227.756C426.736 235.963 373.665 250.491 319.394 258.29C301.21 260.903 282.798 262.571 264.56 259.529C252.287 257.482 240.77 253.142 229.331 248.388C217.465 243.457 205.575 238.919 192.827 236.854C173.711 233.757 154.905 235.65 136.316 240.784C113.128 247.187 91.0061 256.916 68.5651 265.455C46.7401 273.76 24.0891 281.733 0.503052 282.236C0.506052 281.037 0.507052 280.38 0.510052 278.972C24.0811 278.328 46.6701 270.508 68.5081 262.225C90.7771 253.779 112.73 244.166 135.735 237.829C154.259 232.726 173.036 230.7 192.091 233.787C205.059 235.888 217.209 240.49 229.324 245.403C241.006 250.141 252.77 254.54 265.258 256.623C283.523 259.67 302.032 257.961 320.241 255.342C373.822 247.636 426.147 232.968 479.658 224.844C489.707 223.318 499.824 222.012 509.982 221.507C517.442 221.136 525.073 221.108 532.201 223.648C542.008 227.142 548.093 235.088 552.632 244.082C556.963 252.665 560.248 262.145 567.036 269.199C575.98 278.495 588.923 279.907 601.188 278.949C638.394 276.041 672.34 255.468 706.545 242.359C734.072 231.809 768.191 222.876 795.621 238.621C804.566 243.756 812.043 251.078 821.365 255.613C838.423 263.913 858.03 262.398 876.362 260.833C914.056 257.616 951.517 251.609 988.953 246.283C1024.51 241.223 1060.52 235.116 1096.51 234.44V237.237L1096.5 237.236Z" fill="url(#paint17_linear_1_2524)"/>
<defs>
<linearGradient id="paint0_linear_1_2524" x1="0.001" y1="43.5789" x2="1096" y2="43.5789" gradientUnits="userSpaceOnUse">
<stop stop-color="#1D1E20"/>
<stop offset="0.276" stop-color="#2E3033"/>
<stop offset="0.396" stop-color="#2E3033"/>
<stop offset="0.441" stop-color="#2D3036"/>
<stop offset="0.473" stop-color="#0C43C2"/>
<stop offset="0.494" stop-color="#85CAD6"/>
<stop offset="0.515" stop-color="#174BB9"/>
<stop offset="0.589" stop-color="#2C313C"/>
<stop offset="0.59" stop-color="#2C313C"/>
<stop offset="0.679" stop-color="#2E3033"/>
<stop offset="0.812" stop-color="#2E3033"/>
<stop offset="1" stop-color="#1D1E20"/>
</linearGradient>
<linearGradient id="paint1_linear_1_2524" x1="0.0310059" y1="54.971" x2="1096.02" y2="54.971" gradientUnits="userSpaceOnUse">
<stop stop-color="#1D1E20"/>
<stop offset="0.276" stop-color="#2E3033"/>
<stop offset="0.347" stop-color="#2E3033"/>
<stop offset="0.39" stop-color="#2E3033"/>
<stop offset="0.396" stop-color="#2E3035"/>
<stop offset="0.416" stop-color="#2C313C"/>
<stop offset="0.44" stop-color="#32393F"/>
<stop offset="0.441" stop-color="#32393F"/>
<stop offset="0.466" stop-color="#1340A5"/>
<stop offset="0.473" stop-color="#0D43C1"/>
<stop offset="0.494" stop-color="#7FC2D3"/>
<stop offset="0.515" stop-color="#174AB6"/>
<stop offset="0.589" stop-color="#2C313C"/>
<stop offset="0.59" stop-color="#2C313C"/>
<stop offset="0.679" stop-color="#2E3033"/>
<stop offset="0.812" stop-color="#2E3033"/>
<stop offset="1" stop-color="#1D1E20"/>
</linearGradient>
<linearGradient id="paint2_linear_1_2524" x1="0.0600586" y1="66.3249" x2="1096.06" y2="66.3249" gradientUnits="userSpaceOnUse">
<stop stop-color="#1D1E20"/>
<stop offset="0.276" stop-color="#2E3033"/>
<stop offset="0.347" stop-color="#2E3033"/>
<stop offset="0.39" stop-color="#2E3033"/>
<stop offset="0.396" stop-color="#2D3037"/>
<stop offset="0.416" stop-color="#2A3245"/>
<stop offset="0.44" stop-color="#374249"/>
<stop offset="0.441" stop-color="#374149"/>
<stop offset="0.466" stop-color="#1340A6"/>
<stop offset="0.473" stop-color="#0D44C0"/>
<stop offset="0.494" stop-color="#79BACF"/>
<stop offset="0.515" stop-color="#184AB3"/>
<stop offset="0.589" stop-color="#2C313C"/>
<stop offset="0.59" stop-color="#2C313C"/>
<stop offset="0.679" stop-color="#2E3033"/>
<stop offset="0.812" stop-color="#2E3033"/>
<stop offset="1" stop-color="#1D1E20"/>
</linearGradient>
<linearGradient id="paint3_linear_1_2524" x1="0.0860596" y1="77.709" x2="1096.1" y2="77.709" gradientUnits="userSpaceOnUse">
<stop stop-color="#1D1E20"/>
<stop offset="0.276" stop-color="#2E3033"/>
<stop offset="0.347" stop-color="#2E3033"/>
<stop offset="0.39" stop-color="#2E3034"/>
<stop offset="0.396" stop-color="#2D3139"/>
<stop offset="0.416" stop-color="#28334D"/>
<stop offset="0.44" stop-color="#3D4B52"/>
<stop offset="0.441" stop-color="#3C4A52"/>
<stop offset="0.466" stop-color="#1441A8"/>
<stop offset="0.473" stop-color="#0E44BF"/>
<stop offset="0.494" stop-color="#72B3CC"/>
<stop offset="0.515" stop-color="#1849B0"/>
<stop offset="0.589" stop-color="#2C313C"/>
<stop offset="0.59" stop-color="#2C313C"/>
<stop offset="0.679" stop-color="#2E3033"/>
<stop offset="0.812" stop-color="#2E3033"/>
<stop offset="1" stop-color="#1D1E20"/>
</linearGradient>
<linearGradient id="paint4_linear_1_2524" x1="0.115943" y1="91.5979" x2="1096.12" y2="91.5979" gradientUnits="userSpaceOnUse">
<stop stop-color="#1D1E20"/>
<stop offset="0.276" stop-color="#2E3033"/>
<stop offset="0.347" stop-color="#2E3033"/>
<stop offset="0.39" stop-color="#2E3034"/>
<stop offset="0.396" stop-color="#2C313B"/>
<stop offset="0.416" stop-color="#263455"/>
<stop offset="0.44" stop-color="#42545C"/>
<stop offset="0.441" stop-color="#41535B"/>
<stop offset="0.466" stop-color="#1442A9"/>
<stop offset="0.473" stop-color="#0F45BE"/>
<stop offset="0.494" stop-color="#6CABC9"/>
<stop offset="0.515" stop-color="#1949AD"/>
<stop offset="0.589" stop-color="#2C313C"/>
<stop offset="0.59" stop-color="#2C313C"/>
<stop offset="0.679" stop-color="#2E3033"/>
<stop offset="0.812" stop-color="#2E3033"/>
<stop offset="1" stop-color="#1D1E20"/>
</linearGradient>
<linearGradient id="paint5_linear_1_2524" x1="0.14502" y1="103.778" x2="1096.14" y2="103.778" gradientUnits="userSpaceOnUse">
<stop stop-color="#1D1E20"/>
<stop offset="0.276" stop-color="#2E3033"/>
<stop offset="0.347" stop-color="#2E3033"/>
<stop offset="0.39" stop-color="#2E3034"/>
<stop offset="0.396" stop-color="#2C313D"/>
<stop offset="0.416" stop-color="#24365E"/>
<stop offset="0.44" stop-color="#475D65"/>
<stop offset="0.441" stop-color="#455C65"/>
<stop offset="0.466" stop-color="#1443AA"/>
<stop offset="0.473" stop-color="#1045BD"/>
<stop offset="0.494" stop-color="#66A3C5"/>
<stop offset="0.515" stop-color="#1948AA"/>
<stop offset="0.589" stop-color="#2C313C"/>
<stop offset="0.59" stop-color="#2C313C"/>
<stop offset="0.679" stop-color="#2E3033"/>
<stop offset="0.812" stop-color="#2E3033"/>
<stop offset="1" stop-color="#1D1E20"/>
</linearGradient>
<linearGradient id="paint6_linear_1_2524" x1="0.175025" y1="117.103" x2="1096.17" y2="117.103" gradientUnits="userSpaceOnUse">
<stop stop-color="#1D1E20"/>
<stop offset="0.276" stop-color="#2E3033"/>
<stop offset="0.347" stop-color="#2E3033"/>
<stop offset="0.39" stop-color="#2E3034"/>
<stop offset="0.396" stop-color="#2B313F"/>
<stop offset="0.416" stop-color="#223766"/>
<stop offset="0.44" stop-color="#4C666E"/>
<stop offset="0.441" stop-color="#4A646E"/>
<stop offset="0.466" stop-color="#1443AB"/>
<stop offset="0.473" stop-color="#1045BC"/>
<stop offset="0.494" stop-color="#609BC2"/>
<stop offset="0.515" stop-color="#1A47A7"/>
<stop offset="0.589" stop-color="#2C313C"/>
<stop offset="0.59" stop-color="#2C313C"/>
<stop offset="0.679" stop-color="#2E3033"/>
<stop offset="0.812" stop-color="#2E3033"/>
<stop offset="1" stop-color="#1D1E20"/>
</linearGradient>
<linearGradient id="paint7_linear_1_2524" x1="0.209961" y1="130.905" x2="1096.21" y2="130.905" gradientUnits="userSpaceOnUse">
<stop stop-color="#1D1E20"/>
<stop offset="0.276" stop-color="#2E3033"/>
<stop offset="0.347" stop-color="#2E3033"/>
<stop offset="0.39" stop-color="#2E3034"/>
<stop offset="0.396" stop-color="#2B3241"/>
<stop offset="0.416" stop-color="#20386E"/>
<stop offset="0.44" stop-color="#516F78"/>
<stop offset="0.441" stop-color="#4F6D77"/>
<stop offset="0.466" stop-color="#1544AD"/>
<stop offset="0.473" stop-color="#1146BB"/>
<stop offset="0.494" stop-color="#5A93BF"/>
<stop offset="0.515" stop-color="#1A47A4"/>
<stop offset="0.589" stop-color="#2C313C"/>
<stop offset="0.59" stop-color="#2C313C"/>
<stop offset="0.679" stop-color="#2E3033"/>
<stop offset="0.812" stop-color="#2E3033"/>
<stop offset="1" stop-color="#1D1E20"/>
</linearGradient>
<linearGradient id="paint8_linear_1_2524" x1="0.241042" y1="144.038" x2="1096.24" y2="144.038" gradientUnits="userSpaceOnUse">
<stop stop-color="#1D1E20"/>
<stop offset="0.276" stop-color="#2E3033"/>
<stop offset="0.347" stop-color="#2E3033"/>
<stop offset="0.39" stop-color="#2E3034"/>
<stop offset="0.396" stop-color="#2A3243"/>
<stop offset="0.416" stop-color="#1E3977"/>
<stop offset="0.44" stop-color="#567881"/>
<stop offset="0.441" stop-color="#547681"/>
<stop offset="0.466" stop-color="#1545AE"/>
<stop offset="0.473" stop-color="#1246BA"/>
<stop offset="0.494" stop-color="#548BBB"/>
<stop offset="0.515" stop-color="#1B46A1"/>
<stop offset="0.589" stop-color="#2C313C"/>
<stop offset="0.59" stop-color="#2C313C"/>
<stop offset="0.679" stop-color="#2E3033"/>
<stop offset="0.812" stop-color="#2E3033"/>
<stop offset="1" stop-color="#1D1E20"/>
</linearGradient>
<linearGradient id="paint9_linear_1_2524" x1="0.271996" y1="155.374" x2="1096.26" y2="155.374" gradientUnits="userSpaceOnUse">
<stop stop-color="#1D1E20"/>
<stop offset="0.276" stop-color="#2E3033"/>
<stop offset="0.347" stop-color="#2E3033"/>
<stop offset="0.39" stop-color="#2D3035"/>
<stop offset="0.396" stop-color="#2A3245"/>
<stop offset="0.416" stop-color="#1C3A7F"/>
<stop offset="0.44" stop-color="#5C828B"/>
<stop offset="0.441" stop-color="#597E8A"/>
<stop offset="0.466" stop-color="#1545AF"/>
<stop offset="0.473" stop-color="#1247BA"/>
<stop offset="0.494" stop-color="#4D84B8"/>
<stop offset="0.515" stop-color="#1B469F"/>
<stop offset="0.589" stop-color="#2C313C"/>
<stop offset="0.59" stop-color="#2C313C"/>
<stop offset="0.679" stop-color="#2E3033"/>
<stop offset="0.812" stop-color="#2E3033"/>
<stop offset="1" stop-color="#1D1E20"/>
</linearGradient>
<linearGradient id="paint10_linear_1_2524" x1="0.301002" y1="166.514" x2="1096.29" y2="166.514" gradientUnits="userSpaceOnUse">
<stop stop-color="#1D1E20"/>
<stop offset="0.276" stop-color="#2E3033"/>
<stop offset="0.347" stop-color="#2E3033"/>
<stop offset="0.39" stop-color="#2D3035"/>
<stop offset="0.396" stop-color="#293247"/>
<stop offset="0.416" stop-color="#1A3B88"/>
<stop offset="0.44" stop-color="#618B94"/>
<stop offset="0.441" stop-color="#5E8794"/>
<stop offset="0.466" stop-color="#1546B0"/>
<stop offset="0.473" stop-color="#1347B9"/>
<stop offset="0.494" stop-color="#477CB4"/>
<stop offset="0.515" stop-color="#1C459C"/>
<stop offset="0.589" stop-color="#2C313C"/>
<stop offset="0.59" stop-color="#2C313C"/>
<stop offset="0.679" stop-color="#2E3033"/>
<stop offset="0.812" stop-color="#2E3033"/>
<stop offset="1" stop-color="#1D1E20"/>
</linearGradient>
<linearGradient id="paint11_linear_1_2524" x1="0.320017" y1="181.095" x2="1096.32" y2="181.095" gradientUnits="userSpaceOnUse">
<stop stop-color="#1D1E20"/>
<stop offset="0.276" stop-color="#2E3033"/>
<stop offset="0.347" stop-color="#2E3033"/>
<stop offset="0.39" stop-color="#2D3035"/>
<stop offset="0.396" stop-color="#293349"/>
<stop offset="0.416" stop-color="#183C90"/>
<stop offset="0.44" stop-color="#66949E"/>
<stop offset="0.441" stop-color="#63909D"/>
<stop offset="0.466" stop-color="#1647B2"/>
<stop offset="0.473" stop-color="#1448B8"/>
<stop offset="0.494" stop-color="#4174B1"/>
<stop offset="0.515" stop-color="#1C4599"/>
<stop offset="0.589" stop-color="#2C313C"/>
<stop offset="0.59" stop-color="#2C313C"/>
<stop offset="0.679" stop-color="#2E3033"/>
<stop offset="0.812" stop-color="#2E3033"/>
<stop offset="1" stop-color="#1D1E20"/>
</linearGradient>
<linearGradient id="paint12_linear_1_2524" x1="0.343041" y1="195.608" x2="1096.36" y2="195.608" gradientUnits="userSpaceOnUse">
<stop stop-color="#1D1E20"/>
<stop offset="0.276" stop-color="#2E3033"/>
<stop offset="0.347" stop-color="#2E3033"/>
<stop offset="0.39" stop-color="#2D3035"/>
<stop offset="0.396" stop-color="#28334B"/>
<stop offset="0.416" stop-color="#163D98"/>
<stop offset="0.44" stop-color="#6B9DA7"/>
<stop offset="0.441" stop-color="#6898A6"/>
<stop offset="0.466" stop-color="#1647B3"/>
<stop offset="0.473" stop-color="#1448B7"/>
<stop offset="0.494" stop-color="#3B6CAE"/>
<stop offset="0.515" stop-color="#1D4496"/>
<stop offset="0.589" stop-color="#2C313C"/>
<stop offset="0.59" stop-color="#2C313C"/>
<stop offset="0.679" stop-color="#2E3033"/>
<stop offset="0.812" stop-color="#2E3033"/>
<stop offset="1" stop-color="#1D1E20"/>
</linearGradient>
<linearGradient id="paint13_linear_1_2524" x1="0.376977" y1="208.16" x2="1096.39" y2="208.16" gradientUnits="userSpaceOnUse">
<stop stop-color="#1D1E20"/>
<stop offset="0.276" stop-color="#2E3033"/>
<stop offset="0.347" stop-color="#2E3033"/>
<stop offset="0.39" stop-color="#2D3035"/>
<stop offset="0.396" stop-color="#28334D"/>
<stop offset="0.416" stop-color="#143FA1"/>
<stop offset="0.44" stop-color="#70A6B0"/>
<stop offset="0.441" stop-color="#6CA1B0"/>
<stop offset="0.466" stop-color="#1648B4"/>
<stop offset="0.473" stop-color="#1548B6"/>
<stop offset="0.494" stop-color="#3564AA"/>
<stop offset="0.515" stop-color="#1D4393"/>
<stop offset="0.589" stop-color="#2C313C"/>
<stop offset="0.59" stop-color="#2C313C"/>
<stop offset="0.679" stop-color="#2E3033"/>
<stop offset="0.812" stop-color="#2E3033"/>
<stop offset="1" stop-color="#1D1E20"/>
</linearGradient>
<linearGradient id="paint14_linear_1_2524" x1="0.402053" y1="219.538" x2="1096.42" y2="219.538" gradientUnits="userSpaceOnUse">
<stop stop-color="#1D1E20"/>
<stop offset="0.276" stop-color="#2E3033"/>
<stop offset="0.347" stop-color="#2E3033"/>
<stop offset="0.39" stop-color="#2D3035"/>
<stop offset="0.396" stop-color="#27334F"/>
<stop offset="0.416" stop-color="#1240A9"/>
<stop offset="0.44" stop-color="#75AFBA"/>
<stop offset="0.441" stop-color="#71AAB9"/>
<stop offset="0.466" stop-color="#1649B5"/>
<stop offset="0.473" stop-color="#1649B5"/>
<stop offset="0.494" stop-color="#2F5CA7"/>
<stop offset="0.515" stop-color="#1E4390"/>
<stop offset="0.589" stop-color="#2C313C"/>
<stop offset="0.59" stop-color="#2C313C"/>
<stop offset="0.679" stop-color="#2E3033"/>
<stop offset="0.812" stop-color="#2E3033"/>
<stop offset="1" stop-color="#1D1E20"/>
</linearGradient>
<linearGradient id="paint15_linear_1_2524" x1="0.441017" y1="230.108" x2="1096.44" y2="230.108" gradientUnits="userSpaceOnUse">
<stop stop-color="#1D1E20"/>
<stop offset="0.276" stop-color="#2E3033"/>
<stop offset="0.347" stop-color="#2E3033"/>
<stop offset="0.39" stop-color="#2D3036"/>
<stop offset="0.396" stop-color="#273451"/>
<stop offset="0.416" stop-color="#1041B1"/>
<stop offset="0.44" stop-color="#7BB8C3"/>
<stop offset="0.441" stop-color="#76B3C2"/>
<stop offset="0.466" stop-color="#174AB7"/>
<stop offset="0.473" stop-color="#1749B4"/>
<stop offset="0.494" stop-color="#2855A4"/>
<stop offset="0.515" stop-color="#1E428D"/>
<stop offset="0.589" stop-color="#2C313C"/>
<stop offset="0.59" stop-color="#2C313C"/>
<stop offset="0.679" stop-color="#2E3033"/>
<stop offset="0.812" stop-color="#2E3033"/>
<stop offset="1" stop-color="#1D1E20"/>
</linearGradient>
<linearGradient id="paint16_linear_1_2524" x1="0.483009" y1="240.61" x2="1096.47" y2="240.61" gradientUnits="userSpaceOnUse">
<stop stop-color="#1D1E20"/>
<stop offset="0.276" stop-color="#2E3033"/>
<stop offset="0.347" stop-color="#2E3033"/>
<stop offset="0.39" stop-color="#2D3036"/>
<stop offset="0.396" stop-color="#263453"/>
<stop offset="0.416" stop-color="#0E42BA"/>
<stop offset="0.44" stop-color="#80C1CD"/>
<stop offset="0.441" stop-color="#7BBBCC"/>
<stop offset="0.466" stop-color="#174AB8"/>
<stop offset="0.473" stop-color="#174AB3"/>
<stop offset="0.494" stop-color="#224DA0"/>
<stop offset="0.515" stop-color="#1F428A"/>
<stop offset="0.589" stop-color="#2C313C"/>
<stop offset="0.59" stop-color="#2C313C"/>
<stop offset="0.679" stop-color="#2E3033"/>
<stop offset="0.812" stop-color="#2E3033"/>
<stop offset="1" stop-color="#1D1E20"/>
</linearGradient>
<linearGradient id="paint17_linear_1_2524" x1="0.501052" y1="251.779" x2="1096.5" y2="251.779" gradientUnits="userSpaceOnUse">
<stop stop-color="#1D1E20"/>
<stop offset="0.276" stop-color="#2E3033"/>
<stop offset="0.347" stop-color="#2E3033"/>
<stop offset="0.39" stop-color="#2D3036"/>
<stop offset="0.416" stop-color="#0C43C2"/>
<stop offset="0.44" stop-color="#85CAD6"/>
<stop offset="0.466" stop-color="#174BB9"/>
<stop offset="0.589" stop-color="#2C313C"/>
<stop offset="0.59" stop-color="#2C313C"/>
<stop offset="0.679" stop-color="#2E3033"/>
<stop offset="0.812" stop-color="#2E3033"/>
<stop offset="1" stop-color="#1D1E20"/>
</linearGradient>
</defs>
</svg>
