<svg width="1096" height="252" viewBox="0 0 1096 252" fill="none" xmlns="http://www.w3.org/2000/svg">
<path d="M1096 49.97C1064.06 49.619 1032.15 44.786 1000.55 40.572C967.995 36.231 935.416 31.327 902.643 28.935C879.895 27.275 857.882 28.796 835.486 33.061C814.983 36.966 794.78 42.266 774.341 46.476C756.763 50.097 738.874 53.017 720.879 53.005C699.403 52.992 677.896 48.729 656.919 44.545C632.308 39.636 607.869 33.915 583.288 28.86C562.288 24.542 540.971 20.233 519.509 19.179C506.361 18.533 492.926 19.434 480.439 23.867C471.8 26.934 464.062 31.755 456.029 36.075C433.198 48.355 407.031 49.378 382.056 43.505C352.029 36.444 325.011 20.251 294.793 13.824C278.671 10.395 262.104 10.077 245.948 13.47C230.984 16.612 216.963 22.731 203.063 28.931C188.643 35.362 174.112 41.718 158.544 44.807C140.55 48.377 122.468 47.362 105.104 41.392C69.131 29.024 39.665 1.768 0 1.028V0C39.726 0.621 69.023 28.052 105.002 40.438C122.351 46.411 140.514 47.394 158.494 43.834C174.072 40.749 188.604 34.373 203.024 27.925C216.924 21.709 230.948 15.571 245.92 12.431C262.061 9.046 278.648 9.374 294.753 12.798C324.978 19.224 351.991 35.448 382.025 42.51C406.957 48.373 433.226 47.383 456.006 35.067C463.987 30.752 471.669 25.937 480.262 22.882C492.754 18.44 506.228 17.531 519.383 18.187C540.842 19.256 562.155 23.563 583.155 27.869C607.779 32.918 632.264 38.625 656.918 43.531C677.88 47.702 699.373 51.972 720.831 52C738.826 52.023 756.718 49.1 774.295 45.475C794.732 41.261 814.931 35.953 835.433 32.045C857.791 27.783 879.816 26.239 902.53 27.875C935.344 30.237 967.961 35.213 1000.55 39.6C1032.14 43.853 1064.06 48.768 1096 49V49.97Z" fill="url(#paint0_linear_306_1288)"/>
<path d="M1096 57.7136C1033.62 56.2316 971.736 45.8946 909.493 42.0946C886.683 40.7016 864.786 41.9786 842.301 46.1306C821.741 49.9276 801.46 55.0656 780.96 59.1546C763.34 62.6696 745.436 65.5086 727.426 65.5396C706.376 65.5756 685.349 61.2646 664.864 56.8406C641.389 51.7706 618.122 45.7976 594.684 40.5666C574.314 36.0206 553.587 31.5916 532.684 30.5826C519.048 29.9246 505.416 31.1136 492.419 35.4526C482.466 38.7756 473.263 43.7896 463.824 48.2926C439.277 60.0026 413.26 62.3286 386.706 56.2586C356.838 49.4316 329.78 33.8176 299.735 27.5986C283.573 24.2536 267.125 24.0066 250.921 27.2226C236.171 30.1506 222.241 35.7936 208.413 41.5516C194.064 47.5266 179.625 53.3846 164.28 56.2686C146.054 59.6936 128.151 58.4356 110.418 53.1246C73.073 41.9406 40.064 17.7776 0 16.5956V14.9766C39.952 16.1796 72.555 40.6846 109.685 52.0336C127.374 57.4406 145.244 58.6856 163.446 55.2316C178.818 52.3146 193.27 46.3946 207.63 40.3626C221.468 34.5496 235.411 28.8476 250.187 25.8856C266.394 22.6366 282.846 22.8876 299.014 26.2496C329.08 32.5006 356.136 48.1796 386.023 55.0416C412.376 61.0916 438.327 58.9316 462.659 47.1666C471.923 42.6876 480.945 37.6976 490.731 34.4056C503.648 30.0596 517.22 28.9196 530.778 29.5686C551.769 30.5736 572.587 34.9856 593.054 39.5066C616.634 44.7146 640.046 50.6586 663.662 55.7076C684.233 60.1056 705.343 64.4036 726.47 64.3646C744.478 64.3316 762.378 61.4836 779.992 57.9556C800.484 53.8506 820.756 48.6936 841.308 44.8826C863.807 40.7106 885.712 39.4126 908.538 40.8646C971.106 44.8446 1033.28 55.7076 1096 57.2396V57.7146L1096 57.7136Z" fill="url(#paint1_linear_306_1288)"/>
<path d="M1096 61.4139C1038.02 61.2359 980.108 57.1959 922.143 56.0439C900.049 55.6049 878.628 56.5589 856.815 60.3259C835.696 63.9729 814.849 69.0029 793.79 72.9589C776.077 76.2859 758.067 78.9939 740 78.8809C719.975 78.7549 700.052 74.1699 680.716 69.3569C659.04 63.9619 637.617 57.6109 615.972 52.0959C596.979 47.2559 577.557 42.6219 557.91 41.6619C543.233 40.9439 528.641 42.9239 514.624 47.2909C502.741 50.9929 491.433 56.2039 479.944 60.9349C453.002 72.0269 425.697 76.3839 396.859 70.3599C367.139 64.1519 340.031 49.2959 310.224 43.3979C294.155 40.2179 277.678 39.9189 261.514 42.6109C247.046 45.0209 233.239 49.8899 219.52 54.9379C205.307 60.1679 191.03 65.2739 176.026 67.7179C157.471 70.7409 138.834 69.5349 120.531 65.5009C80.089 56.5879 42.095 36.5629 0 36.0469V34.1289C41.868 34.7299 79.387 55.1769 119.511 64.3199C137.76 68.4779 156.319 69.6939 174.84 66.6219C189.879 64.1279 204.174 58.9409 218.403 53.6339C232.137 48.5119 245.962 43.5659 260.464 41.1069C276.639 38.3649 293.115 38.6679 309.197 41.8729C339.03 47.8179 366.137 62.7569 395.883 69.0129C424.474 75.0269 451.579 70.8559 478.264 59.7239C489.525 55.0269 500.601 49.8469 512.262 46.1829C526.16 41.8159 540.637 39.9009 555.195 40.6069C574.97 41.5659 594.52 46.1659 613.655 50.9729C635.487 56.4579 657.103 62.7719 678.965 68.1369C698.435 72.9149 718.485 77.4789 738.63 77.5959C756.694 77.7009 774.697 74.9819 792.403 71.6359C813.452 67.6589 834.286 62.6039 855.395 58.9369C877.239 55.1419 898.671 54.1579 920.801 54.6989C979.218 56.1269 1037.56 60.7979 1096 61.1289V61.4119L1096 61.4139Z" fill="url(#paint2_linear_306_1288)"/>
<path d="M1096 64.9173C1042.46 66.0173 988.958 68.5883 935.426 70.0503C913.669 70.6443 892.365 71.2283 870.826 74.7313C849.608 78.1813 828.636 82.9593 807.471 86.7053C789.694 89.8523 771.611 92.4513 753.514 92.2573C734.649 92.0553 715.974 87.2743 697.947 82.0993C660.917 71.4683 623.584 54.9973 584.717 52.7693C553.691 50.9903 524.976 63.1193 496.481 73.5883C467.106 84.3803 437.672 90.4113 406.485 84.3433C377.018 78.6103 349.903 64.5983 320.358 59.1603C289.471 53.4753 260.001 59.1743 230.539 68.5103C216.486 72.9633 202.389 77.2623 187.733 79.2263C168.794 81.7633 149.473 80.7043 130.639 77.8343C87.01 71.1873 44.535 55.4363 0 55.6813V53.8093C44.306 53.6143 86.397 69.7663 129.74 76.6123C148.527 79.5803 167.8 80.6523 186.702 78.0733C201.389 76.0693 215.502 71.6963 229.57 67.1723C259.052 57.6913 288.512 51.8933 319.467 57.6283C349.036 63.1063 376.149 77.1963 405.639 82.9713C436.623 89.0383 465.866 83.1453 495.032 72.3303C523.261 61.8633 551.581 49.9043 582.355 51.6493C621.479 53.8673 659.12 70.2583 696.44 80.8333C714.579 85.9733 733.362 90.7393 752.325 90.9373C770.419 91.1253 788.496 88.5163 806.267 85.3533C827.422 81.5883 848.382 76.7873 869.592 73.3193C891.15 69.7953 912.464 69.1713 934.247 68.6673C988.168 67.4193 1042.07 65.4913 1096 64.4653V64.9183L1096 64.9173Z" fill="url(#paint3_linear_306_1288)"/>
<path d="M1096 72.0799C1044.87 72.6869 994.196 80.9069 943.165 83.3329C921.451 84.3649 900.182 84.6199 878.631 87.9899C857.349 91.3189 836.292 95.9169 815.059 99.5299C797.235 102.562 779.127 105.077 761.008 104.911C742.657 104.743 724.594 99.9359 707.204 94.4519C672.115 83.3849 636.986 66.2729 599.76 64.1339C567.025 62.2529 535.789 75.3959 505.473 85.8669C490.326 91.0979 474.937 95.9639 459.049 98.3609C443.312 100.735 427.439 100.185 411.814 97.2629C382.517 91.7849 355.377 78.4039 326.009 73.2069C295.553 67.8169 266.019 73.0139 236.661 81.2739C222.704 85.2009 208.715 88.9649 194.285 90.6989C175.127 93.0009 155.723 91.9079 136.617 89.6459C91.079 84.2539 46.072 71.8469 -0.000976562 71.8099V70.3879C45.999 70.3089 90.87 82.9999 136.311 88.4449C155.41 90.7339 174.847 91.8019 193.999 89.4959C208.443 87.7569 222.438 83.9579 236.4 79.9959C265.759 71.6649 295.289 66.4649 325.765 71.8649C355.145 77.0709 382.28 90.4999 411.589 95.9889C444.016 102.061 474.451 95.2379 505.117 84.6069C535.33 74.1329 566.456 61.0239 599.098 62.9209C636.4 65.0889 671.664 82.1509 706.854 93.1859C724.257 98.6429 742.335 103.46 760.69 103.64C778.808 103.817 796.917 101.295 814.737 98.2559C835.966 94.6359 857.016 90.0239 878.295 86.6879C899.823 83.3129 921.09 83.0329 942.784 81.9949C993.931 79.5479 1044.76 71.8279 1096 71.0429V72.0839L1096 72.0799Z" fill="url(#paint4_linear_306_1288)"/>
<path d="M1096 83.6765C1043.08 84.1935 990.517 91.9305 937.682 94.2225C916.045 95.1615 894.855 95.4645 873.385 98.8125C852.368 102.09 831.574 106.624 810.606 110.181C792.85 113.193 774.809 115.677 756.761 115.534C738.368 115.388 720.251 110.6 702.817 105.118C667.692 94.0735 632.563 77.0115 595.306 74.9035C562.632 73.0555 531.537 86.1435 501.283 96.6165C486.184 101.844 470.843 106.712 455.002 109.102C439.3 111.472 423.468 110.865 407.88 107.963C378.544 102.502 351.31 89.2705 321.905 84.0855C291.084 78.6505 261.407 84.0645 231.725 92.4635C217.477 96.4955 203.193 100.399 188.461 102.208C169.4 104.549 150.077 103.396 131.069 101.106C87.305 95.8325 44.293 84.0115 -0.000976562 83.6775V82.3835C44.701 82.7205 88.166 94.5635 132.344 99.8525C151.398 102.134 170.759 103.302 189.866 100.969C204.533 99.1775 218.757 95.3095 232.944 91.3065C262.555 82.9535 292.183 77.5935 322.92 83.0195C352.314 88.2085 379.532 101.452 408.856 106.916C424.446 109.821 440.278 110.426 455.981 108.056C471.845 105.662 487.211 100.791 502.334 95.5625C532.625 85.0915 563.773 71.9845 596.482 73.8365C633.716 75.9445 668.812 93.0275 703.907 104.085C721.331 109.575 739.438 114.366 757.824 114.512C775.895 114.655 793.958 112.164 811.736 109.148C832.756 105.582 853.601 101.04 874.67 97.7535C896.145 94.4045 917.338 94.1095 938.98 93.1495C991.388 90.8245 1043.5 82.8895 1096 82.3835V83.6765Z" fill="url(#paint5_linear_306_1288)"/>
<path d="M1096 95.4112C1037.72 95.7012 979.592 101.498 921.351 103.189C899.634 103.82 878.392 104.143 856.86 107.494C836.446 110.671 816.256 115.104 795.891 118.56C778.442 121.521 760.732 123.889 742.999 123.754C724.49 123.614 706.248 118.893 688.661 113.496C653.172 102.607 617.641 85.7672 580.098 83.7032C547.851 81.9302 517.445 94.7592 487.647 105.245C472.852 110.452 457.809 115.276 442.259 117.631C426.598 120.003 410.779 119.361 395.226 116.507C365.753 111.098 338.33 97.9972 308.79 92.8612C276.919 87.3202 246.513 93.4832 215.949 102.425C200.971 106.807 185.947 111.11 170.439 113.167C152.094 115.601 133.484 114.743 115.182 112.333C76.584 107.25 39.206 95.6782 0.000976562 95.4092V94.0562C39.877 94.3352 78.003 105.939 117.283 111.047C135.685 113.44 154.399 114.344 172.845 111.921C188.252 109.897 203.179 105.646 218.062 101.309C248.51 92.4362 278.813 86.3762 310.546 91.9042C340.069 97.0472 367.468 110.164 396.922 115.581C412.481 118.442 428.301 119.079 443.969 116.707C459.557 114.347 474.639 109.517 489.475 104.308C519.333 93.8232 549.831 80.9592 582.134 82.7432C619.638 84.8152 655.118 101.682 690.559 112.591C708.125 117.998 726.35 122.729 744.843 122.871C762.62 123.007 780.376 120.623 797.867 117.655C818.31 114.186 838.578 109.74 859.07 106.55C880.587 103.2 901.818 102.874 923.519 102.203C981.041 100.422 1038.43 94.3962 1096 94.0582L1096 95.4112Z" fill="url(#paint6_linear_306_1288)"/>
<path d="M1096 107.147C1031.46 106.978 966.968 110.836 902.444 111.72C880.585 112.02 859.243 112.29 837.582 115.654C817.848 118.719 798.338 123.037 778.652 126.38C761.572 129.281 744.264 131.506 726.909 131.383C708.256 131.251 689.866 126.618 672.096 121.315C636.189 110.599 600.203 94.002 562.324 92.006C530.568 90.332 500.966 102.853 471.691 113.354C457.245 118.536 442.546 123.312 427.33 125.626C411.726 127.999 395.925 127.318 380.424 124.521C350.794 119.175 323.158 106.213 293.462 101.137C260.395 95.485 229.073 102.556 197.5 112.093C181.686 116.87 165.819 121.613 149.429 123.974C131.986 126.486 114.255 126.081 96.844 123.489C81.683 121.233 66.916 117.157 52.007 113.702C34.85 109.726 17.639 107.246 0.000976562 107.147V105.735C17.929 105.838 35.443 108.367 52.901 112.318C68.207 115.782 83.378 119.864 98.927 122.143C116.438 124.71 134.261 125.171 151.806 122.665C168.096 120.339 183.866 115.646 199.585 110.915C231.044 101.445 262.263 94.476 295.195 100.116C324.873 105.198 352.485 118.176 382.097 123.53C397.604 126.333 413.407 127.01 429.017 124.638C444.271 122.319 459.009 117.537 473.495 112.353C502.83 101.854 532.522 89.299 564.334 90.983C602.175 92.987 638.109 109.612 673.969 120.347C691.719 125.661 710.092 130.304 728.729 130.436C746.127 130.56 763.479 128.319 780.601 125.411C800.364 122.055 819.953 117.723 839.765 114.646C861.414 111.283 882.745 111.006 904.591 110.672C968.402 109.697 1032.18 105.615 1096 105.735V107.147H1096Z" fill="url(#paint7_linear_306_1288)"/>
<path d="M1096 118.883C1026.99 118.636 957.98 120.777 888.969 121.173C867.114 121.298 845.761 121.561 824.109 124.918C804.893 127.897 785.902 132.128 766.735 135.385C749.896 138.246 732.837 140.385 715.728 140.266C696.988 140.135 678.497 135.547 660.611 130.32C624.399 119.737 588.077 103.341 549.96 101.362C518.557 99.7307 489.517 112.046 460.626 122.567C446.433 127.736 431.984 132.473 417.008 134.756C401.428 137.132 385.632 136.424 370.151 133.662C340.406 128.356 312.607 115.512 282.798 110.474C248.883 104.743 216.97 112.424 184.683 122.389C151.497 132.631 118.566 140.566 83.669 134.806C71.052 132.724 58.979 128.678 46.692 125.268C31.359 121.014 15.918 118.968 0.000976562 118.882V117.412C16.043 117.498 31.61 119.597 47.08 123.81C59.607 127.221 71.929 131.269 84.776 133.37C119.656 139.076 152.515 131.252 185.696 121.032C217.924 111.105 249.799 103.468 283.643 109.192C313.443 114.232 341.226 127.089 370.961 132.397C386.442 135.161 402.237 135.867 417.816 133.491C432.812 131.205 447.282 126.464 461.497 121.294C490.422 110.776 519.506 98.4457 550.939 100.076C589.037 102.052 625.329 118.469 661.515 129.064C679.394 134.299 697.877 138.888 716.612 139.018C733.738 139.137 750.812 136.993 767.668 134.129C786.883 130.864 805.922 126.625 825.186 123.638C846.854 120.278 868.215 120.023 890.085 119.888C958.723 119.467 1027.36 117.127 1096 117.409V118.879V118.883Z" fill="url(#paint8_linear_306_1288)"/>
<path d="M1096 130.618C1027.22 131.264 958.437 131.161 889.657 131.606C867.835 131.747 846.41 132.04 824.81 135.504C805.879 138.541 787.199 142.921 768.321 146.251C751.527 149.213 734.499 151.358 717.417 151.17C698.694 150.964 680.218 146.43 662.323 141.267C626.117 130.82 589.849 114.756 551.805 112.666C519.844 110.91 489.903 123.744 460.414 134.246C445.78 139.457 430.89 144.343 415.488 146.69C400.026 149.046 384.191 148.382 368.833 145.578C339.573 140.235 312.507 126.809 283.176 121.751C249.417 115.929 217.446 123.65 185.363 133.732C169.113 138.838 152.802 143.938 135.916 146.488C118.991 149.044 101.674 148.842 84.776 146.141C71.94 144.089 59.582 140.196 47.038 136.905C31.566 132.846 16.002 130.776 0 130.617V129.087C15.876 129.237 31.304 131.265 46.623 135.416C58.898 138.742 70.97 142.681 83.555 144.731C100.416 147.478 117.735 147.635 134.626 145.085C151.611 142.52 168.025 137.4 184.377 132.283C216.592 122.202 248.607 114.473 282.495 120.253C311.997 125.285 339.31 138.541 368.742 143.854C384.121 146.63 399.952 147.313 415.432 144.956C430.665 142.636 445.382 137.799 459.842 132.609C489.073 122.117 518.652 109.453 550.367 111.188C588.45 113.271 624.756 129.41 660.988 139.893C678.887 145.072 697.374 149.626 716.108 149.822C733.205 150.001 750.25 147.865 767.064 144.936C785.996 141.638 804.736 137.306 823.72 134.297C845.331 130.871 866.757 130.581 888.585 130.426C957.722 129.936 1026.86 129.654 1096 129.087V130.617L1096 130.618Z" fill="url(#paint9_linear_306_1288)"/>
<path d="M1096 142.354C1031.88 142.731 967.78 139.356 903.665 138.753C882.239 138.552 861.315 139.007 840.186 142.897C821.857 146.272 803.853 151.158 785.593 154.863C769.148 158.199 752.431 160.541 735.617 160.38C717.072 160.201 698.758 155.9 680.984 150.938C645.148 140.934 609.311 125.59 571.763 123.634C536.388 121.791 501.83 136.503 468.874 147.374C436.949 157.905 404.374 167.041 370.696 159.77C343.49 153.896 319.327 138.827 292.024 133.272C260.156 126.789 229.292 134.366 199.088 144.339C184.064 149.3 168.984 154.173 153.293 156.542C135.795 159.184 117.97 158.498 100.457 156.333C66.719 152.161 34.241 142.642 0.00195312 142.355V140.767C33.448 141.07 64.942 150.756 97.847 155.003C115.254 157.249 132.966 157.864 150.364 155.238C166.25 152.84 181.531 147.93 196.756 142.945C227.282 132.949 258.352 125.345 290.548 131.713C318.179 137.177 342.818 151.997 370.356 157.775C403.766 164.785 435.772 156.109 467.417 145.555C499.788 134.759 533.583 120.34 568.375 122.18C606.005 124.169 641.912 139.622 677.81 149.699C695.607 154.695 713.949 159.034 732.525 159.224C749.387 159.396 766.16 157.09 782.667 153.815C801.026 150.171 819.138 145.364 837.564 142.044C858.786 138.221 879.817 137.801 901.323 137.936C966.217 138.344 1031.1 141.247 1096 140.769V142.357L1096 142.354Z" fill="url(#paint10_linear_306_1288)"/>
<path d="M1096 154.087C1038.01 153.58 980.267 146.536 922.344 144.368C901.594 143.591 881.569 144.367 861.221 148.786C843.646 152.603 826.5 158.104 809.016 162.287C793.086 166.098 776.814 168.741 760.395 168.675C742.108 168.601 724.018 164.594 706.431 159.901C671.103 150.475 635.809 135.974 598.91 134.297C580.107 133.443 561.394 137.498 543.303 142.212C522.194 147.712 501.466 154.564 480.619 160.956C446.78 171.332 408.999 184.302 373.505 174.74C348.852 168.099 328.591 151.102 303.797 144.815C274.61 137.413 245.369 144.736 217.774 154.534C204.335 159.306 190.847 163.886 176.694 166.022C158.402 168.783 139.57 167.64 121.221 166.018C80.735 162.44 40.773 154.192 0.000976562 154.087V152.44C39.844 152.573 78.786 160.994 118.321 164.657C136.557 166.346 155.244 167.434 173.427 164.69C187.794 162.522 201.505 157.899 215.166 153.102C243.129 143.282 272.585 135.919 302.153 143.195C327.287 149.38 348.113 166.107 373.114 172.641C408.392 181.86 445.374 169.449 478.98 159.051C499.36 152.745 519.621 145.979 540.266 140.568C558.117 135.889 576.564 131.94 595.121 132.8C632.11 134.515 667.48 149.134 702.879 158.641C720.49 163.371 738.615 167.425 756.937 167.508C773.412 167.582 789.743 164.986 805.747 161.241C823.339 157.125 840.606 151.71 858.286 147.955C878.744 143.61 898.892 142.882 919.737 143.575C978.523 145.53 1037.16 152.049 1096 152.44V154.087H1096Z" fill="url(#paint11_linear_306_1288)"/>
<path d="M1096 165.822C1042.99 164.954 990.665 154.307 937.817 151.033C917.568 149.779 898.117 150.827 878.372 155.705C861.435 159.89 845.04 165.935 828.218 170.524C812.703 174.757 796.785 177.613 780.659 177.596C762.576 177.577 744.664 173.813 727.22 169.348C692.309 160.411 657.477 146.67 621.123 145.168C600.966 144.335 580.796 148.974 561.379 153.877C537.421 159.927 513.821 167.302 490.107 174.224C467.984 180.682 445.659 187.168 422.869 190.832C407.046 193.376 391.103 194.116 375.662 189.174C353.016 181.926 336.397 163.2 313.56 156.341C286.648 148.258 258.446 155.286 233.053 165.01C220.955 169.642 208.823 173.951 195.958 175.894C177.072 178.747 157.46 177.316 138.493 176.049C92.318 172.964 46.35 165.819 -0.00195312 165.821V164.115C45.712 164.111 91.002 171.397 136.528 174.536C155.435 175.84 174.976 177.242 193.804 174.397C206.818 172.431 219.11 168.088 231.364 163.442C257.006 153.72 285.286 146.651 312.454 154.667C335.506 161.469 352.581 179.974 375.449 187.159C390.915 192.019 406.828 191.342 422.663 188.799C445.18 185.182 467.232 178.755 489.079 172.344C512.45 165.485 535.707 158.172 559.324 152.189C578.61 147.303 598.64 142.724 618.664 143.555C655.081 145.066 689.967 158.905 724.924 167.899C742.381 172.39 760.313 176.183 778.417 176.201C794.571 176.217 810.526 173.38 826.085 169.199C842.986 164.657 859.472 158.68 876.484 154.537C896.286 149.715 915.772 148.692 936.066 149.899C989.482 153.076 1042.44 163.23 1096 164.115V165.821L1096 165.822Z" fill="url(#paint12_linear_306_1288)"/>
<path d="M1096 177.559C1044.12 177.469 993.294 164.276 941.646 161.017C921.487 159.745 901.919 160.864 882.309 165.891C865.521 170.194 849.327 176.455 832.665 181.184C817.249 185.559 801.366 188.495 785.292 188.369C767.242 188.227 749.35 184.577 731.909 180.2C697.299 171.515 662.926 158.435 626.968 156.734C606.571 155.769 586.181 160.535 566.532 165.479C541.702 171.728 517.228 179.308 492.642 186.432C469.883 193.026 446.916 199.703 423.482 203.464C407.822 205.978 391.773 206.836 376.517 201.768C354.213 194.359 338.6 174.914 316.084 167.913C289.748 159.723 261.533 166.769 236.691 176.438C224.902 181.027 213.083 185.248 200.518 187.147C181.561 190.013 161.887 188.51 142.846 187.324C95.237 184.358 47.76 177.66 0 177.56V175.795C48.012 175.933 95.765 182.549 143.632 185.506C162.672 186.682 182.332 188.197 201.288 185.33C213.754 183.444 225.459 179.245 237.137 174.647C261.884 164.903 290.143 157.948 316.401 166.136C338.741 173.102 353.995 192.641 376.119 200.017C391.353 205.096 407.426 204.225 423.064 201.713C446.588 197.934 469.651 191.255 492.51 184.672C517.254 177.546 541.888 169.967 566.871 163.705C586.499 158.785 606.853 154.018 627.224 154.947C663.33 156.593 697.889 169.839 732.629 178.577C750.079 182.966 767.973 186.637 786.036 186.754C802.116 186.858 817.977 183.963 833.395 179.566C849.997 174.831 866.124 168.551 882.854 164.245C902.505 159.188 922.101 158.116 942.303 159.395C993.735 162.651 1044.34 175.602 1096 175.794V177.559Z" fill="url(#paint13_linear_306_1288)"/>
<path d="M1096 189.293C1040.17 189.291 985.427 174.041 929.871 170.2C909.385 168.784 889.475 170.073 869.492 174.897C851.961 179.129 834.954 185.208 817.534 189.843C801.768 194.038 785.539 197.024 769.17 196.878C751.934 196.723 734.845 193.581 718.14 189.542C685.823 181.73 654.032 170.207 620.533 168.674C600.789 167.77 581.224 172.268 562.272 177.348C539.37 183.486 516.877 191.046 494.255 198.12C473.083 204.74 451.674 211.373 429.747 215.009C413.81 217.652 397.874 218.028 382.285 213.332C357.175 205.769 337.287 186.992 312.008 179.822C283.492 171.734 254.033 179.434 226.889 188.771C213.526 193.368 200.117 197.789 186.088 199.851C167.433 202.592 148.208 201.351 129.484 199.961C86.283 196.754 43.41 189.358 0 189.294V187.471C44.325 187.523 88.166 194.794 132.294 197.948C151.097 199.292 170.439 200.592 189.169 197.822C202.897 195.791 215.985 191.406 229.028 186.818C255.668 177.448 284.788 169.849 312.818 177.964C337.517 185.115 356.584 203.998 381.107 211.544C396.632 216.321 412.573 215.837 428.459 213.226C450.701 209.57 472.435 202.927 493.938 196.307C516.947 189.223 539.832 181.657 563.115 175.5C582.251 170.439 602.04 165.877 621.96 166.817C655.971 168.421 688.29 180.225 721.09 188.224C737.969 192.34 755.256 195.593 772.683 195.759C788.977 195.914 805.133 192.915 820.812 188.689C838.082 184.035 854.93 177.923 872.313 173.675C892.179 168.82 911.989 167.544 932.369 168.921C987.094 172.618 1041.01 187.515 1096 187.473V189.296L1096 189.293Z" fill="url(#paint14_linear_306_1288)"/>
<path d="M1096 201.029C1065.23 200.746 1034.54 195.423 1004.22 190.685C973.276 185.85 942.296 180.382 911.054 177.859C889.653 176.131 868.905 177.434 847.935 182.061C829.322 186.168 811.157 192.018 792.639 196.506C776.176 200.496 759.41 203.308 742.428 203.267C726.706 203.229 711.147 200.952 695.834 197.503C667.163 191.045 639.239 181.587 609.599 180.662C570.615 179.446 532.593 197.051 496.575 209.788C462.609 221.799 427.155 234.145 391.026 224.812C361.442 217.17 335.782 199.081 306.067 191.817C273.861 183.944 241.53 192.263 210.595 201.501C194.876 206.195 179.104 210.852 162.819 213.138C144.791 215.669 126.462 214.918 108.398 213.119C72.121 209.506 36.619 201.217 0.00195312 201.027V199.145C37.746 199.314 74.501 207.452 111.932 210.998C130.112 212.72 148.588 213.56 166.725 210.995C182.632 208.746 198.01 204.126 213.337 199.451C243.641 190.206 275.468 181.982 307.058 189.891C336.019 197.142 360.742 215.34 389.567 222.972C425.794 232.564 462.06 219.726 496.19 207.916C516.446 200.907 536.556 193.392 557.135 187.362C574.84 182.174 592.893 178.109 611.442 178.738C641.729 179.764 670.297 189.567 699.58 196.252C715.129 199.802 730.948 202.227 746.926 202.283C763.804 202.343 780.479 199.498 796.824 195.475C815.158 190.962 833.132 185.075 851.564 180.946C872.364 176.287 892.968 174.982 914.21 176.658C944.887 179.078 975.308 184.409 1005.69 189.12C1035.53 193.746 1065.73 198.915 1096 199.144V201.026L1096 201.029Z" fill="url(#paint15_linear_306_1288)"/>
<path d="M1096 212.766C1062.49 212.226 1029.03 206.006 996.038 200.65C961.93 195.113 927.784 188.855 893.342 185.758C871.117 183.76 849.608 185.079 827.749 189.515C808.102 193.503 788.839 199.131 769.276 203.483C737.899 210.463 706.472 212.139 674.867 205.682C649.643 200.528 625.348 193.098 599.371 192.645C563.776 192.025 531.037 208.385 498.784 221.462C482.446 228.086 465.772 234.58 448.398 237.917C431.978 241.07 415.545 239.998 399.301 236.309C365.351 228.599 334.472 211.161 300.419 203.803C264.867 196.12 229.674 204.962 195.319 214.172C177.376 218.983 159.377 223.842 140.936 226.338C123.536 228.693 105.918 228.518 88.522 226.2C74.989 224.397 61.777 221.043 48.443 218.205C32.435 214.798 16.379 212.905 0.00195312 212.765V210.824C16.753 210.962 33.203 212.886 49.612 216.185C63.5 218.976 77.28 222.271 91.349 224.068C108.841 226.302 126.539 226.569 144.029 224.19C162.159 221.724 179.838 216.895 197.46 212.1C231.347 202.88 266.148 194.116 301.243 201.825C334.664 209.167 364.796 226.706 398.11 234.402C414.321 238.147 430.701 239.13 447.097 236.014C464.782 232.653 481.785 226.147 498.461 219.529C531.244 206.519 564.737 189.983 600.794 190.665C627.297 191.166 652.109 198.903 677.825 204.246C709.566 210.841 741.03 209.311 772.557 202.21C791.968 197.837 811.07 192.176 830.566 188.172C852.315 183.704 873.728 182.396 895.851 184.36C929.832 187.377 963.522 193.518 997.175 198.954C1029.8 204.224 1062.87 210.308 1096 210.824V212.766Z" fill="url(#paint16_linear_306_1288)"/>
<path d="M1096 224.5C1061.38 224.158 1026.66 217.272 992.604 211.64C956.835 205.724 921.015 198.976 884.882 195.66C862.606 193.616 840.98 195.126 819.048 199.39C798.807 203.325 778.91 208.805 758.744 213.084C727.652 219.682 696.476 221.623 665.119 215.677C641.64 211.225 619.143 205.102 595.056 204.564C560.766 203.799 530.608 219.588 500.067 233.16C484.935 239.885 469.42 246.31 453.102 249.509C436.575 252.749 420.038 251.467 403.67 247.912C367.356 240.026 333.631 223.195 297.222 215.671C260.431 208.068 224.234 217.276 188.575 226.318C152.575 235.447 116.131 244.319 78.799 238.591C67.296 236.826 56.334 233.207 45.143 230.162C30.33 226.132 15.337 224.584 0.00195312 224.499V222.499C15.334 222.602 30.312 224.223 45.141 228.162C56.517 231.184 67.683 234.772 79.353 236.553C116.598 242.236 152.889 233.456 188.798 224.304C224.461 215.214 260.694 206.055 297.501 213.66C333.731 221.145 367.217 238.072 403.351 245.922C419.704 249.474 436.266 250.765 452.775 247.518C469.152 244.298 484.739 237.861 499.95 231.162C530.558 217.682 560.856 201.871 595.15 202.538C619.365 203.009 641.972 209.27 665.562 213.775C696.876 219.754 728.097 217.775 759.145 211.161C779.257 206.877 799.095 201.379 819.283 197.442C841.292 193.15 862.968 191.693 885.319 193.753C921.327 197.072 957.024 203.767 992.674 209.654C1026.72 215.276 1061.39 222.069 1096 222.499V224.499L1096 224.5Z" fill="url(#paint17_linear_306_1288)"/>
<defs>
<linearGradient id="paint0_linear_306_1288" x1="0" y1="26.503" x2="1096" y2="26.503" gradientUnits="userSpaceOnUse">
<stop stop-color="#1D1E20"/>
<stop offset="0.184" stop-color="#2E3033"/>
<stop offset="0.296" stop-color="#2E3033"/>
<stop offset="0.404" stop-color="#0C43C4"/>
<stop offset="0.46" stop-color="#99E1D9"/>
<stop offset="0.52" stop-color="#0C43C4"/>
<stop offset="0.679" stop-color="#2E3033"/>
<stop offset="0.812" stop-color="#2E3033"/>
<stop offset="1" stop-color="#1D1E20"/>
</linearGradient>
<linearGradient id="paint1_linear_306_1288" x1="0" y1="40.2576" x2="1096" y2="40.2576" gradientUnits="userSpaceOnUse">
<stop stop-color="#1D1E20"/>
<stop offset="0.184" stop-color="#2E3033"/>
<stop offset="0.276" stop-color="#2E3033"/>
<stop offset="0.296" stop-color="#2E3033"/>
<stop offset="0.396" stop-color="#1141B1"/>
<stop offset="0.404" stop-color="#0E42BC"/>
<stop offset="0.46" stop-color="#92D7D4"/>
<stop offset="0.507" stop-color="#2761C8"/>
<stop offset="0.52" stop-color="#0D45C4"/>
<stop offset="0.576" stop-color="#204695"/>
<stop offset="0.615" stop-color="#1F3973"/>
<stop offset="0.679" stop-color="#2D3036"/>
<stop offset="0.716" stop-color="#2E3033"/>
<stop offset="0.812" stop-color="#2E3033"/>
<stop offset="1" stop-color="#1D1E20"/>
</linearGradient>
<linearGradient id="paint2_linear_306_1288" x1="0" y1="56.5069" x2="1096" y2="56.5069" gradientUnits="userSpaceOnUse">
<stop stop-color="#1D1E20"/>
<stop offset="0.184" stop-color="#2D2F32"/>
<stop offset="0.276" stop-color="#2E3033"/>
<stop offset="0.296" stop-color="#2E3033"/>
<stop offset="0.396" stop-color="#1340A9"/>
<stop offset="0.404" stop-color="#1041B4"/>
<stop offset="0.46" stop-color="#8ACDCF"/>
<stop offset="0.507" stop-color="#265FC8"/>
<stop offset="0.52" stop-color="#0F46C4"/>
<stop offset="0.576" stop-color="#274F99"/>
<stop offset="0.615" stop-color="#1E3978"/>
<stop offset="0.679" stop-color="#2D3139"/>
<stop offset="0.716" stop-color="#2E3033"/>
<stop offset="0.812" stop-color="#2E3033"/>
<stop offset="1" stop-color="#1D1E20"/>
</linearGradient>
<linearGradient id="paint3_linear_306_1288" x1="0" y1="71.8733" x2="1096" y2="71.8733" gradientUnits="userSpaceOnUse">
<stop stop-color="#1D1E20"/>
<stop offset="0.184" stop-color="#2D2F32"/>
<stop offset="0.276" stop-color="#2E3033"/>
<stop offset="0.296" stop-color="#2E3033"/>
<stop offset="0.396" stop-color="#143FA1"/>
<stop offset="0.404" stop-color="#1140AC"/>
<stop offset="0.46" stop-color="#83C4CA"/>
<stop offset="0.507" stop-color="#245DC7"/>
<stop offset="0.52" stop-color="#1048C5"/>
<stop offset="0.576" stop-color="#2F599E"/>
<stop offset="0.615" stop-color="#1C3A7D"/>
<stop offset="0.679" stop-color="#2C313C"/>
<stop offset="0.716" stop-color="#2E3033"/>
<stop offset="0.812" stop-color="#2E3033"/>
<stop offset="1" stop-color="#1D1E20"/>
</linearGradient>
<linearGradient id="paint4_linear_306_1288" x1="2.34375e-05" y1="83.8259" x2="1096" y2="83.8259" gradientUnits="userSpaceOnUse">
<stop stop-color="#1D1E20"/>
<stop offset="0.184" stop-color="#2D2F32"/>
<stop offset="0.276" stop-color="#2E3033"/>
<stop offset="0.296" stop-color="#2E3033"/>
<stop offset="0.396" stop-color="#163E99"/>
<stop offset="0.404" stop-color="#133FA4"/>
<stop offset="0.46" stop-color="#7BBAC5"/>
<stop offset="0.507" stop-color="#225BC7"/>
<stop offset="0.52" stop-color="#124AC5"/>
<stop offset="0.576" stop-color="#3663A2"/>
<stop offset="0.615" stop-color="#1B3B82"/>
<stop offset="0.679" stop-color="#2B323F"/>
<stop offset="0.716" stop-color="#2E3033"/>
<stop offset="0.812" stop-color="#2E3033"/>
<stop offset="1" stop-color="#1D1E20"/>
</linearGradient>
<linearGradient id="paint5_linear_306_1288" x1="2.34375e-05" y1="94.5985" x2="1096" y2="94.5985" gradientUnits="userSpaceOnUse">
<stop stop-color="#1D1E20"/>
<stop offset="0.184" stop-color="#2C2E31"/>
<stop offset="0.276" stop-color="#2E3033"/>
<stop offset="0.296" stop-color="#2E3033"/>
<stop offset="0.396" stop-color="#183D92"/>
<stop offset="0.404" stop-color="#153E9D"/>
<stop offset="0.46" stop-color="#74B0C1"/>
<stop offset="0.507" stop-color="#205AC7"/>
<stop offset="0.52" stop-color="#134BC5"/>
<stop offset="0.576" stop-color="#3E6DA6"/>
<stop offset="0.615" stop-color="#1A3B87"/>
<stop offset="0.679" stop-color="#2A3243"/>
<stop offset="0.716" stop-color="#2E3033"/>
<stop offset="0.812" stop-color="#2E3033"/>
<stop offset="1" stop-color="#1D1E20"/>
</linearGradient>
<linearGradient id="paint6_linear_306_1288" x1="-2.34375e-05" y1="103.168" x2="1096" y2="103.168" gradientUnits="userSpaceOnUse">
<stop stop-color="#1D1E20"/>
<stop offset="0.184" stop-color="#2C2E31"/>
<stop offset="0.276" stop-color="#2E3033"/>
<stop offset="0.296" stop-color="#2E3033"/>
<stop offset="0.396" stop-color="#1A3C8A"/>
<stop offset="0.404" stop-color="#173D95"/>
<stop offset="0.46" stop-color="#6DA6BC"/>
<stop offset="0.507" stop-color="#1F58C7"/>
<stop offset="0.52" stop-color="#154DC5"/>
<stop offset="0.576" stop-color="#4676AA"/>
<stop offset="0.615" stop-color="#193C8C"/>
<stop offset="0.679" stop-color="#2A3246"/>
<stop offset="0.716" stop-color="#2E3033"/>
<stop offset="0.812" stop-color="#2E3033"/>
<stop offset="1" stop-color="#1D1E20"/>
</linearGradient>
<linearGradient id="paint7_linear_306_1288" x1="-2.34375e-05" y1="111.109" x2="1096" y2="111.109" gradientUnits="userSpaceOnUse">
<stop stop-color="#1D1E20"/>
<stop offset="0.184" stop-color="#2C2E31"/>
<stop offset="0.276" stop-color="#2E3033"/>
<stop offset="0.296" stop-color="#2E3033"/>
<stop offset="0.396" stop-color="#1C3B82"/>
<stop offset="0.404" stop-color="#193C8D"/>
<stop offset="0.46" stop-color="#659DB7"/>
<stop offset="0.507" stop-color="#1D56C6"/>
<stop offset="0.52" stop-color="#164FC6"/>
<stop offset="0.576" stop-color="#4D80AF"/>
<stop offset="0.615" stop-color="#183D91"/>
<stop offset="0.679" stop-color="#293349"/>
<stop offset="0.716" stop-color="#2E3033"/>
<stop offset="0.812" stop-color="#2E3033"/>
<stop offset="1" stop-color="#1D1E20"/>
</linearGradient>
<linearGradient id="paint8_linear_306_1288" x1="-2.34375e-05" y1="120.101" x2="1096" y2="120.101" gradientUnits="userSpaceOnUse">
<stop stop-color="#1D1E20"/>
<stop offset="0.184" stop-color="#2B2D30"/>
<stop offset="0.276" stop-color="#2E3033"/>
<stop offset="0.296" stop-color="#2E3033"/>
<stop offset="0.396" stop-color="#1E3A7A"/>
<stop offset="0.404" stop-color="#1B3B85"/>
<stop offset="0.46" stop-color="#5E93B2"/>
<stop offset="0.507" stop-color="#1B54C6"/>
<stop offset="0.52" stop-color="#1850C6"/>
<stop offset="0.576" stop-color="#558AB3"/>
<stop offset="0.615" stop-color="#173D96"/>
<stop offset="0.679" stop-color="#28334C"/>
<stop offset="0.716" stop-color="#2E3033"/>
<stop offset="0.812" stop-color="#2E3033"/>
<stop offset="1" stop-color="#1D1E20"/>
</linearGradient>
<linearGradient id="paint9_linear_306_1288" x1="0" y1="131.105" x2="1096" y2="131.105" gradientUnits="userSpaceOnUse">
<stop stop-color="#1D1E20"/>
<stop offset="0.184" stop-color="#2B2D30"/>
<stop offset="0.276" stop-color="#2E3033"/>
<stop offset="0.296" stop-color="#2E3033"/>
<stop offset="0.396" stop-color="#1F3872"/>
<stop offset="0.404" stop-color="#1C397D"/>
<stop offset="0.46" stop-color="#5689AD"/>
<stop offset="0.507" stop-color="#1A52C6"/>
<stop offset="0.52" stop-color="#1952C6"/>
<stop offset="0.576" stop-color="#5C93B7"/>
<stop offset="0.615" stop-color="#153E9C"/>
<stop offset="0.679" stop-color="#28344F"/>
<stop offset="0.716" stop-color="#2E3033"/>
<stop offset="0.812" stop-color="#2E3033"/>
<stop offset="1" stop-color="#1D1E20"/>
</linearGradient>
<linearGradient id="paint10_linear_306_1288" x1="-4.68751e-05" y1="142.199" x2="1096" y2="142.199" gradientUnits="userSpaceOnUse">
<stop stop-color="#1D1E20"/>
<stop offset="0.184" stop-color="#2A2C2F"/>
<stop offset="0.276" stop-color="#2E3033"/>
<stop offset="0.296" stop-color="#2E3033"/>
<stop offset="0.396" stop-color="#21376A"/>
<stop offset="0.404" stop-color="#1E3875"/>
<stop offset="0.46" stop-color="#4F7FA8"/>
<stop offset="0.507" stop-color="#1850C6"/>
<stop offset="0.52" stop-color="#1B53C6"/>
<stop offset="0.576" stop-color="#649DBB"/>
<stop offset="0.615" stop-color="#143EA1"/>
<stop offset="0.679" stop-color="#273452"/>
<stop offset="0.716" stop-color="#2E3033"/>
<stop offset="0.812" stop-color="#2E3033"/>
<stop offset="1" stop-color="#1D1E20"/>
</linearGradient>
<linearGradient id="paint11_linear_306_1288" x1="-2.34375e-05" y1="155.381" x2="1096" y2="155.381" gradientUnits="userSpaceOnUse">
<stop stop-color="#1D1E20"/>
<stop offset="0.184" stop-color="#2A2C2F"/>
<stop offset="0.276" stop-color="#2E3033"/>
<stop offset="0.296" stop-color="#2E3033"/>
<stop offset="0.396" stop-color="#233662"/>
<stop offset="0.404" stop-color="#20376D"/>
<stop offset="0.46" stop-color="#4776A3"/>
<stop offset="0.507" stop-color="#164EC5"/>
<stop offset="0.52" stop-color="#1C55C7"/>
<stop offset="0.576" stop-color="#6BA7C0"/>
<stop offset="0.615" stop-color="#133FA6"/>
<stop offset="0.679" stop-color="#263555"/>
<stop offset="0.716" stop-color="#2E3033"/>
<stop offset="0.812" stop-color="#2E3033"/>
<stop offset="1" stop-color="#1D1E20"/>
</linearGradient>
<linearGradient id="paint12_linear_306_1288" x1="4.6875e-05" y1="168.141" x2="1096" y2="168.141" gradientUnits="userSpaceOnUse">
<stop stop-color="#1D1E20"/>
<stop offset="0.184" stop-color="#2A2C2F"/>
<stop offset="0.276" stop-color="#2E3033"/>
<stop offset="0.296" stop-color="#2E3033"/>
<stop offset="0.396" stop-color="#25355A"/>
<stop offset="0.404" stop-color="#223665"/>
<stop offset="0.46" stop-color="#406C9E"/>
<stop offset="0.507" stop-color="#154CC5"/>
<stop offset="0.52" stop-color="#1E57C7"/>
<stop offset="0.576" stop-color="#73B0C4"/>
<stop offset="0.615" stop-color="#1240AB"/>
<stop offset="0.679" stop-color="#263558"/>
<stop offset="0.716" stop-color="#2E3033"/>
<stop offset="0.812" stop-color="#2E3033"/>
<stop offset="1" stop-color="#1D1E20"/>
</linearGradient>
<linearGradient id="paint13_linear_306_1288" x1="0" y1="180.148" x2="1096" y2="180.148" gradientUnits="userSpaceOnUse">
<stop stop-color="#1D1E20"/>
<stop offset="0.184" stop-color="#292B2E"/>
<stop offset="0.276" stop-color="#2E3033"/>
<stop offset="0.296" stop-color="#2E3033"/>
<stop offset="0.396" stop-color="#273453"/>
<stop offset="0.404" stop-color="#24355E"/>
<stop offset="0.46" stop-color="#39629A"/>
<stop offset="0.507" stop-color="#134BC5"/>
<stop offset="0.52" stop-color="#1F58C7"/>
<stop offset="0.576" stop-color="#7BBAC8"/>
<stop offset="0.615" stop-color="#1140B0"/>
<stop offset="0.679" stop-color="#25355C"/>
<stop offset="0.716" stop-color="#2E3033"/>
<stop offset="0.812" stop-color="#2E3033"/>
<stop offset="1" stop-color="#1D1E20"/>
</linearGradient>
<linearGradient id="paint14_linear_306_1288" x1="0" y1="191.817" x2="1096" y2="191.817" gradientUnits="userSpaceOnUse">
<stop stop-color="#1D1E20"/>
<stop offset="0.184" stop-color="#292B2E"/>
<stop offset="0.276" stop-color="#2E3033"/>
<stop offset="0.296" stop-color="#2E3033"/>
<stop offset="0.396" stop-color="#29334B"/>
<stop offset="0.404" stop-color="#263456"/>
<stop offset="0.46" stop-color="#315895"/>
<stop offset="0.507" stop-color="#1149C5"/>
<stop offset="0.52" stop-color="#215AC7"/>
<stop offset="0.576" stop-color="#82C4CC"/>
<stop offset="0.615" stop-color="#1041B5"/>
<stop offset="0.679" stop-color="#24365F"/>
<stop offset="0.716" stop-color="#2E3033"/>
<stop offset="0.812" stop-color="#2E3033"/>
<stop offset="1" stop-color="#1D1E20"/>
</linearGradient>
<linearGradient id="paint15_linear_306_1288" x1="-4.68751e-05" y1="202.028" x2="1096" y2="202.028" gradientUnits="userSpaceOnUse">
<stop stop-color="#1D1E20"/>
<stop offset="0.184" stop-color="#292B2E"/>
<stop offset="0.276" stop-color="#2E3033"/>
<stop offset="0.296" stop-color="#2E3033"/>
<stop offset="0.396" stop-color="#2A3243"/>
<stop offset="0.404" stop-color="#27334E"/>
<stop offset="0.46" stop-color="#2A4F90"/>
<stop offset="0.507" stop-color="#0F47C4"/>
<stop offset="0.52" stop-color="#225CC8"/>
<stop offset="0.576" stop-color="#8ACED1"/>
<stop offset="0.615" stop-color="#0E42BA"/>
<stop offset="0.679" stop-color="#233662"/>
<stop offset="0.716" stop-color="#2E3033"/>
<stop offset="0.812" stop-color="#2E3033"/>
<stop offset="1" stop-color="#1D1E20"/>
</linearGradient>
<linearGradient id="paint16_linear_306_1288" x1="-4.68752e-05" y1="211.624" x2="1096" y2="211.624" gradientUnits="userSpaceOnUse">
<stop stop-color="#1D1E20"/>
<stop offset="0.184" stop-color="#282A2D"/>
<stop offset="0.276" stop-color="#2E3033"/>
<stop offset="0.296" stop-color="#2E3033"/>
<stop offset="0.396" stop-color="#2C313B"/>
<stop offset="0.404" stop-color="#293246"/>
<stop offset="0.46" stop-color="#22458B"/>
<stop offset="0.507" stop-color="#0E45C4"/>
<stop offset="0.52" stop-color="#245DC8"/>
<stop offset="0.576" stop-color="#91D7D5"/>
<stop offset="0.615" stop-color="#0D42BF"/>
<stop offset="0.679" stop-color="#233765"/>
<stop offset="0.716" stop-color="#2E3033"/>
<stop offset="0.812" stop-color="#2E3033"/>
<stop offset="1" stop-color="#1D1E20"/>
</linearGradient>
<linearGradient id="paint17_linear_306_1288" x1="-4.68751e-05" y1="222.101" x2="1096" y2="222.101" gradientUnits="userSpaceOnUse">
<stop stop-color="#1D1E20"/>
<stop offset="0.276" stop-color="#2E3033"/>
<stop offset="0.396" stop-color="#2E3033"/>
<stop offset="0.507" stop-color="#0C43C4"/>
<stop offset="0.576" stop-color="#99E1D9"/>
<stop offset="0.615" stop-color="#0C43C4"/>
<stop offset="0.716" stop-color="#2E3033"/>
<stop offset="0.812" stop-color="#2E3033"/>
<stop offset="1" stop-color="#1D1E20"/>
</linearGradient>
</defs>
</svg>
