<svg width="1097" height="231" viewBox="0 0 1097 231" fill="none" xmlns="http://www.w3.org/2000/svg">
<path d="M1096 36.9102C1037.31 37.1502 979.059 46.9292 920.473 49.4722C909.059 49.9682 897.577 50.4132 886.224 48.8582C874.967 47.3162 863.939 44.3762 853.116 40.9732C829.944 33.6872 807.579 24.1082 784.569 16.3522C766.497 10.2602 747.502 4.75821 728.262 4.94321C711.34 5.10621 694.834 9.55221 679.013 15.2562C648.305 26.3272 618.455 42.9742 585.222 44.7732C554.235 46.4502 527.831 31.3432 501.041 18.0122C488.024 11.5352 474.583 5.60621 460.245 2.77821C444.439 -0.339792 428.34 0.925209 412.721 4.49221C357.69 17.0582 300.47 58.7412 244.184 27.5642C235.557 22.7852 226.957 19.0022 217.147 17.3712C198.048 14.1962 177.922 16.3552 158.782 18.0172C105.93 22.6082 53.141 32.4742 0 32.9152V31.9392C53.187 31.6382 106.037 21.5752 158.928 16.9732C178.085 15.3062 198.243 13.1892 217.359 16.3542C227.125 17.9712 235.64 21.7382 244.185 26.5652C300.016 58.1012 358.177 15.9702 412.871 3.48021C428.477 -0.0837915 444.561 -1.33979 460.356 1.76321C474.681 4.57821 488.099 10.5082 501.086 17.0092C527.884 30.4222 554.16 45.4472 585.193 43.7872C618.431 42.0102 648.277 25.3312 678.981 14.2502C694.804 8.53921 711.304 4.10221 728.231 3.94421C747.482 3.76421 766.463 9.24121 784.546 15.3442C807.548 23.1082 829.901 32.7032 853.067 39.9952C863.889 43.4012 874.918 46.3422 886.176 47.8782C897.518 49.4262 908.984 48.9612 920.385 48.4592C978.998 45.8772 1037.29 36.2822 1096 35.9392C1096 36.3392 1096 36.5332 1096 36.9102H1096Z" fill="url(#paint0_linear_1_2698)"/>
<path d="M1096.02 44.7792C1039.02 44.6782 982.769 57.0422 925.936 59.8982C914.527 60.4712 903.045 60.8072 891.695 59.2812C880.394 57.7622 869.304 54.9072 858.403 51.6142C835.026 44.5532 812.387 35.3042 789.159 27.7912C770.992 21.9142 751.865 16.4662 732.605 16.6532C715.715 16.8182 699.171 21.1772 683.318 26.7042C652.521 37.4412 622.554 53.5062 589.403 55.3482C557.537 57.1182 528.307 41.7772 499.895 29.5172C485.727 23.4042 471.218 17.6562 455.991 14.8042C440.33 11.8712 424.44 12.7852 408.981 16.4652C379.492 23.4852 353.44 40.3532 323.819 46.9642C296.291 53.1082 269.717 48.8152 243.656 39.2692C232.436 35.1592 221.193 31.4112 209.321 29.6952C190.175 26.9282 170.476 28.7302 151.281 30.0742C100.877 33.6022 50.5938 40.5492 0.0297852 41.4262V40.8352C50.9498 39.9282 101.573 32.6742 152.322 28.9922C171.499 27.6012 191.231 25.7222 210.361 28.5542C221.943 30.2692 232.851 34.0362 243.738 38.2102C269.448 48.0652 295.679 52.0362 322.959 45.9852C353 39.3222 379.534 22.4452 409.445 15.3722C424.941 11.7082 440.868 10.7362 456.561 13.7072C471.66 16.5662 486.025 22.3402 500.04 28.4922C528.2 40.8542 557.1 56.2212 588.794 54.4502C621.953 52.5982 651.906 36.4662 682.692 25.6872C698.538 20.1392 715.08 15.7582 731.972 15.5932C751.222 15.4042 770.337 20.8782 788.484 26.7792C811.683 34.3242 834.29 43.6112 857.64 50.7022C868.53 54.0092 879.609 56.8752 890.903 58.4022C902.262 59.9372 913.755 59.5982 925.175 59.0422C982.253 56.2602 1038.78 44.1582 1096.02 44.2812C1096.02 44.4872 1096.02 44.5872 1096.02 44.7792Z" fill="url(#paint1_linear_1_2698)"/>
<path d="M1096.06 48.7743C1042.22 49.2332 989.795 64.7513 936.259 68.7293C912.997 70.4583 891.299 67.6302 868.866 61.3293C845.143 54.6663 822.078 45.9022 798.49 38.8012C780.009 33.2382 760.753 28.1972 741.313 28.3542C724.429 28.4912 707.894 32.5293 691.936 37.7753C661.006 47.9433 630.852 63.1903 597.794 64.8302C563.252 66.5443 529.97 51.8742 498.031 40.7242C467.728 30.1452 435.094 20.0892 403 28.5782C379.006 34.9242 359.43 51.6332 335.278 57.5832C304.993 65.0442 272.309 57.5772 242.553 50.9672C227.001 47.5122 211.421 44.1163 195.553 42.4683C176.235 40.4622 156.682 41.3272 137.308 41.9412C91.5581 43.3913 45.8451 46.5782 0.059082 46.7032C0.059082 46.5242 0.059082 46.4342 0.059082 46.2542C46.3361 46.0413 92.5231 42.4753 138.756 40.8102C158.115 40.1122 177.667 39.1682 196.971 41.2402C212.419 42.8983 227.559 46.3362 242.67 49.8492C272.094 56.6902 304.076 63.8892 334.101 56.5752C358.806 50.5572 379.061 33.8322 403.611 27.4172C471.104 9.78325 530.209 67.3013 596.923 63.9432C629.989 62.2782 660.124 46.9492 691.041 36.7232C706.988 31.4482 723.524 27.3773 740.408 27.2373C759.827 27.0763 779.072 32.1632 797.519 37.7582C821.071 44.9012 844.092 53.7142 867.78 60.4182C890.223 66.7692 911.907 69.5812 935.192 67.9132C989.067 64.0542 1041.9 48.8502 1096.06 48.4592C1096.06 48.5862 1096.06 48.6493 1096.06 48.7743Z" fill="url(#paint2_linear_1_2698)"/>
<path d="M1096.1 52.5832C1045.38 53.6022 997.042 72.3762 946.812 77.4832C898.647 82.3802 853.544 62.4762 808.048 49.7912C789.246 44.5492 769.861 39.9392 750.23 40.0562C733.352 40.1572 716.819 43.8752 700.761 48.8302C669.699 58.4152 639.356 72.8332 606.387 74.2612C568.833 75.8882 531.723 62.0782 496.141 51.9162C477.927 46.7142 459.515 41.6882 440.709 39.1482C426.343 37.2082 410.952 36.4182 396.904 40.6982C378.265 46.3772 365.821 62.9012 346.967 68.1782C331.669 72.4602 314.918 70.9962 299.286 69.8022C279.905 68.3222 260.659 65.4862 241.438 62.6612C221.525 59.7352 201.591 56.7622 181.51 55.2602C162.073 53.8072 142.499 54.1102 123.018 53.8002C82.0409 53.1492 41.0649 52.4062 0.0869141 51.8252V51.2292C41.4889 51.7702 82.8929 52.1372 124.295 52.6032C143.77 52.8222 163.346 52.4912 182.774 53.9852C202.473 55.5002 222.017 58.5122 241.537 61.4852C260.38 64.3542 279.249 67.2272 298.261 68.7212C313.91 69.9512 330.597 71.3352 345.919 67.0992C365.23 61.7602 378.359 45.2222 397.463 39.4812C411.586 35.2362 426.969 35.9492 441.405 37.9272C460.047 40.4812 478.283 45.5402 496.316 50.7832C531.578 61.0352 568.347 74.9172 605.632 73.2842C638.609 71.8402 668.934 57.3452 699.985 47.7072C716.035 42.7252 732.568 38.9812 749.446 38.8782C769.062 38.7592 788.434 43.4032 807.209 48.6752C852.716 61.4532 897.669 81.3482 945.876 76.5612C996.396 71.5452 1045.11 53.0872 1096.09 52.1012C1096.09 52.2862 1096.09 52.3822 1096.09 52.5812L1096.1 52.5832Z" fill="url(#paint3_linear_1_2698)"/>
<path d="M1096.12 59.8962C1047.04 60.6872 1001.38 82.1982 952.967 87.6772C905.045 93.1002 858.799 73.2162 813.321 61.1642C794.4 56.1502 774.882 51.6412 755.199 51.7632C738.343 51.8682 721.784 55.4642 705.685 60.2252C674.537 69.4362 644.07 83.2432 611.172 84.6782C592.736 85.4822 574.292 82.2452 556.33 78.4232C535.709 74.0362 515.352 68.5102 494.911 63.3742C475.48 58.4922 455.893 53.7042 435.988 51.1932C422.014 49.4302 406.451 48.1512 392.827 52.6922C377.186 57.9062 370.073 74.3742 354.15 79.2082C339.063 83.7882 321.973 81.8452 306.504 80.8372C284.561 79.4082 262.703 76.8542 240.861 74.3622C218.23 71.7802 195.585 69.1032 172.847 67.6472C153.447 66.4052 133.993 66.7542 114.575 65.8362C76.4012 64.0312 38.3582 60.1842 0.117188 59.8732C0.117188 59.4282 0.117188 59.2132 0.117188 58.7942C38.4912 59.2002 76.6962 62.7962 115.01 64.5522C134.448 65.4432 153.925 65.1252 173.343 66.3722C195.926 67.8222 218.413 70.5202 240.885 73.1272C262.574 75.6432 284.279 78.2172 306.073 79.6412C321.553 80.6522 338.649 82.5802 353.748 78.0092C369.819 73.1442 377.304 56.6822 393.1 51.4352C406.729 46.9082 422.277 48.1692 436.255 49.9322C456.103 52.4342 475.629 57.2382 494.994 62.1452C515.337 67.2992 535.595 72.8502 556.122 77.2442C574.09 81.0902 592.525 84.2972 610.969 83.5022C643.874 82.0842 674.332 68.2302 705.474 58.9962C721.574 54.2222 738.128 50.6302 754.987 50.5292C774.676 50.4112 794.18 54.9062 813.104 59.9362C858.573 72.0232 904.739 91.9222 952.666 86.4892C1001.16 80.9912 1046.97 59.7222 1096.12 58.8502C1096.12 59.2532 1096.12 59.4622 1096.12 59.8972L1096.12 59.8962Z" fill="url(#paint4_linear_1_2698)"/>
<path d="M1096.16 71.4683C1045.76 72.0723 998.557 93.9413 948.819 99.4793C901.263 104.774 855.868 84.9683 810.852 72.7523C792.104 67.6643 772.644 63.0553 753.097 63.2873C736.248 63.4873 719.615 67.0133 703.44 71.5013C672.028 80.2173 641.198 93.1213 608.275 94.7753C571.657 96.6143 534.749 84.0073 499.736 74.9883C481.839 70.3783 463.795 66.0093 445.434 63.6933C430.936 61.8653 415.955 61.0223 401.743 65.0923C383.222 70.3973 369.618 85.3123 350.937 90.2813C335.553 94.3733 319.031 93.0383 303.338 91.9483C282.56 90.5043 261.891 87.7963 241.243 85.1273C219.849 82.3623 198.436 79.5213 176.905 78.0493C157.456 76.7193 137.924 77.0733 118.445 76.3353C79.0021 74.8413 39.6231 71.8823 0.14209 71.4693C0.14209 70.9513 0.14209 70.6933 0.14209 70.1753C39.3201 70.5783 78.3781 73.7483 117.512 75.3253C136.986 76.1103 156.508 75.7593 175.955 77.0633C197.769 78.5263 219.47 81.3323 241.154 84.0583C262.082 86.6883 283.028 89.3633 304.079 90.7993C319.697 91.8643 336.279 93.3173 351.569 89.1033C369.568 84.1423 381.962 68.9653 399.783 63.6633C413.885 59.4683 428.92 60.4333 443.324 62.2563C462.029 64.6253 480.418 69.0713 498.66 73.7353C517.391 78.5253 536.038 83.6953 554.952 87.7363C572.576 91.5023 590.909 94.7563 609.001 93.8443C641.908 92.1843 672.67 79.1383 704.029 70.3303C720.181 65.7943 736.8 62.2363 753.641 62.0383C773.223 61.8083 792.722 66.4153 811.512 71.4863C856.612 83.6583 902.194 103.48 949.812 98.1633C999.234 92.6443 1046.07 70.7743 1096.16 70.1743C1096.16 70.6923 1096.16 70.9503 1096.16 71.4683Z" fill="url(#paint5_linear_1_2698)"/>
<path d="M1096.18 83.1743C1041.82 83.8263 990.141 105.724 936.379 111.459C889.475 116.462 846.299 96.9003 802.2 84.1193C784.007 78.8463 765.157 74.2663 746.098 74.4033C729.11 74.5253 712.286 77.5763 695.807 81.5023C663.767 89.1343 632.155 100.499 598.961 101.839C569.263 103.038 541.336 94.2183 513.183 86.0803C484.54 77.8013 455.479 73.0263 425.8 78.4193C397.932 83.4833 371.988 95.7983 344.057 100.607C310.292 106.42 275.712 99.9073 242.435 93.9253C224.527 90.7063 206.593 87.4703 188.455 85.8463C169.078 84.1113 149.524 84.6943 130.088 84.5073C86.7838 84.0913 43.4818 83.3353 0.174805 83.1743C0.174805 82.6333 0.174805 82.3623 0.174805 81.8213C42.9708 82.0343 85.7568 83.0613 128.549 83.6233C147.996 83.8783 167.55 83.3413 186.942 85.0153C205.523 86.6193 223.914 89.8043 242.279 92.9633C275.75 98.7203 311.037 105.601 344.929 99.4333C371.588 94.5813 396.04 81.9673 422.63 76.8533C452.655 71.0793 482.405 76.5883 511.404 84.8143C540.475 93.0603 569.596 102.394 600.215 101.107C633.369 99.7143 664.881 88.1553 696.839 80.3813C713.275 76.3833 730.076 73.2613 747.042 73.1293C766.169 72.9803 785.102 77.5623 803.374 82.8123C847.588 95.5173 891.054 115.112 938.038 110.07C991.261 104.358 1042.35 82.4653 1096.18 81.8223C1096.18 82.3633 1096.18 82.6343 1096.18 83.1753L1096.18 83.1743Z" fill="url(#paint6_linear_1_2698)"/>
<path d="M1096.2 94.8802C1066.8 95.2372 1037.65 101.711 1008.99 107.699C980.179 113.719 951.303 120.506 921.972 123.482C899.304 125.782 878.051 123.187 856.209 116.864C834.527 110.588 813.545 102.172 792.011 95.4362C774.476 89.9502 756.385 85.4382 737.906 85.4162C720.73 85.3952 703.676 87.8872 686.853 91.1762C654.107 97.5782 621.644 107.261 588.075 108.137C575.762 108.458 563.328 108.063 551.333 105.029C543.534 103.056 536.194 99.8612 528.69 97.0302C504.629 87.9532 478.604 89.0862 453.429 91.9742C414.188 96.4742 375.791 106.463 336.519 110.75C319.249 112.635 301.822 113.271 284.548 111.106C270.715 109.373 257.24 105.883 243.813 102.231C229.909 98.4492 215.975 94.7822 201.646 93.0112C182.427 90.6362 162.832 91.7872 143.522 92.1342C95.751 92.9932 47.989 94.5422 0.209961 94.8782C0.209961 94.3132 0.209961 94.0312 0.209961 93.4672C47.478 93.1842 94.734 91.9012 141.996 91.1872C161.323 90.8952 180.902 89.8232 200.142 92.1162C214.901 93.8752 229.296 97.4952 243.661 101.206C257.533 104.789 271.45 108.234 285.698 109.955C302.899 112.033 320.214 111.49 337.399 109.517C375.355 105.16 412.356 94.9252 450.28 90.3502C476.136 87.2312 502.18 86.7832 526.929 95.7042C535.09 98.6462 543.102 101.959 551.542 104.054C563.893 107.12 576.638 107.689 589.314 107.34C622.838 106.415 655.206 96.5372 687.872 89.9932C704.656 86.6312 721.685 84.0772 738.839 84.0842C757.383 84.0912 775.558 88.6112 793.168 94.0712C814.837 100.79 835.961 109.18 857.776 115.441C879.638 121.716 900.937 124.349 923.615 122.035C952.657 119.072 981.238 112.29 1009.75 106.272C1038.16 100.277 1067.05 93.8222 1096.2 93.4702C1096.2 94.0352 1096.2 94.3172 1096.2 94.8822L1096.2 94.8802Z" fill="url(#paint7_linear_1_2698)"/>
<path d="M1096.23 106.586C1065.35 106.956 1034.61 113.584 1004.42 119.5C973.697 125.519 942.915 132.333 911.722 135.414C889.166 137.642 868.189 135.302 846.529 128.676C825.723 122.311 805.695 113.708 785.054 106.859C767.964 101.188 750.338 96.7052 732.229 96.6452C714.939 96.5892 697.72 98.7372 680.687 101.544C647.43 107.025 614.357 115.328 580.504 116.051C570.4 116.267 559.17 116.991 549.366 113.935C545.562 112.749 542.99 110.451 539.789 108.267C535.049 105.032 529.236 104.225 523.634 103.76C507.053 102.382 490.089 103.647 473.562 105.05C425.698 109.114 378.287 117.383 330.406 121.28C312.763 122.716 294.653 123.99 277.069 121.261C265.837 119.518 255.264 115.786 244.755 111.577C233.878 107.221 222.984 103.293 211.348 101.51C192.255 98.5852 172.4 100.243 153.19 100.906C102.211 102.665 51.2602 106.144 0.242188 106.582C0.242188 105.994 0.242188 105.7 0.242188 105.111C50.9862 104.638 101.668 101.368 152.377 99.6822C171.589 99.0432 191.402 97.4182 210.499 100.302C222.363 102.093 233.533 106.005 244.683 110.294C255.456 114.438 266.292 118.155 277.745 119.906C295.325 122.594 313.395 121.382 331.03 119.916C378.136 115.998 424.741 107.546 471.83 103.457C488.314 102.026 505.257 100.764 521.797 102.156C527.746 102.657 533.715 103.639 538.86 106.825C542.451 109.049 545.523 111.459 549.65 112.709C559.623 115.73 570.841 115.101 581.11 114.886C614.94 114.177 647.96 105.732 681.172 100.168C698.19 97.3172 715.398 95.1452 732.681 95.2122C750.816 95.2822 768.467 99.7632 785.591 105.414C806.314 112.253 826.432 120.837 847.319 127.195C869.003 133.796 890.002 136.157 912.577 133.924C943.606 130.855 974.221 124.042 1004.77 118.021C1034.85 112.094 1065.46 105.485 1096.23 105.115C1096.23 105.703 1096.23 105.997 1096.23 106.586Z" fill="url(#paint8_linear_1_2698)"/>
<path d="M1096.26 118.292C1065.43 118.714 1034.76 125.263 1004.6 131.123C973.934 137.084 943.206 143.822 912.074 146.906C889.51 149.141 868.536 146.935 846.887 140.194C826.269 133.774 806.477 125.027 786.036 118.1C768.97 112.317 751.387 107.867 733.267 107.843C715.955 107.82 698.737 109.954 681.681 112.768C648.291 118.276 615.065 126.643 581.076 127.377C570.894 127.597 559.633 128.293 549.753 125.229C545.836 124.015 543.101 121.667 539.775 119.447C534.907 116.198 529.024 115.331 523.3 114.85C506.768 113.462 489.84 114.643 473.362 116.089C425.474 120.292 378.109 129.125 330.204 133.151C312.658 134.625 294.482 135.919 276.992 133.182C265.572 131.395 254.877 127.447 244.254 123.025C233.262 118.448 222.248 114.288 210.419 112.457C191.381 109.511 171.418 111.146 152.262 111.88C101.607 113.819 50.985 118.27 0.27102 118.29C0.27102 117.678 0.27102 117.372 0.27002 116.76C51.299 116.723 102.24 112.352 153.211 110.436C172.382 109.715 192.366 108.068 211.418 111.018C223.015 112.814 233.772 116.91 244.513 121.475C254.894 125.886 265.345 129.773 276.54 131.526C294.042 134.266 312.224 132.937 329.783 131.503C378.275 127.544 426.274 119.021 474.75 114.893C491.262 113.487 508.201 112.297 524.766 113.672C530.169 114.121 535.955 114.823 540.447 118.117C543.427 120.303 545.706 122.535 549.349 123.693C559.087 126.788 570.379 126.01 580.421 125.788C614.378 125.038 647.59 116.804 680.966 111.371C698.019 108.595 715.235 106.48 732.537 106.495C750.65 106.511 768.243 110.966 785.306 116.732C805.747 123.64 825.541 132.362 846.157 138.766C867.802 145.489 888.777 147.702 911.332 145.467C942.609 142.368 973.484 135.606 1004.3 129.629C1034.55 123.762 1065.33 117.174 1096.26 116.76C1096.26 117.372 1096.26 117.678 1096.26 118.29L1096.26 118.292Z" fill="url(#paint9_linear_1_2698)"/>
<path d="M1096.29 129.998C1066.9 130.368 1037.73 136.556 1009.02 142.275C980.111 148.031 951.151 154.514 921.778 157.401C899.332 159.607 878.504 157.281 857.03 150.39C836.393 143.768 816.628 134.765 796.179 127.62C779.161 121.674 761.55 117.024 743.41 117.024C725.975 117.024 708.655 119.549 691.561 122.8C657.978 129.186 624.586 138.877 590.215 139.821C577.886 140.16 565.391 139.767 553.396 136.652C545.743 134.665 538.584 131.422 531.248 128.544C507.344 119.165 481.072 120.326 456.024 123.638C415.064 129.054 375.222 140.852 334.226 146.04C316.904 148.232 299.23 149.136 281.91 146.449C267.736 144.249 254.149 139.718 240.646 135.017C226.666 130.15 212.631 125.377 197.95 123.116C178.935 120.188 159.264 121.553 140.135 122.481C93.5232 124.742 47.0062 129.928 0.303223 129.999C0.303223 129.364 0.303223 129.046 0.304223 128.411C47.6762 128.359 94.8782 123.284 142.165 121.078C161.291 120.186 181.011 118.769 200.021 121.699C214.23 123.889 227.775 128.571 241.267 133.382C254.301 138.029 267.417 142.474 281.136 144.605C298.486 147.3 316.264 146.326 333.628 144.271C375.744 139.286 416.823 127.943 458.906 122.739C483.16 119.739 509.569 117.85 532.67 127.396C539.354 130.158 545.842 133.272 552.863 135.13C564.5 138.21 576.702 138.422 588.664 138.112C622.972 137.221 656.336 127.733 689.887 121.49C706.975 118.31 724.274 115.857 741.689 115.867C759.829 115.878 777.428 120.483 794.458 126.404C814.906 133.513 834.675 142.476 855.309 149.065C876.824 155.935 897.682 158.229 920.159 156.016C949.821 153.096 979.072 146.572 1008.27 140.782C1037.23 135.037 1066.66 128.795 1096.29 128.411C1096.29 129.046 1096.29 129.364 1096.29 129.999L1096.29 129.998Z" fill="url(#paint10_linear_1_2698)"/>
<path d="M1096.32 141.703C1041.56 142.186 988.965 162.239 934.7 167.492C912.525 169.639 891.945 167.039 870.822 159.999C850.164 153.114 830.429 143.8 809.971 136.377C793.06 130.242 775.332 125.203 757.2 125.295C739.598 125.384 722.104 128.508 704.97 132.307C671.132 139.811 637.529 151.069 602.652 152.49C573.818 153.665 547.169 145.119 520.001 136.763C491.527 128.005 462.723 123.48 433.229 129.89C400.95 136.906 371.195 152.394 338.843 159.145C303.524 166.516 269.478 157.249 235.715 147.105C217.895 141.751 200.008 136.315 181.576 133.483C162.516 130.555 143.216 131.465 124.047 132.718C82.7769 135.415 41.7339 141.466 0.317871 141.702C0.317871 141.043 0.317871 140.714 0.319871 140.055C42.4729 139.84 84.2879 133.913 126.304 131.277C145.469 130.075 164.818 129.096 183.873 132.025C201.777 134.777 219.126 140.122 236.408 145.406C269.913 155.65 303.095 164.15 338.199 157.302C371.736 150.76 402.953 135.805 436.425 129.007C465.452 123.112 493.597 126.794 521.577 135.606C547.738 143.845 573.088 151.793 600.914 150.709C635.719 149.354 669.293 138.315 703.096 130.968C720.225 127.245 737.694 124.206 755.273 124.13C773.407 124.051 791.118 129.036 808.044 135.146C828.501 142.529 848.24 151.8 868.895 158.648C890.068 165.667 910.682 168.228 932.895 166.072C987.754 160.749 1040.96 140.574 1096.32 140.057C1096.32 140.716 1096.32 141.045 1096.32 141.704L1096.32 141.703Z" fill="url(#paint11_linear_1_2698)"/>
<path d="M1096.36 153.409C1045.09 153.757 996.169 173.007 945.408 177.861C923.402 179.965 902.996 177.19 882.109 170.011C861.431 162.904 841.724 153.318 821.258 145.658C804.417 139.356 786.63 134.056 768.486 134.189C750.741 134.319 733.113 137.913 715.957 142.17C681.924 150.614 648.145 163.275 612.825 165.003C578.053 166.704 543.704 154.728 510.649 145.589C480.177 137.164 445.403 127.016 414.16 137.027C388.75 145.169 368.582 164.269 343.032 172.097C326.706 177.099 309.969 176.164 293.28 173.599C272.424 170.394 252.029 164.705 231.711 159.129C210.646 153.348 189.519 147.367 167.893 144.051C148.851 141.131 129.807 141.624 110.666 143.203C73.8118 146.242 37.4158 153.111 0.341797 153.407C0.341797 152.725 0.341797 152.383 0.341797 151.701C37.9048 151.4 74.8418 144.638 112.196 141.636C131.35 140.097 150.419 139.559 169.472 142.481C190.723 145.74 211.471 151.657 232.156 157.389C252.11 162.918 272.141 168.545 292.638 171.696C309.388 174.271 326.077 175.059 342.491 170.233C368.788 162.5 390.187 143.885 416.357 135.847C447.494 126.284 481.391 135.737 511.721 144.209C544.111 153.256 577.601 164.859 611.701 163.204C646.968 161.492 680.726 149.009 714.74 140.676C731.894 136.473 749.511 132.926 767.238 132.796C785.377 132.662 803.166 137.945 820.01 144.226C840.475 151.857 860.186 161.41 880.861 168.491C901.764 175.649 922.185 178.414 944.199 176.307C995.354 171.409 1044.7 152.053 1096.36 151.704C1096.36 152.386 1096.36 152.727 1096.36 153.409Z" fill="url(#paint12_linear_1_2698)"/>
<path d="M1096.38 164.871C1045.91 165.102 997.895 184.399 947.932 189.14C925.912 191.23 905.441 188.525 884.569 181.238C864.027 174.066 844.508 164.331 824.191 156.584C807.305 150.145 789.613 144.982 771.395 145.035C753.602 145.087 735.988 148.75 718.829 153.174C684.689 161.975 650.734 175.413 615.168 176.962C578.631 178.553 542.809 165.9 508.086 156.243C490.44 151.336 472.612 146.636 454.416 144.278C439.197 142.306 423.537 141.819 408.867 146.96C385.132 155.278 368.565 176.252 344.652 184.229C328.601 189.584 311.456 188.193 294.998 185.668C273.262 182.333 251.974 176.486 230.761 170.803C208.759 164.909 186.696 158.761 164.149 155.303C145.204 152.397 126.145 152.672 107.097 154.374C71.381 157.566 36.387 165.336 0.375977 165.29C0.375977 164.508 0.377977 164.127 0.378977 163.385C36.214 163.315 71.081 155.83 106.638 152.694C125.673 151.016 144.702 150.672 163.636 153.575C186.325 157.055 208.534 163.231 230.68 169.14C252.03 174.837 273.455 180.711 295.327 184.067C311.776 186.591 328.96 187.971 345.001 182.604C368.649 174.691 384.733 153.639 408.198 145.385C422.86 140.228 438.505 140.749 453.714 142.728C472.035 145.112 490.006 149.773 507.805 154.613C542.682 164.096 578.894 176.823 615.524 175.209C651.036 173.645 684.92 160.257 719.01 151.469C736.166 147.047 753.778 143.391 771.567 143.332C789.781 143.272 807.489 148.47 824.379 154.881C844.793 162.629 864.419 172.348 885.054 179.526C905.977 186.803 926.427 189.502 948.489 187.403C998.271 182.666 1046.09 163.643 1096.38 163.299C1096.38 163.956 1096.38 164.269 1096.38 164.869L1096.38 164.871Z" fill="url(#paint13_linear_1_2698)"/>
<path d="M1096.41 172.346C1042.56 172.482 991.219 194.131 937.952 199.556C916.236 201.768 895.979 199.28 875.493 191.708C856.132 184.552 837.922 174.702 818.814 166.939C802.489 160.307 785.355 155.286 767.598 155.328C749.508 155.371 731.593 159.199 714.154 163.704C679.149 172.746 644.205 186.651 607.739 188.264C574.076 189.752 543.361 176.737 512.416 165.329C482.954 154.467 450.442 144.847 419.343 154.69C391.484 163.508 369.137 184.152 341.142 192.65C324.733 197.631 307.823 196.828 291.047 194.254C271.251 191.216 251.926 185.71 232.682 180.283C212.732 174.657 192.719 168.861 172.195 165.707C153.166 162.783 133.998 163.141 114.908 165.298C76.5888 169.628 39.1978 180.154 0.402832 180.02C0.402832 179.016 0.402832 178.519 0.402832 177.536C38.6168 177.722 75.4938 167.697 113.268 163.615C132.356 161.552 151.517 161.261 170.532 164.182C191.468 167.398 211.9 173.265 232.268 178.947C251.914 184.428 271.639 190.002 291.831 193.099C308.539 195.662 325.47 196.609 341.803 191.547C368.943 183.136 390.175 162.458 417.172 153.726C448.351 143.642 481.795 153.715 511.528 164.069C543.308 175.135 575.071 188.032 609.361 186.529C645.637 184.94 680.381 171.12 715.203 162.128C732.575 157.642 750.416 153.851 768.436 153.811C786.309 153.771 803.571 158.809 820.032 165.41C839.379 173.168 857.847 183 877.443 190.156C897.995 197.661 918.317 200.207 940.081 198.029C992.643 192.769 1043.28 171.529 1096.41 171.445C1096.41 171.82 1096.41 171.999 1096.41 172.344L1096.41 172.346Z" fill="url(#paint14_linear_1_2698)"/>
<path d="M1096.44 177.028C1067.02 177.407 1037.85 184.675 1009.34 191.28C980.453 197.969 951.498 205.535 921.99 208.939C900.594 211.407 880.861 209.468 860.834 201.344C843.177 194.181 826.86 184.2 809.494 176.409C794.248 169.57 778.112 164.631 761.265 164.695C742.623 164.766 724.125 168.871 706.164 173.524C669.782 182.949 633.364 197.444 595.48 199.276C580.678 199.992 566.376 197.428 552.792 191.496C540.973 186.334 530.166 179.251 519.051 172.781C507.669 166.156 495.796 160.276 482.836 157.498C467.064 154.116 450.999 155.64 435.544 159.858C401.165 169.241 370.963 189.75 336.485 198.849C302.328 207.863 268.62 198.415 235.868 188.291C219.011 183.081 202.088 177.803 184.609 175.109C165.498 172.163 146.291 173.226 127.226 176.019C84.8549 182.227 43.5619 196.209 0.444871 196.74C0.444871 195.65 0.443871 195.104 0.442871 194.013C42.8359 193.609 83.4689 180.19 125.162 174.299C144.235 171.604 163.433 170.675 182.533 173.618C200.521 176.39 217.962 181.755 235.337 187.034C268.34 197.062 302.881 207.155 337.262 197.895C370.643 188.904 399.558 168.368 432.832 159.077C448.242 154.774 464.19 153.485 479.944 156.673C493.412 159.398 505.902 165.164 517.945 171.618C529.762 177.951 541.304 184.88 553.753 189.942C567.774 195.642 582.424 198.234 597.553 197.513C635.199 195.718 671.37 181.321 707.521 171.96C725.393 167.332 743.792 163.275 762.34 163.21C779.341 163.15 795.645 168.104 811.076 174.908C828.732 182.693 845.365 192.654 863.306 199.815C883.411 207.84 903.232 209.88 924.68 207.452C953.704 204.167 982.186 196.761 1010.59 190.214C1038.71 183.735 1067.44 176.651 1096.44 176.332C1096.44 176.611 1096.44 176.749 1096.44 177.03L1096.44 177.028Z" fill="url(#paint15_linear_1_2698)"/>
<path d="M1096.47 182.147C1064.71 182.805 1033.16 191.137 1002.42 198.434C970.858 205.928 939.217 214.412 906.972 218.481C885.918 221.137 866.574 219.824 847.045 211.11C830.991 203.946 816.5 193.84 800.786 186.017C786.563 178.937 771.345 174.134 755.33 174.206C736.181 174.293 717.138 178.663 698.697 183.453C661.014 193.239 623.204 208.297 583.979 210.331C570.921 211.008 558.21 208.93 547.26 201.436C538.842 195.675 532.377 187.722 525.304 180.49C517.845 172.864 509.517 166.359 499.136 163.297C483.504 158.686 466.33 161.644 450.853 165.425C410.155 175.366 372.799 195.747 332.015 205.393C314.826 209.458 297.454 210.561 279.965 207.875C265.84 205.706 252.297 201.202 238.841 196.525C224.919 191.686 210.944 186.923 196.327 184.664C177.158 181.701 157.848 183.479 138.839 186.766C92.6929 194.745 47.6509 211.982 0.48291 213.144C0.48291 212.117 0.48291 211.596 0.48291 210.542C47.0759 209.44 91.5759 192.698 137.188 184.97C156.203 181.748 175.491 180.059 194.65 183.019C209.679 185.341 224.081 190.183 238.429 195.072C252.293 199.796 266.244 204.377 280.765 206.606C298.22 209.285 315.541 208.287 332.693 204.173C372.558 194.61 408.886 174.207 448.662 164.347C464.158 160.506 481.13 157.766 496.804 162.195C507.514 165.221 516.356 171.639 524.409 179.115C532.081 186.237 539.201 194.069 548.092 199.734C559.445 206.967 572.306 209.164 585.603 208.479C624.636 206.468 662.245 191.496 699.743 181.761C718.118 176.991 737.088 172.657 756.168 172.572C772.293 172.5 787.635 177.332 801.999 184.371C817.954 192.19 832.715 202.276 849.003 209.44C868.615 218.067 887.998 219.47 909.11 216.834C940.96 212.857 972.214 204.508 1003.39 197.131C1033.83 189.931 1065.04 181.761 1096.47 181.129V182.145L1096.47 182.147Z" fill="url(#paint16_linear_1_2698)"/>
<path d="M1096.5 190.938C1063.89 191.369 1031.29 200.447 999.783 208.017C966.845 215.931 933.816 224.967 900.164 229.337C879.091 232.074 859.358 230.93 839.973 221.688C825.187 214.639 812.05 204.694 797.628 196.99C783.862 189.637 769.039 184.982 753.331 184.938C734.102 184.884 714.938 189.316 696.425 194.102C658.082 204.014 619.604 219.421 579.737 221.721C567.291 222.439 553.926 221.553 544.119 212.961C537.104 206.815 533.286 198.176 528.518 190.365C523.305 181.824 516.529 174.972 506.738 172.002C491.042 167.242 473.165 170.896 457.647 174.599C413.64 185.1 372.454 205.129 328.286 215.036C311.096 218.892 293.808 220.041 276.36 217.296C263.726 215.308 251.751 211.123 239.846 206.584C227.5 201.876 215.128 197.498 202.011 195.493C182.724 192.545 163.336 194.318 144.251 197.832C119.814 202.332 95.868 209.154 71.776 215.154C48.441 220.965 24.66 226.576 0.5 226.936C0.502 226.135 0.503 225.72 0.505 224.863C49.413 223.932 96.222 204.687 143.928 195.919C162.98 192.418 182.362 190.548 201.62 193.491C214.846 195.512 227.341 199.928 239.806 204.635C251.826 209.174 263.919 213.394 276.659 215.399C294.106 218.144 311.445 216.952 328.631 213.098C372.535 203.253 413.397 183.147 457.138 172.704C472.648 169.001 490.538 165.323 506.215 170.143C516.004 173.153 522.883 180.019 528.303 188.447C533.3 196.218 537.396 204.799 544.523 210.926C554.369 219.391 567.487 220.449 579.934 219.723C619.761 217.4 658.178 202.043 696.486 192.142C715.006 187.355 734.183 182.923 753.419 182.97C769.105 183.009 783.918 187.715 797.673 195.023C812.177 202.729 825.417 212.655 840.28 219.712C859.732 228.949 879.405 230.077 900.538 227.324C934.082 222.953 967.004 213.978 999.842 206.097C1031.36 198.533 1063.9 189.562 1096.5 189.035V190.938Z" fill="url(#paint17_linear_1_2698)"/>
<defs>
<linearGradient id="paint0_linear_1_2698" x1="0" y1="24.9672" x2="1096" y2="24.9672" gradientUnits="userSpaceOnUse">
<stop stop-color="#1D1E20"/>
<stop offset="0.276" stop-color="#2E3033"/>
<stop offset="0.396" stop-color="#2E3033"/>
<stop offset="0.441" stop-color="#2D3036"/>
<stop offset="0.473" stop-color="#0C43C2"/>
<stop offset="0.494" stop-color="#85CAD6"/>
<stop offset="0.515" stop-color="#174BB9"/>
<stop offset="0.589" stop-color="#2C313C"/>
<stop offset="0.59" stop-color="#2C313C"/>
<stop offset="0.679" stop-color="#2E3033"/>
<stop offset="0.812" stop-color="#2E3033"/>
<stop offset="1" stop-color="#1D1E20"/>
</linearGradient>
<linearGradient id="paint1_linear_1_2698" x1="0.0297852" y1="36.1671" x2="1096.02" y2="36.1671" gradientUnits="userSpaceOnUse">
<stop stop-color="#1D1E20"/>
<stop offset="0.276" stop-color="#2E3033"/>
<stop offset="0.396" stop-color="#2E3033"/>
<stop offset="0.422" stop-color="#2D3035"/>
<stop offset="0.441" stop-color="#2B313D"/>
<stop offset="0.444" stop-color="#28334C"/>
<stop offset="0.461" stop-color="#1E4492"/>
<stop offset="0.473" stop-color="#0F46C2"/>
<stop offset="0.478" stop-color="#2B64C6"/>
<stop offset="0.494" stop-color="#7FC2D1"/>
<stop offset="0.514" stop-color="#1F51B4"/>
<stop offset="0.515" stop-color="#1849B2"/>
<stop offset="0.589" stop-color="#2C313C"/>
<stop offset="0.59" stop-color="#2C313C"/>
<stop offset="0.679" stop-color="#2E3033"/>
<stop offset="0.812" stop-color="#2E3033"/>
<stop offset="1" stop-color="#1D1E20"/>
</linearGradient>
<linearGradient id="paint2_linear_1_2698" x1="0.059082" y1="46.6392" x2="1096.06" y2="46.6392" gradientUnits="userSpaceOnUse">
<stop stop-color="#1D1E20"/>
<stop offset="0.276" stop-color="#2E3033"/>
<stop offset="0.396" stop-color="#2E3033"/>
<stop offset="0.422" stop-color="#2D3035"/>
<stop offset="0.441" stop-color="#2A3244"/>
<stop offset="0.444" stop-color="#263454"/>
<stop offset="0.461" stop-color="#254D96"/>
<stop offset="0.473" stop-color="#1149C2"/>
<stop offset="0.478" stop-color="#2A63C5"/>
<stop offset="0.494" stop-color="#79BACC"/>
<stop offset="0.514" stop-color="#204FAC"/>
<stop offset="0.515" stop-color="#1948AA"/>
<stop offset="0.589" stop-color="#2C313C"/>
<stop offset="0.59" stop-color="#2C313C"/>
<stop offset="0.679" stop-color="#2E3033"/>
<stop offset="0.812" stop-color="#2E3033"/>
<stop offset="1" stop-color="#1D1E20"/>
</linearGradient>
<linearGradient id="paint3_linear_1_2698" x1="0.0859141" y1="57.3022" x2="1096.1" y2="57.3022" gradientUnits="userSpaceOnUse">
<stop stop-color="#1D1E20"/>
<stop offset="0.276" stop-color="#2E3033"/>
<stop offset="0.396" stop-color="#2E3033"/>
<stop offset="0.422" stop-color="#2D3035"/>
<stop offset="0.441" stop-color="#28334B"/>
<stop offset="0.444" stop-color="#25355B"/>
<stop offset="0.461" stop-color="#2B559B"/>
<stop offset="0.473" stop-color="#144BC2"/>
<stop offset="0.478" stop-color="#2861C5"/>
<stop offset="0.494" stop-color="#73B1C7"/>
<stop offset="0.514" stop-color="#204DA5"/>
<stop offset="0.515" stop-color="#1B46A3"/>
<stop offset="0.589" stop-color="#2C313C"/>
<stop offset="0.59" stop-color="#2C313C"/>
<stop offset="0.679" stop-color="#2E3033"/>
<stop offset="0.812" stop-color="#2E3033"/>
<stop offset="1" stop-color="#1D1E20"/>
</linearGradient>
<linearGradient id="paint4_linear_1_2698" x1="0.115187" y1="68.4602" x2="1096.12" y2="68.4602" gradientUnits="userSpaceOnUse">
<stop stop-color="#1D1E20"/>
<stop offset="0.276" stop-color="#2E3033"/>
<stop offset="0.396" stop-color="#2E3033"/>
<stop offset="0.422" stop-color="#2D3035"/>
<stop offset="0.441" stop-color="#263452"/>
<stop offset="0.444" stop-color="#233662"/>
<stop offset="0.461" stop-color="#325D9F"/>
<stop offset="0.473" stop-color="#174EC2"/>
<stop offset="0.478" stop-color="#2760C4"/>
<stop offset="0.494" stop-color="#6DA9C2"/>
<stop offset="0.514" stop-color="#214B9D"/>
<stop offset="0.515" stop-color="#1C459C"/>
<stop offset="0.589" stop-color="#2C313C"/>
<stop offset="0.59" stop-color="#2C313C"/>
<stop offset="0.679" stop-color="#2E3033"/>
<stop offset="0.812" stop-color="#2E3033"/>
<stop offset="1" stop-color="#1D1E20"/>
</linearGradient>
<linearGradient id="paint5_linear_1_2698" x1="0.14309" y1="80.5303" x2="1096.16" y2="80.5303" gradientUnits="userSpaceOnUse">
<stop stop-color="#1D1E20"/>
<stop offset="0.276" stop-color="#2E3033"/>
<stop offset="0.396" stop-color="#2E3033"/>
<stop offset="0.422" stop-color="#2D3035"/>
<stop offset="0.441" stop-color="#253559"/>
<stop offset="0.444" stop-color="#21376A"/>
<stop offset="0.461" stop-color="#3866A3"/>
<stop offset="0.473" stop-color="#1A51C2"/>
<stop offset="0.478" stop-color="#265EC3"/>
<stop offset="0.494" stop-color="#67A1BD"/>
<stop offset="0.514" stop-color="#224996"/>
<stop offset="0.515" stop-color="#1D4394"/>
<stop offset="0.589" stop-color="#2C313C"/>
<stop offset="0.59" stop-color="#2C313C"/>
<stop offset="0.679" stop-color="#2E3033"/>
<stop offset="0.812" stop-color="#2E3033"/>
<stop offset="1" stop-color="#1D1E20"/>
</linearGradient>
<linearGradient id="paint6_linear_1_2698" x1="0.173805" y1="92.6933" x2="1096.18" y2="92.6933" gradientUnits="userSpaceOnUse">
<stop stop-color="#1D1E20"/>
<stop offset="0.276" stop-color="#2E3033"/>
<stop offset="0.396" stop-color="#2E3033"/>
<stop offset="0.422" stop-color="#2D3035"/>
<stop offset="0.441" stop-color="#233660"/>
<stop offset="0.444" stop-color="#1F3871"/>
<stop offset="0.461" stop-color="#3E6EA7"/>
<stop offset="0.473" stop-color="#1C54C2"/>
<stop offset="0.478" stop-color="#255CC2"/>
<stop offset="0.494" stop-color="#6199B8"/>
<stop offset="0.514" stop-color="#23478E"/>
<stop offset="0.515" stop-color="#1E428D"/>
<stop offset="0.589" stop-color="#2C313C"/>
<stop offset="0.59" stop-color="#2C313C"/>
<stop offset="0.679" stop-color="#2E3033"/>
<stop offset="0.812" stop-color="#2E3033"/>
<stop offset="1" stop-color="#1D1E20"/>
</linearGradient>
<linearGradient id="paint7_linear_1_2698" x1="0.208961" y1="104.196" x2="1096.2" y2="104.196" gradientUnits="userSpaceOnUse">
<stop stop-color="#1D1E20"/>
<stop offset="0.276" stop-color="#2E3033"/>
<stop offset="0.396" stop-color="#2E3033"/>
<stop offset="0.422" stop-color="#2D3035"/>
<stop offset="0.441" stop-color="#213767"/>
<stop offset="0.444" stop-color="#1E3978"/>
<stop offset="0.461" stop-color="#4576AC"/>
<stop offset="0.473" stop-color="#1F57C2"/>
<stop offset="0.478" stop-color="#235BC1"/>
<stop offset="0.494" stop-color="#5B91B3"/>
<stop offset="0.514" stop-color="#244587"/>
<stop offset="0.515" stop-color="#204086"/>
<stop offset="0.589" stop-color="#2C313C"/>
<stop offset="0.59" stop-color="#2C313C"/>
<stop offset="0.679" stop-color="#2E3033"/>
<stop offset="0.812" stop-color="#2E3033"/>
<stop offset="1" stop-color="#1D1E20"/>
</linearGradient>
<linearGradient id="paint8_linear_1_2698" x1="0.241187" y1="115.722" x2="1096.23" y2="115.722" gradientUnits="userSpaceOnUse">
<stop stop-color="#1D1E20"/>
<stop offset="0.276" stop-color="#2E3033"/>
<stop offset="0.396" stop-color="#2E3033"/>
<stop offset="0.422" stop-color="#2D3035"/>
<stop offset="0.441" stop-color="#20386E"/>
<stop offset="0.444" stop-color="#1C3A80"/>
<stop offset="0.461" stop-color="#4B7FB0"/>
<stop offset="0.473" stop-color="#225AC2"/>
<stop offset="0.478" stop-color="#2259C0"/>
<stop offset="0.494" stop-color="#5589AE"/>
<stop offset="0.514" stop-color="#25437F"/>
<stop offset="0.515" stop-color="#213F7E"/>
<stop offset="0.589" stop-color="#2C313C"/>
<stop offset="0.59" stop-color="#2C313C"/>
<stop offset="0.679" stop-color="#2E3033"/>
<stop offset="0.812" stop-color="#2E3033"/>
<stop offset="1" stop-color="#1D1E20"/>
</linearGradient>
<linearGradient id="paint9_linear_1_2698" x1="0.27102" y1="127.123" x2="1096.26" y2="127.123" gradientUnits="userSpaceOnUse">
<stop stop-color="#1D1E20"/>
<stop offset="0.276" stop-color="#2E3033"/>
<stop offset="0.396" stop-color="#2E3033"/>
<stop offset="0.422" stop-color="#2D3036"/>
<stop offset="0.441" stop-color="#1E3875"/>
<stop offset="0.444" stop-color="#1A3B87"/>
<stop offset="0.461" stop-color="#5287B4"/>
<stop offset="0.473" stop-color="#245CC2"/>
<stop offset="0.478" stop-color="#2158C0"/>
<stop offset="0.494" stop-color="#5080AA"/>
<stop offset="0.514" stop-color="#254178"/>
<stop offset="0.515" stop-color="#223D77"/>
<stop offset="0.589" stop-color="#2C313C"/>
<stop offset="0.59" stop-color="#2C313C"/>
<stop offset="0.679" stop-color="#2E3033"/>
<stop offset="0.812" stop-color="#2E3033"/>
<stop offset="1" stop-color="#1D1E20"/>
</linearGradient>
<linearGradient id="paint10_linear_1_2698" x1="0.301223" y1="137.035" x2="1096.29" y2="137.035" gradientUnits="userSpaceOnUse">
<stop stop-color="#1D1E20"/>
<stop offset="0.276" stop-color="#2E3033"/>
<stop offset="0.396" stop-color="#2E3033"/>
<stop offset="0.422" stop-color="#2D3036"/>
<stop offset="0.441" stop-color="#1D397C"/>
<stop offset="0.444" stop-color="#183C8F"/>
<stop offset="0.461" stop-color="#5890B8"/>
<stop offset="0.473" stop-color="#275FC2"/>
<stop offset="0.478" stop-color="#2056BF"/>
<stop offset="0.494" stop-color="#4A78A5"/>
<stop offset="0.514" stop-color="#263F70"/>
<stop offset="0.515" stop-color="#233C6F"/>
<stop offset="0.589" stop-color="#2C313C"/>
<stop offset="0.59" stop-color="#2C313C"/>
<stop offset="0.679" stop-color="#2E3033"/>
<stop offset="0.812" stop-color="#2E3033"/>
<stop offset="1" stop-color="#1D1E20"/>
</linearGradient>
<linearGradient id="paint11_linear_1_2698" x1="0.317871" y1="146.176" x2="1096.32" y2="146.176" gradientUnits="userSpaceOnUse">
<stop stop-color="#1D1E20"/>
<stop offset="0.276" stop-color="#2E3033"/>
<stop offset="0.396" stop-color="#2E3033"/>
<stop offset="0.422" stop-color="#2D3036"/>
<stop offset="0.441" stop-color="#1B3A83"/>
<stop offset="0.444" stop-color="#173D96"/>
<stop offset="0.461" stop-color="#5F98BD"/>
<stop offset="0.473" stop-color="#2A62C2"/>
<stop offset="0.478" stop-color="#1E55BE"/>
<stop offset="0.494" stop-color="#4470A0"/>
<stop offset="0.514" stop-color="#273D69"/>
<stop offset="0.515" stop-color="#253A68"/>
<stop offset="0.589" stop-color="#2C313C"/>
<stop offset="0.59" stop-color="#2C313C"/>
<stop offset="0.679" stop-color="#2E3033"/>
<stop offset="0.812" stop-color="#2E3033"/>
<stop offset="1" stop-color="#1D1E20"/>
</linearGradient>
<linearGradient id="paint12_linear_1_2698" x1="0.340797" y1="155.19" x2="1096.36" y2="155.19" gradientUnits="userSpaceOnUse">
<stop stop-color="#1D1E20"/>
<stop offset="0.276" stop-color="#2E3033"/>
<stop offset="0.396" stop-color="#2E3033"/>
<stop offset="0.422" stop-color="#2D3036"/>
<stop offset="0.441" stop-color="#193B8A"/>
<stop offset="0.444" stop-color="#153E9D"/>
<stop offset="0.461" stop-color="#65A0C1"/>
<stop offset="0.473" stop-color="#2C65C2"/>
<stop offset="0.478" stop-color="#1D53BD"/>
<stop offset="0.494" stop-color="#3E689B"/>
<stop offset="0.514" stop-color="#283B61"/>
<stop offset="0.515" stop-color="#263961"/>
<stop offset="0.589" stop-color="#2C313C"/>
<stop offset="0.59" stop-color="#2C313C"/>
<stop offset="0.679" stop-color="#2E3033"/>
<stop offset="0.812" stop-color="#2E3033"/>
<stop offset="1" stop-color="#1D1E20"/>
</linearGradient>
<linearGradient id="paint13_linear_1_2698" x1="0.375977" y1="165.573" x2="1096.38" y2="165.573" gradientUnits="userSpaceOnUse">
<stop stop-color="#1D1E20"/>
<stop offset="0.276" stop-color="#2E3033"/>
<stop offset="0.396" stop-color="#2E3033"/>
<stop offset="0.422" stop-color="#2D3036"/>
<stop offset="0.441" stop-color="#183C91"/>
<stop offset="0.444" stop-color="#133FA5"/>
<stop offset="0.461" stop-color="#6BA9C5"/>
<stop offset="0.473" stop-color="#2F68C2"/>
<stop offset="0.478" stop-color="#1C51BC"/>
<stop offset="0.494" stop-color="#386096"/>
<stop offset="0.514" stop-color="#29395A"/>
<stop offset="0.515" stop-color="#273759"/>
<stop offset="0.589" stop-color="#2C313C"/>
<stop offset="0.59" stop-color="#2C313C"/>
<stop offset="0.679" stop-color="#2E3033"/>
<stop offset="0.812" stop-color="#2E3033"/>
<stop offset="1" stop-color="#1D1E20"/>
</linearGradient>
<linearGradient id="paint14_linear_1_2698" x1="0.400832" y1="174.944" x2="1096.41" y2="174.944" gradientUnits="userSpaceOnUse">
<stop stop-color="#1D1E20"/>
<stop offset="0.276" stop-color="#2E3033"/>
<stop offset="0.396" stop-color="#2E3033"/>
<stop offset="0.422" stop-color="#2D3036"/>
<stop offset="0.441" stop-color="#163D98"/>
<stop offset="0.444" stop-color="#1140AC"/>
<stop offset="0.461" stop-color="#72B1C9"/>
<stop offset="0.473" stop-color="#326BC2"/>
<stop offset="0.478" stop-color="#1B50BB"/>
<stop offset="0.494" stop-color="#325891"/>
<stop offset="0.514" stop-color="#2A3752"/>
<stop offset="0.515" stop-color="#283652"/>
<stop offset="0.589" stop-color="#2C313C"/>
<stop offset="0.59" stop-color="#2C313C"/>
<stop offset="0.679" stop-color="#2E3033"/>
<stop offset="0.812" stop-color="#2E3033"/>
<stop offset="1" stop-color="#1D1E20"/>
</linearGradient>
<linearGradient id="paint15_linear_1_2698" x1="0.440871" y1="182.417" x2="1096.44" y2="182.417" gradientUnits="userSpaceOnUse">
<stop stop-color="#1D1E20"/>
<stop offset="0.276" stop-color="#2E3033"/>
<stop offset="0.396" stop-color="#2E3033"/>
<stop offset="0.422" stop-color="#2D3036"/>
<stop offset="0.441" stop-color="#143E9F"/>
<stop offset="0.444" stop-color="#1041B3"/>
<stop offset="0.461" stop-color="#78B9CE"/>
<stop offset="0.473" stop-color="#356DC2"/>
<stop offset="0.478" stop-color="#194EBB"/>
<stop offset="0.494" stop-color="#2C4F8C"/>
<stop offset="0.514" stop-color="#2A354B"/>
<stop offset="0.515" stop-color="#2A344B"/>
<stop offset="0.589" stop-color="#2C313C"/>
<stop offset="0.59" stop-color="#2C313C"/>
<stop offset="0.679" stop-color="#2E3033"/>
<stop offset="0.812" stop-color="#2E3033"/>
<stop offset="1" stop-color="#1D1E20"/>
</linearGradient>
<linearGradient id="paint16_linear_1_2698" x1="0.48291" y1="189.811" x2="1096.47" y2="189.811" gradientUnits="userSpaceOnUse">
<stop stop-color="#1D1E20"/>
<stop offset="0.276" stop-color="#2E3033"/>
<stop offset="0.396" stop-color="#2E3033"/>
<stop offset="0.422" stop-color="#2D3036"/>
<stop offset="0.441" stop-color="#133FA6"/>
<stop offset="0.444" stop-color="#0E42BB"/>
<stop offset="0.461" stop-color="#7FC2D2"/>
<stop offset="0.473" stop-color="#3770C2"/>
<stop offset="0.478" stop-color="#184DBA"/>
<stop offset="0.494" stop-color="#264787"/>
<stop offset="0.514" stop-color="#2B3343"/>
<stop offset="0.515" stop-color="#2B3343"/>
<stop offset="0.589" stop-color="#2C313C"/>
<stop offset="0.59" stop-color="#2C313C"/>
<stop offset="0.679" stop-color="#2E3033"/>
<stop offset="0.812" stop-color="#2E3033"/>
<stop offset="1" stop-color="#1D1E20"/>
</linearGradient>
<linearGradient id="paint17_linear_1_2698" x1="0.501" y1="199.241" x2="1096.5" y2="199.241" gradientUnits="userSpaceOnUse">
<stop stop-color="#1D1E20"/>
<stop offset="0.276" stop-color="#2E3033"/>
<stop offset="0.396" stop-color="#2E3033"/>
<stop offset="0.422" stop-color="#2D3036"/>
<stop offset="0.444" stop-color="#0C43C2"/>
<stop offset="0.461" stop-color="#85CAD6"/>
<stop offset="0.478" stop-color="#174BB9"/>
<stop offset="0.514" stop-color="#2C313C"/>
<stop offset="0.589" stop-color="#2C313C"/>
<stop offset="0.679" stop-color="#2E3033"/>
<stop offset="0.812" stop-color="#2E3033"/>
<stop offset="1" stop-color="#1D1E20"/>
</linearGradient>
</defs>
</svg>
