<svg width="162" height="52" viewBox="0 0 162 52" fill="none" xmlns="http://www.w3.org/2000/svg">
<rect x="0.5" y="0.5" width="161" height="51" rx="7.5" stroke="#254A2C"/>
<path d="M14.1509 32.9829C12.6888 32.9836 11.5008 31.8238 11.5005 30.3985L11.5 22.4862C11.4995 21.0622 12.6872 19.9026 14.1475 19.9023C14.8574 19.9018 15.5221 20.1703 16.0232 20.6583C16.5243 21.1464 16.7999 21.7956 16.8005 22.4857L16.7997 30.3983C16.8015 30.7375 16.734 31.0737 16.6012 31.3872C16.4683 31.7007 16.2727 31.9853 16.0259 32.2243C15.7805 32.4655 15.4883 32.6568 15.1665 32.7871C14.8446 32.9173 14.4994 32.9838 14.1509 32.9829ZM14.1488 20.5966C13.0788 20.596 12.2115 21.4437 12.2112 22.4862L12.2126 30.3978C12.2125 30.8991 12.4166 31.3799 12.78 31.7346C13.1434 32.0893 13.6364 32.2887 14.1506 32.2892C14.4053 32.2892 14.6574 32.2403 14.8926 32.1452C15.1279 32.0502 15.3416 31.9108 15.5215 31.7352C15.7015 31.5596 15.8441 31.3511 15.9414 31.1216C16.0386 30.8922 16.0885 30.6463 16.0882 30.398V22.4851C16.0876 21.984 15.883 21.5036 15.5194 21.1495C15.1557 20.7954 14.6627 20.5965 14.1488 20.5966Z" fill="white"/>
<path d="M34.9359 20.9876L34.2236 20.9873L16.7678 20.9896L16.0552 20.9899L16.0547 20.2951C16.0531 17.4431 17.6466 14.7906 20.2569 13.2235L19.242 11.4173C19.118 11.2057 19.0868 10.9377 19.1591 10.6927C19.1958 10.5705 19.257 10.4566 19.3392 10.3576C19.4215 10.2587 19.523 10.1767 19.6381 10.1164C19.7803 10.04 19.9401 10.0004 20.1024 10.0013C20.462 10.0013 20.7912 10.1915 20.965 10.4989L22.0271 12.3854C23.1348 11.9901 24.3056 11.7892 25.4853 11.7921C26.7013 11.7915 27.8674 11.9921 28.9712 12.3869L30.0317 10.4973C30.1162 10.3466 30.2408 10.2208 30.3924 10.1333C30.544 10.0458 30.717 9.99972 30.8932 10C31.0553 9.99951 31.2151 10.0382 31.3581 10.1127C31.4733 10.173 31.575 10.2553 31.657 10.3545C31.7391 10.4538 31.8 10.5681 31.836 10.6906C31.8722 10.8115 31.8835 10.9382 31.8691 11.0633C31.8547 11.1885 31.8149 11.3096 31.752 11.4196L30.7377 13.2248C33.3437 14.7952 34.9354 17.4457 34.9351 20.2928L34.9359 20.9876ZM29.7757 13.4909L31.1282 11.0829C31.1475 11.0527 31.1603 11.0189 31.1657 10.9837C31.1712 10.9484 31.1693 10.9125 31.1601 10.878C31.1508 10.8435 31.1345 10.8112 31.112 10.7831C31.0896 10.755 31.0615 10.7317 31.0294 10.7145C30.9974 10.6973 30.9622 10.6867 30.9258 10.6832C30.8894 10.6798 30.8527 10.6836 30.8179 10.6944C30.7831 10.7053 30.7509 10.7229 30.7233 10.7463C30.6957 10.7697 30.6733 10.7983 30.6574 10.8304L29.2909 13.2629C28.1414 12.765 26.8544 12.4852 25.494 12.4865C24.1365 12.4852 22.8518 12.764 21.7058 13.26L20.3379 10.833C20.3212 10.8026 20.2985 10.7758 20.2711 10.7541C20.2437 10.7324 20.2122 10.7163 20.1783 10.7066C20.1444 10.6969 20.1089 10.6938 20.0738 10.6976C20.0387 10.7014 20.0047 10.712 19.9739 10.7287C19.8427 10.7972 19.7943 10.9581 19.8675 11.0837L21.2205 13.4899C18.562 14.8269 16.7657 17.3726 16.7672 20.2954L34.2228 20.2933C34.2236 17.3716 32.4305 14.831 29.7757 13.4909ZM21.5239 17.2122C21.3297 17.2121 21.1436 17.1368 21.0064 17.0029C20.8692 16.869 20.7922 16.6875 20.7923 16.4982C20.7924 16.3089 20.8696 16.1274 21.007 15.9937C21.1443 15.8599 21.3305 15.7848 21.5246 15.7849C21.7188 15.7853 21.9049 15.8606 22.0422 15.9944C22.1795 16.1282 22.2568 16.3097 22.2573 16.499C22.257 16.6883 22.1796 16.8699 22.042 17.0036C21.9045 17.1374 21.7181 17.2124 21.5239 17.2122ZM29.4723 17.2107C29.3762 17.2108 29.281 17.1925 29.1921 17.1567C29.1033 17.1209 29.0225 17.0684 28.9545 17.0022C28.8865 16.9359 28.8326 16.8572 28.7959 16.7706C28.7592 16.684 28.7403 16.5911 28.7405 16.4974C28.7412 16.3082 28.8185 16.1269 28.9556 15.993C29.0927 15.8591 29.2785 15.7834 29.4726 15.7823C29.6664 15.7839 29.8517 15.8599 29.9885 15.9938C30.1252 16.1277 30.2023 16.3087 30.2031 16.4977C30.2031 16.5913 30.1842 16.684 30.1475 16.7704C30.1108 16.8569 30.057 16.9355 29.9892 17.0017C29.9213 17.0679 29.8407 17.1205 29.752 17.1563C29.6634 17.1922 29.5683 17.2106 29.4723 17.2107ZM22.2554 42C20.7947 41.9997 19.6058 40.8414 19.6056 39.4162L19.6051 35.924L18.9086 35.9247C18.5433 35.926 18.1814 35.8565 17.8439 35.7203C17.5063 35.5841 17.1999 35.384 16.9423 35.1314C16.6829 34.8803 16.4774 34.5814 16.3376 34.2521C16.1979 33.9228 16.1267 33.5696 16.1283 33.2132L16.1257 20.9538V20.2586H16.8383L34.1632 20.256L34.876 20.2555V20.9502L34.8778 33.2112C34.8781 34.7064 33.6304 35.9232 32.0973 35.9229L31.3967 35.9235L31.3974 39.4144C31.3974 40.8388 30.2089 41.9985 28.7487 41.9985C28.4005 42 28.0555 41.934 27.7337 41.8042C27.412 41.6744 27.12 41.4835 26.8747 41.2425C26.6274 41.0035 26.4312 40.7189 26.2976 40.4053C26.1641 40.0918 26.0958 39.7555 26.0967 39.4159V35.9235H24.9058V39.4151C24.9053 40.8399 23.717 42.0003 22.2554 42Z" fill="white"/>
<path d="M16.842 33.2127C16.8414 33.4776 16.8945 33.7401 16.9982 33.985C17.1018 34.2299 17.2541 34.4524 17.4462 34.6398C17.6382 34.8273 17.8664 34.9759 18.1175 35.0771C18.3686 35.1784 18.6377 35.2303 18.9095 35.23H20.3174L20.319 39.4164C20.3187 40.4589 21.1873 41.306 22.2555 41.3062C22.5101 41.3061 22.7622 41.2571 22.9973 41.1619C23.2325 41.0668 23.4461 40.9274 23.626 40.7518C23.8059 40.5762 23.9485 40.3677 24.0458 40.1383C24.143 39.9089 24.193 39.6631 24.1928 39.4148L24.193 35.2297L26.8091 35.2289L26.8088 39.4151C26.8099 40.4578 27.6795 41.306 28.7474 41.3039C29.8182 41.3047 30.6863 40.4566 30.686 39.4135L30.6847 35.2284L32.0979 35.2282C33.2382 35.2284 34.1656 34.3252 34.1656 33.2109L34.1633 20.9494L16.8389 20.9525L16.842 33.2127ZM36.8514 32.9784C35.3898 32.9787 34.201 31.8206 34.2013 30.3951L34.1992 22.483C34.1997 21.0578 35.3867 19.8984 36.8474 19.8984C38.31 19.8982 39.4996 21.0573 39.4994 22.4823L39.5002 30.3938C39.5004 31.8183 38.3127 32.9787 36.8514 32.9784ZM36.8487 20.5932C35.7787 20.5921 34.9117 21.4393 34.9117 22.483L34.9125 30.3949C34.9124 30.6431 34.9624 30.8889 35.0598 31.1182C35.1572 31.3475 35.2999 31.5559 35.48 31.7313C35.66 31.9068 35.8737 32.046 36.109 32.1408C36.3442 32.2357 36.5963 32.2844 36.8508 32.2842C37.1054 32.2842 37.3574 32.2353 37.5925 32.1403C37.8276 32.0453 38.0413 31.9061 38.2212 31.7305C38.4011 31.555 38.5438 31.3466 38.641 31.1173C38.7383 30.888 38.7883 30.6423 38.7881 30.3941L38.786 22.4825C38.7862 22.2344 38.7362 21.9887 38.6389 21.7594C38.5416 21.5301 38.3989 21.3218 38.219 21.1464C38.0391 20.9709 37.8255 20.8317 37.5903 20.7368C37.3552 20.6419 37.1032 20.5931 36.8487 20.5932Z" fill="white"/>
<path d="M14.1485 20.5972C13.0785 20.5966 12.2112 21.4443 12.2109 22.4868L12.2123 30.3983C12.2121 30.6466 12.2621 30.8924 12.3594 31.1218C12.4568 31.3512 12.5996 31.5596 12.7796 31.7351C12.9596 31.9107 13.1734 32.0499 13.4086 32.1449C13.6439 32.2398 13.896 32.2886 14.1506 32.2885C14.4052 32.2887 14.6573 32.24 14.8925 32.1451C15.1278 32.0503 15.3415 31.911 15.5215 31.7355C15.7014 31.5599 15.8441 31.3515 15.9413 31.1221C16.0385 30.8927 16.0883 30.6468 16.0879 30.3986V22.4857C16.0873 21.9846 15.8827 21.5042 15.5191 21.1501C15.1554 20.796 14.6625 20.5971 14.1485 20.5972ZM29.7756 13.4923L31.1281 11.0843C31.1625 11.0232 31.1707 10.9513 31.1509 10.8843C31.131 10.8173 31.0848 10.7607 31.0222 10.727C30.9595 10.6939 30.886 10.6864 30.8176 10.706C30.7493 10.7257 30.6917 10.7709 30.6574 10.8318L29.2911 13.265C28.1416 12.7661 26.8551 12.4866 25.4939 12.4879C24.1364 12.4866 22.8504 12.7654 21.7057 13.2614L20.3379 10.8343C20.3212 10.804 20.2985 10.7773 20.2711 10.7556C20.2437 10.7339 20.2122 10.7177 20.1783 10.708C20.1445 10.6983 20.109 10.6952 20.074 10.699C20.0389 10.7027 20.0049 10.7132 19.9741 10.7298C19.9429 10.7461 19.9153 10.7682 19.8931 10.795C19.8708 10.8217 19.8542 10.8525 19.8442 10.8856C19.8343 10.9187 19.8312 10.9533 19.8352 10.9876C19.8392 11.0218 19.8501 11.055 19.8674 11.085L21.2204 13.4915C18.5619 14.8282 16.7656 17.3739 16.7672 20.2968L34.2228 20.2947C34.2236 17.3729 32.4304 14.8323 29.7756 13.4923ZM21.5238 17.2136C21.3296 17.2135 21.1435 17.1382 21.0063 17.0043C20.8691 16.8704 20.7921 16.6888 20.7922 16.4995C20.7923 16.3103 20.8695 16.1288 21.0069 15.995C21.1442 15.8613 21.3304 15.7862 21.5246 15.7863C21.7187 15.7866 21.9048 15.8619 22.0421 15.9958C22.1794 16.1296 22.2568 16.311 22.2572 16.5003C22.2569 16.6897 22.1795 16.8712 22.042 17.005C21.9044 17.1388 21.718 17.2138 21.5238 17.2136ZM29.4722 17.212C29.3761 17.2121 29.281 17.1937 29.1922 17.1579C29.1033 17.1221 29.0227 17.0695 28.9547 17.0033C28.8867 16.937 28.8328 16.8584 28.796 16.7718C28.7593 16.6853 28.7404 16.5925 28.7404 16.4988C28.7414 16.3097 28.8189 16.1286 28.9559 15.9947C29.0929 15.8609 29.2785 15.785 29.4725 15.7837C29.6663 15.7853 29.8517 15.8612 29.9884 15.9951C30.1251 16.129 30.2022 16.3101 30.203 16.499C30.2031 16.5926 30.1843 16.6854 30.1476 16.7719C30.1109 16.8584 30.0571 16.937 29.9892 17.0032C29.9214 17.0695 29.8408 17.122 29.752 17.1578C29.6633 17.1936 29.5682 17.2121 29.4722 17.212ZM16.8384 20.9542L16.8414 33.2156C16.841 33.4805 16.8943 33.7427 16.9981 33.9874C17.1019 34.2322 17.2542 34.4545 17.4463 34.6417C17.6384 34.829 17.8664 34.9775 18.1174 35.0786C18.3684 35.1798 18.6374 35.2317 18.9091 35.2314L20.317 35.2319L20.3186 39.4183C20.3183 40.4608 21.1874 41.3082 22.2551 41.3082C23.3259 41.3082 24.1934 40.46 24.1937 39.417L24.1926 35.2316L26.8087 35.2309L26.8097 39.417C26.8097 40.4587 27.6791 41.3079 28.747 41.3059C29.8178 41.3066 30.6859 40.4585 30.6856 39.4155L30.6843 35.2303L32.0972 35.2293C32.3689 35.2293 32.6379 35.1772 32.8888 35.0759C33.1398 34.9746 33.3679 34.826 33.56 34.6388C33.7521 34.4515 33.9045 34.2292 34.0084 33.9846C34.1124 33.7399 34.166 33.4777 34.166 33.2128L34.1636 20.9513L16.8384 20.9542ZM38.7864 22.4839C38.7864 22.2358 38.7363 21.9901 38.6389 21.7609C38.5415 21.5316 38.3988 21.3233 38.2188 21.1479C38.0388 20.9725 37.8251 20.8333 37.59 20.7384C37.3548 20.6435 37.1028 20.5947 36.8483 20.5948C35.7783 20.5938 34.9113 21.4409 34.9113 22.4847L34.9129 30.3968C34.9127 30.6449 34.9627 30.8907 35.06 31.1199C35.1573 31.3492 35.3 31.5575 35.48 31.733C35.6599 31.9084 35.8736 32.0476 36.1088 32.1424C36.3439 32.2373 36.5959 32.2861 36.8504 32.2859C37.105 32.2859 37.357 32.2371 37.5921 32.1421C37.8273 32.0471 38.0409 31.9078 38.2208 31.7323C38.4008 31.5567 38.5434 31.3484 38.6407 31.119C38.738 30.8897 38.7879 30.6439 38.7877 30.3958L38.7864 22.4839Z" fill="#75A843"/>
<path d="M52.424 20V11.54H55.568C56.984 11.54 58.076 11.904 58.844 12.632C59.62 13.36 60.008 14.404 60.008 15.764C60.008 17.116 59.62 18.16 58.844 18.896C58.076 19.632 56.984 20 55.568 20H52.424ZM53.96 18.728H55.472C57.424 18.728 58.4 17.74 58.4 15.764C58.4 13.796 57.424 12.812 55.472 12.812H53.96V18.728ZM65.3566 20.12C64.5406 20.12 63.8246 19.94 63.2086 19.58C62.6006 19.22 62.1286 18.716 61.7926 18.068C61.4566 17.412 61.2886 16.644 61.2886 15.764C61.2886 14.876 61.4566 14.108 61.7926 13.46C62.1286 12.812 62.6006 12.312 63.2086 11.96C63.8166 11.6 64.5326 11.42 65.3566 11.42C66.1806 11.42 66.8966 11.6 67.5046 11.96C68.1126 12.312 68.5846 12.812 68.9206 13.46C69.2566 14.108 69.4246 14.872 69.4246 15.752C69.4246 16.64 69.2566 17.412 68.9206 18.068C68.5846 18.716 68.1126 19.22 67.5046 19.58C66.8966 19.94 66.1806 20.12 65.3566 20.12ZM65.3566 18.8C66.1326 18.8 66.7366 18.532 67.1686 17.996C67.6006 17.46 67.8166 16.716 67.8166 15.764C67.8166 14.804 67.6006 14.06 67.1686 13.532C66.7446 13.004 66.1406 12.74 65.3566 12.74C64.5806 12.74 63.9766 13.004 63.5446 13.532C63.1126 14.06 62.8966 14.804 62.8966 15.764C62.8966 16.716 63.1126 17.46 63.5446 17.996C63.9766 18.532 64.5806 18.8 65.3566 18.8ZM73.1036 20L70.1156 11.54H71.6996L73.7996 17.78L76.0076 11.54H77.1476L79.3076 17.864L81.4676 11.54H82.9676L79.9556 20H78.6836L76.5356 13.892L74.3756 20H73.1036ZM84.1349 20V11.54H85.2869L89.8349 17.444V11.54H91.2629V20H90.1229L85.5629 14.072V20H84.1349ZM93.1115 20V11.54H94.6475V18.692H98.7035V20H93.1115ZM103.185 20.12C102.369 20.12 101.653 19.94 101.037 19.58C100.429 19.22 99.9568 18.716 99.6208 18.068C99.2848 17.412 99.1168 16.644 99.1168 15.764C99.1168 14.876 99.2848 14.108 99.6208 13.46C99.9568 12.812 100.429 12.312 101.037 11.96C101.645 11.6 102.361 11.42 103.185 11.42C104.009 11.42 104.725 11.6 105.333 11.96C105.941 12.312 106.413 12.812 106.749 13.46C107.085 14.108 107.253 14.872 107.253 15.752C107.253 16.64 107.085 17.412 106.749 18.068C106.413 18.716 105.941 19.22 105.333 19.58C104.725 19.94 104.009 20.12 103.185 20.12ZM103.185 18.8C103.961 18.8 104.565 18.532 104.997 17.996C105.429 17.46 105.645 16.716 105.645 15.764C105.645 14.804 105.429 14.06 104.997 13.532C104.573 13.004 103.969 12.74 103.185 12.74C102.409 12.74 101.805 13.004 101.373 13.532C100.941 14.06 100.725 14.804 100.725 15.764C100.725 16.716 100.941 17.46 101.373 17.996C101.805 18.532 102.409 18.8 103.185 18.8ZM107.727 20L111.555 11.54H112.815L116.643 20H115.083L114.243 18.044H110.115L109.287 20H107.727ZM112.167 13.208L110.643 16.82H113.715L112.191 13.208H112.167ZM117.569 20V11.54H120.713C122.129 11.54 123.221 11.904 123.989 12.632C124.765 13.36 125.153 14.404 125.153 15.764C125.153 17.116 124.765 18.16 123.989 18.896C123.221 19.632 122.129 20 120.713 20H117.569ZM119.105 18.728H120.617C122.569 18.728 123.545 17.74 123.545 15.764C123.545 13.796 122.569 12.812 120.617 12.812H119.105V18.728ZM129.032 20L132.86 11.54H134.12L137.948 20H136.388L135.548 18.044H131.42L130.592 20H129.032ZM133.472 13.208L131.948 16.82H135.02L133.496 13.208H133.472ZM138.873 20V11.54H142.545C143.473 11.54 144.189 11.772 144.693 12.236C145.197 12.7 145.449 13.348 145.449 14.18C145.449 15.012 145.197 15.664 144.693 16.136C144.189 16.6 143.473 16.832 142.545 16.832H140.409V20H138.873ZM140.409 15.62H142.305C143.409 15.62 143.961 15.14 143.961 14.18C143.961 13.228 143.409 12.752 142.305 12.752H140.409V15.62ZM146.701 20V11.54H148.237V15.284H148.261L151.993 11.54H153.865L149.749 15.608L154.069 20H152.173L148.261 16.088H148.237V20H146.701Z" fill="#254A2C"/>
<path d="M57.6778 30.588C58.3642 30.588 58.9877 30.6937 59.5483 30.9035C60.1103 31.1134 60.6522 31.4586 61.1785 31.9378V30.841H64.253V43.748H61.1785V42.6512C60.7025 43.0996 60.1494 43.4505 59.5483 43.6855C58.947 43.902 58.3141 44.0083 57.6778 43.9995C56.8206 44.0095 55.9708 43.8337 55.1825 43.4831C54.4434 43.1532 53.7775 42.6684 53.2263 42.0589C52.6734 41.4416 52.2412 40.7183 51.9536 39.9293C51.6466 39.0882 51.4928 38.195 51.5003 37.2953C51.5003 36.3532 51.6518 35.4752 51.955 34.6612C52.242 33.8718 52.6738 33.148 53.2263 32.5301C53.7775 31.9207 54.4434 31.4359 55.1825 31.1059C55.9707 30.7548 56.8205 30.5785 57.6778 30.588ZM91.9534 26.9718V43.748H88.8775V42.6646C88.4066 43.1146 87.8551 43.4635 87.2545 43.6914C86.6498 43.9037 86.015 44.0078 85.3769 43.9995C84.5197 44.0095 83.6698 43.8337 82.8815 43.4831C82.1424 43.1532 81.4765 42.6684 80.9253 42.0589C80.3725 41.4416 79.9402 40.7183 79.6526 39.9293C79.3456 39.0882 79.1919 38.195 79.1993 37.2953C79.1993 36.3532 79.3509 35.4752 79.654 34.6612C79.9415 33.8717 80.3737 33.1479 80.9267 32.5301C81.4775 31.9208 82.1429 31.436 82.8815 31.1059C83.6697 30.7548 84.5196 30.5785 85.3769 30.588C86.0633 30.588 86.6882 30.6937 87.2545 30.9035C87.8193 31.1134 88.3599 31.4542 88.8775 31.9244V26.9718H91.9534ZM106.361 30.588C108.082 30.5858 109.735 31.2875 110.964 32.542C111.553 33.1477 112.019 33.8576 112.362 34.6731C112.706 35.4871 112.877 36.3622 112.877 37.2938C112.886 38.1869 112.72 39.0725 112.39 39.897C112.06 40.7214 111.572 41.4676 110.957 42.0902C110.36 42.6935 109.657 43.1711 108.886 43.4965C108.1 43.8328 107.256 43.9995 106.361 43.9995C105.493 44.0056 104.634 43.8347 103.83 43.4965C103.056 43.1723 102.35 42.6947 101.752 42.0902C101.137 41.4674 100.649 40.7213 100.32 39.8968C99.9897 39.0724 99.8241 38.1868 99.8327 37.2938C99.8327 36.3622 100.004 35.4871 100.348 34.6731C100.691 33.8576 101.157 33.1477 101.746 32.542C102.344 31.9314 103.049 31.4459 103.822 31.1119C104.626 30.7611 105.489 30.5829 106.361 30.588ZM131.5 26.9718V43.748H128.424V42.6646C127.953 43.1146 127.402 43.4635 126.801 43.6914C126.196 43.9037 125.562 44.0078 124.923 43.9995C124.066 44.0095 123.216 43.8337 122.428 43.4831C121.689 43.1532 121.023 42.6684 120.472 42.0589C119.919 41.4416 119.487 40.7183 119.199 39.9293C118.892 39.0882 118.738 38.195 118.746 37.2953C118.746 36.3532 118.897 35.4752 119.201 34.6612C119.488 33.8717 119.92 33.1479 120.473 32.5301C121.024 31.9208 121.689 31.436 122.428 31.1059C123.216 30.7548 124.066 30.5785 124.923 30.588C125.61 30.588 126.235 30.6937 126.801 30.9035C127.366 31.1134 127.906 31.4542 128.424 31.9244V26.9718H131.5ZM71.9864 30.588C75.211 30.6297 77.7264 33.4781 77.7436 36.5006V43.748H74.6662V36.4113C74.6662 34.9231 73.5236 33.8933 72.1594 33.7847L71.9435 33.7742L71.729 33.7847C70.3633 33.8933 69.2208 34.9216 69.2208 36.4128V43.7495H66.1449V36.5006C66.162 33.4781 68.6759 30.6297 71.9006 30.588H71.9864ZM117.332 30.841V43.748H114.256V30.841H117.332ZM99.5396 30.5062V33.7355C97.4775 33.7355 96.568 34.8427 96.568 36.4128V43.7495H93.4921V36.5006C93.5093 33.4781 95.1867 30.5062 99.5396 30.5062ZM58.0768 33.6016C57.6006 33.6016 57.1545 33.6939 56.7383 33.8784C56.3236 34.0629 55.9618 34.3219 55.6544 34.6537C55.3434 34.9924 55.0987 35.3907 54.9337 35.8264C54.757 36.2936 54.6687 36.7918 54.6734 37.2938C54.6734 37.8236 54.7592 38.3132 54.9337 38.7626C55.1081 39.212 55.3484 39.6034 55.6544 39.9353C55.9695 40.2711 56.3464 40.5374 56.7626 40.7182C57.1788 40.8989 57.6258 40.9905 58.0768 40.9874C58.3199 40.9874 58.573 40.9606 58.8404 40.9056C59.1064 40.8505 59.3752 40.7582 59.6455 40.6288C59.93 40.4892 60.1966 40.3133 60.4392 40.1049C60.6966 39.8862 60.944 39.6183 61.1785 39.2983V35.2907C60.7792 34.726 60.2535 34.2713 59.6469 33.9662C59.3906 33.8371 59.1196 33.7421 58.8404 33.6835C58.589 33.6305 58.3333 33.603 58.0768 33.6016ZM85.7759 33.6016C85.2997 33.6016 84.8535 33.6939 84.4374 33.8784C84.0227 34.0629 83.6609 34.3219 83.3534 34.6537C83.0425 34.9924 82.7977 35.3907 82.6327 35.8264C82.4561 36.2936 82.3677 36.7918 82.3725 37.2938C82.3725 37.8236 82.4597 38.3132 82.6327 38.7626C82.8072 39.212 83.0474 39.6034 83.3534 39.9353C83.6685 40.2711 84.0454 40.5374 84.4617 40.7182C84.8779 40.8989 85.3248 40.9905 85.7759 40.9874C86.019 40.9874 86.2735 40.9606 86.5395 40.9056C86.8055 40.8505 87.0743 40.7582 87.3446 40.6288C87.629 40.4892 87.8957 40.3133 88.1382 40.1049C88.3956 39.8862 88.643 39.6183 88.8775 39.2983V35.2907C88.4782 34.726 87.9525 34.2713 87.346 33.9662C87.0896 33.8371 86.8187 33.7421 86.5395 33.6835C86.2881 33.6305 86.0323 33.603 85.7759 33.6016ZM106.361 33.6016C105.919 33.6009 105.481 33.6933 105.074 33.873C104.667 34.0528 104.299 34.3163 103.993 34.6478C103.689 34.9752 103.449 35.3636 103.272 35.813C103.091 36.2836 103 36.7868 103.006 37.2938C103.006 37.8399 103.092 38.3385 103.266 38.7879C103.439 39.2373 103.678 39.6257 103.981 39.9546C104.283 40.282 104.639 40.535 105.046 40.7166C105.454 40.8966 105.892 40.9874 106.361 40.9874C106.808 40.9901 107.25 40.8979 107.662 40.7166C108.064 40.5408 108.427 40.2815 108.729 39.9546C109.03 39.6272 109.269 39.2373 109.444 38.7879C109.615 38.3385 109.704 37.8399 109.704 37.2938C109.709 36.7867 109.618 36.2836 109.437 35.813C109.269 35.3796 109.022 34.9839 108.71 34.6478C108.406 34.322 108.044 34.0607 107.645 33.8784C107.24 33.6935 106.803 33.5992 106.361 33.6016ZM125.322 33.6016C124.846 33.6016 124.4 33.6939 123.984 33.8784C123.569 34.0629 123.207 34.3219 122.9 34.6537C122.589 34.9924 122.344 35.3907 122.179 35.8264C122.003 36.2936 121.914 36.7918 121.919 37.2938C121.919 37.8236 122.005 38.3132 122.179 38.7626C122.354 39.212 122.594 39.6034 122.9 39.9353C123.215 40.2711 123.592 40.5374 124.008 40.7182C124.424 40.8989 124.871 40.9905 125.322 40.9874C125.566 40.9874 125.82 40.9606 126.086 40.9056C126.352 40.8505 126.621 40.7582 126.891 40.6288C127.176 40.4892 127.442 40.3133 127.685 40.1049C127.942 39.8862 128.19 39.6183 128.424 39.2983V35.2907C128.025 34.726 127.499 34.2713 126.893 33.9662C126.636 33.8371 126.365 33.7421 126.086 33.6835C125.835 33.6305 125.579 33.603 125.322 33.6016ZM115.793 26C116.156 26.0044 116.509 26.1183 116.811 26.3277C117.113 26.5372 117.35 26.8333 117.493 27.1801C117.59 27.4131 117.64 27.6643 117.64 27.9183C117.64 28.1722 117.59 28.4234 117.493 28.6564C117.301 29.1152 116.948 29.4808 116.506 29.6788C116.282 29.7801 116.041 29.8323 115.796 29.8323C115.552 29.8323 115.311 29.7801 115.086 29.6788C114.647 29.4795 114.296 29.1142 114.106 28.6564C114.008 28.4232 113.958 28.1717 113.958 27.9175C113.958 27.6633 114.008 27.4118 114.106 27.1786C114.294 26.7181 114.645 26.3504 115.086 26.1518C115.308 26.0506 115.544 26 115.793 26Z" fill="#254A2C"/>
</svg>
