<svg width="180" height="64" viewBox="0 0 180 64" fill="none" xmlns="http://www.w3.org/2000/svg">
<path d="M32 59.9999H16.9931L12.6035 51.7951L9.07812 45.2164L12.6035 38.6229" stroke="#254A2C" stroke-width="3" stroke-miterlimit="10"/>
<path d="M12.6036 38.6231H5.52538L2 32.0001L6.99315 22.6717L9.05077 18.8427L12.6173 12.2049L16.1427 5.61141L16.9932 4H32" stroke="#254A2C" stroke-width="3" stroke-miterlimit="10"/>
<path d="M32 53.4066H20.5322L16.1426 45.2165L12.6035 38.623L16.1838 32H9.06445L14.0987 22.5829L16.1426 18.7835L19.668 12.2049L20.5322 10.5934H32" stroke="#254A2C" stroke-width="3" stroke-miterlimit="10"/>
<path d="M31.9998 17.2311H24.0848L16.1836 31.9999L24.0848 46.7687H31.9998" stroke="#254A2C" stroke-width="3" stroke-miterlimit="10"/>
<path d="M9.06449 32L5.52539 38.623" stroke="#254A2C" stroke-width="3" stroke-miterlimit="10"/>
<path d="M58.4746 38.623L54.9355 32" stroke="#254A2C" stroke-width="3" stroke-miterlimit="10"/>
<path d="M32 59.9999H47.0069L51.3964 51.7951L54.9218 45.2164L51.3964 38.6229" stroke="#254A2C" stroke-width="3" stroke-miterlimit="10"/>
<path d="M51.3964 38.6231L58.4884 38.564L62 32.0001L57.0069 22.6717L54.9493 18.8427L51.3827 12.2049L47.8574 5.61141L47.0069 4H32" stroke="#254A2C" stroke-width="3" stroke-miterlimit="10"/>
<path d="M32 53.4066H43.4678L47.8574 45.2165L51.3964 38.623L47.8162 32H54.9355L49.9012 22.5829L47.8574 18.7835L44.332 12.2049L43.4678 10.5934H32" stroke="#254A2C" stroke-width="3" stroke-miterlimit="10"/>
<path d="M32 17.2311H39.915L47.8162 31.9999L39.915 46.7687H32" stroke="#254A2C" stroke-width="3" stroke-miterlimit="10"/>
<path d="M24.085 17.2313L20.5322 10.5934" stroke="#254A2C" stroke-width="3" stroke-miterlimit="10"/>
<path d="M39.915 17.2313L43.4679 10.5934" stroke="#254A2C" stroke-width="3" stroke-miterlimit="10"/>
<path d="M148.605 47.8572L160.417 31.7976L148.957 16.1429H156.86L164.325 26.7143L171.745 16.1429H179.693L168.189 31.7976L180 47.8572H172.053L164.281 36.9259L156.597 47.8572H148.605Z" fill="#254A2C"/>
<path d="M125.925 47.8572V16.1429H147.133V21.586H132.424V29.0085H146.167V34.4967H132.424V42.414H147.133V47.8572H125.925Z" fill="#254A2C"/>
<path d="M100.871 47.8572V42.1441H107.808V23.9253L102.495 27.1192L99.9048 22.0359L109.784 16.1429H114.614V42.1441H121.113V47.8572H100.871Z" fill="#254A2C"/>
<path d="M79.2307 47.8572V21.9009H69V16.1429H96.2672V21.9009H86.0365V47.8572H79.2307Z" fill="#254A2C"/>
</svg>
