<svg width="162" height="52" viewBox="0 0 162 52" fill="none" xmlns="http://www.w3.org/2000/svg">
<rect x="0.5" y="0.5" width="161" height="51" rx="7.5" stroke="url(#paint0_linear_4004_1868)"/>
<path d="M27.076 25.3734L14.1162 37.679C14.2617 38.1464 14.5232 38.5776 14.8807 38.9394C15.2383 39.3012 15.6823 39.5841 16.179 39.7666C16.6757 39.949 17.2118 40.0262 17.7464 39.992C18.281 39.9579 18.8 39.8135 19.2635 39.5697L33.8461 32.0428L27.076 25.3734Z" fill="#D93B33"/>
<path d="M40.181 23.2816L33.8747 20.0083L26.7764 25.6537L33.9034 32.0251L40.1617 28.7868C40.7161 28.5238 41.1805 28.1282 41.5046 27.6429C41.8286 27.1577 41.9999 26.6014 41.9999 26.0342C41.9999 25.467 41.8286 24.9107 41.5046 24.4254C41.1805 23.9402 40.7161 23.5446 40.1617 23.2816H40.181Z" fill="#FFE94D"/>
<path d="M14.1161 14.328C14.0377 14.5905 13.9986 14.8614 14 15.1334V36.874C14.001 37.1459 14.0398 37.4164 14.1161 37.6791L27.5204 25.6889L14.1161 14.328Z" fill="#5A9DED"/>
<path d="M27.1727 26.0036L33.8749 20.0083L19.3113 12.4467C18.7634 12.1557 18.1401 12.0016 17.5051 12C16.7384 11.9988 15.9923 12.2248 15.3805 12.6435C14.7687 13.0623 14.3247 13.6508 14.1162 14.3194L27.1727 26.0036Z" fill="#348544"/>
<path d="M56.992 20.12C56.056 20.12 55.264 19.944 54.616 19.592C53.976 19.24 53.488 18.74 53.152 18.092C52.816 17.444 52.648 16.676 52.648 15.788C52.648 14.892 52.82 14.12 53.164 13.472C53.508 12.816 54.004 12.312 54.652 11.96C55.3 11.6 56.076 11.42 56.98 11.42C57.572 11.42 58.128 11.508 58.648 11.684C59.168 11.852 59.6 12.088 59.944 12.392L59.428 13.592C59.052 13.296 58.668 13.084 58.276 12.956C57.884 12.828 57.452 12.764 56.98 12.764C56.084 12.764 55.404 13.024 54.94 13.544C54.484 14.064 54.256 14.812 54.256 15.788C54.256 16.772 54.492 17.52 54.964 18.032C55.436 18.544 56.136 18.8 57.064 18.8C57.328 18.8 57.596 18.78 57.868 18.74C58.148 18.692 58.424 18.624 58.696 18.536V16.568H56.752V15.428H59.98V19.496C59.588 19.688 59.124 19.84 58.588 19.952C58.052 20.064 57.52 20.12 56.992 20.12ZM61.7599 20V11.54H67.3879V12.764H63.2359V15.092H67.1239V16.316H63.2359V18.776H67.3879V20H61.7599ZM70.9015 20V12.824H67.9975V11.54H75.3415V12.824H72.4375V20H70.9015ZM79.549 20V11.54H81.085V20H79.549ZM84.964 20V12.824H82.06V11.54H89.404V12.824H86.5V20H84.964ZM97.4035 20.12C96.5875 20.12 95.8715 19.94 95.2555 19.58C94.6475 19.22 94.1755 18.716 93.8395 18.068C93.5035 17.412 93.3355 16.644 93.3355 15.764C93.3355 14.876 93.5035 14.108 93.8395 13.46C94.1755 12.812 94.6475 12.312 95.2555 11.96C95.8635 11.6 96.5795 11.42 97.4035 11.42C98.2275 11.42 98.9435 11.6 99.5515 11.96C100.16 12.312 100.632 12.812 100.968 13.46C101.304 14.108 101.472 14.872 101.472 15.752C101.472 16.64 101.304 17.412 100.968 18.068C100.632 18.716 100.16 19.22 99.5515 19.58C98.9435 19.94 98.2275 20.12 97.4035 20.12ZM97.4035 18.8C98.1795 18.8 98.7835 18.532 99.2155 17.996C99.6475 17.46 99.8635 16.716 99.8635 15.764C99.8635 14.804 99.6475 14.06 99.2155 13.532C98.7915 13.004 98.1875 12.74 97.4035 12.74C96.6275 12.74 96.0235 13.004 95.5915 13.532C95.1595 14.06 94.9435 14.804 94.9435 15.764C94.9435 16.716 95.1595 17.46 95.5915 17.996C96.0235 18.532 96.6275 18.8 97.4035 18.8ZM103.033 20V11.54H104.185L108.733 17.444V11.54H110.161V20H109.021L104.461 14.072V20H103.033Z" fill="#254A2C"/>
<path d="M147.644 31.221L145.24 36.9505H145.168L142.66 31.221H140.392L144.15 39.2303L142.003 43.6851H144.207L150 31.221H147.644ZM130.656 26.4664H128.557V39.6803H130.656V26.4664ZM122.756 26.4664H117.707V39.6803H119.823V34.6783H122.763C123.356 34.6972 123.947 34.6058 124.502 34.4093C125.057 34.2127 125.565 33.915 125.996 33.5333C126.426 33.1517 126.772 32.6937 127.012 32.1861C127.253 31.6784 127.383 31.1311 127.395 30.576C127.383 30.0199 127.252 29.4717 127.012 28.9631C126.771 28.4545 126.425 27.9957 125.993 27.6133C125.562 27.231 125.053 26.9327 124.497 26.7357C123.942 26.5388 123.35 26.4474 122.756 26.4664ZM122.811 32.833H119.823V28.3335H122.82C123.457 28.3335 124.069 28.5706 124.519 28.9925C124.97 29.4144 125.224 29.9867 125.224 30.5834C125.224 31.1801 124.97 31.7523 124.519 32.1743C124.069 32.5962 123.457 32.8332 122.82 32.8332L122.811 32.833ZM135.833 30.9357C135.064 30.8944 134.299 31.0639 133.631 31.4236C132.964 31.7832 132.423 32.3173 132.075 32.9604L133.95 33.7105C134.136 33.3925 134.417 33.1322 134.758 32.9617C135.1 32.7911 135.487 32.7178 135.873 32.7505C136.138 32.7257 136.405 32.7502 136.66 32.8224C136.915 32.8946 137.151 33.0133 137.357 33.1715C137.562 33.3297 137.732 33.5243 137.857 33.7442C137.982 33.9641 138.059 34.205 138.084 34.4529V34.5879C137.413 34.2478 136.661 34.0699 135.897 34.0704C133.886 34.0704 131.834 35.1055 131.834 37.0703C131.834 38.8402 133.477 39.9801 135.336 39.9801C135.865 40.0115 136.393 39.9081 136.865 39.681C137.336 39.4539 137.732 39.1115 138.012 38.6902H138.093V39.71H140.144V34.6257C140.144 32.2784 138.269 30.9735 135.849 30.9735L135.833 30.9357ZM135.585 38.1802C134.895 38.1802 133.934 37.8503 133.934 37.0553C133.934 36.0355 135.128 35.6456 136.169 35.6456C136.841 35.6285 137.506 35.7813 138.092 36.0878C138.015 36.6612 137.718 37.1891 137.257 37.5738C136.796 37.9585 136.202 38.1739 135.585 38.1802ZM59.6045 39.9651C55.455 39.978 52.0658 36.8661 52 32.983C52.066 29.1 55.455 25.9881 59.6045 26.0009C60.5546 25.9861 61.4983 26.149 62.3803 26.48C63.2623 26.811 64.0648 27.3034 64.7408 27.9284L63.2904 29.2709C62.3067 28.3687 60.9817 27.8673 59.6045 27.8759C56.6085 27.8759 54.1796 30.1491 54.1796 32.9531C54.1796 35.7571 56.6085 38.0302 59.6045 38.0302C60.3047 38.0571 61.0031 37.9462 61.6546 37.7046C62.3061 37.4629 62.8962 37.0961 63.3867 36.6276C64.0388 35.9696 64.4317 35.1232 64.5005 34.228H59.6045V32.3759H66.4958C66.5709 32.7693 66.6057 33.1684 66.5999 33.5683C66.6691 35.2285 66.0323 36.8466 64.8289 38.068C64.1496 38.7102 63.3331 39.2111 62.4329 39.538C61.5327 39.8649 60.5689 40.0104 59.6045 39.9651ZM77.2573 35.4654C77.2838 36.0654 77.1805 36.6642 76.9534 37.2258C76.7264 37.7875 76.3803 38.3004 75.9361 38.7337C75.4919 39.167 74.9586 39.5118 74.3684 39.7473C73.7782 39.9828 73.1432 40.1042 72.5015 40.1042C71.8599 40.1042 71.2249 39.9828 70.6347 39.7473C70.0445 39.5118 69.5112 39.167 69.067 38.7337C68.6227 38.3004 68.2767 37.7875 68.0497 37.2258C67.8226 36.6642 67.7192 36.0654 67.7457 35.4654C67.7192 34.8654 67.8226 34.2666 68.0497 33.7049C68.2767 33.1433 68.6227 32.6304 69.067 32.1971C69.5112 31.7638 70.0445 31.419 70.6347 31.1835C71.2249 30.9479 71.8599 30.8265 72.5015 30.8265C73.1432 30.8265 73.7782 30.9479 74.3684 31.1835C74.9586 31.419 75.4919 31.7638 75.9361 32.1971C76.3803 32.6304 76.7264 33.1433 76.9534 33.7049C77.1805 34.2666 77.2838 34.8654 77.2573 35.4654ZM75.174 35.4654C75.2092 35.1171 75.1663 34.7657 75.048 34.4338C74.9297 34.1019 74.7386 33.7968 74.4871 33.538C74.2355 33.2792 73.9289 33.0724 73.587 32.9309C73.2451 32.7895 72.8754 32.7164 72.5015 32.7164C72.1277 32.7164 71.758 32.7895 71.4161 32.9309C71.0742 33.0724 70.7676 33.2792 70.516 33.538C70.2644 33.7968 70.0734 34.1019 69.9551 34.4338C69.8368 34.7657 69.7939 35.1171 69.8291 35.4654C69.7939 35.8137 69.8368 36.1651 69.9551 36.497C70.0734 36.8289 70.2644 37.134 70.516 37.3928C70.7676 37.6516 71.0742 37.8583 71.4161 37.9998C71.758 38.1413 72.1277 38.2144 72.5015 38.2144C72.8754 38.2144 73.2451 38.1413 73.587 37.9998C73.9289 37.8583 74.2355 37.6516 74.4871 37.3928C74.7386 37.134 74.9297 36.8289 75.048 36.497C75.1663 36.1651 75.2092 35.8137 75.174 35.4654ZM87.9148 35.4654C87.9148 37.9216 85.7872 39.9126 83.163 39.9126C80.5386 39.9126 78.411 37.9216 78.411 35.4654C78.411 33.0092 80.5386 31.0182 83.163 31.0182C85.7872 31.0182 87.9148 33.0092 87.9148 35.4654ZM85.8395 35.4654C85.8747 35.1171 85.8318 34.7657 85.7135 34.4338C85.5952 34.1019 85.4042 33.7968 85.1526 33.538C84.901 33.2792 84.5945 33.0724 84.2526 32.9309C83.9106 32.7895 83.5409 32.7164 83.1671 32.7164C82.7932 32.7164 82.4235 32.7895 82.0816 32.9309C81.7397 33.0724 81.4331 33.2792 81.1816 33.538C80.93 33.7968 80.7389 34.1019 80.6206 34.4338C80.5024 34.7657 80.4594 35.1171 80.4947 35.4654C80.4592 35.8138 80.502 36.1653 80.6202 36.4973C80.7384 36.8294 80.9294 37.1346 81.181 37.3936C81.4326 37.6525 81.7392 37.8594 82.0812 38.0009C82.4232 38.1425 82.793 38.2156 83.167 38.2156C83.5409 38.2156 83.9107 38.1425 84.2527 38.0009C84.5947 37.8594 84.9013 37.6525 85.1529 37.3936C85.4045 37.1346 85.5955 36.8294 85.7137 36.4973C85.8319 36.1653 85.8749 35.8138 85.8395 35.4654ZM98.3154 31.2433V39.3202C98.3154 42.6348 96.2079 43.9998 93.7239 43.9998C92.8134 44.007 91.921 43.7615 91.1594 43.2944C90.3978 42.8272 89.8012 42.1593 89.4449 41.3751L91.2639 40.625C91.4525 41.0829 91.7811 41.4786 92.2087 41.7628C92.6362 42.0469 93.1437 42.2068 93.6678 42.2226C95.2706 42.2226 96.248 41.3002 96.248 39.5826V38.9376H96.168C95.8537 39.2659 95.468 39.5274 95.0367 39.7046C94.6055 39.8819 94.1387 39.9707 93.6678 39.9651C91.0124 39.9651 88.8599 37.9506 88.8599 35.4654C88.8599 32.9802 91.0124 30.9657 93.6678 30.9657C94.1418 30.9559 94.6127 31.0404 95.0492 31.2136C95.4857 31.3868 95.878 31.6448 96.2 31.9705H96.28V31.2207H98.3154V31.2433ZM96.4484 35.488C96.4779 35.1485 96.4341 34.807 96.3198 34.4837C96.2056 34.1604 96.023 33.8619 95.7831 33.6059C95.5432 33.3499 95.2507 33.1416 94.9231 32.9934C94.5956 32.8452 94.2395 32.7601 93.8761 32.7431C93.5056 32.7546 93.1412 32.8351 92.8044 32.9799C92.4675 33.1247 92.1649 33.331 91.9142 33.5866C91.6635 33.8421 91.4697 34.1419 91.3443 34.4684C91.2188 34.7949 91.1642 35.1415 91.1836 35.488C91.1664 35.8321 91.2229 36.176 91.3496 36.4994C91.4763 36.8228 91.6708 37.1193 91.9216 37.3715C92.1724 37.6237 92.4744 37.8264 92.81 37.9679C93.1457 38.1093 93.5081 38.1866 93.8761 38.1952C94.2373 38.1821 94.592 38.1009 94.9189 37.9564C95.2457 37.8119 95.538 37.6071 95.7783 37.3543C96.0185 37.1015 96.2017 36.8058 96.3168 36.4851C96.432 36.1644 96.4767 35.8253 96.4484 35.488ZM102.025 26.4809V39.6877H99.91V26.4811L102.025 26.4809ZM110.359 36.9505L112.01 37.9703C111.569 38.5858 110.973 39.0899 110.274 39.4378C109.575 39.7858 108.795 39.9668 108.003 39.9649C107.374 39.9733 106.748 39.862 106.166 39.6378C105.583 39.4136 105.056 39.0812 104.614 38.6605C104.173 38.2399 103.828 37.7399 103.599 37.1907C103.37 36.6415 103.263 36.0545 103.284 35.4654C103.089 33.3686 104.607 31.4692 106.811 31.0508C109.015 30.6324 111.204 31.8284 111.897 33.8305L112.114 34.3481L105.703 36.8302C105.903 37.2504 106.233 37.605 106.65 37.8483C107.067 38.0916 107.552 38.2124 108.043 38.1952C108.51 38.1884 108.968 38.0705 109.373 37.8527C109.778 37.635 110.117 37.3246 110.359 36.9505ZM105.303 35.3301L109.614 33.6653C109.447 33.3596 109.188 33.1064 108.869 32.9371C108.55 32.7678 108.185 32.6898 107.819 32.7127C107.469 32.7271 107.126 32.8065 106.809 32.9464C106.492 33.0863 106.209 33.2838 105.974 33.5275C105.74 33.7712 105.56 34.0561 105.445 34.3656C105.33 34.6751 105.281 35.003 105.303 35.3301Z" fill="#254A2C"/>
<defs>
<linearGradient id="paint0_linear_4004_1868" x1="0" y1="26" x2="162" y2="26" gradientUnits="userSpaceOnUse">
<stop stop-color="#00D1FF"/>
<stop offset="1" stop-color="#FF3156"/>
</linearGradient>
</defs>
</svg>
