<svg width="54" height="22" viewBox="0 0 54 22" fill="none" xmlns="http://www.w3.org/2000/svg">
<path d="M9.86674 2.83634C9.23393 3.57935 8.22122 4.1656 7.20861 4.08178C7.08205 3.07714 7.57775 2.00949 8.15794 1.35009C8.79075 0.586146 9.89838 0.0418601 10.795 0C10.9004 1.04661 10.489 2.07228 9.86674 2.83634ZM10.7845 4.28072C9.31831 4.197 8.06312 5.10746 7.36692 5.10746C6.66028 5.10746 5.59483 4.32258 4.43457 4.34351C2.92626 4.36444 1.52331 5.21211 0.75328 6.56231C-0.828965 9.2626 0.341951 13.2608 1.87136 15.4586C2.62029 16.5471 3.51688 17.7402 4.69824 17.6984C5.81642 17.6565 6.25939 16.9763 7.6096 16.9763C8.97026 16.9763 9.3606 17.6984 10.542 17.6774C11.7655 17.6565 12.5355 16.5891 13.2845 15.5005C14.1388 14.2655 14.4869 13.0618 14.508 12.999C14.4869 12.9781 12.1453 12.0886 12.1242 9.40911C12.1031 7.16938 13.9701 6.10184 14.0545 6.03905C12.9996 4.49002 11.3542 4.32258 10.7845 4.28072ZM19.2547 1.24544V17.5624H21.8073V11.9839H25.3409C28.5686 11.9839 30.8365 9.78606 30.8365 6.60427C30.8365 3.42259 28.6108 1.24555 25.4253 1.24555L19.2547 1.24544ZM21.8073 3.38062H24.7502C26.9654 3.38062 28.2311 4.55281 28.2311 6.61463C28.2311 8.67645 26.9654 9.85921 24.7397 9.85921H21.8073V3.38062ZM35.4986 17.6879C37.102 17.6879 38.5892 16.8821 39.2643 15.6051H39.317V17.5623H41.6799V9.4405C41.6799 7.08566 39.7812 5.56802 36.8593 5.56802C34.1484 5.56802 32.1443 7.10659 32.0705 9.22074H34.37C34.5599 8.21599 35.4985 7.55659 36.7855 7.55659C38.3466 7.55659 39.2221 8.27878 39.2221 9.60805V10.508L36.0365 10.6964C33.0725 10.8743 31.4693 12.078 31.4693 14.1713C31.4693 16.2855 33.1253 17.6879 35.4986 17.6879ZM36.1842 15.7516C34.8236 15.7516 33.9586 15.1028 33.9586 14.1084C33.9586 13.0829 34.7919 12.4862 36.3847 12.3921L39.2221 12.2142V13.1351C39.2221 14.6632 37.9142 15.7516 36.1843 15.7516M44.8338 22C47.3232 22 48.494 21.0581 49.5172 18.2008L54 5.725H51.4051L48.399 15.3643H48.3462L45.3401 5.725H42.6714L46.996 17.6042L46.764 18.3264C46.3738 19.5509 45.7408 20.0219 44.6122 20.0219C44.4118 20.0219 44.0216 20.001 43.8633 19.98V21.9372C44.0109 21.9791 44.6437 22 44.8337 22" fill="#330663"/>
</svg>
