<svg width="55" height="20" viewBox="0 0 55 20" fill="none" xmlns="http://www.w3.org/2000/svg">
<path d="M19.9999 10.229C19.9999 9.54736 19.9228 8.86571 19.8456 8.18406H10.2026V12.0469H15.6799C15.4485 13.2587 14.7542 14.3948 13.6742 15.0766V17.576H16.9914C18.92 15.834 20 13.2587 20 10.2291" fill="#5A9DED"/>
<path d="M10.2027 20.0001C12.9799 20.0001 15.2942 19.0912 16.9915 17.5763L13.6743 15.0769C12.7485 15.6828 11.5913 16.0615 10.2027 16.0615C7.57969 16.0615 5.26532 14.3195 4.49387 11.8957H1.09961V14.4709C2.87391 17.8793 6.34545 20.0001 10.2027 20.0001Z" fill="#348544"/>
<path d="M4.49365 11.8956C4.03088 10.6837 4.03088 9.32044 4.49365 8.03278V5.45759H1.0994C-0.366465 8.26008 -0.366465 11.5927 1.0994 14.4708L4.49365 11.8956Z" fill="#FFE94D"/>
<path d="M10.2023 3.94269C11.6681 3.94269 13.0567 4.47292 14.1368 5.45752L17.0683 2.57938C15.2167 0.913014 12.7481 -0.0715817 10.2794 0.00406535C6.42211 0.00406535 2.87352 2.12491 1.17627 5.53329L4.57065 8.10848C5.26493 5.6847 7.5793 3.94269 10.2023 3.94269Z" fill="#D93B33"/>
<path d="M40.5664 5.3067C41.9292 5.3067 42.9823 5.68672 43.7877 6.44676C44.593 7.20669 44.9646 8.22004 44.9646 9.4867V15.5666H43.2301V14.1734H43.1681C42.4248 15.3135 41.3717 15.8835 40.1328 15.8835C39.0796 15.8835 38.1504 15.5667 37.4071 14.9335C36.7257 14.3001 36.292 13.4135 36.292 12.4635C36.292 11.4501 36.6638 10.6268 37.4071 9.99343C38.1504 9.3601 39.2036 9.10678 40.4425 9.10678C41.5575 9.10678 42.4248 9.29684 43.1062 9.74011V9.29684C43.1062 8.70568 42.8904 8.11462 42.4586 7.72945L42.3628 7.65016C41.8672 7.20679 41.2478 6.95348 40.5664 6.95348C39.5133 6.95348 38.708 7.39685 38.1504 8.28349L36.5399 7.26995C37.531 5.93993 38.8319 5.3067 40.5664 5.3067ZM31.8319 1C32.9434 1 33.9998 1.39546 34.8443 2.13293L34.9912 2.26656C35.8585 3.0266 36.292 4.16665 36.292 5.36996C36.292 6.57327 35.8585 7.64997 34.9912 8.47325C34.1239 9.29664 33.0708 9.73991 31.8319 9.73991L28.8585 9.67656V15.5666H27V1H31.8319ZM40.8141 10.6267C40.0708 10.6267 39.4513 10.8166 38.9558 11.1966C38.4602 11.5133 38.2124 11.9566 38.2124 12.5265C38.2124 13.0333 38.4603 13.4765 38.8319 13.73C39.2655 14.0466 39.7611 14.2366 40.2567 14.2366C40.9504 14.2366 41.6443 13.9607 42.1869 13.4605L42.3009 13.3499C42.9204 12.78 43.2301 12.0833 43.2301 11.3232C42.6726 10.88 41.8672 10.6266 40.8142 10.6266M31.9559 2.77319H28.8586V7.84012H31.9559C32.6373 7.84012 33.3187 7.58681 33.7524 7.08019C34.7434 6.13019 34.7434 4.54687 33.8143 3.59677L33.7524 3.53342C33.2567 3.02679 32.6373 2.71013 31.9558 2.77348M55 5.62337L48.8673 20H47.0089L49.3009 14.9967L45.2743 5.68672H47.2566L50.1681 12.8433H50.2301L53.0796 5.68672H55V5.62337Z" fill="#330663"/>
</svg>
