<svg width="42" height="30" viewBox="0 0 42 30" fill="none" xmlns="http://www.w3.org/2000/svg">
<path d="M8.95441 29.941V28.1764C8.95441 27.4998 8.50098 27.0587 7.72377 27.0587C7.33524 27.0587 6.91426 27.1763 6.62279 27.5587C6.39623 27.2352 6.07245 27.0587 5.58672 27.0587C5.26279 27.0587 4.93917 27.1469 4.68 27.4704V27.1175H4V29.941H4.68V28.3822C4.68 27.8823 4.97147 27.6469 5.4249 27.6469C5.87804 27.6469 6.1049 27.9116 6.1049 28.3822V29.941H6.7849V28.3822C6.7849 27.8823 7.10853 27.6469 7.52951 27.6469C7.98294 27.6469 8.20951 27.9116 8.20951 28.3822V29.941H8.95441ZM19.0248 27.1175H17.9239V26.2646H17.2439V27.1175H16.6287V27.6762H17.2438V28.9705C17.2438 29.6176 17.5352 29.9999 18.3125 29.9999C18.6039 29.9999 18.9275 29.9117 19.1544 29.7941L18.96 29.2646C18.7657 29.3822 18.5392 29.4117 18.3772 29.4117C18.0534 29.4117 17.9239 29.2352 17.9239 28.941V27.6762H19.0248V27.1175ZM24.7887 27.0586C24.4001 27.0586 24.1411 27.2352 23.9792 27.4704V27.1175H23.2992V29.941H23.9792V28.3528C23.9792 27.8823 24.2057 27.6175 24.6267 27.6175C24.7562 27.6175 24.9182 27.647 25.0477 27.6764L25.242 27.0882C25.1125 27.0587 24.9182 27.0587 24.7887 27.0587M16.0782 27.3529C15.7543 27.147 15.301 27.0588 14.8152 27.0588C14.0382 27.0588 13.5201 27.4117 13.5201 27.9706C13.5201 28.4413 13.9087 28.7059 14.5887 28.7942L14.9124 28.8236C15.2687 28.8823 15.4629 28.9706 15.4629 29.1177C15.4629 29.3235 15.2039 29.4706 14.7505 29.4706C14.2972 29.4706 13.941 29.3235 13.7143 29.1765L13.3905 29.6471C13.7467 29.8824 14.2325 30 14.718 30C15.6248 30 16.1429 29.6177 16.1429 29.0882C16.1429 28.5882 15.722 28.3235 15.0743 28.2353L14.7505 28.2058C14.459 28.1764 14.2325 28.1177 14.2325 27.9412C14.2325 27.7353 14.459 27.6177 14.8152 27.6177C15.2039 27.6177 15.5925 27.7647 15.7867 27.8529L16.0782 27.3529ZM34.1469 27.0588C33.7582 27.0588 33.4992 27.2353 33.3372 27.4706V27.1177H32.6572V29.9412H33.3372V28.353C33.3372 27.8824 33.5639 27.6177 33.9848 27.6177C34.1144 27.6177 34.2764 27.6471 34.4059 27.6765L34.6001 27.0883C34.4706 27.0588 34.2764 27.0588 34.1469 27.0588ZM25.4687 28.5294C25.4687 29.3823 26.1162 30 27.1201 30C27.5734 30 27.8972 29.9118 28.221 29.6766L27.8972 29.1765C27.6382 29.353 27.3792 29.4412 27.0877 29.4412C26.5372 29.4412 26.1487 29.0882 26.1487 28.5294C26.1487 28.0001 26.5372 27.647 27.0877 27.6177C27.3792 27.6177 27.6382 27.7058 27.8972 27.8824L28.221 27.3824C27.8972 27.147 27.5734 27.0588 27.1201 27.0588C26.1162 27.0588 25.4687 27.6765 25.4687 28.5294ZM31.7506 28.5294V27.1177H31.0706V27.4706C30.8439 27.206 30.5201 27.0588 30.0992 27.0588C29.2249 27.0588 28.5449 27.6765 28.5449 28.5294C28.5449 29.3823 29.2249 30 30.0992 30C30.5525 30 30.8764 29.853 31.0706 29.5883V29.9412H31.7506V28.5294ZM29.2572 28.5294C29.2572 28.0294 29.6134 27.6177 30.1962 27.6177C30.7467 27.6177 31.1354 28.0001 31.1354 28.5294C31.1354 29.0294 30.7467 29.4412 30.1962 29.4412C29.6134 29.4117 29.2572 29.0294 29.2572 28.5294ZM21.1297 27.0588C20.2229 27.0588 19.5752 27.647 19.5752 28.5294C19.5752 29.4118 20.2228 30 21.162 30C21.6152 30 22.0687 29.8824 22.4249 29.6177L22.101 29.1765C21.842 29.353 21.5182 29.4706 21.1944 29.4706C20.7734 29.4706 20.3525 29.2942 20.2552 28.794H22.5544V28.5589C22.5869 27.647 22.0041 27.0588 21.1297 27.0588ZM21.1295 27.5882C21.5503 27.5882 21.842 27.8236 21.9066 28.2648H20.2875C20.3523 27.8824 20.6438 27.5882 21.1295 27.5882ZM38 28.5294V26H37.32V27.4706C37.0933 27.206 36.7695 27.0588 36.3485 27.0588C35.4743 27.0588 34.7943 27.6765 34.7943 28.5294C34.7943 29.3823 35.4743 30 36.3485 30C36.802 30 37.1257 29.853 37.32 29.5883V29.9412H38V28.5294ZM35.5067 28.5294C35.5067 28.0294 35.8628 27.6177 36.4457 27.6177C36.9962 27.6177 37.3848 28.0001 37.3848 28.5294C37.3848 29.0294 36.9962 29.4412 36.4457 29.4412C35.8628 29.4117 35.5067 29.0294 35.5067 28.5294ZM12.7751 28.5294V27.1177H12.0951V27.4706C11.8684 27.206 11.5446 27.0588 11.1236 27.0588C10.2494 27.0588 9.56936 27.6765 9.56936 28.5294C9.56936 29.3823 10.2494 30 11.1236 30C11.5771 30 11.9008 29.853 12.0951 29.5883V29.9412H12.7751V28.5294ZM10.2494 28.5294C10.2494 28.0294 10.6056 27.6177 11.1884 27.6177C11.7389 27.6177 12.1275 28.0001 12.1275 28.5294C12.1275 29.0294 11.7389 29.4412 11.1884 29.4412C10.6056 29.4117 10.2494 29.0294 10.2494 28.5294Z" fill="#330663"/>
<path d="M15.3218 2.38524H26.6779V21.9152H15.3218V2.38524Z" fill="#D93B33"/>
<path d="M16.043 12.15C16.043 8.2688 17.9897 4.82623 20.9819 2.59867C18.7829 0.978704 16.007 -1.14441e-05 12.9787 -1.14441e-05C5.8042 -1.14441e-05 0 5.43366 0 12.15C0 18.8662 5.8042 24.3 12.9785 24.3C16.0068 24.3 18.7827 23.3213 20.9819 21.7012C17.9897 19.5074 16.043 16.0312 16.043 12.15Z" fill="#FF0000"/>
<path d="M41.9999 12.15C41.9999 18.8662 36.1957 24.3 29.0214 24.3C25.9931 24.3 23.2172 23.3213 21.0181 21.7012C24.0464 19.4738 25.9571 16.0312 25.9571 12.15C25.9571 8.2688 24.0102 4.82623 21.0181 2.59867C23.217 0.978704 25.9931 -1.14441e-05 29.0214 -1.14441e-05C36.1957 -1.14441e-05 41.9999 5.46748 41.9999 12.15Z" fill="url(#paint0_linear_4016_8350)"/>
<defs>
<linearGradient id="paint0_linear_4016_8350" x1="1069.55" y1="-0.583211" x2="1069.55" y2="2429.76" gradientUnits="userSpaceOnUse">
<stop stop-color="#F9AA4B"/>
<stop offset="1" stop-color="#F7931A"/>
</linearGradient>
</defs>
</svg>
