<svg width="28" height="24" viewBox="0 0 28 24" fill="none" xmlns="http://www.w3.org/2000/svg">
<path d="M3.3208 4.896C3.33795 4.7134 3.31498 4.52903 3.25372 4.35764C3.19246 4.18626 3.09461 4.03261 2.968 3.909L0.3528 0.5085V0H8.47L14.7448 14.8575L20.2608 0H28V0.5085L25.7642 2.82C25.6695 2.89837 25.5964 3.00284 25.5527 3.12225C25.5091 3.24167 25.4965 3.37154 25.5164 3.498V20.499C25.4965 20.6255 25.5091 20.7553 25.5527 20.8747C25.5964 20.9942 25.6695 21.0986 25.7642 21.177L27.9482 23.49V24H16.9666V23.4915L19.229 21.1215C19.4516 20.8815 19.4516 20.811 19.4516 20.445V6.702L13.1628 23.943H12.3144L4.9924 6.702V18.258C4.9322 18.7425 5.082 19.233 5.3984 19.584L8.3398 23.436V23.943H0V23.436L2.94 19.584C3.09556 19.4101 3.21101 19.1996 3.27712 18.9694C3.34324 18.7391 3.3582 18.4955 3.3208 18.258V4.896Z" fill="#330663"/>
</svg>
