<svg width="32" height="28" viewBox="0 0 32 28" fill="none" xmlns="http://www.w3.org/2000/svg">
<path d="M31.1546 0.523733C30.8261 0.261604 30.4299 0.0899379 30.0082 0.0269349C29.5865 -0.0360681 29.1549 0.01194 28.7592 0.16587L1.45752 10.7742C1.01634 10.9487 0.640731 11.2482 0.380561 11.633C0.120391 12.0178 -0.0120358 12.4696 0.000859785 12.9285C0.0137554 13.3875 0.171364 13.8318 0.452762 14.2025C0.73416 14.5732 1.12604 14.8527 1.57638 15.004L7.46734 16.9722L10.6597 27.1303C10.6658 27.1508 10.6856 27.164 10.6947 27.1831C10.7276 27.2641 10.7756 27.3387 10.8364 27.4031C10.9288 27.5024 11.048 27.575 11.1808 27.6128C11.196 27.6187 11.2067 27.6319 11.222 27.6348H11.2311L11.2357 27.6363C11.3536 27.6607 11.4761 27.6546 11.5907 27.6187C11.6029 27.6157 11.6151 27.6157 11.6288 27.6113C11.7389 27.5742 11.8385 27.5129 11.9198 27.4324C11.929 27.4221 11.9442 27.4207 11.9534 27.4119L16.5445 22.5338L23.2446 27.5277C23.6515 27.8343 24.1528 28 24.6694 28C25.7878 28 26.7524 27.2461 26.9825 26.1945L31.9531 2.70171C32.0374 2.30289 32.0077 1.88952 31.867 1.50569C31.7264 1.12186 31.4802 0.781971 31.1546 0.522266M12.3252 18.9009L11.2479 23.9418L9.00027 16.7874L20.1468 11.1995L12.5324 18.5298C12.427 18.6312 12.3549 18.7603 12.3252 18.9009ZM25.4892 25.8998C25.4606 26.0327 25.3969 26.1564 25.3043 26.2589C25.2117 26.3614 25.0933 26.4392 24.9604 26.4849C24.8308 26.533 24.6904 26.5477 24.5531 26.5276C24.4157 26.5076 24.2862 26.4534 24.1772 26.3706L16.9194 20.9601C16.7677 20.8473 16.5774 20.7938 16.3865 20.8101C16.1956 20.8264 16.018 20.9114 15.8893 21.0481L12.6939 24.4375L13.7697 19.4113L24.7242 8.86605C24.8525 8.74217 24.9306 8.57823 24.9443 8.40382C24.9581 8.22941 24.9066 8.05602 24.7992 7.91493C24.6918 7.77384 24.5355 7.67435 24.3586 7.63441C24.1817 7.59447 23.9957 7.61672 23.8344 7.69713L8.04333 15.6141L2.07465 13.6165C1.9164 13.5662 1.77837 13.4697 1.67978 13.3404C1.58119 13.211 1.52693 13.0553 1.52457 12.8949C1.51697 12.7331 1.56189 12.5731 1.65309 12.4369C1.74429 12.3008 1.87724 12.1953 2.03351 12.1352L29.3307 1.52692C29.4705 1.46972 29.6242 1.45122 29.7744 1.4735C29.9247 1.49578 30.0654 1.55797 30.1809 1.65306C30.2958 1.7425 30.3825 1.86092 30.4315 1.99507C30.4805 2.12923 30.4897 2.27385 30.4583 2.41278L25.4892 25.8998Z" fill="#9A85B5"/>
</svg>
