<svg width="33" height="24" viewBox="0 0 33 24" fill="none" xmlns="http://www.w3.org/2000/svg">
<path d="M31.7938 3.75826C31.6103 3.03185 31.2522 2.3696 30.7553 1.83747C30.2584 1.30533 29.6401 0.921877 28.9618 0.725281C26.4785 0 16.484 0 16.484 0C16.484 0 6.48913 0.0219538 4.00583 0.747235C3.32751 0.943842 2.70912 1.32732 2.21223 1.85948C1.71535 2.39164 1.35732 3.05391 1.17379 3.78035C0.422648 8.50552 0.131268 15.7056 1.19441 20.2417C1.37796 20.9681 1.736 21.6304 2.23288 22.1625C2.72977 22.6947 3.34815 23.0781 4.02646 23.2747C6.50975 24 16.5044 24 16.5044 24C16.5044 24 26.499 24 28.9821 23.2747C29.6605 23.0781 30.2789 22.6947 30.7758 22.1626C31.2727 21.6304 31.6307 20.9682 31.8143 20.2417C32.6066 15.5099 32.8507 8.31423 31.7938 3.75826Z" fill="#FF0000"/>
<path d="M13.3027 17.1427L21.5939 11.9999L13.3027 6.85705V17.1427Z" fill="white"/>
</svg>
