<svg width="162" height="50" viewBox="0 0 162 50" fill="none" xmlns="http://www.w3.org/2000/svg">
<rect x="0.5" y="0.5" width="161" height="49" rx="5.5" fill="black"/>
<rect x="0.5" y="0.5" width="161" height="49" rx="5.5" stroke="#6D6D6D"/>
<path fill-rule="evenodd" clip-rule="evenodd" d="M32.1121 25.7255C32.1393 23.6049 33.2476 21.6461 35.0487 20.5354C33.9073 18.9003 32.0641 17.9008 30.0751 17.8383C27.9825 17.618 25.9539 19.0944 24.8875 19.0944C23.8005 19.0944 22.1587 17.8602 20.3908 17.8967C18.0646 17.9721 15.9486 19.2666 14.8168 21.3065C12.4068 25.4921 14.2044 31.6434 16.5131 35.0266C17.6681 36.6833 19.0181 38.5339 20.7844 38.4683C22.5129 38.3963 23.1585 37.3627 25.2449 37.3627C27.312 37.3627 27.9177 38.4683 29.7199 38.4265C31.5746 38.3963 32.7432 36.7625 33.8577 35.0901C34.6876 33.9097 35.3263 32.605 35.7499 31.2245C33.547 30.2899 32.1147 28.1247 32.1121 25.7255Z" fill="white"/>
<path fill-rule="evenodd" clip-rule="evenodd" d="M28.7078 15.6133C29.7191 14.3955 30.2173 12.8303 30.0967 11.25C28.5517 11.4128 27.1245 12.1535 26.0996 13.3245C25.0875 14.4799 24.5747 15.9915 24.6743 17.5262C26.2401 17.5424 27.7267 16.8374 28.7078 15.6133Z" fill="white"/>
<path d="M51.7867 17.2248V10.9923H53.5811C54.0746 10.9923 54.4896 11.0635 54.826 11.206C55.1625 11.341 55.4354 11.5435 55.6447 11.8135C55.8616 12.076 56.0149 12.3985 56.1046 12.781C56.2018 13.156 56.2504 13.5835 56.2504 14.0635C56.2504 14.5585 56.198 14.9823 56.0934 15.3348C55.9962 15.6798 55.8691 15.9685 55.712 16.201C55.555 16.4335 55.3756 16.6173 55.1737 16.7523C54.9793 16.8873 54.7812 16.9923 54.5793 17.0673C54.3774 17.1348 54.1867 17.1798 54.0073 17.2023C53.8279 17.2173 53.6783 17.2248 53.5587 17.2248H51.7867ZM50.7212 10.0923V18.1248H53.469C54.1344 18.1248 54.7101 18.031 55.1961 17.8435C55.6821 17.656 56.0821 17.386 56.3962 17.0335C56.7102 16.6735 56.942 16.2348 57.0915 15.7173C57.2411 15.1923 57.3158 14.5923 57.3158 13.9173C57.3158 12.6273 56.9831 11.6673 56.3177 11.0373C55.6522 10.4073 54.7027 10.0923 53.469 10.0923H50.7212Z" fill="white"/>
<path d="M59.3806 15.2223C59.3806 14.8698 59.4255 14.5585 59.5152 14.2885C59.6124 14.011 59.7432 13.7785 59.9077 13.591C60.0722 13.4035 60.2629 13.261 60.4797 13.1635C60.704 13.066 60.9395 13.0173 61.1863 13.0173C61.433 13.0173 61.6648 13.066 61.8816 13.1635C62.1059 13.261 62.3003 13.4035 62.4648 13.591C62.6293 13.7785 62.7564 14.011 62.8462 14.2885C62.9434 14.5585 62.992 14.8698 62.992 15.2223C62.992 15.5748 62.9434 15.8898 62.8462 16.1673C62.7564 16.4373 62.6293 16.666 62.4648 16.8535C62.3003 17.0335 62.1059 17.1723 61.8816 17.2698C61.6648 17.3673 61.433 17.416 61.1863 17.416C60.9395 17.416 60.704 17.3673 60.4797 17.2698C60.2629 17.1723 60.0722 17.0335 59.9077 16.8535C59.7432 16.666 59.6124 16.4373 59.5152 16.1673C59.4255 15.8898 59.3806 15.5748 59.3806 15.2223ZM58.3712 15.2223C58.3712 15.6498 58.431 16.0473 58.5507 16.4148C58.6703 16.7823 58.8497 17.1048 59.089 17.3823C59.3283 17.6523 59.6236 17.866 59.975 18.0235C60.3264 18.1735 60.7302 18.2485 61.1863 18.2485C61.6499 18.2485 62.0536 18.1735 62.3975 18.0235C62.749 17.866 63.0443 17.6523 63.2836 17.3823C63.5228 17.1048 63.7023 16.7823 63.8219 16.4148C63.9415 16.0473 64.0013 15.6498 64.0013 15.2223C64.0013 14.7948 63.9415 14.3973 63.8219 14.0298C63.7023 13.6548 63.5228 13.3323 63.2836 13.0623C63.0443 12.7848 62.749 12.5673 62.3975 12.4098C62.0536 12.2523 61.6499 12.1735 61.1863 12.1735C60.7302 12.1735 60.3264 12.2523 59.975 12.4098C59.6236 12.5673 59.3283 12.7848 59.089 13.0623C58.8497 13.3323 58.6703 13.6548 58.5507 14.0298C58.431 14.3973 58.3712 14.7948 58.3712 15.2223Z" fill="white"/>
<path d="M71.0919 18.1248L72.9425 12.3085H71.9555L70.6545 17.0673H70.6321L69.4208 12.3085H68.3778L67.2114 17.0673H67.189L65.8768 12.3085H64.8225L66.6843 18.1248H67.7161L68.8825 13.501H68.9049L70.0825 18.1248H71.0919Z" fill="white"/>
<path d="M74.0731 12.3085V18.1248H75.0264V14.8398C75.0264 14.5773 75.0601 14.3373 75.1274 14.1198C75.2021 13.8948 75.3105 13.6998 75.4526 13.5348C75.5947 13.3698 75.7704 13.2423 75.9797 13.1523C76.1966 13.0623 76.4508 13.0173 76.7424 13.0173C77.1087 13.0173 77.3966 13.1223 77.606 13.3323C77.8153 13.5423 77.92 13.8273 77.92 14.1873V18.1248H78.8733V14.2998C78.8733 13.9848 78.8397 13.6998 78.7724 13.4448C78.7125 13.1823 78.6041 12.9573 78.4471 12.7698C78.2901 12.5823 78.0845 12.436 77.8303 12.331C77.5761 12.226 77.2583 12.1735 76.877 12.1735C76.0171 12.1735 75.3891 12.526 74.9928 13.231H74.9703V12.3085H74.0731Z" fill="white"/>
<path d="M80.5855 10.0923V18.1248H81.5388V10.0923H80.5855Z" fill="white"/>
<path d="M83.9353 15.2223C83.9353 14.8698 83.9802 14.5585 84.0699 14.2885C84.1671 14.011 84.2979 13.7785 84.4624 13.591C84.6269 13.4035 84.8176 13.261 85.0344 13.1635C85.2587 13.066 85.4942 13.0173 85.741 13.0173C85.9877 13.0173 86.2195 13.066 86.4363 13.1635C86.6606 13.261 86.855 13.4035 87.0195 13.591C87.184 13.7785 87.3111 14.011 87.4008 14.2885C87.498 14.5585 87.5466 14.8698 87.5466 15.2223C87.5466 15.5748 87.498 15.8898 87.4008 16.1673C87.3111 16.4373 87.184 16.666 87.0195 16.8535C86.855 17.0335 86.6606 17.1723 86.4363 17.2698C86.2195 17.3673 85.9877 17.416 85.741 17.416C85.4942 17.416 85.2587 17.3673 85.0344 17.2698C84.8176 17.1723 84.6269 17.0335 84.4624 16.8535C84.2979 16.666 84.1671 16.4373 84.0699 16.1673C83.9802 15.8898 83.9353 15.5748 83.9353 15.2223ZM82.9259 15.2223C82.9259 15.6498 82.9857 16.0473 83.1054 16.4148C83.225 16.7823 83.4044 17.1048 83.6437 17.3823C83.883 17.6523 84.1783 17.866 84.5297 18.0235C84.8811 18.1735 85.2849 18.2485 85.741 18.2485C86.2045 18.2485 86.6083 18.1735 86.9522 18.0235C87.3036 17.866 87.599 17.6523 87.8382 17.3823C88.0775 17.1048 88.257 16.7823 88.3766 16.4148C88.4962 16.0473 88.556 15.6498 88.556 15.2223C88.556 14.7948 88.4962 14.3973 88.3766 14.0298C88.257 13.6548 88.0775 13.3323 87.8382 13.0623C87.599 12.7848 87.3036 12.5673 86.9522 12.4098C86.6083 12.2523 86.2045 12.1735 85.741 12.1735C85.2849 12.1735 84.8811 12.2523 84.5297 12.4098C84.1783 12.5673 83.883 12.7848 83.6437 13.0623C83.4044 13.3323 83.225 13.6548 83.1054 14.0298C82.9857 14.3973 82.9259 14.7948 82.9259 15.2223Z" fill="white"/>
<path d="M95.041 18.1023C94.8765 18.1998 94.6484 18.2485 94.3568 18.2485C94.1101 18.2485 93.912 18.181 93.7624 18.046C93.6204 17.9035 93.5493 17.6748 93.5493 17.3598C93.2876 17.6748 92.9811 17.9035 92.6297 18.046C92.2857 18.181 91.9119 18.2485 91.5081 18.2485C91.2464 18.2485 90.996 18.2185 90.7567 18.1585C90.5249 18.0985 90.323 18.0048 90.1511 17.8773C89.9791 17.7498 89.8408 17.5848 89.7361 17.3823C89.6389 17.1723 89.5903 16.921 89.5903 16.6285C89.5903 16.2985 89.6464 16.0285 89.7585 15.8185C89.8707 15.6085 90.0165 15.4398 90.1959 15.3123C90.3829 15.1773 90.5922 15.076 90.824 15.0085C91.0633 14.941 91.3063 14.8848 91.553 14.8398C91.8147 14.7873 92.0614 14.7498 92.2932 14.7273C92.5325 14.6973 92.7418 14.6598 92.9213 14.6148C93.1007 14.5623 93.2428 14.491 93.3475 14.401C93.4521 14.3035 93.5045 14.1648 93.5045 13.9848C93.5045 13.7748 93.4633 13.606 93.3811 13.4785C93.3063 13.351 93.2054 13.2535 93.0783 13.186C92.9587 13.1185 92.8203 13.0735 92.6633 13.051C92.5138 13.0285 92.3642 13.0173 92.2147 13.0173C91.8109 13.0173 91.4745 13.096 91.2053 13.2535C90.9361 13.4035 90.7903 13.6923 90.7679 14.1198H89.8146C89.8296 13.7598 89.9043 13.456 90.0389 13.2085C90.1735 12.961 90.3529 12.7623 90.5773 12.6123C90.8016 12.4548 91.0558 12.3423 91.3399 12.2748C91.6315 12.2073 91.9418 12.1735 92.2708 12.1735C92.5325 12.1735 92.7904 12.1923 93.0446 12.2298C93.3063 12.2673 93.5419 12.346 93.7512 12.466C93.9606 12.5785 94.1288 12.7398 94.2559 12.9498C94.383 13.1598 94.4466 13.4335 94.4466 13.771V16.7635C94.4466 16.9885 94.4578 17.1535 94.4802 17.2585C94.5101 17.3635 94.5998 17.416 94.7494 17.416C94.8316 17.416 94.9288 17.3973 95.041 17.3598V18.1023ZM93.4933 15.121C93.3736 15.211 93.2166 15.2785 93.0222 15.3235C92.8278 15.361 92.6222 15.3948 92.4054 15.4248C92.196 15.4473 91.9829 15.4773 91.7661 15.5148C91.5493 15.5448 91.3549 15.5973 91.1829 15.6723C91.0109 15.7473 90.8689 15.856 90.7567 15.9985C90.652 16.1335 90.5997 16.321 90.5997 16.561C90.5997 16.7185 90.6296 16.8535 90.6894 16.966C90.7567 17.071 90.8389 17.1573 90.9361 17.2248C91.0408 17.2923 91.1605 17.341 91.295 17.371C91.4296 17.401 91.5717 17.416 91.7212 17.416C92.0353 17.416 92.3044 17.3748 92.5287 17.2923C92.753 17.2023 92.9362 17.0935 93.0783 16.966C93.2203 16.831 93.325 16.6885 93.3923 16.5385C93.4596 16.381 93.4933 16.2348 93.4933 16.0998V15.121Z" fill="white"/>
<path d="M96.8479 15.2673C96.8479 14.9823 96.8778 14.7048 96.9376 14.4348C96.9974 14.1648 97.0946 13.9248 97.2292 13.7148C97.3638 13.5048 97.5432 13.336 97.7675 13.2085C97.9918 13.081 98.2648 13.0173 98.5863 13.0173C98.9152 13.0173 99.1956 13.081 99.4274 13.2085C99.6592 13.3285 99.8461 13.4898 99.9882 13.6923C100.138 13.8948 100.246 14.131 100.313 14.401C100.381 14.6635 100.414 14.9373 100.414 15.2223C100.414 15.4923 100.381 15.7585 100.313 16.021C100.254 16.2835 100.153 16.5198 100.011 16.7298C99.8686 16.9323 99.6854 17.0973 99.4611 17.2248C99.2368 17.3523 98.9639 17.416 98.6423 17.416C98.3358 17.416 98.0666 17.356 97.8348 17.236C97.6105 17.116 97.4236 16.9548 97.2741 16.7523C97.132 16.5498 97.0236 16.321 96.9488 16.066C96.8815 15.8035 96.8479 15.5373 96.8479 15.2673ZM101.334 18.1248V10.0923H100.381V13.0848H100.358C100.254 12.9123 100.123 12.7698 99.9658 12.6573C99.8162 12.5373 99.6555 12.4435 99.4835 12.376C99.3115 12.301 99.1396 12.2485 98.9676 12.2185C98.7956 12.1885 98.6349 12.1735 98.4853 12.1735C98.0442 12.1735 97.6554 12.256 97.3189 12.421C96.9899 12.5785 96.7133 12.796 96.489 13.0735C96.2722 13.3435 96.1077 13.6623 95.9955 14.0298C95.8908 14.3973 95.8385 14.7873 95.8385 15.1998C95.8385 15.6123 95.8946 16.0023 96.0067 16.3698C96.1189 16.7373 96.2834 17.0598 96.5002 17.3373C96.7245 17.6148 97.0012 17.836 97.3301 18.001C97.6666 18.166 98.0591 18.2485 98.5078 18.2485C98.9115 18.2485 99.2816 18.1773 99.6181 18.0348C99.9545 17.8923 100.201 17.6598 100.358 17.3373H100.381V18.1248H101.334Z" fill="white"/>
<path d="M107.066 15.2223C107.066 14.8698 107.111 14.5585 107.201 14.2885C107.298 14.011 107.429 13.7785 107.593 13.591C107.758 13.4035 107.948 13.261 108.165 13.1635C108.39 13.066 108.625 13.0173 108.872 13.0173C109.119 13.0173 109.35 13.066 109.567 13.1635C109.791 13.261 109.986 13.4035 110.15 13.591C110.315 13.7785 110.442 14.011 110.532 14.2885C110.629 14.5585 110.678 14.8698 110.678 15.2223C110.678 15.5748 110.629 15.8898 110.532 16.1673C110.442 16.4373 110.315 16.666 110.15 16.8535C109.986 17.0335 109.791 17.1723 109.567 17.2698C109.35 17.3673 109.119 17.416 108.872 17.416C108.625 17.416 108.39 17.3673 108.165 17.2698C107.948 17.1723 107.758 17.0335 107.593 16.8535C107.429 16.666 107.298 16.4373 107.201 16.1673C107.111 15.8898 107.066 15.5748 107.066 15.2223ZM106.057 15.2223C106.057 15.6498 106.117 16.0473 106.236 16.4148C106.356 16.7823 106.535 17.1048 106.775 17.3823C107.014 17.6523 107.309 17.866 107.661 18.0235C108.012 18.1735 108.416 18.2485 108.872 18.2485C109.335 18.2485 109.739 18.1735 110.083 18.0235C110.435 17.866 110.73 17.6523 110.969 17.3823C111.208 17.1048 111.388 16.7823 111.507 16.4148C111.627 16.0473 111.687 15.6498 111.687 15.2223C111.687 14.7948 111.627 14.3973 111.507 14.0298C111.388 13.6548 111.208 13.3323 110.969 13.0623C110.73 12.7848 110.435 12.5673 110.083 12.4098C109.739 12.2523 109.335 12.1735 108.872 12.1735C108.416 12.1735 108.012 12.2523 107.661 12.4098C107.309 12.5673 107.014 12.7848 106.775 13.0623C106.535 13.3323 106.356 13.6548 106.236 14.0298C106.117 14.3973 106.057 14.7948 106.057 15.2223Z" fill="white"/>
<path d="M113.035 12.3085V18.1248H113.988V14.8398C113.988 14.5773 114.022 14.3373 114.089 14.1198C114.164 13.8948 114.273 13.6998 114.415 13.5348C114.557 13.3698 114.732 13.2423 114.942 13.1523C115.159 13.0623 115.413 13.0173 115.704 13.0173C116.071 13.0173 116.359 13.1223 116.568 13.3323C116.777 13.5423 116.882 13.8273 116.882 14.1873V18.1248H117.835V14.2998C117.835 13.9848 117.802 13.6998 117.734 13.4448C117.675 13.1823 117.566 12.9573 117.409 12.7698C117.252 12.5823 117.047 12.436 116.792 12.331C116.538 12.226 116.22 12.1735 115.839 12.1735C114.979 12.1735 114.351 12.526 113.955 13.231H113.932V12.3085H113.035Z" fill="white"/>
<path d="M124.161 12.3085V10.5648H123.207V12.3085H122.22V13.1523H123.207V16.8535C123.207 17.1235 123.234 17.341 123.286 17.506C123.338 17.671 123.417 17.7985 123.521 17.8885C123.634 17.9785 123.776 18.0423 123.948 18.0798C124.127 18.1098 124.34 18.1248 124.587 18.1248H125.316V17.281H124.878C124.729 17.281 124.606 17.2773 124.508 17.2698C124.419 17.2548 124.348 17.2285 124.295 17.191C124.243 17.1535 124.206 17.101 124.183 17.0335C124.168 16.966 124.161 16.876 124.161 16.7635V13.1523H125.316V12.3085H124.161Z" fill="white"/>
<path d="M126.599 10.0923V18.1248H127.553V14.8398C127.553 14.5773 127.586 14.3373 127.653 14.1198C127.728 13.8948 127.837 13.6998 127.979 13.5348C128.121 13.3698 128.296 13.2423 128.506 13.1523C128.723 13.0623 128.977 13.0173 129.268 13.0173C129.635 13.0173 129.923 13.1223 130.132 13.3323C130.341 13.5423 130.446 13.8273 130.446 14.1873V18.1248H131.399V14.2998C131.399 13.9848 131.366 13.6998 131.298 13.4448C131.239 13.1823 131.13 12.9573 130.973 12.7698C130.816 12.5823 130.611 12.436 130.356 12.331C130.102 12.226 129.784 12.1735 129.403 12.1735C129.231 12.1735 129.052 12.1923 128.865 12.2298C128.685 12.2673 128.51 12.3273 128.338 12.4098C128.173 12.4848 128.024 12.586 127.889 12.7135C127.754 12.8335 127.65 12.9835 127.575 13.1635H127.553V10.0923H126.599Z" fill="white"/>
<path d="M137.082 14.6598H133.751C133.766 14.4348 133.814 14.2248 133.897 14.0298C133.979 13.8273 134.091 13.651 134.233 13.501C134.375 13.351 134.543 13.2348 134.738 13.1523C134.94 13.0623 135.164 13.0173 135.411 13.0173C135.65 13.0173 135.867 13.0623 136.061 13.1523C136.263 13.2348 136.435 13.351 136.577 13.501C136.727 13.6435 136.843 13.816 136.925 14.0185C137.015 14.221 137.067 14.4348 137.082 14.6598ZM138.002 16.2798H137.059C136.977 16.6623 136.805 16.9473 136.544 17.1348C136.289 17.3223 135.96 17.416 135.557 17.416C135.243 17.416 134.97 17.3635 134.738 17.2585C134.506 17.1535 134.315 17.0148 134.166 16.8423C134.016 16.6623 133.908 16.4598 133.841 16.2348C133.773 16.0023 133.743 15.7585 133.751 15.5035H138.091C138.106 15.151 138.073 14.7798 137.99 14.3898C137.916 13.9998 137.773 13.6398 137.564 13.3098C137.362 12.9798 137.089 12.7098 136.745 12.4998C136.409 12.2823 135.983 12.1735 135.467 12.1735C135.071 12.1735 134.704 12.2485 134.368 12.3985C134.039 12.5485 133.751 12.7585 133.504 13.0285C133.265 13.2985 133.078 13.6173 132.943 13.9848C132.809 14.3523 132.741 14.7573 132.741 15.1998C132.756 15.6423 132.82 16.051 132.932 16.426C133.052 16.801 133.227 17.1235 133.459 17.3935C133.691 17.6635 133.975 17.8735 134.312 18.0235C134.656 18.1735 135.059 18.2485 135.523 18.2485C136.181 18.2485 136.727 18.0835 137.16 17.7535C137.594 17.4235 137.874 16.9323 138.002 16.2798Z" fill="white"/>
<path d="M70.931 27.4708C73.7944 27.4708 75.682 29.7413 75.682 33.2484C75.682 36.7652 73.8054 39.0247 70.9736 39.0247C69.5099 39.1015 68.1311 38.3325 67.4238 37.0447H67.3702V42.6502H65.0543V27.5892H67.296V29.4715H67.3386C68.0773 28.1918 69.4576 27.4231 70.931 27.4708ZM83.3487 27.4708C86.2122 27.4708 88.0997 29.7413 88.0997 33.2484C88.0997 36.7652 86.2232 39.0247 83.3913 39.0247C81.9276 39.1015 80.5488 38.3325 79.8415 37.0447H79.7879V42.6502H77.4721V27.5892H79.7137V29.4715H79.7563C80.495 28.1918 81.8753 27.4231 83.3487 27.4708ZM99.9747 23.125C103.245 23.125 105.486 24.9646 105.562 27.6428H103.224C103.084 26.0938 101.807 25.1587 99.9418 25.1587C98.0762 25.1587 96.7996 26.1047 96.7996 27.4817C96.7996 28.5791 97.615 29.2249 99.6096 29.7192L101.315 30.1391C104.49 30.8923 105.809 32.1716 105.809 34.4421C105.809 37.3462 103.503 39.165 99.8347 39.165C96.4029 39.165 94.0858 37.3889 93.9362 34.5813L96.3068 34.5814C96.4784 36.1207 97.9692 37.1314 100.006 37.1314C101.958 37.1314 103.363 36.1206 103.363 34.7327C103.363 33.5278 102.516 32.8064 100.51 32.312L98.5046 31.8274C95.663 31.1389 94.3439 29.8059 94.3439 27.6428C94.3439 24.9646 96.6707 23.125 99.9747 23.125ZM119.546 27.45C122.817 27.45 124.898 29.6875 124.898 33.2484C124.898 36.8189 122.828 39.0467 119.546 39.0467C116.265 39.0467 114.195 36.8189 114.195 33.2484C114.195 29.6876 116.285 27.45 119.546 27.45ZM138.299 27.45C141.42 27.45 143.383 29.6009 143.383 33.0323V33.8282H135.415V33.9686C135.34 34.8111 135.63 35.6451 136.211 36.2584C136.792 36.8717 137.607 37.2052 138.45 37.1741C139.574 37.2798 140.633 36.6324 141.055 35.5823L143.254 35.5823C142.943 37.6368 140.948 39.0467 138.396 39.0467C135.114 39.0467 133.077 36.8409 133.077 33.3021C133.077 29.7523 135.125 27.45 138.299 27.45ZM110.807 24.9109V27.5892H112.952V29.4288H110.807V35.6678C110.807 36.637 111.236 37.0887 112.179 37.0887C112.434 37.0842 112.688 37.0663 112.941 37.0349V38.8636C112.517 38.943 112.086 38.979 111.655 38.971C109.371 38.971 108.48 38.1104 108.48 35.9156V29.4288H106.839V27.5892H108.48V24.9109H110.807ZM58.0289 23.3838L63.6159 38.9063H61.0749L59.6597 34.7108H53.7611L52.3446 38.9063H49.8462L55.4332 23.3838H58.0289ZM131.783 27.4707C132.05 27.4698 132.316 27.4989 132.577 27.5574V29.7303C132.24 29.627 131.888 29.5796 131.536 29.5899C130.855 29.5622 130.196 29.8344 129.732 30.335C129.269 30.8355 129.046 31.5145 129.123 32.1936V38.9063H126.807V27.5892H129.016V29.5154H129.069C129.378 28.2754 130.51 27.422 131.783 27.4707ZM119.546 29.3641C117.669 29.3641 116.554 30.8167 116.554 33.2484C116.554 35.7008 117.669 37.1314 119.546 37.1314C121.422 37.1314 122.538 35.7008 122.538 33.2484C122.538 30.8057 121.422 29.3641 119.546 29.3641ZM70.3201 29.4507C68.5507 29.4507 67.3605 30.9888 67.3605 33.2484C67.3605 35.5286 68.5507 37.0557 70.3201 37.0557C72.1212 37.0557 73.3016 35.5604 73.3016 33.2484C73.3016 30.9571 72.1212 29.4507 70.3201 29.4507ZM82.7378 29.4507C80.9684 29.4507 79.7782 30.9888 79.7782 33.2484C79.7782 35.5286 80.9684 37.0557 82.7378 37.0557C84.5389 37.0557 85.7194 35.5604 85.7194 33.2484C85.7194 30.9571 84.5389 29.4507 82.7378 29.4507ZM56.7427 25.9656H56.6782L54.372 32.7747H59.0476L56.7427 25.9656ZM138.299 29.3323C137.537 29.3278 136.805 29.6286 136.266 30.168C135.726 30.7074 135.424 31.4406 135.426 32.2047H141.066C141.108 31.4476 140.833 30.7072 140.308 30.162C139.783 29.6167 139.055 29.3161 138.299 29.3323Z" fill="white"/>
</svg>
