<svg width="28" height="28" viewBox="0 0 28 28" fill="none" xmlns="http://www.w3.org/2000/svg">
<rect width="28" height="28" rx="14" fill="#F8FAFC"/>
<path d="M23.3336 13.9179C23.3336 13.3035 23.2798 12.7201 23.1874 12.1523H14.4883V15.6601H19.4691C19.2458 16.8112 18.5915 17.7835 17.6215 18.4446V20.7779H20.593C22.3329 19.1523 23.3336 16.7568 23.3336 13.9179Z" fill="#4285F4"/>
<path d="M14.4871 23.0415C16.9813 23.0415 19.0676 22.2015 20.5918 20.7781L17.6203 18.4448C16.7889 19.0048 15.7342 19.347 14.4871 19.347C12.0775 19.347 10.0375 17.7059 9.30612 15.4893H6.24219V17.8926C7.75876 20.9415 10.8766 23.0415 14.4871 23.0415Z" fill="#34A853"/>
<path d="M9.30701 15.489C9.11455 14.929 9.01447 14.3301 9.01447 13.7079C9.01447 13.0857 9.12225 12.4868 9.30701 11.9268V9.52344H6.24308C5.61182 10.7834 5.25 12.199 5.25 13.7079C5.25 15.2168 5.61182 16.6323 6.24308 17.8923L9.30701 15.489Z" fill="#FBBC05"/>
<path d="M14.4871 8.06944C15.8497 8.06944 17.066 8.54389 18.0283 9.46944L20.6611 6.80944C19.0676 5.30056 16.9813 4.375 14.4871 4.375C10.8766 4.375 7.75875 6.475 6.24219 9.52389L9.30612 11.9272C10.0375 9.71056 12.0775 8.06944 14.4871 8.06944Z" fill="#EA4335"/>
</svg>
