<svg width="40" height="40" viewBox="0 0 40 40" fill="none" xmlns="http://www.w3.org/2000/svg">
<path fill-rule="evenodd" clip-rule="evenodd" d="M29.1429 7.42857H20C19.0907 7.42857 18.2186 7.7898 17.5756 8.43278C16.9327 9.07576 16.5714 9.94783 16.5714 10.8571V13.1429H20C21.8186 13.1429 23.5628 13.8653 24.8487 15.1513C26.1347 16.4372 26.8571 18.1814 26.8571 20V23.4286H29.1429C30.0522 23.4286 30.9242 23.0673 31.5672 22.4244C32.2102 21.7814 32.5714 20.9093 32.5714 20V10.8571C32.5714 9.94783 32.2102 9.07576 31.5672 8.43278C30.9242 7.7898 30.0522 7.42857 29.1429 7.42857ZM26.8571 26.8571H29.1429C30.9615 26.8571 32.7056 26.1347 33.9916 24.8487C35.2776 23.5628 36 21.8186 36 20V10.8571C36 9.03852 35.2776 7.29437 33.9916 6.00841C32.7056 4.72245 30.9615 4 29.1429 4H20C18.1814 4 16.4372 4.72245 15.1513 6.00841C13.8653 7.29437 13.1429 9.03852 13.1429 10.8571V13.1429H10.8571C9.03852 13.1429 7.29437 13.8653 6.00841 15.1513C4.72245 16.4372 4 18.1814 4 20V29.1429C4 30.9615 4.72245 32.7056 6.00841 33.9916C7.29437 35.2776 9.03852 36 10.8571 36H20C21.8186 36 23.5628 35.2776 24.8487 33.9916C26.1347 32.7056 26.8571 30.9615 26.8571 29.1429V26.8571ZM10.8571 16.5714H20C20.9093 16.5714 21.7814 16.9327 22.4244 17.5756C23.0673 18.2186 23.4286 19.0907 23.4286 20V29.1429C23.4286 30.0522 23.0673 30.9242 22.4244 31.5672C21.7814 32.2102 20.9093 32.5714 20 32.5714H10.8571C9.94783 32.5714 9.07576 32.2102 8.43278 31.5672C7.7898 30.9242 7.42857 30.0522 7.42857 29.1429V20C7.42857 19.0907 7.7898 18.2186 8.43278 17.5756C9.07576 16.9327 9.94783 16.5714 10.8571 16.5714Z" fill="#9A85B5"/>
</svg>
