<svg width="40" height="40" viewBox="0 0 40 40" fill="none" xmlns="http://www.w3.org/2000/svg">
<path d="M32.0336 22.7535C31.9683 22.8066 31.9152 22.8712 31.8775 22.9435C31.8397 23.0158 31.8181 23.0943 31.8138 23.1744C31.7356 24.6709 31.6018 26.1645 31.4126 27.6526C31.1655 29.5993 29.4549 31.1486 27.3207 31.3687C21.8905 31.9227 16.4105 31.9227 10.9803 31.3687C9.94377 31.2626 8.97631 30.8382 8.23394 30.164C7.49156 29.4898 7.01755 28.6051 6.88835 27.6526C6.24495 22.5891 6.24495 17.4738 6.88835 12.4102C7.01749 11.4576 7.49144 10.5727 8.23379 9.89823C8.97614 9.2238 9.94363 8.79913 10.9803 8.69268C14.5628 8.32737 18.1695 8.20298 21.7717 8.32049C22.0333 8.32787 22.2531 8.1462 22.2724 7.90693L22.3526 6.86862C22.3559 6.80781 22.3623 6.74719 22.3719 6.68695C22.4104 6.40042 22.1954 6.11684 21.8792 6.1065C18.1523 5.98383 14.4205 6.11218 10.7139 6.49051C7.48529 6.82431 4.87769 9.16384 4.49899 12.1518C3.83367 17.387 3.83367 22.6758 4.49899 27.9111C4.87769 30.8976 7.48369 33.2386 10.7139 33.5709C16.3217 34.1425 21.9809 34.1425 27.5887 33.5709C30.8173 33.2386 33.4249 30.8975 33.8036 27.9096C34.0744 25.7777 34.235 23.6352 34.285 21.4892C34.2914 21.2189 33.932 21.086 33.7282 21.2765C33.1826 21.7876 32.6177 22.2794 32.0336 22.7535Z" fill="#9A85B5"/>
<path d="M12.5193 24.9043C12.3468 24.8605 12.1952 24.765 12.0885 24.6328C11.9818 24.5006 11.9261 24.3393 11.9304 24.1747L12.0267 20.5369C12.092 18.0314 13.2193 15.6487 15.1676 13.8979C17.116 12.1471 19.731 11.167 22.4539 11.1669H24.471C24.5129 10.2455 24.5702 9.32479 24.6427 8.405L24.7518 7.03141C24.7667 6.83942 24.8356 6.6543 24.9517 6.49419C25.0677 6.33409 25.227 6.2045 25.4139 6.11812C25.6008 6.03174 25.8088 5.99155 26.0177 6.00148C26.2265 6.01141 26.429 6.07112 26.6052 6.17476C29.9284 8.12948 32.8174 10.6482 35.118 13.5966L35.8497 14.5344C35.9476 14.6599 36.0002 14.8105 36.0002 14.965C36.0002 15.1195 35.9476 15.27 35.8497 15.3955L35.118 16.3334C32.8172 19.2813 29.9283 21.7994 26.6052 23.7537C26.4617 23.8382 26.3004 23.8938 26.1319 23.9169C25.9634 23.9401 25.7915 23.9302 25.6274 23.8879C25.4634 23.8457 25.3109 23.772 25.1799 23.6718C25.0489 23.5715 24.9424 23.447 24.8673 23.3062C24.8018 23.1786 24.7626 23.0409 24.7518 22.9L24.6427 21.525C24.5561 20.4283 24.4914 19.3302 24.4485 18.2313L23.8804 18.1516C22.1118 17.9062 20.3039 18.1612 18.6962 18.8829C17.0886 19.6045 15.7571 20.7587 14.8782 22.1926L13.4308 24.5557C13.3428 24.699 13.2053 24.8111 13.0402 24.8743C12.875 24.9374 12.6917 24.948 12.5193 24.9043Z" fill="#9A85B5"/>
</svg>
