<svg width="80" height="80" viewBox="0 0 80 80" fill="none" xmlns="http://www.w3.org/2000/svg">
<path d="M56.4746 18.4536C52.1356 18.4536 47.9322 20.1168 44.4068 23.1409L43.5932 23.7457L43.8644 24.8041C44.2712 26.0137 44.8136 27.2234 45.2203 28.2818L46.0339 30.0962L47.3898 28.7354C49.8305 26.1649 53.0847 24.8041 56.339 24.8041C63.7966 24.8041 69.7627 31.6082 69.7627 39.7732C69.7627 48.0893 63.661 54.7423 56.339 54.7423C51.0508 54.7423 46.1695 51.2646 44 45.6701C43.7288 44.7629 43.4576 44.0069 43.1864 43.0997C42.9153 41.89 42.7797 40.8316 42.7797 39.622C42.7797 36.5979 42.2373 33.5739 41.017 30.701C40.7458 30.0962 40.6102 29.6426 40.339 29.189C39.9322 28.433 39.5254 27.8282 39.1186 27.0722C35.4576 21.4777 29.6271 18 23.3898 18C12.678 18 4 27.677 4 39.622C4 51.567 12.678 61.244 23.3898 61.244C27.7288 61.244 31.9322 59.5808 35.4576 56.4055L36.4068 55.4983L35.4576 53.9863C35.1864 53.3814 34.7797 52.9278 34.3729 52.323L33.2881 50.6598L32.2034 51.7182C29.7627 53.9863 26.7797 55.1959 23.661 55.1959C16.2034 55.1959 10.2373 48.3918 10.2373 40.2268C10.2373 31.9106 16.339 25.2577 23.661 25.2577C28.9492 25.2577 33.8305 28.7354 36 34.3299C36.2712 35.2371 36.5424 35.9931 36.8136 36.9003C37.0847 38.11 37.2203 39.1684 37.2203 40.378C37.2203 43.4021 37.7627 46.4261 38.9831 49.299C39.2542 49.9038 39.3898 50.3574 39.661 50.811C40.0678 51.567 40.4746 52.1718 40.8814 52.9278C44.5424 58.5223 50.3729 62 56.6102 62C67.322 62 76 52.323 76 40.378C75.8644 28.1306 67.1864 18.4536 56.4746 18.4536Z" fill="#254A2C"/>
</svg>
