<svg width="197" height="190" viewBox="0 0 197 190" fill="none" xmlns="http://www.w3.org/2000/svg">
<path d="M125.201 185.042C68.1281 201.541 20.312 175.821 4.89591 122.658C-10.7217 68.7999 16.0358 21.8982 73.1084 5.39905C124.961 -9.59105 171.357 8.63063 183.851 51.7171L184.859 55.1918L147.622 65.9565L147.018 63.8717C139.259 37.1164 115.942 29.5463 82.1861 39.305C43.2096 50.5727 31.1496 74.0189 42.1323 111.893C52.9136 149.073 75.7547 162.806 114.731 151.538C148.488 141.78 164.147 122.942 156.389 96.1865L155.683 93.7542L192.92 82.9895L194.028 86.8117C206.522 129.898 177.053 170.052 125.201 185.042Z" fill="#131313"/>
</svg>
