<svg width="413" height="60" viewBox="0 0 413 60" fill="none" xmlns="http://www.w3.org/2000/svg">
<path d="M24.0558 59.2565C9.49805 59.2565 0 50.1066 0 36.7739C0 23.2669 9.49805 14.2041 24.0558 14.2041C37.2821 14.2041 46.9576 21.5241 46.9576 32.3297V33.2011H37.4596V32.6782C37.4596 25.9683 32.4887 22.6569 23.8783 22.6569C13.9364 22.6569 9.49805 27.2754 9.49805 36.7739C9.49805 46.0981 13.9364 50.8038 23.8783 50.8038C32.4887 50.8038 37.4596 47.4924 37.4596 40.7824V40.1724H46.9576V41.131C46.9576 51.9366 37.2821 59.2565 24.0558 59.2565Z" fill="white"/>
<path d="M67.0072 59.2565C57.8642 59.2565 52.0943 55.0737 52.0943 47.9281C52.0943 41.2181 57.5979 37.7325 66.297 36.7739L86.3583 34.6825V32.1554C86.3583 25.0097 83.1627 22.4826 74.7299 22.4826C66.5633 22.4826 62.5688 25.0969 62.5688 31.4582V31.8068H53.0708V31.4582C53.0708 21.6112 61.4148 14.2041 75.44 14.2041C89.4652 14.2041 95.7676 21.6983 95.7676 32.0682V58.3851H86.9797V47.5795H86.3583C84.0504 54.8994 77.0378 59.2565 67.0072 59.2565ZM61.6811 47.3181C61.6811 50.8038 64.0779 52.4595 69.5814 52.4595C79.612 52.4595 86.3583 48.7995 86.3583 40.2596L69.0488 42.1767C64.0779 42.7867 61.6811 43.9195 61.6811 47.3181Z" fill="white"/>
<path d="M113.912 58.3851H104.325V15.0756H113.113V26.7526H113.735C115.066 19.7812 119.859 14.2041 128.914 14.2041C138.944 14.2041 143.294 21.2626 143.294 29.454V35.1182H133.796V31.284C133.796 25.0969 131.133 22.2212 124.564 22.2212C117.019 22.2212 113.912 26.3169 113.912 34.0725V58.3851Z" fill="white"/>
<path d="M171.507 59.2565C157.038 59.2565 147.54 51.2395 147.54 36.7739C147.54 23.2669 156.949 14.2041 171.33 14.2041C185 14.2041 194.32 21.6112 194.32 34.7696C194.32 36.3382 194.231 37.5582 193.965 38.8653H156.506C156.861 47.2309 161.033 51.6752 171.241 51.6752C180.473 51.6752 184.29 48.7123 184.29 43.571V42.8738H193.876V43.6581C193.876 52.8952 184.645 59.2565 171.507 59.2565ZM171.152 21.6112C161.388 21.6112 157.127 25.8812 156.594 33.6368H185.266V33.4625C185.266 25.4454 180.561 21.6112 171.152 21.6112Z" fill="white"/>
<path d="M203.098 23.354H199.903V17.6027H202.832C204.341 17.6027 205.051 17.167 205.051 15.337V13.507H199.725V0H211.798V15.2498C211.798 20.7398 208.602 23.354 203.098 23.354Z" fill="#CD1111"/>
<path d="M227.713 58.3851H218.925V0H228.511V26.8397H229.044C230.819 19.5198 236.678 14.2041 247.241 14.2041C260.823 14.2041 268.279 23.2669 268.279 36.7739C268.279 50.1066 260.734 59.2565 246.709 59.2565C236.678 59.2565 230.198 54.5509 228.334 45.9238H227.713V58.3851ZM228.511 37.2096C228.511 46.2724 234.193 50.6295 243.691 50.6295C253.366 50.6295 258.692 47.1438 258.692 36.7739C258.692 26.3169 253.277 22.744 243.868 22.744C233.926 22.744 228.511 27.2754 228.511 36.5125V37.2096Z" fill="white"/>
<path d="M297.471 59.2565C282.824 59.2565 272.971 50.1066 272.971 36.7739C272.971 23.2669 282.824 14.2041 297.471 14.2041C312.206 14.2041 322.059 23.2669 322.059 36.7739C322.059 50.1066 312.206 59.2565 297.471 59.2565ZM297.471 50.8909C308.212 50.8909 312.65 45.9238 312.65 36.7739C312.65 27.5369 308.212 22.4826 297.471 22.4826C286.819 22.4826 282.38 27.5369 282.38 36.7739C282.38 45.9238 286.819 50.8909 297.471 50.8909Z" fill="white"/>
<path d="M347.391 59.2565C334.964 59.2565 328.927 51.1523 328.927 41.131V15.0756H338.426V38.6039C338.426 46.7081 342.242 50.8038 351.563 50.8038C361.327 50.8038 365.854 45.9238 365.854 36.5125V15.0756H375.353V58.3851H366.565V44.9652H366.032C364.612 52.2852 358.753 59.2565 347.391 59.2565Z" fill="white"/>
<path d="M413 58.3851H402.881C393.383 58.3851 387.524 54.2894 387.524 43.7453V22.9183H380.068V15.0756H387.524V5.57708H397.022V15.0756H413V22.9183H397.022V43.2224C397.022 48.5381 399.508 49.9323 405.011 49.9323H413V58.3851Z" fill="white"/>
</svg>
