<svg width="180" height="35" viewBox="0 0 180 35" fill="none" xmlns="http://www.w3.org/2000/svg">
<path fill-rule="evenodd" clip-rule="evenodd" d="M0 17.0838C0 7.64868 7.64868 0 17.0838 0H36.7302C39.089 0 41.0011 1.91217 41.0011 4.27095L41.0011 17.0838C41.0011 26.5189 33.3524 34.1676 23.9173 34.1676H4.27095C1.91217 34.1676 0 32.2554 0 29.8966V17.0838ZM29.6926 23.1667C30.1876 24.362 30.4425 25.643 30.4425 26.9368L20.5908 26.9368L20.5908 17.0851C21.8845 17.0851 23.1656 17.3399 24.3609 17.835C25.5561 18.3301 26.6422 19.0558 27.557 19.9706C28.4718 20.8854 29.1975 21.9714 29.6926 23.1667ZM20.5912 7.23337C20.5912 8.52712 20.846 9.80819 21.3411 11.0035C21.8362 12.1987 22.5619 13.2848 23.4767 14.1996C24.3915 15.1144 25.4775 15.8401 26.6728 16.3352C27.8681 16.8302 29.1491 17.0851 30.4429 17.0851L30.4429 7.23337L20.5912 7.23337ZM14.8546 7.98281C16.0499 7.48772 17.3309 7.23289 18.6247 7.23289V17.0846V26.9363C17.3309 26.9363 16.0499 26.6815 14.8546 26.1864C13.6593 25.6913 12.5733 24.9656 11.6585 24.0508C10.7437 23.136 10.018 22.0499 9.52291 20.8547C9.02782 19.6594 8.77299 18.3783 8.77299 17.0846C8.77299 15.7908 9.02782 14.5098 9.52291 13.3145C10.018 12.1192 10.7437 11.0332 11.6585 10.1184C12.5733 9.20358 13.6593 8.4779 14.8546 7.98281Z" fill="#99E1D9"/>
<path d="M177.003 26.4776V7.64551H180V26.4776H177.003Z" fill="white"/>
<path d="M166.008 26.7057C161.927 26.7057 159.214 23.9416 159.214 19.6534C159.214 15.2877 161.952 12.6011 166.008 12.6011C168.798 12.6011 170.735 13.7119 171.562 15.3652H171.691L171.795 12.8077H174.636V26.4732H171.64V23.7866H171.51C170.658 25.5691 168.514 26.7057 166.008 26.7057ZM166.835 24.3808C169.857 24.3808 171.64 22.3917 171.64 20.0926V19.0593C171.64 16.8376 169.857 14.926 166.835 14.926C164.096 14.926 162.237 16.631 162.237 19.6534C162.237 22.5725 164.071 24.3808 166.835 24.3808Z" fill="white"/>
<path d="M151.249 26.7097C148.485 26.7097 146.522 25.573 145.695 23.9456H145.566L145.462 26.4772H142.621V7.64514H145.617V15.4983H145.747C146.625 13.69 148.769 12.5792 151.249 12.5792C155.331 12.5792 158.043 15.3433 158.043 19.6574C158.043 23.9972 155.305 26.7097 151.249 26.7097ZM150.422 24.3589C153.186 24.3589 155.046 22.6539 155.046 19.6574C155.046 16.7124 153.186 14.9041 150.422 14.9041C147.4 14.9041 145.617 16.8933 145.617 19.2182V20.2257C145.617 22.4473 147.4 24.3589 150.422 24.3589Z" fill="white"/>
<path d="M132.912 26.7316C128.132 26.7316 124.955 24.045 124.955 19.6792C124.955 15.2877 128.132 12.6011 132.912 12.6011C137.665 12.6011 140.868 15.2877 140.868 19.6792C140.868 23.9933 137.691 26.7316 132.912 26.7316ZM132.912 24.355C135.96 24.355 137.871 22.5467 137.871 19.6792C137.871 16.786 135.96 14.9519 132.912 14.9519C129.863 14.9519 127.952 16.786 127.952 19.6792C127.952 22.5208 129.837 24.355 132.912 24.355Z" fill="white"/>
<path d="M120.187 26.4772V7.64514H123.183V26.4772H120.187Z" fill="white"/>
<path d="M108.089 26.7074C101.786 26.7074 97.8591 22.8583 97.8591 17.0718C97.8591 11.2594 101.837 7.43616 108.192 7.43616C113.462 7.43616 117.13 10.0194 117.724 13.9718H114.599C114.005 11.4402 111.499 9.96776 108.192 9.96776C103.671 9.96776 100.959 12.7319 100.959 17.0459C100.959 21.515 103.749 24.2016 108.115 24.2016C112.248 24.2016 114.805 22.1091 114.986 18.6992H107.779V16.5809H118.112V17.7951C118.112 23.5299 113.798 26.7074 108.089 26.7074Z" fill="white"/>
<path d="M83.1818 26.7074C77.1627 26.7074 74.5278 24.1757 74.3728 20.5592H77.6277C77.7569 23.1424 79.7202 24.4857 83.2851 24.4857C86.695 24.4857 88.3741 23.3233 88.3741 21.36C88.3741 18.9059 86.3592 18.5701 82.7426 18.1051C77.9635 17.5109 74.9153 16.5809 74.9153 12.8352C74.9153 9.37361 78.041 7.43616 82.9234 7.43616C87.8058 7.43616 90.6474 9.50277 90.8541 12.9644H87.7025C87.5475 10.6911 85.7134 9.63194 82.7943 9.63194C79.7977 9.63194 78.0927 10.7427 78.0927 12.4994C78.0927 14.721 79.8235 15.031 83.5692 15.496C88.4516 16.0901 91.5774 16.9426 91.5774 21.1275C91.5774 24.5891 88.6583 26.7074 83.1818 26.7074Z" fill="white"/>
<path d="M63.9324 26.7074C57.5259 26.7074 53.5994 22.8583 53.5994 17.0718C53.5994 11.2594 57.5518 7.43616 63.9324 7.43616C69.2281 7.43616 72.8447 10.0194 73.4905 13.9718H70.3648C69.7965 11.5177 67.2649 9.94193 63.9324 9.94193C59.4892 9.94193 56.751 12.5769 56.751 17.0718C56.751 21.5408 59.4892 24.1757 63.9324 24.1757C67.3424 24.1757 69.874 22.5741 70.3906 20.0942L73.4905 20.12C72.9222 24.1241 69.0731 26.7074 63.9324 26.7074Z" fill="white"/>
</svg>
