<svg width="32" height="32" viewBox="0 0 32 32" fill="none" xmlns="http://www.w3.org/2000/svg">
<rect width="32" height="32" rx="16" fill="url(#paint0_linear_3_1953)"/>
<path d="M8 8H11.4465L12.9258 9.43491C13.905 9.05023 14.948 8.85359 16 8.85527C17.0589 8.85527 18.0727 9.05091 19 9.40582L20.0873 8H24V16.7273H23.9942C23.8269 20.808 20.272 24 16 24C11.728 24 8.17236 20.808 8.00582 16.7273H8V8ZM9.45455 12.0727C10.0301 11.3025 10.742 10.6444 11.5549 10.1309L10.8567 9.45455H9.45455V12.0727ZM9.45455 16.4276C9.45455 19.7658 12.3425 22.5455 16 22.5455C19.6575 22.5455 22.5455 19.7658 22.5455 16.4276C22.5455 14.0509 21.0902 11.9658 18.9236 10.9535C18.0081 10.5272 17.0099 10.3075 16 10.3098C14.9462 10.3098 13.9542 10.5425 13.0764 10.9535C10.9091 11.9658 9.45455 14.0509 9.45455 16.4276ZM22.5455 12.0727V9.45455H20.8015L20.3324 10.0611C21.1918 10.5841 21.943 11.267 22.5455 12.0727ZM13.8182 13.8182V16H12.3636V13.8182H13.8182ZM19.6364 13.8182V16H18.1818V13.8182H19.6364ZM16 15.4647L16.6509 16.7658C16.9265 17.3164 17.2742 17.4822 17.5156 17.5025C17.6727 17.5156 17.8407 17.4749 18.0015 17.3651L18.6029 16.9564L19.4204 18.1593L18.8196 18.568C18.5641 18.7432 18.2752 18.8638 17.9709 18.9222C17.8319 19.2691 17.6689 19.606 17.4829 19.9302C17.3375 20.1775 17.1607 20.4371 16.9535 20.6444C16.7644 20.8335 16.4385 21.0909 16.0007 21.0909C15.5629 21.0909 15.2371 20.8327 15.048 20.6444C14.8424 20.4293 14.6646 20.1894 14.5185 19.9302C14.3327 19.6058 14.1694 19.269 14.0298 18.9222C13.7258 18.8637 13.4371 18.7431 13.1818 18.568L12.5804 18.1593L13.3985 16.9564L14 17.3651C14.1607 17.4749 14.3287 17.5156 14.4858 17.5025C14.7273 17.4822 15.0749 17.3164 15.3505 16.7658L16 15.4647ZM15.5069 18.6742C15.5876 18.8516 15.6785 19.032 15.7738 19.1949C15.8567 19.336 15.9338 19.4487 16.0007 19.5309C16.0676 19.4487 16.1447 19.336 16.2276 19.1949C16.3253 19.0259 16.4143 18.8521 16.4945 18.6742C16.3153 18.573 16.1492 18.4501 16 18.3084C15.8512 18.45 15.6856 18.5729 15.5069 18.6742Z" fill="white"/>
<defs>
<linearGradient id="paint0_linear_3_1953" x1="1599.14" y1="-0.768" x2="1599.14" y2="3199.68" gradientUnits="userSpaceOnUse">
<stop stop-color="#F9AA4B"/>
<stop offset="1" stop-color="#F7931A"/>
</linearGradient>
</defs>
</svg>
