<svg width="28" height="28" viewBox="0 0 28 28" fill="none" xmlns="http://www.w3.org/2000/svg">
<path d="M27.5812 17.3856C25.7107 24.8896 18.1079 29.4512 10.6146 27.5806C3.11039 25.71 -1.4512 18.1076 0.419438 10.6144C2.28997 3.11039 9.8817 -1.4512 17.3859 0.419439C24.8792 2.27904 29.4519 9.88148 27.5812 17.3856Z" fill="url(#paint0_linear_4085_2718)"/>
<path d="M20.6659 12.2554C20.9394 10.396 19.5284 9.38976 17.5815 8.72257L18.2159 6.19601L16.6847 5.8132L16.0722 8.27414C15.6675 8.1757 15.2519 8.07726 14.8362 7.98976L15.4487 5.51788L13.9175 5.13507L13.294 7.6507C12.955 7.57414 12.6269 7.49757 12.3097 7.42101V7.41007L10.1878 6.88507L9.78311 8.5257C9.78311 8.5257 10.9206 8.7882 10.8987 8.79914C11.5222 8.95226 11.6315 9.36789 11.6097 9.69601L10.8878 12.5726C10.9315 12.5835 10.9862 12.5945 11.0519 12.6273C10.9972 12.6163 10.9425 12.6054 10.8878 12.5835L9.88154 16.6085C9.80498 16.7945 9.60811 17.0788 9.18154 16.9695C9.19248 16.9913 8.06592 16.696 8.06592 16.696L7.30029 18.457L9.30186 18.9601C9.67373 19.0585 10.0347 19.146 10.3956 19.2445L9.76123 21.7929L11.2925 22.1757L11.9269 19.6491C12.3425 19.7585 12.7581 19.8679 13.1519 19.9663L12.5284 22.482L14.0597 22.8648L14.694 20.3163C17.319 20.8085 19.2878 20.6116 20.1081 18.2382C20.7753 16.3351 20.0753 15.2304 18.6972 14.5085C19.7144 14.2788 20.4691 13.6116 20.6659 12.2554ZM17.155 17.1773C16.6847 19.0804 13.469 18.0523 12.43 17.7898L13.2722 14.4101C14.3112 14.6726 17.6581 15.1866 17.155 17.1773ZM17.6362 12.2226C17.1987 13.9616 14.53 13.0757 13.6659 12.857L14.4315 9.79445C15.2956 10.0132 18.0847 10.4179 17.6362 12.2226Z" fill="white"/>
<defs>
<linearGradient id="paint0_linear_4085_2718" x1="1399.24" y1="-0.672" x2="1399.24" y2="2799.72" gradientUnits="userSpaceOnUse">
<stop stop-color="#F9AA4B"/>
<stop offset="1" stop-color="#F7931A"/>
</linearGradient>
</defs>
</svg>
