<svg width="1440" height="806" viewBox="0 0 1440 806" fill="none" xmlns="http://www.w3.org/2000/svg">
<g opacity="0.4">
<ellipse cx="1398.12" cy="121.923" rx="3.45519" ry="3.69547" transform="rotate(90 1398.12 121.923)" fill="#A8A8A8"/>
<ellipse cx="1395.65" cy="305.035" rx="3.45518" ry="3.69547" transform="rotate(90 1395.65 305.035)" fill="#A8A8A8"/>
<ellipse cx="1398.12" cy="398.318" rx="3.4552" ry="3.69547" transform="rotate(90 1398.12 398.318)" fill="#A8A8A8"/>
<ellipse cx="1351.31" cy="493.904" rx="3.45518" ry="3.69547" transform="rotate(90 1351.31 493.904)" fill="#A8A8A8"/>
<ellipse cx="1436.3" cy="723.082" rx="3.45517" ry="3.69547" transform="rotate(90 1436.3 723.082)" fill="#A8A8A8"/>
<ellipse cx="1272.47" cy="439.777" rx="3.45518" ry="3.69547" transform="rotate(90 1272.47 439.777)" fill="#A8A8A8"/>
<ellipse cx="1245.37" cy="488.146" rx="3.45518" ry="3.69547" transform="rotate(90 1245.37 488.146)" fill="#A8A8A8"/>
<ellipse cx="1272.47" cy="572.216" rx="3.4552" ry="3.69547" transform="rotate(90 1272.47 572.216)" fill="#A8A8A8"/>
<ellipse cx="1201.03" cy="560.699" rx="3.4552" ry="3.69547" transform="rotate(90 1201.03 560.699)" fill="#A8A8A8"/>
<ellipse cx="1080.31" cy="568.761" rx="3.4552" ry="3.69547" transform="rotate(90 1080.31 568.761)" fill="#A8A8A8"/>
<ellipse cx="1021.18" cy="606.765" rx="3.4552" ry="3.69547" transform="rotate(90 1021.18 606.765)" fill="#A8A8A8"/>
<ellipse cx="943.576" cy="565.306" rx="3.4552" ry="3.69547" transform="rotate(90 943.576 565.306)" fill="#A8A8A8"/>
<ellipse cx="931.257" cy="450.141" rx="3.4552" ry="3.69545" transform="rotate(90 931.257 450.141)" fill="#A8A8A8"/>
<ellipse cx="1006.4" cy="336.129" rx="3.4552" ry="3.69547" transform="rotate(90 1006.4 336.129)" fill="#A8A8A8"/>
<ellipse cx="1037.19" cy="233.632" rx="3.45519" ry="3.69547" transform="rotate(90 1037.19 233.632)" fill="#A8A8A8"/>
<ellipse cx="1012.56" cy="161.079" rx="3.45519" ry="3.69547" transform="rotate(90 1012.56 161.079)" fill="#A8A8A8"/>
<ellipse cx="895.534" cy="214.055" rx="3.45519" ry="3.69547" transform="rotate(90 895.534 214.055)" fill="#A8A8A8"/>
<ellipse cx="801.916" cy="279.698" rx="3.4552" ry="3.69547" transform="rotate(90 801.916 279.698)" fill="#A8A8A8"/>
<ellipse cx="799.453" cy="491.601" rx="3.45518" ry="3.69547" transform="rotate(90 799.453 491.601)" fill="#A8A8A8"/>
<ellipse cx="709.53" cy="498.511" rx="3.4552" ry="3.6955" transform="rotate(90 709.53 498.511)" fill="#A8A8A8"/>
<ellipse cx="752.643" cy="567.609" rx="3.4552" ry="3.69547" transform="rotate(90 752.643 567.609)" fill="#A8A8A8"/>
<ellipse cx="780.975" cy="627.495" rx="3.45517" ry="3.69547" transform="rotate(90 780.975 627.495)" fill="#A8A8A8"/>
<ellipse cx="670.111" cy="666.651" rx="3.45517" ry="3.69547" transform="rotate(90 670.111 666.651)" fill="#A8A8A8"/>
<ellipse cx="737.862" cy="802.545" rx="3.4552" ry="3.69547" transform="rotate(90 737.862 802.545)" fill="#A8A8A8"/>
<ellipse cx="450.847" cy="685.077" rx="3.4552" ry="3.69547" transform="rotate(90 450.847 685.077)" fill="#A8A8A8"/>
<ellipse cx="431.138" cy="751.873" rx="3.4552" ry="3.69547" transform="rotate(90 431.138 751.873)" fill="#A8A8A8"/>
<ellipse cx="246.365" cy="779.512" rx="3.4552" ry="3.69543" transform="rotate(90 246.365 779.512)" fill="#A8A8A8"/>
<ellipse cx="3.69562" cy="779.512" rx="3.4552" ry="3.6955" transform="rotate(90 3.69562 779.512)" fill="#A8A8A8"/>
<ellipse cx="117.023" cy="657.438" rx="3.4552" ry="3.69543" transform="rotate(90 117.023 657.438)" fill="#A8A8A8"/>
<ellipse cx="230.35" cy="613.675" rx="3.4552" ry="3.6955" transform="rotate(90 230.35 613.675)" fill="#A8A8A8"/>
<ellipse cx="177.382" cy="498.511" rx="3.4552" ry="3.6955" transform="rotate(90 177.382 498.511)" fill="#A8A8A8"/>
<ellipse cx="235.278" cy="391.408" rx="3.45518" ry="3.69543" transform="rotate(90 235.278 391.408)" fill="#A8A8A8"/>
<ellipse cx="335.056" cy="408.682" rx="3.45518" ry="3.69543" transform="rotate(90 335.056 408.682)" fill="#A8A8A8"/>
<ellipse cx="431.138" cy="548.031" rx="3.4552" ry="3.69547" transform="rotate(90 431.138 548.031)" fill="#A8A8A8"/>
<ellipse cx="367.083" cy="506.572" rx="3.45518" ry="3.6955" transform="rotate(90 367.083 506.572)" fill="#A8A8A8"/>
<ellipse cx="373.242" cy="614.827" rx="3.4552" ry="3.6955" transform="rotate(90 373.242 614.827)" fill="#A8A8A8"/>
<ellipse cx="539.538" cy="539.97" rx="3.45517" ry="3.69547" transform="rotate(90 539.538 539.97)" fill="#A8A8A8"/>
<ellipse cx="529.683" cy="453.597" rx="3.4552" ry="3.69547" transform="rotate(90 529.683 453.597)" fill="#A8A8A8"/>
<ellipse cx="495.193" cy="396.014" rx="3.4552" ry="3.69547" transform="rotate(90 495.193 396.014)" fill="#A8A8A8"/>
<ellipse cx="1031.04" cy="436.322" rx="3.4552" ry="3.69547" transform="rotate(90 1031.04 436.322)" fill="#A8A8A8"/>
<ellipse cx="1188.71" cy="366.072" rx="3.45518" ry="3.69547" transform="rotate(90 1188.71 366.072)" fill="#A8A8A8"/>
<ellipse cx="1212.11" cy="270.485" rx="3.45518" ry="3.69547" transform="rotate(90 1212.11 270.485)" fill="#A8A8A8"/>
<ellipse cx="1253.99" cy="146.107" rx="3.45519" ry="3.69547" transform="rotate(90 1253.99 146.107)" fill="#A8A8A8"/>
<ellipse cx="1130.81" cy="108.103" rx="3.45519" ry="3.69547" transform="rotate(90 1130.81 108.103)" fill="#A8A8A8"/>
<ellipse cx="1192.4" cy="39.0045" rx="3.45519" ry="3.69547" transform="rotate(90 1192.4 39.0045)" fill="#A8A8A8"/>
<path d="M1398.73 121.347L1395.65 306.186M1398.73 121.347L1345.77 246.3M1398.73 121.347L1253.99 145.531M1395.65 306.186L1345.77 246.3M1395.65 306.186L1398.73 398.317M1395.65 306.186L1351.92 493.904M1345.77 246.3L1253.99 145.531M1345.77 246.3L1212.11 268.757M1345.77 246.3L1351.92 493.904M1253.99 145.531L1191.79 39.0043M1253.99 145.531L1130.2 107.527M1253.99 145.531L1037.19 233.632M1253.99 145.531L1005.78 336.129M1253.99 145.531L1212.11 268.757M1212.11 268.757L1351.92 493.904M1212.11 268.757L1005.78 336.129M1212.11 268.757L1188.71 366.071M1351.92 493.904L1398.73 398.317M1351.92 493.904L1188.71 366.071M1398.73 398.317L1272.47 439.201M1191.79 39.0043L1012.56 161.654M1191.79 39.0043L1130.2 107.527M1012.56 161.654L1130.2 107.527M1012.56 161.654L705.834 199.659M1012.56 161.654L650.402 113.285M1012.56 161.654L682.43 27.4878M1012.56 161.654L472.404 0.999958M1012.56 161.654L1037.19 233.632M1012.56 161.654L894.303 214.054M1130.2 107.527L1037.19 233.632M1037.19 233.632L1005.78 336.129M1037.19 233.632L894.303 214.054M1005.78 336.129L1188.71 366.071M1005.78 336.129L1029.19 428.836M1005.78 336.129L930.026 375.86M1005.78 336.129L894.303 214.054M1188.71 366.071L1272.47 439.201M1188.71 366.071L1246.6 488.146M1188.71 366.071L1031.04 436.322M1188.71 366.071L1029.19 428.836M1272.47 439.201L1435.69 723.657M1272.47 439.201L1246.6 488.146M1435.69 723.657L1246.6 488.146M1435.69 723.657L1272.47 572.216M1435.69 723.657L1200.41 560.699M1435.69 723.657L1020.56 606.765M1246.6 488.146L1272.47 572.216M1246.6 488.146L1200.41 560.699M1246.6 488.146L1031.04 436.322M1272.47 572.216L1200.41 560.699M1200.41 560.699L1020.56 606.765M1200.41 560.699L1080.92 569.912M1200.41 560.699L1031.04 436.322M1020.56 606.765L1080.92 569.912M1020.56 606.765L943.576 564.73M1020.56 606.765L779.743 627.495M1080.92 569.912L1031.04 436.322M1080.92 569.912L943.576 564.73M1031.04 436.322L943.576 564.73M1031.04 436.322L931.873 450.141M1031.04 436.322L1029.19 428.836M943.576 564.73L952.199 776.057M943.576 564.73L931.873 450.141M943.576 564.73L779.743 627.495M1029.19 428.836L931.873 450.141M1029.19 428.836L930.026 375.86M931.873 450.141L930.026 375.86M930.026 375.86L894.303 214.054M930.026 375.86L801.3 280.274M894.303 214.054L705.834 199.659M894.303 214.054L801.3 280.274M705.834 199.659L650.402 113.285M705.834 199.659L801.3 280.274M705.834 199.659L570.95 128.257M705.834 199.659L798.221 491.025M650.402 113.285L682.43 27.4878M650.402 113.285L570.95 128.257M682.43 27.4878L570.95 128.257M682.43 27.4878L472.404 0.999958M801.3 280.274L798.221 491.025M801.3 280.274L708.298 498.51M801.3 280.274L952.199 776.057M570.95 128.257L798.221 491.025M570.95 128.257L534.611 306.762M570.95 128.257L380.017 226.722M570.95 128.257L253.14 168.564M570.95 128.257L472.404 0.999958M798.221 491.025L708.298 498.51M798.221 491.025L530.3 454.172M798.221 491.025L534.611 306.762M708.298 498.51L670.111 667.802M708.298 498.51L752.027 567.033M708.298 498.51L952.199 776.057M708.298 498.51L530.3 454.172M708.298 498.51L539.538 539.97M670.111 667.802L779.743 627.495M670.111 667.802L752.027 567.033M670.111 667.802L739.093 803.12M670.111 667.802L539.538 539.97M779.743 627.495L752.027 567.033M779.743 627.495L952.199 776.057M779.743 627.495L739.093 803.12M752.027 567.033L952.199 776.057M530.3 454.172L534.611 306.762M530.3 454.172L494.577 396.59M530.3 454.172L539.538 539.97M530.3 454.172L431.138 548.031M534.611 306.762L380.017 226.722M534.611 306.762L408.349 27.4878M534.611 306.762L494.577 396.59M380.017 226.722L200.787 242.845M380.017 226.722L408.349 27.4878M380.017 226.722L253.14 168.564M408.349 27.4878L200.787 242.845M408.349 27.4878L235.278 391.983M408.349 27.4878L335.056 408.682M408.349 27.4878L494.577 396.59M200.787 242.845L253.14 168.564M200.787 242.845L56.0481 6.75816M253.14 168.564L56.0481 6.75816M235.278 391.983L335.056 408.682M235.278 391.983L56.0481 6.75816M235.278 391.983L229.735 614.251M335.056 408.682L494.577 396.59M335.056 408.682L367.083 506.572M335.056 408.682L229.735 614.251M494.577 396.59L367.083 506.572M494.577 396.59L431.138 548.031M367.083 506.572L431.138 548.031M367.083 506.572L229.735 614.251M367.083 506.572L372.626 614.251M367.083 506.572L431.138 751.872M431.138 548.031L539.538 539.97M431.138 548.031L451.463 685.653M431.138 548.031L372.626 614.251M539.538 539.97L451.463 685.653M539.538 539.97L739.093 803.12M56.0481 6.75816L176.151 498.51M229.735 614.251L176.151 498.51M229.735 614.251L431.138 751.872M229.735 614.251L116.407 657.437M176.151 498.51L3.6956 780.088M176.151 498.51L116.407 657.437M451.463 685.653L372.626 614.251M451.463 685.653L246.365 780.088M451.463 685.653L739.093 803.12M372.626 614.251L431.138 751.872M372.626 614.251L246.365 780.088M431.138 751.872L116.407 657.437M116.407 657.437L3.6956 780.088M116.407 657.437L246.365 780.088M3.6956 780.088L125.646 759.358L246.365 780.088" stroke="#666666" stroke-width="0.8"/>
<ellipse cx="705.834" cy="200.235" rx="3.45519" ry="3.69547" transform="rotate(90 705.834 200.235)" fill="#A8A8A8"/>
<ellipse cx="650.402" cy="113.861" rx="3.45519" ry="3.69547" transform="rotate(90 650.402 113.861)" fill="#A8A8A8"/>
<ellipse cx="682.43" cy="28.6395" rx="3.45519" ry="3.6955" transform="rotate(90 682.43 28.6395)" fill="#A8A8A8"/>
<ellipse cx="571.566" cy="127.681" rx="3.45519" ry="3.69547" transform="rotate(90 571.566 127.681)" fill="#A8A8A8"/>
<ellipse cx="407.733" cy="28.6395" rx="3.45519" ry="3.6955" transform="rotate(90 407.733 28.6395)" fill="#A8A8A8"/>
<ellipse cx="379.401" cy="226.722" rx="3.45519" ry="3.6955" transform="rotate(90 379.401 226.722)" fill="#A8A8A8"/>
<ellipse cx="535.843" cy="306.186" rx="3.45518" ry="3.69547" transform="rotate(90 535.843 306.186)" fill="#A8A8A8"/>
<ellipse cx="56.6639" cy="7.91027" rx="3.45519" ry="3.6955" transform="rotate(90 56.6639 7.91027)" fill="#A8A8A8"/>
<ellipse cx="202.019" cy="242.846" rx="3.45519" ry="3.6955" transform="rotate(90 202.019 242.846)" fill="#A8A8A8"/>
<ellipse cx="253.755" cy="169.14" rx="3.45519" ry="3.6955" transform="rotate(90 253.755 169.14)" fill="#A8A8A8"/>
</g>
</svg>
