<svg width="513" height="958" viewBox="0 0 513 958" fill="none" xmlns="http://www.w3.org/2000/svg">
<ellipse cx="77.0603" cy="27.8633" rx="2.20188" ry="2.45851" fill="#A8A8A8"/>
<ellipse cx="193.751" cy="29.502" rx="2.20188" ry="2.45851" fill="#A8A8A8"/>
<ellipse cx="253.197" cy="27.8633" rx="2.20188" ry="2.45851" fill="#A8A8A8"/>
<ellipse cx="314.112" cy="59.0044" rx="2.20188" ry="2.45851" fill="#A8A8A8"/>
<ellipse cx="460.159" cy="2.45851" rx="2.20188" ry="2.45851" fill="#A8A8A8"/>
<ellipse cx="279.618" cy="111.453" rx="2.20188" ry="2.45851" fill="#A8A8A8"/>
<ellipse cx="310.442" cy="129.481" rx="2.20188" ry="2.45851" fill="#A8A8A8"/>
<ellipse cx="364.017" cy="111.453" rx="2.20188" ry="2.45851" fill="#A8A8A8"/>
<ellipse cx="356.678" cy="158.984" rx="2.20188" ry="2.45851" fill="#A8A8A8"/>
<ellipse cx="361.816" cy="239.295" rx="2.20188" ry="2.45851" fill="#A8A8A8"/>
<ellipse cx="386.034" cy="278.631" rx="2.20188" ry="2.45851" fill="#A8A8A8"/>
<ellipse cx="359.614" cy="330.26" rx="2.20188" ry="2.45851" fill="#A8A8A8"/>
<ellipse cx="286.223" cy="338.455" rx="2.20188" ry="2.45851" fill="#A8A8A8"/>
<ellipse cx="213.567" cy="288.465" rx="2.20188" ry="2.45851" fill="#A8A8A8"/>
<ellipse cx="148.249" cy="267.978" rx="2.20188" ry="2.45851" fill="#A8A8A8"/>
<ellipse cx="102.013" cy="284.368" rx="2.20188" ry="2.45851" fill="#A8A8A8"/>
<ellipse cx="135.773" cy="362.221" rx="2.20188" ry="2.45851" fill="#A8A8A8"/>
<ellipse cx="177.605" cy="424.503" rx="2.20188" ry="2.45851" fill="#A8A8A8"/>
<ellipse cx="312.644" cy="426.142" rx="2.20188" ry="2.45851" fill="#A8A8A8"/>
<ellipse cx="317.048" cy="485.966" rx="2.20188" ry="2.45851" fill="#A8A8A8"/>
<ellipse cx="361.082" cy="457.283" rx="2.20188" ry="2.45851" fill="#A8A8A8"/>
<ellipse cx="399.245" cy="438.435" rx="2.20188" ry="2.45851" fill="#A8A8A8"/>
<ellipse cx="424.197" cy="512.19" rx="2.20188" ry="2.45851" fill="#A8A8A8"/>
<ellipse cx="510.799" cy="467.117" rx="2.20188" ry="2.45851" fill="#A8A8A8"/>
<ellipse cx="435.94" cy="658.062" rx="2.20188" ry="2.45851" fill="#A8A8A8"/>
<ellipse cx="478.507" cy="671.174" rx="2.20188" ry="2.45851" fill="#A8A8A8"/>
<ellipse cx="496.12" cy="794.099" rx="2.20188" ry="2.45851" fill="#A8A8A8"/>
<ellipse cx="496.12" cy="955.542" rx="2.20188" ry="2.45851" fill="#A8A8A8"/>
<ellipse cx="418.326" cy="880.147" rx="2.20188" ry="2.45851" fill="#A8A8A8"/>
<ellipse cx="390.438" cy="804.753" rx="2.20188" ry="2.45851" fill="#A8A8A8"/>
<ellipse cx="317.048" cy="839.992" rx="2.20188" ry="2.45851" fill="#A8A8A8"/>
<ellipse cx="248.794" cy="801.475" rx="2.20188" ry="2.45851" fill="#A8A8A8"/>
<ellipse cx="259.802" cy="735.095" rx="2.20188" ry="2.45851" fill="#A8A8A8"/>
<ellipse cx="348.605" cy="671.174" rx="2.20188" ry="2.45851" fill="#A8A8A8"/>
<ellipse cx="322.185" cy="713.788" rx="2.20188" ry="2.45851" fill="#A8A8A8"/>
<ellipse cx="391.172" cy="709.69" rx="2.20188" ry="2.45851" fill="#A8A8A8"/>
<ellipse cx="343.468" cy="599.057" rx="2.20188" ry="2.45851" fill="#A8A8A8"/>
<ellipse cx="288.425" cy="605.613" rx="2.20188" ry="2.45851" fill="#A8A8A8"/>
<ellipse cx="251.73" cy="628.559" rx="2.20188" ry="2.45851" fill="#A8A8A8"/>
<ellipse cx="277.417" cy="272.075" rx="2.20188" ry="2.45851" fill="#A8A8A8"/>
<ellipse cx="232.648" cy="167.179" rx="2.20188" ry="2.45851" fill="#A8A8A8"/>
<ellipse cx="171.734" cy="151.608" rx="2.20188" ry="2.45851" fill="#A8A8A8"/>
<ellipse cx="92.4724" cy="123.745" rx="2.20188" ry="2.45851" fill="#A8A8A8"/>
<ellipse cx="68.2532" cy="205.695" rx="2.20188" ry="2.45851" fill="#A8A8A8"/>
<ellipse cx="24.219" cy="164.72" rx="2.20188" ry="2.45851" fill="#A8A8A8"/>
<path d="M76.6931 27.4533L194.485 29.502M76.6931 27.4533L156.322 62.6919M76.6931 27.4533L92.1052 123.745M194.485 29.502L156.322 62.6919M194.485 29.502L253.197 27.4533M194.485 29.502L314.112 58.5944M156.322 62.6919L92.1052 123.745M156.322 62.6919L170.633 151.608M156.322 62.6919L314.112 58.5944M92.1052 123.745L24.2189 165.13M92.1052 123.745L67.8863 206.105M92.1052 123.745L148.249 267.978M92.1052 123.745L213.567 288.875M92.1052 123.745L170.633 151.608M170.633 151.608L314.112 58.5944M170.633 151.608L213.567 288.875M170.633 151.608L232.648 167.179M314.112 58.5944L253.197 27.4533M314.112 58.5944L232.648 167.179M253.197 27.4533L279.251 111.452M24.2189 165.13L102.38 284.368M24.2189 165.13L67.8863 206.105M102.38 284.368L67.8863 206.105M102.38 284.368L126.599 488.424M102.38 284.368L71.5558 525.302M102.38 284.368L16.8798 503.995M102.38 284.368L0 643.72M102.38 284.368L148.249 267.978M102.38 284.368L135.773 363.04M67.8863 206.105L148.249 267.978M148.249 267.978L213.567 288.875M148.249 267.978L135.773 363.04M213.567 288.875L232.648 167.179M213.567 288.875L272.646 273.304M213.567 288.875L238.886 339.274M213.567 288.875L135.773 363.04M232.648 167.179L279.251 111.452M232.648 167.179L310.442 128.662M232.648 167.179L277.416 272.075M232.648 167.179L272.646 273.304M279.251 111.452L460.526 2.86816M279.251 111.452L310.442 128.662M460.526 2.86816L310.442 128.662M460.526 2.86816L364.017 111.452M460.526 2.86816L356.678 159.393M460.526 2.86816L386.034 279.041M310.442 128.662L364.017 111.452M310.442 128.662L356.678 159.393M310.442 128.662L277.416 272.075M364.017 111.452L356.678 159.393M356.678 159.393L386.034 279.041M356.678 159.393L362.549 238.885M356.678 159.393L277.416 272.075M386.034 279.041L362.549 238.885M386.034 279.041L359.247 330.26M386.034 279.041L399.245 439.254M362.549 238.885L277.416 272.075M362.549 238.885L359.247 330.26M277.416 272.075L359.247 330.26M277.416 272.075L286.223 338.045M277.416 272.075L272.646 273.304M359.247 330.26L493.919 324.523M359.247 330.26L286.223 338.045M359.247 330.26L399.245 439.254M272.646 273.304L286.223 338.045M272.646 273.304L238.886 339.274M286.223 338.045L238.886 339.274M238.886 339.274L135.773 363.04M238.886 339.274L177.972 424.913M135.773 363.04L126.599 488.424M135.773 363.04L177.972 424.913M126.599 488.424L71.5558 525.302M126.599 488.424L177.972 424.913M126.599 488.424L81.0966 578.16M126.599 488.424L312.277 426.961M71.5558 525.302L16.8798 503.995M71.5558 525.302L81.0966 578.16M16.8798 503.995L81.0966 578.16M16.8798 503.995L0 643.72M177.972 424.913L312.277 426.961M177.972 424.913L317.047 486.785M177.972 424.913L493.919 324.523M81.0966 578.16L312.277 426.961M81.0966 578.16L194.852 602.335M81.0966 578.16L143.846 705.183M81.0966 578.16L106.783 789.592M81.0966 578.16L0 643.72M312.277 426.961L317.047 486.785M312.277 426.961L288.792 605.203M312.277 426.961L194.852 602.335M317.047 486.785L424.931 512.19M317.047 486.785L360.715 457.693M317.047 486.785L493.919 324.523M317.047 486.785L288.792 605.203M317.047 486.785L343.468 599.057M424.931 512.19L399.245 439.254M424.931 512.19L360.715 457.693M424.931 512.19L511.165 466.298M424.931 512.19L343.468 599.057M399.245 439.254L360.715 457.693M399.245 439.254L493.919 324.523M399.245 439.254L511.165 466.298M360.715 457.693L493.919 324.523M288.792 605.203L194.852 602.335M288.792 605.203L252.097 628.969M288.792 605.203L343.468 599.057M288.792 605.203L348.605 671.174M194.852 602.335L143.846 705.183M194.852 602.335L16.8798 686.334M194.852 602.335L252.097 628.969M143.846 705.183L154.12 824.421M143.846 705.183L16.8798 686.334M143.846 705.183L106.783 789.592M16.8798 686.334L154.12 824.421M16.8798 686.334L249.161 801.475M16.8798 686.334L259.803 735.095M16.8798 686.334L252.097 628.969M154.12 824.421L106.783 789.592M154.12 824.421L3.66953 920.712M106.783 789.592L3.66953 920.712M249.161 801.475L259.803 735.095M249.161 801.475L3.66953 920.712M249.161 801.475L390.805 805.162M259.803 735.095L252.097 628.969M259.803 735.095L322.185 713.788M259.803 735.095L390.805 805.162M252.097 628.969L322.185 713.788M252.097 628.969L348.605 671.174M322.185 713.788L348.605 671.174M322.185 713.788L390.805 805.162M322.185 713.788L390.805 710.1M322.185 713.788L478.507 671.174M348.605 671.174L343.468 599.057M348.605 671.174L436.307 657.652M348.605 671.174L390.805 710.1M343.468 599.057L436.307 657.652M343.468 599.057L511.165 466.298M3.66953 920.712L317.047 840.811M390.805 805.162L317.047 840.811M390.805 805.162L478.507 671.174M390.805 805.162L418.326 880.557M317.047 840.811L496.487 955.541M317.047 840.811L418.326 880.557M436.307 657.652L390.805 710.1M436.307 657.652L496.487 794.099M436.307 657.652L511.165 466.298M390.805 710.1L478.507 671.174M390.805 710.1L496.487 794.099M478.507 671.174L418.326 880.557M418.326 880.557L496.487 955.541M418.326 880.557L496.487 794.099M496.487 955.541L483.277 874.411L496.487 794.099" stroke="#666666" stroke-width="0.8"/>
<ellipse cx="126.966" cy="488.424" rx="2.20188" ry="2.45851" fill="#A8A8A8"/>
<ellipse cx="71.9231" cy="525.302" rx="2.20188" ry="2.45851" fill="#A8A8A8"/>
<ellipse cx="17.614" cy="503.995" rx="2.20188" ry="2.45851" fill="#A8A8A8"/>
<ellipse cx="80.7297" cy="577.75" rx="2.20188" ry="2.45851" fill="#A8A8A8"/>
<ellipse cx="17.614" cy="686.744" rx="2.20188" ry="2.45851" fill="#A8A8A8"/>
<ellipse cx="143.845" cy="705.593" rx="2.20188" ry="2.45851" fill="#A8A8A8"/>
<ellipse cx="194.485" cy="601.516" rx="2.20188" ry="2.45851" fill="#A8A8A8"/>
<ellipse cx="4.40354" cy="920.303" rx="2.20188" ry="2.45851" fill="#A8A8A8"/>
<ellipse cx="154.12" cy="823.601" rx="2.20188" ry="2.45851" fill="#A8A8A8"/>
<ellipse cx="107.151" cy="789.182" rx="2.20188" ry="2.45851" fill="#A8A8A8"/>
</svg>
