<svg width="389" height="690" viewBox="0 0 389 690" fill="none" xmlns="http://www.w3.org/2000/svg">
<ellipse cx="59.2833" cy="20.0684" rx="1.66536" ry="1.77074" fill="#A8A8A8"/>
<ellipse cx="147.541" cy="21.249" rx="1.66536" ry="1.77074" fill="#A8A8A8"/>
<ellipse cx="192.502" cy="20.0684" rx="1.66536" ry="1.77074" fill="#A8A8A8"/>
<ellipse cx="238.574" cy="42.4978" rx="1.66536" ry="1.77074" fill="#A8A8A8"/>
<ellipse cx="349.034" cy="1.77074" rx="1.66536" ry="1.77074" fill="#A8A8A8"/>
<ellipse cx="212.485" cy="80.2737" rx="1.66536" ry="1.77074" fill="#A8A8A8"/>
<ellipse cx="235.798" cy="93.259" rx="1.66536" ry="1.77074" fill="#A8A8A8"/>
<ellipse cx="276.319" cy="80.2737" rx="1.66536" ry="1.77074" fill="#A8A8A8"/>
<ellipse cx="270.768" cy="114.508" rx="1.66536" ry="1.77074" fill="#A8A8A8"/>
<ellipse cx="274.654" cy="172.352" rx="1.66536" ry="1.77074" fill="#A8A8A8"/>
<ellipse cx="292.971" cy="200.684" rx="1.66536" ry="1.77074" fill="#A8A8A8"/>
<ellipse cx="272.989" cy="237.87" rx="1.66536" ry="1.77074" fill="#A8A8A8"/>
<ellipse cx="217.481" cy="243.772" rx="1.66536" ry="1.77074" fill="#A8A8A8"/>
<ellipse cx="162.528" cy="207.767" rx="1.66536" ry="1.77074" fill="#A8A8A8"/>
<ellipse cx="113.126" cy="193.011" rx="1.66536" ry="1.77074" fill="#A8A8A8"/>
<ellipse cx="78.1561" cy="204.816" rx="1.66536" ry="1.77074" fill="#A8A8A8"/>
<ellipse cx="103.69" cy="260.89" rx="1.66536" ry="1.77075" fill="#A8A8A8"/>
<ellipse cx="135.329" cy="305.749" rx="1.66536" ry="1.77075" fill="#A8A8A8"/>
<ellipse cx="237.463" cy="306.929" rx="1.66536" ry="1.77074" fill="#A8A8A8"/>
<ellipse cx="240.794" cy="350.017" rx="1.66536" ry="1.77074" fill="#A8A8A8"/>
<ellipse cx="274.099" cy="329.358" rx="1.66536" ry="1.77075" fill="#A8A8A8"/>
<ellipse cx="302.963" cy="315.783" rx="1.66536" ry="1.77075" fill="#A8A8A8"/>
<ellipse cx="321.835" cy="368.905" rx="1.66536" ry="1.77075" fill="#A8A8A8"/>
<ellipse cx="387.335" cy="336.441" rx="1.66536" ry="1.77074" fill="#A8A8A8"/>
<ellipse cx="330.717" cy="473.969" rx="1.66536" ry="1.77074" fill="#A8A8A8"/>
<ellipse cx="362.911" cy="483.413" rx="1.66536" ry="1.77074" fill="#A8A8A8"/>
<ellipse cx="376.233" cy="571.95" rx="1.66536" ry="1.77072" fill="#A8A8A8"/>
<ellipse cx="376.233" cy="688.229" rx="1.66536" ry="1.77075" fill="#A8A8A8"/>
<ellipse cx="317.395" cy="633.926" rx="1.66536" ry="1.77075" fill="#A8A8A8"/>
<ellipse cx="296.302" cy="579.624" rx="1.66536" ry="1.77072" fill="#A8A8A8"/>
<ellipse cx="240.794" cy="605.004" rx="1.66536" ry="1.77075" fill="#A8A8A8"/>
<ellipse cx="189.172" cy="577.263" rx="1.66536" ry="1.77075" fill="#A8A8A8"/>
<ellipse cx="197.498" cy="529.452" rx="1.66536" ry="1.77072" fill="#A8A8A8"/>
<ellipse cx="264.662" cy="483.413" rx="1.66536" ry="1.77074" fill="#A8A8A8"/>
<ellipse cx="244.68" cy="514.106" rx="1.66536" ry="1.77072" fill="#A8A8A8"/>
<ellipse cx="296.857" cy="511.155" rx="1.66536" ry="1.77074" fill="#A8A8A8"/>
<ellipse cx="260.777" cy="431.471" rx="1.66536" ry="1.77075" fill="#A8A8A8"/>
<ellipse cx="219.146" cy="436.193" rx="1.66536" ry="1.77075" fill="#A8A8A8"/>
<ellipse cx="191.392" cy="452.72" rx="1.66536" ry="1.77074" fill="#A8A8A8"/>
<ellipse cx="210.82" cy="195.962" rx="1.66536" ry="1.77074" fill="#A8A8A8"/>
<ellipse cx="176.96" cy="120.411" rx="1.66536" ry="1.77074" fill="#A8A8A8"/>
<ellipse cx="130.889" cy="109.196" rx="1.66536" ry="1.77074" fill="#A8A8A8"/>
<ellipse cx="70.94" cy="89.1274" rx="1.66536" ry="1.77074" fill="#A8A8A8"/>
<ellipse cx="52.6224" cy="148.152" rx="1.66536" ry="1.77074" fill="#A8A8A8"/>
<ellipse cx="19.3177" cy="118.64" rx="1.66536" ry="1.77074" fill="#A8A8A8"/>
<path d="M59.0057 19.7734L148.096 21.249M59.0057 19.7734L119.232 45.154M59.0057 19.7734L70.6623 89.1275M148.096 21.249L119.232 45.154M148.096 21.249L192.502 19.7734M148.096 21.249L238.574 42.2028M119.232 45.154L70.6623 89.1275M119.232 45.154L130.056 109.196M119.232 45.154L238.574 42.2028M70.6623 89.1275L19.3176 118.935M70.6623 89.1275L52.3448 148.447M70.6623 89.1275L113.126 193.011M70.6623 89.1275L162.528 208.062M70.6623 89.1275L130.056 109.196M130.056 109.196L238.574 42.2028M130.056 109.196L162.528 208.062M130.056 109.196L176.96 120.411M238.574 42.2028L192.502 19.7734M238.574 42.2028L176.96 120.411M192.502 19.7734L212.207 80.2738M19.3176 118.935L78.4334 204.816M19.3176 118.935L52.3448 148.447M78.4334 204.816L52.3448 148.447M78.4334 204.816L96.751 351.788M78.4334 204.816L55.1201 378.349M78.4334 204.816L13.7668 363.003M78.4334 204.816L1 463.64M78.4334 204.816L113.126 193.011M78.4334 204.816L103.69 261.48M52.3448 148.447L113.126 193.011M113.126 193.011L162.528 208.062M113.126 193.011L103.69 261.48M162.528 208.062L176.96 120.411M162.528 208.062L207.212 196.848M162.528 208.062L181.678 244.363M162.528 208.062L103.69 261.48M176.96 120.411L212.207 80.2738M176.96 120.411L235.798 92.669M176.96 120.411L210.82 195.962M176.96 120.411L207.212 196.848M212.207 80.2738L349.312 2.06592M212.207 80.2738L235.798 92.669M349.312 2.06592L235.798 92.669M349.312 2.06592L276.319 80.2738M349.312 2.06592L270.768 114.803M349.312 2.06592L292.971 200.98M235.798 92.669L276.319 80.2738M235.798 92.669L270.768 114.803M235.798 92.669L210.82 195.962M276.319 80.2738L270.768 114.803M270.768 114.803L292.971 200.98M270.768 114.803L275.209 172.057M270.768 114.803L210.82 195.962M292.971 200.98L275.209 172.057M292.971 200.98L272.711 237.87M292.971 200.98L302.963 316.373M275.209 172.057L210.82 195.962M275.209 172.057L272.711 237.87M210.82 195.962L272.711 237.87M210.82 195.962L217.481 243.477M210.82 195.962L207.212 196.848M272.711 237.87L374.568 233.738M272.711 237.87L217.481 243.477M272.711 237.87L302.963 316.373M207.212 196.848L217.481 243.477M207.212 196.848L181.678 244.363M217.481 243.477L181.678 244.363M181.678 244.363L103.69 261.48M181.678 244.363L135.607 306.044M103.69 261.48L96.751 351.788M103.69 261.48L135.607 306.044M96.751 351.788L55.1201 378.349M96.751 351.788L135.607 306.044M96.751 351.788L62.3362 416.42M96.751 351.788L237.186 307.519M55.1201 378.349L13.7668 363.003M55.1201 378.349L62.3362 416.42M13.7668 363.003L62.3362 416.42M13.7668 363.003L1 463.64M135.607 306.044L237.186 307.519M135.607 306.044L240.794 350.607M135.607 306.044L374.568 233.738M62.3362 416.42L237.186 307.519M62.3362 416.42L148.373 433.832M62.3362 416.42L109.795 507.908M62.3362 416.42L81.7639 568.704M62.3362 416.42L1 463.64M237.186 307.519L240.794 350.607M237.186 307.519L219.423 435.898M237.186 307.519L148.373 433.832M240.794 350.607L322.39 368.905M240.794 350.607L273.821 329.654M240.794 350.607L374.568 233.738M240.794 350.607L219.423 435.898M240.794 350.607L260.777 431.471M322.39 368.905L302.963 316.373M322.39 368.905L273.821 329.654M322.39 368.905L387.612 335.851M322.39 368.905L260.777 431.471M302.963 316.373L273.821 329.654M302.963 316.373L374.568 233.738M302.963 316.373L387.612 335.851M273.821 329.654L374.568 233.738M219.423 435.898L148.373 433.832M219.423 435.898L191.669 453.015M219.423 435.898L260.777 431.471M219.423 435.898L264.662 483.413M148.373 433.832L109.795 507.908M148.373 433.832L13.7668 494.333M148.373 433.832L191.669 453.015M109.795 507.908L117.566 593.79M109.795 507.908L13.7668 494.333M109.795 507.908L81.7639 568.704M13.7668 494.333L117.566 593.79M13.7668 494.333L189.449 577.263M13.7668 494.333L197.498 529.453M13.7668 494.333L191.669 453.015M117.566 593.79L81.7639 568.704M117.566 593.79L3.77539 663.144M81.7639 568.704L3.77539 663.144M189.449 577.263L197.498 529.453M189.449 577.263L3.77539 663.144M189.449 577.263L296.579 579.919M197.498 529.453L191.669 453.015M197.498 529.453L244.679 514.106M197.498 529.453L296.579 579.919M191.669 453.015L244.679 514.106M191.669 453.015L264.662 483.413M244.679 514.106L264.662 483.413M244.679 514.106L296.579 579.919M244.679 514.106L296.579 511.45M244.679 514.106L362.911 483.413M264.662 483.413L260.777 431.471M264.662 483.413L330.994 473.674M264.662 483.413L296.579 511.45M260.777 431.471L330.994 473.674M260.777 431.471L387.612 335.851M3.77539 663.144L240.794 605.595M296.579 579.919L240.794 605.595M296.579 579.919L362.911 483.413M296.579 579.919L317.395 634.222M240.794 605.595L376.511 688.229M240.794 605.595L317.395 634.222M330.994 473.674L296.579 511.45M330.994 473.674L376.511 571.95M330.994 473.674L387.612 335.851M296.579 511.45L362.911 483.413M296.579 511.45L376.511 571.95M362.911 483.413L317.395 634.222M317.395 634.222L376.511 688.229M317.395 634.222L376.511 571.95M376.511 688.229L366.519 629.795L376.511 571.95" stroke="#666666" stroke-width="0.8"/>
<ellipse cx="97.0286" cy="351.788" rx="1.66536" ry="1.77074" fill="#A8A8A8"/>
<ellipse cx="55.3978" cy="378.349" rx="1.66536" ry="1.77075" fill="#A8A8A8"/>
<ellipse cx="14.3219" cy="363.002" rx="1.66536" ry="1.77075" fill="#A8A8A8"/>
<ellipse cx="62.0587" cy="416.125" rx="1.66536" ry="1.77075" fill="#A8A8A8"/>
<ellipse cx="14.3219" cy="494.628" rx="1.66536" ry="1.77075" fill="#A8A8A8"/>
<ellipse cx="109.795" cy="508.204" rx="1.66536" ry="1.77074" fill="#A8A8A8"/>
<ellipse cx="148.096" cy="433.242" rx="1.66536" ry="1.77074" fill="#A8A8A8"/>
<ellipse cx="4.33064" cy="662.849" rx="1.66536" ry="1.77075" fill="#A8A8A8"/>
<ellipse cx="117.567" cy="593.199" rx="1.66536" ry="1.77072" fill="#A8A8A8"/>
<ellipse cx="82.0416" cy="568.409" rx="1.66536" ry="1.77072" fill="#A8A8A8"/>
</svg>
