<svg width="32" height="32" viewBox="0 0 32 32" fill="none" xmlns="http://www.w3.org/2000/svg">
<path d="M31.9999 15.9996C31.9999 9.01292 27.5733 3.09292 21.3333 0.90625V31.0929C27.5733 28.9063 31.9999 22.9863 31.9999 15.9996Z" fill="#D93B33"/>
<path d="M0 15.9996C0 22.9863 4.48 28.9063 10.6667 31.0929V0.90625C4.48 3.09292 0 9.01292 0 15.9996Z" fill="#75A843"/>
<path d="M21.3335 0.906667C19.6802 0.32 17.8668 0 16.0002 0C14.1335 0 12.3202 0.32 10.6668 0.906667V31.0933C12.3202 31.68 14.1335 32 16.0002 32C17.8668 32 19.6802 31.68 21.3335 31.0933V0.906667Z" fill="white"/>
<path d="M20.6401 15.8398C20.5867 15.6798 20.5334 15.8931 20.5334 15.9464C20.5334 15.7864 20.4801 15.6798 20.3734 15.5198C20.2134 15.6798 20.1601 15.8931 20.1601 16.1064C20.1067 15.9464 20.0534 15.7864 19.8934 15.7331C20.0001 15.8931 19.9467 15.9998 19.9467 16.1598C19.9467 16.3731 20.1067 16.5331 20.1067 16.7464C20.1067 16.9598 20.0001 17.1198 19.8401 17.2798V17.1198C19.3067 17.3331 19.4134 17.5998 19.4134 18.0798C19.4134 18.5598 19.1467 18.4531 18.8267 18.7198C18.8801 18.6131 18.8801 18.4531 18.8267 18.3464C18.8267 18.6664 18.4001 18.6664 18.3467 18.9331C18.2934 19.0398 18.3467 19.2531 18.1867 19.3064C18.0801 19.3598 17.9201 19.4664 17.9201 19.5731C17.8134 19.5198 17.7067 19.5198 17.5467 19.5198C17.6001 19.4664 17.6534 19.4664 17.7067 19.4131C17.1734 19.1464 17.0134 19.7331 16.5334 19.7864C16.3734 19.7864 16.0001 19.5731 16.0001 19.7864C16.4801 19.7864 16.6934 20.2131 17.0667 20.2131C17.3867 20.2131 17.6534 19.9464 17.9734 19.9464C17.9201 19.9464 17.7601 19.8398 17.6001 19.8398C17.8667 19.6798 18.0267 19.3598 18.3467 19.3598C18.8801 19.3598 19.1467 19.2531 19.3067 18.7198C19.2534 18.7198 19.2001 18.7198 19.1467 18.7731C19.1467 18.5598 19.3601 18.2931 19.5734 18.1864C20.1067 18.0798 20.0534 17.6531 20.3734 17.2798C20.2667 17.2798 20.1601 17.3331 20.0534 17.4398C20.0534 17.1198 20.0001 16.7998 20.2667 16.5864C20.8001 16.3198 20.7467 16.2131 20.6401 15.8398ZM11.3601 15.8398C11.2534 16.2664 11.2001 16.3731 11.6267 16.6398C11.9467 16.8531 11.8401 17.1731 11.8401 17.4931C11.7334 17.3864 11.6801 17.3331 11.5201 17.3331C11.8401 17.6531 11.7867 18.1331 12.3201 18.2398C12.4801 18.3464 12.7467 18.6131 12.7467 18.8264C12.6934 18.8264 12.6401 18.7731 12.5867 18.7731C12.7467 19.3064 13.0134 19.4131 13.5467 19.4131C13.8667 19.4131 14.0267 19.7331 14.2934 19.8931C14.1334 19.8931 13.9734 19.9464 13.9201 19.9998C14.2401 19.9998 14.5067 20.3198 14.8267 20.2664C15.2001 20.2664 15.4667 19.8398 15.8934 19.8398C15.8934 19.6264 15.5201 19.8398 15.3601 19.8398C14.9334 19.7331 14.7734 19.1998 14.1867 19.4131C14.2401 19.4664 14.2934 19.5198 14.3467 19.5198C14.2401 19.5198 14.0801 19.4664 13.9734 19.5731C13.9201 19.4664 13.8134 19.3598 13.7067 19.3064C13.6001 19.1998 13.6001 19.0398 13.5467 18.9331C13.4401 18.6664 13.0667 18.6131 13.0667 18.3464C13.0134 18.4531 13.0134 18.6131 13.0667 18.7198C12.7467 18.4531 12.4801 18.5598 12.4801 18.0798C12.4801 17.6531 12.5867 17.3331 12.0534 17.1198V17.2798C11.8934 17.1198 11.7867 17.0131 11.7867 16.7464C11.7867 16.5331 12.0001 16.3731 11.9467 16.1598C11.9467 15.9998 11.8934 15.8931 12.0001 15.7331C11.8401 15.7864 11.7867 15.9464 11.7334 16.1064C11.7334 15.8931 11.6801 15.6798 11.5201 15.5198C11.4667 15.6264 11.4134 15.7864 11.3601 15.9464C11.4134 15.8398 11.3601 15.6798 11.3601 15.8398Z" fill="#75A843"/>
<path d="M17.44 19.0397C17.3333 19.0397 17.28 18.933 17.2266 18.8797C17.2266 18.773 17.6533 18.6664 17.7066 18.6664V18.5597C17.0133 18.773 14.9333 18.933 14.5066 18.1864C14.2933 18.5064 13.92 18.293 13.5466 18.0264C13.6 18.133 13.8133 18.6664 13.8133 18.613C13.92 18.6664 14.6133 18.8264 14.6133 18.9864L14.4533 19.1464C15.5733 19.5197 16.2666 19.6264 17.44 19.0397Z" fill="#5A9DED"/>
<path d="M16.7467 19.0396C16.8 18.9863 16.8 18.933 16.8 18.8263L16.7467 18.6663C16.8534 18.5596 16.7467 18.293 16.5867 18.3463C16.48 18.3996 16.5333 18.3996 16.4267 18.3463C16.3733 18.3463 16.3733 18.293 16.32 18.293H15.36C15.2533 18.293 15.2533 18.2396 15.1467 18.2396C15.04 18.1863 14.9867 18.293 14.9333 18.3463C14.9333 18.453 14.9867 18.453 14.9867 18.5063C14.9867 18.5596 14.9333 18.613 14.9333 18.7196C14.9333 18.8263 14.9867 18.8796 15.04 18.933C14.8267 19.093 15.04 19.3596 15.2533 19.1996C15.3067 19.3063 15.4667 19.3063 15.6267 19.3063H16.2134C16.32 19.3063 16.5333 19.3596 16.5867 19.1996C16.7467 19.4663 16.96 19.1463 16.7467 19.0396Z" fill="#D93B33"/>
<path d="M18.4534 17.6535C18.0267 17.1201 17.8134 17.9201 17.3334 17.8668C17.4401 17.2268 16.4801 17.4401 16.2134 17.6001C16.2667 17.5468 16.3201 17.4401 16.3734 17.3335C16.1601 17.3335 15.8934 17.4401 15.7334 17.2801C15.4134 17.0668 14.9867 16.9601 14.7201 17.3335C14.5067 17.0135 13.9201 16.6935 13.6001 17.0135C13.6001 16.6935 13.2801 16.2135 12.9067 16.2668C12.4801 16.3201 12.6401 16.8535 12.8534 17.0668C13.0134 17.2268 13.2267 17.2801 13.4401 17.2801C13.4401 17.3868 13.4934 17.4401 13.5467 17.4935C13.8134 17.7068 14.3467 17.7601 14.6134 17.5468C14.6134 18.0801 15.6801 18.0801 15.9467 17.8135C15.8401 18.0801 15.7334 18.6135 16.1067 18.6135C16.4267 18.6135 16.3201 18.2935 16.5867 18.1868C16.8001 18.0801 17.0667 18.0268 17.2801 18.1335C17.6534 18.3468 18.8267 18.2935 18.4534 17.6535Z" fill="#5A9DED"/>
<path d="M14.0799 16.3198C14.0266 16.2131 13.9199 16.1064 13.9199 16.1064C13.7066 16.1598 13.7066 15.9998 13.6532 15.8398C13.5999 15.5731 13.2266 15.4664 13.2266 15.2531C13.2266 15.0398 13.4399 14.8264 13.2799 14.6131C13.1199 14.3998 12.8532 14.2931 12.8532 14.3998C12.7999 14.5064 13.0666 14.5064 13.0666 14.7731C13.0666 15.0931 12.7466 15.3598 13.1199 15.6264C13.3332 15.9464 13.3332 16.5331 13.7066 16.5331C13.8666 16.5331 14.0266 16.4798 14.0799 16.3198Z" fill="#75A843"/>
<path d="M14.88 16.053C14.7734 15.8397 14.88 15.5197 14.6667 15.3597C14.4 15.1464 13.8667 15.573 13.8134 15.0397C13.8134 14.933 14.4 14.293 14.5067 14.2397C14.6667 14.0264 14.6134 13.653 14.4534 13.5464C14.24 13.4397 14.1867 13.5464 14.0267 13.7597C14.08 13.813 14.2934 13.9197 14.2934 13.973C14.1334 14.3464 13.6534 14.3997 13.5467 14.773C13.44 15.0397 13.4934 15.4664 13.76 15.6264C13.92 15.733 14.0267 15.733 14.1867 15.733C14.6667 15.6797 14.4 15.7864 14.4534 15.893C14.4534 15.9997 14.6134 16.373 14.88 16.053ZM13.28 13.4397C13.28 13.7597 13.6 13.7064 13.8134 13.653C13.8134 13.5464 13.8134 13.4397 13.8667 13.333C13.76 13.3864 13.6 13.3864 13.5467 13.333C13.3867 13.2264 13.92 13.013 13.8667 13.013C13.8667 13.013 13.3334 13.2797 13.5467 12.9597C13.6 12.853 13.7067 12.7464 13.76 12.6397C13.8134 12.533 13.6 12.6397 13.6 12.6397C13.5467 12.6397 13.4934 12.6397 13.44 12.693C13.12 12.9597 13.2267 13.1197 13.28 13.4397Z" fill="#75A843"/>
<path d="M18.9335 13.4396C18.6668 13.0662 17.6535 11.8396 16.2135 11.7329C16.0535 11.7329 15.6268 11.8929 15.4668 11.9462C14.9868 12.2662 16.0001 12.5329 16.0535 12.7462C16.0535 12.8529 16.1068 12.9062 16.1068 13.0129C15.9468 12.7462 15.7868 12.5862 15.7335 12.4796C15.4668 12.5862 15.0401 12.4262 14.9868 12.1596C14.9335 12.2662 14.9335 12.3196 14.8268 12.4262C14.8268 12.2662 14.7735 12.2662 14.7201 12.1596C14.7201 12.3196 14.7201 12.5329 14.5601 12.5862C14.6135 12.4796 14.5601 12.3729 14.5068 12.2662C14.5068 12.4262 14.5068 12.5329 14.4001 12.6396C14.4535 12.5329 14.3468 12.4796 14.3468 12.3729C14.2935 12.7996 13.7068 12.9596 14.2935 13.1196C14.5068 13.1729 14.6135 13.1196 14.8268 13.2262C14.8801 13.2796 14.9868 13.3862 14.9868 13.3329C14.9868 13.3862 14.7735 13.5996 14.9335 13.6529C14.8801 13.7062 14.7201 14.0262 14.7201 14.0262C14.8801 14.0262 14.7735 14.1329 14.6668 14.2396C14.5068 14.5062 14.6668 14.7729 14.7201 15.0929C14.7201 14.9862 14.8801 15.1462 14.8801 15.3062C14.8801 15.5196 15.0935 15.6262 15.1468 15.7862C14.8801 15.5196 14.8268 15.7862 15.1468 15.9462C14.8801 15.9462 14.8268 16.1062 15.0935 16.2129C14.4535 16.2129 14.9868 16.4796 15.0935 16.5329C15.5201 16.6396 15.8401 16.3196 15.8401 16.2662C15.8401 16.2662 16.6935 17.1196 16.7468 17.1196C16.8001 17.1196 17.2268 16.9062 17.3335 17.0129C17.4401 17.1729 17.5468 17.0129 17.6535 17.0662C17.7601 17.1729 18.1868 17.0662 18.2935 17.0129C18.3468 17.0129 18.8801 16.9062 18.7735 16.7996C18.5068 16.5862 18.1868 16.3729 17.9201 16.1596C17.6535 15.9462 17.3868 15.7862 17.1735 15.5729C17.0668 15.4662 17.0668 15.2529 17.0135 15.0929C17.4935 15.5729 17.9735 15.8396 17.9201 14.9329C18.2401 15.1996 18.8801 16.6929 18.9335 16.6929C19.0935 16.6929 18.9335 15.0929 18.9335 14.9329C19.1468 15.1462 19.1468 16.9062 19.2001 16.9062C19.4668 16.9596 19.8401 14.6129 18.9335 13.4396Z" fill="#330663"/>
<path d="M15.0933 16.1599C15.04 16.1599 14.7733 15.7865 14.7733 15.7332C14.9333 16.3732 14.2933 15.9999 14.4533 15.7332C14.24 15.6799 13.7067 15.9998 13.92 16.3198C13.8133 16.5332 14.6667 16.3732 14.72 16.2665C14.9333 16.7465 15.4667 16.2132 15.0933 16.1599ZM17.6 17.7598C17.8667 17.3865 16.7467 17.2798 16.8533 16.8532C16.6933 16.9598 16.48 17.3332 16.2667 17.2265C16.16 17.1732 15.7333 17.4399 15.9467 17.5999C15.9467 17.3865 16.0533 17.5465 16.2133 17.4932C16.16 17.6532 16 17.8132 16.2667 17.9198C16.16 17.5998 16.5867 17.7599 16.5333 17.5999C16.4267 17.4932 16.9067 17.4932 16.96 17.4932C17.12 17.4932 17.6533 17.6532 17.44 17.8132C17.44 17.8132 17.5467 17.8132 17.6 17.7598ZM14.0267 13.1732C13.9733 13.2799 13.76 13.4399 13.76 13.5999C13.76 13.7065 14.0267 13.9732 14.1333 13.8132C13.8133 13.5999 14.1867 13.4399 14.3467 13.4399C14.4 13.4399 14.4 13.5465 14.4 13.5465C14.4533 13.5999 14.88 13.4399 14.8267 13.3332C14.88 13.1199 14.1867 13.1199 14.0267 13.1732Z" fill="#FFE94D"/>
</svg>
