<svg width="54" height="97" viewBox="0 0 54 97" fill="none" xmlns="http://www.w3.org/2000/svg">
<path d="M28 1C28 0.447715 27.5523 -2.41411e-08 27 0C26.4477 2.41411e-08 26 0.447715 26 1L28 1ZM28 23L28 1L26 1L26 23L28 23Z" fill="#9A85B5"/>
<circle cx="27" cy="49" r="25.5" stroke="#9A85B5" stroke-width="3"/>
<rect x="7" y="29" width="40" height="40" rx="20" fill="#9A85B5"/>
<path d="M27 39C23.788 39 20.853 40.9645 20.853 45.002V47.3712C19.6105 47.4997 19 48.1412 19 49.4048V56.937C19 58.3585 19.7598 59 21.2906 59H32.7094C34.2402 59 35 58.3585 35 56.937V49.3951C35 48.1315 34.39 47.4601 33.147 47.3418V45.002C33.147 40.9645 30.2115 39 27 39ZM22.7065 44.7847C22.7065 42.0305 24.617 40.5201 27 40.5201C29.383 40.5201 31.2934 42.0305 31.2934 44.7847V47.3316L22.7065 47.3413V44.7847Z" fill="#F1ECF7"/>
<path d="M28 75C28 74.4477 27.5523 74 27 74C26.4477 74 26 74.4477 26 75L28 75ZM28 97L28 75L26 75L26 97L28 97Z" fill="#9A85B5"/>
</svg>
