<svg width="42" height="30" viewBox="0 0 42 30" fill="none" xmlns="http://www.w3.org/2000/svg">
<path d="M8.95444 29.941V28.1764C8.95444 27.4998 8.50101 27.0587 7.7238 27.0587C7.33528 27.0587 6.9143 27.1764 6.62282 27.5587C6.39626 27.2352 6.07248 27.0587 5.58675 27.0587C5.26282 27.0587 4.9392 27.1469 4.68003 27.4704V27.1175H4.00003V29.941H4.68003V28.3822C4.68003 27.8823 4.9715 27.6469 5.42493 27.6469C5.87807 27.6469 6.10493 27.9116 6.10493 28.3822V29.941H6.78493V28.3822C6.78493 27.8823 7.10856 27.6469 7.52954 27.6469C7.98297 27.6469 8.20954 27.9116 8.20954 28.3822V29.941H8.95444ZM19.0248 27.1175H17.924V26.2646H17.244V27.1175H16.6287V27.6762H17.2438V28.9705C17.2438 29.6176 17.5353 29.9999 18.3125 29.9999C18.604 29.9999 18.9276 29.9117 19.1544 29.7941L18.96 29.2646C18.7658 29.3822 18.5392 29.4117 18.3772 29.4117C18.0535 29.4117 17.924 29.2352 17.924 28.941V27.6762H19.0248V27.1175ZM24.7887 27.0586C24.4002 27.0586 24.1412 27.2352 23.9792 27.4704V27.1175H23.2992V29.941H23.9792V28.3528C23.9792 27.8823 24.2058 27.6176 24.6267 27.6176C24.7563 27.6176 24.9182 27.647 25.0477 27.6764L25.242 27.0882C25.1125 27.0587 24.9182 27.0587 24.7887 27.0587M16.0782 27.3529C15.7543 27.147 15.301 27.0589 14.8153 27.0589C14.0382 27.0589 13.5202 27.4118 13.5202 27.9706C13.5202 28.4413 13.9087 28.7059 14.5887 28.7942L14.9125 28.8236C15.2687 28.8823 15.463 28.9706 15.463 29.1177C15.463 29.3235 15.204 29.4706 14.7505 29.4706C14.2972 29.4706 13.941 29.3235 13.7143 29.1766L13.3905 29.6471C13.7467 29.8824 14.2325 30 14.7181 30C15.6248 30 16.143 29.6178 16.143 29.0883C16.143 28.5882 15.722 28.3235 15.0743 28.2353L14.7505 28.2059C14.4591 28.1764 14.2325 28.1177 14.2325 27.9413C14.2325 27.7353 14.459 27.6177 14.8153 27.6177C15.204 27.6177 15.5925 27.7647 15.7867 27.853L16.0782 27.3529ZM34.1469 27.0589C33.7582 27.0589 33.4992 27.2353 33.3372 27.4706V27.1177H32.6572V29.9412H33.3372V28.353C33.3372 27.8824 33.564 27.6177 33.9848 27.6177C34.1144 27.6177 34.2764 27.6472 34.4059 27.6765L34.6002 27.0883C34.4707 27.0589 34.2764 27.0589 34.1469 27.0589ZM25.4687 28.5294C25.4687 29.3823 26.1163 30 27.1202 30C27.5735 30 27.8972 29.9118 28.221 29.6766L27.8972 29.1766C27.6382 29.353 27.3792 29.4412 27.0877 29.4412C26.5372 29.4412 26.1487 29.0883 26.1487 28.5294C26.1487 28.0001 26.5372 27.647 27.0877 27.6177C27.3792 27.6177 27.6382 27.7058 27.8972 27.8824L28.221 27.3824C27.8972 27.147 27.5735 27.0589 27.1202 27.0589C26.1163 27.0589 25.4687 27.6765 25.4687 28.5294ZM31.7507 28.5294V27.1177H31.0707V27.4706C30.844 27.206 30.5202 27.0589 30.0992 27.0589C29.2249 27.0589 28.5449 27.6765 28.5449 28.5294C28.5449 29.3823 29.2249 30 30.0992 30C30.5525 30 30.8764 29.853 31.0707 29.5883V29.9412H31.7507V28.5294ZM29.2572 28.5294C29.2572 28.0294 29.6135 27.6177 30.1963 27.6177C30.7467 27.6177 31.1354 28.0001 31.1354 28.5294C31.1354 29.0294 30.7467 29.4412 30.1963 29.4412C29.6135 29.4117 29.2572 29.0294 29.2572 28.5294ZM21.1297 27.0589C20.223 27.0589 19.5753 27.647 19.5753 28.5294C19.5753 29.4118 20.2228 30 21.162 30C21.6153 30 22.0687 29.8824 22.4249 29.6178L22.101 29.1766C21.842 29.353 21.5182 29.4706 21.1944 29.4706C20.7735 29.4706 20.3525 29.2942 20.2553 28.794H22.5544V28.5589C22.5869 27.647 22.0041 27.0589 21.1297 27.0589ZM21.1295 27.5882C21.5504 27.5882 21.842 27.8236 21.9066 28.2648H20.2876C20.3523 27.8824 20.6438 27.5882 21.1295 27.5882ZM38 28.5294V26H37.32V27.4706C37.0933 27.206 36.7695 27.0589 36.3486 27.0589C35.4743 27.0589 34.7943 27.6765 34.7943 28.5294C34.7943 29.3823 35.4743 30 36.3486 30C36.802 30 37.1258 29.853 37.32 29.5883V29.9412H38V28.5294ZM35.5067 28.5294C35.5067 28.0294 35.8628 27.6177 36.4458 27.6177C36.9963 27.6177 37.3848 28.0001 37.3848 28.5294C37.3848 29.0294 36.9963 29.4412 36.4458 29.4412C35.8628 29.4117 35.5067 29.0294 35.5067 28.5294ZM12.7751 28.5294V27.1177H12.0951V27.4706C11.8684 27.206 11.5446 27.0589 11.1237 27.0589C10.2494 27.0589 9.56939 27.6765 9.56939 28.5294C9.56939 29.3823 10.2494 30 11.1237 30C11.5771 30 11.9009 29.853 12.0951 29.5883V29.9412H12.7751V28.5294ZM10.2494 28.5294C10.2494 28.0294 10.6056 27.6177 11.1884 27.6177C11.7389 27.6177 12.1276 28.0001 12.1276 28.5294C12.1276 29.0294 11.7389 29.4412 11.1884 29.4412C10.6056 29.4117 10.2494 29.0294 10.2494 28.5294Z" fill="#330663"/>
<path d="M15.3219 2.38525H26.6781V21.9153H15.3219V2.38525Z" fill="#D93B33"/>
<path d="M16.043 12.15C16.043 8.26881 17.9897 4.82624 20.9819 2.59868C18.7829 0.978715 16.007 0 12.9787 0C5.80423 0 3.05176e-05 5.43367 3.05176e-05 12.15C3.05176e-05 18.8662 5.80423 24.3 12.9786 24.3C16.0069 24.3 18.7828 23.3213 20.9819 21.7012C17.9897 19.5074 16.043 16.0312 16.043 12.15Z" fill="#FF0000"/>
<path d="M41.9998 12.15C41.9998 18.8662 36.1956 24.3 29.0213 24.3C25.993 24.3 23.2171 23.3213 21.018 21.7012C24.0463 19.4738 25.957 16.0312 25.957 12.15C25.957 8.26881 24.0102 4.82624 21.018 2.59868C23.2169 0.978715 25.993 0 29.0213 0C36.1956 0 41.9998 5.46749 41.9998 12.15Z" fill="url(#paint0_linear_4144_10552)"/>
<defs>
<linearGradient id="paint0_linear_4144_10552" x1="1069.55" y1="-0.5832" x2="1069.55" y2="2429.76" gradientUnits="userSpaceOnUse">
<stop stop-color="#F9AA4B"/>
<stop offset="1" stop-color="#F7931A"/>
</linearGradient>
</defs>
</svg>
