<svg width="28" height="28" viewBox="0 0 28 28" fill="none" xmlns="http://www.w3.org/2000/svg">
<path d="M27.9998 13.9996C27.9998 7.8863 24.1265 2.7063 18.6665 0.792969V27.2063C24.1265 25.293 27.9998 20.113 27.9998 13.9996Z" fill="#D93B33"/>
<path d="M0 13.9996C0 20.113 3.92 25.293 9.33333 27.2063V0.792969C3.92 2.7063 0 7.8863 0 13.9996Z" fill="#75A843"/>
<path d="M18.6668 0.793333C17.2202 0.28 15.6335 0 14.0002 0C12.3668 0 10.7802 0.28 9.3335 0.793333V27.2067C10.7802 27.72 12.3668 28 14.0002 28C15.6335 28 17.2202 27.72 18.6668 27.2067V0.793333Z" fill="white"/>
<path d="M18.06 13.8601C18.0134 13.7201 17.9667 13.9067 17.9667 13.9534C17.9667 13.8134 17.92 13.7201 17.8267 13.5801C17.6867 13.7201 17.64 13.9067 17.64 14.0934C17.5934 13.9534 17.5467 13.8134 17.4067 13.7667C17.5 13.9067 17.4534 14.0001 17.4534 14.1401C17.4534 14.3267 17.5934 14.4667 17.5934 14.6534C17.5934 14.8401 17.5 14.9801 17.36 15.1201V14.9801C16.8934 15.1667 16.9867 15.4001 16.9867 15.8201C16.9867 16.2401 16.7534 16.1467 16.4734 16.3801C16.52 16.2867 16.52 16.1467 16.4734 16.0534C16.4734 16.3334 16.1 16.3334 16.0534 16.5667C16.0067 16.6601 16.0534 16.8467 15.9134 16.8934C15.82 16.9401 15.68 17.0334 15.68 17.1267C15.5867 17.0801 15.4934 17.0801 15.3534 17.0801C15.4 17.0334 15.4467 17.0334 15.4934 16.9867C15.0267 16.7534 14.8867 17.2667 14.4667 17.3134C14.3267 17.3134 14 17.1267 14 17.3134C14.42 17.3134 14.6067 17.6867 14.9334 17.6867C15.2134 17.6867 15.4467 17.4534 15.7267 17.4534C15.68 17.4534 15.54 17.3601 15.4 17.3601C15.6334 17.2201 15.7734 16.9401 16.0534 16.9401C16.52 16.9401 16.7534 16.8467 16.8934 16.3801C16.8467 16.3801 16.8 16.3801 16.7534 16.4267C16.7534 16.2401 16.94 16.0067 17.1267 15.9134C17.5934 15.8201 17.5467 15.4467 17.8267 15.1201C17.7334 15.1201 17.64 15.1667 17.5467 15.2601C17.5467 14.9801 17.5 14.7001 17.7334 14.5134C18.2 14.2801 18.1534 14.1867 18.06 13.8601ZM9.94003 13.8601C9.84669 14.2334 9.80003 14.3267 10.1734 14.5601C10.4534 14.7467 10.36 15.0267 10.36 15.3067C10.2667 15.2134 10.22 15.1667 10.08 15.1667C10.36 15.4467 10.3134 15.8667 10.78 15.9601C10.92 16.0534 11.1534 16.2867 11.1534 16.4734C11.1067 16.4734 11.06 16.4267 11.0134 16.4267C11.1534 16.8934 11.3867 16.9867 11.8534 16.9867C12.1334 16.9867 12.2734 17.2667 12.5067 17.4067C12.3667 17.4067 12.2267 17.4534 12.18 17.5001C12.46 17.5001 12.6934 17.7801 12.9734 17.7334C13.3 17.7334 13.5334 17.3601 13.9067 17.3601C13.9067 17.1734 13.58 17.3601 13.44 17.3601C13.0667 17.2667 12.9267 16.8001 12.4134 16.9867C12.46 17.0334 12.5067 17.0801 12.5534 17.0801C12.46 17.0801 12.32 17.0334 12.2267 17.1267C12.18 17.0334 12.0867 16.9401 11.9934 16.8934C11.9 16.8001 11.9 16.6601 11.8534 16.5667C11.76 16.3334 11.4334 16.2867 11.4334 16.0534C11.3867 16.1467 11.3867 16.2867 11.4334 16.3801C11.1534 16.1467 10.92 16.2401 10.92 15.8201C10.92 15.4467 11.0134 15.1667 10.5467 14.9801V15.1201C10.4067 14.9801 10.3134 14.8867 10.3134 14.6534C10.3134 14.4667 10.5 14.3267 10.4534 14.1401C10.4534 14.0001 10.4067 13.9067 10.5 13.7667C10.36 13.8134 10.3134 13.9534 10.2667 14.0934C10.2667 13.9067 10.22 13.7201 10.08 13.5801C10.0334 13.6734 9.98669 13.8134 9.94003 13.9534C9.98669 13.8601 9.94003 13.7201 9.94003 13.8601Z" fill="#75A843"/>
<path d="M15.2599 16.6601C15.1666 16.6601 15.1199 16.5668 15.0733 16.5201C15.0733 16.4268 15.4466 16.3334 15.4933 16.3334V16.2401C14.8866 16.4268 13.0666 16.5668 12.6933 15.9134C12.5066 16.1934 12.1799 16.0068 11.8533 15.7734C11.8999 15.8668 12.0866 16.3334 12.0866 16.2868C12.1799 16.3334 12.7866 16.4734 12.7866 16.6134L12.6466 16.7534C13.6266 17.0801 14.2333 17.1734 15.2599 16.6601Z" fill="#5A9DED"/>
<path d="M14.6533 16.66C14.7 16.6133 14.7 16.5667 14.7 16.4733L14.6533 16.3333C14.7467 16.24 14.6533 16.0067 14.5133 16.0533C14.42 16.1 14.4667 16.1 14.3733 16.0533C14.3267 16.0533 14.3266 16.0067 14.28 16.0067H13.44C13.3467 16.0067 13.3467 15.96 13.2533 15.96C13.16 15.9133 13.1133 16.0067 13.0667 16.0533C13.0667 16.1467 13.1133 16.1467 13.1133 16.1933C13.1133 16.24 13.0667 16.2866 13.0667 16.38C13.0667 16.4733 13.1133 16.52 13.16 16.5667C12.9733 16.7067 13.16 16.94 13.3467 16.8C13.3933 16.8933 13.5333 16.8933 13.6733 16.8933H14.1867C14.28 16.8933 14.4666 16.94 14.5133 16.8C14.6533 17.0333 14.84 16.7533 14.6533 16.66Z" fill="#D93B33"/>
<path d="M16.1467 15.4464C15.7734 14.9797 15.5867 15.6797 15.1667 15.6331C15.26 15.0731 14.42 15.2597 14.1867 15.3997C14.2334 15.3531 14.28 15.2597 14.3267 15.1664C14.14 15.1664 13.9067 15.2597 13.7667 15.1197C13.4867 14.9331 13.1134 14.8397 12.88 15.1664C12.6934 14.8864 12.18 14.6064 11.9 14.8864C11.9 14.6064 11.62 14.1864 11.2934 14.2331C10.92 14.2797 11.06 14.7464 11.2467 14.9331C11.3867 15.0731 11.5734 15.1197 11.76 15.1197C11.76 15.2131 11.8067 15.2597 11.8534 15.3064C12.0867 15.4931 12.5534 15.5397 12.7867 15.3531C12.7867 15.8197 13.72 15.8197 13.9534 15.5864C13.86 15.8197 13.7667 16.2864 14.0934 16.2864C14.3734 16.2864 14.28 16.0064 14.5134 15.9131C14.7 15.8197 14.9334 15.7731 15.12 15.8664C15.4467 16.0531 16.4734 16.0064 16.1467 15.4464Z" fill="#5A9DED"/>
<path d="M12.32 14.2801C12.2733 14.1868 12.18 14.0934 12.18 14.0934C11.9933 14.1401 11.9933 14.0001 11.9466 13.8601C11.9 13.6268 11.5733 13.5334 11.5733 13.3468C11.5733 13.1601 11.76 12.9734 11.62 12.7868C11.48 12.6001 11.2466 12.5068 11.2466 12.6001C11.2 12.6934 11.4333 12.6934 11.4333 12.9268C11.4333 13.2068 11.1533 13.4401 11.48 13.6734C11.6666 13.9534 11.6666 14.4668 11.9933 14.4668C12.1333 14.4668 12.2733 14.4201 12.32 14.2801Z" fill="#75A843"/>
<path d="M13.02 14.0467C12.9267 13.86 13.02 13.58 12.8334 13.44C12.6 13.2534 12.1334 13.6267 12.0867 13.16C12.0867 13.0667 12.6 12.5067 12.6934 12.46C12.8334 12.2734 12.7867 11.9467 12.6467 11.8534C12.46 11.76 12.4134 11.8534 12.2734 12.04C12.32 12.0867 12.5067 12.18 12.5067 12.2267C12.3667 12.5534 11.9467 12.6 11.8534 12.9267C11.76 13.16 11.8067 13.5334 12.04 13.6734C12.18 13.7667 12.2734 13.7667 12.4134 13.7667C12.8334 13.72 12.6 13.8134 12.6467 13.9067C12.6467 14 12.7867 14.3267 13.02 14.0467ZM11.62 11.76C11.62 12.04 11.9 11.9934 12.0867 11.9467C12.0867 11.8534 12.0867 11.76 12.1334 11.6667C12.04 11.7134 11.9 11.7134 11.8534 11.6667C11.7134 11.5734 12.18 11.3867 12.1334 11.3867C12.1334 11.3867 11.6667 11.62 11.8534 11.34C11.9 11.2467 11.9934 11.1534 12.04 11.06C12.0867 10.9667 11.9 11.06 11.9 11.06C11.8534 11.06 11.8067 11.06 11.76 11.1067C11.48 11.34 11.5734 11.48 11.62 11.76Z" fill="#75A843"/>
<path d="M16.5667 11.7599C16.3334 11.4333 15.4467 10.3599 14.1867 10.2666C14.0467 10.2666 13.6734 10.4066 13.5334 10.4533C13.1134 10.7333 14.0001 10.9666 14.0467 11.1533C14.0467 11.2466 14.0934 11.2933 14.0934 11.3866C13.9534 11.1533 13.8134 11.0133 13.7667 10.9199C13.5334 11.0133 13.1601 10.8733 13.1134 10.6399C13.0667 10.7333 13.0667 10.7799 12.9734 10.8733C12.9734 10.7333 12.9267 10.7333 12.8801 10.6399C12.8801 10.7799 12.8801 10.9666 12.7401 11.0133C12.7867 10.9199 12.7401 10.8266 12.6934 10.7333C12.6934 10.8733 12.6934 10.9666 12.6001 11.0599C12.6467 10.9666 12.5534 10.9199 12.5534 10.8266C12.5067 11.1999 11.9934 11.3399 12.5067 11.4799C12.6934 11.5266 12.7867 11.4799 12.9734 11.5733C13.0201 11.6199 13.1134 11.7133 13.1134 11.6666C13.1134 11.7133 12.9267 11.8999 13.0667 11.9466C13.0201 11.9933 12.8801 12.2733 12.8801 12.2733C13.0201 12.2733 12.9267 12.3666 12.8334 12.4599C12.6934 12.6933 12.8334 12.9266 12.8801 13.2066C12.8801 13.1133 13.0201 13.2533 13.0201 13.3933C13.0201 13.5799 13.2067 13.6733 13.2534 13.8133C13.0201 13.5799 12.9734 13.8133 13.2534 13.9533C13.0201 13.9533 12.9734 14.0933 13.2067 14.1866C12.6467 14.1866 13.1134 14.4199 13.2067 14.4666C13.5801 14.5599 13.8601 14.2799 13.8601 14.2333C13.8601 14.2333 14.6067 14.9799 14.6534 14.9799C14.7001 14.9799 15.0734 14.7933 15.1667 14.8866C15.2601 15.0266 15.3534 14.8866 15.4467 14.9333C15.5401 15.0266 15.9134 14.9333 16.0067 14.8866C16.0534 14.8866 16.5201 14.7933 16.4267 14.6999C16.1934 14.5133 15.9134 14.3266 15.6801 14.1399C15.4467 13.9533 15.2134 13.8133 15.0267 13.6266C14.9334 13.5333 14.9334 13.3466 14.8867 13.2066C15.3067 13.6266 15.7267 13.8599 15.6801 13.0666C15.9601 13.2999 16.5201 14.6066 16.5667 14.6066C16.7067 14.6066 16.5667 13.2066 16.5667 13.0666C16.7534 13.2533 16.7534 14.7933 16.8001 14.7933C17.0334 14.8399 17.3601 12.7866 16.5667 11.7599Z" fill="#330663"/>
<path d="M13.2067 14.1402C13.16 14.1402 12.9267 13.8136 12.9267 13.7669C13.0667 14.3269 12.5067 14.0002 12.6467 13.7669C12.46 13.7202 11.9934 14.0002 12.18 14.2802C12.0867 14.4669 12.8334 14.3269 12.88 14.2336C13.0667 14.6536 13.5334 14.1869 13.2067 14.1402ZM15.4 15.5402C15.6334 15.2136 14.6534 15.1202 14.7467 14.7469C14.6067 14.8402 14.42 15.1669 14.2334 15.0736C14.14 15.0269 13.7667 15.2602 13.9534 15.4002C13.9534 15.2136 14.0467 15.3536 14.1867 15.3069C14.14 15.4469 14 15.5869 14.2334 15.6802C14.14 15.4002 14.5134 15.5402 14.4667 15.4002C14.3734 15.3069 14.7934 15.3069 14.84 15.3069C14.98 15.3069 15.4467 15.4469 15.26 15.5869C15.26 15.5869 15.3534 15.5869 15.4 15.5402ZM12.2734 11.5269C12.2267 11.6202 12.04 11.7602 12.04 11.9002C12.04 11.9936 12.2734 12.2269 12.3667 12.0869C12.0867 11.9002 12.4134 11.7602 12.5534 11.7602C12.6 11.7602 12.6 11.8536 12.6 11.8536C12.6467 11.9002 13.02 11.7602 12.9734 11.6669C13.02 11.4802 12.4134 11.4802 12.2734 11.5269Z" fill="#FFE94D"/>
</svg>
