<svg width="50" height="94" viewBox="0 0 50 94" fill="none" xmlns="http://www.w3.org/2000/svg">
<path d="M27 1L27 -4.37114e-08L25 4.37114e-08L25 1L27 1ZM27 23L27 1L25 1L25 23L27 23Z" fill="#F1ECF7"/>
<path d="M26 22C22.717 22 19.4661 22.6466 16.4329 23.903C13.3998 25.1594 10.6438 27.0009 8.32233 29.3223C6.00086 31.6438 4.15938 34.3998 2.90301 37.4329C1.64664 40.4661 0.999999 43.717 0.999999 47C0.999999 50.283 1.64664 53.5339 2.90301 56.5671C4.15938 59.6002 6.00087 62.3562 8.32233 64.6777C10.6438 66.9991 13.3998 68.8406 16.4329 70.097C19.4661 71.3534 22.717 72 26 72" stroke="#F1ECF7" stroke-width="2"/>
<rect x="6" y="27" width="40" height="40" rx="20" fill="#F1ECF7"/>
<path d="M32.9989 46.0898H22V42.4531C22 40.4453 23.7916 38.8164 26 38.8164C28.2084 38.8164 30 40.4453 30 42.4531V43.3633H31.9979V42.4531C31.9979 39.4414 29.3126 37 26 37C22.6874 37 20.0021 39.4414 20.0021 42.4531V46.0898H19.0011C18.4511 46.0898 18 46.4961 18 47V56.0898C18 56.5938 18.4468 57 19.0011 57H32.9989C33.5489 57 34 56.5938 34 56.0898V47C34 46.4961 33.5532 46.0898 32.9989 46.0898Z" fill="#9A85B5"/>
<path d="M25 93L25 94L27 94L27 93L25 93ZM25 71L25 93L27 93L27 71L25 71Z" fill="#F1ECF7"/>
</svg>
