<svg width="42" height="14" viewBox="0 0 42 14" fill="none" xmlns="http://www.w3.org/2000/svg">
<path d="M15.9464 0.247239L10.4475 13.7875H6.86011L4.15406 2.98109C3.99 2.3171 3.84743 2.07274 3.34819 1.79198C2.53214 1.33441 1.18453 0.906487 0 0.640282L0.0798984 0.247239H5.85556C6.59056 0.247239 7.25238 0.752386 7.42071 1.62704L8.85052 9.46299L12.3805 0.247239H15.9464ZM20.7961 0.247239L17.9901 13.7875H14.596L17.4023 0.247239H20.7961ZM30.0026 9.36664C30.0167 5.79369 25.2162 5.59539 25.2476 3.99901C25.2591 3.51367 25.707 2.99701 26.6874 2.86493C27.173 2.80007 28.5147 2.74842 30.0344 3.47117L30.629 0.598115C29.8125 0.2933 28.7616 0 27.4545 0C24.0995 0 21.7394 1.83939 21.7206 4.47537C21.6986 6.42517 23.4063 7.51184 24.6906 8.16126C26.0134 8.8244 26.457 9.25064 26.451 9.84333C26.4415 10.7519 25.3944 11.154 24.421 11.1689C22.7141 11.1969 21.7247 10.6928 20.9354 10.3133L20.3193 13.2815C21.1134 13.6571 22.5768 13.9834 24.0926 14C27.6593 14 29.9921 12.1816 30.0026 9.36664ZM38.862 13.7876H42L39.2585 0.247239H36.3633C35.7103 0.247239 35.1615 0.638419 34.9181 1.23975L29.8256 13.7875H33.3895L34.0965 11.7649H38.4507L38.862 13.7876ZM35.0738 8.99036L36.8607 3.90553L37.8873 8.99036H35.0738Z" fill="#0052B4"/>
</svg>
