<svg aria-hidden="true" xmlns="http://www.w3.org/2000/svg" xmlns:xlink="http://www.w3.org/1999/xlink"><symbol viewBox="0 0 15 16" fill="none" id="entry" xmlns="http://www.w3.org/2000/svg">
<path fill-rule="evenodd" clip-rule="evenodd" d="M2.00002 1.59999C1.77911 1.59999 1.60002 1.77908 1.60002 1.99999V4.49999H0.400024V1.99999C0.400024 1.11634 1.11637 0.399994 2.00002 0.399994H13C13.8837 0.399994 14.6 1.11634 14.6 1.99999V13.5C14.6 14.3836 13.8837 15.1 13 15.1H2.00002C1.11637 15.1 0.400024 14.3837 0.400024 13.5V10.5H1.60002V13.5C1.60002 13.7209 1.77911 13.9 2.00002 13.9H13C13.2209 13.9 13.4 13.7209 13.4 13.5V1.99999C13.4 1.77908 13.2209 1.59999 13 1.59999H2.00002ZM6.60591 3.25735L10.4243 7.07573C10.6586 7.31004 10.6586 7.68994 10.4243 7.92426L6.60591 11.7426C6.3716 11.9769 5.9917 11.9769 5.75738 11.7426C5.52307 11.5083 5.52307 11.1284 5.75738 10.8941L8.5515 8.09999H0.400024V6.89999H8.5515L5.75738 4.10588C5.52307 3.87157 5.52307 3.49167 5.75738 3.25735C5.9917 3.02304 6.3716 3.02304 6.60591 3.25735Z" fill="currentColor"/>
</symbol><symbol viewBox="0 0 18 18" fill="none" id="gotop" xmlns="http://www.w3.org/2000/svg">
<path fill-rule="evenodd" clip-rule="evenodd" d="M9.51115 7.26001L17.8737 16.6679L17.1263 17.3322L9.48881 8.74007L1.36349 17.3434L0.636475 16.6567L9.51115 7.26001Z" fill="currentColor"/>
<path fill-rule="evenodd" clip-rule="evenodd" d="M9.51115 7.26001L17.8737 16.6679L17.1263 17.3322L9.48881 8.74007L1.36349 17.3434L0.636475 16.6567L9.51115 7.26001Z" fill="currentColor"/>
<path fill-rule="evenodd" clip-rule="evenodd" d="M9.51115 7.26001L17.8737 16.6679L17.1263 17.3322L9.48881 8.74007L1.36349 17.3434L0.636475 16.6567L9.51115 7.26001Z" fill="currentColor"/>
<path fill-rule="evenodd" clip-rule="evenodd" d="M9.51115 0.76001L17.8737 10.1679L17.1263 10.8322L9.48881 2.24007L1.36349 10.8434L0.636475 10.1567L9.51115 0.76001Z" fill="currentColor"/>
<path fill-rule="evenodd" clip-rule="evenodd" d="M9.51115 0.76001L17.8737 10.1679L17.1263 10.8322L9.48881 2.24007L1.36349 10.8434L0.636475 10.1567L9.51115 0.76001Z" fill="currentColor"/>
<path fill-rule="evenodd" clip-rule="evenodd" d="M9.51115 0.76001L17.8737 10.1679L17.1263 10.8322L9.48881 2.24007L1.36349 10.8434L0.636475 10.1567L9.51115 0.76001Z" fill="currentColor"/>
</symbol><symbol viewBox="0 0 16 16" fill="none" id="qr" xmlns="http://www.w3.org/2000/svg">
<path fill-rule="evenodd" clip-rule="evenodd" d="M1.99999 1.7C1.8343 1.7 1.69999 1.83432 1.69999 2V5H0.299988V2C0.299988 1.06112 1.0611 0.300003 1.99999 0.300003H4.99999V1.7H1.99999ZM11 0.300003H14C14.9389 0.300003 15.7 1.06112 15.7 2V5H14.3V2C14.3 1.83432 14.1657 1.7 14 1.7H11V0.300003ZM0.299988 13.5V10.5H1.69999V13.5C1.69999 13.6657 1.8343 13.8 1.99999 13.8H4.99999V15.2H1.99999C1.0611 15.2 0.299988 14.4389 0.299988 13.5ZM14.3 13.5V10.5H15.7V13.5C15.7 14.4389 14.9389 15.2 14 15.2H11V13.8H14C14.1657 13.8 14.3 13.6657 14.3 13.5Z" fill="currentColor"/>
</symbol><symbol viewBox="0 0 14 14" fill="none" id="search" xmlns="http://www.w3.org/2000/svg">
<path fill-rule="evenodd" clip-rule="evenodd" d="M6 2C3.79086 2 2 3.79086 2 6C2 8.20914 3.79086 10 6 10C7.02511 10 7.95808 9.61569 8.66642 8.98171C9.48635 8.24785 10 7.18457 10 6C10 3.79086 8.20914 2 6 2ZM0 6C0 2.68629 2.68629 0 6 0C9.31371 0 12 2.68629 12 6C12 7.29566 11.5886 8.49595 10.8906 9.47643L13.7071 12.2929L12.2929 13.7071L9.47646 10.8907C8.4958 11.5888 7.29508 12 6 12C2.68629 12 0 9.31371 0 6Z" fill="currentColor"/>
</symbol><symbol viewBox="0 0 12 12" fill="none" id="time" xmlns="http://www.w3.org/2000/svg">
<path fill-rule="evenodd" clip-rule="evenodd" d="M6.00002 1.59999C3.56997 1.59999 1.60002 3.56994 1.60002 5.99999C1.60002 8.43005 3.56997 10.4 6.00002 10.4C8.43008 10.4 10.4 8.43005 10.4 5.99999C10.4 3.56994 8.43008 1.59999 6.00002 1.59999ZM0.400024 5.99999C0.400024 2.9072 2.90723 0.399994 6.00002 0.399994C9.09282 0.399994 11.6 2.9072 11.6 5.99999C11.6 9.09279 9.09282 11.6 6.00002 11.6C2.90723 11.6 0.400024 9.09279 0.400024 5.99999ZM7.22502 3.49999V7.09999H3.50002V5.89999H6.02502V3.49999H7.22502Z" fill="currentColor"/>
</symbol></svg>