<svg width="18" height="18" viewBox="0 0 18 18" fill="none" xmlns="http://www.w3.org/2000/svg">
<mask id="path-1-outside-1_207_2684" maskUnits="userSpaceOnUse" x="0.5" y="0.5" width="17" height="17" fill="black">
<rect fill="white" x="0.5" y="0.5" width="17" height="17"/>
<path d="M9.00001 1.5C10.7352 1.5 12.4167 2.10164 13.758 3.20242C15.0993 4.3032 16.0174 5.835 16.3559 7.53682C16.6944 9.23865 16.4324 11.0052 15.6144 12.5355C14.7965 14.0658 13.4732 15.2651 11.8701 15.9291C10.2671 16.5931 8.48332 16.6807 6.82288 16.1771C5.16243 15.6734 3.72799 14.6095 2.76399 13.1668C1.79998 11.724 1.36605 9.99168 1.53613 8.26487C1.7062 6.53806 2.46977 4.92364 3.69671 3.6967L5.81803 5.81802C5.08186 6.55419 4.62373 7.52284 4.52168 8.55892C4.41963 9.59501 4.67999 10.6344 5.2584 11.5001C5.8368 12.3657 6.69746 13.004 7.69373 13.3062C8.69 13.6084 9.76024 13.5559 10.7221 13.1575C11.6839 12.759 12.4779 12.0395 12.9687 11.1213C13.4594 10.2031 13.6167 9.14319 13.4135 8.12209C13.2104 7.101 12.6596 6.18192 11.8548 5.52145C11.05 4.86099 10.0411 4.5 9.00001 4.5V1.5Z"/>
</mask>
<path d="M9.00001 1.5C10.7352 1.5 12.4167 2.10164 13.758 3.20242C15.0993 4.3032 16.0174 5.835 16.3559 7.53682C16.6944 9.23865 16.4324 11.0052 15.6144 12.5355C14.7965 14.0658 13.4732 15.2651 11.8701 15.9291C10.2671 16.5931 8.48332 16.6807 6.82288 16.1771C5.16243 15.6734 3.72799 14.6095 2.76399 13.1668C1.79998 11.724 1.36605 9.99168 1.53613 8.26487C1.7062 6.53806 2.46977 4.92364 3.69671 3.6967L5.81803 5.81802C5.08186 6.55419 4.62373 7.52284 4.52168 8.55892C4.41963 9.59501 4.67999 10.6344 5.2584 11.5001C5.8368 12.3657 6.69746 13.004 7.69373 13.3062C8.69 13.6084 9.76024 13.5559 10.7221 13.1575C11.6839 12.759 12.4779 12.0395 12.9687 11.1213C13.4594 10.2031 13.6167 9.14319 13.4135 8.12209C13.2104 7.101 12.6596 6.18192 11.8548 5.52145C11.05 4.86099 10.0411 4.5 9.00001 4.5V1.5Z" fill="#CD1111"/>
<path d="M9.00001 1.5V0.5H8.00001V1.5L9.00001 1.5ZM13.758 3.20242L14.3924 2.42941L13.758 3.20242ZM16.3559 7.53682L15.3751 7.73191L16.3559 7.53682ZM11.8701 15.9291L11.4875 15.0052L11.8701 15.9291ZM6.82288 16.1771L6.53259 17.134L6.82288 16.1771ZM2.76399 13.1668L1.93252 13.7223L2.76399 13.1668ZM1.53613 8.26487L0.540942 8.16685L1.53613 8.26487ZM3.69671 3.6967L4.40382 2.98959L3.69671 2.28248L2.98961 2.98959L3.69671 3.6967ZM5.81803 5.81802L6.52514 6.52513L7.23225 5.81802L6.52514 5.11091L5.81803 5.81802ZM4.52168 8.55892L3.5265 8.4609L4.52168 8.55892ZM5.2584 11.5001L4.42693 12.0556L5.2584 11.5001ZM10.7221 13.1575L11.1048 14.0813L10.7221 13.1575ZM12.9687 11.1213L12.0867 10.6499L12.9687 11.1213ZM13.4135 8.12209L14.3943 7.927L13.4135 8.12209ZM11.8548 5.52145L12.4892 4.74844L11.8548 5.52145ZM9.00001 4.5H8.00001V5.5H9.00001V4.5ZM9.00001 2.5C10.5038 2.5 11.9611 3.02143 13.1236 3.97543L14.3924 2.42941C12.8722 1.18186 10.9665 0.5 9.00001 0.5V2.5ZM13.1236 3.97543C14.286 4.92944 15.0817 6.257 15.3751 7.73191L17.3367 7.34173C16.953 5.413 15.9125 3.67696 14.3924 2.42941L13.1236 3.97543ZM15.3751 7.73191C15.6685 9.20683 15.4414 10.7378 14.7325 12.0641L16.4963 13.0069C17.4234 11.2726 17.7203 9.27047 17.3367 7.34173L15.3751 7.73191ZM14.7325 12.0641C14.0236 13.3903 12.8768 14.4297 11.4875 15.0052L12.2528 16.853C14.0696 16.1004 15.5693 14.7412 16.4963 13.0069L14.7325 12.0641ZM11.4875 15.0052C10.0981 15.5807 8.55222 15.6566 7.11316 15.2201L6.53259 17.134C8.41443 17.7048 10.436 17.6055 12.2528 16.853L11.4875 15.0052ZM7.11316 15.2201C5.6741 14.7836 4.43093 13.8616 3.59546 12.6112L1.93252 13.7223C3.02506 15.3574 4.65075 16.5631 6.53259 17.134L7.11316 15.2201ZM3.59546 12.6112C2.75999 11.3608 2.38391 9.85946 2.53131 8.36289L0.540942 8.16685C0.348189 10.1239 0.839979 12.0872 1.93252 13.7223L3.59546 12.6112ZM2.53131 8.36289C2.67871 6.86632 3.34047 5.46716 4.40382 4.4038L2.98961 2.98959C1.59907 4.38013 0.733695 6.2098 0.540942 8.16685L2.53131 8.36289ZM2.98961 4.4038L5.11093 6.52513L6.52514 5.11091L4.40382 2.98959L2.98961 4.4038ZM5.11093 5.11091C4.21116 6.01067 3.65122 7.19458 3.5265 8.4609L5.51687 8.65694C5.59623 7.85109 5.95256 7.0977 6.52514 6.52513L5.11093 5.11091ZM3.5265 8.4609C3.40177 9.72723 3.71999 10.9976 4.42693 12.0556L6.08987 10.9445C5.64 10.2712 5.4375 9.46278 5.51687 8.65694L3.5265 8.4609ZM4.42693 12.0556C5.13387 13.1136 6.18578 13.8938 7.40344 14.2632L7.98401 12.3493C7.20914 12.1142 6.53974 11.6178 6.08987 10.9445L4.42693 12.0556ZM7.40344 14.2632C8.62111 14.6325 9.92918 14.5683 11.1048 14.0813L10.3394 12.2336C9.5913 12.5435 8.75889 12.5843 7.98401 12.3493L7.40344 14.2632ZM11.1048 14.0813C12.2804 13.5944 13.2507 12.7149 13.8506 11.5927L12.0867 10.6499C11.705 11.364 11.0875 11.9237 10.3394 12.2336L11.1048 14.0813ZM13.8506 11.5927C14.4504 10.4705 14.6426 9.17501 14.3943 7.927L12.4328 8.31718C12.5907 9.11137 12.4684 9.93576 12.0867 10.6499L13.8506 11.5927ZM14.3943 7.927C14.1461 6.679 13.4728 5.55568 12.4892 4.74844L11.2204 6.29446C11.8463 6.80816 12.2748 7.523 12.4328 8.31718L14.3943 7.927ZM12.4892 4.74844C11.5056 3.94121 10.2725 3.5 9.00001 3.5V5.5C9.80976 5.5 10.5944 5.78077 11.2204 6.29446L12.4892 4.74844ZM10 4.5V1.5L8.00001 1.5V4.5H10Z" fill="#CD1111" mask="url(#path-1-outside-1_207_2684)"/>
<path d="M9 9L3.75 3.75" stroke="#CD1111" stroke-width="2" stroke-linecap="round"/>
</svg>
