<svg width="561" height="262" viewBox="0 0 561 262" fill="none" xmlns="http://www.w3.org/2000/svg">
<path d="M508.798 256.68V185.94H400.078V160.38L502.318 4.67969H533.998V160.74H560.458V185.94H533.998V256.68H508.798ZM429.958 160.38L508.798 160.74L508.258 40.6797L429.958 160.38Z" fill="#D3E5E5"/>
<path d="M278.685 261.36C263.565 261.36 250.065 258 238.185 251.28C226.305 244.44 216.165 235.02 207.765 223.02C199.365 211.02 192.945 197.16 188.505 181.44C184.185 165.6 182.025 148.68 182.025 130.68C182.025 112.68 184.185 95.76 188.505 79.92C192.945 64.08 199.365 50.22 207.765 38.34C216.165 26.34 226.305 16.98 238.185 10.26C250.065 3.42 263.565 0 278.685 0C293.685 0 307.125 3.42 319.005 10.26C330.885 16.98 340.965 26.34 349.245 38.34C357.525 50.22 363.825 64.08 368.145 79.92C372.585 95.76 374.805 112.68 374.805 130.68C374.805 148.68 372.585 165.6 368.145 181.44C363.825 197.16 357.525 211.02 349.245 223.02C340.965 235.02 330.885 244.44 319.005 251.28C307.125 258 293.685 261.36 278.685 261.36ZM278.685 236.16C294.525 236.16 307.785 231.3 318.465 221.58C329.265 211.86 337.365 199.02 342.765 183.06C348.165 166.98 350.865 149.52 350.865 130.68C350.865 110.76 348.045 92.88 342.405 77.04C336.885 61.08 328.725 48.48 317.925 39.24C307.245 29.88 294.165 25.2 278.685 25.2C266.445 25.2 255.765 28.02 246.645 33.66C237.525 39.3 229.965 47.04 223.965 56.88C217.965 66.72 213.465 78 210.465 90.72C207.465 103.32 205.965 116.64 205.965 130.68C205.965 149.64 208.725 167.16 214.245 183.24C219.765 199.2 227.925 212.04 238.725 221.76C249.525 231.36 262.845 236.16 278.685 236.16Z" fill="#D3E5E5"/>
<path d="M108.72 256.68V185.94H0V160.38L102.24 4.67969H133.92V160.74H160.38V185.94H133.92V256.68H108.72ZM29.88 160.38L108.72 160.74L108.18 40.6797L29.88 160.38Z" fill="#D3E5E5"/>
</svg>
