<svg width="130" height="40" viewBox="0 0 130 40" fill="none" xmlns="http://www.w3.org/2000/svg">
<rect x="0.5" y="0.5" width="129" height="39" rx="5.5" fill="black"/>
<rect x="0.5" y="0.5" width="129" height="39" rx="5.5" stroke="#6D6D6D"/>
<path fill-rule="evenodd" clip-rule="evenodd" d="M25.769 20.5806C25.7908 18.8841 26.6802 17.3171 28.1256 16.4285C27.2096 15.1204 25.7305 14.3208 24.1344 14.2709C22.4552 14.0946 20.8272 15.2757 19.9715 15.2757C19.0992 15.2757 17.7817 14.2884 16.363 14.3176C14.4963 14.3779 12.7982 15.4134 11.8901 17.0454C9.95607 20.3938 11.3987 25.3149 13.2513 28.0215C14.1782 29.3469 15.2615 30.8273 16.6789 30.7748C18.066 30.7173 18.584 29.8903 20.2583 29.8903C21.9171 29.8903 22.4031 30.7748 23.8493 30.7414C25.3377 30.7173 26.2754 29.4102 27.1698 28.0723C27.8358 27.1279 28.3483 26.0842 28.6882 24.9798C26.9205 24.2321 25.7711 22.5 25.769 20.5806Z" fill="white"/>
<path fill-rule="evenodd" clip-rule="evenodd" d="M23.0376 12.4906C23.8491 11.5164 24.2489 10.2642 24.1521 9C22.9123 9.13022 21.767 9.72278 20.9445 10.6596C20.1323 11.5839 19.7209 12.7932 19.8008 14.021C21.0573 14.0339 22.2502 13.4699 23.0376 12.4906Z" fill="white"/>
<path d="M41.5571 13.7802V8.79422H42.9971C43.3931 8.79422 43.7261 8.85122 43.9961 8.96522C44.2661 9.07322 44.4851 9.23522 44.6531 9.45122C44.8271 9.66122 44.9501 9.91922 45.0221 10.2252C45.1001 10.5252 45.1391 10.8672 45.1391 11.2512C45.1391 11.6472 45.0971 11.9862 45.0131 12.2682C44.9351 12.5442 44.8331 12.7752 44.7071 12.9612C44.5811 13.1472 44.4371 13.2942 44.2751 13.4022C44.1191 13.5102 43.9601 13.5942 43.7981 13.6542C43.6361 13.7082 43.4831 13.7442 43.3391 13.7622C43.1951 13.7742 43.0751 13.7802 42.9791 13.7802H41.5571ZM40.7021 8.07422V14.5002H42.9071C43.4411 14.5002 43.9031 14.4252 44.2931 14.2752C44.6831 14.1252 45.0041 13.9092 45.2561 13.6272C45.5081 13.3392 45.6941 12.9882 45.8141 12.5742C45.9341 12.1542 45.9941 11.6742 45.9941 11.1342C45.9941 10.1022 45.7271 9.33422 45.1931 8.83022C44.6591 8.32622 43.8971 8.07422 42.9071 8.07422H40.7021Z" fill="white"/>
<path d="M47.6511 12.1782C47.6511 11.8962 47.6871 11.6472 47.7591 11.4312C47.8371 11.2092 47.9421 11.0232 48.0741 10.8732C48.2061 10.7232 48.3591 10.6092 48.5331 10.5312C48.7131 10.4532 48.9021 10.4142 49.1001 10.4142C49.2981 10.4142 49.4841 10.4532 49.6581 10.5312C49.8381 10.6092 49.9941 10.7232 50.1261 10.8732C50.2581 11.0232 50.3601 11.2092 50.4321 11.4312C50.5101 11.6472 50.5491 11.8962 50.5491 12.1782C50.5491 12.4602 50.5101 12.7122 50.4321 12.9342C50.3601 13.1502 50.2581 13.3332 50.1261 13.4832C49.9941 13.6272 49.8381 13.7382 49.6581 13.8162C49.4841 13.8942 49.2981 13.9332 49.1001 13.9332C48.9021 13.9332 48.7131 13.8942 48.5331 13.8162C48.3591 13.7382 48.2061 13.6272 48.0741 13.4832C47.9421 13.3332 47.8371 13.1502 47.7591 12.9342C47.6871 12.7122 47.6511 12.4602 47.6511 12.1782ZM46.8411 12.1782C46.8411 12.5202 46.8891 12.8382 46.9851 13.1322C47.0811 13.4262 47.2251 13.6842 47.4171 13.9062C47.6091 14.1222 47.8461 14.2932 48.1281 14.4192C48.4101 14.5392 48.7341 14.5992 49.1001 14.5992C49.4721 14.5992 49.7961 14.5392 50.0721 14.4192C50.3541 14.2932 50.5911 14.1222 50.7831 13.9062C50.9751 13.6842 51.1191 13.4262 51.2151 13.1322C51.3111 12.8382 51.3591 12.5202 51.3591 12.1782C51.3591 11.8362 51.3111 11.5182 51.2151 11.2242C51.1191 10.9242 50.9751 10.6662 50.7831 10.4502C50.5911 10.2282 50.3541 10.0542 50.0721 9.92822C49.7961 9.80222 49.4721 9.73922 49.1001 9.73922C48.7341 9.73922 48.4101 9.80222 48.1281 9.92822C47.8461 10.0542 47.6091 10.2282 47.4171 10.4502C47.2251 10.6662 47.0811 10.9242 46.9851 11.2242C46.8891 11.5182 46.8411 11.8362 46.8411 12.1782Z" fill="white"/>
<path d="M57.049 14.5002L58.534 9.84722H57.742L56.698 13.6542H56.68L55.708 9.84722H54.871L53.935 13.6542H53.917L52.864 9.84722H52.018L53.512 14.5002H54.34L55.276 10.8012H55.294L56.239 14.5002H57.049Z" fill="white"/>
<path d="M59.4413 9.84722V14.5002H60.2063V11.8722C60.2063 11.6622 60.2333 11.4702 60.2873 11.2962C60.3473 11.1162 60.4343 10.9602 60.5483 10.8282C60.6623 10.6962 60.8033 10.5942 60.9713 10.5222C61.1453 10.4502 61.3493 10.4142 61.5833 10.4142C61.8773 10.4142 62.1083 10.4982 62.2763 10.6662C62.4443 10.8342 62.5283 11.0622 62.5283 11.3502V14.5002H63.2933V11.4402C63.2933 11.1882 63.2663 10.9602 63.2123 10.7562C63.1643 10.5462 63.0773 10.3662 62.9513 10.2162C62.8253 10.0662 62.6603 9.94922 62.4563 9.86522C62.2523 9.78122 61.9973 9.73922 61.6913 9.73922C61.0013 9.73922 60.4973 10.0212 60.1793 10.5852H60.1613V9.84722H59.4413Z" fill="white"/>
<path d="M64.6673 8.07422V14.5002H65.4323V8.07422H64.6673Z" fill="white"/>
<path d="M67.3554 12.1782C67.3554 11.8962 67.3914 11.6472 67.4634 11.4312C67.5414 11.2092 67.6464 11.0232 67.7784 10.8732C67.9104 10.7232 68.0634 10.6092 68.2374 10.5312C68.4174 10.4532 68.6064 10.4142 68.8044 10.4142C69.0024 10.4142 69.1884 10.4532 69.3624 10.5312C69.5424 10.6092 69.6984 10.7232 69.8304 10.8732C69.9624 11.0232 70.0644 11.2092 70.1364 11.4312C70.2144 11.6472 70.2534 11.8962 70.2534 12.1782C70.2534 12.4602 70.2144 12.7122 70.1364 12.9342C70.0644 13.1502 69.9624 13.3332 69.8304 13.4832C69.6984 13.6272 69.5424 13.7382 69.3624 13.8162C69.1884 13.8942 69.0024 13.9332 68.8044 13.9332C68.6064 13.9332 68.4174 13.8942 68.2374 13.8162C68.0634 13.7382 67.9104 13.6272 67.7784 13.4832C67.6464 13.3332 67.5414 13.1502 67.4634 12.9342C67.3914 12.7122 67.3554 12.4602 67.3554 12.1782ZM66.5454 12.1782C66.5454 12.5202 66.5934 12.8382 66.6894 13.1322C66.7854 13.4262 66.9294 13.6842 67.1214 13.9062C67.3134 14.1222 67.5504 14.2932 67.8324 14.4192C68.1144 14.5392 68.4384 14.5992 68.8044 14.5992C69.1764 14.5992 69.5004 14.5392 69.7764 14.4192C70.0584 14.2932 70.2954 14.1222 70.4874 13.9062C70.6794 13.6842 70.8234 13.4262 70.9194 13.1322C71.0154 12.8382 71.0634 12.5202 71.0634 12.1782C71.0634 11.8362 71.0154 11.5182 70.9194 11.2242C70.8234 10.9242 70.6794 10.6662 70.4874 10.4502C70.2954 10.2282 70.0584 10.0542 69.7764 9.92822C69.5004 9.80222 69.1764 9.73922 68.8044 9.73922C68.4384 9.73922 68.1144 9.80222 67.8324 9.92822C67.5504 10.0542 67.3134 10.2282 67.1214 10.4502C66.9294 10.6662 66.7854 10.9242 66.6894 11.2242C66.5934 11.5182 66.5454 11.8362 66.5454 12.1782Z" fill="white"/>
<path d="M76.2674 14.4822C76.1354 14.5602 75.9524 14.5992 75.7184 14.5992C75.5204 14.5992 75.3614 14.5452 75.2414 14.4372C75.1274 14.3232 75.0704 14.1402 75.0704 13.8882C74.8604 14.1402 74.6144 14.3232 74.3324 14.4372C74.0564 14.5452 73.7564 14.5992 73.4324 14.5992C73.2224 14.5992 73.0214 14.5752 72.8294 14.5272C72.6434 14.4792 72.4814 14.4042 72.3434 14.3022C72.2054 14.2002 72.0944 14.0682 72.0104 13.9062C71.9324 13.7382 71.8934 13.5372 71.8934 13.3032C71.8934 13.0392 71.9384 12.8232 72.0284 12.6552C72.1184 12.4872 72.2354 12.3522 72.3794 12.2502C72.5294 12.1422 72.6974 12.0612 72.8834 12.0072C73.0754 11.9532 73.2704 11.9082 73.4684 11.8722C73.6784 11.8302 73.8764 11.8002 74.0624 11.7822C74.2544 11.7582 74.4224 11.7282 74.5664 11.6922C74.7104 11.6502 74.8244 11.5932 74.9084 11.5212C74.9924 11.4432 75.0344 11.3322 75.0344 11.1882C75.0344 11.0202 75.0014 10.8852 74.9354 10.7832C74.8754 10.6812 74.7944 10.6032 74.6924 10.5492C74.5964 10.4952 74.4854 10.4592 74.3594 10.4412C74.2394 10.4232 74.1194 10.4142 73.9994 10.4142C73.6754 10.4142 73.4054 10.4772 73.1894 10.6032C72.9734 10.7232 72.8564 10.9542 72.8384 11.2962H72.0734C72.0854 11.0082 72.1454 10.7652 72.2534 10.5672C72.3614 10.3692 72.5054 10.2102 72.6854 10.0902C72.8654 9.96422 73.0694 9.87422 73.2974 9.82022C73.5314 9.76622 73.7804 9.73922 74.0444 9.73922C74.2544 9.73922 74.4614 9.75422 74.6654 9.78422C74.8754 9.81422 75.0644 9.87722 75.2324 9.97322C75.4004 10.0632 75.5354 10.1922 75.6374 10.3602C75.7394 10.5282 75.7904 10.7472 75.7904 11.0172V13.4112C75.7904 13.5912 75.7994 13.7232 75.8174 13.8072C75.8414 13.8912 75.9134 13.9332 76.0334 13.9332C76.0994 13.9332 76.1774 13.9182 76.2674 13.8882V14.4822ZM75.0254 12.0972C74.9294 12.1692 74.8034 12.2232 74.6474 12.2592C74.4914 12.2892 74.3264 12.3162 74.1524 12.3402C73.9844 12.3582 73.8134 12.3822 73.6394 12.4122C73.4654 12.4362 73.3094 12.4782 73.1714 12.5382C73.0334 12.5982 72.9194 12.6852 72.8294 12.7992C72.7454 12.9072 72.7034 13.0572 72.7034 13.2492C72.7034 13.3752 72.7274 13.4832 72.7754 13.5732C72.8294 13.6572 72.8954 13.7262 72.9734 13.7802C73.0574 13.8342 73.1534 13.8732 73.2614 13.8972C73.3694 13.9212 73.4834 13.9332 73.6034 13.9332C73.8554 13.9332 74.0714 13.9002 74.2514 13.8342C74.4314 13.7622 74.5784 13.6752 74.6924 13.5732C74.8064 13.4652 74.8904 13.3512 74.9444 13.2312C74.9984 13.1052 75.0254 12.9882 75.0254 12.8802V12.0972Z" fill="white"/>
<path d="M77.7174 12.2142C77.7174 11.9862 77.7414 11.7642 77.7894 11.5482C77.8374 11.3322 77.9154 11.1402 78.0234 10.9722C78.1314 10.8042 78.2754 10.6692 78.4554 10.5672C78.6354 10.4652 78.8544 10.4142 79.1124 10.4142C79.3764 10.4142 79.6014 10.4652 79.7874 10.5672C79.9734 10.6632 80.1234 10.7922 80.2374 10.9542C80.3574 11.1162 80.4444 11.3052 80.4984 11.5212C80.5524 11.7312 80.5794 11.9502 80.5794 12.1782C80.5794 12.3942 80.5524 12.6072 80.4984 12.8172C80.4504 13.0272 80.3694 13.2162 80.2554 13.3842C80.1414 13.5462 79.9944 13.6782 79.8144 13.7802C79.6344 13.8822 79.4154 13.9332 79.1574 13.9332C78.9114 13.9332 78.6954 13.8852 78.5094 13.7892C78.3294 13.6932 78.1794 13.5642 78.0594 13.4022C77.9454 13.2402 77.8584 13.0572 77.7984 12.8532C77.7444 12.6432 77.7174 12.4302 77.7174 12.2142ZM81.3174 14.5002V8.07422H80.5524V10.4682H80.5344C80.4504 10.3302 80.3454 10.2162 80.2194 10.1262C80.0994 10.0302 79.9704 9.95522 79.8324 9.90122C79.6944 9.84122 79.5564 9.79922 79.4184 9.77522C79.2804 9.75122 79.1514 9.73922 79.0314 9.73922C78.6774 9.73922 78.3654 9.80522 78.0954 9.93722C77.8314 10.0632 77.6094 10.2372 77.4294 10.4592C77.2554 10.6752 77.1234 10.9302 77.0334 11.2242C76.9494 11.5182 76.9074 11.8302 76.9074 12.1602C76.9074 12.4902 76.9524 12.8022 77.0424 13.0962C77.1324 13.3902 77.2644 13.6482 77.4384 13.8702C77.6184 14.0922 77.8404 14.2692 78.1044 14.4012C78.3744 14.5332 78.6894 14.5992 79.0494 14.5992C79.3734 14.5992 79.6704 14.5422 79.9404 14.4282C80.2104 14.3142 80.4084 14.1282 80.5344 13.8702H80.5524V14.5002H81.3174Z" fill="white"/>
<path d="M85.9172 12.1782C85.9172 11.8962 85.9532 11.6472 86.0252 11.4312C86.1032 11.2092 86.2082 11.0232 86.3402 10.8732C86.4722 10.7232 86.6252 10.6092 86.7992 10.5312C86.9792 10.4532 87.1682 10.4142 87.3662 10.4142C87.5642 10.4142 87.7502 10.4532 87.9242 10.5312C88.1042 10.6092 88.2602 10.7232 88.3922 10.8732C88.5242 11.0232 88.6262 11.2092 88.6982 11.4312C88.7762 11.6472 88.8152 11.8962 88.8152 12.1782C88.8152 12.4602 88.7762 12.7122 88.6982 12.9342C88.6262 13.1502 88.5242 13.3332 88.3922 13.4832C88.2602 13.6272 88.1042 13.7382 87.9242 13.8162C87.7502 13.8942 87.5642 13.9332 87.3662 13.9332C87.1682 13.9332 86.9792 13.8942 86.7992 13.8162C86.6252 13.7382 86.4722 13.6272 86.3402 13.4832C86.2082 13.3332 86.1032 13.1502 86.0252 12.9342C85.9532 12.7122 85.9172 12.4602 85.9172 12.1782ZM85.1072 12.1782C85.1072 12.5202 85.1552 12.8382 85.2512 13.1322C85.3472 13.4262 85.4912 13.6842 85.6832 13.9062C85.8752 14.1222 86.1122 14.2932 86.3942 14.4192C86.6762 14.5392 87.0002 14.5992 87.3662 14.5992C87.7382 14.5992 88.0622 14.5392 88.3382 14.4192C88.6202 14.2932 88.8572 14.1222 89.0492 13.9062C89.2412 13.6842 89.3852 13.4262 89.4812 13.1322C89.5772 12.8382 89.6252 12.5202 89.6252 12.1782C89.6252 11.8362 89.5772 11.5182 89.4812 11.2242C89.3852 10.9242 89.2412 10.6662 89.0492 10.4502C88.8572 10.2282 88.6202 10.0542 88.3382 9.92822C88.0622 9.80222 87.7382 9.73922 87.3662 9.73922C87.0002 9.73922 86.6762 9.80222 86.3942 9.92822C86.1122 10.0542 85.8752 10.2282 85.6832 10.4502C85.4912 10.6662 85.3472 10.9242 85.2512 11.2242C85.1552 11.5182 85.1072 11.8362 85.1072 12.1782Z" fill="white"/>
<path d="M90.7072 9.84722V14.5002H91.4722V11.8722C91.4722 11.6622 91.4992 11.4702 91.5532 11.2962C91.6132 11.1162 91.7002 10.9602 91.8142 10.8282C91.9282 10.6962 92.0692 10.5942 92.2372 10.5222C92.4112 10.4502 92.6152 10.4142 92.8492 10.4142C93.1432 10.4142 93.3742 10.4982 93.5422 10.6662C93.7102 10.8342 93.7942 11.0622 93.7942 11.3502V14.5002H94.5592V11.4402C94.5592 11.1882 94.5322 10.9602 94.4782 10.7562C94.4302 10.5462 94.3432 10.3662 94.2172 10.2162C94.0912 10.0662 93.9262 9.94922 93.7222 9.86522C93.5182 9.78122 93.2632 9.73922 92.9572 9.73922C92.2672 9.73922 91.7632 10.0212 91.4452 10.5852H91.4272V9.84722H90.7072Z" fill="white"/>
<path d="M99.6351 9.84722V8.45222H98.8701V9.84722H98.0781V10.5222H98.8701V13.4832C98.8701 13.6992 98.8911 13.8732 98.9331 14.0052C98.9751 14.1372 99.0381 14.2392 99.1221 14.3112C99.2121 14.3832 99.3261 14.4342 99.4641 14.4642C99.6081 14.4882 99.7791 14.5002 99.9771 14.5002H100.562V13.8252H100.211C100.091 13.8252 99.9921 13.8222 99.9141 13.8162C99.8421 13.8042 99.7851 13.7832 99.7431 13.7532C99.7011 13.7232 99.6711 13.6812 99.6531 13.6272C99.6411 13.5732 99.6351 13.5012 99.6351 13.4112V10.5222H100.562V9.84722H99.6351Z" fill="white"/>
<path d="M101.592 8.07422V14.5002H102.357V11.8722C102.357 11.6622 102.384 11.4702 102.438 11.2962C102.498 11.1162 102.585 10.9602 102.699 10.8282C102.813 10.6962 102.954 10.5942 103.122 10.5222C103.296 10.4502 103.5 10.4142 103.734 10.4142C104.028 10.4142 104.259 10.4982 104.427 10.6662C104.595 10.8342 104.679 11.0622 104.679 11.3502V14.5002H105.444V11.4402C105.444 11.1882 105.417 10.9602 105.363 10.7562C105.315 10.5462 105.228 10.3662 105.102 10.2162C104.976 10.0662 104.811 9.94922 104.607 9.86522C104.403 9.78122 104.148 9.73922 103.842 9.73922C103.704 9.73922 103.56 9.75422 103.41 9.78422C103.266 9.81422 103.125 9.86222 102.987 9.92822C102.855 9.98822 102.735 10.0692 102.627 10.1712C102.519 10.2672 102.435 10.3872 102.375 10.5312H102.357V8.07422H101.592Z" fill="white"/>
<path d="M110.004 11.7282H107.331C107.343 11.5482 107.382 11.3802 107.448 11.2242C107.514 11.0622 107.604 10.9212 107.718 10.8012C107.832 10.6812 107.967 10.5882 108.123 10.5222C108.285 10.4502 108.465 10.4142 108.663 10.4142C108.855 10.4142 109.029 10.4502 109.185 10.5222C109.347 10.5882 109.485 10.6812 109.599 10.8012C109.719 10.9152 109.812 11.0532 109.878 11.2152C109.95 11.3772 109.992 11.5482 110.004 11.7282ZM110.742 13.0242H109.986C109.92 13.3302 109.782 13.5582 109.572 13.7082C109.368 13.8582 109.104 13.9332 108.78 13.9332C108.528 13.9332 108.309 13.8912 108.123 13.8072C107.937 13.7232 107.784 13.6122 107.664 13.4742C107.544 13.3302 107.457 13.1682 107.403 12.9882C107.349 12.8022 107.325 12.6072 107.331 12.4032H110.814C110.826 12.1212 110.799 11.8242 110.733 11.5122C110.673 11.2002 110.559 10.9122 110.391 10.6482C110.229 10.3842 110.01 10.1682 109.734 10.0002C109.464 9.82622 109.122 9.73922 108.708 9.73922C108.39 9.73922 108.096 9.79922 107.826 9.91922C107.562 10.0392 107.331 10.2072 107.133 10.4232C106.941 10.6392 106.791 10.8942 106.683 11.1882C106.575 11.4822 106.521 11.8062 106.521 12.1602C106.533 12.5142 106.584 12.8412 106.674 13.1412C106.77 13.4412 106.911 13.6992 107.097 13.9152C107.283 14.1312 107.511 14.2992 107.781 14.4192C108.057 14.5392 108.381 14.5992 108.753 14.5992C109.281 14.5992 109.719 14.4672 110.067 14.2032C110.415 13.9392 110.64 13.5462 110.742 13.0242Z" fill="white"/>
<path d="M56.9199 21.9766C59.2177 21.9766 60.7324 23.793 60.7324 26.5987C60.7324 29.4122 59.2266 31.2198 56.9541 31.2198C55.7795 31.2812 54.6731 30.666 54.1055 29.6358H54.0625V34.1202H52.2041V22.0713H54.0029V23.5772H54.0371C54.6299 22.5534 55.7375 21.9385 56.9199 21.9766ZM66.8847 21.9766C69.1826 21.9766 70.6973 23.793 70.6973 26.5987C70.6973 29.4122 69.1914 31.2198 66.9189 31.2198C65.7443 31.2812 64.6379 30.666 64.0703 29.6358H64.0273V34.1202H62.1689V22.0713H63.9677V23.5772H64.0019C64.5947 22.5534 65.7023 21.9385 66.8847 21.9766ZM80.2266 18.5C82.8506 18.5 84.6494 19.9717 84.71 22.1143H82.834C82.7217 20.875 81.6972 20.127 80.2002 20.127C78.7031 20.127 77.6787 20.8838 77.6787 21.9854C77.6787 22.8633 78.333 23.3799 79.9336 23.7754L81.3017 24.1113C83.8496 24.7138 84.9082 25.7373 84.9082 27.5537C84.9082 29.8769 83.0576 31.332 80.1142 31.332C77.3603 31.332 75.501 29.9111 75.3808 27.665L77.2832 27.6651C77.4209 28.8965 78.6172 29.7051 80.2519 29.7051C81.8184 29.7051 82.9453 28.8965 82.9453 27.7861C82.9453 26.8223 82.2656 26.2451 80.6562 25.8496L79.0469 25.4619C76.7666 24.9111 75.708 23.8447 75.708 22.1143C75.708 19.9717 77.5752 18.5 80.2266 18.5ZM95.9317 21.96C98.5567 21.96 100.227 23.75 100.227 26.5987C100.227 29.4551 98.5655 31.2374 95.9317 31.2374C93.2988 31.2374 91.6377 29.4551 91.6377 26.5987C91.6377 23.7501 93.3155 21.96 95.9317 21.96ZM110.98 21.96C113.485 21.96 115.061 23.6807 115.061 26.4258V27.0626H108.666V27.1749C108.606 27.8489 108.839 28.5161 109.305 29.0067C109.771 29.4974 110.425 29.7642 111.102 29.7393C112.003 29.8238 112.854 29.3059 113.192 28.4659L114.957 28.4659C114.707 30.1094 113.106 31.2374 111.059 31.2374C108.425 31.2374 106.79 29.4727 106.79 26.6417C106.79 23.8018 108.434 21.96 110.98 21.96ZM88.9189 19.9288V22.0713H90.6406V23.543H88.9189V28.5342C88.9189 29.3096 89.2637 29.671 90.0205 29.671C90.2249 29.6674 90.429 29.653 90.6318 29.628V31.0908C90.2916 31.1544 89.9457 31.1832 89.5996 31.1768C87.7666 31.1768 87.0518 30.4883 87.0518 28.7324V23.543H85.7354V22.0713H87.0517V19.9288H88.9189ZM46.5664 18.7071L51.0498 31.1251H49.0107L47.875 27.7686H43.1416L42.0049 31.1251H40L44.4834 18.7071H46.5664ZM105.752 21.9766C105.966 21.9759 106.18 21.9991 106.389 22.0459V23.7842C106.118 23.7016 105.836 23.6637 105.554 23.6719C105.007 23.6498 104.479 23.8675 104.106 24.268C103.734 24.6684 103.555 25.2116 103.617 25.7549V31.125H101.759V22.0713H103.531V23.6123H103.574C103.821 22.6203 104.73 21.9376 105.752 21.9766ZM95.9317 23.4913C94.4258 23.4913 93.5313 24.6534 93.5313 26.5987C93.5313 28.5606 94.4258 29.7051 95.9317 29.7051C97.4375 29.7051 98.333 28.5606 98.333 26.5987C98.333 24.6446 97.4375 23.4913 95.9317 23.4913ZM56.4297 23.5606C55.0098 23.5606 54.0547 24.7911 54.0547 26.5987C54.0547 28.4229 55.0098 29.6446 56.4297 29.6446C57.875 29.6446 58.8223 28.4483 58.8223 26.5987C58.8223 24.7657 57.875 23.5606 56.4297 23.5606ZM66.3945 23.5606C64.9746 23.5606 64.0195 24.7911 64.0195 26.5987C64.0195 28.4229 64.9746 29.6446 66.3945 29.6446C67.8398 29.6446 68.7871 28.4483 68.7871 26.5987C68.7871 24.7657 67.8398 23.5606 66.3945 23.5606ZM45.5342 20.7725H45.4825L43.6318 26.2198H47.3838L45.5342 20.7725ZM110.98 23.4659C110.369 23.4622 109.782 23.7029 109.349 24.1344C108.916 24.5659 108.673 25.1525 108.675 25.7637H113.201C113.235 25.1581 113.014 24.5658 112.593 24.1296C112.171 23.6934 111.587 23.4528 110.98 23.4659Z" fill="white"/>
</svg>
