<svg width="130" height="40" viewBox="0 0 130 40" fill="none" xmlns="http://www.w3.org/2000/svg">
<rect x="0.5" y="0.5" width="129" height="39" rx="5.5" fill="black"/>
<rect x="0.5" y="0.5" width="129" height="39" rx="5.5" stroke="#6D6D6D"/>
<path fill-rule="evenodd" clip-rule="evenodd" d="M9.43514 7.5471C9.14414 7.8551 8.97314 8.3321 8.97314 8.9511V31.0491C8.97314 31.6681 9.14414 32.1451 9.43514 32.4531L9.50914 32.5251L21.8881 20.1461V19.8541L9.50914 7.4751L9.43514 7.5471Z" fill="#00D7FE"/>
<mask id="mask0_5415_4728" style="mask-type:alpha" maskUnits="userSpaceOnUse" x="21" y="15" width="12" height="10">
<path d="M26.0132 24.2741L21.8882 20.1461V19.8541L26.0152 15.7271L30.9972 18.5571C32.3932 19.3511 32.3932 20.6491 30.9972 21.4421L26.1082 24.2201L26.0132 24.2741Z" fill="white"/>
</mask>
<g mask="url(#mask0_5415_4728)">
<path fill-rule="evenodd" clip-rule="evenodd" d="M26.0132 24.2741L21.8882 20.1461V19.8541L26.0152 15.7271L30.9972 18.5571C32.3932 19.3511 32.3932 20.6491 30.9972 21.4421L26.1082 24.2201L26.0132 24.2741Z" fill="url(#paint0_linear_5415_4728)"/>
</g>
<mask id="mask1_5415_4728" style="mask-type:alpha" maskUnits="userSpaceOnUse" x="9" y="20" width="18" height="13">
<path d="M26.1081 24.22L21.8881 20L9.43506 32.453C9.89606 32.94 10.6561 33 11.5121 32.514L26.1081 24.22Z" fill="white"/>
</mask>
<g mask="url(#mask1_5415_4728)">
<path fill-rule="evenodd" clip-rule="evenodd" d="M26.1081 24.22L21.8881 20L9.43506 32.453C9.89606 32.94 10.6561 33 11.5121 32.514L26.1081 24.22Z" fill="url(#paint1_linear_5415_4728)"/>
</g>
<mask id="mask2_5415_4728" style="mask-type:alpha" maskUnits="userSpaceOnUse" x="9" y="7" width="18" height="13">
<path d="M26.1081 15.7802L11.5121 7.48617C10.6561 7.00017 9.89606 7.06017 9.43506 7.54717L21.8881 20.0002L26.1081 15.7802Z" fill="white"/>
</mask>
<g mask="url(#mask2_5415_4728)">
<path fill-rule="evenodd" clip-rule="evenodd" d="M26.1081 15.7802L11.5121 7.48617C10.6561 7.00017 9.89606 7.06017 9.43506 7.54717L21.8881 20.0002L26.1081 15.7802Z" fill="url(#paint2_linear_5415_4728)"/>
</g>
<path fill-rule="evenodd" clip-rule="evenodd" d="M103.894 30.953H105.76V18.452H103.894V30.953ZM120.701 22.955L118.562 28.375H118.498L116.278 22.955H114.268L117.597 30.53L115.699 34.744H117.646L122.776 22.955H120.701ZM110.119 29.533C109.507 29.533 108.655 29.228 108.655 28.472C108.655 27.507 109.717 27.137 110.633 27.137C111.454 27.137 111.839 27.314 112.338 27.555C112.193 28.713 111.196 29.533 110.119 29.533ZM110.344 22.682C108.993 22.682 107.594 23.277 107.015 24.596L108.671 25.287C109.025 24.596 109.684 24.37 110.376 24.37C111.341 24.37 112.322 24.949 112.338 25.979V26.107C112 25.914 111.277 25.625 110.392 25.625C108.607 25.625 106.789 26.606 106.789 28.439C106.789 30.112 108.253 31.19 109.893 31.19C111.148 31.19 111.839 30.627 112.274 29.967H112.338V30.932H114.139V26.14C114.139 23.92 112.483 22.682 110.344 22.682ZM98.812 24.477H96.158V20.192H98.812C100.207 20.192 100.999 21.347 100.999 22.334C100.999 23.303 100.207 24.477 98.812 24.477ZM98.764 18.452H94.293V30.953H96.158V26.217H98.764C100.832 26.217 102.865 24.719 102.865 22.334C102.865 19.949 100.832 18.452 98.764 18.452ZM74.383 29.535C73.094 29.535 72.015 28.456 72.015 26.974C72.015 25.476 73.094 24.38 74.383 24.38C75.656 24.38 76.654 25.476 76.654 26.974C76.654 28.456 75.656 29.535 74.383 29.535ZM76.525 23.655H76.461C76.042 23.156 75.237 22.705 74.222 22.705C72.095 22.705 70.146 24.573 70.146 26.974C70.146 29.358 72.095 31.211 74.222 31.211C75.237 31.211 76.042 30.76 76.461 30.244H76.525V30.856C76.525 32.484 75.656 33.354 74.254 33.354C73.11 33.354 72.401 32.532 72.111 31.839L70.484 32.516C70.951 33.644 72.192 35.029 74.254 35.029C76.445 35.029 78.298 33.74 78.298 30.599V22.962H76.525V23.655ZM79.587 30.953H81.456V18.451H79.587V30.953ZM84.21 26.829C84.162 25.186 85.483 24.348 86.433 24.348C87.175 24.348 87.803 24.718 88.012 25.25L84.21 26.829ZM90.01 25.411C89.656 24.461 88.576 22.705 86.369 22.705C84.178 22.705 82.358 24.428 82.358 26.958C82.358 29.342 84.162 31.211 86.578 31.211C88.528 31.211 89.656 30.019 90.123 29.326L88.673 28.359C88.19 29.068 87.529 29.535 86.578 29.535C85.628 29.535 84.951 29.1 84.516 28.247L90.203 25.895L90.01 25.411ZM44.702 24.01V25.814H49.019C48.89 26.829 48.552 27.57 48.037 28.086C47.408 28.714 46.425 29.406 44.702 29.406C42.044 29.406 39.965 27.264 39.965 24.606C39.965 21.947 42.044 19.805 44.702 19.805C46.136 19.805 47.183 20.369 47.956 21.094L49.229 19.821C48.149 18.79 46.716 18 44.702 18C41.061 18 38 20.965 38 24.606C38 28.247 41.061 31.211 44.702 31.211C46.667 31.211 48.149 30.567 49.309 29.358C50.501 28.166 50.872 26.491 50.872 25.137C50.872 24.718 50.84 24.332 50.775 24.01H44.702ZM55.781 29.535C54.492 29.535 53.38 28.472 53.38 26.958C53.38 25.427 54.492 24.38 55.781 24.38C57.069 24.38 58.181 25.427 58.181 26.958C58.181 28.472 57.069 29.535 55.781 29.535ZM55.781 22.705C53.428 22.705 51.511 24.493 51.511 26.958C51.511 29.406 53.428 31.211 55.781 31.211C58.133 31.211 60.05 29.406 60.05 26.958C60.05 24.493 58.133 22.705 55.781 22.705ZM65.094 29.535C63.805 29.535 62.693 28.472 62.693 26.958C62.693 25.427 63.805 24.38 65.094 24.38C66.383 24.38 67.494 25.427 67.494 26.958C67.494 28.472 66.383 29.535 65.094 29.535ZM65.094 22.705C62.742 22.705 60.825 24.493 60.825 26.958C60.825 29.406 62.742 31.211 65.094 31.211C67.446 31.211 69.363 29.406 69.363 26.958C69.363 24.493 67.446 22.705 65.094 22.705Z" fill="#FFFFFE"/>
<path d="M43.4712 10.814V13.1562C43.3921 13.2734 43.2661 13.4053 43.0933 13.5518C42.9204 13.6953 42.6816 13.8213 42.377 13.9297C42.0752 14.0352 41.6855 14.0879 41.208 14.0879C40.8184 14.0879 40.4595 14.0205 40.1313 13.8857C39.8062 13.748 39.5234 13.5488 39.2832 13.2881C39.0459 13.0244 38.8613 12.7051 38.7295 12.3301C38.6006 11.9521 38.5361 11.5244 38.5361 11.0469V10.5503C38.5361 10.0728 38.5918 9.64648 38.7031 9.27148C38.8174 8.89648 38.9844 8.57861 39.2041 8.31787C39.4238 8.0542 39.6934 7.85498 40.0127 7.72021C40.332 7.58252 40.6982 7.51367 41.1113 7.51367C41.6006 7.51367 42.0093 7.59863 42.3374 7.76855C42.6685 7.93555 42.9263 8.16699 43.1108 8.46289C43.2983 8.75879 43.4185 9.0957 43.4712 9.47363H42.623C42.585 9.24219 42.5088 9.03125 42.3945 8.84082C42.2832 8.65039 42.1235 8.49805 41.9155 8.38379C41.7075 8.2666 41.4395 8.20801 41.1113 8.20801C40.8154 8.20801 40.5591 8.26221 40.3423 8.37061C40.1255 8.479 39.9468 8.63428 39.8062 8.83643C39.6655 9.03857 39.5601 9.2832 39.4897 9.57031C39.4224 9.85742 39.3887 10.1812 39.3887 10.5415V11.0469C39.3887 11.416 39.4312 11.7456 39.5161 12.0356C39.604 12.3257 39.7285 12.5732 39.8896 12.7783C40.0508 12.9805 40.2427 13.1343 40.4653 13.2397C40.6909 13.3452 40.9399 13.3979 41.2124 13.3979C41.5142 13.3979 41.7588 13.373 41.9463 13.3232C42.1338 13.2705 42.2803 13.209 42.3857 13.1387C42.4912 13.0654 42.5718 12.9966 42.6274 12.9321V11.4995H41.1465V10.814H43.4712Z" fill="white"/>
<path d="M48.6724 13.3101V14H45.2842V13.3101H48.6724ZM45.4556 7.60156V14H44.6074V7.60156H45.4556ZM48.2241 10.3525V11.0425H45.2842V10.3525H48.2241ZM48.6284 7.60156V8.2959H45.2842V7.60156H48.6284Z" fill="white"/>
<path d="M51.9048 7.60156V14H51.0699V7.60156H51.9048ZM53.9615 7.60156V8.2959H49.0176V7.60156H53.9615Z" fill="white"/>
<path d="M57.337 7.60156V14H56.4888V7.60156H57.337Z" fill="white"/>
<path d="M60.8419 7.60156V14H60.0069V7.60156H60.8419ZM62.8985 7.60156V8.2959H57.9547V7.60156H62.8985Z" fill="white"/>
<path d="M70.2907 10.5986V11.0029C70.2907 11.4834 70.2306 11.9141 70.1105 12.2949C69.9904 12.6758 69.8175 12.9995 69.5919 13.2661C69.3663 13.5327 69.0954 13.7363 68.7789 13.877C68.4655 14.0176 68.1139 14.0879 67.7243 14.0879C67.3463 14.0879 66.9992 14.0176 66.6828 13.877C66.3693 13.7363 66.0968 13.5327 65.8654 13.2661C65.6369 12.9995 65.4596 12.6758 65.3336 12.2949C65.2077 11.9141 65.1447 11.4834 65.1447 11.0029V10.5986C65.1447 10.1182 65.2062 9.68896 65.3292 9.31104C65.4552 8.93018 65.6325 8.60645 65.861 8.33984C66.0895 8.07031 66.3605 7.86523 66.674 7.72461C66.9904 7.58398 67.3375 7.51367 67.7155 7.51367C68.1051 7.51367 68.4567 7.58398 68.7702 7.72461C69.0866 7.86523 69.3576 8.07031 69.5831 8.33984C69.8117 8.60645 69.986 8.93018 70.1061 9.31104C70.2291 9.68896 70.2907 10.1182 70.2907 10.5986ZM69.4513 11.0029V10.5898C69.4513 10.209 69.4118 9.87207 69.3327 9.5791C69.2565 9.28613 69.1437 9.04004 68.9943 8.84082C68.8449 8.6416 68.6618 8.49072 68.445 8.38818C68.2311 8.28564 67.9879 8.23438 67.7155 8.23438C67.4518 8.23438 67.213 8.28564 66.9992 8.38818C66.7882 8.49072 66.6066 8.6416 66.4542 8.84082C66.3048 9.04004 66.1891 9.28613 66.1071 9.5791C66.025 9.87207 65.984 10.209 65.984 10.5898V11.0029C65.984 11.3867 66.025 11.7266 66.1071 12.0225C66.1891 12.3154 66.3063 12.563 66.4586 12.7651C66.6139 12.9644 66.797 13.1152 67.0079 13.2178C67.2218 13.3203 67.4606 13.3716 67.7243 13.3716C67.9996 13.3716 68.2443 13.3203 68.4581 13.2178C68.672 13.1152 68.8522 12.9644 68.9987 12.7651C69.1481 12.563 69.2609 12.3154 69.3371 12.0225C69.4132 11.7266 69.4513 11.3867 69.4513 11.0029Z" fill="white"/>
<path d="M76.2126 7.60156V14H75.36L72.1388 9.06494V14H71.2907V7.60156H72.1388L75.3732 12.5498V7.60156H76.2126Z" fill="white"/>
<defs>
<linearGradient id="paint0_linear_5415_4728" x1="30.089" y1="20.0004" x2="21.8882" y2="20.0004" gradientUnits="userSpaceOnUse">
<stop stop-color="#FFBC00"/>
<stop offset="1" stop-color="#FFDA03"/>
</linearGradient>
<linearGradient id="paint1_linear_5415_4728" x1="23.8147" y1="23.9708" x2="13.1112" y2="32.7933" gradientUnits="userSpaceOnUse">
<stop stop-color="#E22652"/>
<stop offset="1" stop-color="#FF3A44"/>
</linearGradient>
<linearGradient id="paint2_linear_5415_4728" x1="11.3207" y1="9.04634" x2="18.457" y2="15.3213" gradientUnits="userSpaceOnUse">
<stop stop-color="#0ED574"/>
<stop offset="1" stop-color="#07F076"/>
</linearGradient>
</defs>
</svg>
