<svg width="106" height="24" viewBox="0 0 106 24" fill="none" xmlns="http://www.w3.org/2000/svg">
<path d="M5.29551 19.4134C6.61621 19.4134 7.35275 18.8163 7.67023 17.4696L9.72748 9.51615H9.80367L11.8736 17.4441C12.1911 18.829 12.9149 19.4134 14.2737 19.4134C15.5563 19.4134 16.2675 18.8036 16.6485 17.4569L19.3915 7.95341C19.5312 7.47062 19.5946 7.1657 19.5946 6.82266C19.5946 5.89518 18.8708 5.24722 17.8422 5.24722C16.9278 5.24722 16.331 5.80625 16.1278 6.79725L14.096 15.6273H14.0198L11.899 6.94971C11.6577 5.84436 10.9339 5.24722 9.82907 5.24722C8.69885 5.24722 7.97501 5.84436 7.73373 6.94971L5.62568 15.6273H5.54949L3.53034 6.82266C3.31445 5.80625 2.7176 5.24722 1.79057 5.24722C0.749244 5.24722 0 5.90789 0 6.83536C0 7.19111 0.0634953 7.49603 0.203185 7.97882L2.94618 17.4696C3.33985 18.8163 4.0129 19.4134 5.29551 19.4134Z" fill="white"/>
<path d="M25.0933 19.3626C26.795 19.3626 28.4967 18.5114 29.2586 17.063H29.3348V17.7618C29.411 18.8544 30.1095 19.4134 31.1127 19.4134C32.1667 19.4134 32.916 18.7782 32.916 17.5458V9.78295C32.916 7.03864 30.6428 5.23452 27.1506 5.23452C24.3314 5.23452 22.1472 6.23822 21.5122 7.86448C21.3852 8.14399 21.3217 8.4108 21.3217 8.70302C21.3217 9.54156 21.9694 10.126 22.871 10.126C23.4679 10.126 23.9377 9.8973 24.3441 9.43991C25.1695 8.37268 25.8553 8.00423 26.9855 8.00423C28.3824 8.00423 29.2713 8.74113 29.2713 10.0116V10.9137L25.8426 11.117C22.4392 11.3203 20.5344 12.756 20.5344 15.2335C20.5344 17.6855 22.5027 19.3626 25.0933 19.3626ZM26.3124 16.6818C25.0679 16.6818 24.2298 16.0466 24.2298 15.0302C24.2298 14.0646 25.0171 13.442 26.4013 13.3404L29.2713 13.1625V14.1535C29.2713 15.6273 27.9379 16.6818 26.3124 16.6818Z" fill="white"/>
<path d="M37.259 19.4134C38.3512 19.4134 39.1131 18.7528 39.1131 17.4823V2.4775C39.1131 1.20699 38.3512 0.533616 37.259 0.533616C36.1796 0.533616 35.405 1.20699 35.405 2.4775V17.4823C35.405 18.7528 36.1796 19.4134 37.259 19.4134Z" fill="white"/>
<path d="M43.5578 19.4134C44.6499 19.4134 45.4118 18.7528 45.4118 17.4823V2.4775C45.4118 1.20699 44.6499 0.533616 43.5578 0.533616C42.4783 0.533616 41.7037 1.20699 41.7037 2.4775V17.4823C41.7037 18.7528 42.4783 19.4134 43.5578 19.4134Z" fill="white"/>
<path d="M53.463 19.4389C57.0569 19.4389 59.4824 17.6855 59.4824 14.9794C59.4824 12.9465 58.2887 11.8793 55.3933 11.2695L53.1456 10.7867C51.7868 10.4944 51.2534 10.0244 51.2534 9.31286C51.2534 8.43621 52.1296 7.83907 53.3868 7.83907C54.7202 7.83907 55.4568 8.47432 56.1044 9.30016C56.4346 9.69402 56.968 9.87189 57.4505 9.87189C58.403 9.87189 58.8728 9.35098 58.8728 8.60138C58.8728 8.4235 58.8347 8.24563 58.7839 8.05506C58.3395 6.51773 56.2695 5.23452 53.4503 5.23452C49.92 5.23452 47.6723 6.91159 47.6723 9.51615C47.6723 11.5363 49.0184 12.8957 51.6852 13.4674L53.971 13.9502C55.3044 14.2425 55.7743 14.6363 55.7743 15.3732C55.7743 16.2753 54.898 16.8343 53.5519 16.8343C52.1423 16.8343 51.3042 16.4023 50.5803 15.4494C50.0724 14.8777 49.5644 14.6109 48.9676 14.6109C48.104 14.6109 47.4691 15.1826 47.4691 16.0339C47.4691 16.2372 47.5199 16.4786 47.6088 16.72C48.2564 18.3208 50.3391 19.4389 53.463 19.4389Z" fill="white"/>
<path d="M63.1778 24C64.2699 24 65.0319 23.3393 65.0319 22.0688V16.8597H65.1081C65.8319 18.397 67.3558 19.3626 69.3369 19.3626C72.7402 19.3626 74.8482 16.72 74.8482 12.3367C74.8482 7.94071 72.7275 5.31075 69.2734 5.31075C67.305 5.31075 65.7938 6.30175 65.0573 7.90259H64.9811V7.1657C64.9811 5.90789 64.2191 5.24722 63.1524 5.24722C62.0857 5.24722 61.3237 5.90789 61.3237 7.15299V22.0688C61.3237 23.3393 62.0984 24 63.1778 24ZM68.0288 16.3769C66.2129 16.3769 65.0192 14.8015 65.0192 12.3367C65.0192 9.8973 66.2129 8.28375 68.0288 8.28375C69.8829 8.28375 71.0512 9.87189 71.0512 12.3367C71.0512 14.8142 69.8829 16.3769 68.0288 16.3769Z" fill="white"/>
<path d="M78.6834 3.83695C79.8009 3.83695 80.6644 2.98571 80.6644 1.91848C80.6644 0.838539 79.8009 0 78.6834 0C77.5658 0 76.7023 0.838539 76.7023 1.91848C76.7023 2.98571 77.5658 3.83695 78.6834 3.83695ZM78.6834 19.4134C79.8263 19.4134 80.5374 18.6893 80.5374 17.4823V7.19111C80.5374 5.98412 79.8263 5.24722 78.6834 5.24722C77.5277 5.24722 76.8293 5.98412 76.8293 7.19111V17.4823C76.8293 18.6893 77.5277 19.4134 78.6834 19.4134Z" fill="white"/>
<path d="M89.2236 19.4389C91.8269 19.4389 94.1508 18.1429 94.9635 16.288C95.1286 15.9195 95.2048 15.6146 95.2048 15.3224C95.2048 14.4076 94.5064 13.8359 93.6428 13.8359C92.8555 13.8359 92.4491 14.1535 91.9539 14.9285C91.3824 15.8941 90.5824 16.5294 89.2871 16.5294C87.433 16.5294 86.2774 15.0048 86.2774 12.324C86.2774 9.69402 87.433 8.14399 89.3125 8.14399C90.4935 8.14399 91.3189 8.69031 91.992 9.88459C92.3729 10.558 92.8174 10.8502 93.5539 10.8502C94.4302 10.8502 95.1413 10.3166 95.1413 9.4018C95.1413 9.13499 95.0651 8.80466 94.9381 8.48703C94.2016 6.55585 91.9285 5.23452 89.1982 5.23452C85.1091 5.23452 82.5185 7.97882 82.5185 12.3367C82.5185 16.7454 85.1218 19.4389 89.2236 19.4389Z" fill="white"/>
<path d="M102.383 19.4164C104.382 19.4164 106 17.7979 106 15.7974C106 13.7743 104.382 12.1784 102.383 12.1784C100.361 12.1784 98.7654 13.7743 98.7654 15.7974C98.7654 17.7979 100.361 19.4164 102.383 19.4164Z" fill="#FFCC00"/>
</svg>
