<svg width="72" height="102" viewBox="0 0 72 102" fill="none" xmlns="http://www.w3.org/2000/svg">
<path d="M36 100.571L35.8145 100.739L36 100.944L36.1855 100.739L36 100.571ZM36 100.571C36.1855 100.739 36.1857 100.739 36.186 100.739L36.1872 100.737L36.1921 100.732L36.2113 100.71L36.2868 100.626C36.3534 100.552 36.4519 100.441 36.5804 100.295C36.8374 100.004 37.2141 99.5745 37.6933 99.0183C38.6517 97.9058 40.0205 96.2877 41.6629 94.2641C44.9473 90.2172 49.327 84.5471 53.7072 78.055C58.087 71.5636 62.4703 64.2459 65.7594 56.9041C69.0471 49.5656 71.25 42.1845 71.25 35.5714C71.25 16.0834 55.4881 0.321442 36 0.321442C16.5119 0.321442 0.75 16.0834 0.75 35.5714C0.75 42.1845 2.95293 49.5656 6.2406 56.9041C9.52973 64.2459 13.913 71.5636 18.2928 78.055C22.673 84.5471 27.0527 90.2172 30.3371 94.2641C31.9795 96.2877 33.3483 97.9058 34.3067 99.0183C34.7859 99.5745 35.1626 100.004 35.4196 100.295C35.5481 100.441 35.6466 100.552 35.7132 100.626L35.7887 100.71L35.8079 100.732L35.8128 100.737L35.814 100.739C35.8143 100.739 35.8145 100.739 36 100.571Z" fill="#28BEBE" stroke="black" stroke-width="0.5"/>
<path d="M32.5611 34.5719L19.7851 51.1806L24.2571 39.1439L24.3573 38.8743H24.0696H21.1424L34.9508 14.9007L56.7751 52.2879L24.7471 52.1077L28.7791 46.7889H47.0283H47.3769L47.2009 46.4879L35.1223 25.8343L34.9488 25.5377L34.7765 25.835L29.8898 34.2716L29.7159 34.5719H30.0628H32.5611Z" fill="white" stroke="black" stroke-width="0.4"/>
</svg>
