<svg width="30" height="82" viewBox="0 0 30 82" fill="none" xmlns="http://www.w3.org/2000/svg">
<path d="M29 51.5H29.5V51V29C29.5 26.7457 28.6045 24.5837 27.0104 22.9896C25.4163 21.3955 23.2543 20.5 21 20.5H9C6.74566 20.5 4.58365 21.3955 2.98959 22.9896C1.39553 24.5837 0.5 26.7457 0.5 29V51V51.5H1H6.5V81V81.5H7H23H23.5V81V51.5H29ZM21.0104 2.98959C19.4163 1.39553 17.2543 0.5 15 0.5C12.7457 0.5 10.5837 1.39553 8.98959 2.98959C7.39553 4.58365 6.5 6.74566 6.5 9C6.5 11.2543 7.39553 13.4163 8.98959 15.0104C10.5837 16.6045 12.7457 17.5 15 17.5C17.2543 17.5 19.4163 16.6045 21.0104 15.0104C22.6045 13.4163 23.5 11.2543 23.5 9C23.5 6.74566 22.6045 4.58365 21.0104 2.98959Z" fill="#009999" stroke="black"/>
</svg>
