<svg width="88" height="88" viewBox="0 0 88 88" fill="none" xmlns="http://www.w3.org/2000/svg">
<g opacity="0.88">
<path fill-rule="evenodd" clip-rule="evenodd" d="M44.0003 19.907C42.4104 19.907 40.8857 20.5244 39.7614 21.6235C38.6372 22.7225 38.0057 24.2132 38.0057 25.7674V26.4447C39.4897 26.4186 41.1175 26.4186 42.9079 26.4186H45.0953C46.8804 26.4186 48.5109 26.4186 49.9976 26.4447V25.7674C49.9976 24.9976 49.8425 24.2353 49.541 23.5241C49.2396 22.8129 48.7978 22.1668 48.2409 21.6225C47.6839 21.0783 47.0228 20.6467 46.2952 20.3523C45.5676 20.058 44.7877 19.9066 44.0003 19.907ZM53.9914 26.6218V25.7674C53.9914 23.177 52.9387 20.6926 51.0651 18.8608C49.1914 17.0291 46.6501 16 44.0003 16C41.3505 16 38.8092 17.0291 36.9355 18.8608C35.0619 20.6926 34.0092 23.177 34.0092 25.7674V26.6218C33.6282 26.653 33.2632 26.6895 32.9062 26.7338C30.2153 27.0593 27.9986 27.7418 26.1123 29.2707C24.2286 30.7996 23.1336 32.8052 22.3103 35.3317C21.5111 37.7801 20.9089 40.9239 20.1523 44.8804L20.0963 45.1669C19.0253 50.7487 18.1834 55.1479 18.0262 58.6147C17.8663 62.17 18.4098 65.1133 20.4613 67.5278C22.5128 69.9449 25.3716 71.0076 28.9737 71.5103C32.4906 72 37.0652 72 42.876 72H45.1273C50.9354 72 55.5127 72 59.0269 71.5103C62.629 71.0076 65.4904 69.9449 67.5419 67.5278C69.5934 65.1133 70.1316 62.17 69.9744 58.6147C69.8199 55.1479 68.9753 50.7487 67.9043 45.1669L67.851 44.8804C67.0917 40.9239 66.4869 37.7775 65.6929 35.3317C64.867 32.8052 63.7746 30.7996 61.8883 29.2707C60.0047 27.7418 57.7853 27.0567 55.0944 26.7338C54.7275 26.6898 54.3597 26.6524 53.9914 26.6218ZM33.3964 30.6121C31.1185 30.8856 29.741 31.4039 28.6647 32.2791C27.591 33.149 26.8157 34.3758 26.1176 36.5168C25.4062 38.7047 24.8441 41.6167 24.0554 45.7295C22.9471 51.504 22.1611 55.6272 22.0199 58.7866C21.8814 61.8861 22.3929 63.6834 23.5359 65.0352C24.6816 66.3818 26.3947 67.2022 29.5386 67.6398C32.7357 68.0878 37.0305 68.093 43.0412 68.093H44.9594C50.9727 68.093 55.2622 68.0878 58.462 67.6424C61.6059 67.2022 63.319 66.3818 64.4647 65.0352C65.6103 63.686 66.1192 61.8887 65.9833 58.784C65.8395 55.6298 65.0535 51.504 63.9451 45.7295C63.1565 41.6141 62.597 38.7073 61.883 36.5168C61.1849 34.3758 60.4123 33.149 59.3359 32.2765C58.2596 31.4039 56.8848 30.8856 54.6042 30.6095C52.2702 30.3282 49.2409 30.3256 44.9594 30.3256H43.0412C38.7596 30.3256 35.7304 30.3282 33.3964 30.6121ZM50.6557 43.8437C51.0514 44.1876 51.2913 44.671 51.3228 45.1876C51.3543 45.7043 51.1747 46.2121 50.8235 46.5994L43.7179 54.4134C43.543 54.6059 43.3309 54.7628 43.0939 54.8749C42.8568 54.987 42.5993 55.0522 42.3364 55.0667C42.0734 55.0813 41.8101 55.0448 41.5616 54.9595C41.3131 54.8742 41.0843 54.7417 40.8884 54.5697L37.3343 51.4441C36.94 51.0973 36.7027 50.6116 36.6748 50.0938C36.6468 49.5761 36.8303 49.0686 37.1851 48.6832C37.5398 48.2977 38.0366 48.0658 38.5662 48.0384C39.0959 48.0111 39.6149 48.1905 40.0092 48.5373L42.066 50.3501L47.8369 44.0052C48.1886 43.6184 48.683 43.3838 49.2116 43.353C49.7401 43.3223 50.2595 43.5004 50.6557 43.8437Z" fill="white"/>
</g>
</svg>
