<svg width="88" height="88" viewBox="0 0 88 88" fill="none" xmlns="http://www.w3.org/2000/svg">
<path d="M44 18C29.6407 18 18 29.6407 18 44C18 58.3601 29.6407 70 44 70C58.3601 70 70 58.3601 70 44C70 29.6407 58.3601 18 44 18ZM44 66.8012C31.4558 66.8012 21.25 56.5442 21.25 43.9999C21.25 31.4557 31.4558 21.2499 44 21.2499C56.5442 21.2499 66.75 31.4558 66.75 43.9999C66.75 56.544 56.5442 66.8012 44 66.8012ZM54.3764 34.4864L39.1217 49.837L32.252 42.9673C31.6174 42.3328 30.5888 42.3328 29.9534 42.9673C29.3189 43.6019 29.3189 44.6305 29.9534 45.2651L37.9964 53.3088C38.6309 53.9426 39.6596 53.9426 40.2949 53.3088C40.3681 53.2357 40.4307 53.156 40.4876 53.0732L56.6758 36.7849C57.3096 36.1504 57.3096 35.1218 56.6758 34.4864C56.0404 33.8519 55.0118 33.8519 54.3764 34.4864Z" fill="#ECF7EE"/>
</svg>
