<svg width="88" height="88" viewBox="0 0 88 88" fill="none" xmlns="http://www.w3.org/2000/svg">
<path d="M44 21.6833C31.6951 21.6833 21.6833 31.6951 21.6833 44C21.6833 56.3049 31.6951 66.3167 44 66.3167C56.3049 66.3167 66.3167 56.3049 66.3167 44C66.3167 31.6951 56.3049 21.6833 44 21.6833ZM44 64.0056C32.9679 64.0056 23.9944 55.0321 23.9944 44C23.9944 32.9679 32.9679 23.9944 44 23.9944C55.0321 23.9944 64.0056 32.9679 64.0056 44C64.0056 55.0321 55.0321 64.0056 44 64.0056ZM44 18C29.6411 18 18 29.6411 18 44C18 58.3589 29.6411 70 44 70C58.3589 70 70 58.3589 70 44C70 29.6411 58.3589 18 44 18ZM44 67.6889C30.937 67.6889 20.3111 57.063 20.3111 44C20.3111 30.937 30.937 20.3111 44 20.3111C57.063 20.3111 67.6889 30.937 67.6889 44C67.6889 57.063 57.063 67.6889 44 67.6889ZM53.6645 52.4344C52.2358 54.0594 50.3965 55.3143 48.311 56.0455V60.4939C48.311 61.1327 47.7942 61.6495 47.1555 61.6495C46.5167 61.6495 45.9999 61.1327 45.9999 60.4939V56.6188C45.2235 56.7361 44.4223 56.7881 43.6053 56.7587C43.0456 56.7384 42.4971 56.6684 41.9555 56.5759V60.4917C41.9555 61.1304 41.4386 61.6472 40.7999 61.6472C40.1612 61.6472 39.6444 61.1304 39.6444 60.4917V55.9507C35.0492 54.2264 31.6525 49.9198 31.3319 44.8192C30.9663 38.9715 34.5345 33.909 39.6444 32.0203V27.5019C39.6444 26.8632 40.1612 26.3463 40.7999 26.3463C41.4387 26.3463 41.9555 26.8632 41.9555 27.5019V31.4064C42.6461 31.2913 43.3525 31.2281 44.0748 31.2281C44.7293 31.2281 45.3703 31.28 45.9999 31.3748V27.5019C45.9999 26.8632 46.5168 26.3463 47.1555 26.3463C47.7942 26.3463 48.311 26.8632 48.311 27.5019V31.9503C50.3965 32.6838 52.2359 33.9387 53.6667 35.5659C54.4905 36.5026 53.8383 37.9719 52.5902 37.9719L52.5879 37.9741C52.2133 37.9741 51.8499 37.8229 51.6062 37.5385C49.5794 35.1778 46.4671 33.7785 43.0342 34.1261C38.4481 34.591 34.7218 38.2766 34.2098 42.8557C33.5418 48.8502 38.2137 53.9236 44.0725 53.9236C47.0901 53.9236 49.7871 52.5785 51.6062 50.457C51.8499 50.1726 52.2133 50.0236 52.5879 50.0236C53.836 50.0259 54.4883 51.4978 53.6645 52.4344Z" fill="#ECF7EE"/>
</svg>
