<svg width="88" height="88" viewBox="0 0 88 88" fill="none" xmlns="http://www.w3.org/2000/svg">
<g opacity="0.88">
<path d="M44 26.6667V61.3333M35.3333 53.1924L37.8727 55.0962C41.2556 57.6356 46.7416 57.6356 50.1273 55.0962C53.5131 52.5569 53.5131 48.4431 50.1273 45.9038C48.4373 44.6327 46.2187 44 44 44C41.9056 44 39.8111 43.3644 38.2136 42.0962C35.0184 39.5569 35.0184 35.4431 38.2136 32.9038C41.4087 30.3644 46.5913 30.3644 49.7864 32.9038L50.9853 33.8571M70 44C70 47.4144 69.3275 50.7953 68.0209 53.9498C66.7142 57.1042 64.7991 59.9705 62.3848 62.3848C59.9705 64.7991 57.1042 66.7142 53.9498 68.0209C50.7953 69.3275 47.4144 70 44 70C40.5856 70 37.2047 69.3275 34.0502 68.0209C30.8958 66.7142 28.0295 64.7991 25.6152 62.3848C23.2009 59.9705 21.2858 57.1042 19.9791 53.9498C18.6725 50.7953 18 47.4144 18 44C18 37.1044 20.7393 30.4912 25.6152 25.6152C30.4912 20.7393 37.1044 18 44 18C50.8956 18 57.5088 20.7393 62.3848 25.6152C67.2607 30.4912 70 37.1044 70 44Z" stroke="white" stroke-width="3" stroke-linecap="round" stroke-linejoin="round"/>
</g>
</svg>
