<svg width="88" height="88" viewBox="0 0 88 88" fill="none" xmlns="http://www.w3.org/2000/svg">
<path d="M66.4719 20.559C65.3913 19.8622 64.0105 19.8124 62.887 20.4346L23.0852 42.3011C21.0355 43.4292 19.852 45.5445 20.0149 47.8257C20.1778 50.107 21.6358 52.0481 23.8313 52.8942L33.8997 56.7847L34.3371 63.5039C34.4571 65.4119 35.6835 67.0129 37.536 67.6848C38.1191 67.8922 38.7109 68 39.3026 68C40.5891 68 41.8412 67.5106 42.7931 66.5732L47.4586 62.0191L55.1685 64.9971C55.9061 65.2791 56.6693 65.4201 57.4326 65.4201C58.5046 65.4201 59.5767 65.1381 60.5372 64.5906C62.1752 63.6449 63.2472 62.0522 63.4702 60.219L67.9727 23.7029C68.1356 22.4586 67.561 21.2558 66.4719 20.559ZM23.4454 47.5935C23.3767 46.5814 23.8742 45.6773 24.7832 45.1795L60.8716 25.3454L34.5515 53.4583L25.1091 49.8083C24.14 49.435 23.514 48.6055 23.4454 47.5935ZM40.3661 64.2339C39.7229 64.8644 38.9682 64.657 38.7538 64.574C38.5394 64.4994 37.8275 64.1676 37.7675 63.2882L37.433 58.1368L44.0024 60.6752L40.3661 64.2339ZM60.0741 59.8374C59.9797 60.642 59.508 61.3305 58.7876 61.7453C58.0672 62.1601 57.2182 62.2265 56.4378 61.9195L37.9562 54.7772L64.1477 26.8054L60.0741 59.8374Z" fill="#ECF7EE"/>
</svg>
