<svg width="88" height="88" viewBox="0 0 88 88" fill="none" xmlns="http://www.w3.org/2000/svg">
<g opacity="0.88">
<path d="M52.2129 18.1019C53.0243 17.9154 53.8736 17.9861 54.6429 18.3044C55.4122 18.6226 56.0633 19.1725 56.5059 19.8777L60.4902 26.2396C60.8115 26.752 61.2445 27.1851 61.7568 27.5063L68.1181 31.491C68.8248 31.9333 69.3759 32.5849 69.6949 33.3552C70.0139 34.1254 70.0848 34.9759 69.8978 35.7884L68.2143 43.1003C68.0785 43.6912 68.0785 44.3053 68.2143 44.8962L69.8978 52.2121C70.083 53.0234 70.0112 53.8722 69.6923 54.6408C69.3734 55.4094 68.8232 56.0597 68.1181 56.5015L61.7568 60.4902C61.2439 60.8107 60.8107 61.2439 60.4902 61.7569L56.5059 68.1188C56.0639 68.8247 55.413 69.3754 54.6436 69.6944C53.8743 70.0134 53.0247 70.0848 52.2129 69.8986L44.8976 68.215C44.308 68.0798 43.6955 68.0798 43.1059 68.215L35.7906 69.8986C34.9788 70.0848 34.1292 70.0134 33.3599 69.6944C32.5905 69.3754 31.9396 68.8247 31.4976 68.1188L27.5133 61.7569C27.1908 61.2442 26.7564 60.8111 26.2427 60.4902L19.8854 56.5055C19.1795 56.0634 18.6288 55.4125 18.3099 54.6431C17.9909 53.8737 17.9196 53.024 18.1057 52.2121L19.7852 44.8962C19.921 44.3053 19.921 43.6912 19.7852 43.1003L18.1017 35.7884C17.915 34.9755 17.9866 34.1247 18.3063 33.3544C18.626 32.5841 19.178 31.9327 19.8854 31.491L26.2427 27.5063C26.7565 27.1855 27.1909 26.7524 27.5133 26.2396L31.4976 19.8777C31.9399 19.1733 32.5904 18.6239 33.3589 18.3057C34.1274 17.9875 34.9758 17.9163 35.7866 18.1019L43.1059 19.7815C43.6955 19.9167 44.308 19.9167 44.8976 19.7815L52.2129 18.1019Z" stroke="white" stroke-width="3"/>
<path d="M34.0391 46.147L42.1961 53.96L53.9607 34.0366" stroke="white" stroke-width="3" stroke-linecap="round" stroke-linejoin="round"/>
</g>
</svg>
