<svg width="56" height="40" viewBox="0 0 56 40" fill="none" xmlns="http://www.w3.org/2000/svg">
<path d="M12.4004 11H22.8004H12.4004Z" fill="#ECF7EE"/>
<path d="M12.4004 11H22.8004" stroke="white" stroke-width="3" stroke-linecap="round" stroke-linejoin="round"/>
<path d="M50.9656 13.25H44.2004C39.5594 13.25 35.7998 16.2718 35.7998 20C35.7998 23.7282 39.562 26.75 44.1978 26.75H50.9656C51.184 26.75 51.2906 26.75 51.3816 26.7455C52.7856 26.6713 53.9036 25.7735 53.9946 24.6462C53.9998 24.5742 53.9998 24.4865 53.9998 24.3132V15.6868C53.9998 15.5135 53.9998 15.4258 53.9946 15.3538C53.901 14.2265 52.7856 13.3287 51.3816 13.2545C51.2932 13.25 51.184 13.25 50.9656 13.25Z" stroke="white" stroke-width="3"/>
<path d="M51.309 13.25C51.1062 9.038 50.4562 6.455 48.3528 4.637C45.3082 2 40.4046 2 30.6 2H22.8C12.9954 2 8.0918 2 5.0472 4.637C2 7.27175 2 11.5153 2 20C2 28.4847 2 32.7282 5.0472 35.363C8.0918 38 12.9954 38 22.8 38H30.6C40.4046 38 45.3082 38 48.3528 35.363C50.4562 33.545 51.1088 30.962 51.309 26.75" stroke="white" stroke-width="3"/>
<path d="M43.5762 20H43.6033H43.5762Z" fill="#ECF7EE"/>
<path d="M43.5762 20H43.6033" stroke="white" stroke-width="4" stroke-linecap="round" stroke-linejoin="round"/>
</svg>
