<svg width="21" height="20" viewBox="0 0 21 20" fill="none" xmlns="http://www.w3.org/2000/svg">
<path d="M10.5 0C4.97717 0 0.5 4.47711 0.5 10C0.5 15.5228 4.97717 20 10.5 20C16.0228 20 20.5 15.5228 20.5 10C20.5 4.47711 16.0228 0 10.5 0ZM10.5 19C9.70844 19 8.68768 17.525 8.06396 15H12.936C12.3123 17.525 11.2916 19 10.5 19ZM7.84955 14C7.65875 12.965 7.53607 11.7917 7.51007 10.5H13.4899C13.4639 11.7917 13.3412 12.965 13.1505 14H7.84955ZM1.52533 10.5H6.51007C6.53467 11.7391 6.64618 12.9198 6.83508 14H2.44965C1.91815 12.9348 1.5946 11.7521 1.52533 10.5ZM10.5 1C11.2916 1 12.3123 2.47498 12.936 5H8.06396C8.68768 2.47498 9.70844 1 10.5 1ZM13.1505 6C13.3412 7.03497 13.4639 8.20831 13.4899 9.5H7.51007C7.53607 8.20831 7.65875 7.03497 7.84955 6H13.1505ZM6.51007 9.5H1.52533C1.5946 8.24792 1.91815 7.06519 2.44965 6H6.83508C6.64618 7.0802 6.53467 8.26086 6.51007 9.5ZM14.4899 10.5H19.4747C19.4054 11.7521 19.0818 12.9348 18.5504 14H14.1649C14.3538 12.9198 14.4653 11.7391 14.4899 10.5ZM14.4899 9.5C14.4653 8.26086 14.3538 7.0802 14.1649 6H18.5504C19.0818 7.06519 19.4054 8.24792 19.4747 9.5H14.4899ZM17.9782 5H13.9605C13.5916 3.40753 13.0551 2.08789 12.4073 1.20782C14.7183 1.70886 16.7016 3.09692 17.9782 5ZM8.59271 1.20782C7.94495 2.08789 7.40845 3.40753 7.03949 5H3.02179C4.2984 3.09692 6.28174 1.70886 8.59271 1.20782ZM3.02179 15H7.03949C7.40845 16.5924 7.94501 17.912 8.59277 18.7922C6.2818 18.2911 4.2984 16.9031 3.02179 15ZM12.4072 18.7922C13.055 17.912 13.5916 16.5924 13.9605 15H17.9782C16.7016 16.9031 14.7182 18.2911 12.4072 18.7922Z" fill="#51D06B"/>
</svg>
