<svg width="200" height="81" viewBox="0 0 200 81" fill="none" xmlns="http://www.w3.org/2000/svg">
<path d="M7.33702 38.0222H6.66616L1.35167 30.0569H1.29926C1.35167 31.0002 1.37263 31.7234 1.37263 32.1531V37.9698H0.775146V29.0508H1.40408L6.70809 37.0056C6.70809 36.272 6.65567 35.5698 6.65567 34.9095V29.0508H7.33702V38.0222Z" fill="#2C3233"/>
<path d="M9.60023 29.5008C9.60023 29.1026 9.7365 28.9034 9.98808 28.9034C10.0479 28.902 10.1071 28.9157 10.1602 28.9432C10.2133 28.9706 10.2587 29.011 10.2921 29.0606C10.3706 29.1934 10.4071 29.3469 10.3969 29.5008C10.4063 29.6514 10.3698 29.8012 10.2921 29.9305C10.2587 29.9801 10.2133 30.0205 10.1602 30.048C10.1071 30.0755 10.0479 30.0891 9.98808 30.0877C9.7365 30.0877 9.60023 29.8886 9.60023 29.5008ZM10.3025 38.0216H9.69458V31.3454H10.3025V38.0216Z" fill="#2C3233"/>
<path d="M13.1337 35.0974L16.5405 31.3453H17.2742L14.6746 34.1961L17.5363 38.0215H16.7711L14.2344 34.6572L13.1861 35.6529V38.0215H12.5782V28.4736H13.1861V33.2633V35.0974H13.1337Z" fill="#2C3233"/>
<path d="M18.5338 29.5008C18.5338 29.1026 18.6701 28.9034 18.9217 28.9034C18.9814 28.902 19.0406 28.9157 19.0938 28.9432C19.1469 28.9706 19.1922 29.011 19.2256 29.0606C19.3042 29.1934 19.3407 29.3469 19.3305 29.5008C19.3399 29.6514 19.3033 29.8012 19.2256 29.9305C19.1922 29.9801 19.1469 30.0205 19.0938 30.048C19.0406 30.0755 18.9814 30.0891 18.9217 30.0877C18.6701 30.0877 18.5338 29.8886 18.5338 29.5008ZM19.2361 38.0216H18.6282V31.3454H19.2361V38.0216Z" fill="#2C3233"/>
<path d="M23.2288 37.6129C23.5811 37.6179 23.9327 37.5828 24.277 37.5081V38.0007C23.9378 38.1056 23.5838 38.1552 23.2288 38.1474C22.9894 38.1672 22.7485 38.1354 22.5224 38.054C22.2963 37.9726 22.0904 37.8437 21.9185 37.6758C21.6059 37.2455 21.4572 36.7177 21.4992 36.1875V31.88H20.5139V31.5236L21.4992 31.2511L21.8032 29.7314H22.1177V31.3455H24.1093V31.88H22.1072V36.0722C22.0786 36.4687 22.1738 36.8642 22.3798 37.2042C22.4745 37.3392 22.6023 37.4477 22.7509 37.5193C22.8996 37.5909 23.0641 37.6231 23.2288 37.6129Z" fill="#2C3233"/>
<path d="M29.7382 38.0214L29.5809 36.9734C29.3039 37.3516 28.9458 37.6632 28.5327 37.8852C28.1437 38.0706 27.7161 38.1605 27.2853 38.1472C26.7295 38.1821 26.1816 38.002 25.7549 37.6441C25.5589 37.47 25.4037 37.2548 25.3005 37.0139C25.1972 36.7729 25.1483 36.5122 25.1574 36.2502C25.1466 35.9483 25.2154 35.6489 25.3571 35.3821C25.4988 35.1153 25.7083 34.8906 25.9646 34.7305C26.6777 34.3327 27.4859 34.137 28.3021 34.1645H29.5705V33.7244C29.6074 33.2156 29.4707 32.7094 29.1826 32.2885C29.0267 32.1164 28.8327 31.9832 28.6161 31.8995C28.3995 31.8158 28.1664 31.7839 27.9352 31.8064C27.2635 31.8186 26.605 31.9949 26.017 32.3199L25.7864 31.7959C26.465 31.4608 27.2099 31.2818 27.9667 31.2719C28.2643 31.2491 28.5635 31.2886 28.845 31.3879C29.1266 31.4871 29.3843 31.6439 29.6019 31.8483C30.0079 32.349 30.2034 32.9879 30.147 33.63V38.0634L29.7382 38.0214ZM27.2539 37.5917C27.5648 37.6247 27.8792 37.5878 28.174 37.4836C28.4688 37.3794 28.7366 37.2106 28.9577 36.9895C29.1788 36.7684 29.3476 36.5007 29.4518 36.206C29.556 35.9112 29.593 35.5969 29.56 35.286V34.5943H28.3965C27.6999 34.5769 27.0095 34.7279 26.3839 35.0344C26.1888 35.1541 26.0301 35.3247 25.9248 35.5278C25.8195 35.731 25.7717 35.959 25.7864 36.1873C25.7749 36.3683 25.8037 36.5497 25.8708 36.7182C25.9379 36.8868 26.0415 37.0383 26.1742 37.162C26.4648 37.4397 26.8519 37.5938 27.2539 37.5917Z" fill="#2C3233"/>
<path d="M39.7182 38.0222L36.3639 29.732C36.3639 30.2456 36.3639 30.7801 36.3639 31.2936V38.0222H35.7664V29.0508H36.6888L39.8335 36.9427L42.9782 29.0508H43.9216V38.0222H43.2926V31.2203C43.2917 30.7302 43.3162 30.2405 43.366 29.753H43.3136L39.9593 38.0222H39.7182Z" fill="#2C3233"/>
<path d="M50.5136 38.0218L50.3669 36.9737C50.0898 37.352 49.7317 37.6635 49.3186 37.8855C48.926 38.0711 48.4949 38.1609 48.0608 38.1475C47.5075 38.1875 46.961 38.0066 46.5409 37.6445C46.353 37.4661 46.2061 37.2491 46.1101 37.0084C46.0142 36.7678 45.9716 36.5092 45.9853 36.2506C45.9766 35.9478 46.0475 35.6481 46.191 35.3814C46.3345 35.1147 46.5455 34.8904 46.8029 34.7309C47.5222 34.3293 48.3382 34.1335 49.1614 34.1649H50.4298V33.7247C50.4667 33.216 50.33 32.7098 50.0419 32.2889C49.886 32.1168 49.692 31.9836 49.4754 31.8998C49.2588 31.8161 49.0257 31.7843 48.7945 31.8067C48.1228 31.819 47.4643 31.9953 46.8763 32.3203L46.6457 31.7963C47.3243 31.4612 48.0692 31.2821 48.826 31.2722C49.1235 31.2508 49.4223 31.2909 49.7037 31.39C49.985 31.4892 50.2429 31.6453 50.4612 31.8487C50.8672 32.3494 51.0627 32.9883 51.0063 33.6304V38.0637L50.5136 38.0218ZM48.0608 37.5921C48.3717 37.6251 48.6861 37.5881 48.9809 37.4839C49.2757 37.3797 49.5435 37.2109 49.7646 36.9898C49.9857 36.7688 50.1545 36.5011 50.2587 36.2063C50.3629 35.9116 50.3999 35.5972 50.3669 35.2863V34.5946H49.1929C48.4857 34.6006 47.7909 34.7806 47.1698 35.1186C46.9747 35.2383 46.816 35.4089 46.7107 35.612C46.6055 35.8152 46.5576 36.0432 46.5723 36.2715C46.5608 36.4525 46.5896 36.6339 46.6567 36.8024C46.7238 36.971 46.8274 37.1225 46.9601 37.2462C47.2684 37.4997 47.6629 37.6236 48.0608 37.5921Z" fill="#2C3233"/>
<path d="M57.2639 36.2926C57.2802 36.5588 57.2281 36.8248 57.1125 37.0651C56.9969 37.3054 56.8217 37.5122 56.6035 37.6656C56.0259 38.0219 55.3521 38.1903 54.6748 38.1477C53.9537 38.1758 53.236 38.0359 52.5783 37.739V37.0787C53.2288 37.4063 53.9465 37.5785 54.6748 37.5818C55.195 37.6157 55.7143 37.5031 56.1737 37.2569C56.3272 37.1659 56.4549 37.0374 56.5448 36.8833C56.6347 36.7292 56.6838 36.5548 56.6874 36.3765C56.6886 36.2147 56.6523 36.0547 56.5814 35.9093C56.5105 35.7638 56.4068 35.6367 56.2786 35.538C55.873 35.2369 55.4193 35.0065 54.9368 34.8568C54.4493 34.6976 53.9788 34.4905 53.5322 34.2384C53.285 34.0867 53.074 33.8828 52.9138 33.641C52.7735 33.3997 52.7044 33.1235 52.7146 32.8445C52.7084 32.6096 52.7631 32.3771 52.8733 32.1696C52.9835 31.9621 53.1455 31.7866 53.3435 31.6602C53.872 31.3376 54.4864 31.184 55.1046 31.22C55.824 31.2109 56.5377 31.3501 57.201 31.6287L56.9809 32.1842C56.4054 31.9303 55.7858 31.7915 55.157 31.7755C54.7077 31.7564 54.2609 31.8501 53.8572 32.048C53.7153 32.1145 53.5949 32.2196 53.5097 32.3511C53.4244 32.4826 53.3778 32.6354 53.375 32.7921C53.37 32.9513 53.4014 33.1096 53.4668 33.2549C53.5322 33.4002 53.6298 33.5287 53.7523 33.6305C54.1955 33.9376 54.6835 34.1745 55.1989 34.3328C55.6602 34.477 56.1034 34.6739 56.5197 34.9197C56.7686 35.0647 56.9803 35.2656 57.1381 35.5066C57.2522 35.7518 57.2958 36.024 57.2639 36.2926Z" fill="#2C3233"/>
<path d="M59.5925 38.0215H58.9846V28.4736H59.5925V38.0215Z" fill="#2C3233"/>
<path d="M65.88 38.0218L65.7332 36.9737H65.6808C65.4038 37.352 65.0456 37.6635 64.6326 37.8855C64.2399 38.0711 63.8088 38.1609 63.3747 38.1476C63.0991 38.1687 62.8219 38.1352 62.5593 38.0489C62.2966 37.9625 62.0536 37.8251 61.8443 37.6445C61.6565 37.4661 61.5095 37.2491 61.4136 37.0084C61.3177 36.7678 61.2751 36.5092 61.2888 36.2506C61.28 35.9478 61.351 35.6481 61.4945 35.3814C61.6379 35.1147 61.849 34.8904 62.1064 34.7309C62.8257 34.3293 63.6417 34.1335 64.4649 34.1649H65.7332V33.7247C65.7702 33.216 65.6335 32.7098 65.3454 32.2889C65.1895 32.1168 64.9955 31.9836 64.7789 31.8998C64.5623 31.8161 64.3291 31.7843 64.098 31.8067C63.4263 31.819 62.7677 31.9953 62.1798 32.3203L61.9492 31.7963C62.6277 31.4612 63.3727 31.2821 64.1295 31.2722C64.427 31.2508 64.7258 31.2909 65.0072 31.39C65.2885 31.4892 65.5464 31.6453 65.7647 31.8487C66.1707 32.3494 66.3662 32.9883 66.3098 33.6304V38.0637L65.88 38.0218ZM63.4271 37.5921C63.7381 37.6251 64.0525 37.5881 64.3473 37.4839C64.6421 37.3797 64.9098 37.2109 65.1309 36.9898C65.352 36.7688 65.5209 36.5011 65.6251 36.2063C65.7293 35.9116 65.7663 35.5972 65.7332 35.2863V34.5946H64.5592C63.8662 34.5781 63.1793 34.7291 62.5571 35.0348C62.3621 35.1544 62.2034 35.325 62.0981 35.5282C61.9928 35.7313 61.9449 35.9593 61.9596 36.1877C61.9482 36.3687 61.977 36.55 62.0441 36.7186C62.1111 36.8871 62.2148 37.0387 62.3475 37.1624C62.6375 37.441 63.025 37.5952 63.4271 37.5921Z" fill="#2C3233"/>
<path d="M69.0896 35.0974L72.4963 31.3453H73.2405L70.6095 34.1961L73.4607 38.0215H72.7374L70.2321 34.6572L69.1839 35.6529V38.0215H68.576V28.4736H69.1839V33.2633V35.0974H69.0896Z" fill="#2C3233"/>
<path d="M80.1052 34.678C80.1614 35.5991 79.878 36.5089 79.3086 37.2353C79.0365 37.5405 78.6993 37.7809 78.322 37.9387C77.9447 38.0965 77.5368 38.1677 77.1283 38.1471C76.5826 38.1627 76.044 38.0208 75.5769 37.7383C75.1138 37.447 74.7487 37.0235 74.5287 36.5226C74.28 35.9437 74.1585 35.3183 74.1723 34.6885C74.1148 33.7704 74.3985 32.8634 74.969 32.1416C75.2495 31.851 75.5858 31.6198 75.9577 31.4619C76.3296 31.304 76.7295 31.2227 77.1335 31.2227C77.5376 31.2227 77.9375 31.304 78.3094 31.4619C78.6812 31.6198 79.0175 31.851 79.2981 32.1416C79.8638 32.8623 80.1504 33.7629 80.1052 34.678ZM74.8641 34.678C74.8162 35.4425 75.0307 36.2004 75.4721 36.8265C75.6865 37.0679 75.9496 37.2611 76.2441 37.3934C76.5386 37.5257 76.8578 37.5941 77.1807 37.5941C77.5036 37.5941 77.8228 37.5257 78.1173 37.3934C78.4118 37.2611 78.6749 37.0679 78.8893 36.8265C79.3307 36.2004 79.5452 35.4425 79.4973 34.678C79.5324 33.9312 79.3186 33.1939 78.8893 32.5818C78.6822 32.3292 78.4189 32.1285 78.1204 31.9956C77.822 31.8628 77.4966 31.8015 77.1702 31.8167C76.8541 31.7946 76.537 31.8444 76.2429 31.9624C75.9488 32.0804 75.6852 32.2635 75.4721 32.498C75.0173 33.1308 74.7917 33.8998 74.8327 34.678H74.8641Z" fill="#2C3233"/>
<path d="M83.4173 38.0219L80.8387 31.3457H81.4571L83.1867 35.8838C83.3877 36.3834 83.5592 36.8944 83.7003 37.414C83.8681 36.8585 84.0358 36.3659 84.214 35.8734L85.954 31.3457H86.5725L83.9938 38.0219H83.4173Z" fill="#2C3233"/>
<path d="M6.813 0.166016V6.70595H4.31823V0.166016H0.754272V16.2958H4.31823V9.25276H6.813V16.2958H10.3979V0.166016H6.813Z" fill="#2C3233"/>
<path d="M19.1817 0.166016H15.1146L12.0643 16.2958H15.4291L15.9951 12.9H18.3641L18.8672 16.2958H22.1587L19.1817 0.166016ZM16.3096 10.762L17.1691 4.47357L18.0287 10.762H16.3096Z" fill="#2C3233"/>
<path d="M29.5611 0.166016V11.8415C29.5893 12.3671 29.5182 12.8933 29.3515 13.3926C29.2695 13.5829 29.1284 13.7418 28.949 13.8456C28.7696 13.9494 28.5616 13.9927 28.3557 13.9691C28.1419 14.0013 27.9235 13.9623 27.7341 13.8581C27.5446 13.7539 27.3947 13.5904 27.3075 13.3926C27.1209 12.8976 27.0353 12.3701 27.0559 11.8415V0.166016H23.5443V11.2965C23.511 12.2891 23.6566 13.2796 23.9741 14.2206C24.2337 14.9613 24.7609 15.5781 25.4521 15.9499C26.346 16.3806 27.333 16.5823 28.3242 16.5368C29.3088 16.5836 30.2894 16.3818 31.1754 15.9499C31.8656 15.5738 32.3948 14.959 32.6639 14.2206C32.9854 13.2803 33.1345 12.2897 33.1041 11.2965V0.166016H29.5611Z" fill="#2C3233"/>
<path d="M34.3931 0.166016V2.81763H36.825V16.2958H40.4099V2.81763H42.8208V0.166016H34.3931Z" fill="#2C3233"/>
<path d="M49.852 0.166016H45.7849L42.7346 16.2958H46.1203L46.6864 12.9H49.0553L49.5899 16.2958H52.8814L49.852 0.166016ZM46.9799 10.762L47.8394 4.47357L48.6989 10.762H46.9799Z" fill="#2C3233"/>
<path d="M62.3167 8.49734C63.0014 8.2067 63.554 7.67276 63.8681 6.99861C64.1815 6.18024 64.3242 5.3064 64.2874 4.43084C64.3525 3.80458 64.2589 3.172 64.0152 2.5914C63.7716 2.01079 63.3857 1.50082 62.8932 1.10847C61.6833 0.399665 60.2882 0.0710151 58.889 0.165211H54.5074V16.295H58.0714V9.07378H59.1196L60.7968 16.295H64.4865L62.3167 8.49734ZM60.5557 6.45361C60.3668 6.6606 60.1315 6.81983 59.8691 6.91821C59.6067 7.0166 59.3247 7.05133 59.0463 7.01957H58.0504V2.5548H59.214C59.4743 2.53425 59.7357 2.57798 59.9751 2.68215C60.2146 2.78632 60.4247 2.94774 60.5871 3.1522C60.8839 3.64369 61.0229 4.2143 60.9855 4.78719C61.0187 5.3738 60.8685 5.95622 60.5557 6.45361Z" fill="#2C3233"/>
<path d="M69.2678 13.8852L73.272 2.1783V0.166016H66.0393V2.57657H69.8024L65.8506 14.1053V16.2014H73.3454V13.7909L69.2678 13.8852Z" fill="#2C3233"/>
<path d="M74.0898 0.166016V2.81763H76.5217V16.2958H80.1066V2.81763H82.5175V0.166016H74.0898Z" fill="#2C3233"/>
<path d="M92.9361 1.28654C92.5671 0.88522 92.1099 0.575046 91.6006 0.380444C91.0913 0.185843 90.5437 0.112128 90.0011 0.165106H86.1331V16.2949H87.653V8.67541H90.022C90.5593 8.71853 91.0991 8.63476 91.5981 8.43086C92.097 8.22696 92.5409 7.90863 92.8942 7.50157C93.5445 6.62136 93.8737 5.54503 93.8271 4.4517C93.9014 3.32575 93.5869 2.20841 92.9361 1.28654ZM91.7097 6.85177C91.4252 7.10235 91.0925 7.29206 90.7319 7.40922C90.3714 7.52638 89.9907 7.56851 89.6132 7.53302H87.653V1.3075H89.6027C90.1746 1.28112 90.7458 1.37392 91.2799 1.58C91.6644 1.77663 91.9575 2.1148 92.0975 2.52326C92.2764 3.14974 92.3542 3.80072 92.3281 4.4517C92.4103 5.29952 92.1913 6.1492 91.7097 6.85177Z" fill="#2C3233"/>
<path d="M101.174 8.05769C101.541 7.99833 101.888 7.85357 102.189 7.6351C102.489 7.41662 102.734 7.13056 102.903 6.80001C103.266 6.00874 103.438 5.14381 103.407 4.27417C103.485 3.17541 103.157 2.08608 102.484 1.21381C102.075 0.829179 101.589 0.536621 101.057 0.355836C100.525 0.17505 99.9612 0.110232 99.4024 0.165746H95.7546V16.2955H97.2641V8.39307H99.8007L102.17 16.3165H103.648L101.174 8.05769ZM99.3186 7.26116H97.2221V1.30814H99.3186C99.6861 1.26405 100.059 1.30334 100.409 1.4231C100.759 1.54286 101.078 1.73999 101.342 1.99986C101.763 2.67968 101.954 3.4772 101.887 4.27417C101.955 5.07218 101.752 5.86993 101.31 6.53799C101.053 6.7991 100.741 6.99952 100.396 7.12463C100.052 7.24973 99.6834 7.29638 99.3186 7.26116Z" fill="#2C3233"/>
<path d="M110.064 0.166016H108.47L105.064 16.2958H106.542L107.359 11.9777H111.206L112.003 16.2958H113.491L110.064 0.166016ZM107.579 10.8877L109.288 2.1783L111.007 10.8877H107.579Z" fill="#2C3233"/>
<path d="M119.318 8.07892L122.882 0.166016H121.425L118.658 6.60115L115.775 0.166016H114.36L117.799 7.90075L114.318 16.2853H115.775L118.448 9.49381L121.593 16.2958H123.04L119.318 8.07892Z" fill="#2C3233"/>
<path d="M124.739 0.166016V16.2958H126.249V0.166016H124.739Z" fill="#2C3233"/>
<path d="M135.598 10.489C135.125 9.71377 134.546 9.00825 133.879 8.39292L131.027 5.6889C130.67 5.36182 130.372 4.97531 130.147 4.54651C129.973 4.1652 129.887 3.74973 129.895 3.33075C129.874 3.03597 129.918 2.74007 130.025 2.46452C130.132 2.18897 130.299 1.94069 130.514 1.73769C130.977 1.36205 131.564 1.1716 132.159 1.20318C132.515 1.17036 132.874 1.2259 133.203 1.36485C133.532 1.50381 133.822 1.72188 134.046 1.99971C134.486 2.73489 134.722 3.57444 134.728 4.43122L136.027 4.09584C136.037 2.95004 135.643 1.83736 134.916 0.95164C134.542 0.619569 134.106 0.365169 133.633 0.203235C133.159 0.0413015 132.659 -0.0249345 132.159 0.00837936C131.191 -0.0428847 130.24 0.284036 129.507 0.920198C129.169 1.25022 128.905 1.64963 128.735 2.09103C128.565 2.53244 128.492 3.0054 128.522 3.47748C128.51 4.0858 128.628 4.68973 128.868 5.24871C129.135 5.80825 129.513 6.30752 129.979 6.71601L132.841 9.44098C133.414 9.94951 133.918 10.5309 134.34 11.1703C134.66 11.6969 134.824 12.3041 134.811 12.9206C134.862 13.2333 134.838 13.5535 134.742 13.8555C134.647 14.1575 134.482 14.433 134.261 14.6601C134.04 14.8871 133.769 15.0593 133.47 15.1631C133.17 15.2669 132.851 15.2993 132.537 15.2578C132.16 15.2931 131.782 15.2261 131.44 15.0637C131.099 14.9014 130.808 14.6497 130.598 14.3355C130.146 13.5282 129.884 12.6285 129.832 11.7048L128.501 12.1031C128.521 13.2697 128.918 14.3987 129.633 15.3206C129.997 15.7199 130.446 16.0319 130.947 16.2333C131.448 16.4347 131.988 16.5204 132.526 16.484C133.511 16.531 134.475 16.1884 135.21 15.5303C135.566 15.1798 135.844 14.7574 136.025 14.2911C136.206 13.8249 136.285 13.3255 136.258 12.8262C136.253 12.0019 136.025 11.1943 135.598 10.489Z" fill="#2C3233"/>
<path d="M151.688 39.8352L152.139 46.721C141.656 46.1445 124.466 43.9646 124.466 35.8525C124.466 28.1073 140.189 25.7701 150.734 25.0889L151.174 31.9118C140.902 32.593 134.403 34.4691 132.013 35.8525C134.413 37.2569 141.122 39.1749 151.688 39.8352Z" fill="#7AC943"/>
<path d="M200 19.4928C200 29.0302 178.092 31.5351 165.65 32.1849L166.09 25.3201C181.3 24.4816 190.849 21.4946 192.904 19.4928C190.881 17.512 181.614 14.5983 166.845 13.7075H166.247C166.515 13.3335 166.743 12.9331 166.929 12.5127C167.333 11.6387 167.553 10.6911 167.577 9.72847C167.6 8.76586 167.426 7.80866 167.065 6.91602C179.686 7.64966 200 10.3118 200 19.4928Z" fill="#3FA9F5"/>
<path d="M187.033 52.0343C187.033 58.721 173.668 60.8276 163.742 61.4669L164.192 54.5497C169.027 54.309 173.813 53.464 178.438 52.0343C173.935 50.6384 169.277 49.8007 164.57 49.5399L165.01 42.6855C174.727 43.4192 187.033 45.6201 187.033 52.0343Z" fill="#FF931E"/>
<path d="M153.429 66.4983L153.88 73.426C146.668 72.9229 135.148 71.0888 135.148 64.4545C135.148 58.1661 145.41 56.2167 152.716 55.5879L153.167 62.4213C149.809 62.6424 146.497 63.323 143.324 64.4441C146.578 65.6043 149.98 66.296 153.429 66.4983Z" fill="#FF1D25"/>
<path d="M170.619 70.5649C170.619 71.0144 170.531 71.4596 170.358 71.8748C170.186 72.29 169.933 72.6671 169.615 72.9845C169.296 73.3019 168.918 73.5534 168.503 73.7245C168.087 73.8956 167.641 73.9829 167.192 73.9816C166.814 73.9816 165.431 73.9816 162.936 73.8243L163.376 66.9805C165.211 67.0538 166.888 67.1167 167.192 67.1167C167.643 67.1181 168.09 67.2084 168.507 67.3824C168.923 67.5564 169.302 67.8108 169.62 68.131C169.938 68.4512 170.19 68.8309 170.362 69.2485C170.533 69.6661 170.621 70.1134 170.619 70.5649Z" fill="#FF1D25"/>
<path d="M150.462 20.9072L150.535 21.9553H0V20.9072H150.462Z" fill="#2C3233"/>
<path d="M164.434 15.5518L163.794 25.4245L163.344 32.2894L162.673 42.529L162.232 49.3834L161.887 54.7075L161.771 56.4683L161.457 61.2894V61.6038L161.111 66.8442L160.66 73.6985L160.325 78.9388C160.233 79.3712 159.996 79.759 159.652 80.0373C159.309 80.3155 158.88 80.4674 158.438 80.4674C157.996 80.4674 157.567 80.3155 157.224 80.0373C156.88 79.759 156.643 79.3712 156.551 78.9388L156.184 73.5413L155.744 66.6555L155.45 62.2536V61.7401V61.0903L155.084 55.4202L154.518 46.8156L154.077 39.9403L153.543 31.7758L153.04 24.9424L152.851 21.9554L152.777 20.9074L152.432 15.5518C154.174 16.8386 156.282 17.5329 158.448 17.5329C160.614 17.5329 162.723 16.8386 164.465 15.5518H164.434Z" fill="#2C3233"/>
<path d="M165.284 9.51383C165.282 10.335 165.073 11.1423 164.676 11.8615C164.328 12.4961 163.866 13.061 163.314 13.5279C161.933 14.6535 160.2 15.2582 158.418 15.2363C157.163 15.2849 155.918 14.9966 154.812 14.4013C153.706 13.806 152.78 12.9254 152.129 11.851C151.734 11.1351 151.525 10.3315 151.521 9.51383C151.521 8.91442 151.635 8.32044 151.856 7.76356C152.426 6.52711 153.352 5.4887 154.515 4.78112C155.679 4.07354 157.027 3.72894 158.387 3.79138C159.549 3.75854 160.702 4.00845 161.747 4.51963C162.791 5.0308 163.696 5.78795 164.383 6.72597C164.602 7.05451 164.785 7.40593 164.928 7.77404C165.153 8.32704 165.274 8.91689 165.284 9.51383Z" fill="#2C3233"/>
</svg>
