<svg width="48" height="50" viewBox="0 0 48 50" fill="none" xmlns="http://www.w3.org/2000/svg">
<path d="M17.4871 23.2198L17.7718 27.5606C11.1514 27.1972 0.294067 25.823 0.294067 20.7092C0.294067 15.8266 10.2246 14.3533 16.8847 13.9238L17.1627 18.225C10.6748 18.6544 6.57016 19.8371 5.06072 20.7092C6.57678 21.5945 10.8138 22.8036 17.4871 23.2198Z" fill="#7AC943"/>
<path d="M47.9999 10.3971C47.9999 16.4094 34.1634 17.9885 26.3051 18.3981L26.5831 14.0706C36.1892 13.542 42.2204 11.659 43.518 10.3971C42.2402 9.14838 36.3878 7.31164 27.0598 6.75005H26.6824C26.8512 6.51427 26.9954 6.26189 27.1127 5.99686C27.368 5.44589 27.5073 4.84854 27.5221 4.24171C27.5369 3.63488 27.4269 3.03146 27.1988 2.46875C35.1697 2.93124 47.9999 4.6094 47.9999 10.3971Z" fill="#3FA9F5"/>
<path d="M39.8104 30.9129C39.8104 35.1282 31.3694 36.4562 25.1 36.8592L25.3846 32.4986C28.4382 32.3469 31.4608 31.8142 34.3817 30.9129C31.5376 30.033 28.596 29.5049 25.623 29.3405L25.901 25.0195C32.0381 25.482 39.8104 26.8695 39.8104 30.9129Z" fill="#FF931E"/>
<path d="M18.5865 40.0302L18.8712 44.3974C14.3164 44.0802 7.04065 42.924 7.04065 38.7418C7.04065 34.7777 13.522 33.5488 18.1364 33.1523L18.421 37.4601C16.3002 37.5995 14.2085 38.0285 12.2045 38.7352C14.2596 39.4666 16.4084 39.9026 18.5865 40.0302Z" fill="#FF1D25"/>
<path d="M29.4438 42.5936C29.4438 42.877 29.3877 43.1576 29.2789 43.4193C29.17 43.6811 29.0104 43.9188 28.8093 44.1189C28.6082 44.319 28.3695 44.4775 28.1069 44.5854C27.8443 44.6932 27.5629 44.7483 27.2789 44.7474C27.0406 44.7474 26.1667 44.7474 24.5911 44.6483L24.8691 40.334C26.0277 40.3802 27.0869 40.4199 27.2789 40.4199C27.5641 40.4207 27.8463 40.4777 28.1094 40.5874C28.3725 40.6971 28.6114 40.8574 28.8125 41.0593C29.0135 41.2611 29.1727 41.5005 29.281 41.7638C29.3893 42.027 29.4447 42.309 29.4438 42.5936Z" fill="#FF1D25"/>
<path d="M25.5371 7.91406L25.1332 14.1378L24.8486 18.4654L24.4249 24.9204L24.1468 29.2413L23.9283 32.5976L23.8555 33.7076L23.6569 36.7468V36.945L23.4384 40.2485L23.1538 44.5694L22.9419 47.8729C22.884 48.1455 22.734 48.3899 22.5171 48.5653C22.3002 48.7408 22.0294 48.8365 21.7502 48.8365C21.471 48.8365 21.2003 48.7408 20.9834 48.5653C20.7664 48.3899 20.6165 48.1455 20.5586 47.8729L20.3269 44.4703L20.0488 40.1296L19.8634 37.3546V37.0309V36.6213L19.6317 33.0469L19.2742 27.6226L18.9962 23.2884L18.6585 18.1416L18.3408 13.8339L18.2216 11.9509L18.1753 11.2902L17.9568 7.91406C19.057 8.72525 20.3889 9.16299 21.7569 9.16299C23.1248 9.16299 24.4567 8.72525 25.5569 7.91406H25.5371Z" fill="#2C3233"/>
<path d="M26.0742 4.10803C26.0727 4.62568 25.9406 5.13463 25.6903 5.58799C25.4706 5.98803 25.1788 6.34416 24.8296 6.63849C23.9574 7.34806 22.8631 7.72923 21.7379 7.71543C20.9452 7.74609 20.1587 7.56434 19.4601 7.18906C18.7616 6.81378 18.1765 6.25866 17.7657 5.58138C17.5161 5.13009 17.3841 4.62348 17.3817 4.10803C17.3816 3.73017 17.4535 3.35572 17.5936 3.00467C17.9535 2.22522 18.5382 1.57062 19.2729 1.12456C20.0076 0.678507 20.859 0.461272 21.718 0.500635C22.4522 0.47993 23.1803 0.637472 23.84 0.959715C24.4996 1.28196 25.071 1.75926 25.5049 2.35058C25.6433 2.55769 25.7588 2.77923 25.8491 3.01128C25.9913 3.35989 26.0676 3.73172 26.0742 4.10803Z" fill="#2C3233"/>
</svg>
