<svg width="1228" height="412" viewBox="0 0 1228 412" fill="none" xmlns="http://www.w3.org/2000/svg">
<path d="M606.647 198.252V233.622C606.647 242.081 604.126 246.851 594.856 246.851C585.678 246.851 583.069 242.081 583.069 233.622V198.252H569.569V235.601C569.569 251.888 578.928 260.351 594.856 260.351C610.788 260.351 620.147 251.888 620.147 235.601V198.252H606.647Z" fill="#009999"/>
<path d="M673.609 210.492H691.067V198.252H642.645V210.492H660.109V259.45H673.609V210.492Z" fill="#009999"/>
<path d="M762.168 228.763C762.168 238.211 753.616 246.851 744.168 246.851C734.715 246.851 726.168 238.211 726.168 228.763C726.168 219.31 734.715 210.763 744.168 210.763C753.616 210.763 762.168 219.31 762.168 228.763ZM775.668 228.851C775.668 211.929 761.085 197.351 744.168 197.351C727.246 197.351 712.668 211.929 712.668 228.851C712.668 245.768 727.246 260.351 744.168 260.351C761.085 260.351 775.668 245.768 775.668 228.851Z" fill="#009999"/>
<path d="M878.536 259.45L866.656 198.252H850.635L837.947 241.18L825.166 198.252H809.145L797.265 259.45H812.119L819.317 217.242L831.286 259.45H844.515L856.489 217.242L863.687 259.45H878.536Z" fill="#009999"/>
<path d="M1008.41 210.492H1025.87V198.252H977.445V210.492H994.908V259.45H1008.41V210.492Z" fill="#009999"/>
<path d="M1063.22 259.45V198.252H1049.72V259.45H1063.22Z" fill="#009999"/>
<path d="M1139.27 228.763C1139.27 238.211 1130.72 246.851 1121.27 246.851C1111.81 246.851 1103.27 238.211 1103.27 228.763C1103.27 219.31 1111.81 210.763 1121.27 210.763C1130.72 210.763 1139.27 219.31 1139.27 228.763ZM1152.77 228.851C1152.77 211.929 1138.18 197.351 1121.27 197.351C1104.35 197.351 1089.77 211.929 1089.77 228.851C1089.77 245.768 1104.35 260.351 1121.27 260.351C1138.18 260.351 1152.77 245.768 1152.77 228.851Z" fill="#009999"/>
<path d="M1227.37 259.45V198.252H1213.87V236.409L1192.82 198.252H1179.32V259.45H1192.82V221.289L1213.87 259.45H1227.37Z" fill="#009999"/>
<path d="M794.594 151.55H830.053V139.31H808.094V90.3518H794.594V151.55Z" fill="#009999"/>
<path d="M870.104 129.68H879.552C889.453 129.68 898.271 122.388 898.271 109.972C898.271 98.3622 889.453 90.3518 879.552 90.3518H856.604V151.55H870.104V129.68ZM877.302 100.972C881.265 100.972 885.401 104.388 885.401 109.972C885.401 115.821 881.265 119.06 877.302 119.06H870.104V100.972H877.302Z" fill="#009999"/>
<path d="M956.685 90.3518V114.737H936.524V90.3518H923.024V151.55H936.524V126.982H956.685V151.55H971.081V90.3518H956.685Z" fill="#009999"/>
<path d="M1013 139L1008.5 151.5H994L1019 90.5H1030.5L1055.5 151.5H1041L1024.5 106.5L1017 128H1028L1032 139H1013Z" fill="#009999"/>
<path d="M728.5 139L724 151.5H709.5L734.5 90.5H746L771 151.5H756.5L740 106.5L732.5 128H743.5L747.5 139H728.5Z" fill="#009999"/>
<path d="M916 247L911.5 259.5H897L922 198.5H933.5L958.5 259.5H944L927.5 214.5L920 236H931L935 247H916Z" fill="#009999"/>
<path d="M505 247L500.5 259.5H486L511 198.5H522.5L547.5 259.5H533L516.5 214.5L509 236H520L524 247H505Z" fill="#009999"/>
<path d="M761.245 329.95C767.183 329.95 773.308 332.383 776.277 338.862H791.126C786.896 326.169 774.745 317.351 761.245 317.351C743.964 317.351 729.745 331.57 729.745 348.851C729.745 366.133 743.964 380.351 761.245 380.351C778.704 380.351 792.657 366.221 792.657 348.851V346.778H762.506V356.95H778.073C774.745 366.221 767.183 368.112 761.245 368.112C751.527 368.112 743.428 359.383 743.428 349.028C743.428 338.679 751.527 329.95 761.245 329.95Z" fill="#009999"/>
<path d="M895.524 379.45L883.644 318.252H867.623L854.935 361.179L842.154 318.252H826.133L814.253 379.45H829.107L836.305 337.242L848.274 379.45H861.503L873.477 337.242L880.675 379.45H895.524Z" fill="#009999"/>
<path d="M948.897 361.539C948.897 365.591 945.475 368.919 941.423 368.919H932.876V354.158H941.423C945.475 354.158 948.897 357.58 948.897 361.539ZM944.663 335.981C944.663 339.851 941.423 343.091 937.553 343.091H932.876V328.872H937.553C941.423 328.872 944.663 332.018 944.663 335.981ZM962.663 361.898C962.663 353.622 957.085 348.132 950.246 346.513C954.835 344.44 957.538 339.763 957.538 333.549C957.538 325.179 950.876 318.252 940.434 318.252H919.376V379.45H944.126C955.824 379.45 962.663 372.429 962.663 361.898Z" fill="#009999"/>
<path d="M1020.63 318.252V342.638H1000.47V318.252H986.966V379.45H1000.47V354.882H1020.63V379.45H1035.02V318.252H1020.63Z" fill="#009999"/>
<path d="M103.5 348L56.5 410L412 412L171.5 0L18 266.5H53.5L0 410.5L150 215.5H118.5L171.5 124L302.5 348H103.5Z" fill="#009999"/>
</svg>
