<svg width="30" height="30" viewBox="0 0 30 30" fill="none" xmlns="http://www.w3.org/2000/svg">
<path fill-rule="evenodd" clip-rule="evenodd" d="M12.5002 15.5151L7.6613 13.9022C5.30809 13.1178 4.13148 12.7256 4.13148 12.0048C4.13148 11.284 5.30809 10.8918 7.66131 10.1074L21.3573 5.54211C23.0131 4.99018 23.841 4.71421 24.278 5.15123C24.715 5.58824 24.439 6.41614 23.8871 8.07193L19.3218 21.7679C18.5374 24.1211 18.1452 25.2977 17.4244 25.2977C16.7036 25.2977 16.3114 24.1211 15.527 21.7679L13.9143 16.9295L19.4193 11.4245C19.8098 11.034 19.8098 10.4008 19.4193 10.0103C19.0288 9.61974 18.3956 9.61974 18.0051 10.0103L12.5002 15.5151Z" fill="white"/>
</svg>
