<svg width="30" height="30" viewBox="0 0 30 30" fill="none" xmlns="http://www.w3.org/2000/svg">
<path fill-rule="evenodd" clip-rule="evenodd" d="M3.75239 11.1453C3.75 11.4875 3.75 11.855 3.75 12.25V17.75C3.75 20.5784 3.75 21.9926 4.62868 22.8713C5.50736 23.75 6.92157 23.75 9.75 23.75H20.25C23.0784 23.75 24.4926 23.75 25.3713 22.8713C26.25 21.9926 26.25 20.5784 26.25 17.75V12.25C26.25 11.855 26.25 11.4875 26.2476 11.1453L15.9713 16.8544C15.3672 17.1899 14.6328 17.1899 14.0287 16.8544L3.75239 11.1453ZM3.85368 9.00513C3.98403 9.01865 4.11384 9.05818 4.23564 9.12584L15 15.106L25.7644 9.12584C25.8862 9.05818 26.016 9.01866 26.1463 9.00514C26.0386 8.16313 25.819 7.57639 25.3713 7.12868C24.4926 6.25 23.0784 6.25 20.25 6.25H9.75C6.92157 6.25 5.50736 6.25 4.62868 7.12868C4.18097 7.57639 3.96138 8.16313 3.85368 9.00513Z" fill="white"/>
</svg>
