<svg width="30" height="30" viewBox="0 0 30 30" fill="none" xmlns="http://www.w3.org/2000/svg">
<path d="M20.6894 4.87305H10.0898C7.16152 4.87305 4.77926 7.25601 4.77926 10.1852V19.8851C4.77926 22.8143 7.16152 25.1973 10.0898 25.1973H20.6894C23.6177 25.1973 26 22.8143 26 19.8851V10.1852C26 7.25601 23.6177 4.87305 20.6894 4.87305ZM6.65267 10.1852C6.65267 8.28963 8.19484 6.747 10.0898 6.747H20.6894C22.5844 6.747 24.1266 8.28963 24.1266 10.1852V19.8851C24.1266 21.7807 22.5844 23.3233 20.6894 23.3233H10.0898C8.19484 23.3233 6.65267 21.7807 6.65267 19.8851V10.1852Z" fill="white"/>
<path d="M15.3896 19.9752C18.1127 19.9752 20.3293 17.7591 20.3293 15.034C20.3293 12.3089 18.1139 10.0928 15.3896 10.0928C12.6653 10.0928 10.4498 12.3089 10.4498 15.034C10.4498 17.7591 12.6653 19.9752 15.3896 19.9752ZM15.3896 11.9679C17.0806 11.9679 18.4559 13.3437 18.4559 15.0352C18.4559 16.7267 17.0806 18.1024 15.3896 18.1024C13.6986 18.1024 12.3232 16.7267 12.3232 15.0352C12.3232 13.3437 13.6986 11.9679 15.3896 11.9679Z" fill="white"/>
<path d="M20.7865 10.8912C21.5198 10.8912 22.1175 10.2946 22.1175 9.55986C22.1175 8.82516 21.521 8.22852 20.7865 8.22852C20.052 8.22852 19.4556 8.82516 19.4556 9.55986C19.4556 10.2946 20.052 10.8912 20.7865 10.8912Z" fill="white"/>
</svg>
