<svg width="30" height="30" viewBox="0 0 30 30" fill="none" xmlns="http://www.w3.org/2000/svg">
<path d="M5.762 7.901C5.29511 7.46751 5.06293 6.93094 5.06293 6.2925C5.06293 5.65407 5.29636 5.09388 5.762 4.65915C6.22889 4.22567 6.82989 4.0083 7.56623 4.0083C8.30257 4.0083 8.87998 4.22567 9.34563 4.65915C9.81252 5.09264 10.0447 5.63792 10.0447 6.2925C10.0447 6.94708 9.81127 7.46751 9.34563 7.901C8.87874 8.33449 8.28643 8.55185 7.56623 8.55185C6.84603 8.55185 6.22889 8.33449 5.762 7.901ZM9.65233 10.3877V23.678H5.45406V10.3877H9.65233Z" fill="#FEFFFC"/>
<path d="M23.6279 11.7007C24.5431 12.6944 25 14.0582 25 15.7946V23.4434H21.0129V16.3337C21.0129 15.458 20.7856 14.7774 20.3324 14.2929C19.8792 13.8085 19.2683 13.5651 18.5034 13.5651C17.7385 13.5651 17.1275 13.8073 16.6743 14.2929C16.221 14.7774 15.9938 15.458 15.9938 16.3337V23.4434H11.9831V10.3506H15.9938V12.087C16.3999 11.5082 16.9475 11.0511 17.6354 10.7145C18.3233 10.3779 19.0969 10.2102 19.9574 10.2102C21.4897 10.2102 22.714 10.707 23.6279 11.6995V11.7007Z" fill="#FEFFFC"/>
</svg>
