<svg width="52" height="52" viewBox="0 0 52 52" fill="none" xmlns="http://www.w3.org/2000/svg">
<path d="M8.66667 26C8.66667 18.1613 8.66667 14.2419 10.9434 11.6835C11.1756 11.4227 11.4227 11.1756 11.6835 10.9435C14.2419 8.66669 18.1613 8.66669 26 8.66669V8.66669C33.8387 8.66669 37.7581 8.66669 40.3165 10.9435C40.5773 11.1756 40.8244 11.4227 41.0566 11.6835C43.3333 14.2419 43.3333 18.1613 43.3333 26V39.3334C43.3333 41.219 43.3333 42.1618 42.7475 42.7476C42.1618 43.3334 41.219 43.3334 39.3333 43.3334H26C18.1613 43.3334 14.2419 43.3334 11.6835 41.0566C11.4227 40.8245 11.1756 40.5774 10.9434 40.3165C8.66667 37.7581 8.66667 33.8388 8.66667 26V26Z" stroke="white"/>
<path d="M19.5 23.8333L32.5 23.8333" stroke="white" stroke-linecap="round" stroke-linejoin="round"/>
<path d="M26 32.5H32.5" stroke="white" stroke-linecap="round" stroke-linejoin="round"/>
</svg>
