<svg width="81" height="80" viewBox="0 0 81 80" fill="none" xmlns="http://www.w3.org/2000/svg">
<path d="M13.5708 45.6179L15.8698 50.4302C14.2945 52.0779 13.4231 53.8721 13.4231 55.6924C13.4231 62.4191 25.3714 68.7693 40.5 68.7693C55.6286 68.7693 67.5769 62.4191 67.5769 55.6924C67.5769 53.8721 66.7006 52.0831 65.1302 50.4354L67.4735 45.6598C70.6489 48.4844 72.5 51.9053 72.5 55.6924C72.5 66.2951 57.9966 74 40.5 74C23.0034 74 8.5 66.2951 8.5 55.6924C8.5 51.8844 10.3708 48.453 13.5708 45.6179Z" fill="#254A2C"/>
<path d="M13.5708 29.9255L15.8698 34.7378C14.2945 36.3908 13.4231 38.1849 13.4231 40C13.4231 46.7267 25.3714 53.0769 40.5 53.0769C55.6286 53.0769 67.5769 46.7267 67.5769 40C67.5769 38.1797 66.7006 36.3908 65.1302 34.7431L67.4735 29.9674C70.6489 32.792 72.5 36.2129 72.5 40C72.5 50.6027 57.9966 58.3076 40.5 58.3076C23.0034 58.3076 8.5 50.6027 8.5 40C8.5 36.192 10.3708 32.7606 13.5708 29.9255Z" fill="#254A2C"/>
<path d="M40.5 42.6153C23.0034 42.6153 8.5 34.9104 8.5 24.3077C8.5 13.7049 23.0034 6 40.5 6C57.9966 6 72.5 13.7049 72.5 24.3077C72.5 34.9104 57.9966 42.6153 40.5 42.6153ZM40.5 37.3846C55.6286 37.3846 67.5769 31.0344 67.5769 24.3077C67.5769 17.5809 55.6286 11.2308 40.5 11.2308C25.3714 11.2308 13.4231 17.5809 13.4231 24.3077C13.4231 31.0344 25.3714 37.3846 40.5 37.3846Z" fill="#254A2C"/>
</svg>
