<svg width="80" height="80" viewBox="0 0 80 80" fill="none" xmlns="http://www.w3.org/2000/svg">
<path d="M70.6356 13.665C67.937 12.6819 65.4083 11.2773 63.142 9.50279C61.7238 8.3902 60.4176 7.13963 59.2422 5.76912C58.7658 5.21328 58.1761 4.76752 57.5134 4.46223C56.8507 4.15693 56.1305 3.99928 55.4019 4H24.5998C23.8707 3.99946 23.1501 4.15718 22.4869 4.46245C21.8236 4.76771 21.2333 5.21336 20.7561 5.76912C19.5811 7.14003 18.2749 8.39065 16.8563 9.50279C14.5908 11.2776 12.0626 12.6821 9.36442 13.665C8.38098 14.0271 7.53123 14.6845 6.92969 15.5485C6.32815 16.4126 6.00372 17.4418 6.00013 18.4975V35.7619C5.98413 41.5526 7.43016 47.2521 10.202 52.3235C12.9739 57.395 16.9804 61.6715 21.8441 64.7501L39.0922 75.7351C39.3639 75.9082 39.6787 76 40 76C40.3213 76 40.6361 75.9082 40.9078 75.7351L58.1559 64.7501C63.0196 61.6715 67.0261 57.395 69.798 52.3235C72.5698 47.2521 74.0159 41.5526 73.9999 35.7619V18.4975C73.9963 17.4418 73.6719 16.4126 73.0703 15.5485C72.4688 14.6845 71.619 14.0271 70.6356 13.665ZM70.5999 35.7619C70.6144 40.9737 69.3129 46.1035 66.8178 50.6679C64.3228 55.2323 60.7165 59.0809 56.3386 61.8513L40 72.2569L23.6597 61.8513C19.2823 59.0805 15.6765 55.2317 13.1818 50.6674C10.6871 46.1031 9.38571 40.9735 9.40012 35.7619V18.4975C9.39888 18.1446 9.50655 17.8001 9.7082 17.5117C9.90985 17.2233 10.1955 17.0052 10.5255 16.8878C13.5567 15.7821 16.3973 14.2041 18.9439 12.2113C20.5377 10.9596 22.0062 9.55349 23.3282 8.0131C23.4859 7.82914 23.6812 7.68169 23.9007 7.58081C24.1201 7.47992 24.3586 7.42798 24.5998 7.42853H55.4019C55.6427 7.42802 55.8808 7.47981 56.0999 7.58039C56.319 7.68096 56.5141 7.82796 56.6718 8.01138C57.9927 9.55399 59.4619 10.9608 61.0578 12.2113C63.6041 14.2037 66.444 15.7816 69.4745 16.8878C69.8045 17.0052 70.0901 17.2233 70.2918 17.5117C70.4934 17.8001 70.6011 18.1446 70.5999 18.4975V35.7619Z" fill="#254A2C"/>
<path d="M50.1999 28.1707V24.5707C50.1999 21.8428 49.1253 19.2267 47.2124 17.2977C45.2995 15.3688 42.7051 14.2852 39.9999 14.2852C37.2947 14.2852 34.7003 15.3688 32.7875 17.2977C30.8746 19.2267 29.8 21.8428 29.8 24.5707V28.1707C27.8814 28.5686 26.1575 29.6213 24.9188 31.1514C23.6802 32.6815 23.0025 34.5954 23 36.5706V46.8562C23.0027 49.1286 23.8991 51.3072 25.4926 52.914C27.086 54.5209 29.2465 55.4248 31.5 55.4275H48.4999C50.7534 55.4248 52.9138 54.5209 54.5073 52.914C56.1008 51.3072 56.9972 49.1286 56.9999 46.8562V36.5706C56.9974 34.5954 56.3197 32.6815 55.0811 31.1514C53.8424 29.6213 52.1185 28.5686 50.1999 28.1707ZM33.2 24.5707C33.2 22.7521 33.9164 21.008 35.1916 19.7221C36.4669 18.4361 38.1965 17.7137 39.9999 17.7137C41.8034 17.7137 43.533 18.4361 44.8082 19.7221C46.0835 21.008 46.7999 22.7521 46.7999 24.5707V27.9993H33.2V24.5707ZM53.5999 46.8562C53.5999 48.2201 53.0626 49.5282 52.1061 50.4927C51.1497 51.4572 49.8525 51.999 48.4999 51.999H31.5C30.1474 51.999 28.8502 51.4572 27.8937 50.4927C26.9373 49.5282 26.4 48.2201 26.4 46.8562V36.5706C26.4 35.2066 26.9373 33.8986 27.8937 32.9341C28.8502 31.9696 30.1474 31.4278 31.5 31.4278H48.4999C49.8525 31.4278 51.1497 31.9696 52.1061 32.9341C53.0626 33.8986 53.5999 35.2066 53.5999 36.5706V46.8562Z" fill="#254A2C"/>
<path d="M40.0004 34.8565C39.2526 34.8539 38.5249 35.1008 37.9307 35.5587C37.3365 36.0165 36.9091 36.6597 36.7152 37.388C36.5212 38.1163 36.5715 38.8888 36.8582 39.5853C37.1449 40.2817 37.6519 40.863 38.3004 41.2387V43.4278C38.3004 43.8824 38.4795 44.3185 38.7983 44.64C39.1171 44.9614 39.5495 45.1421 40.0004 45.1421C40.4512 45.1421 40.8836 44.9614 41.2025 44.64C41.5213 44.3185 41.7004 43.8824 41.7004 43.4278V41.2387C42.3488 40.863 42.8559 40.2817 43.1426 39.5853C43.4293 38.8888 43.4796 38.1163 43.2856 37.388C43.0916 36.6597 42.6642 36.0165 42.07 35.5587C41.4759 35.1008 40.7482 34.8539 40.0004 34.8565Z" fill="#254A2C"/>
</svg>
