<svg width="73" height="72" viewBox="0 0 73 72" fill="none" xmlns="http://www.w3.org/2000/svg">
<path d="M20.14 31.6022C20.14 38.7857 25.9859 44.6288 33.1729 44.6288C40.3598 44.6288 46.2058 38.7857 46.2058 31.6022C46.2058 24.4187 40.3598 18.5756 33.1729 18.5756C25.9859 18.5756 20.14 24.4187 20.14 31.6022ZM67.4922 42.8292C64.2787 39.5986 59.9899 37.8188 55.4142 37.8188C50.841 37.8188 46.5423 39.5973 43.3126 42.8267C36.6471 49.4889 36.6471 60.3299 43.3126 66.9922C46.5435 70.2215 50.841 72 55.4142 72C59.9886 72 64.2787 70.2203 67.4897 66.9922C70.7206 63.7628 72.5 59.4711 72.5 54.91C72.5 50.3465 70.7206 46.056 67.4922 42.8292ZM65.7315 65.2397C62.9873 67.9987 59.3231 69.5178 55.4142 69.5178C51.5041 69.5178 47.8299 67.9975 45.0684 65.2372C39.3714 59.5431 39.3714 50.277 45.0684 44.5816C47.8299 41.8214 51.5041 40.301 55.4142 40.301C59.3231 40.301 62.9873 41.8201 65.734 44.5816C68.4955 47.3418 70.0166 51.0093 70.0166 54.9088C70.0166 58.8083 68.4955 62.477 65.7315 65.2397ZM39.1454 63.3557C38.9728 63.0256 38.8065 62.693 38.655 62.3529C37.6219 60.042 37.0718 57.5201 37.0718 54.9088C37.0718 50.668 38.5022 46.6542 41.1272 43.41C38.8512 44.9502 36.1231 45.8686 33.1729 45.8686C28.1676 45.8686 23.7633 43.2747 21.2153 39.3677C16.0945 41.881 11.8578 45.9605 9.16583 50.9609C5.29048 45.886 2.9834 39.5539 2.9834 32.6918C2.9834 16.0338 16.5266 2.48096 33.1729 2.48096C49.8191 2.48096 63.3636 16.035 63.3636 32.6931C63.3636 34.5547 63.1922 36.3866 62.8706 38.1701C63.6641 38.5238 64.4314 38.9358 65.169 39.4025C65.6197 37.2256 65.847 34.978 65.847 32.6931C65.847 14.6661 51.1899 0 33.1741 0C15.1583 0 0.5 14.6661 0.5 32.6931C0.5 40.831 3.50119 48.2776 8.4444 54.0015C8.45682 54.0177 8.46302 54.0363 8.47668 54.0524C8.54373 54.1294 8.61575 54.2014 8.68405 54.2783C8.93611 54.5638 9.19439 54.8443 9.45638 55.121C9.57683 55.2476 9.69479 55.3755 9.81772 55.4996C10.1219 55.8098 10.4324 56.1139 10.749 56.4118C10.8372 56.4949 10.9241 56.5806 11.0122 56.6637C14.792 60.1574 19.3974 62.7687 24.4996 64.1749C24.5046 64.1761 24.5108 64.1773 24.5157 64.1786C25.0571 64.3275 25.6035 64.4628 26.1573 64.5857C26.1784 64.5894 26.1982 64.5956 26.2193 64.6006C26.7458 64.7147 27.2773 64.8165 27.8112 64.9059C27.8571 64.9133 27.9018 64.9232 27.9465 64.9307C28.4494 65.0114 28.956 65.0796 29.4664 65.138C29.5409 65.1466 29.6141 65.1578 29.6887 65.1665C30.1729 65.2186 30.6609 65.2559 31.1514 65.2856C31.2457 65.2918 31.3389 65.303 31.4345 65.308C32.0106 65.3378 32.5917 65.3551 33.1753 65.3551C35.4328 65.3551 37.6815 65.1193 39.8843 64.6539C39.6533 64.2878 39.4372 63.9142 39.2336 63.5357C39.2001 63.4724 39.1752 63.4128 39.1454 63.3557ZM62.9414 47.3716C62.4571 46.8876 61.6711 46.8876 61.1856 47.3716L55.4179 53.1365L49.6502 47.3716C49.1647 46.8876 48.38 46.8876 47.8945 47.3716C47.409 47.8556 47.409 48.6425 47.8945 49.1265L53.6622 54.8914L47.8945 60.6563C47.409 61.1404 47.409 61.9272 47.8945 62.4113C48.38 62.8965 49.1647 62.8953 49.6502 62.4113L55.4179 56.6463L61.1856 62.4113C61.6711 62.8965 62.4571 62.8965 62.9414 62.4113C63.4269 61.926 63.4269 61.1404 62.9414 60.6551L57.1737 54.8902L62.9414 49.1253C63.4269 48.6425 63.4269 47.8569 62.9414 47.3716Z" fill="#254A2C"/>
</svg>
