<svg width="81" height="80" viewBox="0 0 81 80" fill="none" xmlns="http://www.w3.org/2000/svg">
<path d="M46.0927 2.65036C45.7341 2.36187 45.3091 2.16103 44.8534 2.06477C44.3978 1.96852 43.9249 1.97968 43.4746 2.09731C43.0244 2.21493 42.61 2.43558 42.2663 2.74064C41.9227 3.04571 41.6598 3.42625 41.5 3.85019L33.5 25.1057L24.7145 16.8688C24.4195 16.5919 24.0672 16.3787 23.6808 16.2431C23.2943 16.1075 22.8826 16.0527 22.4727 16.0823C22.0629 16.1119 21.6641 16.2252 21.3028 16.4147C20.9414 16.6043 20.6257 16.8658 20.3764 17.182C12.5 27.1676 8.5 37.213 8.5 47.0368C8.5 55.2488 11.8714 63.1244 17.8726 68.9311C23.8737 74.7378 32.0131 78 40.5 78C48.9869 78 57.1263 74.7378 63.1274 68.9311C69.1286 63.1244 72.5 55.2488 72.5 47.0368C72.5 26.1191 54.0309 9.03652 46.0927 2.65036ZM40.5 72.3703C33.5585 72.3629 26.9035 69.6914 21.9952 64.9421C17.0868 60.1927 14.3259 53.7534 14.3182 47.0368C14.3182 39.296 17.26 31.2772 23.0673 23.167L32.6564 32.1674C33.0046 32.4947 33.432 32.7324 33.8995 32.8589C34.367 32.9855 34.8598 32.9968 35.333 32.8918C35.8061 32.7869 36.2447 32.5691 36.6086 32.2582C36.9725 31.9473 37.2502 31.5532 37.4164 31.1119L45.5145 9.62412C53.6673 16.8055 66.6818 30.8198 66.6818 47.0368C66.6741 53.7534 63.9132 60.1927 59.0048 64.9421C54.0965 69.6914 47.4415 72.3629 40.5 72.3703Z" fill="#254A2C"/>
</svg>
