<svg width="81" height="80" viewBox="0 0 81 80" fill="none" xmlns="http://www.w3.org/2000/svg">
<g clip-path="url(#clip0_4029_2552)">
<path fill-rule="evenodd" clip-rule="evenodd" d="M32.2029 35.6198V24.4799H29.9686C28.7954 24.4869 27.8426 25.3689 27.8389 26.4628V33.6407C27.8427 34.7311 28.7954 35.6166 29.9686 35.6201L32.2029 35.6198ZM35.3601 22.8202C34.8818 22.8237 34.4933 23.1813 34.4895 23.6258V36.4744C34.4895 36.9223 34.8781 37.2835 35.3601 37.2835C35.8383 37.2835 36.2269 36.9223 36.2269 36.4744V23.6258C36.2269 23.1813 35.8383 22.8202 35.3601 22.8167V22.8202ZM70.1265 22.8202C69.6482 22.8202 69.2597 23.1813 69.2559 23.6258V36.4744C69.2746 36.9119 69.6557 37.2557 70.1265 37.2557C70.5935 37.2557 70.9784 36.9119 70.997 36.4744V23.6258C70.9933 23.1813 70.6047 22.8202 70.1265 22.8167V22.8202ZM73.2837 24.4836V35.6199H75.5179H75.5142C76.6911 35.6164 77.6402 34.7309 77.6476 33.6405V26.4626C77.6402 25.3687 76.6911 24.4867 75.5142 24.4797L73.2837 24.4836ZM38.0017 10.0304C41.6483 6.27995 46.7894 4.08184 52.2295 3.94991C57.6657 3.81795 62.9268 5.76611 66.7748 9.3394C67.1559 9.69361 67.7686 9.69361 68.1497 9.3394C68.5308 8.98519 68.5308 8.41565 68.1497 8.06148C63.9202 4.12007 58.1324 1.97049 52.1438 2.12331C46.1546 2.27958 40.5015 4.72084 36.5148 8.87757L36.4737 8.92271H36.4775C36.2421 9.20052 36.2047 9.57904 36.3803 9.89153C36.5559 10.2041 36.9146 10.3916 37.292 10.3742C37.5685 10.3603 37.83 10.2353 37.9981 10.0304L38.0017 10.0304ZM57.3447 43.8359H55.3496C54.8639 43.8498 54.4791 44.2179 54.4791 44.6694C54.4791 45.1208 54.8639 45.4889 55.3496 45.5028H57.3447C57.8305 45.4889 58.2116 45.1208 58.2116 44.6694C58.2116 44.2179 57.8305 43.8498 57.3447 43.8359ZM55.3496 41.7073H57.3447C58.645 41.7073 59.8144 42.4434 60.3001 43.5616C63.319 43.506 66.308 43.0199 69.17 42.1205C71.4267 41.4294 73.2239 39.8216 74.0571 37.7484H72.9773C72.3421 38.9916 70.8663 39.6549 69.4241 39.3493C67.9819 39.0437 66.9619 37.8491 66.9694 36.474V23.6254C66.9731 22.4308 67.754 21.3543 68.9459 20.9064C70.134 20.4549 71.5015 20.7223 72.3982 21.5801C72.245 17.9547 70.9261 14.4578 68.6171 11.5336C67.4178 11.9538 66.0652 11.6829 65.1573 10.8391C61.7424 7.67553 57.0795 5.94966 52.2601 6.07118C47.4402 6.19619 42.8857 8.15123 39.6612 11.4849L39.6201 11.5301C38.772 12.3843 37.468 12.7073 36.2724 12.3566C34.3333 15.1069 33.2348 18.2947 33.0966 21.5834C33.9933 20.7256 35.357 20.4583 36.5489 20.9097C37.7408 21.3576 38.5217 22.4306 38.5254 23.6253V36.4738C38.5291 37.849 37.5091 39.0435 36.0707 39.3491C34.6285 39.6547 33.1526 38.9915 32.5175 37.7483H29.9693C27.5295 37.7448 25.553 35.9078 25.5493 33.6402V26.4623C25.553 24.1947 27.5295 22.3577 29.9693 22.3507H30.7876C30.7838 18.3295 32.0616 14.395 34.4603 11.0473C33.7168 9.91175 33.8588 8.45319 34.819 7.46357L34.8601 7.41842C39.2727 2.85196 45.5125 0.171128 52.1142 0.00791029C58.7161 -0.155299 65.1014 2.21304 69.7719 6.55726C70.7882 7.50181 71.0198 8.95681 70.3398 10.134C73.1794 13.6587 74.7112 17.9474 74.7038 22.3505H75.522C77.9618 22.354 79.9383 24.1909 79.9458 26.4586V33.6364C79.9383 35.5672 78.4961 37.2341 76.4711 37.6508C74.6776 44.3564 66.6451 45.3565 60.338 45.6899C59.8784 46.8601 58.6828 47.6345 57.3452 47.638H55.3501C53.5865 47.638 52.1593 46.3114 52.1593 44.6759C52.1593 43.0368 53.5866 41.7103 55.3501 41.7103L55.3496 41.7073ZM10.585 55.4314L3.56077 57.1817C3.00033 57.3206 2.6678 57.8554 2.81726 58.3763L8.23117 77.1526C8.38436 77.6735 8.95974 77.9826 9.5165 77.8437L16.5407 76.097C16.8098 76.0275 17.0414 75.8643 17.1797 75.6386C17.3179 75.4129 17.3553 75.149 17.2805 74.8989L11.8705 56.1191C11.7173 55.6017 11.1418 55.2925 10.585 55.4314ZM54.5089 59.5326C55.002 60.0292 55.2337 60.7063 55.1366 61.3765C55.0431 62.0502 54.6322 62.6475 54.0156 63.0086C53.4776 63.3663 52.7977 63.4844 52.1587 63.3351L34.7698 60.7688C34.4671 60.7167 34.157 60.7827 33.9067 60.9459C33.6564 61.1126 33.4882 61.3626 33.4397 61.6474C33.3911 61.9287 33.4658 62.2169 33.6489 62.4461C33.832 62.6753 34.1085 62.8246 34.4111 62.8628L51.6499 65.4082H51.6536C52.6736 65.6444 53.7497 65.5333 54.6912 65.0957L73.1151 57.383C74.9309 56.7232 76.0892 56.7024 76.8215 57.008V57.0115C77.423 57.3101 77.8564 57.8345 78.0171 58.4526C78.2898 59.0429 78.2898 59.7132 78.0171 60.3069C77.4193 61.1681 76.5861 61.8661 75.5998 62.3349C68.5643 66.3805 61.4543 71.1345 54.4863 75.0065H54.49C53.4961 75.5864 52.4014 76.0032 51.2581 76.2393C48.9304 76.4997 46.5729 76.3643 44.3012 75.8365C40.8526 75.1107 37.5199 73.9821 34.3776 72.4785C31.5007 71.2353 27.6038 69.4816 24.3833 69.3219C22.1415 69.2108 20.3743 70.3359 18.622 71.3013L14.3664 56.5637C15.4462 56.1192 25.915 51.8513 26.266 51.8096C29.1916 51.5075 35.894 53.2334 38.2221 53.9036L52.9358 58.6056V58.6091C53.485 58.7757 53.9895 59.0605 54.4079 59.4355C54.4378 59.4703 54.4714 59.5015 54.5051 59.5293L54.5089 59.5326ZM71.1948 55.8517C71.0005 55.4732 70.7016 55.1467 70.3317 54.9037C69.6816 54.5078 68.6317 54.4244 66.8981 55.0495L57.0004 59.1993C57.3964 59.9494 57.5421 60.7967 57.4076 61.6232L71.1948 55.8517ZM48.4591 54.9245L58.9804 50.4726C61.4538 49.5663 63.1837 49.5523 64.4466 50.0211V50.0246C65.7057 50.542 66.6696 51.5317 67.103 52.7471C70.1144 51.9554 72.2143 52.8895 73.3202 55.0669C76.7165 54.1189 79.2161 55.0182 80.1875 57.8033C81.1963 60.6994 79.6831 62.4808 76.7949 64.1408C69.8417 68.1412 62.6609 72.9334 55.6546 76.8293C53.3681 78.1836 50.6517 78.767 47.9579 78.4753C45.1295 78.2531 42.3422 77.7079 39.6558 76.8606C35.4414 75.5271 31.6079 73.3984 27.7973 72.1795H27.7936C26.6577 71.7871 25.4659 71.5371 24.2553 71.4433C22.5554 71.36 20.7769 72.6171 19.2189 73.4227L19.4841 74.35H19.4879C19.7158 75.1452 19.5925 75.9891 19.1479 76.7009C18.707 77.4128 17.9784 77.9336 17.1265 78.1455L10.1023 79.8957C8.32003 80.3333 6.49678 79.354 6.0148 77.701L0.612178 58.9247C0.141404 57.2717 1.19504 55.5737 2.97355 55.1257L9.99781 53.3755V53.3789C11.3391 53.0456 12.7626 53.5213 13.5734 54.57C15.1726 53.9067 25.19 49.7848 26.0193 49.6979C29.4642 49.3437 36.1743 51.1217 38.973 51.8926L48.4632 54.9277L48.4591 54.9245ZM64.9776 53.525C64.7572 52.8652 64.2602 52.3131 63.5952 51.9936C62.8405 51.7123 61.6673 51.7748 59.8104 52.4519L51.5943 55.9281L53.6755 56.5913L53.6792 56.5948C54.3331 56.8032 54.9421 57.1087 55.4875 57.4976L64.9776 53.525Z" fill="#254A2C"/>
</g>
<defs>
<clipPath id="clip0_4029_2552">
<rect width="80" height="80" fill="white" transform="translate(0.5)"/>
</clipPath>
</defs>
</svg>
