<svg width="16" height="20" viewBox="0 0 16 20" fill="none" xmlns="http://www.w3.org/2000/svg">
<mask id="mask0_3455_8371" style="mask-type:alpha" maskUnits="userSpaceOnUse" x="1" y="3" width="14" height="14">
<path fill-rule="evenodd" clip-rule="evenodd" d="M8.00065 3.33301C4.32065 3.33301 1.33398 6.31967 1.33398 9.99967C1.33398 13.6797 4.32065 16.6663 8.00065 16.6663C11.6807 16.6663 14.6673 13.6797 14.6673 9.99967C14.6673 6.31967 11.6807 3.33301 8.00065 3.33301ZM8.00065 10.6663C7.63398 10.6663 7.33398 10.3663 7.33398 9.99967V7.33301C7.33398 6.96634 7.63398 6.66634 8.00065 6.66634C8.36732 6.66634 8.66732 6.96634 8.66732 7.33301V9.99967C8.66732 10.3663 8.36732 10.6663 8.00065 10.6663ZM7.33398 11.9997V13.333H8.66732V11.9997H7.33398Z" fill="black"/>
</mask>
<g mask="url(#mask0_3455_8371)">
<rect y="2" width="16" height="16" fill="#DA1414"/>
</g>
</svg>
