<svg width="52" height="52" viewBox="0 0 52 52" fill="none" xmlns="http://www.w3.org/2000/svg">
<path d="M26.763 7.20065L42.2543 11.2745C42.6937 11.39 43 11.7873 43 12.2416V30.5876C43 32.6074 41.9838 34.4916 40.2961 35.6012L26.5494 44.6388C26.2159 44.858 25.7841 44.858 25.4506 44.6388L11.7039 35.6012C10.0162 34.4916 9 32.6074 9 30.5876V12.2416C9 11.7873 9.30628 11.39 9.74567 11.2745L25.237 7.20065C25.7372 7.06912 26.2628 7.06912 26.763 7.20065Z" stroke="white" stroke-linecap="round"/>
<path d="M20 24.4286L24.5535 28.8319C24.6504 28.9257 24.8042 28.9257 24.9011 28.8319L33 21" stroke="white" stroke-linecap="round"/>
</svg>
