<svg width="52" height="52" viewBox="0 0 52 52" fill="none" xmlns="http://www.w3.org/2000/svg">
<path d="M40.0833 20.5834V15.1167C40.0833 13.9966 40.0833 13.4365 39.8653 13.0087C39.6736 12.6324 39.3676 12.3264 38.9913 12.1347C38.5635 11.9167 38.0034 11.9167 36.8833 11.9167H12.95C11.8299 11.9167 11.2698 11.9167 10.842 12.1347C10.4657 12.3264 10.1597 12.6324 9.96799 13.0087C9.75 13.4365 9.75 13.9966 9.75 15.1167V30.3834C9.75 31.5035 9.75 32.0635 9.96799 32.4913C10.1597 32.8677 10.4657 33.1736 10.842 33.3654C11.2698 33.5834 11.8299 33.5834 12.95 33.5834H29.25" stroke="white" stroke-linecap="round"/>
<path d="M16.25 27.0833H24.9167" stroke="white" stroke-linecap="round"/>
<path d="M16.25 18.4167H31.4167" stroke="white" stroke-linecap="round"/>
<circle cx="37.9167" cy="29.25" r="4.91667" stroke="white"/>
<path d="M42.25 40.0834C42.25 40.0834 41.1667 37.9167 37.9167 37.9167C34.6667 37.9167 33.5833 40.0834 33.5833 40.0834" stroke="white" stroke-linecap="round"/>
</svg>
