<svg width="92" height="22" viewBox="0 0 92 22" fill="none" xmlns="http://www.w3.org/2000/svg">
<path d="M6.33541 22C1.81068 22 1.12511 21.473 1.35715 20.4611C1.5259 19.7443 5.22796 5.95743 5.31234 5.64121C5.68149 4.16555 7.23192 4.52392 7.2952 4.53446C7.33739 4.54501 7.36903 4.58717 7.35849 4.62933C7.22137 5.80986 5.04866 17.4571 5.02756 17.6046C4.84826 18.7535 5.02756 18.8695 6.45143 18.8695C13.4864 18.8695 16.0388 14.0103 16.7349 10.1314C17.9373 3.40663 11.3348 1.39341 2.12709 2.21556C2.04271 2.2261 1.43098 2.25772 1.1673 2.13124C0.819243 1.96259 0.523922 1.54097 0.450092 1.30908C0.418451 1.22476 0.418451 1.14044 0.450092 1.08773C0.471187 1.05611 0.492281 1.02449 0.523922 1.01395C3.49822 0.486927 7.63271 -0.219283 10.3011 0.0653088C20.4053 1.12989 20.4053 7.48579 19.8147 10.7006C19.4877 12.5663 17.7791 22 6.33541 22ZM42.5544 17.8471C41.9005 20.0711 39.907 21.61 37.5867 21.6732C35.6354 21.7786 33.6842 20.6719 32.8299 18.9643C32.4924 18.3214 32.3025 17.6257 32.2287 16.8036C31.9334 16.9406 31.6275 17.0671 31.3216 17.1619C30.9209 18.2898 30.2247 19.3333 29.265 20.05C27.2083 21.5784 24.4238 22.0211 21.9241 20.6508C18.8444 18.5322 19.2241 14.2633 21.3757 11.7547C23.5167 9.24605 27.4508 8.82443 29.4232 10.0577C30.7626 10.922 31.4799 12.4082 31.6697 13.9576C31.9545 13.7574 32.2076 13.5044 32.5029 13.1671C32.7772 12.8403 33.3151 12.0393 33.3151 12.0393C33.6315 11.5544 34.0217 11.1012 34.4542 10.7112C35.3612 9.92063 36.5109 9.53064 37.671 9.53064C38.673 9.53064 39.6961 9.82577 40.5821 10.4266C40.8668 10.6163 40.9407 10.7217 40.8457 10.8798C40.7192 11.1117 40.5821 11.3225 40.4133 11.5228C40.0969 11.9022 39.7699 11.7652 39.5484 11.6704C39.5168 11.6598 39.4852 11.6387 39.4535 11.6282C38.4621 11.2804 37.6499 11.3541 36.8062 11.8601C34.9815 12.9668 34.7073 15.1171 35.0448 16.7614C35.3929 18.4373 36.321 19.0065 37.0488 19.1857C38.3777 19.523 40.1602 18.8062 41.2887 17.4781C41.6262 17.0776 42.143 17.3411 42.5122 17.6362C42.5333 17.6468 42.5438 17.6573 42.5544 17.6679C42.6071 17.7311 42.5544 17.8365 42.5544 17.8471ZM28.6849 12.1974C27.3243 10.5109 24.8562 11.0801 23.464 12.6401C22.0718 14.2106 22.0507 16.7825 23.5695 17.8681C24.9934 18.88 27.261 18.3425 28.379 16.7192C29.1595 15.5809 29.8661 13.6625 28.6849 12.1974ZM62.7311 15.739C62.5413 17.3833 61.6975 19.0487 60.3475 20.0606C58.2908 21.5889 55.5063 22.0316 53.0066 20.6614C52.6902 20.44 52.4054 20.1976 52.1629 19.9341C51.741 20.3135 51.2452 20.693 50.6968 21.0197C49.0198 22.0316 46.6783 21.7681 45.2334 20.4189C44.3158 19.5968 43.8728 18.2371 44.0415 16.8563C44.1892 15.6336 45.2861 11.4174 46.3092 7.6439C45.3072 7.67552 44.4318 7.6439 43.9466 7.41201C43.1661 7.03255 43.356 5.73608 43.4298 5.36716C43.4403 5.31446 43.4931 5.2723 43.5458 5.2723C43.9255 5.2723 45.3599 5.26175 46.9526 5.25121C47.617 2.82691 48.1444 1.00341 48.1444 1.00341C48.3342 0.360444 49.0409 0.0126065 49.6843 0.0126065C49.8108 0.0126065 49.9269 0.0231496 50.0429 0.0547709C50.0851 0.0653114 50.1062 0.107473 50.0956 0.160175C49.9269 1.20368 49.5999 3.10096 49.2096 5.25121C50.0745 5.25121 50.855 5.26176 51.3824 5.2723C53.2387 5.31446 55.6856 5.41986 56.1813 5.44094C56.2341 5.44094 56.2868 5.48311 56.2973 5.53581C56.3501 5.7677 56.3923 6.34742 55.7278 6.72688C55.1582 7.04309 51.0238 7.33822 49.1253 7.46471C49.0198 7.47525 48.9249 7.47525 48.8194 7.48579C48.0284 11.8495 47.1846 16.3714 47.1424 16.5717C46.9315 17.6257 47.5959 18.2687 48.1866 18.3952C49.2729 18.6271 50.1589 18.1633 50.8972 17.4887C50.4859 15.5176 51.1292 13.3041 52.4476 11.7547C54.5887 9.24605 58.5228 8.82443 60.4951 10.0577C62.3514 11.2698 63.0053 13.652 62.7311 15.739ZM59.7779 12.1974C58.4173 10.5109 55.9493 11.0801 54.5571 12.6401C53.1648 14.2106 53.1437 16.7825 54.6625 17.8681C56.0864 18.88 58.354 18.3425 59.472 16.7192C60.2525 15.5809 60.9592 13.6625 59.7779 12.1974ZM75.0924 6.9166C75.7041 7.31714 76.4741 7.12741 76.9698 6.7585C77.3073 6.50553 77.5288 6.09445 77.5815 5.65175C77.6448 5.18797 77.5288 4.53446 77.012 4.19717C76.8116 4.07068 76.5795 4.01798 76.337 4.01798C75.9573 4.01798 75.567 4.15501 75.2612 4.33419C75.1662 4.39744 75.0924 4.46068 75.0186 4.545C74.9764 4.5977 74.9342 4.66095 74.9025 4.72419C74.4701 5.4831 74.3752 6.4212 75.0924 6.9166ZM89.2678 10.0787C87.865 9.19334 85.4497 9.16172 83.4036 10.1314C83.8465 7.6966 84.8063 1.01395 84.9435 0.170713C84.954 0.139092 84.9434 0.118013 84.9329 0.0969321C84.9223 0.0758512 84.9013 0.0653088 84.8802 0.0653088C84.7641 0.0442279 84.6481 0.0231476 84.5216 0.0231476C83.8782 0.0231476 83.1715 0.370982 82.9817 1.01395C82.9817 1.01395 79.2269 16.1606 79.1003 16.8668C78.2355 18.2054 77.1913 18.7219 76.0522 18.3741C75.1029 18.0789 75.1557 17.3517 75.1873 16.9933C75.2401 16.4241 76.2209 10.806 76.4002 9.55172C76.4108 9.46739 76.3581 9.39361 76.2737 9.37253C76.0733 9.34091 75.8623 9.31983 75.6514 9.31983C74.9553 9.31983 74.2381 9.5728 73.8162 10.6268C73.8056 10.669 72.5716 14.9801 72.3396 15.9076C72.3079 16.0236 72.2868 16.1395 72.2552 16.2554C71.3482 17.6257 69.9454 18.8273 67.9203 18.3952C67.3297 18.2687 66.6758 17.8365 66.8762 16.5717C66.9289 16.2344 68.7852 5.50418 69.3231 2.07854C69.3336 2.02583 69.3125 1.98367 69.2704 1.97313C69.1543 1.94151 69.0278 1.93097 68.9118 1.93097C68.2684 1.93097 67.5723 2.27881 67.3719 2.92177C67.3719 2.92177 64.4081 13.789 63.7753 16.8563C63.4905 18.2054 63.6909 19.523 64.8933 20.5876C66.0113 21.5889 68.1629 21.9051 69.9454 21.1568C70.979 20.7246 71.8439 20.0184 72.4451 19.407C73.2255 20.967 75.0924 21.9789 76.8116 21.5678C78.1405 21.2516 79.1531 20.2924 79.8175 19.4914C80.0812 19.8708 80.3871 20.2081 80.714 20.4716C82.2434 21.6838 84.4055 21.9051 86.3673 21.3254C87.3587 21.1041 88.308 20.6719 89.1307 20.0606C90.4807 19.0381 91.335 17.3833 91.5143 15.739C91.7886 13.652 91.1241 11.2698 89.2678 10.0787ZM88.2974 16.9617C87.19 18.5849 84.6481 19.1962 83.2243 18.1844C81.6949 17.0987 81.9902 14.4425 83.3825 12.8825C84.7747 11.312 87.2427 10.7533 88.6033 12.4398C89.7846 13.8944 89.0779 15.8128 88.2974 16.9617Z" fill="white"/>
</svg>
