<svg aria-hidden="true" xmlns="http://www.w3.org/2000/svg" xmlns:xlink="http://www.w3.org/1999/xlink"><symbol viewBox="0 0 75 84" fill="none" id="accounting" xmlns="http://www.w3.org/2000/svg">
<path d="M26.0417 0C21.2571 0 17.3035 3.68047 16.7725 8.33333H9.375C4.23437 8.33333 0 12.5677 0 17.7083V73.9583C0 79.099 4.23437 83.3333 9.375 83.3333H36.4583H65.625C70.7656 83.3333 75 79.099 75 73.9583V38.5417C75 33.7571 71.3195 29.8035 66.6667 29.2725V17.7083C66.6667 12.5677 62.4323 8.33333 57.2917 8.33333H49.8942C49.3631 3.68047 45.4096 0 40.625 0H26.0417ZM26.0417 6.25H40.625C42.3885 6.25 43.75 7.61146 43.75 9.375C43.75 11.1385 42.3885 12.5 40.625 12.5H26.0417C24.2781 12.5 22.9167 11.1385 22.9167 9.375C22.9167 7.61146 24.2781 6.25 26.0417 6.25ZM9.375 14.5833H18.2699C19.9609 17.0873 22.8223 18.75 26.0417 18.75H40.625C43.8443 18.75 46.7058 17.0873 48.3968 14.5833H57.2917C59.0552 14.5833 60.4167 15.9448 60.4167 17.7083V29.1667H36.4583C31.3177 29.1667 27.0833 33.401 27.0833 38.5417V73.9583C27.0833 75.0572 27.3107 76.0998 27.6652 77.0833H9.375C7.61146 77.0833 6.25 75.7219 6.25 73.9583V17.7083C6.25 15.9448 7.61146 14.5833 9.375 14.5833ZM36.4583 35.4167H65.625C67.3885 35.4167 68.75 36.7781 68.75 38.5417V73.9583C68.75 75.7219 67.3885 77.0833 65.625 77.0833H36.4583C34.6948 77.0833 33.3333 75.7219 33.3333 73.9583V38.5417C33.3333 36.7781 34.6948 35.4167 36.4583 35.4167ZM41.6667 41.6667C40.5167 41.6667 39.5833 42.6 39.5833 43.75V47.9167C39.5833 49.0667 40.5167 50 41.6667 50H60.4167C61.5667 50 62.5 49.0667 62.5 47.9167V43.75C62.5 42.6 61.5667 41.6667 60.4167 41.6667H41.6667ZM40.625 54.1667C39.7962 54.1667 39.0013 54.4959 38.4153 55.082C37.8292 55.668 37.5 56.4629 37.5 57.2917C37.5 58.1205 37.8292 58.9153 38.4153 59.5014C39.0013 60.0874 39.7962 60.4167 40.625 60.4167C41.4538 60.4167 42.2487 60.0874 42.8347 59.5014C43.4208 58.9153 43.75 58.1205 43.75 57.2917C43.75 56.4629 43.4208 55.668 42.8347 55.082C42.2487 54.4959 41.4538 54.1667 40.625 54.1667ZM51.0417 54.1667C50.2129 54.1667 49.418 54.4959 48.832 55.082C48.2459 55.668 47.9167 56.4629 47.9167 57.2917C47.9167 58.1205 48.2459 58.9153 48.832 59.5014C49.418 60.0874 50.2129 60.4167 51.0417 60.4167C51.8705 60.4167 52.6653 60.0874 53.2514 59.5014C53.8374 58.9153 54.1667 58.1205 54.1667 57.2917C54.1667 56.4629 53.8374 55.668 53.2514 55.082C52.6653 54.4959 51.8705 54.1667 51.0417 54.1667ZM61.4583 54.1667C59.7333 54.1667 58.3333 55.5667 58.3333 57.2917V67.7083C58.3333 69.4333 59.7333 70.8333 61.4583 70.8333C63.1833 70.8333 64.5833 69.4333 64.5833 67.7083V57.2917C64.5833 55.5667 63.1833 54.1667 61.4583 54.1667ZM40.625 64.5833C39.7962 64.5833 39.0013 64.9126 38.4153 65.4986C37.8292 66.0847 37.5 66.8795 37.5 67.7083C37.5 68.5371 37.8292 69.332 38.4153 69.918C39.0013 70.5041 39.7962 70.8333 40.625 70.8333C41.4538 70.8333 42.2487 70.5041 42.8347 69.918C43.4208 69.332 43.75 68.5371 43.75 67.7083C43.75 66.8795 43.4208 66.0847 42.8347 65.4986C42.2487 64.9126 41.4538 64.5833 40.625 64.5833ZM51.0417 64.5833C50.2129 64.5833 49.418 64.9126 48.832 65.4986C48.2459 66.0847 47.9167 66.8795 47.9167 67.7083C47.9167 68.5371 48.2459 69.332 48.832 69.918C49.418 70.5041 50.2129 70.8333 51.0417 70.8333C51.8705 70.8333 52.6653 70.5041 53.2514 69.918C53.8374 69.332 54.1667 68.5371 54.1667 67.7083C54.1667 66.8795 53.8374 66.0847 53.2514 65.4986C52.6653 64.9126 51.8705 64.5833 51.0417 64.5833Z" fill="currentColor"/>
</symbol><symbol viewBox="0 0 36 36" fill="none" id="arrow" xmlns="http://www.w3.org/2000/svg">
<g clip-path="url(#bclip0_29_184)">
<path d="M-2 -2V-3.33333H-3.33333V-2H-2ZM38 -2H39.3333V-3.33333H38V-2ZM38 38V39.3333H39.3333V38H38ZM-2 38H-3.33333V39.3333H-2V38ZM7.05719 27.0572C6.53649 27.5779 6.53649 28.4221 7.05719 28.9428C7.57789 29.4635 8.42211 29.4635 8.94281 28.9428L7.05719 27.0572ZM28 8H29.3333C29.3333 7.26362 28.7364 6.66667 28 6.66667V8ZM11.75 6.66667C11.0136 6.66667 10.4167 7.26362 10.4167 8C10.4167 8.73638 11.0136 9.33333 11.75 9.33333V6.66667ZM26.6667 24.25C26.6667 24.9864 27.2636 25.5833 28 25.5833C28.7364 25.5833 29.3333 24.9864 29.3333 24.25H26.6667ZM-2 -0.666667H38V-3.33333H-2V-0.666667ZM36.6667 -2V38H39.3333V-2H36.6667ZM38 36.6667H-2V39.3333H38V36.6667ZM-0.666667 38V-2H-3.33333V38H-0.666667ZM8.94281 28.9428L28.9428 8.94281L27.0572 7.05719L7.05719 27.0572L8.94281 28.9428ZM11.75 9.33333H28V6.66667H11.75V9.33333ZM26.6667 8V24.25H29.3333V8H26.6667Z" fill="currentColor"/>
</g>
<defs>
<clipPath id="bclip0_29_184">
<rect width="36" height="36" fill="currentColor"/>
</clipPath>
</defs>
</symbol><symbol viewBox="0 0 11 6" fill="none" id="chevron" xmlns="http://www.w3.org/2000/svg">
<path d="M1.92857 -3.74669e-07L5.5 3.57143L9.07143 -6.24448e-08L10.5 0.714286L5.5 5.71429L0.5 0.714285L1.92857 -3.74669e-07Z" fill="currentColor"/>
</symbol><symbol viewBox="0 0 27 27" fill="none" id="house" xmlns="http://www.w3.org/2000/svg">
<path d="M3.99981 0.333496C2.72318 0.333496 1.66648 1.39019 1.66648 2.66683V4.47412L0.404762 7.62907C0.349055 7.76863 0.325511 7.91894 0.33588 8.06885C0.34625 8.21875 0.390266 8.3644 0.464658 8.49496C0.464657 8.49539 0.464657 8.49582 0.464658 8.49626C0.616849 9.55955 1.04256 10.5353 1.66648 11.3478V25.3335C1.66651 25.5987 1.77187 25.853 1.9594 26.0406C2.14693 26.2281 2.40127 26.3335 2.66648 26.3335H24.6665C24.9317 26.3335 25.186 26.2281 25.3736 26.0406C25.5611 25.853 25.6665 25.5987 25.6665 25.3335V11.3504C26.2928 10.5356 26.7195 9.55547 26.8709 8.48844C26.9439 8.35852 26.9869 8.21393 26.9968 8.06524C27.0067 7.91655 26.9833 7.76753 26.9282 7.62907L25.6665 4.47412V2.66683C25.6665 1.39019 24.6098 0.333496 23.3331 0.333496H3.99981ZM3.99981 2.3335H23.3331C23.5298 2.3335 23.6665 2.47013 23.6665 2.66683V4.66683C23.6666 4.79395 23.6909 4.9199 23.7381 5.03792L24.9503 8.06917C24.7443 10.0905 23.0804 11.6668 20.9998 11.6668C19.8883 11.6668 18.8937 11.2199 18.1691 10.4937C17.9879 10.3121 17.744 10.2071 17.4876 10.2003C17.2312 10.1935 16.982 10.2855 16.7915 10.4572C15.9599 11.2088 14.8737 11.6668 13.6665 11.6668C12.4592 11.6668 11.3731 11.2088 10.5415 10.4572C10.351 10.2855 10.1018 10.1935 9.8454 10.2003C9.58901 10.2071 9.34503 10.3121 9.16388 10.4937C8.43928 11.2198 7.44469 11.6668 6.33315 11.6668C4.25171 11.6668 2.58805 10.0904 2.38263 8.06917L3.59487 5.03792C3.64211 4.9199 3.66641 4.79395 3.66648 4.66683V2.66683C3.66648 2.47013 3.80312 2.3335 3.99981 2.3335ZM17.3331 3.66683C17.0679 3.66683 16.8136 3.77219 16.626 3.95972C16.4385 4.14726 16.3331 4.40161 16.3331 4.66683C16.3331 4.93205 16.4385 5.1864 16.626 5.37394C16.8136 5.56147 17.0679 5.66683 17.3331 5.66683C17.5984 5.66683 17.8527 5.56147 18.0403 5.37394C18.2278 5.1864 18.3331 4.93205 18.3331 4.66683C18.3331 4.40161 18.2278 4.14726 18.0403 3.95972C17.8527 3.77219 17.5984 3.66683 17.3331 3.66683ZM20.6665 3.66683C20.4013 3.66683 20.1469 3.77219 19.9594 3.95972C19.7718 4.14726 19.6665 4.40161 19.6665 4.66683C19.6665 4.93205 19.7718 5.1864 19.9594 5.37394C20.1469 5.56147 20.4013 5.66683 20.6665 5.66683C20.9317 5.66683 21.1861 5.56147 21.3736 5.37394C21.5611 5.1864 21.6665 4.93205 21.6665 4.66683C21.6665 4.40161 21.5611 4.14726 21.3736 3.95972C21.1861 3.77219 20.9317 3.66683 20.6665 3.66683ZM9.89044 12.37C10.9737 13.1341 12.2413 13.6668 13.6665 13.6668C15.0917 13.6668 16.3593 13.1341 17.4425 12.37C18.4496 13.1321 19.6451 13.6668 20.9998 13.6668C21.9633 13.6668 22.8674 13.4328 23.6665 13.0223V24.3335H20.9998V16.6668C20.9998 16.4016 20.8944 16.1473 20.7069 15.9598C20.5194 15.7722 20.265 15.6669 19.9998 15.6668H12.6665C12.4013 15.6669 12.1469 15.7722 11.9594 15.9598C11.7719 16.1473 11.6665 16.4016 11.6665 16.6668V24.3335H3.66648V13.0223C4.46555 13.4329 5.36934 13.6668 6.33315 13.6668C7.68784 13.6668 8.88337 13.1321 9.89044 12.37ZM13.6665 17.6668H18.9998V24.3335H13.6665V17.6668Z" fill="currentColor"/>
</symbol><symbol viewBox="0 0 68 84" fill="none" id="inspection" xmlns="http://www.w3.org/2000/svg">
<path d="M26.7084 0.25C21.9238 0.25 17.9703 3.93047 17.4392 8.58333H10.0417C4.90112 8.58333 0.666748 12.8177 0.666748 17.9583V74.2083C0.666748 79.349 4.90112 83.5833 10.0417 83.5833H57.9584C63.099 83.5833 67.3334 79.349 67.3334 74.2083V17.9583C67.3334 12.8177 63.099 8.58333 57.9584 8.58333H50.561C50.0299 3.93047 46.0763 0.25 41.2917 0.25H26.7084ZM26.7084 6.5H41.2917C43.0553 6.5 44.4167 7.86146 44.4167 9.625C44.4167 11.3885 43.0553 12.75 41.2917 12.75H26.7084C24.9449 12.75 23.5834 11.3885 23.5834 9.625C23.5834 7.86146 24.9449 6.5 26.7084 6.5ZM10.0417 14.8333H18.9366C20.6277 17.3373 23.4891 19 26.7084 19H41.2917C44.5111 19 47.3725 17.3373 49.0636 14.8333H57.9584C59.722 14.8333 61.0834 16.1948 61.0834 17.9583V74.2083C61.0834 75.9719 59.722 77.3333 57.9584 77.3333H10.0417C8.27821 77.3333 6.91675 75.9719 6.91675 74.2083V17.9583C6.91675 16.1948 8.27821 14.8333 10.0417 14.8333ZM47.4807 35.6382C46.6691 35.6618 45.8986 36.0004 45.3323 36.5822L28.7917 53.1227L22.6679 46.9989C22.3799 46.699 22.035 46.4595 21.6534 46.2946C21.2717 46.1296 20.861 46.0425 20.4453 46.0382C20.0295 46.034 19.6171 46.1128 19.2322 46.27C18.8472 46.4271 18.4975 46.6595 18.2036 46.9535C17.9096 47.2475 17.6772 47.5972 17.52 47.9821C17.3629 48.367 17.2841 48.7794 17.2883 49.1952C17.2926 49.6109 17.3797 50.0216 17.5446 50.4033C17.7096 50.7849 17.949 51.1298 18.2489 51.4178L26.5823 59.7511C27.1683 60.337 27.9631 60.6661 28.7917 60.6661C29.6204 60.6661 30.4151 60.337 31.0012 59.7511L49.7512 41.0011C50.2021 40.5621 50.5098 39.9971 50.6343 39.3802C50.7587 38.7633 50.694 38.1233 50.4487 37.5437C50.2033 36.9642 49.7888 36.4723 49.2592 36.1323C48.7296 35.7923 48.1098 35.6201 47.4807 35.6382Z" fill="currentColor"/>
</symbol><symbol viewBox="0 0 84 92" fill="none" id="network" xmlns="http://www.w3.org/2000/svg">
<path d="M41.6659 0C40.6609 0.00137081 39.6669 0.210508 38.7465 0.61428C37.8261 1.01805 36.9992 1.60774 36.3175 2.34633C35.6359 3.08491 35.1143 3.95644 34.7855 4.9062C34.4566 5.85597 34.3277 6.86345 34.4068 7.8654L11.4332 21.0897C10.2162 20.2465 8.77144 19.7938 7.29093 19.7917C5.63551 19.7918 4.02942 20.3553 2.73673 21.3894C1.44405 22.4235 0.541709 23.8667 0.178088 25.4817C-0.185534 27.0967 0.0112054 28.7873 0.735956 30.2757C1.46071 31.764 2.67033 32.9614 4.16593 33.6711V58.0037C2.67495 58.7159 1.47006 59.9134 0.748676 61.3999C0.0272911 62.8865 -0.167811 64.574 0.195336 66.1859C0.558484 67.7978 1.45835 69.2386 2.74749 70.2722C4.03663 71.3058 5.6386 71.871 7.29093 71.875C8.77283 71.8737 10.2192 71.4209 11.4373 70.577L34.3987 83.7972C34.319 84.8002 34.4477 85.8088 34.7767 86.7596C35.1057 87.7104 35.6279 88.5828 36.3105 89.3219C36.9931 90.0611 37.8213 90.651 38.743 91.0545C39.6646 91.458 40.6598 91.6665 41.6659 91.6667C42.671 91.6653 43.6649 91.4562 44.5853 91.0524C45.5057 90.6486 46.3327 90.0589 47.0144 89.3203C47.696 88.5818 48.2176 87.7102 48.5464 86.7605C48.8752 85.8107 49.0041 84.8032 48.925 83.8013L71.8987 70.577C73.1156 71.4201 74.5604 71.8729 76.0409 71.875C77.6964 71.8748 79.3024 71.3114 80.5951 70.2773C81.8878 69.2432 82.7902 67.8 83.1538 66.185C83.5174 64.57 83.3207 62.8793 82.5959 61.391C81.8712 59.9027 80.6615 58.7052 79.1659 57.9956V33.6629C80.6569 32.9507 81.8618 31.7533 82.5832 30.2667C83.3046 28.7802 83.4997 27.0927 83.1365 25.4808C82.7734 23.8688 81.8735 22.428 80.5844 21.3944C79.2952 20.3608 77.6933 19.7957 76.0409 19.7917C74.559 19.793 73.1127 20.2457 71.8946 21.0897L48.9332 7.86947C49.0129 6.86651 48.8842 5.8579 48.5552 4.9071C48.2262 3.9563 47.7039 3.08388 47.0213 2.34472C46.3387 1.60557 45.5106 1.01567 44.5889 0.612149C43.6672 0.208625 42.6721 0.000205013 41.6659 0ZM37.5237 13.2812C38.7402 14.1259 40.185 14.58 41.6659 14.5833C43.1492 14.5829 44.5971 14.1301 45.8163 13.2853L68.7737 26.5055C68.6565 27.979 68.9899 29.4533 69.7296 30.733C70.4694 32.0126 71.5806 33.0373 72.9159 33.6711V58.0037C71.5842 58.638 70.4761 59.6612 69.738 60.9384C68.9999 62.2155 68.6665 63.6865 68.7818 65.1571L45.8082 78.3854C44.5917 77.5408 43.1469 77.0866 41.6659 77.0833C40.1827 77.0838 38.7348 77.5366 37.5155 78.3813L14.5582 65.1611C14.6754 63.6877 14.342 62.2134 13.6022 60.9337C12.8625 59.654 11.7513 58.6294 10.4159 57.9956V33.6629C11.7477 33.0287 12.8558 32.0054 13.5939 30.7283C14.332 29.4511 14.6654 27.9802 14.55 26.5096L37.5237 13.2812ZM41.6659 22.9167C38.4541 22.9167 35.6496 24.2336 33.8616 26.2451C32.0736 28.2566 31.2493 30.816 31.2493 33.3333C31.2493 35.8507 32.0736 38.41 33.8616 40.4215C35.6496 42.4331 38.4541 43.75 41.6659 43.75C44.8777 43.75 47.6823 42.4331 49.4703 40.4215C51.2583 38.41 52.0826 35.8507 52.0826 33.3333C52.0826 30.816 51.2583 28.2566 49.4703 26.2451C47.6823 24.2336 44.8777 22.9167 41.6659 22.9167ZM41.6659 29.1667C43.3152 29.1667 44.1565 29.6726 44.7991 30.3955C45.4416 31.1184 45.8326 32.2049 45.8326 33.3333C45.8326 34.4618 45.4416 35.5483 44.7991 36.2712C44.1565 36.994 43.3152 37.5 41.6659 37.5C40.0166 37.5 39.1753 36.994 38.5328 36.2712C37.8902 35.5483 37.4993 34.4618 37.4993 33.3333C37.4993 32.2049 37.8902 31.1184 38.5328 30.3955C39.1753 29.6726 40.0166 29.1667 41.6659 29.1667ZM32.2909 47.9167C28.3014 47.9167 24.9993 51.2188 24.9993 55.2083V58.3333C24.9993 61.915 27.5757 64.6053 30.6104 66.2394C33.6452 67.8735 37.4717 68.75 41.6659 68.75C45.8602 68.75 49.6867 67.8735 52.7214 66.2394C55.7562 64.6053 58.3326 61.915 58.3326 58.3333V55.2083C58.3326 51.2188 55.0304 47.9167 51.0409 47.9167H32.2909ZM32.2909 54.1667H51.0409C51.6556 54.1667 52.0826 54.5937 52.0826 55.2083V58.3333C52.0826 58.7787 51.6255 59.7332 49.7592 60.7381C47.8929 61.7431 44.9508 62.5 41.6659 62.5C38.381 62.5 35.439 61.7431 33.5727 60.7381C31.7064 59.7332 31.2493 58.7787 31.2493 58.3333V55.2083C31.2493 54.5937 31.6763 54.1667 32.2909 54.1667Z" fill="currentColor"/>
</symbol><symbol viewBox="0 0 80 80" fill="none" id="support" xmlns="http://www.w3.org/2000/svg">
<path d="M53.107 0C38.7618 0 27.0653 11.6965 27.0653 26.0417C27.0653 28.9725 27.6816 31.7377 28.579 34.3669L3.33893 59.6069H3.33486C-1.11376 64.0555 -1.11083 71.3628 3.33893 75.8097C5.56328 78.0312 8.5115 79.1667 11.4403 79.1667C14.3691 79.1667 17.3174 78.0312 19.5417 75.8097H19.5458L44.7818 50.5697C47.4109 51.4673 50.1782 52.0833 53.1111 52.0833C67.4563 52.0833 79.1527 40.3869 79.1527 26.0417C79.1527 21.8731 78.1414 17.9361 76.4102 14.4572C76.1893 14.0139 75.8661 13.6295 75.4674 13.3356C75.0688 13.0418 74.6059 12.8469 74.1171 12.767C73.6283 12.6871 73.1276 12.7246 72.6561 12.8762C72.1846 13.0279 71.7559 13.2894 71.4053 13.6393L57.0946 27.946C56.2692 28.7714 55.2201 29.1667 54.1487 29.1667C53.0772 29.1667 52.0282 28.7714 51.2027 27.946C49.5507 26.2951 49.5507 23.7089 51.2027 22.0581V22.054L65.5093 7.7474C65.8592 7.39684 66.1208 6.96814 66.2724 6.49665C66.4241 6.02516 66.4615 5.52438 66.3817 5.03558C66.3018 4.54678 66.1069 4.08396 65.813 3.68528C65.5191 3.28659 65.1347 2.96346 64.6915 2.74251C61.2117 1.00855 57.2756 0 53.107 0ZM53.107 6.25C54.6683 6.25 56.1791 6.44065 57.6317 6.78711L46.7837 17.6351C42.74 21.6759 42.74 28.3241 46.7837 32.3649C48.8041 34.3853 51.4868 35.4167 54.1487 35.4167C56.8105 35.4167 59.4932 34.3853 61.5136 32.3649L72.3656 21.5169C72.7119 22.9698 72.9027 24.4804 72.9027 26.0417C72.9027 37.009 64.0784 45.8333 53.1111 45.8333C50.28 45.8333 47.6065 45.2322 45.1684 44.161C44.5921 43.9078 43.9529 43.8345 43.3343 43.9507C42.7158 44.0668 42.1467 44.367 41.7016 44.812L15.1228 71.3908C14.0893 72.4215 12.7769 72.9167 11.4403 72.9167C10.1025 72.9167 8.78777 72.4234 7.7538 71.3908C5.69523 69.3335 5.69815 66.0856 7.75787 64.0259L34.3366 37.4512C34.7816 37.0061 35.0818 36.437 35.198 35.8184C35.3142 35.1998 35.2409 34.5606 34.9877 33.9844C33.9167 31.5467 33.3153 28.8703 33.3153 26.0417C33.3153 15.0744 42.1397 6.25 53.107 6.25Z" fill="currentColor"/>
</symbol><symbol viewBox="0 0 86 78" fill="none" id="terminal" xmlns="http://www.w3.org/2000/svg">
<path d="M3.4095 0.538468C2.58141 0.551404 1.79231 0.892497 1.21553 1.48683C0.638749 2.08115 0.321451 2.88012 0.33333 3.70823V41.2082C0.33333 47.4994 5.50047 52.6666 11.7917 52.6666H14.9167V68.2916C14.9167 73.4322 19.151 77.6666 24.2917 77.6666H51.375C56.5156 77.6666 60.75 73.4322 60.75 68.2916V52.6666H63.875C70.1662 52.6666 75.3333 47.4994 75.3333 41.2082V3.70823C75.3393 3.28996 75.2613 2.87475 75.1039 2.4872C74.9464 2.09965 74.7128 1.74765 74.4168 1.45205C74.1209 1.15646 73.7686 0.923282 73.3808 0.766353C72.9931 0.609424 72.5778 0.531931 72.1595 0.538468C71.3314 0.551405 70.5423 0.892498 69.9655 1.48683C69.3887 2.08116 69.0714 2.88012 69.0833 3.70823V41.2082C69.0833 44.1212 66.788 46.4166 63.875 46.4166H60.75V37.9164C61.4533 37.6765 62.0481 37.194 62.4278 36.5552C62.8075 35.9164 62.9471 35.1633 62.8217 34.4309C62.6963 33.6985 62.314 33.0347 61.7434 32.5586C61.1729 32.0826 60.4514 31.8254 59.7083 31.8332H15.9583C15.2153 31.8254 14.4938 32.0826 13.9232 32.5586C13.3527 33.0347 12.9704 33.6985 12.845 34.4309C12.7195 35.1633 12.8592 35.9164 13.2389 36.5552C13.6185 37.194 14.2134 37.6765 14.9167 37.9164V46.4166H11.7917C8.87869 46.4166 6.58333 44.1212 6.58333 41.2082V3.70823C6.58933 3.28996 6.5113 2.87475 6.35388 2.4872C6.19645 2.09965 5.96283 1.74765 5.66685 1.45205C5.37087 1.15646 5.01857 0.923283 4.63082 0.766353C4.24306 0.609424 3.82775 0.531931 3.4095 0.538468ZM82.5762 0.538468C81.7481 0.551405 80.959 0.892498 80.3822 1.48683C79.8054 2.08116 79.4881 2.88012 79.5 3.70823V43.2916C79.4941 43.7057 79.5706 44.1168 79.7251 44.5011C79.8795 44.8853 80.1087 45.2351 80.3995 45.53C80.6903 45.8249 81.0367 46.0591 81.4188 46.2189C81.8008 46.3788 82.2108 46.4611 82.625 46.4611C83.0391 46.4611 83.4491 46.3788 83.8312 46.2189C84.2132 46.0591 84.5597 45.8249 84.8505 45.53C85.1413 45.2351 85.3705 44.8853 85.5249 44.5011C85.6793 44.1168 85.7558 43.7057 85.75 43.2916V3.70823C85.756 3.28996 85.678 2.87475 85.5205 2.4872C85.3631 2.09965 85.1295 1.74765 84.8335 1.45205C84.5375 1.15646 84.1852 0.923282 83.7975 0.766353C83.4097 0.609424 82.9944 0.531931 82.5762 0.538468ZM21.1667 0.583227C20.0616 0.583227 19.0018 1.02221 18.2204 1.80361C17.439 2.58502 17 3.64482 17 4.74989C17 5.85496 17.439 6.91477 18.2204 7.69617C19.0018 8.47757 20.0616 8.91656 21.1667 8.91656C22.2717 8.91656 23.3315 8.47757 24.1129 7.69617C24.8943 6.91477 25.3333 5.85496 25.3333 4.74989C25.3333 3.64482 24.8943 2.58502 24.1129 1.80361C23.3315 1.02221 22.2717 0.583227 21.1667 0.583227ZM37.8333 0.583227C36.7283 0.583227 35.6684 1.02221 34.887 1.80361C34.1056 2.58502 33.6667 3.64482 33.6667 4.74989C33.6667 5.85496 34.1056 6.91477 34.887 7.69617C35.6684 8.47757 36.7283 8.91656 37.8333 8.91656C38.9384 8.91656 39.9982 8.47757 40.7796 7.69617C41.561 6.91477 42 5.85496 42 4.74989C42 3.64482 41.561 2.58502 40.7796 1.80361C39.9982 1.02221 38.9384 0.583227 37.8333 0.583227ZM54.5 0.583227C53.3949 0.583227 52.3351 1.02221 51.5537 1.80361C50.7723 2.58502 50.3333 3.64482 50.3333 4.74989C50.3333 5.85496 50.7723 6.91477 51.5537 7.69617C52.3351 8.47757 53.3949 8.91656 54.5 8.91656C55.6051 8.91656 56.6649 8.47757 57.4463 7.69617C58.2277 6.91477 58.6667 5.85496 58.6667 4.74989C58.6667 3.64482 58.2277 2.58502 57.4463 1.80361C56.6649 1.02221 55.6051 0.583227 54.5 0.583227ZM21.1667 15.1666C20.0616 15.1666 19.0018 15.6055 18.2204 16.3869C17.439 17.1684 17 18.2282 17 19.3332C17 20.4383 17.439 21.4981 18.2204 22.2795C19.0018 23.0609 20.0616 23.4999 21.1667 23.4999C22.2717 23.4999 23.3315 23.0609 24.1129 22.2795C24.8943 21.4981 25.3333 20.4383 25.3333 19.3332C25.3333 18.2282 24.8943 17.1684 24.1129 16.3869C23.3315 15.6055 22.2717 15.1666 21.1667 15.1666ZM37.8333 15.1666C36.7283 15.1666 35.6684 15.6055 34.887 16.3869C34.1056 17.1684 33.6667 18.2282 33.6667 19.3332C33.6667 20.4383 34.1056 21.4981 34.887 22.2795C35.6684 23.0609 36.7283 23.4999 37.8333 23.4999C38.9384 23.4999 39.9982 23.0609 40.7796 22.2795C41.561 21.4981 42 20.4383 42 19.3332C42 18.2282 41.561 17.1684 40.7796 16.3869C39.9982 15.6055 38.9384 15.1666 37.8333 15.1666ZM54.5 15.1666C53.3949 15.1666 52.3351 15.6055 51.5537 16.3869C50.7723 17.1684 50.3333 18.2282 50.3333 19.3332C50.3333 20.4383 50.7723 21.4981 51.5537 22.2795C52.3351 23.0609 53.3949 23.4999 54.5 23.4999C55.6051 23.4999 56.6649 23.0609 57.4463 22.2795C58.2277 21.4981 58.6667 20.4383 58.6667 19.3332C58.6667 18.2282 58.2277 17.1684 57.4463 16.3869C56.6649 15.6055 55.6051 15.1666 54.5 15.1666ZM21.1667 38.0832H39.9167V71.4166H24.2917C22.5281 71.4166 21.1667 70.0551 21.1667 68.2916V50.0543C21.2218 49.7188 21.2218 49.3765 21.1667 49.0411V38.0832ZM48.25 38.0832H54.5V49.0289C54.4449 49.3643 54.4449 49.7066 54.5 50.042V68.2916C54.5 70.0551 53.1385 71.4166 51.375 71.4166H48.25V38.0832Z" fill="currentColor"/>
</symbol><symbol viewBox="0 0 76 80" fill="none" id="warehouse" xmlns="http://www.w3.org/2000/svg">
<path d="M38 0.449219C35.6069 0.449219 33.2147 1.22766 31.2373 2.78483H31.2332L6.45703 22.3079C2.69891 25.2697 0.5 29.7954 0.5 34.5801V72.2673C0.5 76.2567 3.80218 79.5589 7.79167 79.5589H68.2083C72.1978 79.5589 75.5 76.2567 75.5 72.2673V34.5801C75.5 29.7954 73.3011 25.2697 69.543 22.3079L44.7627 2.78483C42.7853 1.22766 40.3931 0.449219 38 0.449219ZM38 6.68294C39.0204 6.68294 40.0412 7.02205 40.8971 7.69613L65.6774 27.2192C67.9344 28.9992 69.25 31.7075 69.25 34.5801V72.2673C69.25 72.8819 68.823 73.3089 68.2083 73.3089H63V57.7083C63 53.7188 59.6978 50.4167 55.7083 50.4167H52.5833V36.875C52.5833 32.8855 49.2812 29.5833 45.2917 29.5833H30.7083C26.7188 29.5833 23.4167 32.8855 23.4167 36.875V50.4167H20.2917C16.3022 50.4167 13 53.7188 13 57.7083V73.3089H7.79167C7.17699 73.3089 6.75 72.8819 6.75 72.2673V34.5801C6.75 31.7064 8.06404 28.9951 10.3226 27.2152L35.1029 7.69613C35.9588 7.02205 36.9796 6.68294 38 6.68294ZM30.7083 35.8333H45.2917C45.9063 35.8333 46.3333 36.2603 46.3333 36.875V50.4167H29.6667V36.875C29.6667 36.2603 30.0937 35.8333 30.7083 35.8333ZM20.2917 56.6667H34.875V73.3089H19.25V57.7083C19.25 57.0937 19.677 56.6667 20.2917 56.6667ZM41.125 56.6667H55.7083C56.323 56.6667 56.75 57.0937 56.75 57.7083V73.3089H41.125V56.6667Z" fill="currentColor"/>
</symbol></svg>