<svg width="16" height="16" viewBox="0 0 16 16" fill="none" xmlns="http://www.w3.org/2000/svg">
<rect width="16" height="16" rx="8" fill="#D93B33"/>
<mask id="mask0_4085_664" style="mask-type:luminance" maskUnits="userSpaceOnUse" x="1" y="1" width="14" height="14">
<path d="M8 14C8.78808 14.001 9.56859 13.8463 10.2967 13.5447C11.0248 13.2431 11.6861 12.8006 12.2426 12.2426C12.8006 11.6861 13.2431 11.0248 13.5447 10.2967C13.8463 9.56859 14.001 8.78808 14 8C14.001 7.21192 13.8463 6.43142 13.5447 5.70333C13.2431 4.97524 12.8006 4.31393 12.2426 3.7574C11.6861 3.19941 11.0248 2.7569 10.2967 2.45531C9.56859 2.15372 8.78808 1.99898 8 2.00001C7.21192 1.999 6.43142 2.15374 5.70333 2.45533C4.97524 2.75693 4.31393 3.19943 3.7574 3.7574C3.19943 4.31393 2.75693 4.97524 2.45533 5.70333C2.15374 6.43142 1.999 7.21192 2.00001 8C1.99898 8.78808 2.15372 9.56859 2.45531 10.2967C2.7569 11.0248 3.19941 11.6861 3.7574 12.2426C4.31393 12.8006 4.97524 13.2431 5.70333 13.5447C6.43142 13.8463 7.21192 14.001 8 14Z" fill="#FBE4E3" stroke="#FBE4E3" stroke-linejoin="round"/>
<path fill-rule="evenodd" clip-rule="evenodd" d="M8 11.8999C8.19891 11.8999 8.38968 11.8209 8.53033 11.6802C8.67098 11.5396 8.75 11.3488 8.75 11.1499C8.75 10.951 8.67098 10.7602 8.53033 10.6196C8.38968 10.4789 8.19891 10.3999 8 10.3999C7.80109 10.3999 7.61032 10.4789 7.46967 10.6196C7.32902 10.7602 7.25 10.951 7.25 11.1499C7.25 11.3488 7.32902 11.5396 7.46967 11.6802C7.61032 11.8209 7.80109 11.8999 8 11.8999Z" fill="black"/>
<path d="M8 4.3999V9.1999" stroke="black" stroke-linecap="round" stroke-linejoin="round"/>
</mask>
<g mask="url(#mask0_4085_664)">
<path d="M0.799805 0.800049H15.1998V15.2H0.799805V0.800049Z" fill="white"/>
</g>
</svg>
