<svg width="28" height="28" viewBox="0 0 28 28" fill="none" xmlns="http://www.w3.org/2000/svg">
<path d="M14 0C21.7324 0 28 6.26763 28 14C28 21.7324 21.7324 28 14 28C6.26763 28 0 21.7324 0 14C0 6.26763 6.26763 0 14 0ZM16.7064 6.125H14.6064L14.5574 6.1985L12.5921 9.6005L10.5779 13.0883L8.57675 16.5638L6.5625 20.0515H8.96875L10.9839 16.5638L12.9973 13.0883L14.9993 9.6005L15.3317 9.0475L15.4779 9.6005L16.0921 11.8965L15.4044 13.0883L13.391 16.5638L11.389 20.0515H13.7952L15.8095 16.5638L16.8534 14.7586L17.3451 16.5638L18.2779 20.0515H20.4391L19.5064 16.5638L18.5727 13.0883L18.3277 12.1914L19.8258 9.6005H17.64L17.5656 9.34238L16.8044 6.49338L16.7064 6.125Z" fill="#330663"/>
</svg>
