<svg width="32" height="32" viewBox="0 0 32 32" fill="none" xmlns="http://www.w3.org/2000/svg">
<rect width="32" height="32" rx="16" fill="#330663"/>
<path d="M23 17.5887L16 28.0001V22.1327L23 17.5887ZM19.29 21.2483L17.0429 22.7024V24.5846L19.29 21.2483Z" fill="#5A9DED"/>
<path d="M9 17.5887L16 28.0001V22.1327L9 17.5887ZM12.71 21.2483L14.9571 22.7024V24.5846L12.71 21.2483Z" fill="#53D3E0"/>
<path d="M16.8877 12.8287L21.5238 15.4838L21.6881 16.0004L21.1361 16.4959L16.8877 14.0578V12.8287Z" fill="#D995D1"/>
<path d="M15.1154 12.8287L10.4793 15.4838L10.3149 16.0004L10.867 16.4959L15.1154 14.0578V12.8287Z" fill="#A6E276"/>
<path d="M16 4.00012L23 16.3265L16 20.8592V4.00012ZM17.0338 7.95422V18.9596L21.6069 16.0001L17.0338 7.95422Z" fill="#FF9C92"/>
<path d="M16 4.00012L9 16.3265L16 20.8592V4.00012ZM14.9662 7.95422V18.9596L10.3931 16.0001L14.9662 7.95422Z" fill="#FFE94D"/>
</svg>
