<svg width="32" height="32" viewBox="0 0 32 32" fill="none" xmlns="http://www.w3.org/2000/svg">
<mask id="mask0_4124_5556" style="mask-type:luminance" maskUnits="userSpaceOnUse" x="0" y="0" width="32" height="32">
<path d="M16 32C24.8366 32 32 24.8366 32 16C32 7.16344 24.8366 0 16 0C7.16344 0 0 7.16344 0 16C0 24.8366 7.16344 32 16 32Z" fill="white"/>
</mask>
<g mask="url(#mask0_4124_5556)">
<path d="M0 0H32V32H0V0Z" fill="#0052B4"/>
<path d="M16 6.2627L16.5187 7.85645H18.1874L16.8312 8.8377L17.35 10.4377L15.9937 9.4502L14.6375 10.4377L15.1562 8.8377L13.8 7.85645H15.475L16 6.2627ZM9.11245 9.1127L10.6125 9.8752L11.7937 8.6877L11.5312 10.3439L13.025 11.1064L11.3687 11.3689L11.1062 13.0252L10.3437 11.5252L8.68745 11.7939L9.87495 10.6064L9.11245 9.1127ZM6.26245 16.0002L7.8562 15.4814V13.8127L8.83745 15.1689L10.4375 14.6502L9.44995 16.0064L10.4375 17.3627L8.83745 16.8439L7.8562 18.2002V16.5252L6.26245 16.0002ZM9.11245 22.8877L9.87495 21.3877L8.68745 20.2064L10.3437 20.4689L11.1062 18.9752L11.3687 20.6314L13.025 20.8939L11.525 21.6564L11.7937 23.3127L10.6062 22.1252L9.11245 22.8877ZM16 25.7377L15.4812 24.1439H13.8125L15.1687 23.1627L14.6499 21.5627L16.0062 22.5502L17.3624 21.5627L16.8437 23.1627L18.2 24.1439H16.5249L16 25.7377ZM22.8874 22.8877L21.3875 22.1252L20.2062 23.3127L20.4687 21.6564L18.975 20.8939L20.6312 20.6314L20.8937 18.9752L21.6562 20.4752L23.3124 20.2064L22.1249 21.3939L22.8874 22.8877ZM25.7374 16.0002L24.1437 16.5189V18.1877L23.1625 16.8314L21.5624 17.3502L22.5499 15.9939L21.5624 14.6377L23.1625 15.1564L24.1437 13.8002V15.4752L25.7374 16.0002ZM22.8874 9.1127L22.1249 10.6127L23.3124 11.7939L21.6562 11.5314L20.8937 13.0252L20.6312 11.3689L18.975 11.1064L20.475 10.3439L20.2062 8.6877L21.3937 9.8752L22.8874 9.1127Z" fill="#FFE94D"/>
</g>
</svg>
