<svg width="36" height="32" viewBox="0 0 36 32" fill="none" xmlns="http://www.w3.org/2000/svg">
<path d="M25.4927 1.45959C25.4927 1.07248 25.3662 0.701227 25.1411 0.427502C24.9159 0.153776 24.6105 0 24.2921 0H13.2467C11.0186 0.0030899 8.88247 1.08053 7.30695 2.99594C5.73142 4.91135 4.84518 7.50832 4.84263 10.2171V18.6273L2.05127 15.2337C1.82615 14.9596 1.5207 14.8055 1.2021 14.8052C0.883511 14.805 0.577878 14.9586 0.35244 15.2323C0.127002 15.5059 0.000225454 15.8773 3.00413e-07 16.2646C-0.000224853 16.6519 0.126119 17.0235 0.351239 17.2976L5.1896 23.1783C5.30111 23.314 5.43352 23.4216 5.57927 23.4951C5.72501 23.5685 5.88124 23.6063 6.03902 23.6063C6.19679 23.6063 6.35302 23.5685 6.49877 23.4951C6.64452 23.4216 6.77693 23.314 6.88843 23.1783L11.7244 17.2976C11.8391 17.1629 11.9305 17.0019 11.9934 16.8238C12.0564 16.6457 12.0895 16.4542 12.0909 16.2604C12.0923 16.0666 12.0619 15.8744 12.0015 15.695C11.9412 15.5156 11.852 15.3527 11.7393 15.2156C11.6266 15.0786 11.4925 14.9702 11.345 14.8968C11.1974 14.8234 11.0393 14.7865 10.8799 14.7882C10.7205 14.7899 10.5629 14.8301 10.4165 14.9066C10.27 14.9831 10.1375 15.0943 10.0268 15.2337L7.24021 18.6273V10.2215C7.24211 8.28667 7.87517 6.43176 9.00053 5.06363C10.1259 3.6955 11.6516 2.92587 13.2431 2.92355H24.2885C24.4468 2.92413 24.6036 2.88666 24.7499 2.81329C24.8962 2.73993 25.0292 2.63211 25.1411 2.49606C25.253 2.36 25.3417 2.19839 25.402 2.02051C25.4624 1.84263 25.4932 1.652 25.4927 1.45959ZM35.6485 16.7663C35.4233 17.0399 35.118 17.1936 34.7997 17.1936C34.4813 17.1936 34.176 17.0399 33.9509 16.7663L31.1607 13.3727V21.7829C31.1581 24.4917 30.2719 27.0887 28.6964 29.0041C27.1209 30.9195 24.9847 31.9969 22.7566 32H11.7112C11.3928 32 11.0874 31.8462 10.8622 31.5725C10.6371 31.2988 10.5106 30.9275 10.5106 30.5404C10.5106 30.1533 10.6371 29.7821 10.8622 29.5083C11.0874 29.2346 11.3928 29.0808 11.7112 29.0808H22.7566C24.3481 29.0785 25.8738 28.3089 26.9992 26.9407C28.1245 25.5726 28.7576 23.7177 28.7595 21.7829V13.3727L25.973 16.7619C25.8622 16.9013 25.7297 17.0125 25.5833 17.089C25.4368 17.1655 25.2792 17.2058 25.1198 17.2074C24.9604 17.2091 24.8023 17.1722 24.6548 17.0988C24.5072 17.0254 24.3732 16.917 24.2604 16.78C24.1477 16.643 24.0586 16.48 23.9982 16.3006C23.9378 16.1212 23.9075 15.929 23.9088 15.7352C23.9102 15.5414 23.9434 15.3499 24.0063 15.1718C24.0692 14.9937 24.1607 14.8327 24.2753 14.698L29.1113 8.81737C29.2228 8.68166 29.3552 8.574 29.501 8.50055C29.6467 8.4271 29.8029 8.38929 29.9607 8.38929C30.1185 8.38929 30.2747 8.4271 30.4205 8.50055C30.5662 8.574 30.6986 8.68166 30.8101 8.81737L35.6485 14.7024C35.8736 14.9761 36 15.3473 36 15.7344C36 16.1214 35.8736 16.4926 35.6485 16.7663Z" fill="#9A85B5"/>
</svg>
