<svg width="32" height="32" viewBox="0 0 32 32" fill="none" xmlns="http://www.w3.org/2000/svg">
<mask id="mask0_4124_5563" style="mask-type:alpha" maskUnits="userSpaceOnUse" x="0" y="0" width="32" height="32">
<circle cx="16" cy="16" r="16" fill="#D9D9D9"/>
</mask>
<g mask="url(#mask0_4124_5563)">
<path d="M-2 0H30V32H-2V0Z" fill="#0052B4"/>
<path d="M32.8653 -1.02952C21.6241 -4.69343 10.3829 3.46397 -0.865309 -0.209826C-1.49256 -0.407341 -2 0.0963236 -2 0.975268V32.0247C-2 32.9037 -1.49256 33.8221 -0.865309 34.0295C10.3759 37.6934 21.6171 29.536 32.8653 33.2098C33.4926 33.4172 34 32.9136 34 32.0346V0.985144C34 0.0963234 33.4926 -0.822125 32.8653 -1.02952Z" fill="#0052B4"/>
<path d="M34 1.31852C34 0.458736 33.4926 -0.439691 32.8653 -0.642562C32.7948 -0.661883 32.7173 -0.690864 32.6468 -0.710185L20.1229 9.74248V-1C17.3743 -0.545956 14.6257 0.0723154 11.8771 0.526359V9.62655L1.1715 0.690588C0.49491 0.555341 -0.181676 0.381452 -0.865309 0.15926C-1.49256 -0.0339497 -2 0.458736 -2 1.31852V3.3279L7.02114 10.8534H-2V22.1562H7.43696L-2 30.0295V31.6911C-2 32.5509 -1.49256 33.4494 -0.865309 33.6522C-0.653876 33.7198 -0.442443 33.7778 -0.238058 33.8358L11.87 23.7212V34C14.6186 33.546 17.3673 32.9277 20.1159 32.4736V23.5956L30.4691 32.2515C31.2655 32.3964 32.0619 32.5896 32.8583 32.8504C33.4855 33.0533 33.993 32.5606 33.993 31.7008V29.9233L24.6969 22.1659H33.993V10.8631H25.1128L33.993 3.45349C34 2.72895 34 2.02374 34 1.31852Z" fill="#D93B33"/>
<path d="M27.1002 23.35L34 29.3982V31.7729L24.3939 23.35H20.7784L32.3579 33.5082C31.1879 33.153 30.011 32.9298 28.841 32.7979L20.7572 25.7145V33.1835C20.3344 33.2545 19.9115 33.3256 19.4886 33.4068V21.5335H34V23.3601H27.1002V23.35ZM11.2428 35C11.6656 34.929 12.0885 34.8579 12.5114 34.7767V21.5233H-2V23.35H5.04072L-2 29.52V31.8947L7.74706 23.35H11.2428V23.4515L-1.17541 34.3404C-1.07674 34.4114 -0.971026 34.4723 -0.865309 34.5129C-0.308535 34.6956 0.248238 34.8579 0.805012 34.9899L11.2428 25.8363V35ZM-2 9.65003V11.4767H12.5114V-0.396599C12.0885 -0.315414 11.6656 -0.244377 11.2428 -0.173341V7.53922L2.84182 0.171695C1.6296 0.0194736 0.417385 -0.234229 -0.794832 -0.640153L10.9397 9.65003H7.3242L-2 1.47065V3.84531L4.6249 9.65003H-2ZM20.7572 -2C20.3344 -1.92896 19.9115 -1.85793 19.4886 -1.77674V11.4767H34V9.65003H27.5161L34 3.96709V1.59243L24.8097 9.65003H21.1942L33.4362 -1.08667C33.267 -1.28963 33.0767 -1.44185 32.8653 -1.51289C32.4495 -1.65496 32.0407 -1.76659 31.6249 -1.87822L20.7572 7.65085V-2Z" fill="white"/>
</g>
</svg>
