<svg width="32" height="32" viewBox="0 0 32 32" fill="none" xmlns="http://www.w3.org/2000/svg">
<path d="M16 30C23.732 30 30 23.732 30 16C30 8.26801 23.732 2 16 2C8.26801 2 2 8.26801 2 16C2 23.732 8.26801 30 16 30Z" fill="#FF0000"/>
<path d="M21.1905 10.6737L8.5625 8.34973L15.2081 25.0727L24.4682 13.7905L21.1905 10.6737ZM20.9875 11.6975L22.9195 13.5341L17.6363 14.4905L20.9875 11.6975ZM16.4883 14.2989L10.9198 9.68061L20.0215 11.3554L16.4883 14.2989ZM16.0919 15.1161L15.1836 22.6236L10.288 10.301L16.0919 15.1161ZM16.9319 15.5142L22.783 14.4555L16.0718 22.6306L16.9319 15.5142Z" fill="white"/>
</svg>
