<svg width="526" height="544" viewBox="0 0 526 544" fill="none" xmlns="http://www.w3.org/2000/svg">
<path d="M62.7036 349.032L62.5226 340.907C62.4654 338.227 62.3794 335.573 62.3559 332.931L62.7036 333.279C56.3608 333.345 50.0185 333.482 43.6767 333.488L24.6502 333.567L25.2856 332.931L25.2175 349.032L24.6502 348.465C27.789 348.487 30.9214 348.475 34.0687 348.535L43.5299 348.678L62.7036 349.032ZM62.7036 349.032L43.8233 349.388L34.2586 349.531C31.0631 349.592 27.8531 349.579 24.6502 349.601L24.0849 349.604L24.0824 349.032L24.0143 332.931L24.0117 332.291L24.6502 332.294L43.6767 332.375C50.0185 332.382 56.3608 332.518 62.7036 332.583L63.0541 332.587L63.0505 332.931C63.0267 335.658 62.9412 338.371 62.884 341.056L62.7036 349.032Z" fill="#646468"/>
<path d="M41.4769 369.336L41.296 361.211C41.2387 358.529 41.1533 355.876 41.1294 353.235L41.4769 353.583C35.1346 353.648 28.7923 353.785 22.45 353.792L3.42356 353.871L4.05948 353.235L3.99088 369.336L3.42356 368.769C6.56339 368.79 9.69527 368.778 12.8426 368.838L22.3033 368.98L41.4769 369.336ZM41.4769 369.336L22.5966 369.692L13.032 369.834C9.83697 369.894 6.62654 369.883 3.42356 369.904L2.85874 369.908L2.85626 369.336L2.78764 353.235L2.78516 352.596L3.42356 352.599L22.45 352.678C28.7923 352.684 35.1346 352.822 41.4769 352.888L41.8274 352.891L41.8245 353.235C41.8005 355.962 41.7151 358.674 41.6579 361.361L41.4769 369.336Z" fill="#646468"/>
<path d="M41.4769 20.9267L41.296 12.8015C41.2387 10.1212 41.1533 7.46631 41.1294 4.82546L41.4769 5.17341C35.1346 5.23841 28.7923 5.37608 22.45 5.38245L3.42356 5.46273L4.05948 4.82546L3.99088 20.9267L3.42356 20.3595C6.56339 20.3812 9.69527 20.3698 12.8426 20.4297L22.3033 20.5724L41.4769 20.9267ZM41.4769 20.9267L22.5966 21.2823L13.032 21.4251C9.83697 21.485 6.62654 21.4735 3.42356 21.4952L2.85874 21.499L2.85626 20.9267L2.78764 4.82546L2.78516 4.18695L3.42356 4.1895L22.45 4.26978C28.7923 4.27615 35.1346 4.41252 41.4769 4.47752L41.8274 4.48137L41.8245 4.82546C41.8005 7.55298 41.7151 10.2652 41.6579 12.952L41.4769 20.9267Z" fill="#646468"/>
<path d="M522.58 20.9267L522.4 12.8015C522.342 10.1212 522.257 7.46631 522.233 4.82546L522.58 5.17341C516.238 5.23841 509.897 5.37608 503.554 5.38245L484.528 5.46273L485.163 4.82546L485.094 20.9267L484.528 20.3595C487.666 20.3812 490.799 20.3698 493.945 20.4297L503.406 20.5724L522.58 20.9267ZM522.58 20.9267L503.7 21.2823L494.135 21.4251C490.94 21.485 487.73 21.4735 484.528 21.4952L483.963 21.499L483.96 20.9267L483.891 4.82546L483.889 4.18695L484.528 4.1895L503.554 4.26978C509.897 4.27615 516.238 4.41252 522.58 4.47752L522.93 4.48137L522.928 4.82546C522.904 7.55298 522.818 10.2652 522.761 12.952L522.58 20.9267Z" fill="#646468"/>
<path d="M501.353 41.2308L501.172 33.1043C501.114 30.424 501.03 27.7691 501.006 25.1282L501.353 25.4762C495.011 25.5412 488.668 25.6788 482.327 25.6852L463.299 25.7655L463.934 25.1282L463.868 41.2295L463.299 40.6623C466.439 40.684 469.572 40.6725 472.718 40.7312L482.179 40.8752L501.353 41.2308ZM501.353 41.2308L482.473 41.5851L472.908 41.7278C469.712 41.7877 466.503 41.775 463.299 41.7979L462.735 41.8018L462.733 41.2295L462.664 25.1282L462.66 24.4884L463.299 24.4922L482.327 24.5725C488.668 24.5789 495.011 24.7153 501.353 24.7803L501.703 24.7841L501.699 25.1282C501.676 27.8545 501.591 30.568 501.533 33.2547L501.353 41.2308Z" fill="#646468"/>
<path d="M403.894 229.6L403.714 221.474C403.657 218.793 403.572 216.139 403.547 213.498L403.894 213.846C397.552 213.911 391.211 214.048 384.867 214.054L365.841 214.134L366.477 213.498L366.408 229.6L365.841 229.031C368.981 229.054 372.113 229.041 375.26 229.101L384.721 229.244L403.894 229.6ZM403.894 229.6L385.015 229.955L375.449 230.098C372.255 230.158 369.045 230.145 365.841 230.168L365.277 230.172L365.274 229.6L365.206 213.498L365.203 212.859L365.841 212.861L384.867 212.941C391.211 212.948 397.552 213.085 403.894 213.15L404.245 213.154L404.242 213.498C404.217 216.225 404.133 218.938 404.076 221.624L403.894 229.6Z" fill="#E7E8E5"/>
<path d="M382.668 249.902L382.486 241.776C382.428 239.096 382.344 236.442 382.319 233.801L382.668 234.148C376.324 234.214 369.982 234.35 363.64 234.357L344.614 234.437L345.249 233.801L345.18 249.902L344.614 249.334C347.754 249.357 350.885 249.344 354.033 249.404L363.494 249.547L382.668 249.902ZM382.668 249.902L363.788 250.258L354.222 250.399C351.026 250.461 347.817 250.448 344.614 250.471L344.05 250.475L344.047 249.902L343.978 233.801L343.975 233.161L344.614 233.164L363.64 233.244C369.982 233.25 376.324 233.388 382.668 233.453L383.018 233.456L383.014 233.801C382.991 236.527 382.904 239.241 382.847 241.926L382.668 249.902Z" fill="#E7E8E5"/>
<path d="M361.524 229.6L361.343 221.474C361.286 218.793 361.199 216.139 361.176 213.498L361.524 213.846C355.181 213.911 348.84 214.048 342.497 214.054L323.471 214.134L324.106 213.498L324.037 229.6L323.471 229.031C326.61 229.054 329.742 229.041 332.889 229.101L342.351 229.244L361.524 229.6ZM361.524 229.6L342.644 229.955L333.08 230.098C329.884 230.158 326.672 230.145 323.471 230.168L322.906 230.172L322.903 229.6L322.835 213.498L322.832 212.859L323.471 212.861L342.497 212.941C348.84 212.948 355.181 213.085 361.524 213.15L361.875 213.154L361.871 213.498C361.847 216.225 361.762 218.938 361.704 221.624L361.524 229.6Z" fill="#E7E8E5"/>
<path d="M522.58 369.336L522.4 361.211C522.342 358.529 522.257 355.876 522.233 353.235L522.58 353.583C516.238 353.648 509.897 353.785 503.553 353.792L484.528 353.871L485.163 353.235L485.094 369.336L484.528 368.769C487.666 368.79 490.799 368.778 493.945 368.838L503.406 368.98L522.58 369.336ZM522.58 369.336L503.7 369.692L494.135 369.834C490.94 369.894 487.73 369.883 484.528 369.904L483.963 369.908L483.96 369.336L483.891 353.235L483.889 352.596L484.528 352.599L503.553 352.678C509.897 352.684 516.238 352.822 522.58 352.888L522.93 352.891L522.928 353.235C522.904 355.962 522.818 358.674 522.761 361.361L522.58 369.336Z" fill="#646468"/>
<path d="M199.266 68.8089L199.085 60.6824C199.028 58.0021 198.943 55.3472 198.918 52.7064L199.266 53.0543C192.923 53.1206 186.581 53.257 180.24 53.2633L161.213 53.3437L161.848 52.7064L161.78 68.8089L161.213 68.2405C164.352 68.2621 167.484 68.2507 170.631 68.3106L180.092 68.4533L199.266 68.8089ZM199.266 68.8089L180.386 69.1645L170.821 69.3073C167.626 69.3672 164.416 69.3544 161.213 69.3774L160.648 69.3799L160.645 68.8089L160.577 52.7064L160.574 52.0678L161.213 52.0704L180.24 52.1507C186.581 52.157 192.923 52.2947 199.266 52.3597L199.616 52.3623L199.613 52.7064C199.589 55.4339 199.504 58.1474 199.447 60.8328L199.266 68.8089Z" fill="#646468"/>
<path d="M471.457 166.492C465.792 169.536 458.739 167.404 455.702 161.729C452.663 156.055 454.784 148.984 460.452 145.94C466.119 142.898 473.186 145.034 476.225 150.708C479.264 156.383 477.127 163.449 471.457 166.492ZM483.49 175.475L490.981 163.38L487.283 161.084C486.194 160.409 485.605 159.178 485.714 157.901C485.774 157.196 485.797 156.485 485.781 155.772C485.753 154.495 486.42 153.306 487.545 152.702L491.38 150.642L484.659 138.094L480.824 140.153C479.699 140.757 478.341 140.655 477.293 139.924C476.709 139.518 476.107 139.143 475.486 138.804C474.363 138.189 473.664 137.015 473.705 135.734L473.843 131.379L459.634 130.935L459.503 135.308C459.465 136.59 458.679 137.705 457.521 138.252C457.207 138.4 456.896 138.558 456.587 138.724C456.279 138.89 455.975 139.063 455.678 139.243C454.587 139.903 453.232 139.941 452.148 139.269L448.422 136.957L440.928 149.054L444.635 151.357C445.723 152.034 446.311 153.266 446.2 154.543C446.139 155.247 446.115 155.953 446.13 156.663C446.157 157.939 445.49 159.128 444.366 159.731L440.531 161.79L447.252 174.34L451.088 172.279C452.211 171.676 453.569 171.776 454.615 172.505C455.197 172.91 455.799 173.282 456.418 173.619C457.541 174.234 458.242 175.408 458.201 176.689L458.067 181.055L472.276 181.496L472.411 177.13C472.451 175.851 473.233 174.74 474.387 174.194C474.703 174.045 475.016 173.886 475.328 173.719C475.639 173.553 475.942 173.38 476.238 173.2C477.335 172.537 478.697 172.499 479.786 173.176L483.49 175.475Z" fill="#303439"/>
<path d="M61.9938 303.553C56.3267 306.597 49.2748 304.466 46.2365 298.792C43.1976 293.118 45.3201 286.046 50.9872 283.003C56.6544 279.96 63.7205 282.097 66.7599 287.771C69.7988 293.445 67.6605 300.511 61.9938 303.553ZM74.0242 312.536L81.5175 300.441L77.8177 298.146C76.7294 297.471 76.1397 296.239 76.2491 294.962C76.3093 294.257 76.3317 293.547 76.3161 292.835C76.2884 291.556 76.9551 290.367 78.0798 289.763L81.9147 287.705L75.1935 275.155L71.3596 277.214C70.2344 277.819 68.876 277.717 67.829 276.987C67.2453 276.579 66.6417 276.206 66.0212 275.867C64.8984 275.25 64.1999 274.077 64.2401 272.796L64.3783 268.44L50.1694 267.998L50.0386 272.369C49.9999 273.652 49.2148 274.768 48.0573 275.315C47.7425 275.463 47.4313 275.619 47.1225 275.786C46.8132 275.952 46.51 276.125 46.2132 276.305C45.1217 276.964 43.7669 277.004 42.6835 276.331L38.957 274.02L31.4637 286.117L35.1703 288.42C36.2577 289.095 36.8464 290.329 36.7355 291.606C36.6748 292.308 36.6514 293.016 36.6664 293.725C36.6922 295.003 36.0259 296.189 34.9022 296.793L31.0664 298.853L37.7865 311.401L41.6234 309.341C42.7461 308.738 44.1034 308.839 45.1511 309.567C45.7328 309.972 46.3345 310.344 46.9524 310.682C48.0761 311.296 48.7761 312.47 48.7369 313.751L48.6027 318.116L62.8107 318.559L62.9464 314.191C62.9862 312.912 63.7683 311.802 64.9229 311.256C65.2385 311.106 65.5523 310.948 65.8645 310.78C66.1733 310.616 66.4766 310.442 66.7745 310.261C67.8707 309.599 69.232 309.56 70.321 310.237L74.0242 312.536Z" fill="#303439"/>
<path d="M210.037 85.3236C210.037 89.8354 206.387 93.4883 201.883 93.4883C197.377 93.4883 193.72 89.8354 193.72 85.3236C193.72 80.813 197.377 77.1512 201.883 77.1512C206.387 77.1512 210.037 80.813 210.037 85.3236ZM219.557 80.8614L214.581 72.2238L211.941 73.7507C211.164 74.2007 210.21 74.1573 209.459 73.6666C209.044 73.3964 208.614 73.1466 208.169 72.921C207.371 72.5157 206.86 71.7089 206.86 70.8129V67.7617H196.897V70.8129C196.897 71.7089 196.385 72.5157 195.589 72.921C195.144 73.1466 194.713 73.3964 194.298 73.6666C193.547 74.1573 192.592 74.2007 191.816 73.7507L189.176 72.2238L184.199 80.8614L186.851 82.3908C187.628 82.8382 188.056 83.6934 188.01 84.5907C187.997 84.8329 187.991 85.0789 187.991 85.3236C187.991 85.5695 187.997 85.8143 188.01 86.0577C188.056 86.9512 187.631 87.8013 186.858 88.2486L184.199 89.787L189.176 98.4246L191.824 96.8964C192.6 96.4477 193.555 96.4911 194.306 96.983C194.719 97.2532 195.148 97.5018 195.59 97.7274C196.385 98.134 196.897 98.9395 196.897 99.8342V102.887H206.86V99.8342C206.86 98.9395 207.371 98.134 208.167 97.7274C208.61 97.5018 209.037 97.2532 209.451 96.983C210.202 96.4923 211.157 96.4477 211.933 96.8964L214.581 98.4246L219.557 89.787L216.91 88.2563C216.135 87.8102 215.71 86.9588 215.754 86.0641C215.767 85.8194 215.773 85.5721 215.773 85.3236C215.773 85.0789 215.767 84.8329 215.754 84.5907C215.708 83.6934 216.136 82.8382 216.914 82.3883L219.557 80.8614Z" fill="#646468"/>
<path d="M57.8655 332.075C41.2316 348.381 38.4393 373.609 41.9451 395.706C42.0361 396.208 42.8102 396.071 42.8102 395.599C42.8102 390.57 42.6581 385.585 42.6735 380.614C42.7645 380.387 42.84 380.175 42.9315 379.946C47.2721 376.786 51.2636 373.214 53.7378 368.32C56.5146 362.85 57.6069 356.68 59.7319 350.966C59.9299 350.418 59.3477 350.578 58.9658 350.861C48.8478 358.333 45.6229 366.375 42.7187 377.12C42.855 371.542 43.28 365.965 44.4793 360.387C46.665 350.19 50.9907 340.084 58.3055 332.516C58.579 332.228 58.1539 331.787 57.8655 332.075Z" fill="#646468"/>
<path d="M60.9901 333.976C63.8514 334.073 65.6459 338.654 67.8757 339.988C69.0552 340.701 70.2041 340.657 71.0335 339.492C73.2436 336.403 70.2112 332.593 67.3603 330.462C69.3992 331.301 71.0907 332.777 73.2889 333.195C74.6204 333.44 75.6551 332.945 75.9658 331.59C76.9348 327.379 71.66 325.506 68.0408 325.418C69.7954 324.197 74.8242 320.875 72.1527 319.244C69.4454 317.605 63.5452 322.352 61.62 323.915C58.7919 326.213 55.4179 329.648 55.2906 333.242C55.1251 337.438 58.7879 334.856 60.9901 333.976Z" fill="#FFD326"/>
<path d="M69.3476 340.459C68.8778 340.459 68.3795 340.293 67.8758 339.989C66.2232 339 64.8102 336.228 63.0241 334.819C62.8128 334.652 62.5966 334.504 62.3733 334.382C61.9388 334.141 61.4798 333.993 60.9901 333.977C59.7123 334.486 57.9422 335.571 56.7142 335.571C56.3761 335.571 56.0788 335.488 55.8441 335.289C55.6685 335.14 55.5284 334.926 55.4324 334.632C55.3365 334.339 55.2848 333.968 55.2852 333.503C55.2852 333.418 55.2872 333.333 55.2906 333.243C55.4179 329.648 58.792 326.213 61.6201 323.915C63.2683 322.577 67.8306 318.905 70.8079 318.905C71.3075 318.905 71.7634 319.008 72.1528 319.244C72.6953 319.576 72.9204 319.977 72.9194 320.416C72.916 322.139 69.4391 324.444 68.0409 325.418C71.3633 325.498 76.0801 327.084 76.0827 330.6C76.0827 330.915 76.0454 331.245 75.9658 331.591C75.7058 332.725 74.9387 333.255 73.9144 333.255C73.715 333.255 73.5062 333.236 73.2889 333.195C71.0907 332.777 69.3993 331.301 67.3603 330.463C69.5266 332.081 71.7973 334.67 71.7939 337.174C71.7928 337.967 71.5646 338.751 71.0336 339.493C70.5583 340.161 69.9785 340.459 69.3476 340.459Z" fill="#F4AC12"/>
<path d="M60.1628 334.682C63.8211 333.018 70.8501 335.415 71.4477 334.029C72.66 331.205 67.0426 329.269 64.0111 328.895C66.8034 328.138 72.1533 326.929 71.9882 324.234C71.7878 320.942 63.7828 323.774 59.7311 326.883C54.6269 330.803 54.6603 334.584 55.5044 335.341C56.6614 336.38 59.5592 334.958 60.1628 334.682Z" fill="#FFD326"/>
<path d="M19.9821 330.461C37.2231 346.123 40.9719 371.225 38.308 393.44C38.2364 393.944 37.4578 393.837 37.4394 393.366C37.248 388.339 37.2107 383.353 37.0068 378.387C36.9069 378.164 36.8229 377.955 36.7235 377.729C32.266 374.735 28.1417 371.318 25.4837 366.523C22.5004 361.162 21.1744 355.038 18.8341 349.409C18.6163 348.87 19.204 349.008 19.5963 349.276C29.9908 356.356 33.519 364.27 36.8289 374.896C36.4797 369.328 35.8433 363.771 34.4338 358.244C31.8628 348.137 27.1562 338.203 19.559 330.918C19.2747 330.64 19.6829 330.184 19.9821 330.461Z" fill="#646468"/>
<path d="M16.9319 332.48C14.076 332.685 12.4571 337.331 10.2793 338.75C9.1273 339.505 7.97778 339.505 7.10469 338.374C4.77878 335.372 7.66404 331.449 10.432 329.21C8.42625 330.127 6.79245 331.665 4.61172 332.167C3.29016 332.462 2.23807 332.008 1.87562 330.665C0.747959 326.494 5.94721 324.422 9.55988 324.195C7.761 323.04 2.60998 319.915 5.21682 318.182C7.86044 316.442 13.9367 320.96 15.9191 322.45C18.8337 324.639 22.3345 327.941 22.5985 331.529C22.9237 335.716 19.1653 333.275 16.9319 332.48Z" fill="#FFD326"/>
<path d="M8.75117 339.277C8.14906 339.277 7.58473 338.997 7.10444 338.375C6.50482 337.601 6.25125 336.765 6.25323 335.914C6.25821 333.462 8.37728 330.873 10.4317 329.211C8.426 330.127 6.7922 331.666 4.61148 332.168C4.35592 332.224 4.1103 332.253 3.87809 332.253C2.90906 332.253 2.16772 331.749 1.87537 330.665C1.76847 330.27 1.71875 329.894 1.71875 329.536C1.71825 326.119 6.28904 324.401 9.55963 324.196C8.11178 323.267 4.49364 321.062 4.49413 319.332C4.49413 318.913 4.70743 318.521 5.21657 318.182C5.63272 317.908 6.1339 317.79 6.69077 317.79C9.6715 317.79 14.2483 321.195 15.9189 322.451C18.8334 324.639 22.3343 327.942 22.5982 331.529C22.6117 331.699 22.6176 331.858 22.6181 332.006C22.6181 332.516 22.544 332.903 22.4108 333.191C22.29 333.213 22.2075 333.329 22.1871 333.532C22.1662 333.555 22.1449 333.575 22.123 333.595C21.8778 333.821 21.5541 333.912 21.1807 333.912C19.9561 333.912 18.1986 332.931 16.9317 332.48C14.0757 332.685 12.4568 337.331 10.2791 338.751C9.76099 339.09 9.24341 339.277 8.75117 339.277Z" fill="#F4AC12"/>
<path d="M17.7847 333.155C14.0656 331.63 7.13257 334.293 6.48272 332.929C5.16513 330.156 10.704 328.007 13.7195 327.516C10.9004 326.867 5.50871 325.864 5.57085 323.164C5.64593 319.865 13.7528 322.391 17.9193 325.344C23.1693 329.067 23.2793 332.846 22.4653 333.635C21.3476 334.719 18.3987 333.406 17.7847 333.155Z" fill="#FFD326"/>
<path d="M37.6136 371.824C38.8869 380.077 40.465 388.611 42.9669 396.587C43.2061 397.314 44.283 397.127 44.1721 396.342C43.0396 388.712 40.9752 381.221 39.8421 373.591C38.6919 365.869 38.0765 358.042 38.5185 350.232C39.2444 337.373 42.7318 323.694 51.1117 313.632C51.2951 313.394 50.9048 313.058 50.7149 313.278C33.9383 332.866 36.6073 356.881 36.6222 359.034C34.2476 350.925 31.8003 341.63 22.8158 333.372C22.4285 333.017 22.1257 333.186 22.1904 333.791C23.7968 348.831 27.9729 356.685 36.6814 364.726C36.9289 367.11 37.2357 369.481 37.6136 371.824Z" fill="#646468"/>
<path d="M51.2623 315.885C54.2798 314.543 58.4429 318.391 61.4291 318.653C63.0102 318.797 64.1806 318.172 64.4555 316.547C65.1965 312.227 60.1349 309.802 56.1056 309.027C57.0741 308.967 58.0373 309.029 58.9963 309.092C60.5486 309.191 62.0904 309.292 63.6297 308.875C65.1347 308.457 65.9602 307.423 65.6007 305.861C64.4889 301.004 58.0751 301.717 54.2759 303.449C55.482 301.299 59.0301 295.32 55.4379 294.972C51.8053 294.636 48.0693 302.536 46.8582 305.128C45.0786 308.939 43.3051 314.203 44.9802 317.996C46.9172 322.432 49.4193 317.908 51.2623 315.885Z" fill="#FFD326"/>
<path d="M46.8975 319.88C46.8533 319.88 46.8091 319.877 46.7648 319.874C46.5222 319.848 46.2815 319.751 46.0459 319.566C45.6779 319.277 45.32 318.775 44.9804 317.996C44.5055 316.922 44.3081 315.73 44.3086 314.486C44.3106 311.338 45.583 307.86 46.8583 305.128C48.0446 302.589 51.6518 294.963 55.2117 294.963C55.2873 294.963 55.3629 294.966 55.438 294.973C56.5855 295.084 57.0041 295.769 57.0037 296.72C57.0032 298.748 55.0969 301.987 54.2761 303.45C55.9193 302.7 58.0513 302.142 60.0322 302.142C62.6311 302.142 64.9699 303.104 65.6009 305.861C65.657 306.106 65.6844 306.337 65.6844 306.555C65.6859 307.731 64.8998 308.522 63.6299 308.875C62.7688 309.109 61.9066 309.18 61.0425 309.18C60.3623 309.18 59.6801 309.136 58.9965 309.092C58.3129 309.048 57.6272 309.003 56.9386 309.003C56.6616 309.003 56.3836 309.011 56.1058 309.027C59.8676 309.751 64.5289 311.913 64.5284 315.711C64.5284 315.981 64.5044 316.26 64.4557 316.547C64.2694 317.651 63.6702 318.293 62.8095 318.547C62.7976 318.551 62.7856 318.553 62.7733 318.557C62.4929 318.636 62.1846 318.674 61.8549 318.674C61.7167 318.674 61.575 318.668 61.4293 318.654C61.1434 318.628 60.8471 318.571 60.5413 318.488C58.1279 317.83 55.1686 315.603 52.6681 315.603C52.1798 315.603 51.708 315.688 51.2625 315.885C50.6923 316.511 50.0598 317.377 49.3994 318.141C48.5835 319.087 47.7274 319.88 46.8975 319.88Z" fill="#F4AC12"/>
<path d="M50.7584 317.036C53.7172 313.464 62.2149 312.408 62.1379 310.669C61.9763 307.129 55.1755 307.951 51.8418 309.09C54.3577 306.897 59.3013 302.949 57.7759 300.234C55.9118 296.918 49.0296 303.891 46.39 309.161C43.0642 315.801 44.9993 319.706 46.2562 320.068C47.9795 320.562 50.2696 317.626 50.7584 317.036Z" fill="#FFD326"/>
<path d="M26.5747 376.35L19.1758 432.96H64.2005C63.2731 427.943 54.8929 376.285 54.8929 376.285L26.5747 376.35Z" fill="#FFD326"/>
<path d="M0 433.151L65.7501 432.842L131.501 432.728L263.001 432.515L394.501 432.727L460.253 432.839L526.003 433.151L460.253 433.462L394.501 433.575L263.001 433.787L131.501 433.573L65.7501 433.461L0 433.151Z" fill="#646468"/>
<path d="M452.727 517.139C452.727 531.974 367.783 544 263.002 544C158.219 544 73.2773 531.974 73.2773 517.139C73.2773 502.304 158.219 490.277 263.002 490.277C367.783 490.277 452.727 502.304 452.727 517.139Z" fill="#F5F5F7"/>
<path d="M102.593 177.89L133.46 170.035L123.25 129.807L102.593 177.89ZM145.358 234.997L137.455 203.86L75.0381 219.745L66.7891 187.244L116.669 73.4123L141.409 67.116L165.463 161.891L185.438 156.807L193.743 189.536L173.771 194.618L181.673 225.754L145.358 234.997Z" fill="#646468"/>
<path d="M286.419 131.053C286.419 120.113 284.233 111.238 279.862 104.437C275.49 97.6363 269.87 94.2358 263.002 94.2358C255.818 94.2358 250.081 97.6363 245.789 104.437C241.493 111.238 239.349 120.113 239.349 131.053C239.349 141.998 241.493 150.832 245.789 157.551C250.081 164.276 255.818 167.635 263.002 167.635C269.87 167.635 275.49 164.276 279.862 157.551C284.233 150.832 286.419 141.998 286.419 131.053ZM324.125 131.053C324.125 141.371 322.562 150.869 319.442 159.544C316.317 168.222 312.024 175.726 306.56 182.057C301.093 188.389 294.653 193.313 287.24 196.831C279.822 200.348 271.742 202.106 263.002 202.106C254.256 202.106 246.139 200.348 238.646 196.831C231.152 193.313 224.672 188.389 219.209 182.057C213.742 175.726 209.489 168.222 206.445 159.544C203.4 150.869 201.879 141.371 201.879 131.053C201.879 120.735 203.4 111.238 206.445 102.561C209.489 93.8853 213.742 86.3809 219.209 80.049C224.672 73.7183 231.152 68.7565 238.646 65.1585C246.139 61.5643 254.256 59.7646 263.002 59.7646C271.742 59.7646 279.822 61.5643 287.24 65.1585C294.653 68.7565 301.093 73.7183 306.56 80.049C312.024 86.3809 316.317 93.8853 319.442 102.561C322.562 111.238 324.125 120.735 324.125 131.053Z" fill="#646468"/>
<path d="M374.836 159.561L406.277 164.662L412.906 123.689L374.836 159.561ZM391.36 228.997L396.49 197.283L332.918 186.97L338.274 153.868L429.292 69.3338L454.488 73.4225L438.871 169.95L459.215 173.249L453.822 206.584L433.478 203.284L428.346 234.997L391.36 228.997Z" fill="#646468"/>
<path d="M199.811 18.6385C199.811 20.2176 200.05 21.7458 200.53 23.2205C201.01 24.6964 201.703 26.0002 202.612 27.1333C203.521 28.2664 204.635 29.1764 205.954 29.8621C207.273 30.5491 208.774 30.8919 210.454 30.8919C212.167 30.8919 213.684 30.5401 215.004 29.8366C216.323 29.1331 217.438 28.1976 218.347 27.0301C219.254 25.8639 219.94 24.5511 220.402 23.0917C220.866 21.6337 221.097 20.1488 221.097 18.6385C221.097 17.0593 220.848 15.5324 220.352 14.0552C219.854 12.5806 219.151 11.2755 218.242 10.1424C217.335 9.00938 216.221 8.10956 214.901 7.43915C213.581 6.77002 212.098 6.43608 210.454 6.43608C208.739 6.43608 207.215 6.78782 205.877 7.49137C204.54 8.19491 203.427 9.12151 202.536 10.2711C201.643 11.4221 200.968 12.7259 200.504 14.184C200.041 15.6446 199.811 17.1282 199.811 18.6385ZM210.402 37.1729C207.729 37.1729 205.303 36.6503 203.126 35.6026C200.95 34.5562 199.081 33.167 197.522 31.4323C195.961 29.7002 194.754 27.7171 193.897 25.4866C193.04 23.2549 192.611 20.9734 192.611 18.6385C192.611 16.2016 193.066 13.8679 193.975 11.6362C194.882 9.40573 196.133 7.43147 197.727 5.71467C199.322 3.99913 201.216 2.63412 203.409 1.62214C205.602 0.608879 207.985 0.102898 210.556 0.102898C213.196 0.102898 215.604 0.643265 217.78 1.72408C219.957 2.80616 221.817 4.22091 223.359 5.97212C224.902 7.72334 226.101 9.71416 226.959 11.9446C227.815 14.1763 228.244 16.4412 228.244 18.7417C228.244 21.1786 227.798 23.5034 226.908 25.7173C226.016 27.9312 224.781 29.8876 223.205 31.5866C221.628 33.2855 219.743 34.6429 217.55 35.6549C215.354 36.6669 212.973 37.1729 210.402 37.1729Z" fill="#646468"/>
<path d="M238.424 23.4783C238.424 24.6802 238.605 25.7699 238.964 26.7475C239.324 27.725 239.82 28.5752 240.456 29.2965C241.09 30.0167 241.835 30.5749 242.692 30.9688C243.549 31.3639 244.474 31.5614 245.469 31.5614C246.462 31.5614 247.388 31.3639 248.245 30.9688C249.102 30.5749 249.848 30.0167 250.482 29.2965C251.116 28.5752 251.613 27.7174 251.972 26.722C252.332 25.7266 252.513 24.6292 252.513 23.426C252.513 22.2611 252.332 21.179 251.972 20.1823C251.613 19.1882 251.116 18.3305 250.482 17.6091C249.848 16.8877 249.102 16.3307 248.245 15.9355C247.388 15.5404 246.462 15.3429 245.469 15.3429C244.474 15.3429 243.549 15.5494 242.692 15.9611C241.835 16.3727 241.09 16.9399 240.456 17.66C239.82 18.3814 239.324 19.2391 238.964 20.2346C238.605 21.23 238.424 22.3121 238.424 23.4783ZM245.469 37.4307C243.274 37.4307 241.303 37.0534 239.556 36.2989C237.808 35.5444 236.324 34.5222 235.107 33.2349C233.89 31.9476 232.956 30.4628 232.306 28.7817C231.654 27.1005 231.328 25.3315 231.328 23.4783C231.328 21.5907 231.654 19.8064 232.306 18.124C232.956 16.4416 233.89 14.9567 235.107 13.6707C236.324 12.3834 237.808 11.3625 239.556 10.6067C241.303 9.85216 243.274 9.47367 245.469 9.47367C247.662 9.47367 249.625 9.85216 251.356 10.6067C253.086 11.3625 254.561 12.3834 255.778 13.6707C256.995 14.9567 257.929 16.4416 258.58 18.124C259.231 19.8064 259.557 21.5907 259.557 23.4783C259.557 25.3315 259.231 27.1005 258.58 28.7817C257.929 30.4628 257.004 31.9476 255.804 33.2349C254.603 34.5222 253.131 35.5444 251.382 36.2989C249.634 37.0534 247.662 37.4307 245.469 37.4307Z" fill="#646468"/>
<path d="M278.016 31.5611C279.044 31.5611 279.995 31.3393 280.869 30.8919C281.744 30.4458 282.49 29.8455 283.106 29.0897C283.722 28.3352 284.202 27.4596 284.545 26.4642C284.888 25.4688 285.059 24.4389 285.059 23.376C285.059 22.2416 284.871 21.1863 284.494 20.2088C284.116 19.2299 283.594 18.3811 282.925 17.6597C282.257 16.9396 281.469 16.3724 280.56 15.9607C279.651 15.549 278.666 15.3425 277.604 15.3425C276.953 15.3425 276.284 15.4547 275.598 15.6777C274.912 15.9008 274.278 16.2182 273.696 16.6298C273.113 17.0415 272.591 17.5233 272.127 18.0714C271.665 18.6207 271.313 19.2223 271.073 19.8736V26.2067C271.691 27.7515 272.633 29.0298 273.9 30.0418C275.169 31.0551 276.542 31.5611 278.016 31.5611ZM280.328 37.4303C278.203 37.4303 276.352 36.9588 274.776 36.0143C273.199 35.0712 271.964 33.7928 271.073 32.1792V47.8828H264.184V9.93721H270.199V14.5702C271.194 12.9923 272.479 11.7471 274.057 10.837C275.633 9.92957 277.45 9.47332 279.506 9.47332C281.324 9.47332 283.002 9.84293 284.545 10.5809C286.088 11.3188 287.417 12.3143 288.53 13.5658C289.644 14.82 290.517 16.2959 291.152 17.9949C291.786 19.6938 292.103 21.4871 292.103 23.376C292.103 25.3311 291.812 27.1677 291.23 28.8832C290.647 30.6001 289.833 32.0938 288.788 33.3633C287.741 34.634 286.499 35.6294 285.059 36.3495C283.62 37.0696 282.043 37.4303 280.328 37.4303Z" fill="#646468"/>
<path d="M306.963 37.4307C304.702 37.4307 302.489 37.07 300.331 36.3499C298.171 35.6297 296.32 34.5986 294.777 33.2604L297.347 28.9359C298.993 30.1034 300.595 30.9866 302.156 31.5869C303.715 32.1885 305.267 32.488 306.809 32.488C308.179 32.488 309.26 32.2305 310.049 31.7156C310.837 31.2007 311.231 30.4628 311.231 29.503C311.231 28.542 310.768 27.8372 309.843 27.3911C308.917 26.945 307.409 26.4301 305.318 25.8464C303.57 25.3659 302.078 24.9032 300.844 24.4571C299.61 24.011 298.615 23.5038 297.863 22.9379C297.108 22.3707 296.559 21.7194 296.217 20.9815C295.873 20.2435 295.703 19.359 295.703 18.3304C295.703 16.9577 295.967 15.7214 296.499 14.6228C297.03 13.5241 297.776 12.5886 298.736 11.8163C299.696 11.0439 300.82 10.4525 302.105 10.0408C303.389 9.62785 304.786 9.42139 306.295 9.42139C308.318 9.42139 310.211 9.71452 311.977 10.2983C313.741 10.882 315.362 11.8252 316.836 13.129L314.058 17.2993C312.687 16.2708 311.36 15.515 310.073 15.0345C308.789 14.554 307.512 14.3131 306.244 14.3131C305.078 14.3131 304.101 14.554 303.313 15.0345C302.524 15.515 302.129 16.2874 302.129 17.3516C302.129 17.8321 302.223 18.2259 302.413 18.5357C302.6 18.8441 302.902 19.1194 303.313 19.359C303.724 19.5999 304.264 19.8318 304.932 20.0536C305.602 20.2779 306.431 20.5099 307.426 20.7495C309.276 21.23 310.862 21.7105 312.182 22.191C313.502 22.6728 314.58 23.2208 315.422 23.8377C316.262 24.4571 316.878 25.1696 317.273 25.9751C317.665 26.7819 317.864 27.7518 317.864 28.8836C317.864 31.5283 316.887 33.6134 314.933 35.1403C312.98 36.6672 310.323 37.4307 306.963 37.4307Z" fill="#646468"/>
<path d="M323.674 36.916V29.1413H330.564V36.916H323.674ZM323.674 23.1701V0.000274658H330.564V23.1701H323.674Z" fill="#646468"/>
<path d="M289.224 348.535H244.021V344.826H289.224V348.535Z" fill="#273E47"/>
<path d="M289.224 353.366H244.021V349.657H289.224V353.366Z" fill="#273E47"/>
<path d="M289.224 358.195H244.021V354.486H289.224V358.195Z" fill="#273E47"/>
<path d="M289.224 363.024H244.021V359.316H289.224V363.024Z" fill="#273E47"/>
<path d="M289.224 367.854H244.021V364.146H289.224V367.854Z" fill="#273E47"/>
<path d="M308.792 464.198H222.854V460.49H308.792V464.198Z" fill="#273E47"/>
<path d="M308.792 469.027H222.854V465.319H308.792V469.027Z" fill="#273E47"/>
<path d="M308.792 473.857H222.854V470.148H308.792V473.857Z" fill="#273E47"/>
<path d="M308.792 478.687H222.854V474.979H308.792V478.687Z" fill="#273E47"/>
<path d="M222.854 483.517H308.792V479.809H222.854V483.517Z" fill="#273E47"/>
<path d="M185.146 314.179C185.188 313.678 166.336 307.355 166.336 307.355L167.45 242.497L192.447 237.126L185.146 314.179Z" fill="#FFD326"/>
<path d="M183.279 313.306C178.525 311.442 166.336 307.355 166.336 307.355L167.45 242.497L189.723 237.713C187.149 263.099 184.798 292.829 183.279 313.306Z" fill="#D59814"/>
<path d="M357.812 339.637C357.945 339.151 377.819 339.711 377.819 339.711L399.063 278.432L377.438 264.776L357.812 339.637Z" fill="#FFD326"/>
<path d="M377.82 339.711C377.82 339.711 368.159 339.439 362.265 339.439C361.068 339.439 360.026 339.45 359.252 339.476C365.162 318.978 373.736 289.181 380.245 266.546L399.064 278.432L377.82 339.711Z" fill="#D59814"/>
<path d="M181.518 338.06C181.518 338.06 188.507 233.168 194.637 198.662C194.637 198.662 321.177 208.245 389.49 234.39C389.49 234.39 354.271 356.909 352.449 362.988C352.449 362.988 263.341 345.411 181.518 338.06Z" fill="#FFD326"/>
<path d="M366.029 308.297L362.814 307.577C362.819 307.553 362.826 307.528 362.831 307.504L366.029 308.297ZM289.118 290.618L281.085 288.738L280.656 288.637L280.734 288.204L287.486 250.416C289.757 237.825 292.099 225.245 294.468 212.669C292.41 225.3 290.33 237.926 288.174 250.537L281.725 287.931L289.34 289.742C289.263 290.031 289.189 290.325 289.118 290.618Z" fill="#F4AC12"/>
<path d="M287.371 222.342C286.795 222.342 286.195 222.135 285.732 221.733C285.21 221.276 284.898 220.577 284.895 219.868C284.897 219.161 285.208 218.46 285.731 218.003C286.192 217.598 286.794 217.393 287.37 217.393C287.445 217.393 287.519 217.397 287.593 217.403C288.918 217.52 289.838 218.712 289.815 219.868C289.839 221.025 288.917 222.216 287.593 222.332C287.52 222.338 287.445 222.342 287.371 222.342ZM287.817 217.871C287.742 217.871 287.667 217.876 287.593 217.883C286.525 218.007 285.833 218.967 285.848 219.868C285.833 220.769 286.524 221.734 287.593 221.855C287.667 221.864 287.741 221.868 287.814 221.868C288.27 221.868 288.745 221.712 289.118 221.395C289.552 221.025 289.81 220.452 289.815 219.868C289.81 219.284 289.552 218.712 289.118 218.342C288.744 218.026 288.27 217.871 287.817 217.871Z" fill="#F4AC12"/>
<path d="M285.149 237.95C284.572 237.95 283.973 237.744 283.509 237.34C282.988 236.885 282.676 236.185 282.672 235.476C282.676 234.769 282.986 234.067 283.508 233.612C283.969 233.206 284.571 233.001 285.148 233.001C285.223 233.001 285.296 233.004 285.37 233.011C286.695 233.127 287.617 234.319 287.593 235.476C287.617 236.634 286.694 237.824 285.37 237.94C285.298 237.946 285.223 237.95 285.149 237.95ZM285.594 233.479C285.519 233.479 285.444 233.483 285.37 233.492C284.302 233.615 283.61 234.574 283.625 235.476C283.609 236.377 284.3 237.342 285.37 237.463C285.444 237.472 285.518 237.476 285.592 237.476C286.047 237.476 286.522 237.321 286.895 237.003C287.329 236.634 287.586 236.06 287.593 235.476C287.588 234.893 287.329 234.319 286.894 233.951C286.521 233.635 286.049 233.479 285.594 233.479Z" fill="#F4AC12"/>
<path d="M282.413 254.44C281.837 254.44 281.237 254.235 280.775 253.831C280.253 253.375 279.941 252.675 279.938 251.968C279.94 251.26 280.251 250.558 280.774 250.103C281.234 249.698 281.835 249.493 282.412 249.493C282.487 249.493 282.562 249.495 282.636 249.503C283.961 249.619 284.88 250.811 284.857 251.968C284.88 253.125 283.96 254.314 282.636 254.43C282.562 254.437 282.488 254.44 282.413 254.44ZM282.859 249.969C282.784 249.969 282.708 249.974 282.636 249.982C281.568 250.106 280.874 251.065 280.891 251.968C280.873 252.869 281.565 253.832 282.636 253.955C282.708 253.962 282.782 253.968 282.856 253.968C283.312 253.968 283.787 253.811 284.159 253.493C284.595 253.125 284.852 252.552 284.857 251.968C284.852 251.384 284.594 250.811 284.159 250.442C283.787 250.126 283.312 249.969 282.859 249.969Z" fill="#F4AC12"/>
<path d="M279.677 270.932C279.101 270.932 278.5 270.726 278.037 270.321C277.515 269.867 277.203 269.166 277.199 268.458C277.203 267.752 277.514 267.049 278.037 266.593C278.496 266.189 279.097 265.983 279.674 265.983C279.749 265.983 279.824 265.986 279.898 265.994C281.223 266.11 282.144 267.302 282.12 268.458C282.144 269.616 281.221 270.805 279.898 270.921C279.825 270.928 279.751 270.932 279.677 270.932ZM280.119 266.461C280.044 266.461 279.971 266.464 279.898 266.473C278.831 266.597 278.139 267.557 278.153 268.458C278.137 269.359 278.828 270.324 279.898 270.446C279.97 270.454 280.044 270.459 280.118 270.459C280.573 270.459 281.048 270.302 281.424 269.985C281.857 269.616 282.115 269.042 282.12 268.458C282.116 267.874 281.857 267.3 281.422 266.932C281.048 266.616 280.573 266.461 280.119 266.461Z" fill="#F4AC12"/>
<path d="M288.998 297.231C288.421 297.231 287.823 297.025 287.361 296.621C286.839 296.167 286.526 295.466 286.523 294.758C286.526 294.05 286.838 293.349 287.36 292.893C287.819 292.489 288.42 292.282 288.998 292.282C289.073 292.282 289.148 292.286 289.223 292.294C289.725 292.337 290.17 292.536 290.526 292.829C290.51 292.899 290.495 292.972 290.479 293.043C290.16 292.853 289.797 292.76 289.446 292.76C289.371 292.76 289.296 292.765 289.223 292.774C288.154 292.897 287.462 293.856 287.478 294.758C287.46 295.659 288.153 296.623 289.223 296.746C289.294 296.754 289.368 296.757 289.442 296.757C289.588 296.757 289.739 296.742 289.886 296.709C289.872 296.833 289.86 296.956 289.847 297.079C289.652 297.152 289.442 297.202 289.223 297.221C289.148 297.228 289.074 297.231 288.998 297.231Z" fill="#F4AC12"/>
<path d="M276.939 287.423C276.363 287.423 275.764 287.216 275.302 286.814C274.779 286.357 274.467 285.658 274.463 284.949C274.467 284.242 274.777 283.539 275.299 283.084C275.761 282.679 276.361 282.474 276.937 282.474C277.012 282.474 277.089 282.478 277.163 282.484C278.488 282.601 279.408 283.793 279.384 284.949C279.408 286.106 278.485 287.297 277.163 287.413C277.089 287.419 277.014 287.423 276.939 287.423ZM277.387 282.952C277.311 282.952 277.236 282.957 277.163 282.965C276.095 283.088 275.401 284.048 275.418 284.949C275.4 285.85 276.092 286.815 277.163 286.936C277.235 286.945 277.309 286.949 277.383 286.949C277.838 286.949 278.312 286.793 278.686 286.476C279.121 286.106 279.379 285.533 279.384 284.949C279.379 284.365 279.12 283.793 278.686 283.425C278.312 283.107 277.84 282.952 277.387 282.952Z" fill="#F4AC12"/>
<path d="M229.231 321.503C227.32 321.503 225.387 321.35 223.441 321.034C203.85 317.856 190.542 299.378 193.716 279.762C196.574 262.094 211.829 249.528 229.143 249.528C231.054 249.528 232.987 249.681 234.934 249.996C254.525 253.175 267.832 271.653 264.659 291.271C261.8 308.937 246.545 321.503 229.231 321.503Z" fill="#D59814"/>
<path d="M257.634 290.129C255.089 305.862 240.288 316.549 224.578 314.001C208.867 311.452 198.193 296.632 200.739 280.9C203.284 265.168 218.084 254.48 233.795 257.03C249.506 259.579 260.179 274.398 257.634 290.129Z" fill="white"/>
<path d="M226.352 281.672L219.615 280.578L220.706 273.832L227.443 274.926L226.352 281.672Z" fill="#FFD326"/>
<path d="M220.706 273.832L213.969 272.74L215.06 265.994L221.797 267.086L220.706 273.832Z" fill="#FFD326"/>
<path d="M247.655 278.205L240.918 277.112L242.009 270.365L248.746 271.459L247.655 278.205Z" fill="#FFD326"/>
<path d="M216.364 300.665L209.627 299.571L210.719 292.827L217.456 293.919L216.364 300.665Z" fill="#FFD326"/>
<path d="M243.313 305.038L236.576 303.945L237.668 297.198L244.405 298.292L243.313 305.038Z" fill="#FFD326"/>
<path d="M224.194 295.011L217.457 293.918L218.548 287.172L225.285 288.265L224.194 295.011Z" fill="#FFD326"/>
<path d="M232.009 289.434L225.271 288.341L226.364 281.595L233.101 282.687L232.009 289.434Z" fill="#FFD326"/>
<path d="M239.826 283.857L233.09 282.765L234.181 276.018L240.918 277.111L239.826 283.857Z" fill="#FFD326"/>
<path d="M237.667 297.198L230.93 296.105L232.021 289.359L238.758 290.451L237.667 297.198Z" fill="#FFD326"/>
<path d="M360.574 308.914C355.985 328.248 336.612 340.197 317.305 335.602C297.997 331.007 286.064 311.609 290.654 292.275C295.241 272.942 314.614 260.993 333.922 265.588C353.231 270.182 365.162 289.581 360.574 308.914Z" fill="#FFD326"/>
<path d="M325.644 336.584C322.893 336.584 320.098 336.265 317.305 335.601C300.789 331.671 289.668 316.906 289.672 300.616C289.672 298.038 289.952 295.419 290.534 292.801C290.297 293.884 290.111 294.961 289.968 296.037L296.955 297.53C295.417 311.771 304.668 325.27 318.951 328.67C321.191 329.203 323.431 329.458 325.637 329.458C337.933 329.458 349.144 321.523 353.025 309.505L360.011 310.996C360.053 310.859 360.095 310.72 360.136 310.581C355.646 326.195 341.355 336.584 325.644 336.584Z" fill="#D59814"/>
<path d="M360.137 310.581C360.296 310.032 360.441 309.475 360.575 308.914C360.662 308.544 360.744 308.175 360.82 307.805L360.823 307.806C360.748 308.176 360.665 308.549 360.577 308.919C360.446 309.485 360.298 310.034 360.137 310.581Z" fill="#D59814"/>
<path d="M290.535 292.801C290.573 292.624 290.613 292.448 290.655 292.271C290.741 291.902 290.834 291.535 290.932 291.173H290.935C290.837 291.536 290.743 291.905 290.656 292.274C290.614 292.45 290.573 292.625 290.535 292.801Z" fill="#D59814"/>
<path d="M360.012 310.996L353.025 309.505C353.262 308.773 353.471 308.028 353.651 307.267C353.739 306.896 353.819 306.526 353.892 306.155L360.82 307.805C360.744 308.174 360.662 308.544 360.574 308.914C360.441 309.474 360.296 310.031 360.136 310.581C360.096 310.72 360.054 310.858 360.012 310.996ZM296.955 297.529L289.969 296.037C290.111 294.961 290.297 293.884 290.534 292.801C290.572 292.625 290.613 292.45 290.655 292.274C290.741 291.905 290.836 291.536 290.934 291.173L297.86 292.821C297.76 293.184 297.664 293.553 297.577 293.922C297.291 295.126 297.085 296.33 296.955 297.529Z" fill="#A27619"/>
<path d="M353.652 307.267C349.972 322.771 334.436 332.353 318.952 328.67C303.466 324.984 293.896 309.427 297.577 293.922C301.258 278.416 316.793 268.833 332.278 272.519C347.762 276.204 357.331 291.761 353.652 307.267Z" fill="white"/>
<path d="M325.008 317.933L318.367 316.351L326.222 283.258L332.862 284.837L325.008 317.933Z" fill="#FFD326"/>
<path d="M362.662 308.243L289.09 290.735C293.918 270.396 314.305 257.829 334.617 262.663C354.929 267.496 367.489 287.904 362.662 308.243Z" fill="#FFD326"/>
<path d="M362.662 308.243L329.196 300.279L322.557 298.699L289.09 290.735C293.219 273.339 308.731 261.628 325.842 261.628C328.737 261.628 331.676 261.963 334.617 262.663C351.992 266.798 363.696 282.331 363.695 299.468C363.695 302.12 363.413 304.811 362.83 307.504C362.825 307.528 362.819 307.552 362.814 307.577C362.765 307.798 362.715 308.021 362.662 308.243Z" fill="#D59814"/>
<path d="M283.168 324.979C282.688 322.152 281.959 319.409 280.634 317.155C279.319 314.887 277.241 313.476 274.761 313.255C274.362 313.206 273.963 313.18 273.569 313.18C271.466 313.18 269.453 313.886 267.781 315.301C265.793 316.978 264.277 319.379 263.092 321.983C263.278 319.108 264.334 316.191 266.416 313.882C267.444 312.72 268.813 311.807 270.324 311.252C271.453 310.836 272.65 310.676 273.829 310.676C274.234 310.676 274.636 310.695 275.034 310.728C276.616 310.913 278.232 311.471 279.55 312.47C280.844 313.49 281.834 314.818 282.417 316.249C283.616 319.103 283.749 322.15 283.168 324.979Z" fill="#F4AC12"/>
<path d="M191.361 248.593C191.66 244.749 192.091 240.923 192.455 237.089C192.863 233.26 193.283 229.433 193.749 225.612C194.191 221.788 194.689 217.972 195.176 214.153C195.655 210.335 196.207 206.527 196.72 202.713L196.856 201.695L197.887 201.759C206.178 202.282 214.452 202.953 222.714 203.803C226.844 204.227 230.969 204.708 235.088 205.239C239.201 205.831 243.32 206.375 247.408 207.124L222.565 205.585L197.75 203.978L198.917 203.024C198.353 206.831 197.829 210.643 197.232 214.445C196.645 218.249 196.066 222.053 195.432 225.85C194.821 229.651 194.164 233.444 193.497 237.235C192.784 241.022 192.139 244.816 191.361 248.593Z" fill="#212328"/>
<path d="M197.338 277.674C198.172 273.052 200.269 268.648 203.086 264.814C203.787 263.849 204.585 262.957 205.353 262.04C206.184 261.181 207.05 260.352 207.902 259.508C208.832 258.751 209.772 258 210.727 257.272C211.741 256.627 212.742 255.956 213.774 255.338C214.86 254.816 215.939 254.277 217.035 253.781L220.449 252.599L223.982 251.868C225.168 251.694 226.374 251.658 227.564 251.567C232.356 251.444 237.071 252.467 241.398 254.222C236.792 253.359 232.202 252.879 227.677 253.312C223.164 253.733 218.778 255.084 214.856 257.297C210.904 259.457 207.403 262.437 204.447 265.898C201.501 269.378 199.064 273.319 197.338 277.674Z" fill="#212328"/>
<path d="M296.459 287.394C297.924 282.931 300.608 278.861 303.927 275.452C304.754 274.593 305.668 273.82 306.555 273.019C307.496 272.283 308.467 271.58 309.429 270.863C310.454 270.242 311.489 269.628 312.534 269.038C313.627 268.541 314.711 268.014 315.819 267.545C316.966 267.177 318.11 266.793 319.263 266.453L322.808 265.753L326.408 265.52C327.607 265.511 328.806 265.641 329.997 265.717C334.76 266.258 339.289 267.922 343.332 270.259C338.889 268.767 334.411 267.657 329.868 267.46C325.341 267.253 320.81 267.985 316.621 269.634C312.408 271.227 308.532 273.695 305.126 276.714C301.729 279.754 298.772 283.319 296.459 287.394Z" fill="#212328"/>
<path d="M185.539 402.701C176.334 402.701 156.183 400.629 143.215 383.934C126.625 362.575 132.62 321.591 132.883 319.856L140.086 320.951C140.026 321.345 134.302 360.578 148.966 379.455C163.302 397.913 189.304 395.263 189.565 395.23L190.385 402.479C190.1 402.511 188.317 402.701 185.539 402.701Z" fill="#FFD326"/>
<path d="M184.962 402.697C175.515 402.611 155.918 400.287 143.215 383.934C133.704 371.69 131.617 352.997 131.615 338.945C131.615 328.485 132.771 320.595 132.883 319.856L140.086 320.951C140.061 321.124 138.937 328.815 138.937 338.982C138.935 351.925 140.753 368.882 148.965 379.455C159.19 392.618 175.349 395.046 183.87 395.344L184.962 402.697Z" fill="#FCD361"/>
<path d="M142.206 325.912C140.891 325.912 139.551 325.804 138.184 325.582C126.034 323.612 120.655 316.33 118.281 310.569C115.902 304.796 115.352 297.812 116.647 289.812L132.056 292.313C131.254 297.269 131.487 301.636 132.712 304.609C133.585 306.729 135.28 309.276 140.681 310.151C143.148 310.551 145.814 310.341 148.607 306.122C150.762 302.867 152.058 298.437 152.511 295.632L167.92 298.131C167.563 300.339 166.054 308.062 161.617 314.76C156.791 322.046 150.001 325.912 142.206 325.912Z" fill="#FFD326"/>
<path d="M200.76 423.578C200.734 423.246 187.706 421.161 187.706 421.161L181.383 378.585L197.161 372.344L200.76 423.578Z" fill="#FFD326"/>
<path d="M199.012 423.12C195.454 422.402 187.706 421.162 187.706 421.162L181.383 378.585L195.49 373.006C195.954 388.38 197.419 406.681 199.012 423.12Z" fill="#D59814"/>
<path d="M329.566 423.656C329.601 423.325 342.672 421.53 342.672 421.53L349.933 379.104L334.296 372.515L329.566 423.656Z" fill="#FFD326"/>
<path d="M345.572 404.578L349.366 378.864L349.933 379.104L345.572 404.578ZM334.559 381.259C334.878 378.157 335.164 375.368 335.41 372.985L348.419 378.465L344.782 377.798L334.559 381.259Z" fill="#D59814"/>
<path d="M195.337 362.811C195.337 362.811 300.711 358.299 336.305 364.24C336.305 364.24 325.853 466.337 325.289 468.317C325.289 468.317 220.468 468.035 204.083 468.317C204.083 468.317 195.203 400.427 195.337 362.811Z" fill="#FFD326"/>
<path d="M298.285 443.99C298.285 443.99 272.852 443.927 253.248 443.927C245.837 443.927 239.264 443.935 235.207 443.961L230.934 390.657C237.792 390.425 253.47 389.96 269.125 389.96C282.864 389.96 296.584 390.318 304.299 391.508L298.285 443.99Z" fill="#D59814"/>
<path d="M232.116 443.994C232.116 443.994 228.191 408.752 227.342 390.785C227.342 390.785 228.65 390.734 230.935 390.657C228.652 390.735 227.346 390.787 227.346 390.787C228.188 408.755 232.119 443.99 232.119 443.99C232.847 443.979 233.896 443.969 235.208 443.961V443.967C233.891 443.967 232.847 443.985 232.116 443.994Z" fill="#D59814"/>
<path d="M232.119 443.99C232.119 443.99 228.188 408.755 227.346 390.787C227.346 390.787 228.652 390.735 230.935 390.659L235.208 443.961C233.896 443.969 232.847 443.979 232.119 443.99Z" fill="#A27619"/>
<path d="M255.46 410.951C254.567 413.788 251.552 415.361 248.722 414.468C245.893 413.575 244.321 410.557 245.213 407.719C246.105 404.885 249.121 403.312 251.954 404.206C254.781 405.098 256.352 408.119 255.46 410.951ZM252.177 403.492C248.952 402.475 245.517 404.267 244.5 407.493C243.485 410.724 245.276 414.161 248.5 415.18C251.721 416.195 255.153 414.405 256.169 411.176C257.184 407.952 255.397 404.508 252.177 403.492ZM255.46 410.951C254.567 413.788 251.552 415.361 248.722 414.468C245.893 413.575 244.321 410.557 245.213 407.719C246.105 404.885 249.121 403.312 251.954 404.206C254.781 405.098 256.352 408.119 255.46 410.951ZM252.177 403.492C248.952 402.475 245.517 404.267 244.5 407.493C243.485 410.724 245.276 414.161 248.5 415.18C251.721 416.195 255.153 414.405 256.169 411.176C257.184 407.952 255.397 404.508 252.177 403.492ZM255.46 410.951C254.567 413.788 251.552 415.361 248.722 414.468C245.893 413.575 244.321 410.557 245.213 407.719C246.105 404.885 249.121 403.312 251.954 404.206C254.781 405.098 256.352 408.119 255.46 410.951ZM256.169 411.176C257.184 407.952 255.397 404.508 252.177 403.492C248.952 402.475 245.517 404.267 244.5 407.493C243.485 410.724 245.276 414.161 248.5 415.18C251.721 416.195 255.153 414.405 256.169 411.176ZM257.079 411.462C255.906 415.186 251.93 417.261 248.212 416.088C244.495 414.916 242.423 410.934 243.595 407.21C244.768 403.484 248.747 401.412 252.463 402.586C256.177 403.759 258.25 407.74 257.079 411.462ZM254.215 397.02C247.417 394.876 240.178 398.658 238.037 405.455C235.897 412.256 239.666 419.509 246.461 421.652C253.25 423.793 260.495 420.015 262.633 413.216C264.775 406.418 261.004 399.16 254.215 397.02ZM255.46 410.951C254.567 413.788 251.552 415.361 248.722 414.468C245.893 413.575 244.321 410.557 245.213 407.719C246.105 404.885 249.121 403.312 251.954 404.206C254.781 405.098 256.352 408.119 255.46 410.951ZM252.177 403.492C248.952 402.475 245.517 404.267 244.5 407.493C243.485 410.724 245.276 414.161 248.5 415.18C251.721 416.195 255.153 414.405 256.169 411.176C257.184 407.952 255.397 404.508 252.177 403.492ZM255.46 410.951C254.567 413.788 251.552 415.361 248.722 414.468C245.893 413.575 244.321 410.557 245.213 407.719C246.105 404.885 249.121 403.312 251.954 404.206C254.781 405.098 256.352 408.119 255.46 410.951ZM252.177 403.492C248.952 402.475 245.517 404.267 244.5 407.493C243.485 410.724 245.276 414.161 248.5 415.18C251.721 416.195 255.153 414.405 256.169 411.176C257.184 407.952 255.397 404.508 252.177 403.492ZM255.46 410.951C254.567 413.788 251.552 415.361 248.722 414.468C245.893 413.575 244.321 410.557 245.213 407.719C246.105 404.885 249.121 403.312 251.954 404.206C254.781 405.098 256.352 408.119 255.46 410.951ZM252.177 403.492C248.952 402.475 245.517 404.267 244.5 407.493C243.485 410.724 245.276 414.161 248.5 415.18C251.721 416.195 255.153 414.405 256.169 411.176C257.184 407.952 255.397 404.508 252.177 403.492Z" fill="#FFD326"/>
<path d="M248.984 421.886L244.254 420.395L243.461 423.829L247.668 425.156L248.984 421.886Z" fill="#FFD326"/>
<path d="M240.486 417.451L238.195 413.047L235.209 414.914L237.247 418.83L240.486 417.451Z" fill="#FFD326"/>
<path d="M237.608 408.296L239.098 403.56L235.668 402.766L234.342 406.978L237.608 408.296Z" fill="#FFD326"/>
<path d="M242.039 399.785L246.436 397.494L244.573 394.502L240.66 396.543L242.039 399.785Z" fill="#FFD326"/>
<path d="M251.18 396.904L255.91 398.396L256.703 394.96L252.497 393.634L251.18 396.904Z" fill="#FFD326"/>
<path d="M259.68 401.34L261.97 405.743L264.956 403.876L262.919 399.959L259.68 401.34Z" fill="#FFD326"/>
<path d="M262.557 410.494L261.066 415.229L264.497 416.024L265.822 411.812L262.557 410.494Z" fill="#FFD326"/>
<path d="M258.126 419.004L253.729 421.297L255.593 424.287L259.505 422.248L258.126 419.004Z" fill="#FFD326"/>
<path d="M273.755 426.945C272.666 428.622 270.426 429.096 268.752 428.005C267.078 426.914 266.605 424.672 267.695 422.992C268.785 421.318 271.025 420.843 272.7 421.935C274.373 423.027 274.846 425.269 273.755 426.945ZM272.974 421.512C271.067 420.269 268.515 420.81 267.274 422.718C266.032 424.63 266.573 427.183 268.479 428.426C270.385 429.669 272.934 429.129 274.175 427.218C275.416 425.312 274.879 422.755 272.974 421.512ZM273.755 426.945C272.666 428.622 270.426 429.096 268.752 428.005C267.078 426.914 266.605 424.672 267.695 422.992C268.785 421.318 271.025 420.843 272.7 421.935C274.373 423.027 274.846 425.269 273.755 426.945ZM272.974 421.512C271.067 420.269 268.515 420.81 267.274 422.718C266.032 424.63 266.573 427.183 268.479 428.426C270.385 429.669 272.934 429.129 274.175 427.218C275.416 425.312 274.879 422.755 272.974 421.512ZM273.755 426.945C272.666 428.622 270.426 429.096 268.752 428.005C267.078 426.914 266.605 424.672 267.695 422.992C268.785 421.318 271.025 420.843 272.7 421.935C274.373 423.027 274.846 425.269 273.755 426.945ZM274.175 427.218C275.416 425.312 274.879 422.755 272.974 421.512C271.067 420.269 268.515 420.81 267.274 422.718C266.032 424.63 266.573 427.183 268.479 428.426C270.385 429.669 272.934 429.129 274.175 427.218ZM274.714 427.568C273.281 429.772 270.328 430.397 268.128 428.964C265.93 427.53 265.306 424.573 266.738 422.369C268.171 420.167 271.126 419.542 273.324 420.976C275.521 422.409 276.146 425.367 274.714 427.568ZM275.465 417.684C271.444 415.063 266.066 416.204 263.45 420.225C260.835 424.249 261.969 429.634 265.989 432.254C270.004 434.872 275.385 433.734 277.999 429.712C280.616 425.692 279.481 420.302 275.465 417.684ZM273.755 426.945C272.666 428.622 270.426 429.096 268.752 428.005C267.078 426.914 266.605 424.672 267.695 422.992C268.785 421.318 271.025 420.843 272.7 421.935C274.373 423.027 274.846 425.269 273.755 426.945ZM272.974 421.512C271.067 420.269 268.515 420.81 267.274 422.718C266.032 424.63 266.573 427.183 268.479 428.426C270.385 429.669 272.934 429.129 274.175 427.218C275.416 425.312 274.879 422.755 272.974 421.512ZM273.755 426.945C272.666 428.622 270.426 429.096 268.752 428.005C267.078 426.914 266.605 424.672 267.695 422.992C268.785 421.318 271.025 420.843 272.7 421.935C274.373 423.027 274.846 425.269 273.755 426.945ZM272.974 421.512C271.067 420.269 268.515 420.81 267.274 422.718C266.032 424.63 266.573 427.183 268.479 428.426C270.385 429.669 272.934 429.129 274.175 427.218C275.416 425.312 274.879 422.755 272.974 421.512ZM273.755 426.945C272.666 428.622 270.426 429.096 268.752 428.005C267.078 426.914 266.605 424.672 267.695 422.992C268.785 421.318 271.025 420.843 272.7 421.935C274.373 423.027 274.846 425.269 273.755 426.945ZM272.974 421.512C271.067 420.269 268.515 420.81 267.274 422.718C266.032 424.63 266.573 427.183 268.479 428.426C270.385 429.669 272.934 429.129 274.175 427.218C275.416 425.312 274.879 422.755 272.974 421.512Z" fill="#D4D6D3"/>
<path d="M267.584 432.864L264.786 431.04L263.652 433.124L266.141 434.745L267.584 432.864Z" fill="#D4D6D3"/>
<path d="M262.873 428.45L262.183 425.178L259.908 425.849L260.523 428.758L262.873 428.45Z" fill="#D4D6D3"/>
<path d="M262.66 421.991L264.483 419.19L262.402 418.053L260.781 420.546L262.66 421.991Z" fill="#D4D6D3"/>
<path d="M267.07 417.273L270.336 416.581L269.666 414.305L266.762 414.919L267.07 417.273Z" fill="#D4D6D3"/>
<path d="M273.52 417.059L276.317 418.885L277.451 416.801L274.963 415.178L273.52 417.059Z" fill="#D4D6D3"/>
<path d="M278.23 421.476L278.92 424.745L281.194 424.076L280.581 421.168L278.23 421.476Z" fill="#D4D6D3"/>
<path d="M278.443 427.933L276.621 430.735L278.702 431.871L280.321 429.38L278.443 427.933Z" fill="#D4D6D3"/>
<path d="M274.032 432.651L270.766 433.342L271.434 435.618L274.338 435.004L274.032 432.651Z" fill="#D4D6D3"/>
<path d="M333.766 456.437L337.813 457.19L349.397 378.646L344.782 377.797L333.766 456.437Z" fill="#FFD326"/>
<path d="M298.285 443.99L304.299 391.508L344.781 377.798C344.781 377.798 333.764 457.286 333.764 456.438L298.285 443.99Z" fill="#FFD326"/>
<path d="M333.768 456.438H344.782V377.797H333.768V456.438Z" fill="#FCD361"/>
<path d="M333.764 456.444C333.764 456.444 333.764 456.442 333.764 456.438L326.944 454.045L298.285 443.991L304.299 391.508L344.781 377.798C344.744 378.065 333.992 455.638 333.767 456.438C333.767 456.442 333.766 456.444 333.764 456.444Z" fill="#FCD361"/>
<path d="M200.174 393.634C199.515 389.286 199.159 384.904 198.887 380.518C198.764 378.324 198.708 376.125 198.66 373.928C198.615 371.731 198.577 369.531 198.643 367.332L198.66 366.755L199.221 366.724C207.263 366.292 215.299 365.763 223.346 365.412C231.389 365.014 239.435 364.653 247.486 364.401C239.459 365.129 231.43 365.748 223.398 366.331C215.371 366.96 207.331 367.41 199.299 367.959L199.878 367.352L199.845 373.915L199.921 380.481C199.932 382.671 199.972 384.861 200.036 387.052L200.174 393.634Z" fill="#212328"/>
<path d="M309.947 392.279C312.455 391.086 315.002 389.977 317.579 388.953C320.148 387.905 322.743 386.915 325.365 386.003C327.992 385.105 330.628 384.225 333.308 383.48C335.984 382.725 338.685 382.028 341.445 381.576L342.123 381.465L342.001 382.114C341.366 385.511 340.702 388.904 339.916 392.279C340.21 388.828 340.625 385.394 341.069 381.966L341.626 382.504C338.953 383.142 336.3 383.889 333.655 384.672C331.013 385.462 328.378 386.295 325.751 387.153L309.947 392.279Z" fill="#212328"/>
<path d="M221.29 468.103L220.606 454.976L220.023 441.844L219.014 415.58L218.226 389.306L217.909 376.166L217.752 366.747C217.797 366.743 217.84 366.741 217.884 366.738L218.372 376.151L218.957 389.281L219.967 415.547L220.758 441.82L221.073 454.959L221.29 468.103ZM217.735 365.682L217.691 363.024L217.829 365.677C217.798 365.679 217.766 365.68 217.735 365.682Z" fill="#F4AC12"/>
<path d="M217.752 366.747L217.734 365.682C217.766 365.68 217.798 365.679 217.829 365.676L217.883 366.738C217.84 366.741 217.797 366.743 217.752 366.747Z" fill="#E0E1DE"/>
<path d="M211.535 373.894C211.113 373.894 210.683 373.789 210.302 373.571C209.7 373.23 209.256 372.604 209.114 371.91C208.976 371.216 209.143 370.468 209.565 369.917C209.985 369.364 210.631 369.029 211.271 368.96C211.36 368.95 211.449 368.945 211.536 368.945C212.742 368.945 213.744 369.874 213.936 370.937C213.815 370.364 213.45 369.855 212.951 369.579C212.648 369.412 212.312 369.335 211.984 369.335C211.771 369.335 211.561 369.368 211.366 369.43C210.344 369.764 209.854 370.84 210.048 371.722C210.201 372.562 210.988 373.331 211.984 373.331C212.039 373.331 212.095 373.329 212.151 373.325C212.671 373.281 213.201 373.019 213.553 372.571C213.907 372.123 214.047 371.51 213.936 370.937C214.188 372.066 213.519 373.416 212.245 373.79C212.018 373.859 211.778 373.894 211.535 373.894Z" fill="#F4AC12"/>
<path d="M212.438 389.633C212.017 389.633 211.588 389.528 211.206 389.312C210.604 388.968 210.16 388.343 210.017 387.65C209.881 386.956 210.046 386.206 210.469 385.656C210.889 385.104 211.535 384.767 212.176 384.7C212.265 384.69 212.353 384.685 212.44 384.685C213.646 384.685 214.649 385.614 214.84 386.676C214.721 386.105 214.354 385.594 213.855 385.319C213.552 385.152 213.217 385.074 212.89 385.074C212.676 385.074 212.466 385.107 212.27 385.171C211.248 385.502 210.758 386.58 210.952 387.461C211.104 388.301 211.891 389.071 212.886 389.071C212.941 389.071 212.998 389.068 213.054 389.063C213.574 389.018 214.105 388.758 214.458 388.31C214.811 387.862 214.95 387.248 214.84 386.676C215.092 387.806 214.423 389.155 213.149 389.531C212.922 389.598 212.682 389.633 212.438 389.633Z" fill="#F4AC12"/>
<path d="M213.012 406.341C212.59 406.341 212.16 406.236 211.78 406.018C211.177 405.674 210.733 405.05 210.589 404.356C210.453 403.663 210.62 402.914 211.043 402.364C211.463 401.811 212.108 401.475 212.749 401.407C212.837 401.397 212.926 401.392 213.013 401.392C214.22 401.392 215.223 402.321 215.413 403.384C215.294 402.812 214.926 402.301 214.428 402.025C214.127 401.86 213.791 401.781 213.464 401.781C213.25 401.781 213.04 401.814 212.844 401.877C211.822 402.21 211.331 403.287 211.525 404.169C211.678 405.008 212.464 405.777 213.458 405.777C213.514 405.777 213.57 405.776 213.628 405.771C214.147 405.726 214.678 405.465 215.032 405.018C215.384 404.569 215.524 403.956 215.413 403.384C215.666 404.513 214.996 405.862 213.722 406.238C213.495 406.305 213.255 406.341 213.012 406.341Z" fill="#F4AC12"/>
<path d="M213.584 423.048C213.162 423.048 212.732 422.943 212.351 422.725C211.749 422.382 211.305 421.758 211.163 421.064C211.025 420.371 211.191 419.62 211.613 419.071C212.034 418.519 212.68 418.181 213.321 418.114C213.41 418.104 213.498 418.1 213.585 418.1C214.791 418.1 215.794 419.029 215.985 420.091C215.864 419.519 215.499 419.007 215 418.733C214.697 418.567 214.362 418.488 214.034 418.488C213.822 418.488 213.612 418.522 213.415 418.584C212.393 418.917 211.903 419.995 212.097 420.876C212.25 421.716 213.036 422.486 214.03 422.486C214.086 422.486 214.142 422.483 214.2 422.478C214.719 422.433 215.25 422.173 215.604 421.724C215.956 421.277 216.095 420.663 215.985 420.091C216.237 421.221 215.568 422.568 214.294 422.944C214.067 423.013 213.827 423.048 213.584 423.048Z" fill="#F4AC12"/>
<path d="M214.156 439.756C213.735 439.756 213.305 439.651 212.924 439.433C212.322 439.089 211.878 438.464 211.734 437.771C211.598 437.078 211.765 436.327 212.186 435.779C212.606 435.226 213.252 434.888 213.893 434.822C213.982 434.812 214.071 434.807 214.157 434.807C215.364 434.807 216.366 435.736 216.558 436.798C216.437 436.226 216.071 435.715 215.573 435.44C215.27 435.273 214.935 435.195 214.607 435.195C214.394 435.195 214.184 435.228 213.988 435.292C212.966 435.625 212.476 436.702 212.67 437.584C212.822 438.423 213.609 439.192 214.603 439.192C214.659 439.192 214.715 439.19 214.772 439.186C215.292 439.14 215.822 438.88 216.175 438.433C216.529 437.984 216.668 437.371 216.558 436.798C216.809 437.928 216.141 439.276 214.866 439.652C214.64 439.72 214.399 439.756 214.156 439.756Z" fill="#F4AC12"/>
<path d="M214.729 456.462C214.307 456.462 213.877 456.357 213.495 456.139C212.894 455.797 212.45 455.171 212.306 454.479C212.17 453.785 212.336 453.035 212.758 452.485C213.178 451.932 213.825 451.596 214.465 451.528C214.554 451.518 214.642 451.514 214.73 451.514C215.937 451.514 216.938 452.442 217.13 453.505C217.01 452.934 216.644 452.422 216.144 452.146C215.842 451.981 215.508 451.903 215.179 451.903C214.967 451.903 214.757 451.935 214.561 451.998C213.539 452.331 213.048 453.409 213.242 454.29C213.395 455.13 214.181 455.9 215.175 455.9C215.231 455.9 215.287 455.897 215.345 455.892C215.864 455.847 216.395 455.588 216.747 455.139C217.101 454.691 217.24 454.079 217.13 453.505C217.383 454.636 216.713 455.982 215.439 456.359C215.212 456.427 214.972 456.462 214.729 456.462Z" fill="#F4AC12"/>
<path d="M164.754 504.135L162.641 497.154L222.306 479.049L224.419 486.03L164.754 504.135Z" fill="#FFD326"/>
<path d="M172.884 501.667L171.57 494.444L222.307 479.049L224.42 486.03L172.884 501.667Z" fill="#FCD361"/>
<path d="M190.06 497.86L186.781 487.536L193.723 485.326L197.002 495.649L190.06 497.86Z" fill="#FFD326"/>
<path d="M164.264 514.365L148.867 447.606L102.396 458.636L125.279 523.699L164.264 514.365Z" fill="#FFD326"/>
<path d="M174.575 510.969L164.263 514.364L148.867 447.605L163.698 451.14L174.575 510.969Z" fill="#FFD326"/>
<path d="M164.263 514.364L148.867 447.605L163.698 451.14L174.575 510.969L164.263 514.364Z" fill="#D59814"/>
<path d="M231.275 482.541C231.275 486.915 227.734 490.461 223.364 490.461C218.996 490.461 215.455 486.915 215.455 482.541C215.455 478.167 218.996 474.62 223.364 474.62C227.734 474.62 231.275 478.167 231.275 482.541Z" fill="#FFD326"/>
<path d="M362.267 504.076L302.641 485.845L304.766 478.868L364.395 497.099L362.267 504.076Z" fill="#FFD326"/>
<path d="M354.143 501.593L302.641 485.846L304.766 478.869L355.471 494.371L354.143 501.593Z" fill="#FCD361"/>
<path d="M336.974 497.748L330.037 495.522L333.34 485.204L340.277 487.429L336.974 497.748Z" fill="#FFD326"/>
<path d="M362.736 514.306L378.274 447.579L424.723 458.711L401.702 523.725L362.736 514.306Z" fill="#FFD326"/>
<path d="M352.434 510.889L362.737 514.306L378.275 447.578L363.436 451.083L352.434 510.889Z" fill="#FFD326"/>
<path d="M362.737 514.306L352.434 510.889L363.436 451.083L378.275 447.578L362.737 514.306Z" fill="#D59814"/>
<path d="M295.795 482.34C295.786 486.714 299.319 490.267 303.688 490.276C308.056 490.285 311.606 486.748 311.614 482.373C311.624 477.999 308.091 474.446 303.721 474.435C299.354 474.426 295.804 477.965 295.795 482.34Z" fill="#FFD326"/>
<path d="M355.489 399.998C355.677 399.823 374.841 382.024 397.384 388.111C420.438 394.34 439.473 429.109 439.662 429.461L446.069 425.992C445.237 424.448 425.384 388.108 399.281 381.07C372.733 373.9 351.369 393.857 350.473 394.711L355.489 399.998Z" fill="#FFD326"/>
<path d="M439.662 429.461C439.473 429.109 420.438 394.34 397.384 388.111C394.094 387.223 390.876 386.843 387.78 386.843C369.652 386.843 355.649 399.849 355.489 399.998L350.473 394.711C351.233 393.987 366.718 379.518 387.605 379.518C391.341 379.518 395.254 379.981 399.281 381.07C425.384 388.108 445.237 424.448 446.069 425.992L439.662 429.461Z" fill="#FCD361"/>
<path d="M431.164 464.465L444.971 457.166C443.644 454.652 442.014 450.335 441.776 446.437C441.469 441.384 443.471 439.608 445.68 438.44C450.518 435.882 453.403 436.896 455.376 438.059C458.142 439.694 460.954 443.04 463.295 447.479L477.1 440.182C473.321 433.017 468.682 427.772 463.31 424.597C457.95 421.435 449.278 418.863 438.391 424.618C429.907 429.103 425.575 437.189 426.195 447.386C426.683 455.409 430.123 462.486 431.164 464.465Z" fill="#FFD326"/>
<path d="M358.398 375.643C361.391 373.571 364.455 371.623 367.527 369.69C370.593 367.747 373.711 365.889 376.829 364.03C379.962 362.199 383.097 360.37 386.28 358.625L391.057 356.012C392.675 355.181 394.268 354.313 395.905 353.517C394.415 354.562 392.883 355.538 391.374 356.551L386.776 359.47C383.71 361.414 380.593 363.272 377.476 365.128C374.342 366.958 371.207 368.787 368.022 370.53C364.845 372.287 361.658 374.025 358.398 375.643Z" fill="#646468"/>
<path d="M350.473 405.468C354.757 407.913 358.817 410.671 362.824 413.508C366.808 416.374 370.736 419.321 374.439 422.584C370.152 420.142 366.09 417.382 362.086 414.545C358.103 411.676 354.175 408.728 350.473 405.468Z" fill="#646468"/>
<path d="M357.508 401.8C360.815 402.805 364.071 403.941 367.319 405.097C370.572 406.24 373.789 407.477 377.006 408.712C380.213 409.977 383.416 411.244 386.587 412.601L391.34 414.645C392.907 415.368 394.49 416.052 396.043 416.812C394.386 416.321 392.757 415.753 391.113 415.227L386.232 413.515C382.98 412.372 379.761 411.137 376.546 409.899C373.341 408.633 370.134 407.367 366.966 406.007C363.792 404.661 360.624 403.295 357.508 401.8Z" fill="#646468"/>
<path d="M366.902 378.439C370.072 377.615 373.265 376.928 376.463 376.261C379.655 375.581 382.868 374.998 386.079 374.417C389.297 373.866 392.513 373.317 395.747 372.863L400.599 372.19C402.226 372.012 403.843 371.79 405.477 371.649C403.894 372.074 402.297 372.42 400.708 372.806L395.918 373.829C392.723 374.509 389.512 375.091 386.299 375.671C383.083 376.222 379.865 376.772 376.629 377.222C373.398 377.689 370.162 378.132 366.902 378.439Z" fill="#646468"/>
<path d="M290.523 398.284C291.061 395.705 291.925 393.192 293.042 390.796C294.161 388.404 295.531 386.107 297.249 384.067C298.973 382.048 301.093 380.267 303.645 379.282C306.197 378.329 309.118 378.336 311.678 379.36C314.268 380.371 316.311 382.551 317.412 385.056C317.982 386.307 318.343 387.649 318.489 389.022C318.617 390.392 318.563 391.818 318.018 393.186C317.741 393.859 317.306 394.538 316.611 394.991C316.275 395.225 315.864 395.359 315.461 395.422C315.062 395.479 314.656 395.461 314.193 395.3C313.342 394.939 312.915 394.252 312.55 393.633C312.223 392.991 311.969 392.335 311.798 391.669C311.082 389.009 311.01 386.302 311.136 383.628C311.515 378.299 312.913 372.969 315.78 368.384C317.229 366.117 319.043 364.032 321.299 362.507C323.527 360.972 326.135 359.917 328.796 359.611C330.107 359.292 331.46 359.323 332.798 359.258C333.468 359.186 334.135 359.348 334.802 359.384C335.466 359.473 336.144 359.46 336.791 359.653C339.435 360.127 341.922 361.191 344.242 362.477C346.551 363.809 348.606 365.52 350.482 367.375C352.341 369.249 354.033 371.301 355.392 373.558C352.382 369.257 348.506 365.523 343.935 363.022C341.637 361.825 339.206 360.843 336.646 360.444C336.022 360.271 335.368 360.3 334.728 360.229C334.085 360.211 333.445 360.063 332.801 360.15C331.515 360.244 330.223 360.238 328.969 360.576C326.403 360.938 324.023 361.97 321.928 363.41C319.824 364.853 318.125 366.834 316.76 369C314.058 373.384 312.736 378.561 312.405 383.705C312.261 386.275 312.326 388.904 312.967 391.346C313.274 392.513 313.825 393.83 314.628 394.197C314.732 394.206 314.799 394.262 314.924 394.266C315.05 394.257 315.182 394.283 315.3 394.254C315.541 394.213 315.778 394.148 315.98 394.003C316.398 393.74 316.729 393.274 316.951 392.739C317.397 391.657 317.48 390.372 317.366 389.133C317.242 387.888 316.923 386.653 316.409 385.504C315.402 383.213 313.617 381.232 311.302 380.261C309.001 379.283 306.305 379.203 303.919 380.035C301.517 380.898 299.443 382.556 297.714 384.477C294.252 388.363 291.913 393.226 290.523 398.284Z" fill="#646468"/>
<path d="M172.906 431.315C174.136 428.997 175.942 426.991 178.051 425.406C180.158 423.82 182.576 422.59 185.179 421.986C187.768 421.365 190.549 421.355 193.138 422.143C195.729 422.92 198.064 424.442 199.932 426.379C201.814 428.317 203.22 430.671 204.186 433.172C205.136 435.68 205.703 438.365 205.502 441.111C205.366 442.463 205.092 443.921 204.026 445.089C203.496 445.665 202.678 446.044 201.881 446.057C201.115 446.049 200.391 445.936 199.687 445.56C198.989 445.2 198.429 444.572 198.108 443.878C197.785 443.184 197.663 442.449 197.631 441.737C197.58 440.31 197.887 438.955 198.307 437.665C199.161 435.082 200.564 432.754 202.203 430.644C203.851 428.537 205.791 426.661 207.965 425.099C212.278 421.963 217.77 420.222 223.13 420.923C225.775 421.282 228.399 422.045 230.715 423.397C233.05 424.703 235.075 426.517 236.726 428.589C238.376 430.671 239.661 433.01 240.652 435.446C241.642 437.884 242.373 440.43 242.732 443.027C241.662 437.92 239.565 432.96 236.224 429.001C234.57 427.024 232.576 425.327 230.311 424.13C228.067 422.888 225.55 422.223 223.015 421.939C217.924 421.384 212.759 423.01 208.651 426.053C204.55 429.075 201.192 433.292 199.496 438.063C199.096 439.251 198.817 440.496 198.854 441.693C198.882 442.883 199.3 444.025 200.253 444.507C200.701 444.766 201.311 444.868 201.844 444.875C202.36 444.862 202.818 444.656 203.184 444.275C203.928 443.498 204.247 442.228 204.359 441.011C204.559 438.52 204.045 435.946 203.155 433.565C202.253 431.179 200.915 428.954 199.184 427.093C197.458 425.233 195.281 423.783 192.872 422.994C190.468 422.192 187.832 422.126 185.328 422.659C180.315 423.724 175.672 426.862 172.906 431.315Z" fill="#646468"/>
<path d="M114.019 123.52C113.875 118.275 112.764 112.994 110.326 108.392C109.105 106.114 107.486 104.009 105.361 102.598C103.24 101.219 100.604 100.652 98.136 101.052C95.6574 101.442 93.4508 102.94 91.9265 104.924C91.1537 105.916 90.5491 107.038 90.132 108.219C89.7273 109.394 89.5006 110.661 89.6761 111.819C89.764 112.393 89.9744 112.924 90.317 113.279C90.48 113.469 90.6933 113.588 90.9176 113.684C91.0259 113.741 91.1612 113.748 91.2805 113.786C91.4023 113.813 91.4819 113.774 91.5843 113.79C92.4515 113.625 93.3011 112.478 93.8765 111.419C95.0812 109.201 95.7718 106.662 96.2442 104.133C97.1491 99.0586 97.0979 93.7145 95.5187 88.8126C94.7113 86.382 93.5329 84.0535 91.8324 82.1506C90.1414 80.2502 88.0766 78.6774 85.6706 77.7139C84.5341 77.0868 83.2772 76.7835 82.0521 76.3845C81.4464 76.1475 80.7911 76.136 80.1621 76.0009C79.5242 75.9168 78.8953 75.732 78.2464 75.7523C75.6674 75.5268 73.0721 75.9002 70.5543 76.512C65.5206 77.849 60.8662 80.5484 56.918 84.0063C58.7754 82.1391 60.907 80.551 63.1603 79.1758C65.4251 77.8209 67.8276 76.6522 70.3861 75.9091C72.9462 75.2158 75.6152 74.7774 78.2962 74.9481C78.9694 74.915 79.6256 75.0896 80.2904 75.1623C80.9477 75.2872 81.6329 75.2884 82.2678 75.5179C83.5511 75.9015 84.8722 76.1959 86.0679 76.8179C88.5808 77.7508 90.8619 79.4001 92.6592 81.4215C94.487 83.4417 95.7524 85.9015 96.618 88.448C98.309 93.5857 98.3971 99.0968 97.4946 104.362C96.98 106.99 96.264 109.6 94.9355 112.012C94.6099 112.616 94.208 113.194 93.7372 113.74C93.2351 114.252 92.6573 114.817 91.7434 114.966C91.2552 115.011 90.856 114.93 90.4841 114.78C90.1067 114.623 89.7392 114.395 89.4698 114.087C88.903 113.481 88.6424 112.718 88.5335 111.999C88.3302 110.541 88.6171 109.143 89.0686 107.843C89.5384 106.545 90.2066 105.328 91.0598 104.247C92.7264 102.079 95.2299 100.45 97.9853 100.087C100.715 99.7048 103.554 100.397 105.805 101.931C108.049 103.497 109.683 105.733 110.876 108.107C112.059 110.499 112.841 113.056 113.357 115.647C113.871 118.24 114.112 120.888 114.019 123.52Z" fill="#646468"/>
<path d="M395.084 190.005C389.957 188.92 384.571 188.77 379.533 190.07C377.035 190.729 374.613 191.812 372.747 193.553C370.912 195.297 369.747 197.731 369.56 200.227C369.36 202.731 370.3 205.229 371.872 207.177C372.653 208.161 373.604 209.011 374.651 209.693C375.699 210.361 376.876 210.878 378.042 210.976C378.619 211.025 379.184 210.943 379.609 210.693C379.831 210.578 379.997 210.399 380.142 210.203L380.327 209.874L380.401 209.578C380.443 208.695 379.528 207.601 378.633 206.793C376.76 205.102 374.457 203.839 372.111 202.787C367.394 200.723 362.192 199.524 357.062 199.92C354.514 200.139 351.978 200.742 349.733 201.954C347.494 203.157 345.486 204.801 343.987 206.918C343.112 207.879 342.526 209.032 341.852 210.132C341.48 210.666 341.317 211.302 341.04 211.884C340.809 212.484 340.482 213.054 340.35 213.69C339.529 216.148 339.287 218.762 339.293 221.357C339.417 226.57 340.952 231.732 343.389 236.383C342.008 234.138 340.964 231.693 340.154 229.178C339.368 226.658 338.793 224.045 338.67 221.38C338.593 218.725 338.789 216.025 339.581 213.454C339.707 212.791 340.029 212.192 340.254 211.561C340.529 210.951 340.691 210.284 341.061 209.719C341.732 208.56 342.326 207.341 343.21 206.322C344.703 204.094 346.836 202.257 349.219 200.979C351.607 199.671 354.291 199.013 356.965 198.764C362.351 198.316 367.721 199.517 372.624 201.624C375.056 202.738 377.425 204.044 379.456 205.9C379.968 206.359 380.435 206.885 380.855 207.47C381.236 208.079 381.648 208.774 381.579 209.698C381.511 210.183 381.339 210.553 381.106 210.882C380.865 211.211 380.557 211.515 380.196 211.708C379.477 212.118 378.674 212.192 377.951 212.131C376.486 211.988 375.196 211.384 374.038 210.64C372.887 209.879 371.861 208.946 371.012 207.862C369.294 205.734 368.297 202.917 368.588 200.149C368.854 197.401 370.188 194.798 372.202 192.964C374.247 191.146 376.8 190.075 379.384 189.468C381.983 188.874 384.647 188.71 387.284 188.812C389.923 188.916 392.549 189.299 395.084 190.005Z" fill="#646468"/>
<path d="M316.281 107.542C315.411 104.521 315.293 101.293 315.784 98.1729C316.272 95.0553 317.327 91.9862 319.051 89.2995C320.748 86.6089 323.117 84.2842 325.982 82.8019C328.841 81.3081 332.096 80.6594 335.302 80.7575C338.516 80.8455 341.675 81.6778 344.582 83.0058C347.478 84.3543 350.199 86.1743 352.306 88.6775C353.31 89.9381 354.28 91.4063 354.34 93.2531C354.364 94.1631 353.995 95.1369 353.343 95.7971C352.697 96.4165 351.99 96.92 351.101 97.1787C350.225 97.4476 349.251 97.3814 348.416 97.0627C347.577 96.7466 346.872 96.2279 346.259 95.6544C345.038 94.4894 344.172 93.0798 343.46 91.6319C342.043 88.7183 341.297 85.5626 340.937 82.3915C340.587 79.2166 340.677 75.9946 341.23 72.8439C342.292 66.5643 345.527 60.4975 350.675 56.6139C353.229 54.706 356.101 53.1612 359.201 52.3736C362.281 51.5324 365.522 51.382 368.663 51.7656C371.81 52.1556 374.866 53.0695 377.752 54.3172C380.641 55.5663 383.399 57.1225 385.886 59.0343C380.716 55.5319 374.774 53.0236 368.592 52.4118C365.514 52.0983 362.375 52.3086 359.424 53.1803C356.452 53.9961 353.724 55.537 351.303 57.4195C348.91 59.3389 346.875 61.6968 345.385 64.3797C343.885 67.0562 342.903 70.0144 342.385 73.0466C341.395 79.0968 342.034 85.5434 344.589 91.0839C345.245 92.4463 346.052 93.7553 347.103 94.766C348.134 95.7742 349.494 96.4331 350.768 96.0291C351.395 95.8659 352.012 95.4326 352.492 94.9776C352.942 94.5149 353.177 93.9172 353.17 93.2569C353.152 91.9187 352.347 90.5537 351.419 89.4066C349.49 87.0869 346.885 85.3076 344.119 84.0102C341.34 82.7191 338.319 81.9301 335.264 81.7912C332.215 81.651 329.121 82.2386 326.387 83.5959C323.645 84.9406 321.325 87.1073 319.626 89.6742C316.227 94.8157 314.896 101.415 316.281 107.542Z" fill="#646468"/>
<path d="M171.556 438.191C170.767 440.701 168.099 442.094 165.596 441.304C163.093 440.513 161.703 437.842 162.492 435.332C163.281 432.825 165.948 431.433 168.455 432.225C170.955 433.014 172.345 435.684 171.556 438.191ZM168.652 431.593C165.799 430.691 162.76 432.28 161.862 435.133C160.963 437.992 162.548 441.032 165.399 441.932C168.249 442.831 171.285 441.247 172.183 438.391C173.082 435.537 171.501 432.493 168.652 431.593ZM171.556 438.191C170.767 440.701 168.099 442.094 165.596 441.304C163.093 440.513 161.703 437.842 162.492 435.332C163.281 432.825 165.948 431.433 168.455 432.225C170.955 433.014 172.345 435.684 171.556 438.191ZM168.652 431.593C165.799 430.691 162.76 432.28 161.862 435.133C160.963 437.992 162.548 441.032 165.399 441.932C168.249 442.831 171.285 441.247 172.183 438.391C173.082 435.537 171.501 432.493 168.652 431.593ZM171.556 438.191C170.767 440.701 168.099 442.094 165.596 441.304C163.093 440.513 161.703 437.842 162.492 435.332C163.281 432.825 165.948 431.433 168.455 432.225C170.955 433.014 172.345 435.684 171.556 438.191ZM172.183 438.391C173.082 435.537 171.501 432.493 168.652 431.593C165.799 430.691 162.76 432.28 161.862 435.133C160.963 437.992 162.548 441.032 165.399 441.932C168.249 442.831 171.285 441.247 172.183 438.391ZM172.988 438.643C171.95 441.938 168.434 443.773 165.146 442.737C161.857 441.699 160.024 438.177 161.061 434.883C162.097 431.587 165.618 429.754 168.906 430.793C172.191 431.829 174.024 435.352 172.988 438.643ZM170.456 425.868C164.442 423.971 158.038 427.317 156.143 433.33C154.252 439.346 157.585 445.763 163.595 447.657C169.602 449.551 176.009 446.211 177.902 440.195C179.796 434.182 176.461 427.762 170.456 425.868ZM171.556 438.191C170.767 440.701 168.099 442.094 165.596 441.304C163.093 440.513 161.703 437.842 162.492 435.332C163.281 432.825 165.948 431.433 168.455 432.225C170.955 433.014 172.345 435.684 171.556 438.191ZM168.652 431.593C165.799 430.691 162.76 432.28 161.862 435.133C160.963 437.992 162.548 441.032 165.399 441.932C168.249 442.831 171.285 441.247 172.183 438.391C173.082 435.537 171.501 432.493 168.652 431.593ZM171.556 438.191C170.767 440.701 168.099 442.094 165.596 441.304C163.093 440.513 161.703 437.842 162.492 435.332C163.281 432.825 165.948 431.433 168.455 432.225C170.955 433.014 172.345 435.684 171.556 438.191ZM168.652 431.593C165.799 430.691 162.76 432.28 161.862 435.133C160.963 437.992 162.548 441.032 165.399 441.932C168.249 442.831 171.285 441.247 172.183 438.391C173.082 435.537 171.501 432.493 168.652 431.593ZM171.556 438.191C170.767 440.701 168.099 442.094 165.596 441.304C163.093 440.513 161.703 437.842 162.492 435.332C163.281 432.825 165.948 431.433 168.455 432.225C170.955 433.014 172.345 435.684 171.556 438.191ZM168.652 431.593C165.799 430.691 162.76 432.28 161.862 435.133C160.963 437.992 162.548 441.032 165.399 441.932C168.249 442.831 171.285 441.247 172.183 438.391C173.082 435.537 171.501 432.493 168.652 431.593Z" fill="#33535F"/>
<path d="M165.829 447.866L161.645 446.545L160.943 449.584L164.664 450.759L165.829 447.866Z" fill="#33535F"/>
<path d="M158.31 443.941L156.284 440.046L153.643 441.696L155.445 445.162L158.31 443.941Z" fill="#33535F"/>
<path d="M155.764 435.843L157.083 431.654L154.049 430.953L152.875 434.677L155.764 435.843Z" fill="#33535F"/>
<path d="M159.684 428.313L163.574 426.285L161.924 423.64L158.465 425.445L159.684 428.313Z" fill="#33535F"/>
<path d="M167.771 425.764L171.954 427.085L172.657 424.047L168.935 422.873L167.771 425.764Z" fill="#33535F"/>
<path d="M175.289 429.69L177.315 433.586L179.958 431.934L178.155 428.468L175.289 429.69Z" fill="#33535F"/>
<path d="M177.835 437.787L176.518 441.977L179.552 442.679L180.724 438.953L177.835 437.787Z" fill="#33535F"/>
<path d="M173.917 445.316L170.027 447.345L171.676 449.989L175.136 448.186L173.917 445.316Z" fill="#33535F"/>
<path d="M372.224 389.631C369.541 393.25 364.444 394.004 360.832 391.321C357.219 388.636 356.465 383.531 359.147 379.913C361.827 376.297 366.924 375.541 370.538 378.227C374.149 380.911 374.904 386.015 372.224 389.631ZM379.687 395.177C385.425 387.435 383.807 376.5 376.077 370.754C368.343 365.006 357.421 366.626 351.685 374.366C345.944 382.11 347.562 393.047 355.294 398.794C363.026 404.54 373.948 402.921 379.687 395.177Z" fill="#646468"/>
<path d="M358.416 400.211L353.032 396.21L350.502 400.248L355.29 403.807L358.416 400.211Z" fill="#646468"/>
<path d="M349.517 390.78L348.534 384.138L343.895 385.201L344.766 391.108L349.517 390.78Z" fill="#646468"/>
<path d="M349.884 377.807L353.878 372.417L349.847 369.883L346.293 374.676L349.884 377.807Z" fill="#646468"/>
<path d="M359.301 368.894L365.934 367.911L364.872 363.264L358.973 364.138L359.301 368.894Z" fill="#646468"/>
<path d="M372.256 369.261L377.639 373.262L380.17 369.225L375.382 365.665L372.256 369.261Z" fill="#646468"/>
<path d="M381.156 378.693L382.139 385.335L386.778 384.272L385.907 378.364L381.156 378.693Z" fill="#646468"/>
<path d="M380.792 391.664L376.795 397.057L380.827 399.591L384.381 394.795L380.792 391.664Z" fill="#646468"/>
<path d="M371.372 400.578L364.74 401.561L365.802 406.208L371.7 405.334L371.372 400.578Z" fill="#646468"/>
<path d="M366.462 383.216C367.302 383.842 367.477 385.023 366.854 385.864C366.233 386.703 365.051 386.88 364.211 386.256C363.373 385.635 363.199 384.446 363.819 383.609C364.442 382.767 365.626 382.595 366.462 383.216ZM359.441 385.61L363.145 390.287L369.044 389.412L371.232 383.862L367.532 379.187L361.632 380.059L359.441 385.61Z" fill="#646468"/>
<path d="M395.301 60.9705C394.61 63.1653 392.277 64.3838 390.086 63.6917C387.896 63.0009 386.679 60.6634 387.37 58.4686C388.061 56.2739 390.394 55.0567 392.588 55.7487C394.776 56.4395 395.991 58.7758 395.301 60.9705ZM392.759 55.1956C390.263 54.4079 387.606 55.7959 386.819 58.2927C386.031 60.7946 387.419 63.4546 389.915 64.2423C392.408 65.03 395.064 63.6433 395.851 61.1439C396.636 58.6471 395.253 55.9833 392.759 55.1956ZM395.301 60.9705C394.61 63.1653 392.277 64.3838 390.086 63.6917C387.896 63.0009 386.679 60.6634 387.37 58.4686C388.061 56.2739 390.394 55.0567 392.588 55.7487C394.776 56.4395 395.991 58.7758 395.301 60.9705ZM392.759 55.1956C390.263 54.4079 387.606 55.7959 386.819 58.2927C386.031 60.7946 387.419 63.4546 389.915 64.2423C392.408 65.03 395.064 63.6433 395.851 61.1439C396.636 58.6471 395.253 55.9833 392.759 55.1956ZM395.301 60.9705C394.61 63.1653 392.277 64.3838 390.086 63.6917C387.896 63.0009 386.679 60.6634 387.37 58.4686C388.061 56.2739 390.394 55.0567 392.588 55.7487C394.776 56.4395 395.991 58.7758 395.301 60.9705ZM395.851 61.1439C396.636 58.6471 395.253 55.9833 392.759 55.1956C390.263 54.4079 387.606 55.7959 386.819 58.2927C386.031 60.7946 387.419 63.4546 389.915 64.2423C392.408 65.03 395.064 63.6433 395.851 61.1439ZM396.555 61.3644C395.647 64.2474 392.57 65.8546 389.692 64.9471C386.814 64.0384 385.21 60.9565 386.118 58.0735C387.025 55.1892 390.104 53.5859 392.982 54.4933C395.857 55.4021 397.461 58.4839 396.555 61.3644ZM394.339 50.1854C389.076 48.5259 383.473 51.4536 381.815 56.7149C380.16 61.9787 383.077 67.593 388.336 69.2525C393.592 70.9107 399.199 67.9869 400.855 62.723C402.513 57.4604 399.594 51.8436 394.339 50.1854ZM395.301 60.9705C394.61 63.1653 392.277 64.3838 390.086 63.6917C387.896 63.0009 386.679 60.6634 387.37 58.4686C388.061 56.2739 390.394 55.0567 392.588 55.7487C394.776 56.4395 395.991 58.7758 395.301 60.9705ZM392.759 55.1956C390.263 54.4079 387.606 55.7959 386.819 58.2927C386.031 60.7946 387.419 63.4546 389.915 64.2423C392.408 65.03 395.064 63.6433 395.851 61.1439C396.636 58.6471 395.253 55.9833 392.759 55.1956ZM395.301 60.9705C394.61 63.1653 392.277 64.3838 390.086 63.6917C387.896 63.0009 386.679 60.6634 387.37 58.4686C388.061 56.2739 390.394 55.0567 392.588 55.7487C394.776 56.4395 395.991 58.7758 395.301 60.9705ZM392.759 55.1956C390.263 54.4079 387.606 55.7959 386.819 58.2927C386.031 60.7946 387.419 63.4546 389.915 64.2423C392.408 65.03 395.064 63.6433 395.851 61.1439C396.636 58.6471 395.253 55.9833 392.759 55.1956ZM395.301 60.9705C394.61 63.1653 392.277 64.3838 390.086 63.6917C387.896 63.0009 386.679 60.6634 387.37 58.4686C388.061 56.2739 390.394 55.0567 392.588 55.7487C394.776 56.4395 395.991 58.7758 395.301 60.9705ZM392.759 55.1956C390.263 54.4079 387.606 55.7959 386.819 58.2927C386.031 60.7946 387.419 63.4546 389.915 64.2423C392.408 65.03 395.064 63.6433 395.851 61.1439C396.636 58.6471 395.253 55.9833 392.759 55.1956Z" fill="#646468"/>
<path d="M390.29 69.4346L386.629 68.2786L386.016 70.9373L389.272 71.9658L390.29 69.4346Z" fill="#646468"/>
<path d="M383.71 65.999L381.936 62.5909L379.625 64.0362L381.202 67.0684L383.71 65.999Z" fill="#646468"/>
<path d="M381.482 58.9141L382.635 55.2485L379.98 54.6329L378.955 57.8932L381.482 58.9141Z" fill="#646468"/>
<path d="M384.91 52.3262L388.315 50.5507L386.872 48.2362L383.844 49.8153L384.91 52.3262Z" fill="#646468"/>
<path d="M391.988 50.0953L395.649 51.25L396.263 48.5913L393.008 47.564L391.988 50.0953Z" fill="#646468"/>
<path d="M398.566 53.5294L400.338 56.9375L402.651 55.4922L401.075 52.4613L398.566 53.5294Z" fill="#646468"/>
<path d="M400.794 60.6144L399.641 64.2812L402.296 64.8955L403.322 61.6352L400.794 60.6144Z" fill="#646468"/>
<path d="M397.368 67.204L393.963 68.9781L395.405 71.2939L398.433 69.7148L397.368 67.204Z" fill="#646468"/>
<path d="M346.659 243.057C345.967 245.252 343.633 246.471 341.442 245.779C339.252 245.088 338.035 242.75 338.726 240.556C339.417 238.362 341.75 237.144 343.944 237.836C346.133 238.526 347.348 240.863 346.659 243.057ZM344.117 237.282C341.621 236.495 338.962 237.883 338.175 240.38C337.387 242.882 338.775 245.542 341.271 246.33C343.764 247.117 346.42 245.73 347.207 243.231C347.992 240.734 346.61 238.07 344.117 237.282ZM346.659 243.057C345.967 245.252 343.633 246.471 341.442 245.779C339.252 245.088 338.035 242.75 338.726 240.556C339.417 238.362 341.75 237.144 343.944 237.836C346.133 238.526 347.348 240.863 346.659 243.057ZM344.117 237.282C341.621 236.495 338.962 237.883 338.175 240.38C337.387 242.882 338.775 245.542 341.271 246.33C343.764 247.117 346.42 245.73 347.207 243.231C347.992 240.734 346.61 238.07 344.117 237.282ZM346.659 243.057C345.967 245.252 343.633 246.471 341.442 245.779C339.252 245.088 338.035 242.75 338.726 240.556C339.417 238.362 341.75 237.144 343.944 237.836C346.133 238.526 347.348 240.863 346.659 243.057ZM347.207 243.231C347.992 240.734 346.61 238.07 344.117 237.282C341.621 236.495 338.962 237.883 338.175 240.38C337.387 242.882 338.775 245.542 341.271 246.33C343.764 247.117 346.42 245.73 347.207 243.231ZM347.911 243.451C347.003 246.336 343.924 247.941 341.048 247.034C338.171 246.125 336.566 243.043 337.474 240.16C338.381 237.277 341.462 235.673 344.338 236.581C347.213 237.489 348.817 240.571 347.911 243.451ZM345.695 232.272C340.432 230.614 334.829 233.54 333.172 238.802C331.514 244.067 334.432 249.681 339.692 251.339C344.948 252.998 350.555 250.074 352.211 244.81C353.869 239.547 350.949 233.93 345.695 232.272ZM346.659 243.057C345.967 245.252 343.633 246.471 341.442 245.779C339.252 245.088 338.035 242.75 338.726 240.556C339.417 238.362 341.75 237.144 343.944 237.836C346.133 238.526 347.348 240.863 346.659 243.057ZM344.117 237.282C341.621 236.495 338.962 237.883 338.175 240.38C337.387 242.882 338.775 245.542 341.271 246.33C343.764 247.117 346.42 245.73 347.207 243.231C347.992 240.734 346.61 238.07 344.117 237.282ZM346.659 243.057C345.967 245.252 343.633 246.471 341.442 245.779C339.252 245.088 338.035 242.75 338.726 240.556C339.417 238.362 341.75 237.144 343.944 237.836C346.133 238.526 347.348 240.863 346.659 243.057ZM344.117 237.282C341.621 236.495 338.962 237.883 338.175 240.38C337.387 242.882 338.775 245.542 341.271 246.33C343.764 247.117 346.42 245.73 347.207 243.231C347.992 240.734 346.61 238.07 344.117 237.282ZM346.659 243.057C345.967 245.252 343.633 246.471 341.442 245.779C339.252 245.088 338.035 242.75 338.726 240.556C339.417 238.362 341.75 237.144 343.944 237.836C346.133 238.526 347.348 240.863 346.659 243.057ZM344.117 237.282C341.621 236.495 338.962 237.883 338.175 240.38C337.387 242.882 338.775 245.542 341.271 246.33C343.764 247.117 346.42 245.73 347.207 243.231C347.992 240.734 346.61 238.07 344.117 237.282Z" fill="#646468"/>
<path d="M341.645 251.522L337.985 250.367L337.371 253.024L340.627 254.052L341.645 251.522Z" fill="#646468"/>
<path d="M335.067 248.087L333.295 244.678L330.982 246.123L332.559 249.155L335.067 248.087Z" fill="#646468"/>
<path d="M332.839 241.001L333.992 237.335L331.337 236.72L330.312 239.98L332.839 241.001Z" fill="#646468"/>
<path d="M336.27 234.413L339.672 232.638L338.23 230.323L335.203 231.902L336.27 234.413Z" fill="#646468"/>
<path d="M343.346 232.183L347.006 233.338L347.62 230.679L344.365 229.652L343.346 232.183Z" fill="#646468"/>
<path d="M349.926 235.616L351.699 239.025L354.01 237.579L352.435 234.548L349.926 235.616Z" fill="#646468"/>
<path d="M352.153 242.703L351 246.368L353.655 246.982L354.681 243.722L352.153 242.703Z" fill="#646468"/>
<path d="M348.725 249.291L345.32 251.065L346.764 253.381L349.792 251.802L348.725 249.291Z" fill="#646468"/>
<path d="M57.9644 92.0346C57.0471 95.806 53.2558 98.1142 49.494 97.1965C45.7287 96.2776 43.4231 92.4807 44.3401 88.7119C45.2564 84.9444 49.0486 82.6349 52.8134 83.5539C56.5747 84.4715 58.8812 88.2684 57.9644 92.0346ZM65.7396 93.9324C67.7016 85.8671 62.7618 77.733 54.7077 75.769C46.65 73.8024 38.5278 78.7501 36.5648 86.8141C34.6024 94.8819 39.542 103.016 47.5997 104.981C55.6538 106.947 63.7762 102 65.7396 93.9324Z" fill="#646468"/>
<path d="M50.55 105.059L44.9405 103.69L44.2832 107.741L49.2726 108.959L50.55 105.059Z" fill="#646468"/>
<path d="M40.3332 100.561L37.3336 95.6217L34.0078 98.0217L36.6758 102.415L40.3332 100.561Z" fill="#646468"/>
<path d="M36.2856 90.1484L37.6525 84.5315L33.6062 83.8739L32.3906 88.8688L36.2856 90.1484Z" fill="#646468"/>
<path d="M40.7764 79.917L45.7096 76.9142L43.3136 73.5838L38.9258 76.2552L40.7764 79.917Z" fill="#646468"/>
<path d="M51.1758 75.8645L56.7852 77.2334L57.442 73.1829L52.4536 71.9657L51.1758 75.8645Z" fill="#646468"/>
<path d="M61.3926 80.362L64.3928 85.3008L67.7185 82.9008L65.0501 78.5088L61.3926 80.362Z" fill="#646468"/>
<path d="M65.441 90.775L64.0742 96.3919L68.1199 97.0508L69.3355 92.0546L65.441 90.775Z" fill="#646468"/>
<path d="M60.9479 101.006L56.0156 104.009L58.4116 107.339L62.7985 104.667L60.9479 101.006Z" fill="#646468"/>
<path d="M51.2473 88.8786C52.1224 89.0928 52.6564 89.9722 52.4432 90.8478C52.2308 91.7209 51.3517 92.2587 50.4766 92.0459C49.6051 91.833 49.0686 90.9498 49.2809 90.0767C49.4942 89.1998 50.3757 88.6658 51.2473 88.8786ZM46.4776 93.1318L50.9803 95.6006L55.3657 92.9278L55.2463 87.7928L50.7476 85.324L46.3594 87.9941L46.4776 93.1318Z" fill="#646468"/>
<path d="M405.037 249.356C401.612 244.134 399.688 238.264 399.688 232.057C399.688 210.14 423.723 192.369 453.354 192.369C482.984 192.369 506.996 210.14 506.996 232.057C506.996 253.972 482.984 271.743 453.354 271.743C438.986 271.743 425.961 267.574 416.338 260.762L397.852 265.469L405.037 249.356Z" fill="#F5F5F7"/>
<path d="M405.036 249.356L397.98 265.526L397.818 265.334L416.265 260.482L416.393 260.447L416.506 260.525C426.023 267.105 437.504 270.529 448.994 271.144C454.751 271.501 460.542 271.028 466.2 270.005C471.85 268.953 477.417 267.272 482.565 264.7C487.715 262.159 492.512 258.858 496.497 254.742C500.475 250.641 503.62 245.679 505.209 240.197C506.845 234.732 506.69 228.798 504.999 223.378C503.318 217.932 500.101 213.024 496.071 208.979C492.032 204.919 487.2 201.677 482.026 199.194C480.708 198.626 479.427 197.962 478.077 197.471L474.015 196.02L469.852 194.886C468.463 194.511 467.032 194.316 465.623 194.022C459.953 193.06 454.168 192.709 448.416 193.078C442.67 193.487 436.968 194.533 431.486 196.312C426.004 198.08 420.748 200.616 416.073 203.994C411.397 207.35 407.279 211.543 404.308 216.491C401.285 221.416 399.776 227.207 399.842 232.991C399.961 238.786 401.88 244.486 405.036 249.356ZM405.036 249.356C401.806 244.537 399.781 238.846 399.568 233C399.409 227.166 400.844 221.264 403.835 216.216C406.76 211.129 410.93 206.843 415.639 203.394C420.354 199.924 425.663 197.306 431.202 195.463C436.745 193.61 442.52 192.498 448.345 192.032C454.178 191.605 460.052 191.967 465.817 192.921C467.247 193.215 468.701 193.411 470.116 193.787L474.355 194.929L478.496 196.394C479.873 196.891 481.18 197.563 482.527 198.139C487.813 200.656 492.768 203.954 496.934 208.118C501.091 212.266 504.442 217.333 506.21 223.004C507.976 228.652 508.103 234.856 506.387 240.538C504.716 246.239 501.441 251.358 497.34 255.561C493.231 259.779 488.315 263.136 483.057 265.711C477.801 268.316 472.136 270.013 466.392 271.058C460.638 272.047 454.766 272.471 448.939 272.059C443.113 271.691 437.324 270.624 431.781 268.792C426.242 266.965 420.912 264.415 416.17 260.999L416.408 261.044L397.887 265.604L397.605 265.673L397.725 265.411L405.036 249.356Z" fill="#646468"/>
<path d="M425.748 238.554V241.505H413.74V224.188H425.529V227.138H417.102V231.31H424.385V234.041H417.102V238.554H425.748Z" fill="#646468"/>
<path d="M431.74 232.749H435.955C436.263 232.749 436.552 232.676 436.819 232.53C437.088 232.383 437.318 232.184 437.513 231.932C437.709 231.679 437.863 231.384 437.976 231.041C438.091 230.699 438.148 230.334 438.148 229.944C438.148 229.537 438.082 229.164 437.952 228.822C437.822 228.48 437.648 228.183 437.427 227.932C437.209 227.68 436.957 227.484 436.673 227.346C436.389 227.208 436.1 227.138 435.808 227.138H431.74V232.749ZM428.379 241.505V224.188H436.027C436.823 224.188 437.559 224.355 438.232 224.687C438.905 225.021 439.486 225.46 439.973 226.004C440.461 226.549 440.842 227.168 441.119 227.858C441.394 228.549 441.532 229.245 441.532 229.944C441.532 231.065 441.252 232.086 440.692 233.005C440.132 233.924 439.372 234.587 438.414 234.993L442.361 241.505H438.584L435.054 235.701H431.74V241.505H428.379Z" fill="#646468"/>
<path d="M447.939 232.749H452.152C452.461 232.749 452.749 232.676 453.016 232.53C453.285 232.383 453.517 232.184 453.711 231.932C453.906 231.679 454.06 231.384 454.173 231.041C454.288 230.699 454.345 230.334 454.345 229.944C454.345 229.537 454.279 229.164 454.15 228.822C454.019 228.48 453.846 228.183 453.626 227.932C453.407 227.68 453.155 227.484 452.871 227.346C452.586 227.208 452.298 227.138 452.006 227.138H447.939V232.749ZM444.576 241.505V224.188H452.226C453.021 224.188 453.756 224.355 454.43 224.687C455.104 225.021 455.684 225.46 456.172 226.004C456.658 226.549 457.04 227.168 457.316 227.858C457.592 228.549 457.73 229.245 457.73 229.944C457.73 231.065 457.451 232.086 456.89 233.005C456.331 233.924 455.571 234.587 454.612 234.993L458.56 241.505H454.783L451.251 235.701H447.939V241.505H444.576Z" fill="#646468"/>
<path d="M463.139 232.845C463.139 233.594 463.252 234.317 463.48 235.017C463.708 235.716 464.036 236.334 464.467 236.87C464.897 237.407 465.425 237.838 466.05 238.163C466.676 238.489 467.385 238.651 468.182 238.651C468.994 238.651 469.712 238.485 470.338 238.151C470.963 237.819 471.49 237.375 471.922 236.822C472.352 236.269 472.675 235.647 472.895 234.956C473.114 234.265 473.224 233.562 473.224 232.845C473.224 232.098 473.105 231.375 472.871 230.675C472.634 229.976 472.304 229.358 471.873 228.822C471.442 228.285 470.915 227.858 470.289 227.541C469.664 227.223 468.962 227.065 468.182 227.065C467.37 227.065 466.647 227.232 466.014 227.565C465.381 227.899 464.852 228.337 464.431 228.883C464.008 229.427 463.688 230.045 463.469 230.736C463.249 231.428 463.139 232.13 463.139 232.845ZM468.158 241.627C466.891 241.627 465.742 241.38 464.711 240.884C463.679 240.387 462.794 239.729 462.056 238.907C461.316 238.086 460.744 237.147 460.338 236.09C459.933 235.034 459.73 233.952 459.73 232.845C459.73 231.692 459.946 230.587 460.375 229.529C460.805 228.472 461.398 227.537 462.153 226.724C462.909 225.911 463.806 225.264 464.845 224.785C465.885 224.305 467.012 224.065 468.23 224.065C469.482 224.065 470.621 224.321 471.653 224.834C472.684 225.346 473.566 226.016 474.296 226.846C475.026 227.675 475.595 228.619 476.001 229.676C476.407 230.732 476.61 231.805 476.61 232.895C476.61 234.05 476.398 235.151 475.977 236.2C475.554 237.249 474.969 238.176 474.223 238.98C473.476 239.785 472.582 240.428 471.544 240.908C470.504 241.387 469.376 241.627 468.158 241.627Z" fill="#646468"/>
<path d="M482.553 232.749H486.767C487.075 232.749 487.364 232.676 487.63 232.53C487.899 232.383 488.131 232.184 488.325 231.932C488.521 231.679 488.675 231.384 488.789 231.041C488.903 230.699 488.959 230.334 488.959 229.944C488.959 229.537 488.894 229.164 488.764 228.822C488.635 228.48 488.46 228.183 488.24 227.932C488.021 227.68 487.769 227.484 487.485 227.346C487.201 227.208 486.912 227.138 486.621 227.138H482.553V232.749ZM479.191 241.505V224.188H486.84C487.635 224.188 488.371 224.355 489.044 224.687C489.718 225.021 490.298 225.46 490.786 226.004C491.273 226.549 491.655 227.168 491.93 227.858C492.206 228.549 492.345 229.245 492.345 229.944C492.345 231.065 492.065 232.086 491.504 233.005C490.945 233.924 490.185 234.587 489.226 234.993L493.173 241.505H489.397L485.866 235.701H482.553V241.505H479.191Z" fill="#646468"/>
</svg>
