<svg aria-hidden="true" xmlns="http://www.w3.org/2000/svg" xmlns:xlink="http://www.w3.org/1999/xlink"><symbol viewBox="0 0 43 43" id="gear" xmlns="http://www.w3.org/2000/svg">
<path d="M14.3027 14.1953C14.3027 14.1953 14.804 13.694 15.8066 12.6914C16.8092 11.6888 18.7428 11.1875 21.6074 11.1875C24.472 11.1875 26.9069 12.1901 28.9121 14.1953C30.9173 16.2005 31.9199 18.6354 31.9199 21.5C31.9199 24.3646 30.9173 26.7995 28.9121 28.8047C26.9069 30.8099 24.472 31.8125 21.6074 31.8125C18.7428 31.8125 16.3079 30.8099 14.3027 28.8047C12.2975 26.7995 11.2949 24.3646 11.2949 21.5C11.2949 18.6354 12.2975 16.2005 14.3027 14.1953ZM15.5381 27.5693C15.5381 27.5693 15.9588 27.9901 16.8003 28.8315C17.6418 29.673 19.2441 30.0938 21.6074 30.0938C23.9707 30.0938 25.9938 29.2523 27.6768 27.5693C29.3597 25.8864 30.2012 23.8633 30.2012 21.5C30.2012 19.1367 29.3597 17.1136 27.6768 15.4307C25.9938 13.7477 23.9707 12.9062 21.6074 12.9062C19.2441 12.9062 17.221 13.7477 15.5381 15.4307C13.8551 17.1136 13.0137 19.1367 13.0137 21.5C13.0137 23.8633 13.8551 25.8864 15.5381 27.5693ZM15.6992 2.91602C14.625 3.27409 13.5508 3.70378 12.4766 4.20508C12.6198 4.77799 12.6198 5.63737 12.4766 6.7832C12.2617 8.21549 11.6172 9.46875 10.543 10.543C9.18229 11.9036 7.53516 12.584 5.60156 12.584C4.95703 12.584 4.49154 12.5482 4.20508 12.4766C3.70378 13.5508 3.27409 14.625 2.91602 15.6992C3.48893 16.0573 4.09766 16.666 4.74219 17.5254C5.60156 18.6712 6.03125 19.9961 6.03125 21.5C6.03125 22.9323 5.60156 24.2572 4.74219 25.4746C4.09766 26.334 3.48893 26.9427 2.91602 27.3008C3.27409 28.375 3.70378 29.4492 4.20508 30.5234C4.49154 30.4518 4.95703 30.416 5.60156 30.416C7.53516 30.416 9.18229 31.0964 10.543 32.457C11.6172 33.5312 12.2617 34.7845 12.4766 36.2168C12.6198 37.3626 12.6198 38.222 12.4766 38.7949C13.5508 39.2962 14.625 39.7259 15.6992 40.084C16.0573 39.5111 16.666 38.9023 17.5254 38.2578C18.7428 37.3984 20.0677 36.9688 21.5 36.9688C23.0039 36.9688 24.3288 37.3984 25.4746 38.2578C26.334 38.9023 26.9427 39.5111 27.3008 40.084C28.375 39.7259 29.4492 39.2962 30.5234 38.7949C30.3802 38.222 30.3802 37.3626 30.5234 36.2168C30.7383 34.7845 31.3828 33.5312 32.457 32.457C33.8177 31.0964 35.4648 30.416 37.3984 30.416C38.043 30.416 38.5085 30.4518 38.7949 30.5234C39.2962 29.4492 39.7259 28.375 40.084 27.3008C39.5111 26.9427 38.9023 26.334 38.2578 25.4746C37.3984 24.2572 36.9688 22.9323 36.9688 21.5C36.9688 19.9961 37.3984 18.6712 38.2578 17.5254C38.9023 16.666 39.5111 16.0573 40.084 15.6992C39.7259 14.625 39.2962 13.5508 38.7949 12.4766C38.5085 12.5482 38.043 12.584 37.3984 12.584C35.4648 12.584 33.8177 11.9036 32.457 10.543C31.3828 9.46875 30.7383 8.21549 30.5234 6.7832C30.3802 5.63737 30.3802 4.77799 30.5234 4.20508C29.4492 3.70378 28.375 3.27409 27.3008 2.91602C26.9427 3.48893 26.334 4.09766 25.4746 4.74219C24.3288 5.60156 23.0039 6.03125 21.5 6.03125C20.0677 6.03125 18.7428 5.60156 17.5254 4.74219C16.666 4.09766 16.0573 3.48893 15.6992 2.91602ZM26.4414 0.875C28.7331 1.44792 30.7741 2.30729 32.5645 3.45312C31.5618 5.67318 31.9199 7.64258 33.6387 9.36133C34.6413 10.3639 35.8945 10.8652 37.3984 10.8652C38.2578 10.8652 38.974 10.722 39.5469 10.4355C40.6927 12.2259 41.5521 14.2669 42.125 16.5586C39.8333 17.418 38.6875 19.0651 38.6875 21.5C38.6875 23.9349 39.8333 25.582 42.125 26.4414C41.5521 28.7331 40.6927 30.7741 39.5469 32.5645C38.974 32.278 38.2578 32.1348 37.3984 32.1348C35.8945 32.1348 34.6413 32.6361 33.6387 33.6387C31.9199 35.3574 31.5618 37.3268 32.5645 39.5469C30.7741 40.6927 28.7331 41.5521 26.4414 42.125C25.582 39.8333 23.9349 38.6875 21.5 38.6875C19.0651 38.6875 17.418 39.8333 16.5586 42.125C14.2669 41.5521 12.2259 40.6927 10.4355 39.5469C11.4382 37.3268 11.0801 35.3574 9.36133 33.6387C8.35872 32.6361 7.10547 32.1348 5.60156 32.1348C4.74219 32.1348 4.02604 32.278 3.45312 32.5645C2.30729 30.7741 1.44792 28.7331 0.875 26.4414C3.16667 25.582 4.3125 23.9349 4.3125 21.5C4.3125 19.0651 3.16667 17.418 0.875 16.5586C1.44792 14.2669 2.30729 12.2259 3.45312 10.4355C4.02604 10.722 4.74219 10.8652 5.60156 10.8652C7.10547 10.8652 8.35872 10.3639 9.36133 9.36133C11.0801 7.64258 11.4382 5.67318 10.4355 3.45312C12.2259 2.30729 14.2669 1.44792 16.5586 0.875C17.418 3.16667 19.0651 4.3125 21.5 4.3125C23.9349 4.3125 25.582 3.16667 26.4414 0.875Z"/>
</symbol><symbol viewBox="0 0 43 43" id="house" xmlns="http://www.w3.org/2000/svg">
<path d="M21.5 6.03125L38.6875 19.7812V42.125H26.6562V28.375H16.3438V42.125H4.3125V19.7812L21.5 6.03125ZM36.9688 40.4062V20.6406L21.5 8.17969L6.03125 20.6406V40.4062H14.625V26.6562H28.375V40.4062H36.9688ZM21.5 0.875L42.125 17.3105L40.8359 18.5996L21.5 3.02344L2.16406 18.5996L0.875 17.3105L4.3125 14.625V4.3125H11.1875V9.14648L21.5 0.875ZM9.46875 10.543V6.03125H6.03125V13.2285L9.46875 10.543Z"/>
</symbol><symbol viewBox="0 0 49 49" id="pie" xmlns="http://www.w3.org/2000/svg">
<path d="M27.9375 5.70117V27.9375V29.2266L26.6484 29.6562L7.3125 34.4902C7.95703 35.8509 8.70898 37.14 9.56836 38.3574C10.929 40.2194 12.3971 41.7233 13.9727 42.8691C17.625 45.5189 21.707 46.8438 26.2188 46.8438C29.0117 46.8438 31.6973 46.3066 34.2754 45.2324C36.7819 44.1582 38.9661 42.6901 40.8281 40.8281C42.6901 38.9661 44.1582 36.7819 45.2324 34.2754C46.3066 31.6973 46.8438 29.0117 46.8438 26.2188C46.8438 20.4896 44.8385 15.6198 40.8281 11.6094C37.319 8.10026 33.0221 6.13086 27.9375 5.70117ZM26.2188 3.875C32.3776 3.875 37.6413 6.05924 42.0098 10.4277C46.3783 14.7962 48.5625 20.0599 48.5625 26.2188C48.5625 32.3776 46.3783 37.6413 42.0098 42.0098C37.6413 46.3783 32.3776 48.5625 26.2188 48.5625C21.349 48.5625 16.9447 47.1302 13.0059 44.2656C9.06706 41.401 6.38151 37.7129 4.94922 33.2012L26.2188 27.9375V3.875ZM22.7812 2.15625C19.3438 2.29948 16.3001 2.94401 13.6504 4.08984C11.0723 5.23568 8.88802 6.88281 7.09766 9.03125C3.80339 12.8984 2.15625 17.446 2.15625 22.6738C2.15625 25.3952 2.58594 27.9017 3.44531 30.1934L22.7812 25.252V2.15625ZM24.5 0.4375V26.6484L2.47852 32.2344C1.9056 31.2318 1.4401 29.9248 1.08203 28.3135C0.723958 26.7021 0.509115 25.3594 0.4375 24.2852V22.6738C0.4375 20.0957 0.867188 17.5534 1.72656 15.0469C2.58594 12.5404 3.8929 10.1592 5.64746 7.90332C7.40202 5.64746 9.85482 3.83919 13.0059 2.47852C16.1569 1.11784 19.7734 0.4375 23.8555 0.4375H24.5Z"/>
</symbol><symbol viewBox="0 0 53 44" id="process" xmlns="http://www.w3.org/2000/svg">
<path d="M51.3477 21.9141L52.5293 23.0957L46.9434 28.7891L41.25 23.0957L42.3242 21.9141L46.9434 26.3184L51.3477 21.9141ZM48.2324 21.9141C48.2324 22.9167 48.1966 23.6686 48.125 24.1699L46.4062 24.0625C46.4779 23.5612 46.5137 22.8092 46.5137 21.8066C46.4421 16.2923 44.4368 11.5658 40.498 7.62695C36.5592 3.68815 31.8327 1.71875 26.3184 1.71875C22.666 1.71875 19.2643 2.64974 16.1133 4.51172C12.9622 6.3737 10.4915 8.88021 8.70117 12.0312L7.19727 11.1719C9.13086 7.73438 11.8164 5.01302 15.2539 3.00781C18.6914 1.0026 22.3796 0 26.3184 0C32.334 0 37.4723 2.13053 41.7334 6.3916C45.9945 10.6527 48.1608 15.7552 48.2324 21.6992V21.9141ZM43.9355 31.7969L45.4395 32.6562C43.5059 36.0938 40.8203 38.8151 37.3828 40.8203C33.9453 42.8255 30.2572 43.8281 26.3184 43.8281C20.3743 43.8281 15.2718 41.7334 11.0107 37.5439C6.74967 33.3545 4.54753 28.2878 4.4043 22.3438V22.0215V21.9141C4.4043 20.9115 4.4401 20.1595 4.51172 19.6582L6.23047 19.7656C6.15885 20.2669 6.12305 21.0189 6.12305 22.0215C6.12305 27.5358 8.11035 32.2624 12.085 36.2012C16.0596 40.14 20.804 42.1094 26.3184 42.1094C29.9707 42.1094 33.3724 41.1784 36.5234 39.3164C39.6745 37.4544 42.1452 34.9479 43.9355 31.7969ZM5.69336 15.0391L11.2793 20.7324L10.0977 21.9141L5.69336 17.5098L1.18164 21.9141L0 20.7324L5.69336 15.0391Z"/>
</symbol><symbol viewBox="0 0 43 43" id="table" xmlns="http://www.w3.org/2000/svg">
<path d="M40.4062 2.59375H2.59375V40.4062H40.4062V2.59375ZM42.125 0.875V42.125H0.875V0.875H42.125ZM14.625 12.0469V10.3281H35.25V12.0469H14.625ZM14.625 22.3594V20.6406H35.25V22.3594H14.625ZM14.625 32.6719V30.9531H35.25V32.6719H14.625ZM9.46875 12.9062C9.46875 12.9062 9.18229 12.9062 8.60938 12.9062C8.03646 12.9062 7.75 12.3333 7.75 11.1875C7.75 10.0417 8.32292 9.46875 9.46875 9.46875C10.6146 9.46875 11.1875 10.0417 11.1875 11.1875C11.1875 12.3333 10.6146 12.9062 9.46875 12.9062ZM9.46875 23.2188C9.46875 23.2188 9.18229 23.2188 8.60938 23.2188C8.03646 23.2188 7.75 22.6458 7.75 21.5C7.75 20.3542 8.32292 19.7812 9.46875 19.7812C10.6146 19.7812 11.1875 20.3542 11.1875 21.5C11.1875 22.6458 10.6146 23.2188 9.46875 23.2188ZM9.46875 33.5312C9.46875 33.5312 9.18229 33.5312 8.60938 33.5312C8.03646 33.5312 7.75 32.9583 7.75 31.8125C7.75 30.6667 8.32292 30.0938 9.46875 30.0938C10.6146 30.0938 11.1875 30.6667 11.1875 31.8125C11.1875 32.9583 10.6146 33.5312 9.46875 33.5312Z"/>
</symbol></svg>