<svg width="162" height="50" viewBox="0 0 162 50" fill="none" xmlns="http://www.w3.org/2000/svg">
<rect x="0.5" y="0.5" width="161" height="49" rx="5.5" fill="black"/>
<rect x="0.5" y="0.5" width="161" height="49" rx="5.5" stroke="#6D6D6D"/>
<path fill-rule="evenodd" clip-rule="evenodd" d="M11.7574 9.43375C11.3947 9.81875 11.1816 10.415 11.1816 11.1887V38.8112C11.1816 39.585 11.3947 40.1812 11.7574 40.5662L11.8496 40.6562L27.2757 25.1825V24.8175L11.8496 9.34375L11.7574 9.43375Z" fill="#00D7FE"/>
<mask id="mask0_1239_3368" style="mask-type:alpha" maskUnits="userSpaceOnUse" x="27" y="19" width="13" height="12">
<path d="M32.4163 30.3429L27.2759 25.1829V24.8179L32.4188 19.6592L38.6271 23.1967C40.3667 24.1892 40.3667 25.8117 38.6271 26.8029L32.5346 30.2754L32.4163 30.3429Z" fill="white"/>
</mask>
<g mask="url(#mask0_1239_3368)">
<path fill-rule="evenodd" clip-rule="evenodd" d="M32.4163 30.3429L27.2759 25.1829V24.8179L32.4188 19.6592L38.6271 23.1967C40.3667 24.1892 40.3667 25.8117 38.6271 26.8029L32.5346 30.2754L32.4163 30.3429Z" fill="url(#paint0_linear_1239_3368)"/>
</g>
<mask id="mask1_1239_3368" style="mask-type:alpha" maskUnits="userSpaceOnUse" x="11" y="25" width="22" height="17">
<path d="M32.5344 30.275L27.2757 25L11.7573 40.5662C12.3318 41.175 13.2789 41.25 14.3456 40.6425L32.5344 30.275Z" fill="white"/>
</mask>
<g mask="url(#mask1_1239_3368)">
<path fill-rule="evenodd" clip-rule="evenodd" d="M32.5344 30.275L27.2757 25L11.7573 40.5662C12.3318 41.175 13.2789 41.25 14.3456 40.6425L32.5344 30.275Z" fill="url(#paint1_linear_1239_3368)"/>
</g>
<mask id="mask2_1239_3368" style="mask-type:alpha" maskUnits="userSpaceOnUse" x="11" y="8" width="22" height="17">
<path d="M32.5344 19.7252L14.3456 9.35772C13.2789 8.75022 12.3318 8.82522 11.7573 9.43397L27.2757 25.0002L32.5344 19.7252Z" fill="white"/>
</mask>
<g mask="url(#mask2_1239_3368)">
<path fill-rule="evenodd" clip-rule="evenodd" d="M32.5344 19.7252L14.3456 9.35772C13.2789 8.75022 12.3318 8.82522 11.7573 9.43397L27.2757 25.0002L32.5344 19.7252Z" fill="url(#paint2_linear_1239_3368)"/>
</g>
<path fill-rule="evenodd" clip-rule="evenodd" d="M129.468 38.6912H131.793V23.065H129.468V38.6912ZM150.412 28.6937L147.747 35.4688H147.667L144.9 28.6937H142.396L146.544 38.1625L144.179 43.43H146.605L152.998 28.6937H150.412ZM137.225 36.9163C136.463 36.9163 135.401 36.535 135.401 35.59C135.401 34.3837 136.724 33.9212 137.866 33.9212C138.889 33.9212 139.369 34.1425 139.991 34.4438C139.81 35.8913 138.567 36.9163 137.225 36.9163ZM137.506 28.3525C135.822 28.3525 134.079 29.0963 133.357 30.745L135.421 31.6088C135.862 30.745 136.683 30.4625 137.546 30.4625C138.748 30.4625 139.971 31.1862 139.991 32.4738V32.6338C139.569 32.3925 138.668 32.0312 137.566 32.0312C135.341 32.0312 133.076 33.2575 133.076 35.5487C133.076 37.64 134.9 38.9875 136.944 38.9875C138.508 38.9875 139.369 38.2837 139.911 37.4587H139.991V38.665H142.235V32.675C142.235 29.9 140.171 28.3525 137.506 28.3525ZM123.135 30.5962H119.828V25.24H123.135C124.873 25.24 125.86 26.6837 125.86 27.9175C125.86 29.1287 124.873 30.5962 123.135 30.5962ZM123.075 23.065H117.504V38.6912H119.828V32.7712H123.075C125.652 32.7712 128.186 30.8987 128.186 27.9175C128.186 24.9362 125.652 23.065 123.075 23.065ZM92.6928 36.9187C91.0865 36.9187 89.7419 35.57 89.7419 33.7175C89.7419 31.845 91.0865 30.475 92.6928 30.475C94.2792 30.475 95.5228 31.845 95.5228 33.7175C95.5228 35.57 94.2792 36.9187 92.6928 36.9187ZM95.3621 29.5688H95.2823C94.7602 28.945 93.757 28.3812 92.4922 28.3812C89.8416 28.3812 87.4129 30.7163 87.4129 33.7175C87.4129 36.6975 89.8416 39.0138 92.4922 39.0138C93.757 39.0138 94.7602 38.45 95.2823 37.805H95.3621V38.57C95.3621 40.605 94.2792 41.6925 92.5321 41.6925C91.1065 41.6925 90.2229 40.665 89.8616 39.7988L87.8341 40.645C88.416 42.055 89.9625 43.7862 92.5321 43.7862C95.2624 43.7862 97.5715 42.175 97.5715 38.2488V28.7025H95.3621V29.5688ZM99.1778 38.6912H101.507V23.0638H99.1778V38.6912ZM104.939 33.5363C104.879 31.4825 106.525 30.435 107.709 30.435C108.634 30.435 109.416 30.8975 109.677 31.5625L104.939 33.5363ZM112.166 31.7637C111.725 30.5762 110.379 28.3812 107.629 28.3812C104.899 28.3812 102.631 30.535 102.631 33.6975C102.631 36.6775 104.879 39.0138 107.89 39.0138C110.32 39.0138 111.725 37.5238 112.307 36.6575L110.5 35.4487C109.898 36.335 109.075 36.9187 107.89 36.9187C106.706 36.9187 105.862 36.375 105.32 35.3088L112.407 32.3688L112.166 31.7637ZM55.7057 30.0125V32.2675H61.0854C60.9246 33.5362 60.5034 34.4625 59.8616 35.1075C59.0778 35.8925 57.8528 36.7575 55.7057 36.7575C52.3935 36.7575 49.8027 34.08 49.8027 30.7575C49.8027 27.4338 52.3935 24.7563 55.7057 24.7563C57.4927 24.7563 58.7974 25.4612 59.7607 26.3675L61.3471 24.7763C60.0012 23.4875 58.2155 22.5 55.7057 22.5C51.1685 22.5 47.354 26.2063 47.354 30.7575C47.354 35.3088 51.1685 39.0138 55.7057 39.0138C58.1544 39.0138 60.0012 38.2087 61.4468 36.6975C62.9322 35.2075 63.3945 33.1137 63.3945 31.4212C63.3945 30.8975 63.3546 30.415 63.2736 30.0125H55.7057ZM69.5119 36.9187C67.9056 36.9187 66.5198 35.59 66.5198 33.6975C66.5198 31.7838 67.9056 30.475 69.5119 30.475C71.1169 30.475 72.5026 31.7838 72.5026 33.6975C72.5026 35.59 71.1169 36.9187 69.5119 36.9187ZM69.5119 28.3812C66.5797 28.3812 64.1908 30.6163 64.1908 33.6975C64.1908 36.7575 66.5797 39.0138 69.5119 39.0138C72.4428 39.0138 74.8317 36.7575 74.8317 33.6975C74.8317 30.6163 72.4428 28.3812 69.5119 28.3812ZM81.1173 36.9187C79.511 36.9187 78.1253 35.59 78.1253 33.6975C78.1253 31.7838 79.511 30.475 81.1173 30.475C82.7236 30.475 84.1081 31.7838 84.1081 33.6975C84.1081 35.59 82.7236 36.9187 81.1173 36.9187ZM81.1173 28.3812C78.1863 28.3812 75.7975 30.6163 75.7975 33.6975C75.7975 36.7575 78.1863 39.0138 81.1173 39.0138C84.0482 39.0138 86.4371 36.7575 86.4371 33.6975C86.4371 30.6163 84.0482 28.3812 81.1173 28.3812Z" fill="#FFFFFE"/>
<path d="M54.1718 13.5175V16.4453C54.0732 16.5918 53.9163 16.7566 53.7009 16.9397C53.4855 17.1191 53.1879 17.2766 52.8082 17.4121C52.4322 17.5439 51.9466 17.6099 51.3515 17.6099C50.866 17.6099 50.4188 17.5256 50.0099 17.3572C49.6046 17.1851 49.2523 16.936 48.9529 16.6101C48.6572 16.2805 48.4272 15.8813 48.2629 15.4126C48.1023 14.9402 48.022 14.4055 48.022 13.8086V13.1879C48.022 12.5909 48.0913 12.0581 48.2301 11.5894C48.3725 11.1206 48.5806 10.7233 48.8544 10.3973C49.1282 10.0677 49.4641 9.81873 49.862 9.65027C50.2599 9.47815 50.7163 9.39209 51.2311 9.39209C51.8408 9.39209 52.35 9.49829 52.7589 9.71069C53.1715 9.91943 53.4928 10.2087 53.7228 10.5786C53.9564 10.9485 54.1061 11.3696 54.1718 11.842H53.1149C53.0674 11.5527 52.9725 11.2891 52.8301 11.051C52.6914 10.813 52.4924 10.6226 52.2332 10.4797C51.974 10.3333 51.64 10.26 51.2311 10.26C50.8623 10.26 50.5429 10.3278 50.2727 10.4633C50.0026 10.5988 49.7799 10.7928 49.6046 11.0455C49.4294 11.2982 49.2979 11.604 49.2103 11.9629C49.1264 12.3218 49.0844 12.7264 49.0844 13.1769V13.8086C49.0844 14.27 49.1373 14.682 49.2432 15.0446C49.3527 15.4071 49.5079 15.7166 49.7087 15.9729C49.9095 16.2256 50.1486 16.4178 50.4261 16.5497C50.7072 16.6815 51.0175 16.7474 51.357 16.7474C51.7331 16.7474 52.0379 16.7163 52.2716 16.6541C52.5052 16.5881 52.6877 16.5112 52.8192 16.4233C52.9506 16.3318 53.051 16.2457 53.1204 16.1652V14.3744H51.2749V13.5175H54.1718Z" fill="white"/>
<path d="M60.6533 16.6376V17.5H56.4311V16.6376H60.6533ZM56.6447 9.50195V17.5H55.5878V9.50195H56.6447ZM60.0947 12.9407V13.8031H56.4311V12.9407H60.0947ZM60.5985 9.50195V10.3699H56.4311V9.50195H60.5985Z" fill="white"/>
<path d="M64.6814 9.50195V17.5H63.6409V9.50195H64.6814ZM67.2443 9.50195V10.3699H61.0835V9.50195H67.2443Z" fill="white"/>
<path d="M71.4507 9.50195V17.5H70.3938V9.50195H71.4507Z" fill="white"/>
<path d="M75.8184 9.50195V17.5H74.7779V9.50195H75.8184ZM78.3813 9.50195V10.3699H72.2205V9.50195H78.3813Z" fill="white"/>
<path d="M87.593 13.2483V13.7537C87.593 14.3542 87.5182 14.8926 87.3685 15.3687C87.2188 15.8447 87.0034 16.2494 86.7223 16.5826C86.4412 16.9159 86.1035 17.1704 85.7092 17.3462C85.3185 17.522 84.8804 17.6099 84.3949 17.6099C83.9239 17.6099 83.4913 17.522 83.097 17.3462C82.7064 17.1704 82.3668 16.9159 82.0784 16.5826C81.7936 16.2494 81.5728 15.8447 81.4158 15.3687C81.2588 14.8926 81.1803 14.3542 81.1803 13.7537V13.2483C81.1803 12.6477 81.257 12.1112 81.4103 11.6388C81.5673 11.1627 81.7882 10.7581 82.0729 10.4248C82.3577 10.0879 82.6954 9.83154 83.086 9.65576C83.4803 9.47998 83.913 9.39209 84.3839 9.39209C84.8695 9.39209 85.3076 9.47998 85.6982 9.65576C86.0925 9.83154 86.4302 10.0879 86.7113 10.4248C86.9961 10.7581 87.2133 11.1627 87.363 11.6388C87.5163 12.1112 87.593 12.6477 87.593 13.2483ZM86.547 13.7537V13.2373C86.547 12.7612 86.4978 12.3401 86.3992 11.9739C86.3043 11.6077 86.1637 11.3 85.9775 11.051C85.7913 10.802 85.5631 10.6134 85.293 10.4852C85.0265 10.3571 84.7234 10.293 84.3839 10.293C84.0553 10.293 83.7578 10.3571 83.4913 10.4852C83.2284 10.6134 83.0021 10.802 82.8122 11.051C82.626 11.3 82.4818 11.6077 82.3796 11.9739C82.2774 12.3401 82.2263 12.7612 82.2263 13.2373V13.7537C82.2263 14.2334 82.2774 14.6582 82.3796 15.0281C82.4818 15.3943 82.6279 15.7037 82.8177 15.9564C83.0112 16.2054 83.2394 16.394 83.5022 16.5222C83.7687 16.6504 84.0663 16.7145 84.3949 16.7145C84.738 16.7145 85.0429 16.6504 85.3094 16.5222C85.5759 16.394 85.8004 16.2054 85.983 15.9564C86.1692 15.7037 86.3097 15.3943 86.4047 15.0281C86.4996 14.6582 86.547 14.2334 86.547 13.7537Z" fill="white"/>
<path d="M94.9726 9.50195V17.5H93.9102L89.8961 11.3312V17.5H88.8392V9.50195H89.8961L93.9266 15.6873V9.50195H94.9726Z" fill="white"/>
<defs>
<linearGradient id="paint0_linear_1239_3368" x1="37.4953" y1="25.0008" x2="27.2759" y2="25.0008" gradientUnits="userSpaceOnUse">
<stop stop-color="#FFBC00"/>
<stop offset="1" stop-color="#FFDA03"/>
</linearGradient>
<linearGradient id="paint1_linear_1239_3368" x1="29.6765" y1="29.9635" x2="16.3051" y2="40.9512" gradientUnits="userSpaceOnUse">
<stop stop-color="#E22652"/>
<stop offset="1" stop-color="#FF3A44"/>
</linearGradient>
<linearGradient id="paint2_linear_1239_3368" x1="14.1072" y1="11.3079" x2="23.0239" y2="19.1243" gradientUnits="userSpaceOnUse">
<stop stop-color="#0ED574"/>
<stop offset="1" stop-color="#07F076"/>
</linearGradient>
</defs>
</svg>
