<svg width="1096" height="557" viewBox="0 0 1096 557" fill="none" xmlns="http://www.w3.org/2000/svg">
<path d="M1096 61.005C1047.73 59.434 1004.47 36.029 957 30.183C937.34 27.762 919.056 29.679 901.593 39.495C886.303 48.089 873.628 60.568 858.528 69.455C824.417 89.53 787.304 77.82 752.246 66.029C709.478 51.645 664.978 28.646 619.392 25.318C588.319 23.049 577.439 41.66 562.256 64.633C545.258 90.351 518.347 94.521 490.956 80.982C459.528 65.447 437.303 35.401 404.82 21.689C369.03 6.581 327.22 25.281 293.262 37.4C273.772 44.355 254.141 51.614 233.752 55.496C212.021 59.634 192.019 57.162 170.78 51.528C114.084 36.487 59.315 4.17 0.00195312 1.011V0C59.318 3.167 114.119 35.473 170.822 50.513C192.046 56.143 212.008 58.612 233.722 54.472C254.122 50.583 273.768 43.332 293.275 36.386C327.227 24.297 369.058 5.572 404.833 20.674C437.321 34.388 459.551 64.437 490.984 79.974C518.412 93.531 545.292 89.351 562.299 63.625C577.511 40.614 588.187 22.013 619.373 24.307C664.973 27.661 709.506 50.634 752.299 65.008C787.351 76.782 824.518 88.542 858.619 68.431C873.666 59.557 886.268 47.074 901.506 38.493C918.96 28.664 937.314 26.744 956.971 29.157C1004.45 34.985 1047.71 58.476 1096 59.999V61.004L1096 61.005Z" fill="url(#paint0_linear_1_2310)"/>
<path d="M1096 73.333C1048.37 71.395 1005.37 49.359 958.478 43.537C938.473 41.054 920.685 43.199 902.764 52.768C886.22 61.601 871.975 74.115 855.6 83.228C820.782 102.606 784.978 92.178 749.371 79.789C707.335 65.163 664.019 42.119 619.016 38.731C588.439 36.429 575.686 55.902 559.235 77.711C540.691 102.295 514.773 107.712 486.821 93.89C455.529 78.416 433.465 48.332 401.076 34.771C365.215 19.755 324.375 38.056 290.572 50.715C249.23 66.196 212.869 76.811 169 65.079C112.807 50.051 58.873 17.595 0.00195312 14.524V13.486C58.931 16.562 112.954 49.008 169.212 64.035C213.116 75.763 249.534 65.13 290.933 49.702C324.774 37.091 365.706 18.77 401.582 33.791C433.984 47.358 456.063 77.449 487.369 92.929C515.261 106.721 541.235 101.425 559.616 76.726C575.916 54.824 588.495 35.396 619.084 37.702C664.167 41.101 707.59 64.113 749.724 78.721C785.264 91.043 821.197 101.604 855.929 82.161C872.171 73.069 886.26 60.564 902.673 51.752C920.539 42.161 938.337 40.048 958.298 42.53C1005.26 48.369 1048.29 70.525 1096 72.451V73.331V73.333Z" fill="url(#paint1_linear_1_2310)"/>
<path d="M1096 83.945C1049.62 82.054 1007.4 61.763 961.671 56.367C916.631 51.052 887.698 78.014 850.017 97.186C772.374 136.691 694.903 57.961 617.667 52.062C586.965 49.717 571.269 69.76 552.421 90.248C531.429 113.067 505.663 120.254 476.832 105.986C445.763 90.611 423.945 60.645 391.78 47.174C356.275 32.305 317.013 50.358 283.959 63.74C243.701 80.039 208.469 90.46 165.311 78.673C110.268 63.641 57.814 31.052 0.00195312 28.038V26.972C57.916 29.99 110.506 62.569 165.659 77.6C208.889 89.382 244.233 78.949 284.597 62.722C317.725 49.404 357.135 31.331 392.678 46.216C424.864 59.695 446.705 89.672 477.794 105.056C506.55 119.286 532.289 112.248 553.072 89.275C571.707 68.676 587.13 48.677 617.803 51.012C694.847 56.879 773.222 135.723 850.537 96.079C887.997 76.871 916.475 50.042 961.369 55.371C1007.21 60.812 1049.5 81.253 1096 83.16V83.946L1096 83.945Z" fill="url(#paint2_linear_1_2310)"/>
<path d="M1096 93.322C1051.31 91.754 1010.23 73.512 966.097 68.817C918.738 63.779 883.363 92.359 842.526 111.274C804.762 128.766 772.266 123.097 734.498 107.982C696.496 92.773 657.243 68.476 615.619 65.33C584.206 62.956 564.702 83.285 542.88 102.392C519.194 123.131 492.456 132.269 462.632 117.495C431.857 102.25 410.359 72.435 378.488 59.087C343.555 44.457 306.436 62.255 274.523 76.556C257.395 84.232 240.078 92.147 221.647 96.165C200.647 100.743 180.727 98.066 160.247 92.298C106.817 77.25 56.321 44.53 0.00195312 41.551V40.458C56.453 43.44 107.122 76.149 160.696 91.196C181.222 96.961 201.174 99.629 222.22 95.074C240.731 91.067 258.142 83.176 275.365 75.527C307.382 61.307 344.689 43.487 379.674 58.139C411.571 71.498 433.097 101.326 463.898 116.582C493.64 131.314 520.259 122.335 543.728 101.423C565.307 82.194 584.462 61.908 615.804 64.26C657.595 67.396 697.064 91.652 735.265 106.831C772.943 121.803 805.554 127.707 843.186 110.132C883.731 91.196 918.576 62.756 965.705 67.822C1009.98 72.581 1051.16 90.998 1096 92.599V93.322Z" fill="url(#paint3_linear_1_2310)"/>
<path d="M1096 101.948C1053.28 100.851 1013.54 84.878 971.275 81.039C920.659 76.442 878.642 106.652 833.873 125.445C816.712 132.649 798.558 138.91 779.715 138.186C760.503 137.448 741.767 129.931 724.386 122.277C688.986 106.688 652.602 81.853 613.145 78.564C549.376 73.248 512.658 161.774 445.868 128.65C415.429 113.554 394.3 83.911 362.764 70.704C328.508 56.359 293.861 73.858 263.37 89.247C247.499 97.257 231.42 105.49 214.024 109.661C193.667 114.541 174.193 111.747 154.35 105.944C102.807 90.87 54.574 58.021 0.00195312 55.064V53.944C54.724 56.903 103.152 89.741 154.857 104.812C174.756 110.612 194.269 113.396 214.683 108.542C232.167 104.385 248.353 96.179 264.332 88.198C294.949 72.905 329.808 55.378 364.121 69.748C395.685 82.966 416.846 112.624 447.314 127.733C514.084 160.844 549.761 72.212 613.359 77.468C653.001 80.744 689.633 105.533 725.257 121.09C742.736 128.723 761.563 136.227 780.854 136.962C799.58 137.675 817.579 131.477 834.616 124.269C879.039 105.475 920.508 75.39 970.828 80.031C1013.26 83.944 1053.11 100.111 1096 101.25L1096 101.948Z" fill="url(#paint4_linear_1_2310)"/>
<path d="M1096 110.303C1055.34 109.707 1017.04 96.123 976.722 93.177C922.298 89.2 873.889 120.755 824.802 139.644C806.141 146.825 786.063 153.84 765.796 152.975C747.543 152.196 729.925 144.526 713.745 136.611C681.056 120.619 647.777 95.277 610.517 91.785C544.43 85.592 495.665 173.186 428.181 139.676C398.094 124.736 377.349 95.2719 346.165 82.214C312.585 68.153 280.504 85.299 251.597 101.892C237.05 110.242 222.286 118.811 205.945 123.148C186.299 128.362 167.293 125.429 148.148 119.595C98.588 104.492 52.754 71.515 0.00195312 68.577V67.429C52.907 70.368 98.946 103.334 148.674 118.435C167.878 124.266 186.923 127.187 206.629 122.002C223.058 117.679 237.934 109.138 252.593 100.817C281.639 84.331 313.933 67.151 347.569 81.235C378.783 94.305 399.56 123.785 429.677 138.738C497.076 172.203 544.86 84.545 610.738 90.661C648.182 94.138 681.726 119.435 714.645 135.393C730.927 143.286 748.64 150.943 766.973 151.719C787.12 152.571 807.034 145.619 825.569 138.438C874.282 119.564 922.17 88.109 976.259 92.146C1016.74 95.167 1055.16 108.956 1096 109.593V110.304L1096 110.303Z" fill="url(#paint5_linear_1_2310)"/>
<path d="M1096 118.871C1057.31 118.703 1020.39 107.445 981.956 105.38C923.539 102.242 869.53 134.675 816.059 153.82C795.993 161.005 774.065 168.731 752.444 167.711C735.074 166.891 718.543 159.1 703.519 150.913C673.449 134.526 643.244 108.665 608.009 105.015C539.405 97.909 479.922 184.96 411.22 150.802C381.472 136.012 361.1 106.722 330.254 93.807C297.285 80.003 267.567 96.703 240.311 114.571C208.177 135.638 180.277 145.331 142.185 133.24C94.513 118.108 51.037 85.005 0.00195312 82.09V80.915C51.178 83.832 94.853 116.924 142.682 132.054C180.88 144.137 208.916 134.418 241.246 113.465C268.645 95.708 298.554 78.966 331.572 92.79C362.446 105.717 382.849 135.022 412.626 149.824C481.21 183.92 539.83 96.834 608.217 103.863C643.616 107.501 674.083 133.318 704.37 149.672C719.489 157.835 736.111 165.618 753.552 166.435C775.062 167.442 796.838 159.774 816.789 152.59C869.894 133.469 923.442 101.108 981.523 104.313C1020.12 106.443 1057.15 117.906 1096 118.106V118.872L1096 118.871Z" fill="url(#paint6_linear_1_2310)"/>
<path d="M1096 128.133C1059.03 128.229 1023.29 119.226 986.497 117.795C924.476 115.384 865.751 148.499 808.391 167.921C787.16 175.11 763.695 183.433 740.948 182.278C724.278 181.432 708.689 173.583 694.653 165.114C666.863 148.346 639.493 122.022 605.896 118.278C568.819 114.147 531.525 135.96 498.753 150.123C467.044 163.826 430.055 178.894 396.629 162.257C367.18 147.599 347.138 118.465 316.592 105.674C284.1 92.069 256.308 108.248 230.614 127.367C200.609 149.695 173.985 159.042 136.996 146.867C90.934 131.708 49.599 98.483 0.00195312 95.604V94.402C49.711 97.285 91.223 130.5 137.412 145.658C174.488 157.825 201.201 148.443 231.384 126.224C257.209 107.212 285.149 90.984 317.676 104.604C348.247 117.404 368.316 146.552 397.789 161.22C431.158 177.827 467.934 162.84 499.535 149.034C532.126 134.796 569.107 113 606.062 117.097C639.784 120.836 667.391 147.122 695.363 163.857C709.476 172.3 725.141 180.147 741.863 180.992C764.523 182.137 787.87 173.86 809.011 166.671C866.056 147.273 924.406 114.209 986.134 116.679C1023.06 118.157 1058.89 127.35 1096 127.269V128.134V128.133Z" fill="url(#paint7_linear_1_2310)"/>
<path d="M1096 138.573C1060.31 138.694 1025.44 131.633 989.862 130.572C925.103 128.64 862.843 162.262 802.542 181.897C780.531 189.064 756.089 197.782 732.594 196.56C716.323 195.713 701.46 187.892 688.086 179.148C661.938 162.052 637.021 135.34 604.45 131.601C566.235 127.214 526.011 149.175 491.559 162.606C458.894 175.34 419.986 191.177 386.052 174.272C356.835 159.717 337.052 130.706 306.737 118.01C274.542 104.527 248.015 120.129 223.607 140.365C195.32 163.817 169.327 172.71 133.115 160.468C88.203 145.285 48.606 111.944 0.00195312 109.117V107.887C48.673 110.72 88.407 144.051 133.399 159.232C169.665 171.469 195.685 162.53 224.103 139.172C248.611 119.029 275.221 103.373 307.434 116.863C337.766 129.566 357.569 158.586 386.804 173.149C420.703 190.036 459.478 174.258 492.077 161.45C526.407 147.962 566.413 126.009 604.546 130.385C637.186 134.13 662.291 160.815 688.563 177.879C701.984 186.596 716.895 194.426 733.189 195.274C756.636 196.495 781.019 187.802 802.978 180.631C863.064 161.01 925.056 127.432 989.616 129.39C1025.28 130.472 1060.21 137.692 1096 137.561V138.572L1096 138.573Z" fill="url(#paint8_linear_1_2310)"/>
<path d="M1096 150.671C1060.98 150.515 1026.51 144.897 991.57 143.856C925.462 141.887 861.031 176.007 799.259 195.695C776.999 202.79 752.383 211.617 728.67 210.437C712.42 209.628 697.921 201.964 684.763 192.942C659.396 175.549 636.25 148.601 603.944 145.004C565.191 140.689 523.355 162.693 488.03 175.613C454.931 187.719 415.259 204.082 381.134 187.073C352.054 172.578 332.428 143.646 302.251 131.003C270.134 117.547 244.029 132.537 220.392 153.643C209.814 163.088 198.926 172.659 185.256 177.298C167.31 183.388 148.542 180.003 131.079 174.027C86.6759 158.83 48.221 125.383 0.00195312 122.63V121.373C48.227 124.134 86.757 157.571 131.176 172.768C148.631 178.74 167.349 182.12 185.286 176.031C198.967 171.387 209.889 161.823 220.501 152.394C244.181 131.355 270.285 116.307 302.399 129.761C332.584 142.407 352.219 171.344 381.308 185.842C415.431 202.85 455.092 186.526 488.175 174.376C523.458 161.418 565.208 139.414 603.944 143.752C636.245 147.37 659.505 174.308 684.91 191.67C698.07 200.664 712.577 208.351 728.814 209.166C752.533 210.355 777.173 201.524 799.436 194.42C861.146 174.728 925.439 140.657 991.494 142.595C1026.46 143.621 1060.95 149.347 1096 149.463V150.671Z" fill="url(#paint9_linear_1_2310)"/>
<path d="M1096 164.143C1061.37 163.84 1027.23 158.613 992.666 157.524C926.862 155.451 863.968 190.062 802.64 209.911C779.339 217.452 754.35 225.698 729.552 224.961C712.757 224.462 697.919 216.867 684.389 207.419C658.983 189.68 634.889 160.535 602.164 157.365C563.435 153.614 523.608 175.012 488.664 188.617C455.691 201.455 416.818 217.08 382.584 200.129C353.65 185.803 333.851 157.418 303.863 144.883C271.721 131.448 245.612 146.496 221.502 167.128C193.717 190.905 167.751 199.418 131.801 187.214C87.2329 172.085 48.2569 139.119 0.00292969 136.142V134.858C48.2369 137.815 87.1149 170.846 131.643 185.99C167.574 198.211 193.552 189.726 221.241 165.848C245.269 145.126 271.354 130.089 303.493 143.539C333.505 156.099 353.281 184.557 382.233 198.915C416.478 215.898 455.509 200.17 488.54 187.447C523.609 173.939 563.722 152.512 602.517 156.3C635.179 159.489 658.995 188.352 684.395 205.998C697.889 215.372 712.607 222.952 729.337 223.477C754.011 224.251 778.929 215.966 802.115 208.484C863.521 188.669 926.62 154.14 992.477 156.215C1027.1 157.306 1061.31 162.558 1096 162.858V164.142L1096 164.143Z" fill="url(#paint10_linear_1_2310)"/>
<path d="M1096 177.656C1062.39 177.348 1029.23 172.45 995.677 171.423C930.569 169.43 869.777 205.423 809.495 225.796C785.113 234.036 759.175 242.261 733.144 241.717C715.027 241.339 699.101 232.915 684.547 222.724C657.75 203.961 631.094 170.813 596.542 167.399C525.095 160.34 459.549 246.829 388.513 212.629C359.811 198.81 339.76 171.337 310.067 159.242C277.855 146.121 251.089 161.141 225.893 180.583C196.773 203.052 170.517 211.712 134.238 199.795C88.974 184.927 48.707 152.725 0.000976562 149.656V148.344C48.646 151.413 88.769 183.695 133.945 198.596C170.182 210.549 196.379 201.892 225.348 179.279C250.424 159.704 277.096 144.671 309.298 157.834C339.023 169.984 359.048 197.557 387.776 211.437C458.832 245.77 525.595 159.501 597.227 166.512C631.55 169.871 657.902 202.585 684.516 221.215C698.952 231.32 714.737 239.63 732.7 240.01C758.616 240.558 784.447 232.36 808.734 224.192C869.134 203.881 930.126 168.06 995.311 170.065C1028.98 171.101 1062.26 176.034 1096 176.345V177.657L1096 177.656Z" fill="url(#paint11_linear_1_2310)"/>
<path d="M1096 191.17C1063.89 190.904 1032.21 186.425 1000.16 185.513C935.938 183.685 877.187 221.844 818.28 242.963C793.022 252.018 765.83 260.789 738.674 260.145C718.726 259.672 700.995 249.76 685.03 238.549C655.857 218.063 625.582 180.023 588.115 175.718C519.034 167.78 468.556 257.294 397.718 224.729C369.305 211.667 348.984 185.321 319.654 173.918C287.287 161.335 259.25 176.108 232.705 194.011C201.845 214.825 174.641 223.423 137.825 211.939C91.466 197.478 49.524 166.152 0.000976562 163.171V161.832C49.43 164.828 91.193 196.245 137.43 210.751C174.185 222.283 201.27 213.671 231.947 192.682C258.352 174.615 286.241 159.809 318.588 172.453C347.956 183.933 368.25 210.399 396.693 223.544C467.545 256.288 519.698 167.125 589.047 174.954C626.186 179.147 656.07 216.675 684.97 236.964C700.782 248.064 718.309 257.806 738.058 258.262C765.105 258.886 792.163 250.188 817.341 241.218C876.396 220.18 935.347 182.263 999.667 184.111C1031.88 185.036 1063.73 189.56 1096 189.832V191.171L1096 191.17Z" fill="url(#paint12_linear_1_2310)"/>
<path d="M1096 204.683C1065.72 204.486 1035.83 200.489 1005.61 199.723C942.366 198.12 885.639 238.991 828.311 260.953C802.308 270.915 773.672 280.556 745.455 279.648C723.355 278.937 703.346 267.112 685.722 254.704C664.752 239.94 645.801 222.565 625.278 207.219C611.465 196.891 595.45 185.347 577.875 182.921C545.115 178.4 519.606 202.078 495.462 220.12C469.476 239.538 440.531 250.185 409.041 236.564C380.955 224.415 360.351 199.348 331.427 188.792C298.799 176.885 269.064 191.23 241.08 207.417C208.326 226.362 179.657 234.767 142.153 223.795C94.437 209.836 50.594 179.455 0.00195312 176.681V175.315C50.477 178.113 94.1219 208.592 141.693 222.604C179.123 233.629 207.625 225.201 240.186 206.061C268.025 189.698 297.574 175.302 330.171 187.281C359.137 197.926 379.712 223.128 407.832 235.374C439.471 249.152 468.782 238.267 495.173 219.17C519.827 201.329 545.996 177.758 578.964 182.226C596.387 184.587 612.246 195.939 625.945 206.167C646.226 221.309 664.932 238.481 685.645 253.06C703.094 265.341 722.859 276.96 744.732 277.643C772.844 278.521 801.328 268.975 827.26 259.108C884.754 237.232 941.685 196.653 1005.03 198.281C1035.44 199.063 1065.53 203.11 1096 203.315V204.681V204.683Z" fill="url(#paint13_linear_1_2310)"/>
<path d="M1096 218.196C1067.7 218.074 1039.73 214.599 1011.48 213.989C949.255 212.646 894.58 256.515 838.907 279.32C812.222 290.25 782.058 300.862 752.803 299.642C728.409 298.625 705.906 284.699 686.508 271.013C662.934 254.38 641.512 234.966 618.533 217.559C603.548 206.208 585.932 192.724 566.813 189.625C535.65 184.574 517.071 209.249 498.372 229.397C477.133 252.283 451.236 260.333 421.321 248.284C393.582 237.111 372.684 213.408 344.189 203.762C311.183 192.589 279.559 206.363 250.162 220.818C215.556 237.834 185.095 245.964 146.816 235.527C97.6199 222.113 51.795 192.705 0.00195312 190.196V188.802C51.669 191.338 97.2889 220.847 146.331 234.318C184.528 244.81 214.796 236.649 249.217 219.436C278.472 204.806 309.9 190.968 342.862 202.217C371.402 211.957 392.269 235.802 420.044 247.077C450.127 259.288 476.277 250.955 498.07 228.445C517.37 208.51 536.674 183.954 567.963 188.94C586.919 191.961 604.374 205.254 619.233 216.496C641.957 233.689 663.122 252.892 686.426 269.33C705.639 282.883 727.883 296.59 752.039 297.575C781.187 298.763 811.193 288.251 837.808 277.422C893.651 254.702 948.54 211.147 1010.87 212.518C1039.33 213.144 1067.49 216.674 1096 216.803V218.197V218.196Z" fill="url(#paint14_linear_1_2310)"/>
<path d="M1096 231.709C1069.65 231.654 1043.57 228.707 1017.26 228.244C991.787 227.796 971.047 234.672 948.32 246.165C915.132 262.948 883.541 282.722 849.386 297.608C822.019 309.536 790.338 321.024 760.033 319.533C733.384 318.222 708.422 302.235 687.274 287.289C661.13 268.812 637.269 247.382 611.87 227.939C595.536 215.435 576.652 200.543 555.921 196.431C525.486 190.394 513.67 217.003 501.245 238.743C486.085 265.267 461.734 270.6 433.403 260.027C406.008 249.803 384.818 227.478 356.746 218.711C323.264 208.254 289.806 221.374 259.097 234.219C222.824 249.391 190.476 257.215 151.409 247.283C100.748 234.403 53.008 205.959 0.00195312 203.709V202.288C52.884 204.563 100.43 233.107 150.941 246.041C189.927 256.024 222.079 248.168 258.189 232.81C288.767 219.805 322.042 206.615 355.47 217.144C383.586 226 404.745 248.468 432.176 258.788C460.663 269.505 485.099 263.901 500.951 237.746C514.039 216.151 526.586 189.737 557.029 195.693C577.603 199.718 596.346 214.445 612.553 226.839C637.705 246.073 661.317 267.297 687.198 285.585C708.167 300.402 732.879 316.181 759.298 317.464C789.491 318.93 821.015 307.525 848.309 295.702C882.531 280.879 914.235 261.213 947.524 244.545C970.33 233.125 991.16 226.288 1016.67 226.747C1043.18 227.225 1069.45 230.227 1096 230.288V231.709Z" fill="url(#paint15_linear_1_2310)"/>
<path d="M1096 245.223C1071.39 245.213 1047.01 242.764 1022.44 242.421C997.283 242.07 977.382 249.22 955.375 261.385C923.138 279.206 892.622 299.949 859.065 315.368C830.961 328.281 797.851 340.395 766.46 338.735C737.77 337.218 710.637 319.439 687.906 303.354C659.424 283.199 633.356 259.921 605.77 238.605C588.364 225.156 568.262 208.781 546.191 203.952C515.103 197.151 510.262 226.145 503.865 248.572C495.431 278.14 471.366 281.384 444.127 271.94C417.051 262.552 395.581 241.538 367.901 233.532C333.91 223.702 298.876 236.171 267.029 247.633C229.382 261.183 195.301 268.718 155.526 259.222C103.552 246.813 54.103 219.287 0 217.222V215.774C53.995 217.853 103.275 245.474 155.119 257.929C194.823 267.467 228.736 259.906 266.252 246.194C297.986 234.596 332.871 222.062 366.808 231.952C394.528 240.031 415.969 261.18 443.077 270.649C470.411 280.197 494.436 276.763 503.602 247.482C510.617 225.071 516.175 196.368 547.147 203.092C569.09 207.856 589.075 224.08 606.381 237.439C633.75 258.566 659.598 281.658 687.847 301.646C710.421 317.618 737.342 335.225 765.829 336.726C797.101 338.374 830.064 326.311 858.085 313.502C891.703 298.134 922.334 277.489 954.672 259.773C976.751 247.677 996.74 240.546 1021.92 240.906C1046.67 241.26 1071.22 243.76 1096 243.773V245.221L1096 245.223Z" fill="url(#paint16_linear_1_2310)"/>
<path d="M1096 258.736C1072.76 258.74 1049.69 256.716 1026.48 256.452C1001.58 256.168 982.461 263.327 961.071 276.101C929.755 294.803 900.285 316.353 867.265 332.144C838.323 345.985 803.932 358.322 771.403 356.654C741.065 355.098 712.298 336.022 688.292 319.019C657.9 297.494 630.055 272.676 600.715 249.794C582.628 235.688 561.615 218.021 538.618 212.79C505.985 205.367 507.491 237.216 506.02 259.288C505.314 269.887 503.629 281.349 493.052 286.403C481.222 292.055 464.228 288.04 452.34 284.159C425.536 275.41 403.81 255.552 376.463 248.11C342.015 238.736 305.853 250.711 273.108 261.068C234.452 273.295 199.084 280.668 158.766 271.497C105.767 259.442 54.957 232.756 0.00195312 230.735V229.259C54.879 231.275 105.563 258.049 158.467 270.135C198.738 279.335 233.993 271.953 272.56 259.599C305.222 249.137 341.285 237.119 375.69 246.533C403.07 254.024 424.769 273.999 451.6 282.805C463.525 286.719 480.446 290.69 492.333 285.075C502.938 280.066 504.889 268.693 505.813 258.061C507.735 235.924 506.876 204.372 539.308 211.741C562.23 216.949 583.162 234.485 601.2 248.538C630.376 271.268 658.054 295.937 688.264 317.332C712.15 334.248 740.772 353.213 770.955 354.776C803.357 356.453 837.617 344.117 866.461 330.372C899.536 314.612 929.119 293.14 960.533 274.524C981.984 261.812 1001.18 254.638 1026.1 254.927C1049.45 255.198 1072.63 257.263 1096 257.259V258.735L1096 258.736Z" fill="url(#paint17_linear_1_2310)"/>
<path d="M1096 272.249C1073.57 272.228 1051.27 270.51 1028.86 270.27C1004.14 270.005 985.715 276.785 964.776 290.08C934.321 309.417 905.845 331.545 873.3 347.485C843.363 362.148 807.904 374.148 774.172 372.7C742.758 371.352 713.142 351.702 688.313 334.104C656.644 311.659 627.607 285.791 597.181 261.75C579.042 247.418 557.481 228.687 534.189 223.554C499.672 215.947 505.762 249.551 507.489 271.303C508.314 281.69 508.455 293.776 497.835 299.072C486.213 304.868 468.648 300.542 456.878 296.83C430.275 288.441 408.329 269.493 381.231 262.335C346.519 253.166 309.766 264.942 276.473 274.534C237.274 285.828 201.293 293.251 160.717 284.264C107.117 272.392 55.43 246.439 0.000976562 244.249V242.746C55.4 244.904 107.018 270.933 160.576 282.815C201.141 291.815 237.094 284.411 276.259 273.034C309.511 263.375 346.228 251.597 380.925 260.773C408.046 267.946 429.969 286.98 456.59 295.393C468.351 299.11 485.864 303.411 497.477 297.611C508.058 292.327 508.069 280.281 507.365 269.889C505.894 248.148 500.197 214.624 534.494 222.242C557.788 227.416 579.317 246.038 597.483 260.374C627.822 284.317 656.768 310.091 688.332 332.46C713.096 350.01 742.664 369.639 773.993 371.025C807.587 372.512 842.941 360.441 872.757 345.863C905.352 329.927 933.935 307.85 964.482 288.569C985.462 275.326 1003.96 268.482 1028.69 268.746C1051.16 268.986 1073.51 270.73 1096 270.746L1096 272.249Z" fill="url(#paint18_linear_1_2310)"/>
<path d="M1096 285.762C1073.47 285.997 1051.3 283.371 1028.83 283.236C1004.21 283.088 986.048 289.925 965.405 303.476C935.348 323.207 907.272 345.604 874.793 361.468C844.39 376.318 808.398 387.73 774.214 385.823C742.532 384.056 712.749 364.452 687.58 346.738C655.775 324.354 626.551 298.593 595.987 274.603C577.938 260.437 556.462 241.785 533.342 236.696C498.158 228.952 505.085 262.795 507.368 284.702C508.455 295.133 508.907 307.346 498.088 312.618C486.387 318.319 468.705 313.971 456.886 310.248C430.237 301.854 408.178 282.995 381.04 275.824C346.306 266.646 309.528 278.479 276.191 287.999C236.887 299.224 200.852 306.723 160.191 297.707C106.729 285.852 55.2949 260.014 0.00292969 257.762V256.232C55.3619 258.504 106.921 284.303 160.46 296.157C201.109 305.157 237.14 297.66 276.446 286.485C309.797 277.003 346.586 265.182 381.318 274.354C408.426 281.513 430.475 300.32 457.096 308.696C468.924 312.418 486.617 316.776 498.325 311.07C509.15 305.795 508.664 293.593 507.544 283.165C505.19 261.253 498.176 227.461 533.404 235.158C556.538 240.213 578.044 258.977 596.067 273.165C626.656 297.246 655.897 323.105 687.744 345.562C712.878 363.286 742.643 382.908 774.323 384.552C808.533 386.326 844.506 374.86 874.919 359.98C907.372 344.101 935.442 321.722 965.506 302.031C986.181 288.489 1004.34 281.738 1028.97 281.897C1051.38 282.042 1073.54 284.419 1096 284.233V285.763L1096 285.762Z" fill="url(#paint19_linear_1_2310)"/>
<path d="M1096 299.275C1072.32 299.734 1050.13 294.125 1026.69 293.77C1002.13 293.398 983.908 301.018 963.524 314.614C933.55 334.607 905.432 357.09 872.749 372.75C842.34 387.32 806.369 397.965 772.367 395.056C740.718 392.348 710.871 373.247 685.337 355.749C653.93 334.227 624.929 309.491 594.571 286.569C576.314 272.785 555.105 255.229 532.158 250.1C497.3 242.31 503.011 276.079 504.448 298.312C505.132 308.891 505.081 321.156 494.213 326.395C482.45 332.065 464.864 327.767 453.022 323.967C426.013 315.299 403.797 295.857 376.274 288.46C341.497 279.114 304.88 291.234 271.673 301.24C232.6 313.013 196.725 320.783 156.127 311.524C103.907 299.615 54.1679 273.413 0.00292969 271.276V269.718C54.3419 271.863 104.326 298.022 156.736 309.921C197.356 319.143 233.265 311.426 272.383 299.726C305.606 289.788 342.248 277.717 377.017 287.034C404.487 294.395 426.678 313.76 453.636 322.386C465.467 326.172 483.064 330.472 494.81 324.8C505.665 319.557 505.641 307.295 504.901 296.743C503.346 274.578 497.46 240.758 532.35 248.573C555.325 253.719 576.556 271.413 594.797 285.254C625.186 308.313 654.211 333.189 685.667 354.828C711.155 372.361 741.003 391.549 772.66 394.161C806.68 396.968 842.669 386.211 873.068 371.608C905.729 355.918 933.844 333.439 963.828 313.469C984.239 299.875 1002.45 292.348 1027.02 292.667C1050.31 292.97 1072.5 298.171 1096 297.72V299.278L1096 299.275Z" fill="url(#paint20_linear_1_2310)"/>
<path d="M1096 312.789C1081.45 312.98 1067.86 312.296 1053.92 308.124C1043.64 305.047 1033.99 302.858 1023.19 302.399C998.637 301.355 980.311 309.768 960.125 323.356C930.235 343.477 902.078 365.946 869.22 381.283C838.653 395.55 802.973 405.024 769.07 401.336C737.529 397.906 707.77 379.791 681.811 362.722C650.875 342.38 622.115 319.005 592.046 297.451C573.696 284.297 552.659 268.024 530.015 263.242C495.357 255.922 499.287 288.939 499.509 311.974C499.614 322.854 498.776 335.124 487.719 340.329C475.709 345.983 458.221 341.68 446.212 337.701C418.688 328.58 396.196 308.39 368.126 300.589C333.25 290.896 296.9 303.581 263.842 314.278C225.329 326.74 189.866 335.189 149.587 325.527C99.424 313.494 52.274 286.899 0.00195312 284.791V283.206C52.526 285.314 100.018 311.862 150.456 323.877C190.784 333.484 226.304 325.133 264.897 312.757C297.973 302.15 334.359 289.542 369.221 299.187C397.22 306.934 419.675 327.029 447.132 336.089C459.115 340.043 476.615 344.343 488.588 338.688C499.617 333.479 500.352 321.208 500.171 310.369C499.788 287.444 495.632 254.316 530.305 261.711C552.99 266.549 574.046 282.981 592.389 296.22C622.495 317.948 651.286 341.496 682.281 361.989C708.189 379.119 737.965 397.368 769.523 400.723C803.434 404.328 839.158 394.701 869.699 380.397C902.537 365.017 930.688 342.542 960.587 322.43C980.792 308.839 999.104 300.517 1023.65 301.466C1034.33 301.879 1043.94 303.932 1054.14 306.851C1068.02 310.82 1081.58 311.414 1096 311.205V312.79L1096 312.789Z" fill="url(#paint21_linear_1_2310)"/>
<path d="M1096 326.302C1080.33 326.254 1066.25 324.711 1051.78 318.657C1040.87 314.088 1030.67 310.693 1018.75 309.735C994.181 307.76 975.698 316.906 955.626 330.458C925.782 350.606 897.555 372.991 864.511 387.916C833.657 401.851 798.426 409.892 764.547 405.565C733.194 401.561 703.639 384.734 677.253 368.278C646.863 349.325 618.409 327.526 588.691 307.578C570.316 295.244 549.461 280.39 527.216 276.198C492.615 269.678 494.529 301.608 493.207 325.665C492.589 336.918 490.805 349.183 479.455 354.363C467.08 360.011 449.678 355.666 437.411 351.439C409.266 341.742 386.417 320.698 357.692 312.367C322.659 302.207 286.672 315.635 253.772 327.172C216.082 340.389 181.133 349.851 141.375 339.65C93.8069 327.445 49.8969 300.433 0.00292969 298.301V296.689C50.1959 298.817 94.5199 325.778 142.416 337.96C182.245 348.09 217.256 338.764 255.056 325.638C287.975 314.207 324.009 300.874 359.021 310.974C387.664 319.237 410.467 340.175 438.535 349.799C450.769 353.994 468.18 358.333 480.507 352.684C491.818 347.501 493.484 335.237 494.01 324.029C495.133 300.098 492.975 268.03 527.575 274.658C549.873 278.929 570.751 293.958 589.127 306.398C618.891 326.546 647.385 348.542 677.844 367.668C704.181 384.205 733.765 401.196 765.145 405.137C799.023 409.392 834.313 401.171 865.126 387.194C898.147 372.216 926.362 349.819 956.208 329.669C976.289 316.112 994.75 307.048 1019.32 308.905C1031.11 309.796 1041.2 313.061 1052.06 317.423C1066.49 323.218 1080.45 324.675 1096 324.687V326.299L1096 326.302Z" fill="url(#paint22_linear_1_2310)"/>
<path d="M1096 339.815C1078.96 339.405 1064.5 336.62 1049.39 328.834C1037.78 322.849 1026.98 317.995 1013.84 316.397C989.206 313.402 970.508 323.176 950.446 336.682C920.574 356.792 892.207 379.053 858.928 393.505C827.676 407.077 792.943 413.554 759.02 408.65C727.943 404.158 698.668 388.741 671.909 373.047C642.147 355.591 614.068 335.493 584.778 317.29C566.442 305.895 545.817 292.542 524.054 289.059C489.376 283.509 489.286 314.286 486.188 339.378C484.752 351.011 481.971 363.286 470.261 368.457C457.464 374.108 440.135 369.699 427.563 365.188C398.744 354.847 375.492 332.9 346.056 323.971C310.816 313.281 275.264 327.537 242.525 340C205.848 353.962 171.374 364.692 132.283 353.845C87.572 341.438 47.308 313.997 0.000976562 311.817V310.177C47.624 312.351 88.344 339.74 133.406 352.121C172.584 362.885 207.109 352.319 243.916 338.445C276.674 326.097 312.281 311.944 347.495 322.567C376.843 331.422 400.046 353.258 428.782 363.52C441.316 367.996 458.653 372.396 471.398 366.746C483.062 361.575 485.722 349.303 487.056 337.714C489.931 312.743 489.784 281.83 524.447 287.502C546.273 291.073 566.929 304.611 585.273 316.124C614.622 334.544 642.78 354.794 672.591 372.491C699.257 388.321 728.657 403.877 759.737 408.308C793.651 413.143 828.444 406.474 859.642 392.856C892.888 378.344 921.233 356.067 951.097 335.95C971.155 322.438 989.823 312.735 1014.45 315.606C1027.44 317.121 1038.16 321.793 1049.69 327.609C1064.72 335.191 1079.13 337.816 1096 338.177V339.817L1096 339.815Z" fill="url(#paint23_linear_1_2310)"/>
<path d="M1096 353.328C1077.6 352.503 1062.72 348.345 1046.98 338.98C1034.69 331.667 1023.22 325.3 1008.88 322.999C984.148 319.032 965.16 329.327 945.001 342.787C914.989 362.826 886.374 384.953 852.777 398.902C821.03 412.082 786.743 416.981 752.713 411.492C722.004 406.539 693.062 392.492 666.029 377.65C636.978 361.7 609.356 343.338 580.583 326.916C562.353 316.511 542.038 304.674 520.83 301.903C485.984 297.35 484.065 327.105 479.107 353.089C476.84 364.967 473.095 377.498 460.987 382.552C447.667 388.111 430.586 383.764 417.626 378.933C388.131 367.938 364.466 345.093 334.318 335.554C298.837 324.328 263.754 339.409 231.178 352.816C195.61 367.455 161.464 379.6 123.118 368.04C81.2489 355.418 44.7909 327.554 0.00292969 325.328V323.661C45.0889 325.882 82.0169 353.695 124.226 366.29C162.666 377.76 196.842 365.793 232.548 351.232C265.144 337.94 300.285 322.958 335.735 334.119C365.797 343.584 389.412 366.32 418.825 377.236C431.75 382.033 448.836 386.371 462.107 380.813C474.169 375.762 477.798 363.236 479.962 351.397C484.693 325.511 486.399 295.643 521.222 300.315C542.502 303.17 562.86 315.193 581.107 325.721C609.949 342.361 637.632 360.936 666.776 377.069C693.782 392.019 722.767 406.227 753.526 411.123C787.54 416.537 821.875 411.446 853.556 398.217C887.108 384.206 915.685 362.062 945.673 342.014C965.815 328.548 984.761 318.313 1009.48 322.167C1023.68 324.381 1035.06 330.563 1047.27 337.719C1062.93 346.901 1077.76 350.887 1096 351.661V353.328Z" fill="url(#paint24_linear_1_2310)"/>
<path d="M1096 366.841C1076.35 365.642 1061.07 360.134 1044.77 349.418C1031.87 340.935 1019.75 333.126 1004.32 330.156C979.442 325.367 960.056 336.123 939.709 349.531C909.408 369.498 880.403 391.514 846.362 404.958C781.789 430.46 719.096 413.185 659.862 382.713C631.611 368.179 604.535 351.501 576.382 336.791C558.335 327.362 538.433 316.976 517.842 314.815C482.814 311.139 479.333 340.164 472.614 366.786C469.549 378.93 464.944 391.521 452.475 396.602C438.805 402.172 421.755 397.761 408.546 392.674C378.422 381.073 354.376 357.387 323.563 347.286C287.838 335.575 253.206 351.395 220.794 365.693C186.31 380.905 152.291 394.463 114.671 382.183C75.354 369.349 42.603 341.088 0.000976562 338.841V337.147C42.85 339.394 76.051 367.607 115.663 380.415C153.369 392.607 187.393 379.219 222.007 364.073C254.44 349.882 289.125 334.147 324.821 345.802C355.555 355.837 379.556 379.423 409.605 390.952C422.787 396.009 439.841 400.414 453.472 394.845C465.898 389.768 470.404 377.187 473.374 365.071C479.884 338.512 483.186 309.416 518.194 313.19C538.865 315.418 558.825 325.98 576.9 335.529C605.136 350.446 632.286 367.329 660.642 382.033C719.913 412.766 782.524 429.833 847.17 404.135C881.147 390.629 910.094 368.601 940.35 348.626C960.669 335.211 979.998 324.512 1004.86 329.209C1020.16 332.1 1032.2 339.736 1045.03 348.084C1061.26 358.645 1076.5 363.99 1096 365.149V366.843V366.841Z" fill="url(#paint25_linear_1_2310)"/>
<path d="M1096 380.355C1075.34 378.936 1059.73 372.246 1043.01 360.476C1029.61 351.048 1016.94 341.987 1000.6 338.487C975.534 333.114 955.585 344.341 934.989 357.678C904.214 377.606 874.638 399.561 839.991 412.53C775.766 436.57 712.718 417.567 653.656 388.862C626.296 375.565 599.87 360.424 572.451 347.252C554.681 338.716 535.31 329.63 515.389 327.881C480.269 324.798 475.539 353.54 467.362 380.455C463.622 392.766 458.332 405.449 445.574 410.559C431.664 416.132 414.65 411.686 401.278 406.409C370.622 394.311 346.266 369.889 314.889 359.334C278.954 347.245 244.695 363.641 212.448 378.697C178.866 394.377 144.787 409.14 107.747 396.213C70.4239 383.187 40.9949 354.579 0.00292969 352.354V350.632C41.1609 352.863 70.9799 381.43 108.517 394.433C145.617 407.285 179.68 392.655 213.361 377.03C245.629 362.06 279.929 345.726 315.84 357.775C347.152 368.281 371.474 392.616 402.069 404.659C415.427 409.917 432.446 414.36 446.334 408.787C459.061 403.68 464.275 391.01 467.939 378.715C475.954 351.815 480.543 323.068 515.661 326.204C535.671 327.991 555.116 337.231 572.927 345.874C600.447 359.228 626.961 374.554 654.44 387.996C713.511 416.891 776.547 435.666 840.79 411.451C875.35 398.424 904.841 376.465 935.545 356.535C956.106 343.188 975.973 332.024 1001.02 337.339C1017.25 340.783 1029.86 349.698 1043.2 359.021C1059.88 370.675 1075.46 377.229 1096 378.633V380.355Z" fill="url(#paint26_linear_1_2310)"/>
<path d="M1096 393.868C1074.66 392.509 1058.89 384.938 1041.92 372.474C1028.2 362.399 1015.14 352.381 998.168 348.603C972.863 342.969 952.131 354.747 931.259 367.981C899.789 387.936 869.425 409.912 833.969 422.465C769.545 445.275 706.807 424.368 647.661 396.719C621.288 384.39 595.628 370.548 569.064 358.628C551.744 350.856 532.935 342.692 513.767 341.181C478.735 338.419 473.18 367.165 464.001 394.076C459.784 406.437 454.046 419.235 441.127 424.371C427.14 429.931 410.18 425.5 396.77 420.131C365.727 407.703 341.175 382.7 309.384 371.859C273.312 359.558 239.292 376.286 207.207 391.893C174.161 407.967 139.906 423.469 103.143 410.071C66.9981 396.898 40.1781 368.009 0.00610352 365.868V364.119C40.2341 366.274 67.3381 395.132 103.581 408.289C140.357 421.64 174.586 406.198 207.674 390.172C239.78 374.622 273.822 357.92 309.881 370.205C341.629 381.021 366.163 405.959 397.166 418.356C410.579 423.719 427.548 428.156 441.536 422.593C454.444 417.46 460.139 404.678 464.308 392.316C473.398 365.362 478.858 336.693 513.921 339.443C533.186 340.954 552.085 349.236 569.464 357.092C596.146 369.154 621.912 383.148 648.419 395.584C707.538 423.321 770.36 443.969 834.721 421.016C870.06 408.413 900.308 386.445 931.674 366.499C952.51 353.249 973.126 341.549 998.398 347.171C1015.3 350.932 1028.33 360.845 1042.02 370.856C1058.97 383.252 1074.73 390.731 1096.01 392.118V393.867L1096 393.868Z" fill="url(#paint27_linear_1_2310)"/>
<path d="M1096 407.381C1074.43 406.292 1058.7 398.361 1041.69 385.669C1027.89 375.366 1014.69 364.917 997.474 361.153C971.827 355.547 949.886 367.74 928.506 380.704C896.047 400.386 864.462 422.734 828.009 434.605C762.855 455.822 702.392 435.195 642.85 407.478C617.508 395.681 592.759 382.59 567.155 371.357C550.306 363.965 532.121 356.334 513.581 354.739C478.988 351.762 472.875 381.205 463.328 407.564C458.879 419.848 452.958 432.688 440.079 437.865C426.18 443.452 409.338 439.041 396.006 433.691C364.798 421.167 340.133 395.964 308.167 385.05C272.087 372.731 238.142 389.484 206.165 405.285C173.22 421.565 138.905 437.131 102.133 423.615C66.1849 410.403 40.0959 381.411 0.00292969 379.329V377.591C40.1219 379.648 65.9479 408.668 101.877 421.891C138.68 435.436 173.046 419.849 206.008 403.543C237.984 387.725 271.939 370.958 308.031 383.279C339.999 394.192 364.629 419.446 395.836 431.974C409.167 437.326 426.039 441.724 439.942 436.158C452.842 430.994 458.739 418.126 463.162 405.827C472.664 379.399 478.696 349.955 513.362 352.958C531.939 354.567 550.164 362.194 567.06 369.575C592.791 380.816 617.674 393.911 643.139 405.728C702.833 433.429 763.608 454.544 828.932 433.19C865.278 421.309 896.678 398.862 928.928 379.045C950.166 365.995 971.88 353.769 997.462 359.356C1014.69 363.117 1027.88 373.579 1041.69 383.888C1058.7 396.586 1074.43 404.527 1096 405.605V407.381H1096Z" fill="url(#paint28_linear_1_2310)"/>
<path d="M1096 420.894C1074.51 419.762 1058.79 411.953 1041.8 399.351C1028.02 389.132 1014.87 378.821 997.73 375.078C971.733 369.4 948.449 381.268 926.211 393.602C892.546 412.274 859.891 433.843 822.922 445.635C789.396 456.329 755.881 458.605 721.519 450.493C694.538 444.123 668.748 432.991 643.834 421.025C605.224 402.481 563.132 372.147 519.299 368.471C485.299 365.62 478.302 394.523 468.124 420.348C463.345 432.474 457.103 444.94 444.323 450.079C430.383 455.684 413.731 451.286 400.334 445.984C369.056 433.605 344.042 408.865 312.038 398.053C276.083 385.906 242.331 402.288 210.351 417.89C177.21 434.058 143.479 448.918 106.613 435.865C69.661 422.78 40.686 394.051 0.000976562 391.822V390.223C40.53 392.436 69.042 421.206 105.778 434.311C142.602 447.448 176.426 432.444 209.511 416.268C241.492 400.633 275.279 384.177 311.255 396.361C343.249 407.197 368.208 432.007 399.471 444.415C412.854 449.727 429.528 454.136 443.456 448.52C456.244 443.364 462.43 430.833 467.153 418.682C477.219 392.783 484.073 363.759 518.155 366.621C562.196 370.319 604.558 400.63 643.401 419.195C668.514 431.197 694.491 442.388 721.649 448.851C756.128 457.057 789.758 454.894 823.417 444.137C860.346 432.335 892.891 410.659 926.431 391.854C948.576 379.438 971.716 367.519 997.68 373.195C1014.83 376.945 1027.99 387.278 1041.77 397.512C1058.77 410.13 1074.5 417.96 1096 419.09V420.894H1096Z" fill="url(#paint29_linear_1_2310)"/>
<path d="M1096 434.407C1074.65 433.291 1058.97 425.674 1042.02 413.222C1028.3 403.142 1015.22 393.029 998.212 389.361C972.101 383.731 948.024 395.161 925.265 406.902C890.888 424.637 857.721 445.008 820.725 457.064C760.17 476.798 704.686 462.599 649.523 434.921C612.864 416.527 573.017 386.003 530.919 382.462C497.55 379.656 489.303 407.264 478.053 432.503C464.317 463.321 440.006 469.037 409.085 457.155C377.658 445.079 352.163 420.924 320.049 410.376C284.279 398.627 250.876 414.263 218.907 429.55C185.149 445.693 152.159 459.136 114.789 446.846C75.5329 433.936 42.5339 405.554 0.00292969 403.247V401.75C42.2189 404.049 74.6249 432.483 113.505 445.418C150.791 457.823 183.881 444.159 217.539 428.014C249.511 412.678 282.968 396.924 318.766 408.737C350.862 419.328 376.285 443.568 407.688 455.693C421.208 460.913 437.748 465.168 451.799 459.722C464.558 454.776 471.243 442.81 476.463 430.884C487.548 405.556 495.606 377.75 529.063 380.552C571.407 384.099 611.588 414.607 648.523 433.018C704.039 460.691 759.963 475.36 820.88 455.493C857.891 443.423 891.006 422.945 925.328 405.078C948.033 393.258 972.03 381.764 998.138 387.406C1015.17 391.087 1028.26 401.229 1041.99 411.331C1058.94 423.806 1074.63 431.453 1096 432.574V434.405L1096 434.407Z" fill="url(#paint30_linear_1_2310)"/>
<path d="M1096 447.921C1074.83 446.862 1059.21 439.486 1042.33 427.228C1028.69 417.325 1015.71 407.455 998.853 403.9C972.815 398.408 948.353 409.329 925.331 420.507C890.762 437.291 857.422 456.856 820.713 468.822C763.084 487.608 710.966 476.817 658.665 449.106C624.146 430.817 586.913 400.189 546.694 396.641C513.972 393.755 504.214 419.719 491.587 444.217C476.309 473.856 451.564 478.83 420.941 467.54C389.306 455.876 363.242 432.396 330.964 422.224C295.433 411.027 262.466 425.67 230.528 440.551C195.946 456.664 163.615 468.327 125.556 456.942C83.0419 444.224 45.3569 416.257 0.00292969 413.929V412.493C44.9229 414.821 81.9389 442.848 123.962 455.593C161.922 467.106 194.333 455.188 228.796 439.068C260.739 424.127 293.769 409.337 329.336 420.616C361.589 430.844 387.571 454.421 419.175 466.147C449.839 477.524 474.515 472.444 489.568 442.626C501.992 418.017 511.533 391.813 544.343 394.683C584.825 398.225 622.43 428.84 657.25 447.141C709.967 474.848 762.558 486.102 820.612 467.189C857.377 455.211 890.712 435.534 925.275 418.622C948.273 407.369 972.701 396.375 998.758 401.89C1015.64 405.463 1028.63 415.368 1042.28 425.297C1059.17 437.584 1074.8 444.995 1096 446.063V447.921Z" fill="url(#paint31_linear_1_2310)"/>
<path d="M1096 461.434C1075.03 460.455 1059.49 453.348 1042.68 441.31C1029.14 431.607 1016.26 422.004 999.583 418.583C973.748 413.284 949.175 423.671 926.071 434.308C891.6 450.179 858.363 468.925 822.181 480.825C793.278 490.331 763.411 494.795 733.289 488.977C710.798 484.633 689.837 474.701 670.009 463.511C637.691 445.273 603.219 414.549 564.882 410.927C532.783 407.895 521.394 432.079 507.202 455.672C490.231 483.884 464.94 488.118 434.589 477.465C402.711 466.276 376.032 443.525 343.556 433.792C308.31 423.229 275.801 436.758 243.92 451.164C208.481 467.178 176.574 476.986 137.82 466.519C91.465 453.999 48.82 426.485 0.000976562 424.172V422.756C48.311 425.072 90.261 452.651 136.059 465.199C174.721 475.791 206.671 465.729 241.993 449.695C273.883 435.22 306.456 421.532 341.743 432.186C374.19 441.983 400.782 464.837 432.625 476.094C463.01 486.836 488.223 482.504 504.954 454.081C518.922 430.351 530.08 405.92 562.264 408.928C600.858 412.536 635.718 443.247 668.34 461.488C688.414 472.712 709.609 482.693 732.314 487.128C762.668 493.058 792.761 488.708 821.913 479.136C858.179 467.228 891.442 448.368 925.939 432.372C949.039 421.66 973.609 411.199 999.477 416.527C1016.18 419.968 1029.07 429.608 1042.63 439.34C1059.45 451.409 1075 458.555 1096 459.546V461.432L1096 461.434Z" fill="url(#paint32_linear_1_2310)"/>
<path d="M1096 474.947C1075.24 474.053 1059.78 467.221 1043.05 455.413C1029.6 445.916 1016.84 436.588 1000.34 433.306C974.777 428.22 950.234 438.087 927.152 448.207C892.94 463.207 859.957 481.133 824.429 493C797.363 502.041 769.148 507.324 740.736 502.328C719.736 498.635 700.411 489.021 682.307 478.077C652.098 459.816 620.354 428.989 583.744 425.252C552.215 422.033 539.176 444.527 523.378 467.062C504.709 493.692 478.871 497.312 448.721 487.273C416.589 476.573 389.288 454.572 356.601 445.291C321.67 435.373 289.592 447.786 257.79 461.68C221.583 477.5 189.832 485.589 150.488 475.963C100.095 463.634 52.5509 436.584 0.00292969 434.305V432.866C52.0219 435.15 98.8879 462.266 148.712 474.621C187.982 484.359 219.74 476.04 255.847 460.187C287.661 446.219 319.797 433.652 354.774 443.66C387.431 453.004 414.645 475.111 446.741 485.88C476.914 496.003 502.679 492.306 521.112 465.448C536.686 442.756 549.493 420.035 581.099 423.226C617.939 426.946 650.06 457.757 680.556 476.009C698.898 486.987 718.449 496.643 739.654 500.428C768.311 505.543 796.761 500.377 824.091 491.27C859.715 479.4 892.739 461.359 926.992 446.238C950.08 436.046 974.632 426.108 1000.23 431.224C1016.76 434.526 1029.54 443.892 1043 453.418C1059.74 465.259 1075.21 472.129 1096 473.035V474.948L1096 474.947Z" fill="url(#paint33_linear_1_2310)"/>
<path d="M1096 488.46C1075.44 487.639 1060.05 481.067 1043.4 469.48C1030.03 460.181 1017.38 451.115 1001.05 447.961C975.762 443.074 951.268 452.476 928.233 462.101C894.313 476.275 861.609 493.392 826.746 505.27C801.541 513.858 774.949 519.975 748.279 515.844C728.635 512.802 710.808 503.441 694.302 492.739C665.952 474.357 636.723 443.411 601.529 439.538C570.503 436.124 555.875 457.185 538.584 478.57C518.35 503.595 492.059 506.796 462.016 497.291C429.641 487.048 401.752 465.778 368.863 456.916C334.244 447.588 302.552 458.997 270.834 472.372C234.01 487.9 202.235 494.561 162.458 485.645C108.215 473.487 56.157 446.894 0.00195312 444.637V443.129C55.662 445.387 107.108 472.045 160.824 484.226C200.552 493.235 232.313 486.388 269.061 470.815C300.793 457.368 332.533 445.824 367.197 455.231C400.059 464.149 427.866 485.522 460.208 495.827C490.26 505.402 516.495 502.155 536.518 476.904C553.607 455.353 568.014 434.106 599.108 437.493C634.48 441.346 664.05 472.273 692.646 490.631C709.37 501.368 727.401 510.76 747.228 513.896C774.147 518.154 800.966 512.158 826.436 503.506C861.39 491.632 894.132 474.4 928.091 460.111C951.131 450.416 975.629 440.952 1000.96 445.866C1017.31 449.038 1029.98 458.14 1043.35 467.466C1060.02 479.084 1075.41 485.692 1096 486.521V488.461V488.46Z" fill="url(#paint34_linear_1_2310)"/>
<path d="M1096 501.974C1075.61 501.198 1060.28 494.849 1043.69 483.456C1030.4 474.33 1017.83 465.495 1001.66 462.442C976.567 457.705 952.022 466.733 928.981 475.888C895.263 489.285 862.735 505.617 828.433 517.558C805.012 525.711 779.915 532.686 754.923 529.467C736.43 527.085 719.865 517.901 704.746 507.433C677.846 488.809 650.731 457.721 616.499 453.712C585.907 450.13 569.831 470.131 551.3 490.384C529.746 513.942 503.193 516.944 473.168 507.854C440.581 497.989 412.171 477.446 379.12 468.872C344.827 459.976 313.354 470.627 281.761 483.523C266.502 489.751 251.117 496.026 234.84 499.06C213.957 502.953 193.233 500.247 172.638 495.942C115.116 483.917 59.2539 457.762 0.00292969 455.487V453.863C58.8489 456.131 114.214 482.348 171.309 494.39C191.85 498.722 212.514 501.409 233.346 497.502C249.657 494.443 265.068 488.126 280.351 481.86C311.956 468.901 343.466 458.146 377.798 467.103C410.827 475.72 439.168 496.356 471.728 506.27C501.751 515.412 528.281 512.395 549.662 488.639C568.033 468.227 583.91 448.099 614.561 451.66C648.899 455.65 676.29 486.715 703.369 505.295C718.674 515.797 735.404 525.001 754.049 527.48C779.278 530.835 804.581 523.986 828.253 515.772C862.626 503.844 895.168 487.399 928.905 473.892C951.939 464.67 976.466 455.595 1001.58 460.35C1017.77 463.416 1030.35 472.281 1043.65 481.431C1060.25 492.851 1075.59 499.229 1096 500.009V501.977V501.974Z" fill="url(#paint35_linear_1_2310)"/>
<path d="M1096 515.487C1075.74 514.712 1060.44 508.529 1043.88 497.281C1030.64 488.286 1018.14 479.633 1002.08 476.639C977.048 471.97 952.237 480.749 929.056 489.462C895.327 502.138 862.749 517.721 828.781 529.784C806.962 537.533 783.133 545.396 759.667 543.136C742.054 541.44 726.412 532.339 712.384 522.093C686.361 503.085 660.767 471.823 626.907 467.697C596.691 464.015 579.401 483.413 559.998 502.689C537.457 525.083 510.937 528.124 480.858 519.293C448.118 509.681 419.292 489.793 386.137 481.357C352.119 472.701 320.745 482.901 289.268 495.409C274.144 501.419 258.904 507.445 242.819 510.357C221.696 514.181 200.779 511.392 179.927 507.228C120.076 495.277 61.4509 469.541 0.00292969 467.169V465.38C61.1969 467.73 119.494 493.527 179.075 505.485C199.903 509.665 220.817 512.447 241.919 508.616C258.028 505.691 273.285 499.634 288.425 493.597C319.909 481.043 351.308 470.784 385.353 479.473C418.495 487.932 447.269 507.897 479.992 517.537C510.06 526.395 536.607 523.376 559.027 500.835C578.328 481.429 595.458 461.975 625.726 465.648C659.599 469.759 685.373 500.992 711.482 519.934C725.649 530.212 741.402 539.319 759.125 541.118C782.803 543.522 806.802 535.792 828.842 527.987C862.841 515.946 895.392 500.255 929.101 487.477C952.25 478.701 977.004 469.894 1002.04 474.567C1018.11 477.567 1030.62 486.243 1043.86 495.254C1060.42 506.519 1075.73 512.722 1096 513.494V515.489L1096 515.487Z" fill="url(#paint36_linear_1_2310)"/>
<path d="M1096 529C1075.81 528.165 1060.49 522.068 1043.95 510.902C1030.73 501.98 1018.26 493.44 1002.27 490.448C977.066 485.73 951.659 494.421 928.124 502.724C894.054 514.743 861.072 529.622 827.088 541.874C806.572 549.271 783.702 558.058 761.515 556.795C744.453 555.824 729.283 546.706 715.968 536.657C690.076 517.116 665.21 485.629 631.011 481.42C601.132 477.742 582.967 497.084 563.156 515.674C540.034 537.371 513.961 540.71 483.776 531.944C450.974 522.418 421.885 502.968 388.689 494.577C354.789 486.008 323.522 496.025 292.061 508.314C277.001 514.197 261.835 520.071 245.857 522.955C224.743 526.766 204.088 523.979 183.229 519.88C122.378 507.921 62.366 482.596 0.00195312 480.001V477.995C62.325 480.546 122.231 505.933 183.031 517.885C203.908 521.989 224.636 524.782 245.77 520.973C261.757 518.092 276.929 512.202 291.994 506.307C323.454 493.996 354.73 483.979 388.64 492.544C421.836 500.929 450.896 520.435 483.695 529.961C513.861 538.722 540.032 535.446 563.096 513.681C582.879 495.012 600.939 475.7 630.867 479.387C664.966 483.587 689.882 515.036 715.739 534.487C729.134 544.564 744.341 553.672 761.462 554.755C783.821 556.169 806.812 547.522 827.499 540.078C861.453 527.859 894.347 512.878 928.341 500.765C951.806 492.403 977.098 483.711 1002.26 488.413C1018.26 491.402 1030.73 499.953 1043.95 508.882C1060.49 520.055 1075.81 526.159 1096 526.981V529.003V529Z" fill="url(#paint37_linear_1_2310)"/>
<defs>
<linearGradient id="paint0_linear_1_2310" x1="0.00195312" y1="44.271" x2="1096" y2="44.271" gradientUnits="userSpaceOnUse">
<stop stop-color="#1D1E20"/>
<stop offset="0.276" stop-color="#2E3033"/>
<stop offset="0.396" stop-color="#2E3033"/>
<stop offset="0.511" stop-color="#0C43C4"/>
<stop offset="0.551" stop-color="#99E1D9"/>
<stop offset="0.59" stop-color="#0C43C4"/>
<stop offset="0.679" stop-color="#2E3033"/>
<stop offset="0.812" stop-color="#2E3033"/>
<stop offset="1" stop-color="#1D1E20"/>
</linearGradient>
<linearGradient id="paint1_linear_1_2310" x1="0.00195312" y1="57.413" x2="1096" y2="57.413" gradientUnits="userSpaceOnUse">
<stop stop-color="#1D1E20"/>
<stop offset="0.276" stop-color="#2E3033"/>
<stop offset="0.396" stop-color="#2E3033"/>
<stop offset="0.441" stop-color="#21376A"/>
<stop offset="0.483" stop-color="#143EA2"/>
<stop offset="0.511" stop-color="#0F47C5"/>
<stop offset="0.513" stop-color="#1951C6"/>
<stop offset="0.544" stop-color="#7CC1D5"/>
<stop offset="0.547" stop-color="#84CAD6"/>
<stop offset="0.551" stop-color="#95DDD8"/>
<stop offset="0.589" stop-color="#0E43C0"/>
<stop offset="0.59" stop-color="#0D42C0"/>
<stop offset="0.679" stop-color="#2E3033"/>
<stop offset="0.812" stop-color="#2E3033"/>
<stop offset="1" stop-color="#1D1E20"/>
</linearGradient>
<linearGradient id="paint2_linear_1_2310" x1="0.00195312" y1="70.152" x2="1096" y2="70.152" gradientUnits="userSpaceOnUse">
<stop stop-color="#1D1E20"/>
<stop offset="0.276" stop-color="#2E3033"/>
<stop offset="0.396" stop-color="#2E3033"/>
<stop offset="0.441" stop-color="#223769"/>
<stop offset="0.483" stop-color="#143EA3"/>
<stop offset="0.511" stop-color="#134BC5"/>
<stop offset="0.513" stop-color="#1C55C6"/>
<stop offset="0.544" stop-color="#79BDD4"/>
<stop offset="0.547" stop-color="#82C6D5"/>
<stop offset="0.551" stop-color="#92D8D7"/>
<stop offset="0.589" stop-color="#0F43BC"/>
<stop offset="0.59" stop-color="#0E42BC"/>
<stop offset="0.679" stop-color="#2E3033"/>
<stop offset="0.812" stop-color="#2E3033"/>
<stop offset="1" stop-color="#1D1E20"/>
</linearGradient>
<linearGradient id="paint3_linear_1_2310" x1="0.00195312" y1="82.607" x2="1096" y2="82.607" gradientUnits="userSpaceOnUse">
<stop stop-color="#1D1E20"/>
<stop offset="0.276" stop-color="#2E3033"/>
<stop offset="0.396" stop-color="#2E3033"/>
<stop offset="0.441" stop-color="#223667"/>
<stop offset="0.483" stop-color="#133EA4"/>
<stop offset="0.511" stop-color="#164FC6"/>
<stop offset="0.513" stop-color="#2059C7"/>
<stop offset="0.544" stop-color="#76BAD4"/>
<stop offset="0.547" stop-color="#7FC3D4"/>
<stop offset="0.551" stop-color="#8ED4D6"/>
<stop offset="0.589" stop-color="#1042B8"/>
<stop offset="0.59" stop-color="#0F41B8"/>
<stop offset="0.679" stop-color="#2E3033"/>
<stop offset="0.812" stop-color="#2E3033"/>
<stop offset="1" stop-color="#1D1E20"/>
</linearGradient>
<linearGradient id="paint4_linear_1_2310" x1="0.00195312" y1="96.093" x2="1096" y2="96.093" gradientUnits="userSpaceOnUse">
<stop stop-color="#1D1E20"/>
<stop offset="0.276" stop-color="#2E3033"/>
<stop offset="0.396" stop-color="#2E3033"/>
<stop offset="0.441" stop-color="#223666"/>
<stop offset="0.483" stop-color="#133FA5"/>
<stop offset="0.511" stop-color="#1A53C6"/>
<stop offset="0.513" stop-color="#235DC7"/>
<stop offset="0.544" stop-color="#73B6D3"/>
<stop offset="0.547" stop-color="#7BBFD3"/>
<stop offset="0.551" stop-color="#8AD0D5"/>
<stop offset="0.589" stop-color="#1142B4"/>
<stop offset="0.59" stop-color="#1041B4"/>
<stop offset="0.679" stop-color="#2E3033"/>
<stop offset="0.812" stop-color="#2E3033"/>
<stop offset="1" stop-color="#1D1E20"/>
</linearGradient>
<linearGradient id="paint5_linear_1_2310" x1="0.00195312" y1="110.238" x2="1096" y2="110.238" gradientUnits="userSpaceOnUse">
<stop stop-color="#1D1E20"/>
<stop offset="0.276" stop-color="#2E3033"/>
<stop offset="0.396" stop-color="#2E3033"/>
<stop offset="0.441" stop-color="#233664"/>
<stop offset="0.483" stop-color="#133FA6"/>
<stop offset="0.511" stop-color="#1D56C7"/>
<stop offset="0.513" stop-color="#2761C8"/>
<stop offset="0.544" stop-color="#6FB3D3"/>
<stop offset="0.548" stop-color="#78BCD3"/>
<stop offset="0.551" stop-color="#86CBD4"/>
<stop offset="0.589" stop-color="#1141B0"/>
<stop offset="0.59" stop-color="#1140B0"/>
<stop offset="0.679" stop-color="#2E3033"/>
<stop offset="0.812" stop-color="#2E3033"/>
<stop offset="1" stop-color="#1D1E20"/>
</linearGradient>
<linearGradient id="paint6_linear_1_2310" x1="0.00195312" y1="124.359" x2="1096" y2="124.359" gradientUnits="userSpaceOnUse">
<stop stop-color="#1D1E20"/>
<stop offset="0.276" stop-color="#2E3033"/>
<stop offset="0.396" stop-color="#2E3033"/>
<stop offset="0.441" stop-color="#233663"/>
<stop offset="0.483" stop-color="#133FA7"/>
<stop offset="0.511" stop-color="#215AC7"/>
<stop offset="0.513" stop-color="#2A65C8"/>
<stop offset="0.544" stop-color="#6CAFD2"/>
<stop offset="0.548" stop-color="#75B8D2"/>
<stop offset="0.551" stop-color="#83C7D3"/>
<stop offset="0.589" stop-color="#1241AC"/>
<stop offset="0.59" stop-color="#1240AC"/>
<stop offset="0.679" stop-color="#2E3033"/>
<stop offset="0.812" stop-color="#2E3033"/>
<stop offset="1" stop-color="#1D1E20"/>
</linearGradient>
<linearGradient id="paint7_linear_1_2310" x1="0.00195312" y1="138.394" x2="1096" y2="138.394" gradientUnits="userSpaceOnUse">
<stop stop-color="#1D1E20"/>
<stop offset="0.276" stop-color="#2E3033"/>
<stop offset="0.396" stop-color="#2E3033"/>
<stop offset="0.441" stop-color="#233661"/>
<stop offset="0.483" stop-color="#123FA8"/>
<stop offset="0.511" stop-color="#245EC8"/>
<stop offset="0.513" stop-color="#2E69C9"/>
<stop offset="0.544" stop-color="#69ACD2"/>
<stop offset="0.548" stop-color="#72B5D2"/>
<stop offset="0.551" stop-color="#7FC3D3"/>
<stop offset="0.589" stop-color="#1340A9"/>
<stop offset="0.59" stop-color="#123FA9"/>
<stop offset="0.679" stop-color="#2E3033"/>
<stop offset="0.812" stop-color="#2E3033"/>
<stop offset="1" stop-color="#1D1E20"/>
</linearGradient>
<linearGradient id="paint8_linear_1_2310" x1="0.00195312" y1="152.281" x2="1096" y2="152.281" gradientUnits="userSpaceOnUse">
<stop stop-color="#1D1E20"/>
<stop offset="0.276" stop-color="#2E3033"/>
<stop offset="0.396" stop-color="#2E3033"/>
<stop offset="0.441" stop-color="#243560"/>
<stop offset="0.483" stop-color="#123FA9"/>
<stop offset="0.511" stop-color="#2862C8"/>
<stop offset="0.513" stop-color="#326DC9"/>
<stop offset="0.544" stop-color="#66A8D1"/>
<stop offset="0.548" stop-color="#6FB1D1"/>
<stop offset="0.551" stop-color="#7BBED2"/>
<stop offset="0.589" stop-color="#1440A5"/>
<stop offset="0.59" stop-color="#133FA5"/>
<stop offset="0.679" stop-color="#2E3033"/>
<stop offset="0.812" stop-color="#2E3033"/>
<stop offset="1" stop-color="#1D1E20"/>
</linearGradient>
<linearGradient id="paint9_linear_1_2310" x1="0.00195312" y1="165.959" x2="1096" y2="165.959" gradientUnits="userSpaceOnUse">
<stop stop-color="#1D1E20"/>
<stop offset="0.276" stop-color="#2E3033"/>
<stop offset="0.396" stop-color="#2E3033"/>
<stop offset="0.441" stop-color="#24355E"/>
<stop offset="0.483" stop-color="#123FAA"/>
<stop offset="0.511" stop-color="#2B66C9"/>
<stop offset="0.513" stop-color="#3571CA"/>
<stop offset="0.544" stop-color="#63A5D1"/>
<stop offset="0.548" stop-color="#6CAED1"/>
<stop offset="0.551" stop-color="#77BAD1"/>
<stop offset="0.589" stop-color="#153FA1"/>
<stop offset="0.59" stop-color="#143EA1"/>
<stop offset="0.679" stop-color="#2E3033"/>
<stop offset="0.812" stop-color="#2E3033"/>
<stop offset="1" stop-color="#1D1E20"/>
</linearGradient>
<linearGradient id="paint10_linear_1_2310" x1="0.00192969" y1="179.933" x2="1096" y2="179.933" gradientUnits="userSpaceOnUse">
<stop stop-color="#1D1E20"/>
<stop offset="0.276" stop-color="#2E3033"/>
<stop offset="0.396" stop-color="#2E3033"/>
<stop offset="0.441" stop-color="#25355D"/>
<stop offset="0.483" stop-color="#123FAA"/>
<stop offset="0.511" stop-color="#2F6AC9"/>
<stop offset="0.513" stop-color="#3975CA"/>
<stop offset="0.544" stop-color="#60A1D0"/>
<stop offset="0.548" stop-color="#69AAD0"/>
<stop offset="0.551" stop-color="#74B6D0"/>
<stop offset="0.589" stop-color="#163F9D"/>
<stop offset="0.59" stop-color="#153E9D"/>
<stop offset="0.679" stop-color="#2E3033"/>
<stop offset="0.812" stop-color="#2E3033"/>
<stop offset="1" stop-color="#1D1E20"/>
</linearGradient>
<linearGradient id="paint11_linear_1_2310" x1="0.00197656" y1="195.044" x2="1096" y2="195.044" gradientUnits="userSpaceOnUse">
<stop stop-color="#1D1E20"/>
<stop offset="0.276" stop-color="#2E3033"/>
<stop offset="0.396" stop-color="#2E3033"/>
<stop offset="0.441" stop-color="#25355B"/>
<stop offset="0.483" stop-color="#123FAB"/>
<stop offset="0.511" stop-color="#326ECA"/>
<stop offset="0.513" stop-color="#3C79CB"/>
<stop offset="0.544" stop-color="#5D9ED0"/>
<stop offset="0.548" stop-color="#66A7CF"/>
<stop offset="0.551" stop-color="#70B1CF"/>
<stop offset="0.589" stop-color="#173E99"/>
<stop offset="0.59" stop-color="#163D99"/>
<stop offset="0.679" stop-color="#2E3033"/>
<stop offset="0.812" stop-color="#2E3033"/>
<stop offset="1" stop-color="#1D1E20"/>
</linearGradient>
<linearGradient id="paint12_linear_1_2310" x1="0.00197656" y1="211.004" x2="1096" y2="211.004" gradientUnits="userSpaceOnUse">
<stop stop-color="#1D1E20"/>
<stop offset="0.276" stop-color="#2E3033"/>
<stop offset="0.396" stop-color="#2E3033"/>
<stop offset="0.441" stop-color="#25355A"/>
<stop offset="0.483" stop-color="#1140AC"/>
<stop offset="0.511" stop-color="#3672CA"/>
<stop offset="0.513" stop-color="#407DCB"/>
<stop offset="0.544" stop-color="#5A9ACF"/>
<stop offset="0.548" stop-color="#63A3CE"/>
<stop offset="0.551" stop-color="#6CADCE"/>
<stop offset="0.589" stop-color="#183E95"/>
<stop offset="0.59" stop-color="#173D95"/>
<stop offset="0.679" stop-color="#2E3033"/>
<stop offset="0.812" stop-color="#2E3033"/>
<stop offset="1" stop-color="#1D1E20"/>
</linearGradient>
<linearGradient id="paint13_linear_1_2310" x1="0.00195312" y1="227.512" x2="1096" y2="227.512" gradientUnits="userSpaceOnUse">
<stop stop-color="#1D1E20"/>
<stop offset="0.276" stop-color="#2E3033"/>
<stop offset="0.396" stop-color="#2E3033"/>
<stop offset="0.441" stop-color="#263558"/>
<stop offset="0.483" stop-color="#1140AD"/>
<stop offset="0.511" stop-color="#3976CB"/>
<stop offset="0.513" stop-color="#4381CC"/>
<stop offset="0.544" stop-color="#5797CF"/>
<stop offset="0.548" stop-color="#60A0CD"/>
<stop offset="0.551" stop-color="#69A9CD"/>
<stop offset="0.589" stop-color="#193D91"/>
<stop offset="0.59" stop-color="#183C91"/>
<stop offset="0.679" stop-color="#2E3033"/>
<stop offset="0.812" stop-color="#2E3033"/>
<stop offset="1" stop-color="#1D1E20"/>
</linearGradient>
<linearGradient id="paint14_linear_1_2310" x1="0.00195313" y1="244.012" x2="1096" y2="244.012" gradientUnits="userSpaceOnUse">
<stop stop-color="#1D1E20"/>
<stop offset="0.276" stop-color="#2E3033"/>
<stop offset="0.396" stop-color="#2E3033"/>
<stop offset="0.441" stop-color="#263456"/>
<stop offset="0.483" stop-color="#1140AE"/>
<stop offset="0.511" stop-color="#3D79CB"/>
<stop offset="0.513" stop-color="#4785CD"/>
<stop offset="0.544" stop-color="#5393CF"/>
<stop offset="0.548" stop-color="#5C9CCD"/>
<stop offset="0.551" stop-color="#65A4CC"/>
<stop offset="0.589" stop-color="#193C8D"/>
<stop offset="0.59" stop-color="#193C8D"/>
<stop offset="0.679" stop-color="#2E3033"/>
<stop offset="0.812" stop-color="#2E3033"/>
<stop offset="1" stop-color="#1D1E20"/>
</linearGradient>
<linearGradient id="paint15_linear_1_2310" x1="0.00195312" y1="257.253" x2="1096" y2="257.253" gradientUnits="userSpaceOnUse">
<stop stop-color="#1D1E20"/>
<stop offset="0.276" stop-color="#2E3033"/>
<stop offset="0.396" stop-color="#2E3033"/>
<stop offset="0.441" stop-color="#263455"/>
<stop offset="0.483" stop-color="#1140AF"/>
<stop offset="0.511" stop-color="#407DCC"/>
<stop offset="0.513" stop-color="#4B89CD"/>
<stop offset="0.544" stop-color="#5090CE"/>
<stop offset="0.549" stop-color="#5999CC"/>
<stop offset="0.551" stop-color="#61A0CB"/>
<stop offset="0.589" stop-color="#1A3C89"/>
<stop offset="0.59" stop-color="#1A3B89"/>
<stop offset="0.679" stop-color="#2E3033"/>
<stop offset="0.812" stop-color="#2E3033"/>
<stop offset="1" stop-color="#1D1E20"/>
</linearGradient>
<linearGradient id="paint16_linear_1_2310" x1="0.002" y1="270.492" x2="1096" y2="270.492" gradientUnits="userSpaceOnUse">
<stop stop-color="#1D1E20"/>
<stop offset="0.276" stop-color="#2E3033"/>
<stop offset="0.396" stop-color="#2E3033"/>
<stop offset="0.441" stop-color="#273453"/>
<stop offset="0.483" stop-color="#1140B0"/>
<stop offset="0.511" stop-color="#4481CC"/>
<stop offset="0.513" stop-color="#4E8DCE"/>
<stop offset="0.544" stop-color="#4D8CCE"/>
<stop offset="0.549" stop-color="#5695CB"/>
<stop offset="0.551" stop-color="#5D9CCA"/>
<stop offset="0.589" stop-color="#1B3B85"/>
<stop offset="0.59" stop-color="#1B3B85"/>
<stop offset="0.679" stop-color="#2E3033"/>
<stop offset="0.812" stop-color="#2E3033"/>
<stop offset="1" stop-color="#1D1E20"/>
</linearGradient>
<linearGradient id="paint17_linear_1_2310" x1="0.00195313" y1="283.728" x2="1096" y2="283.728" gradientUnits="userSpaceOnUse">
<stop stop-color="#1D1E20"/>
<stop offset="0.276" stop-color="#2E3033"/>
<stop offset="0.396" stop-color="#2E3033"/>
<stop offset="0.441" stop-color="#273452"/>
<stop offset="0.483" stop-color="#1040B1"/>
<stop offset="0.511" stop-color="#4785CD"/>
<stop offset="0.513" stop-color="#5291CE"/>
<stop offset="0.544" stop-color="#4A89CD"/>
<stop offset="0.549" stop-color="#5391CA"/>
<stop offset="0.551" stop-color="#5A97C9"/>
<stop offset="0.589" stop-color="#1C3B81"/>
<stop offset="0.59" stop-color="#1C3A81"/>
<stop offset="0.679" stop-color="#2E3033"/>
<stop offset="0.812" stop-color="#2E3033"/>
<stop offset="1" stop-color="#1D1E20"/>
</linearGradient>
<linearGradient id="paint18_linear_1_2310" x1="0.00197656" y1="296.979" x2="1096" y2="296.979" gradientUnits="userSpaceOnUse">
<stop stop-color="#1D1E20"/>
<stop offset="0.276" stop-color="#2E3033"/>
<stop offset="0.396" stop-color="#2E3033"/>
<stop offset="0.441" stop-color="#273450"/>
<stop offset="0.483" stop-color="#1040B2"/>
<stop offset="0.511" stop-color="#4B89CD"/>
<stop offset="0.513" stop-color="#5595CF"/>
<stop offset="0.544" stop-color="#4785CD"/>
<stop offset="0.549" stop-color="#508EC9"/>
<stop offset="0.551" stop-color="#5693C8"/>
<stop offset="0.589" stop-color="#1D3A7D"/>
<stop offset="0.59" stop-color="#1D3A7D"/>
<stop offset="0.679" stop-color="#2E3033"/>
<stop offset="0.812" stop-color="#2E3033"/>
<stop offset="1" stop-color="#1D1E20"/>
</linearGradient>
<linearGradient id="paint19_linear_1_2310" x1="0.00192969" y1="310.036" x2="1096" y2="310.036" gradientUnits="userSpaceOnUse">
<stop stop-color="#1D1E20"/>
<stop offset="0.276" stop-color="#2E3033"/>
<stop offset="0.396" stop-color="#2E3033"/>
<stop offset="0.441" stop-color="#28334F"/>
<stop offset="0.483" stop-color="#1041B3"/>
<stop offset="0.511" stop-color="#4E8DCE"/>
<stop offset="0.513" stop-color="#5999CF"/>
<stop offset="0.544" stop-color="#4482CC"/>
<stop offset="0.549" stop-color="#4D8BC9"/>
<stop offset="0.551" stop-color="#528FC8"/>
<stop offset="0.589" stop-color="#1E3A7A"/>
<stop offset="0.59" stop-color="#1D397A"/>
<stop offset="0.679" stop-color="#2E3033"/>
<stop offset="0.812" stop-color="#2E3033"/>
<stop offset="1" stop-color="#1D1E20"/>
</linearGradient>
<linearGradient id="paint20_linear_1_2310" x1="0.00192969" y1="321.48" x2="1096" y2="321.48" gradientUnits="userSpaceOnUse">
<stop stop-color="#1D1E20"/>
<stop offset="0.276" stop-color="#2E3033"/>
<stop offset="0.396" stop-color="#2E3033"/>
<stop offset="0.441" stop-color="#28334D"/>
<stop offset="0.483" stop-color="#1041B4"/>
<stop offset="0.511" stop-color="#5291CE"/>
<stop offset="0.513" stop-color="#5C9DD0"/>
<stop offset="0.544" stop-color="#417ECC"/>
<stop offset="0.55" stop-color="#4A87C8"/>
<stop offset="0.551" stop-color="#4E8BC7"/>
<stop offset="0.589" stop-color="#1F3976"/>
<stop offset="0.59" stop-color="#1E3976"/>
<stop offset="0.679" stop-color="#2E3033"/>
<stop offset="0.812" stop-color="#2E3033"/>
<stop offset="1" stop-color="#1D1E20"/>
</linearGradient>
<linearGradient id="paint21_linear_1_2310" x1="0.00195312" y1="331.395" x2="1096" y2="331.395" gradientUnits="userSpaceOnUse">
<stop stop-color="#1D1E20"/>
<stop offset="0.276" stop-color="#2E3033"/>
<stop offset="0.396" stop-color="#2E3033"/>
<stop offset="0.441" stop-color="#28334C"/>
<stop offset="0.483" stop-color="#0F41B5"/>
<stop offset="0.511" stop-color="#5595CF"/>
<stop offset="0.513" stop-color="#60A1D0"/>
<stop offset="0.544" stop-color="#3E7BCB"/>
<stop offset="0.55" stop-color="#4783C7"/>
<stop offset="0.551" stop-color="#4B86C6"/>
<stop offset="0.589" stop-color="#203972"/>
<stop offset="0.59" stop-color="#1F3872"/>
<stop offset="0.679" stop-color="#2E3033"/>
<stop offset="0.812" stop-color="#2E3033"/>
<stop offset="1" stop-color="#1D1E20"/>
</linearGradient>
<linearGradient id="paint22_linear_1_2310" x1="0.00192969" y1="340.257" x2="1096" y2="340.257" gradientUnits="userSpaceOnUse">
<stop stop-color="#1D1E20"/>
<stop offset="0.276" stop-color="#2E3033"/>
<stop offset="0.396" stop-color="#2E3033"/>
<stop offset="0.441" stop-color="#29334A"/>
<stop offset="0.483" stop-color="#0F41B6"/>
<stop offset="0.511" stop-color="#5999CF"/>
<stop offset="0.513" stop-color="#63A5D1"/>
<stop offset="0.544" stop-color="#3B77CB"/>
<stop offset="0.55" stop-color="#4480C6"/>
<stop offset="0.551" stop-color="#4782C5"/>
<stop offset="0.589" stop-color="#21386E"/>
<stop offset="0.59" stop-color="#20386E"/>
<stop offset="0.679" stop-color="#2E3033"/>
<stop offset="0.812" stop-color="#2E3033"/>
<stop offset="1" stop-color="#1D1E20"/>
</linearGradient>
<linearGradient id="paint23_linear_1_2310" x1="0.00197656" y1="348.55" x2="1096" y2="348.55" gradientUnits="userSpaceOnUse">
<stop stop-color="#1D1E20"/>
<stop offset="0.276" stop-color="#2E3033"/>
<stop offset="0.396" stop-color="#2E3033"/>
<stop offset="0.441" stop-color="#293349"/>
<stop offset="0.483" stop-color="#0F41B7"/>
<stop offset="0.511" stop-color="#5C9DD0"/>
<stop offset="0.513" stop-color="#67A9D1"/>
<stop offset="0.544" stop-color="#3874CA"/>
<stop offset="0.551" stop-color="#437EC4"/>
<stop offset="0.589" stop-color="#22386A"/>
<stop offset="0.59" stop-color="#21376A"/>
<stop offset="0.679" stop-color="#2E3033"/>
<stop offset="0.812" stop-color="#2E3033"/>
<stop offset="1" stop-color="#1D1E20"/>
</linearGradient>
<linearGradient id="paint24_linear_1_2310" x1="0.00192969" y1="356.769" x2="1096" y2="356.769" gradientUnits="userSpaceOnUse">
<stop stop-color="#1D1E20"/>
<stop offset="0.276" stop-color="#2E3033"/>
<stop offset="0.396" stop-color="#2E3033"/>
<stop offset="0.441" stop-color="#293247"/>
<stop offset="0.483" stop-color="#0F41B8"/>
<stop offset="0.511" stop-color="#60A0D0"/>
<stop offset="0.513" stop-color="#6BADD2"/>
<stop offset="0.544" stop-color="#3470CA"/>
<stop offset="0.551" stop-color="#3F79C3"/>
<stop offset="0.589" stop-color="#223766"/>
<stop offset="0.59" stop-color="#223766"/>
<stop offset="0.679" stop-color="#2E3033"/>
<stop offset="0.812" stop-color="#2E3033"/>
<stop offset="1" stop-color="#1D1E20"/>
</linearGradient>
<linearGradient id="paint25_linear_1_2310" x1="0.00197656" y1="365.079" x2="1096" y2="365.079" gradientUnits="userSpaceOnUse">
<stop stop-color="#1D1E20"/>
<stop offset="0.276" stop-color="#2E3033"/>
<stop offset="0.396" stop-color="#2E3033"/>
<stop offset="0.441" stop-color="#2A3245"/>
<stop offset="0.483" stop-color="#0F41B9"/>
<stop offset="0.511" stop-color="#63A4D1"/>
<stop offset="0.513" stop-color="#6EB1D3"/>
<stop offset="0.544" stop-color="#316DCA"/>
<stop offset="0.551" stop-color="#3C75C2"/>
<stop offset="0.589" stop-color="#233662"/>
<stop offset="0.59" stop-color="#233662"/>
<stop offset="0.679" stop-color="#2E3033"/>
<stop offset="0.812" stop-color="#2E3033"/>
<stop offset="1" stop-color="#1D1E20"/>
</linearGradient>
<linearGradient id="paint26_linear_1_2310" x1="0.00192969" y1="374.724" x2="1096" y2="374.724" gradientUnits="userSpaceOnUse">
<stop stop-color="#1D1E20"/>
<stop offset="0.276" stop-color="#2E3033"/>
<stop offset="0.396" stop-color="#2E3033"/>
<stop offset="0.441" stop-color="#2A3244"/>
<stop offset="0.483" stop-color="#0E42BA"/>
<stop offset="0.511" stop-color="#67A8D1"/>
<stop offset="0.513" stop-color="#72B5D3"/>
<stop offset="0.544" stop-color="#2E69C9"/>
<stop offset="0.551" stop-color="#3871C1"/>
<stop offset="0.589" stop-color="#24365E"/>
<stop offset="0.59" stop-color="#24365E"/>
<stop offset="0.679" stop-color="#2E3033"/>
<stop offset="0.812" stop-color="#2E3033"/>
<stop offset="1" stop-color="#1D1E20"/>
</linearGradient>
<linearGradient id="paint27_linear_1_2310" x1="0.00210352" y1="385.725" x2="1096" y2="385.725" gradientUnits="userSpaceOnUse">
<stop stop-color="#1D1E20"/>
<stop offset="0.276" stop-color="#2E3033"/>
<stop offset="0.396" stop-color="#2E3033"/>
<stop offset="0.441" stop-color="#2A3242"/>
<stop offset="0.483" stop-color="#0E42BB"/>
<stop offset="0.511" stop-color="#6AACD2"/>
<stop offset="0.513" stop-color="#75B9D4"/>
<stop offset="0.544" stop-color="#2B66C9"/>
<stop offset="0.551" stop-color="#346CC0"/>
<stop offset="0.589" stop-color="#25355A"/>
<stop offset="0.59" stop-color="#25355A"/>
<stop offset="0.679" stop-color="#2E3033"/>
<stop offset="0.812" stop-color="#2E3033"/>
<stop offset="1" stop-color="#1D1E20"/>
</linearGradient>
<linearGradient id="paint28_linear_1_2310" x1="0.00192969" y1="398.051" x2="1096" y2="398.051" gradientUnits="userSpaceOnUse">
<stop stop-color="#1D1E20"/>
<stop offset="0.276" stop-color="#2E3033"/>
<stop offset="0.396" stop-color="#2E3033"/>
<stop offset="0.441" stop-color="#2B3241"/>
<stop offset="0.483" stop-color="#0E42BB"/>
<stop offset="0.511" stop-color="#6EB0D2"/>
<stop offset="0.513" stop-color="#79BDD4"/>
<stop offset="0.544" stop-color="#2862C8"/>
<stop offset="0.551" stop-color="#3168BF"/>
<stop offset="0.589" stop-color="#263556"/>
<stop offset="0.59" stop-color="#263556"/>
<stop offset="0.679" stop-color="#2E3033"/>
<stop offset="0.812" stop-color="#2E3033"/>
<stop offset="1" stop-color="#1D1E20"/>
</linearGradient>
<linearGradient id="paint29_linear_1_2310" x1="0.00197656" y1="410.897" x2="1096" y2="410.897" gradientUnits="userSpaceOnUse">
<stop stop-color="#1D1E20"/>
<stop offset="0.276" stop-color="#2E3033"/>
<stop offset="0.396" stop-color="#2E3033"/>
<stop offset="0.441" stop-color="#2B323F"/>
<stop offset="0.483" stop-color="#0E42BC"/>
<stop offset="0.511" stop-color="#71B4D3"/>
<stop offset="0.513" stop-color="#7CC1D5"/>
<stop offset="0.544" stop-color="#255FC8"/>
<stop offset="0.551" stop-color="#2D64BE"/>
<stop offset="0.589" stop-color="#273452"/>
<stop offset="0.59" stop-color="#273452"/>
<stop offset="0.679" stop-color="#2E3033"/>
<stop offset="0.812" stop-color="#2E3033"/>
<stop offset="1" stop-color="#1D1E20"/>
</linearGradient>
<linearGradient id="paint30_linear_1_2310" x1="0.00192969" y1="423.308" x2="1096" y2="423.308" gradientUnits="userSpaceOnUse">
<stop stop-color="#1D1E20"/>
<stop offset="0.276" stop-color="#2E3033"/>
<stop offset="0.396" stop-color="#2E3033"/>
<stop offset="0.441" stop-color="#2C313E"/>
<stop offset="0.483" stop-color="#0E42BD"/>
<stop offset="0.511" stop-color="#75B8D3"/>
<stop offset="0.513" stop-color="#80C5D5"/>
<stop offset="0.544" stop-color="#225BC7"/>
<stop offset="0.551" stop-color="#295FBD"/>
<stop offset="0.589" stop-color="#28344E"/>
<stop offset="0.59" stop-color="#28344E"/>
<stop offset="0.679" stop-color="#2E3033"/>
<stop offset="0.812" stop-color="#2E3033"/>
<stop offset="1" stop-color="#1D1E20"/>
</linearGradient>
<linearGradient id="paint31_linear_1_2310" x1="0.00192969" y1="436.345" x2="1096" y2="436.345" gradientUnits="userSpaceOnUse">
<stop stop-color="#1D1E20"/>
<stop offset="0.276" stop-color="#2E3033"/>
<stop offset="0.396" stop-color="#2E3033"/>
<stop offset="0.441" stop-color="#2C313C"/>
<stop offset="0.483" stop-color="#0D42BE"/>
<stop offset="0.511" stop-color="#78BCD4"/>
<stop offset="0.513" stop-color="#84C9D6"/>
<stop offset="0.544" stop-color="#1F58C7"/>
<stop offset="0.551" stop-color="#255BBD"/>
<stop offset="0.589" stop-color="#29334B"/>
<stop offset="0.59" stop-color="#28334B"/>
<stop offset="0.679" stop-color="#2E3033"/>
<stop offset="0.812" stop-color="#2E3033"/>
<stop offset="1" stop-color="#1D1E20"/>
</linearGradient>
<linearGradient id="paint32_linear_1_2310" x1="0.00197656" y1="450.129" x2="1096" y2="450.129" gradientUnits="userSpaceOnUse">
<stop stop-color="#1D1E20"/>
<stop offset="0.276" stop-color="#2E3033"/>
<stop offset="0.396" stop-color="#2E3033"/>
<stop offset="0.441" stop-color="#2C313B"/>
<stop offset="0.483" stop-color="#0D42BF"/>
<stop offset="0.511" stop-color="#7CC0D4"/>
<stop offset="0.513" stop-color="#87CDD6"/>
<stop offset="0.544" stop-color="#1C54C6"/>
<stop offset="0.551" stop-color="#2257BC"/>
<stop offset="0.589" stop-color="#2A3347"/>
<stop offset="0.59" stop-color="#293347"/>
<stop offset="0.679" stop-color="#2E3033"/>
<stop offset="0.812" stop-color="#2E3033"/>
<stop offset="1" stop-color="#1D1E20"/>
</linearGradient>
<linearGradient id="paint33_linear_1_2310" x1="0.00192969" y1="463.59" x2="1096" y2="463.59" gradientUnits="userSpaceOnUse">
<stop stop-color="#1D1E20"/>
<stop offset="0.276" stop-color="#2E3033"/>
<stop offset="0.396" stop-color="#2E3033"/>
<stop offset="0.441" stop-color="#2D3139"/>
<stop offset="0.483" stop-color="#0D42C0"/>
<stop offset="0.511" stop-color="#7FC3D5"/>
<stop offset="0.513" stop-color="#8BD1D7"/>
<stop offset="0.544" stop-color="#1851C6"/>
<stop offset="0.551" stop-color="#1E52BB"/>
<stop offset="0.589" stop-color="#2A3243"/>
<stop offset="0.59" stop-color="#2A3243"/>
<stop offset="0.679" stop-color="#2E3033"/>
<stop offset="0.812" stop-color="#2E3033"/>
<stop offset="1" stop-color="#1D1E20"/>
</linearGradient>
<linearGradient id="paint34_linear_1_2310" x1="0.00195312" y1="477.15" x2="1096" y2="477.15" gradientUnits="userSpaceOnUse">
<stop stop-color="#1D1E20"/>
<stop offset="0.276" stop-color="#2E3033"/>
<stop offset="0.396" stop-color="#2E3033"/>
<stop offset="0.441" stop-color="#2D3138"/>
<stop offset="0.483" stop-color="#0D43C1"/>
<stop offset="0.511" stop-color="#83C7D5"/>
<stop offset="0.513" stop-color="#8ED5D7"/>
<stop offset="0.544" stop-color="#154DC5"/>
<stop offset="0.551" stop-color="#1A4EBA"/>
<stop offset="0.589" stop-color="#2B323F"/>
<stop offset="0.59" stop-color="#2B323F"/>
<stop offset="0.679" stop-color="#2E3033"/>
<stop offset="0.812" stop-color="#2E3033"/>
<stop offset="1" stop-color="#1D1E20"/>
</linearGradient>
<linearGradient id="paint35_linear_1_2310" x1="0.00192969" y1="490.756" x2="1096" y2="490.756" gradientUnits="userSpaceOnUse">
<stop stop-color="#1D1E20"/>
<stop offset="0.276" stop-color="#2E3033"/>
<stop offset="0.396" stop-color="#2E3033"/>
<stop offset="0.441" stop-color="#2D3036"/>
<stop offset="0.483" stop-color="#0C43C2"/>
<stop offset="0.511" stop-color="#86CBD6"/>
<stop offset="0.513" stop-color="#92D9D8"/>
<stop offset="0.544" stop-color="#124AC5"/>
<stop offset="0.55" stop-color="#154ABB"/>
<stop offset="0.551" stop-color="#164AB9"/>
<stop offset="0.589" stop-color="#2C313B"/>
<stop offset="0.59" stop-color="#2C313B"/>
<stop offset="0.679" stop-color="#2E3033"/>
<stop offset="0.812" stop-color="#2E3033"/>
<stop offset="1" stop-color="#1D1E20"/>
</linearGradient>
<linearGradient id="paint36_linear_1_2310" x1="0.00192969" y1="504.363" x2="1096" y2="504.363" gradientUnits="userSpaceOnUse">
<stop stop-color="#1D1E20"/>
<stop offset="0.276" stop-color="#2E3033"/>
<stop offset="0.396" stop-color="#2E3033"/>
<stop offset="0.441" stop-color="#2E3035"/>
<stop offset="0.483" stop-color="#0C43C3"/>
<stop offset="0.511" stop-color="#8ACFD6"/>
<stop offset="0.513" stop-color="#95DDD8"/>
<stop offset="0.544" stop-color="#0F46C4"/>
<stop offset="0.55" stop-color="#1245BA"/>
<stop offset="0.551" stop-color="#1345B8"/>
<stop offset="0.589" stop-color="#2D3137"/>
<stop offset="0.59" stop-color="#2D3137"/>
<stop offset="0.679" stop-color="#2E3033"/>
<stop offset="0.812" stop-color="#2E3033"/>
<stop offset="1" stop-color="#1D1E20"/>
</linearGradient>
<linearGradient id="paint37_linear_1_2310" x1="0.00195312" y1="517.455" x2="1096" y2="517.455" gradientUnits="userSpaceOnUse">
<stop stop-color="#1D1E20"/>
<stop offset="0.276" stop-color="#2E3033"/>
<stop offset="0.441" stop-color="#2E3033"/>
<stop offset="0.483" stop-color="#0C43C4"/>
<stop offset="0.513" stop-color="#99E1D9"/>
<stop offset="0.544" stop-color="#0C43C4"/>
<stop offset="0.55" stop-color="#0E41BA"/>
<stop offset="0.56" stop-color="#143E9F"/>
<stop offset="0.573" stop-color="#1E3873"/>
<stop offset="0.588" stop-color="#2C3037"/>
<stop offset="0.589" stop-color="#2E3033"/>
<stop offset="0.812" stop-color="#2E3033"/>
<stop offset="1" stop-color="#1D1E20"/>
</linearGradient>
</defs>
</svg>
