<svg width="139" height="42" viewBox="0 0 139 42" fill="none" xmlns="http://www.w3.org/2000/svg">
<path d="M7.29348 29.8526C2.87971 29.8526 0 27.0784 0 23.0361C0 18.9409 2.87971 16.1931 7.29348 16.1931C11.3035 16.1931 14.2371 18.4125 14.2371 21.6886V21.9528H11.3574V21.7943C11.3574 19.7599 9.85023 18.7559 7.23965 18.7559C4.22537 18.7559 2.87971 20.1562 2.87971 23.0361C2.87971 25.8631 4.22537 27.2898 7.23965 27.2898C9.85023 27.2898 11.3574 26.2858 11.3574 24.2514V24.0665H14.2371V24.3571C14.2371 27.6332 11.3035 29.8526 7.29348 29.8526Z" fill="white"/>
<path d="M20.3159 29.8526C17.5438 29.8526 15.7945 28.5844 15.7945 26.4179C15.7945 24.3835 17.4631 23.3267 20.1006 23.0361L26.183 22.402V21.6358C26.183 19.4693 25.2141 18.7031 22.6573 18.7031C20.1813 18.7031 18.9702 19.4957 18.9702 21.4244V21.5301H16.0905V21.4244C16.0905 18.4389 18.6204 16.1931 22.8726 16.1931C27.1249 16.1931 29.0358 18.4653 29.0358 21.6093V29.5884H26.3714V26.3122H26.183C25.4832 28.5315 23.3571 29.8526 20.3159 29.8526ZM18.7011 26.2329C18.7011 27.2898 19.4277 27.7918 21.0964 27.7918C24.1376 27.7918 26.183 26.6821 26.183 24.0929L20.9349 24.6741C19.4278 24.8591 18.7011 25.2025 18.7011 26.2329Z" fill="white"/>
<path d="M34.537 29.5884H31.6304V16.4573H34.2948V19.9977H34.4832C34.8869 17.884 36.3402 16.1931 39.0853 16.1931C42.1265 16.1931 43.4453 18.3332 43.4453 20.8167V22.5341H40.5655V21.3716C40.5655 19.4957 39.7581 18.6238 37.7666 18.6238C35.4789 18.6238 34.537 19.8656 34.537 22.217V29.5884Z" fill="white"/>
<path d="M51.9992 29.8526C47.6124 29.8526 44.7327 27.4219 44.7327 23.0361C44.7327 18.9409 47.5855 16.1931 51.9454 16.1931C56.09 16.1931 58.9159 18.4389 58.9159 22.4284C58.9159 22.904 58.889 23.2738 58.8083 23.6701H47.4509C47.5586 26.2065 48.8235 27.554 51.9185 27.554C54.7175 27.554 55.8747 26.6557 55.8747 25.0969V24.8855H58.7814V25.1233C58.7814 27.9239 55.9824 29.8526 51.9992 29.8526ZM51.8916 18.4389C48.9311 18.4389 47.6393 19.7335 47.4778 22.0849H56.1708V22.0321C56.1708 19.6014 54.7444 18.4389 51.8916 18.4389Z" fill="white"/>
<path d="M61.5774 18.9673H60.6085V17.2235H61.4966C61.9542 17.2235 62.1695 17.0914 62.1695 16.5366V15.9818H60.5547V11.8866H64.2149V16.5102C64.2149 18.1747 63.246 18.9673 61.5774 18.9673Z" fill="#CD1111"/>
<path d="M69.0401 29.5884H66.3757V11.8866H69.2823V20.0241H69.4438C69.9821 17.8048 71.7583 16.1931 74.961 16.1931C79.0787 16.1931 81.3394 18.9409 81.3394 23.0361C81.3394 27.0784 79.0518 29.8526 74.7995 29.8526C71.7583 29.8526 69.7937 28.4258 69.2285 25.8102H69.0401V29.5884ZM69.2823 23.1682C69.2823 25.9159 71.0048 27.2369 73.8845 27.2369C76.818 27.2369 78.4328 26.1801 78.4328 23.0361C78.4328 19.8656 76.7911 18.7823 73.9383 18.7823C70.924 18.7823 69.2823 20.1562 69.2823 22.9568V23.1682Z" fill="white"/>
<path d="M90.1901 29.8526C85.7494 29.8526 82.7621 27.0784 82.7621 23.0361C82.7621 18.9409 85.7494 16.1931 90.1901 16.1931C94.6577 16.1931 97.6451 18.9409 97.6451 23.0361C97.6451 27.0784 94.6577 29.8526 90.1901 29.8526ZM90.1901 27.3162C93.4466 27.3162 94.7923 25.8102 94.7923 23.0361C94.7923 20.2355 93.4466 18.7031 90.1901 18.7031C86.9605 18.7031 85.6149 20.2355 85.6149 23.0361C85.6149 25.8102 86.9605 27.3162 90.1901 27.3162Z" fill="white"/>
<path d="M105.325 29.8526C101.558 29.8526 99.7275 27.3954 99.7275 24.3571V16.4573H102.607V23.5909C102.607 26.048 103.764 27.2898 106.59 27.2898C109.551 27.2898 110.923 25.8102 110.923 22.9568V16.4573H113.803V29.5884H111.139V25.5196H110.977C110.547 27.7389 108.77 29.8526 105.325 29.8526Z" fill="white"/>
<path d="M125.217 29.5884H122.149C119.27 29.5884 117.493 28.3466 117.493 25.1497V18.8352H115.233V16.4573H117.493V13.5775H120.373V16.4573H125.217V18.8352H120.373V24.9912C120.373 26.6028 121.127 27.0256 122.795 27.0256H125.217V29.5884Z" fill="white"/>
</svg>
